<?xml version="1.0" encoding="utf-8"?>
<!-- Generator: Adobe Illustrator 16.0.0, SVG Export Plug-In . SVG Version: 6.00 Build 0)  -->
<!DOCTYPE svg PUBLIC "-//W3C//DTD SVG 1.1//EN" "http://www.w3.org/Graphics/SVG/1.1/DTD/svg11.dtd">
<svg version="1.1" id="Layer_1" xmlns="http://www.w3.org/2000/svg" xmlns:xlink="http://www.w3.org/1999/xlink" x="0px" y="0px"
	 width="40px" height="40px" viewBox="0 0 40 40" enable-background="new 0 0 40 40" xml:space="preserve">
<path fill="#B4B4B4" d="M27.5,16.875c0,0.13-0.05,0.245-0.149,0.345l-7.005,7.004c-0.1,0.1-0.215,0.15-0.346,0.15
	s-0.246-0.05-0.346-0.15L12.65,17.22c-0.101-0.101-0.15-0.215-0.15-0.345c0-0.13,0.05-0.246,0.15-0.346l0.752-0.751
	c0.1-0.1,0.215-0.15,0.346-0.15s0.245,0.05,0.346,0.15L20,21.684l5.908-5.907c0.1-0.1,0.213-0.15,0.344-0.15s0.246,0.05,0.346,0.15
	l0.753,0.751C27.45,16.629,27.5,16.744,27.5,16.875z"/>
</svg>
