<?xml version="1.0" encoding="utf-8"?>
<!-- Generator: Adobe Illustrator 16.0.0, SVG Export Plug-In . SVG Version: 6.00 Build 0)  -->
<!DOCTYPE svg PUBLIC "-//W3C//DTD SVG 1.1//EN" "http://www.w3.org/Graphics/SVG/1.1/DTD/svg11.dtd">
<svg version="1.1" id="Layer_1" xmlns="http://www.w3.org/2000/svg" xmlns:xlink="http://www.w3.org/1999/xlink" x="0px" y="0px"
	 width="40px" height="40px" viewBox="0 0 40 40" enable-background="new 0 0 40 40" xml:space="preserve">
<path fill="#B4B4B4" d="M16.875,12.5c0.13,0,0.245,0.05,0.345,0.15l7.004,7.004c0.1,0.1,0.15,0.215,0.15,0.346
	s-0.05,0.246-0.15,0.346L17.22,27.35c-0.101,0.101-0.215,0.15-0.345,0.15c-0.13,0-0.246-0.05-0.346-0.15l-0.751-0.752
	c-0.1-0.1-0.15-0.215-0.15-0.345c0-0.131,0.05-0.246,0.15-0.346L21.684,20l-5.907-5.907c-0.1-0.1-0.15-0.214-0.15-0.345
	s0.05-0.246,0.15-0.346l0.751-0.752C16.629,12.55,16.744,12.5,16.875,12.5z"/>
</svg>
