<?xml version="1.0" encoding="utf-8"?>
<!-- Generator: Adobe Illustrator 16.0.0, SVG Export Plug-In . SVG Version: 6.00 Build 0)  -->
<!DOCTYPE svg PUBLIC "-//W3C//DTD SVG 1.1//EN" "http://www.w3.org/Graphics/SVG/1.1/DTD/svg11.dtd">
<svg version="1.1" id="Layer_1" xmlns="http://www.w3.org/2000/svg" xmlns:xlink="http://www.w3.org/1999/xlink" x="0px" y="0px"
	 width="40px" height="40px" viewBox="0 0 40 40" enable-background="new 0 0 40 40" xml:space="preserve">
<path fill="#B4B4B4" d="M12.5,23.125c0-0.13,0.05-0.245,0.149-0.345l7.005-7.004c0.1-0.1,0.215-0.15,0.346-0.15
	s0.246,0.05,0.346,0.15l7.004,7.004c0.101,0.101,0.15,0.215,0.15,0.345c0,0.13-0.05,0.246-0.15,0.346l-0.752,0.751
	c-0.1,0.1-0.215,0.15-0.346,0.15s-0.245-0.05-0.346-0.15L20,18.316l-5.908,5.907c-0.1,0.1-0.213,0.15-0.344,0.15
	s-0.246-0.05-0.346-0.15l-0.753-0.751C12.55,23.371,12.5,23.256,12.5,23.125z"/>
</svg>
