<?xml version="1.0" encoding="utf-8"?>
<!-- Generator: Adobe Illustrator 16.0.0, SVG Export Plug-In . SVG Version: 6.00 Build 0)  -->
<!DOCTYPE svg PUBLIC "-//W3C//DTD SVG 1.1//EN" "http://www.w3.org/Graphics/SVG/1.1/DTD/svg11.dtd">
<svg version="1.1" id="Layer_1" xmlns="http://www.w3.org/2000/svg" xmlns:xlink="http://www.w3.org/1999/xlink" x="0px" y="0px"
	 width="40px" height="40px" viewBox="0 0 40 40" enable-background="new 0 0 40 40" xml:space="preserve">
<path fill="#B4B4B4" d="M30,12.5v1.667c0,0.226-0.082,0.421-0.247,0.585C29.588,14.918,29.393,15,29.167,15H10.833
	c-0.226,0-0.421-0.082-0.586-0.248C10.082,14.588,10,14.393,10,14.167V12.5c0-0.226,0.082-0.421,0.247-0.586s0.36-0.248,0.586-0.248
	h18.334c0.226,0,0.421,0.083,0.586,0.248S30,12.274,30,12.5z M30,19.167v1.667c0,0.226-0.082,0.421-0.247,0.585
	c-0.165,0.165-0.36,0.247-0.586,0.247H10.833c-0.226,0-0.421-0.082-0.586-0.247C10.082,21.255,10,21.06,10,20.834v-1.667
	c0-0.226,0.082-0.421,0.247-0.586c0.165-0.165,0.36-0.247,0.586-0.247h18.334c0.226,0,0.421,0.083,0.586,0.247
	C29.918,18.746,30,18.941,30,19.167z M30,25.834V27.5c0,0.226-0.082,0.422-0.247,0.586c-0.165,0.166-0.36,0.248-0.586,0.248H10.833
	c-0.226,0-0.421-0.082-0.586-0.248C10.082,27.922,10,27.726,10,27.5v-1.666c0-0.226,0.082-0.421,0.247-0.586
	C10.412,25.083,10.607,25,10.833,25h18.334c0.226,0,0.421,0.083,0.586,0.248C29.918,25.413,30,25.608,30,25.834z"/>
</svg>
