<?xml version="1.0" encoding="utf-8"?>
<!-- Generator: Adobe Illustrator 16.0.0, SVG Export Plug-In . SVG Version: 6.00 Build 0)  -->
<!DOCTYPE svg PUBLIC "-//W3C//DTD SVG 1.1//EN" "http://www.w3.org/Graphics/SVG/1.1/DTD/svg11.dtd">
<svg version="1.1" id="Layer_1" xmlns="http://www.w3.org/2000/svg" xmlns:xlink="http://www.w3.org/1999/xlink" x="0px" y="0px"
	 width="40px" height="40px" viewBox="0 0 40 40" enable-background="new 0 0 40 40" xml:space="preserve">
<path fill="#B4B4B4" d="M29,14.846V21c0,0.192-0.064,0.362-0.191,0.511c-0.129,0.148-0.293,0.234-0.494,0.258l-12.547,1.466
	c0.008,0.057,0.025,0.143,0.053,0.259c0.029,0.116,0.053,0.222,0.073,0.318c0.02,0.096,0.03,0.185,0.03,0.265
	c0,0.128-0.097,0.384-0.289,0.769h11.058c0.208,0,0.389,0.077,0.541,0.228c0.152,0.153,0.229,0.333,0.229,0.542
	c0,0.208-0.076,0.388-0.229,0.541s-0.333,0.229-0.541,0.229H14.385c-0.208,0-0.389-0.076-0.541-0.229s-0.229-0.333-0.229-0.541
	c0-0.113,0.044-0.271,0.133-0.475c0.088-0.204,0.206-0.442,0.354-0.715c0.147-0.272,0.229-0.425,0.246-0.457l-2.127-9.892H9.77
	c-0.209,0-0.389-0.076-0.541-0.229S9,13.516,9,13.308s0.076-0.389,0.229-0.541s0.332-0.229,0.541-0.229h3.076
	c0.129,0,0.242,0.026,0.344,0.079c0.1,0.052,0.18,0.114,0.24,0.186c0.06,0.072,0.111,0.17,0.156,0.295
	c0.044,0.124,0.073,0.23,0.09,0.318c0.016,0.088,0.038,0.206,0.065,0.354c0.028,0.148,0.047,0.25,0.055,0.307H28.23
	c0.209,0,0.389,0.076,0.541,0.228C28.924,14.458,29,14.638,29,14.846z M16.241,26.835c0.301,0.3,0.451,0.664,0.451,1.087
	c0,0.425-0.15,0.787-0.451,1.088c-0.3,0.301-0.663,0.451-1.087,0.451c-0.426,0-0.787-0.15-1.088-0.451s-0.451-0.663-0.451-1.088
	c0-0.424,0.15-0.787,0.451-1.087c0.301-0.301,0.662-0.451,1.088-0.451C15.578,26.385,15.941,26.535,16.241,26.835z M27.011,26.835
	c0.301,0.3,0.451,0.664,0.451,1.087c0,0.425-0.15,0.787-0.451,1.088c-0.3,0.301-0.663,0.451-1.087,0.451
	c-0.426,0-0.788-0.15-1.089-0.451c-0.3-0.301-0.45-0.663-0.45-1.088c0-0.424,0.15-0.787,0.45-1.087
	c0.301-0.301,0.663-0.451,1.089-0.451C26.348,26.385,26.711,26.535,27.011,26.835z"/>
</svg>
