<?xml version="1.0" encoding="utf-8"?>
<!-- Generator: Adobe Illustrator 16.0.0, SVG Export Plug-In . SVG Version: 6.00 Build 0)  -->
<!DOCTYPE svg PUBLIC "-//W3C//DTD SVG 1.1//EN" "http://www.w3.org/Graphics/SVG/1.1/DTD/svg11.dtd">
<svg version="1.1" id="Layer_1" xmlns="http://www.w3.org/2000/svg" xmlns:xlink="http://www.w3.org/1999/xlink" x="0px" y="0px"
	 width="40px" height="40px" viewBox="0 0 40 40" enable-background="new 0 0 40 40" xml:space="preserve">
<path fill="#B4B4B4" d="M20,28.714c-0.174,0-0.321-0.06-0.442-0.18l-6.268-6.047c-0.066-0.054-0.159-0.141-0.275-0.262
	c-0.118-0.12-0.305-0.339-0.559-0.657c-0.254-0.318-0.482-0.645-0.683-0.979c-0.2-0.335-0.38-0.74-0.538-1.216
	C11.079,18.897,11,18.436,11,17.987c0-1.474,0.426-2.625,1.276-3.456c0.85-0.831,2.024-1.246,3.525-1.246
	c0.415,0,0.838,0.072,1.27,0.216c0.433,0.144,0.834,0.337,1.206,0.583c0.372,0.244,0.69,0.474,0.96,0.687
	c0.267,0.214,0.521,0.442,0.763,0.684c0.241-0.242,0.496-0.47,0.763-0.684c0.269-0.213,0.588-0.443,0.96-0.687
	c0.372-0.246,0.773-0.439,1.206-0.583c0.432-0.144,0.854-0.216,1.27-0.216c1.501,0,2.676,0.415,3.525,1.246
	C28.574,15.362,29,16.513,29,17.987c0,1.479-0.767,2.986-2.3,4.519l-6.258,6.028C20.321,28.654,20.174,28.714,20,28.714z"/>
</svg>
