<?xml version="1.0" encoding="utf-8"?>
<!-- Generator: Adobe Illustrator 16.0.0, SVG Export Plug-In . SVG Version: 6.00 Build 0)  -->
<!DOCTYPE svg PUBLIC "-//W3C//DTD SVG 1.1//EN" "http://www.w3.org/Graphics/SVG/1.1/DTD/svg11.dtd">
<svg version="1.1" id="Layer_1" xmlns="http://www.w3.org/2000/svg" xmlns:xlink="http://www.w3.org/1999/xlink" x="0px" y="0px"
	 width="40px" height="40px" viewBox="0 0 40 40" enable-background="new 0 0 40 40" xml:space="preserve">
<path fill="#B4B4B4" d="M28.657,14.98c-0.894-1.531-2.106-2.745-3.639-3.639c-1.532-0.895-3.205-1.341-5.02-1.342
	c-1.814,0-3.486,0.447-5.02,1.342c-1.532,0.895-2.745,2.107-3.64,3.639c-0.894,1.53-1.341,3.204-1.341,5.019
	c0,1.814,0.447,3.488,1.341,5.02c0.895,1.532,2.107,2.744,3.64,3.639C16.513,29.552,18.185,30,19.999,30
	c1.815,0,3.487-0.447,5.02-1.341c1.532-0.895,2.745-2.105,3.639-3.639C29.553,23.488,30,21.814,30,20
	C29.999,18.186,29.552,16.512,28.657,14.98z M25.776,17.642l-6.363,6.363c-0.165,0.164-0.364,0.248-0.6,0.249
	c-0.226,0-0.421-0.084-0.585-0.249l-4.006-4.006c-0.157-0.158-0.235-0.352-0.235-0.585c0-0.245,0.078-0.444,0.234-0.6l0.478-0.465
	c0.165-0.165,0.36-0.246,0.587-0.246c0.225,0,0.42,0.082,0.587,0.246l2.94,2.944l5.312-5.301c0.165-0.164,0.36-0.246,0.587-0.246
	c0.226,0,0.422,0.082,0.586,0.246l0.478,0.465c0.156,0.156,0.235,0.355,0.235,0.6C26.011,17.29,25.933,17.485,25.776,17.642z"/>
</svg>
