<?xml version="1.0" encoding="utf-8"?>
<!-- Generator: Adobe Illustrator 16.0.0, SVG Export Plug-In . SVG Version: 6.00 Build 0)  -->
<!DOCTYPE svg PUBLIC "-//W3C//DTD SVG 1.1//EN" "http://www.w3.org/Graphics/SVG/1.1/DTD/svg11.dtd">
<svg version="1.1" id="Layer_1" xmlns="http://www.w3.org/2000/svg" xmlns:xlink="http://www.w3.org/1999/xlink" x="0px" y="0px"
	 width="40px" height="40px" viewBox="0 0 40 40" enable-background="new 0 0 40 40" xml:space="preserve">
<path fill="#B4B4B4" d="M14.98,11.342C16.513,10.447,18.186,10,20,10s3.487,0.447,5.02,1.342s2.745,2.107,3.639,3.639
	C29.553,16.512,30,18.186,30,20s-0.447,3.488-1.342,5.02c-0.894,1.533-2.106,2.744-3.639,3.639S21.814,30,20,30
	s-3.487-0.447-5.02-1.342s-2.745-2.105-3.64-3.639C10.447,23.488,10,21.814,10,20s0.447-3.488,1.341-5.02
	C12.235,13.449,13.448,12.236,14.98,11.342z M21.641,21.758l0.234-8.086c0-0.104-0.044-0.182-0.131-0.234
	c-0.086-0.07-0.19-0.104-0.312-0.104h-2.865c-0.122,0-0.226,0.033-0.312,0.104c-0.087,0.053-0.13,0.131-0.13,0.234l0.221,8.086
	c0,0.086,0.044,0.162,0.131,0.229c0.087,0.064,0.19,0.098,0.312,0.098h2.408c0.122,0,0.224-0.033,0.307-0.098
	C21.586,21.92,21.632,21.844,21.641,21.758z M21.667,26.236v-2.473c0-0.123-0.04-0.225-0.118-0.307s-0.174-0.123-0.286-0.123h-2.5
	c-0.112,0-0.213,0.043-0.3,0.129c-0.086,0.088-0.13,0.188-0.13,0.301v2.473c0,0.113,0.044,0.213,0.13,0.301
	c0.087,0.086,0.188,0.131,0.3,0.131h2.5c0.112,0,0.208-0.043,0.286-0.125S21.667,26.359,21.667,26.236z"/>
</svg>
