<?xml version="1.0" encoding="utf-8"?>
<!-- Generator: Adobe Illustrator 16.0.0, SVG Export Plug-In . SVG Version: 6.00 Build 0)  -->
<!DOCTYPE svg PUBLIC "-//W3C//DTD SVG 1.1//EN" "http://www.w3.org/Graphics/SVG/1.1/DTD/svg11.dtd">
<svg version="1.1" id="Layer_1" xmlns="http://www.w3.org/2000/svg" xmlns:xlink="http://www.w3.org/1999/xlink" x="0px" y="0px"
	 width="40px" height="40px" viewBox="0 0 40 40" enable-background="new 0 0 40 40" xml:space="preserve">
<path fill="#B4B4B4" d="M30,28.461c0,0.417-0.152,0.777-0.457,1.082C29.238,29.848,28.878,30,28.462,30
	c-0.433,0-0.793-0.152-1.082-0.457l-4.123-4.11c-1.434,0.993-3.032,1.49-4.795,1.49c-1.146,0-2.241-0.222-3.287-0.667
	s-1.947-1.045-2.705-1.803c-0.757-0.757-1.358-1.658-1.803-2.705C10.223,20.703,10,19.607,10,18.462
	c0-1.146,0.223-2.242,0.667-3.288c0.444-1.045,1.046-1.946,1.803-2.703c0.757-0.758,1.659-1.359,2.705-1.804
	C16.22,10.222,17.315,10,18.461,10s2.242,0.222,3.288,0.667c1.045,0.444,1.947,1.046,2.704,1.804
	c0.758,0.757,1.358,1.658,1.803,2.703c0.445,1.046,0.667,2.142,0.667,3.288c0,1.763-0.497,3.361-1.49,4.796l4.123,4.123
	C29.852,27.676,30,28.037,30,28.461z M22.266,22.266c1.054-1.054,1.58-2.322,1.58-3.804c0-1.483-0.526-2.751-1.58-3.804
	c-1.054-1.055-2.322-1.581-3.804-1.581s-2.75,0.526-3.804,1.581c-1.054,1.053-1.581,2.32-1.581,3.804
	c0,1.481,0.527,2.75,1.581,3.804c1.054,1.055,2.322,1.581,3.804,1.581S21.212,23.32,22.266,22.266z"/>
</svg>
