<?xml version="1.0" encoding="utf-8"?>
<!-- Generator: Adobe Illustrator 16.0.0, SVG Export Plug-In . SVG Version: 6.00 Build 0)  -->
<!DOCTYPE svg PUBLIC "-//W3C//DTD SVG 1.1//EN" "http://www.w3.org/Graphics/SVG/1.1/DTD/svg11.dtd">
<svg version="1.1" id="Layer_1" xmlns="http://www.w3.org/2000/svg" xmlns:xlink="http://www.w3.org/1999/xlink" x="0px" y="0px"
	 width="40px" height="40px" viewBox="0 0 40 40" enable-background="new 0 0 40 40" xml:space="preserve">
<path fill="#B4B4B4" d="M30,13.928c0,0.588-0.183,1.15-0.547,1.686c-0.365,0.537-0.818,0.994-1.362,1.373
	c-2.797,1.942-4.539,3.152-5.223,3.627c-0.074,0.053-0.232,0.166-0.474,0.342c-0.242,0.174-0.443,0.316-0.603,0.424
	c-0.16,0.107-0.354,0.228-0.581,0.361c-0.227,0.135-0.44,0.234-0.642,0.303c-0.201,0.066-0.387,0.101-0.558,0.101H20h-0.011
	c-0.171,0-0.357-0.034-0.558-0.101c-0.201-0.068-0.415-0.168-0.642-0.303c-0.227-0.134-0.42-0.254-0.581-0.361
	c-0.16-0.107-0.361-0.25-0.603-0.424c-0.242-0.176-0.4-0.289-0.474-0.342c-0.677-0.475-1.652-1.154-2.924-2.037
	c-1.272-0.881-2.035-1.41-2.288-1.59c-0.461-0.312-0.897-0.742-1.306-1.289C10.205,15.15,10,14.643,10,14.174
	c0-0.58,0.154-1.064,0.463-1.451c0.309-0.387,0.75-0.58,1.322-0.58h16.429c0.484,0,0.902,0.176,1.255,0.525S30,13.438,30,13.928z
	 M30,17.21v8.862c0,0.49-0.175,0.91-0.524,1.26c-0.35,0.35-0.77,0.525-1.261,0.525H11.786c-0.491,0-0.912-0.176-1.261-0.525
	S10,26.562,10,26.072V17.21c0.327,0.365,0.703,0.688,1.127,0.972c2.693,1.83,4.542,3.113,5.547,3.85
	c0.424,0.312,0.768,0.557,1.032,0.73c0.264,0.176,0.616,0.354,1.055,0.537c0.438,0.182,0.848,0.273,1.227,0.273H20h0.011
	c0.379,0,0.789-0.092,1.227-0.273c0.439-0.184,0.791-0.361,1.055-0.537c0.264-0.174,0.608-0.418,1.032-0.73
	c1.265-0.916,3.118-2.199,5.558-3.85C29.308,17.891,29.68,17.566,30,17.21z"/>
</svg>
