<?xml version="1.0" encoding="utf-8"?>
<!-- Generator: Adobe Illustrator 16.0.0, SVG Export Plug-In . SVG Version: 6.00 Build 0)  -->
<!DOCTYPE svg PUBLIC "-//W3C//DTD SVG 1.1//EN" "http://www.w3.org/Graphics/SVG/1.1/DTD/svg11.dtd">
<svg version="1.1" id="Layer_1" xmlns="http://www.w3.org/2000/svg" xmlns:xlink="http://www.w3.org/1999/xlink" x="0px" y="0px"
	 width="40px" height="40px" viewBox="0 0 40 40" enable-background="new 0 0 40 40" xml:space="preserve">
<path fill="#B4B4B4" d="M15.832,10c0.174,0,0.326,0.066,0.461,0.201l9.338,9.338c0.133,0.133,0.201,0.287,0.201,0.461
	s-0.068,0.328-0.201,0.461l-9.338,9.338C16.158,29.934,16.006,30,15.832,30s-0.326-0.066-0.461-0.201l-1.002-1.002
	c-0.133-0.133-0.201-0.287-0.201-0.459c0-0.176,0.068-0.328,0.201-0.461L22.244,20l-7.875-7.877
	c-0.133-0.133-0.201-0.285-0.201-0.459s0.068-0.328,0.201-0.461l1.002-1.002C15.506,10.066,15.658,10,15.832,10z"/>
</svg>
