<?xml version="1.0" encoding="utf-8"?>
<!-- Generator: Adobe Illustrator 16.0.0, SVG Export Plug-In . SVG Version: 6.00 Build 0)  -->
<!DOCTYPE svg PUBLIC "-//W3C//DTD SVG 1.1//EN" "http://www.w3.org/Graphics/SVG/1.1/DTD/svg11.dtd">
<svg version="1.1" id="Layer_1" xmlns="http://www.w3.org/2000/svg" xmlns:xlink="http://www.w3.org/1999/xlink" x="0px" y="0px"
	 width="40px" height="40px" viewBox="0 0 40 40" enable-background="new 0 0 40 40" xml:space="preserve">
<path fill="#B4B4B4" d="M21.176,28.965c0.123-0.12,0.183-0.279,0.183-0.467l0.002-7.137l7.137-0.002
	c0.188,0,0.347-0.061,0.468-0.183c0.123-0.123,0.186-0.278,0.186-0.466V19.29c0-0.188-0.062-0.343-0.186-0.466
	c-0.121-0.122-0.279-0.182-0.468-0.182l-7.137-0.002l-0.003-7.137c0.001-0.188-0.059-0.347-0.182-0.468
	c-0.123-0.124-0.277-0.186-0.467-0.186l-1.42,0c-0.189-0.001-0.344,0.062-0.467,0.185c-0.121,0.121-0.182,0.279-0.182,0.468
	l-0.002,7.137l-7.137,0.002c-0.188,0-0.348,0.06-0.468,0.182c-0.124,0.123-0.187,0.278-0.186,0.466v1.42
	c0,0.188,0.062,0.344,0.186,0.467c0.12,0.122,0.279,0.183,0.468,0.183l7.137,0.002l0.002,7.137c0,0.188,0.061,0.347,0.182,0.467
	c0.123,0.124,0.278,0.186,0.467,0.186h1.421C20.898,29.151,21.053,29.089,21.176,28.965z"/>
</svg>
