<?xml version="1.0" encoding="utf-8"?>
<!-- Generator: Adobe Illustrator 16.0.0, SVG Export Plug-In . SVG Version: 6.00 Build 0)  -->
<!DOCTYPE svg PUBLIC "-//W3C//DTD SVG 1.1//EN" "http://www.w3.org/Graphics/SVG/1.1/DTD/svg11.dtd">
<svg version="1.1" id="Layer_1" xmlns="http://www.w3.org/2000/svg" xmlns:xlink="http://www.w3.org/1999/xlink" x="0px" y="0px"
	 width="40px" height="40px" viewBox="0 0 40 40" enable-background="new 0 0 40 40" xml:space="preserve">
<path fill="#B4B4B4" d="M20,26.479c-0.896,0-1.768-0.073-2.59-0.22c-1.4,1.399-3.229,2.356-5.341,2.812
	c-0.332,0.06-0.688,0.121-1.056,0.158c-0.196,0.024-0.38-0.11-0.43-0.295c-0.049-0.196,0.098-0.319,0.246-0.454
	c0.773-0.723,1.693-1.302,2.013-3.893C10.498,23.154,9,21.017,9,18.623c0-4.347,4.923-7.857,11-7.857s11,3.511,11,7.857
	C31,22.969,26.077,26.479,20,26.479z M15.286,17.052c-0.872,0-1.571,0.7-1.571,1.571c0,0.873,0.7,1.571,1.571,1.571
	s1.571-0.698,1.571-1.571C16.857,17.752,16.157,17.052,15.286,17.052z M20,17.052c-0.872,0-1.571,0.7-1.571,1.571
	c0,0.873,0.7,1.571,1.571,1.571s1.571-0.698,1.571-1.571C21.571,17.752,20.872,17.052,20,17.052z M24.714,17.052
	c-0.872,0-1.571,0.7-1.571,1.571c0,0.873,0.7,1.571,1.571,1.571s1.571-0.698,1.571-1.571C26.286,17.752,25.586,17.052,24.714,17.052
	z"/>
</svg>
