<?xml version="1.0" encoding="utf-8"?>
<!-- Generator: Adobe Illustrator 16.0.0, SVG Export Plug-In . SVG Version: 6.00 Build 0)  -->
<!DOCTYPE svg PUBLIC "-//W3C//DTD SVG 1.1//EN" "http://www.w3.org/Graphics/SVG/1.1/DTD/svg11.dtd">
<svg version="1.1" id="Layer_1" xmlns="http://www.w3.org/2000/svg" xmlns:xlink="http://www.w3.org/1999/xlink" x="0px" y="0px"
	 width="40px" height="40px" viewBox="0 0 40 40" enable-background="new 0 0 40 40" xml:space="preserve">
<path fill="#B4B4B4" d="M27.751,25.626c0,1.862-1.512,3.374-3.374,3.374h-9.751c-1.863,0-3.375-1.512-3.375-3.374v-9.751
	c0-1.862,1.512-3.374,3.375-3.374h2.988c0.2,0,0.375,0.162,0.375,0.373c0,0.189-0.128,0.341-0.304,0.376
	c-0.586,0.199-1.113,0.433-1.559,0.703c-0.058,0.024-0.117,0.046-0.187,0.046h-1.312c-1.032,0-1.875,0.844-1.875,1.876v9.751
	c0,1.029,0.844,1.873,1.875,1.873h9.751c1.029,0,1.873-0.844,1.873-1.873v-2.509c0-0.14,0.083-0.27,0.211-0.34
	c0.236-0.105,0.446-0.258,0.633-0.433c0.105-0.105,0.27-0.154,0.411-0.095s0.246,0.187,0.246,0.341V25.626z M26.028,21.276
	c-0.142,0.154-0.328,0.225-0.527,0.225c-0.094,0-0.199-0.024-0.293-0.06c-0.27-0.116-0.457-0.387-0.457-0.692v-2.25h-1.875
	c-2.58,0-4.22,0.492-5.134,1.536c-0.948,1.091-1.23,2.848-0.867,5.544c0.024,0.162-0.082,0.327-0.235,0.397
	c-0.046,0.011-0.092,0.024-0.14,0.024c-0.117,0-0.235-0.06-0.304-0.154c-0.081-0.116-1.946-2.753-1.946-5.098
	c0-3.14,0.984-6.75,8.625-6.75h1.875v-2.25c0-0.304,0.188-0.573,0.457-0.689c0.094-0.036,0.199-0.06,0.293-0.06
	c0.199,0,0.386,0.081,0.527,0.223l4.5,4.5c0.293,0.293,0.293,0.762,0,1.054L26.028,21.276z"/>
</svg>
