<?xml version="1.0" encoding="utf-8"?>
<!-- Generator: Adobe Illustrator 16.0.0, SVG Export Plug-In . SVG Version: 6.00 Build 0)  -->
<!DOCTYPE svg PUBLIC "-//W3C//DTD SVG 1.1//EN" "http://www.w3.org/Graphics/SVG/1.1/DTD/svg11.dtd">
<svg version="1.1" id="Layer_1" xmlns="http://www.w3.org/2000/svg" xmlns:xlink="http://www.w3.org/1999/xlink" x="0px" y="0px"
	 width="40px" height="40px" viewBox="0 0 40 40" enable-background="new 0 0 40 40" xml:space="preserve">
<path fill="#B4B4B4" d="M11.819,13.864c0,0.218-0.191,0.408-0.41,0.408H8.955c-0.218,0-0.409-0.19-0.409-0.408v-2.455
	C8.546,11.192,8.737,11,8.955,11h2.454c0.218,0,0.41,0.192,0.41,0.409V13.864z M11.819,18.772c0,0.218-0.191,0.41-0.41,0.41H8.955
	c-0.218,0-0.409-0.192-0.409-0.41v-2.455c0-0.216,0.191-0.408,0.409-0.408h2.454c0.218,0,0.41,0.192,0.41,0.408V18.772z
	 M11.819,23.683c0,0.216-0.191,0.408-0.41,0.408H8.955c-0.218,0-0.409-0.192-0.409-0.408v-2.455c0-0.218,0.191-0.41,0.409-0.41
	h2.454c0.218,0,0.41,0.192,0.41,0.41V23.683z M11.819,28.591c0,0.217-0.191,0.409-0.41,0.409H8.955
	c-0.218,0-0.409-0.192-0.409-0.409v-2.455c0-0.218,0.191-0.408,0.409-0.408h2.454c0.218,0,0.41,0.19,0.41,0.408V28.591z
	 M31.454,13.864c0,0.218-0.191,0.408-0.409,0.408h-17.18c-0.218,0-0.41-0.19-0.41-0.408v-2.455c0-0.217,0.191-0.409,0.41-0.409
	h17.18c0.218,0,0.409,0.192,0.409,0.409V13.864z M31.454,18.772c0,0.218-0.191,0.41-0.409,0.41h-17.18
	c-0.218,0-0.41-0.192-0.41-0.41v-2.455c0-0.216,0.191-0.408,0.41-0.408h17.18c0.218,0,0.409,0.192,0.409,0.408V18.772z
	 M31.454,23.683c0,0.216-0.191,0.408-0.409,0.408h-17.18c-0.218,0-0.41-0.192-0.41-0.408v-2.455c0-0.218,0.191-0.41,0.41-0.41h17.18
	c0.218,0,0.409,0.192,0.409,0.41V23.683z M31.454,28.591c0,0.217-0.191,0.409-0.409,0.409h-17.18c-0.218,0-0.41-0.192-0.41-0.409
	v-2.455c0-0.218,0.191-0.408,0.41-0.408h17.18c0.218,0,0.409,0.19,0.409,0.408V28.591z"/>
</svg>
