<?xml version="1.0" encoding="utf-8"?>
<!-- Generator: Adobe Illustrator 16.0.0, SVG Export Plug-In . SVG Version: 6.00 Build 0)  -->
<!DOCTYPE svg PUBLIC "-//W3C//DTD SVG 1.1//EN" "http://www.w3.org/Graphics/SVG/1.1/DTD/svg11.dtd">
<svg version="1.1" id="Layer_1" xmlns="http://www.w3.org/2000/svg" xmlns:xlink="http://www.w3.org/1999/xlink" x="0px" y="0px"
	 width="40px" height="40px" viewBox="0 0 40 40" enable-background="new 0 0 40 40" xml:space="preserve">
<path fill="#B4B4B4" d="M25.324,12.346v15.31c0,0.363-0.207,0.457-0.468,0.197l-7.384-7.384c-0.062-0.062-0.104-0.125-0.135-0.197
	v7.051c0,0.364-0.303,0.665-0.666,0.665h-1.331c-0.364,0-0.665-0.301-0.665-0.665V12.679c0-0.364,0.301-0.666,0.665-0.666h1.331
	c0.363,0,0.666,0.302,0.666,0.666v7.051c0.031-0.072,0.072-0.135,0.135-0.196l7.384-7.385
	C25.117,11.889,25.324,11.982,25.324,12.346z"/>
</svg>
