<?xml version="1.0" encoding="utf-8"?>
<!-- Generator: Adobe Illustrator 16.0.0, SVG Export Plug-In . SVG Version: 6.00 Build 0)  -->
<!DOCTYPE svg PUBLIC "-//W3C//DTD SVG 1.1//EN" "http://www.w3.org/Graphics/SVG/1.1/DTD/svg11.dtd">
<svg version="1.1" id="Layer_1" xmlns="http://www.w3.org/2000/svg" xmlns:xlink="http://www.w3.org/1999/xlink" x="0px" y="0px"
	 width="40px" height="40px" viewBox="0 0 40 40" enable-background="new 0 0 40 40" xml:space="preserve">
<path fill="#B4B4B4" d="M18.166,27.334c0,0.363-0.301,0.666-0.666,0.666h-4.334c-0.363,0-0.666-0.303-0.666-0.666V12.666
	c0-0.363,0.303-0.666,0.666-0.666H17.5c0.365,0,0.666,0.303,0.666,0.666V27.334z M27.5,27.334c0,0.363-0.303,0.666-0.666,0.666H22.5
	c-0.365,0-0.666-0.303-0.666-0.666V12.666c0-0.363,0.301-0.666,0.666-0.666h4.334c0.363,0,0.666,0.303,0.666,0.666V27.334z"/>
</svg>
