<?xml version="1.0" encoding="utf-8"?>
<!-- Generator: Adobe Illustrator 16.0.0, SVG Export Plug-In . SVG Version: 6.00 Build 0)  -->
<!DOCTYPE svg PUBLIC "-//W3C//DTD SVG 1.1//EN" "http://www.w3.org/Graphics/SVG/1.1/DTD/svg11.dtd">
<svg version="1.1" id="Layer_1" xmlns="http://www.w3.org/2000/svg" xmlns:xlink="http://www.w3.org/1999/xlink" x="0px" y="0px"
	 width="40px" height="40px" viewBox="0 0 40 40" enable-background="new 0 0 40 40" xml:space="preserve">
<g>
	<path fill="#B4B4B4" d="M24.774,13.52H15.43h-0.141h-0.053V11.36c0-0.202-0.167-0.36-0.36-0.36c-0.09,0-0.191,0.035-0.259,0.102
		L11.02,14.7c-0.065,0.068-0.101,0.17-0.101,0.259c0,0.09,0.035,0.19,0.101,0.258l3.586,3.587c0.079,0.067,0.169,0.113,0.271,0.113
		c0.202,0,0.36-0.157,0.36-0.36v-2.158h0.053h0.141h9.345v2.507l2.877,2.878v-5.385V13.52H24.774z"/>
	<path fill="#B4B4B4" d="M28.98,24.783l-3.586-3.587c-0.079-0.067-0.169-0.113-0.271-0.113c-0.202,0-0.36,0.157-0.36,0.36v2.158
		h-0.053H24.57h-9.345v-2.507l-2.877-2.878v5.385v2.879h2.877h9.345h0.141h0.053v2.159c0,0.202,0.167,0.36,0.36,0.36
		c0.09,0,0.191-0.035,0.259-0.102L28.98,25.3c0.065-0.068,0.101-0.17,0.101-0.259S29.046,24.851,28.98,24.783z"/>
</g>
</svg>
