<?xml version="1.0" encoding="utf-8"?>
<!-- Generator: Adobe Illustrator 16.0.0, SVG Export Plug-In . SVG Version: 6.00 Build 0)  -->
<!DOCTYPE svg PUBLIC "-//W3C//DTD SVG 1.1//EN" "http://www.w3.org/Graphics/SVG/1.1/DTD/svg11.dtd">
<svg version="1.1" id="Layer_1" xmlns="http://www.w3.org/2000/svg" xmlns:xlink="http://www.w3.org/1999/xlink" x="0px" y="0px"
	 width="40px" height="40px" viewBox="0 0 40 40" enable-background="new 0 0 40 40" xml:space="preserve">
<path fill="#B4B4B4" d="M29.415,15.219l-3.599,3.6c-0.067,0.067-0.169,0.103-0.26,0.103c-0.192,0-0.36-0.158-0.36-0.36V16.4h-1.753
	c-1.498,0-2.206,1.023-2.836,2.238c-0.326,0.63-0.608,1.282-0.878,1.924c-1.249,2.902-2.711,5.917-6.367,5.917h-2.52
	c-0.202,0-0.359-0.158-0.359-0.36v-2.16c0-0.201,0.157-0.359,0.359-0.359h2.52c1.496,0,2.206-1.023,2.834-2.238
	c0.328-0.63,0.608-1.282,0.879-1.924c1.248-2.902,2.712-5.917,6.368-5.917h1.753v-2.16c0-0.203,0.158-0.36,0.36-0.36
	c0.102,0,0.192,0.046,0.271,0.113l3.588,3.589c0.067,0.067,0.102,0.169,0.102,0.258C29.517,15.05,29.482,15.15,29.415,15.219z
	 M16.434,19.123c-0.653-1.362-1.372-2.723-3.071-2.723h-2.52c-0.202,0-0.359-0.158-0.359-0.359v-2.16c0-0.202,0.157-0.36,0.359-0.36
	h2.52c2.002,0,3.476,0.934,4.613,2.531C17.346,17.019,16.883,18.065,16.434,19.123z M29.415,25.298l-3.599,3.601
	C25.749,28.966,25.647,29,25.557,29c-0.192,0-0.36-0.169-0.36-0.36v-2.16c-3.341,0-4.274,0.395-6.355-2.531
	c0.619-0.967,1.079-2.014,1.53-3.071c0.652,1.362,1.373,2.723,3.072,2.723h1.753v-2.16c0-0.202,0.158-0.36,0.36-0.36
	c0.102,0,0.192,0.046,0.271,0.114l3.588,3.588c0.067,0.068,0.102,0.169,0.102,0.259C29.517,25.129,29.482,25.23,29.415,25.298z"/>
</svg>
