<?xml version="1.0" encoding="utf-8"?>
<!-- Generator: Adobe Illustrator 16.0.0, SVG Export Plug-In . SVG Version: 6.00 Build 0)  -->
<!DOCTYPE svg PUBLIC "-//W3C//DTD SVG 1.1//EN" "http://www.w3.org/Graphics/SVG/1.1/DTD/svg11.dtd">
<svg version="1.1" id="Layer_1" xmlns="http://www.w3.org/2000/svg" xmlns:xlink="http://www.w3.org/1999/xlink" x="0px" y="0px"
	 width="40px" height="40px" viewBox="0 0 40 40" enable-background="new 0 0 40 40" xml:space="preserve">
<g>
	<g>
		<path fill="#B4B4B4" d="M9.09,19.04h9.08c-0.227-0.347-0.351-0.756-0.351-1.188v-1.413c-0.001-0.234,0.043-0.458,0.11-0.671H9.09
			c-0.218,0-0.409,0.192-0.409,0.409v2.455C8.681,18.849,8.872,19.04,9.09,19.04z"/>
		<path fill="#B4B4B4" d="M9.09,23.95h13.937c-0.362-0.393-0.567-0.905-0.567-1.461v-1.812H9.09c-0.218,0-0.409,0.192-0.409,0.408
			v2.455C8.681,23.757,8.872,23.95,9.09,23.95z"/>
		<path fill="#B4B4B4" d="M26.271,25.584H9.09c-0.218,0-0.409,0.192-0.409,0.41v2.455c0,0.216,0.191,0.408,0.409,0.408h17.181
			c0.218,0,0.409-0.192,0.409-0.408v-2.455C26.68,25.777,26.488,25.584,26.271,25.584z"/>
	</g>
	<path fill="#B4B4B4" d="M31.134,15.964c-0.121-0.122-0.279-0.182-0.468-0.182h-3.988v-3.987c0-0.188-0.061-0.348-0.183-0.468
		c-0.123-0.124-0.277-0.187-0.466-0.186h-1.421c-0.188,0-0.344,0.062-0.467,0.186c-0.122,0.12-0.183,0.279-0.183,0.468v3.987h-3.986
		c-0.188,0-0.348,0.06-0.468,0.182c-0.124,0.123-0.187,0.278-0.186,0.466v1.42c0,0.188,0.062,0.344,0.186,0.467
		c0.12,0.122,0.279,0.183,0.468,0.183h3.986v3.988c0,0.188,0.061,0.347,0.183,0.468c0.123,0.123,0.278,0.186,0.467,0.186h1.421
		c0.188,0,0.343-0.062,0.466-0.186c0.122-0.121,0.183-0.279,0.183-0.468V18.5h3.988c0.188,0,0.347-0.061,0.468-0.183
		c0.123-0.123,0.186-0.278,0.186-0.466v-1.421C31.319,16.242,31.257,16.087,31.134,15.964z"/>
	<path fill="#B4B4B4" d="M26.033,11.142c0.187,0,0.34,0.062,0.462,0.186c0.122,0.12,0.183,0.279,0.183,0.468v3.987h3.988
		c0.188,0,0.347,0.06,0.468,0.182c0.123,0.123,0.186,0.278,0.186,0.466v1.421c0,0.188-0.062,0.343-0.186,0.466
		c-0.121,0.122-0.279,0.183-0.468,0.183h-3.988v3.988c0,0.188-0.061,0.347-0.183,0.468c-0.123,0.123-0.277,0.186-0.466,0.186h-1.421
		c-0.188,0-0.344-0.062-0.467-0.186c-0.122-0.121-0.183-0.279-0.183-0.468V18.5h-3.986c-0.188,0-0.348-0.061-0.468-0.183
		c-0.124-0.123-0.186-0.278-0.186-0.467v-1.42c-0.001-0.188,0.062-0.343,0.186-0.466c0.12-0.122,0.279-0.182,0.468-0.182h3.986
		v-3.987c0-0.188,0.061-0.348,0.183-0.468c0.123-0.124,0.278-0.186,0.467-0.186h1.421C26.03,11.142,26.032,11.142,26.033,11.142"/>
</g>
</svg>
