<?xml version="1.0" encoding="utf-8"?>
<!-- Generator: Adobe Illustrator 16.0.0, SVG Export Plug-In . SVG Version: 6.00 Build 0)  -->
<!DOCTYPE svg PUBLIC "-//W3C//DTD SVG 1.1//EN" "http://www.w3.org/Graphics/SVG/1.1/DTD/svg11.dtd">
<svg version="1.1" id="Layer_1" xmlns="http://www.w3.org/2000/svg" xmlns:xlink="http://www.w3.org/1999/xlink" x="0px" y="0px"
	 width="40px" height="40px" viewBox="0 0 40 40" enable-background="new 0 0 40 40" xml:space="preserve">
<g>
	<path fill="#B4B4B4" d="M25.614,19.098l-4.267,9.07C21.102,28.684,20.562,29,20,29s-1.102-0.316-1.336-0.832l-4.278-9.07
		C14.082,18.454,14,17.714,14,17c0-3.316,2.684-6,6-6s6,2.684,6,6C26,17.714,25.918,18.454,25.614,19.098z M20,14
		c-1.652,0-3,1.348-3,3s1.348,3,3,3s3-1.348,3-3S21.652,14,20,14z"/>
</g>
</svg>
