<?xml version="1.0" encoding="utf-8"?>
<!-- Generator: Adobe Illustrator 19.0.0, SVG Export Plug-In . SVG Version: 6.00 Build 0)  -->
<svg version="1.1" id="Layer_1" xmlns="http://www.w3.org/2000/svg" xmlns:xlink="http://www.w3.org/1999/xlink" x="0px" y="0px"
	 width="20px" height="20px" viewBox="-481 375 20 20" style="enable-background:new -481 375 20 20;" xml:space="preserve">
<style type="text/css">
	.st0{fill:#1972F4;}
</style>
<path class="st0" d="M-462.3,380c0.9,1.5,1.3,3.2,1.3,5c0,1.8-0.4,3.5-1.3,5c-0.9,1.5-2.1,2.7-3.6,3.6c-1.5,0.9-3.2,1.3-5,1.3
	c-1.8,0-3.5-0.4-5-1.3c-1.5-0.9-2.7-2.1-3.6-3.6c-0.9-1.5-1.3-3.2-1.3-5c0-1.8,0.4-3.5,1.3-5c0.9-1.5,2.1-2.7,3.6-3.6
	c1.5-0.9,3.2-1.3,5-1.3c1.8,0,3.5,0.4,5,1.3C-464.4,377.2-463.2,378.4-462.3,380z M-467.7,391.3v-2.1c0-0.1,0-0.2-0.1-0.3
	c-0.1-0.1-0.2-0.1-0.3-0.1h-1.3v-6.7c0-0.1,0-0.2-0.1-0.3c-0.1-0.1-0.2-0.1-0.3-0.1h-4.2c-0.1,0-0.2,0-0.3,0.1
	c-0.1,0.1-0.1,0.2-0.1,0.3v2.1c0,0.1,0,0.2,0.1,0.3c0.1,0.1,0.2,0.1,0.3,0.1h1.3v4.2h-1.3c-0.1,0-0.2,0-0.3,0.1
	c-0.1,0.1-0.1,0.2-0.1,0.3v2.1c0,0.1,0,0.2,0.1,0.3c0.1,0.1,0.2,0.1,0.3,0.1h5.8c0.1,0,0.2,0,0.3-0.1S-467.7,391.4-467.7,391.3z
	 M-469.3,379.6v-2.1c0-0.1,0-0.2-0.1-0.3c-0.1-0.1-0.2-0.1-0.3-0.1h-2.5c-0.1,0-0.2,0-0.3,0.1s-0.1,0.2-0.1,0.3v2.1
	c0,0.1,0,0.2,0.1,0.3c0.1,0.1,0.2,0.1,0.3,0.1h2.5c0.1,0,0.2,0,0.3-0.1C-469.4,379.8-469.3,379.7-469.3,379.6z"/>
</svg>
