<?xml version="1.0" encoding="utf-8"?>
<!-- Generator: Adobe Illustrator 16.0.0, SVG Export Plug-In . SVG Version: 6.00 Build 0)  -->
<!DOCTYPE svg PUBLIC "-//W3C//DTD SVG 1.1//EN" "http://www.w3.org/Graphics/SVG/1.1/DTD/svg11.dtd">
<svg version="1.1" id="Layer_1" xmlns="http://www.w3.org/2000/svg" xmlns:xlink="http://www.w3.org/1999/xlink" x="0px" y="0px"
	 width="24px" height="18px" viewBox="0 0 24 18" enable-background="new 0 0 24 18" xml:space="preserve">
<g>
	<path fill="#B4B4B4" d="M23.591,0H6.409C6.191,0,6,0.193,6,0.41v2.182C6,2.809,6.191,3,6.409,3h17.182C23.809,3,24,2.809,24,2.592
		V0.41C24,0.193,23.809,0,23.591,0z"/>
	<g>
		<path fill="#B4B4B4" d="M23.591,5H6.409C6.191,5,6,5.193,6,5.41v2.182C6,7.809,6.191,8,6.409,8h17.182C23.809,8,24,7.809,24,7.592
			V5.41C24,5.193,23.809,5,23.591,5z"/>
	</g>
	<g>
		<path fill="#B4B4B4" d="M23.591,10H6.409C6.191,10,6,10.193,6,10.41v2.182C6,12.809,6.191,13,6.409,13h17.182
			C23.809,13,24,12.809,24,12.592V10.41C24,10.193,23.809,10,23.591,10z"/>
	</g>
	<g>
		<path fill="#B4B4B4" d="M23.591,15H6.409C6.191,15,6,15.193,6,15.41v2.182C6,17.809,6.191,18,6.409,18h17.182
			C23.809,18,24,17.809,24,17.592V15.41C24,15.193,23.809,15,23.591,15z"/>
	</g>
	<polygon fill="#B4B4B4" points="2.993,13.683 2.993,0 1.993,0 1.993,13.683 0,13.683 2.493,18 4.986,13.683 	"/>
</g>
</svg>
