<?xml version="1.0" encoding="utf-8"?>
<!-- Generator: Adobe Illustrator 16.0.0, SVG Export Plug-In . SVG Version: 6.00 Build 0)  -->
<!DOCTYPE svg PUBLIC "-//W3C//DTD SVG 1.1//EN" "http://www.w3.org/Graphics/SVG/1.1/DTD/svg11.dtd">
<svg version="1.1" id="Layer_1" xmlns="http://www.w3.org/2000/svg" xmlns:xlink="http://www.w3.org/1999/xlink" x="0px" y="0px"
	 width="40px" height="40px" viewBox="0 0 40 40" enable-background="new 0 0 40 40" xml:space="preserve">
<path fill="#333333" d="M30,28.336c0.001-0.172-0.068-0.327-0.201-0.459L21.924,20l7.875-7.876c0.133-0.133,0.202-0.288,0.201-0.46
	c0-0.174-0.064-0.328-0.199-0.46l-1.004-1.005C28.664,10.065,28.51,10,28.336,10c-0.172-0.001-0.326,0.069-0.459,0.202L20,18.076
	l-7.877-7.874C11.99,10.069,11.836,9.999,11.664,10c-0.174,0-0.328,0.065-0.461,0.199l-1.004,1.005
	C10.064,11.336,10,11.49,10,11.664c-0.001,0.172,0.068,0.327,0.201,0.46L18.076,20l-7.875,7.876
	c-0.133,0.133-0.202,0.288-0.201,0.459c0,0.174,0.064,0.328,0.199,0.46l1.004,1.005C11.336,29.935,11.49,30,11.664,30
	c0.172,0.001,0.326-0.069,0.46-0.202L20,21.924l7.877,7.874c0.133,0.133,0.287,0.203,0.459,0.202c0.174,0,0.328-0.065,0.461-0.199
	l1.004-1.005C29.936,28.664,30,28.51,30,28.336z"/>
</svg>
