<?xml version="1.0" encoding="utf-8"?>
<!-- Generator: Adobe Illustrator 19.0.0, SVG Export Plug-In . SVG Version: 6.00 Build 0)  -->
<svg version="1.1" id="Layer_1" xmlns="http://www.w3.org/2000/svg" xmlns:xlink="http://www.w3.org/1999/xlink" x="0px" y="0px"
	 width="1400px" height="500px" viewBox="0 0 1400 500" style="enable-background:new 0 0 1400 500;" xml:space="preserve">
<style type="text/css">
	.st0{fill:#FFFFFF;}
	.st1{fill:#E6E6E6;}
	.st2{fill:#1F63EA;}
</style>
<g>
	<g>
		<g>
			<polygon class="st0" points="375.1,253.9 380.4,246.7 678.1,465.9 672.8,473.1 			"/>
			<path class="st1" d="M380.5,247.4L677.4,466l-4.7,6.4L375.8,253.8L380.5,247.4 M380.3,246l-5.9,8l298.5,219.8l5.9-8L380.3,246
				L380.3,246z"/>
		</g>
		<g>
			<polygon class="st0" points="375.1,246.1 672.8,26.9 678.1,34.1 380.4,253.3 			"/>
			<path class="st1" d="M672.7,27.6l4.7,6.4L380.5,252.6l-4.7-6.4L672.7,27.6 M672.9,26.2L374.4,246l5.9,8L678.8,34.2L672.9,26.2
				L672.9,26.2z"/>
		</g>
		<g>
			<polygon class="st0" points="373.9,33.1 381.3,28.1 679.3,466.9 671.9,471.9 			"/>
			<path class="st1" d="M381.2,28.8l297.4,438l-6.6,4.5l-297.4-438L381.2,28.8 M381.5,27.4l-8.2,5.6l298.6,439.6l8.2-5.6L381.5,27.4
				L381.5,27.4z"/>
		</g>
		<g>
			<path class="st0" d="M372.9,474.3V25.7h307.5v448.6H372.9z M381.8,465.3h289.6V34.7H381.8V465.3z"/>
			<path class="st1" d="M679.9,26.2v447.6H373.4V26.2H679.9 M381.3,465.8h1h288.6h1v-1V35.2v-1h-1H382.3h-1v1v429.7V465.8
				 M680.9,25.2H372.4v449.6h308.5V25.2L680.9,25.2z M382.3,464.8V35.2h288.6v429.7H382.3L382.3,464.8z"/>
		</g>
		<g>
			<path class="st0" d="M527,381.5c-84.6,0-153.4-68.8-153.4-153.4c0-84.6,68.8-153.4,153.4-153.4c84.6,0,153.4,68.8,153.4,153.4
				C680.4,312.7,611.6,381.5,527,381.5z M527,83.8c-79.5,0-144.3,64.7-144.3,144.3c0,79.6,64.7,144.3,144.3,144.3
				s144.3-64.7,144.3-144.3C671.3,148.5,606.6,83.8,527,83.8z"/>
			<path class="st1" d="M527,75.2c84.3,0,152.9,68.6,152.9,152.9c0,84.3-68.6,152.9-152.9,152.9c-84.3,0-152.9-68.6-152.9-152.9
				C374.1,143.8,442.7,75.2,527,75.2 M527,372.9c79.8,0,144.8-65,144.8-144.8c0-79.8-64.9-144.8-144.8-144.8
				s-144.8,64.9-144.8,144.8C382.2,307.9,447.2,372.9,527,372.9 M527,74.2c-84.9,0-153.9,69-153.9,153.9
				c0,84.9,69,153.9,153.9,153.9c84.8,0,153.9-69,153.9-153.9C680.9,143.2,611.9,74.2,527,74.2L527,74.2z M527,371.9
				c-79.3,0-143.8-64.5-143.8-143.8c0-79.3,64.5-143.8,143.8-143.8c79.3,0,143.8,64.5,143.8,143.8
				C670.8,307.4,606.3,371.9,527,371.9L527,371.9z"/>
		</g>
	</g>
	<g>
		<g>
			<polygon class="st0" points="721.9,465.9 1019.6,246.7 1024.9,253.9 727.2,473.1 			"/>
			<path class="st1" d="M1019.5,247.4l4.7,6.4L727.3,472.4l-4.7-6.4L1019.5,247.4 M1019.7,246L721.2,465.8l5.9,8L1025.6,254
				L1019.7,246L1019.7,246z"/>
		</g>
		<g>
			<polygon class="st0" points="721.9,34.1 727.2,26.9 1024.9,246.1 1019.6,253.3 			"/>
			<path class="st1" d="M727.3,27.6l296.9,218.6l-4.7,6.4L722.6,34L727.3,27.6 M727.1,26.2l-5.9,8L1019.7,254l5.9-8L727.1,26.2
				L727.1,26.2z"/>
		</g>
		<g>
			<polygon class="st0" points="720.7,466.9 1018.7,28.1 1026.1,33.1 728.1,471.9 			"/>
			<path class="st1" d="M1018.8,28.8l6.6,4.5L728,471.2l-6.6-4.5L1018.8,28.8 M1018.5,27.4L720,467l8.2,5.6L1026.8,33L1018.5,27.4
				L1018.5,27.4z"/>
		</g>
		<g>
			<path class="st0" d="M719.6,474.3V25.7h307.5v448.6H719.6z M728.6,465.3h289.6V34.7H728.6V465.3z"/>
			<path class="st1" d="M1026.6,26.2v447.6H720.1V26.2H1026.6 M728.1,465.8h1h288.6h1v-1V35.2v-1h-1H729.1h-1v1v429.7V465.8
				 M1027.6,25.2H719.1v449.6h308.5V25.2L1027.6,25.2z M729.1,464.8V35.2h288.6v429.7H729.1L729.1,464.8z"/>
		</g>
		<g>
			<path class="st0" d="M873,381.5c-84.6,0-153.4-68.8-153.4-153.4c0-84.6,68.8-153.4,153.4-153.4c84.6,0,153.4,68.8,153.4,153.4
				C1026.4,312.7,957.6,381.5,873,381.5z M873,83.8c-79.5,0-144.3,64.7-144.3,144.3c0,79.6,64.7,144.3,144.3,144.3
				s144.3-64.7,144.3-144.3C1017.3,148.5,952.5,83.8,873,83.8z"/>
			<path class="st1" d="M873,75.2c84.3,0,152.9,68.6,152.9,152.9c0,84.3-68.6,152.9-152.9,152.9c-84.3,0-152.9-68.6-152.9-152.9
				C720.1,143.8,788.7,75.2,873,75.2 M873,372.9c79.8,0,144.8-65,144.8-144.8c0-79.8-64.9-144.8-144.8-144.8
				s-144.8,64.9-144.8,144.8C728.2,307.9,793.2,372.9,873,372.9 M873,74.2c-84.8,0-153.9,69-153.9,153.9
				c0,84.9,69,153.9,153.9,153.9c84.9,0,153.9-69,153.9-153.9C1026.9,143.2,957.9,74.2,873,74.2L873,74.2z M873,371.9
				c-79.3,0-143.8-64.5-143.8-143.8c0-79.3,64.5-143.8,143.8-143.8c79.3,0,143.8,64.5,143.8,143.8
				C1016.8,307.4,952.3,371.9,873,371.9L873,371.9z"/>
		</g>
	</g>
</g>
<image style="display:none;overflow:visible;" width="1400" height="500" xlink:href="../logo/cover.png" >
</image>
<g>
	<path class="st2" d="M270.7,259.3l2.3,8.3l2.3-8.3l11.9-39.1h2.1l11.9,39.1l2.3,8.3l2.4-8.3l10.4-39.1h2l-13.6,50.6h-2.1L290,228.6
		l-1.8-5.3l-1.7,5.3l-12.6,42.2h-2.1l-13.6-50.6h2.1L270.7,259.3z"/>
	<path class="st2" d="M354.6,245.7h-25.4v23.2h28.9v1.9h-30.8v-50.6h30.8v1.9h-28.9v21.7h25.4V245.7z"/>
	<path class="st2" d="M367.9,270.8v-50.6h13.3c2.5,0,4.8,0.3,6.9,0.8c2,0.5,3.8,1.3,5.2,2.4c1.4,1.1,2.5,2.4,3.3,4
		c0.8,1.6,1.1,3.6,1.1,5.8c0,1.5-0.2,2.8-0.6,4.1c-0.4,1.3-0.9,2.4-1.7,3.4c-0.8,1-1.7,1.8-2.8,2.5c-1.1,0.7-2.4,1.1-3.8,1.4
		c1.6,0.2,3,0.7,4.4,1.4c1.4,0.7,2.6,1.6,3.6,2.7c1,1.1,1.8,2.3,2.4,3.7c0.6,1.4,0.9,2.8,0.9,4.4c0,2.2-0.4,4.2-1.1,6
		c-0.8,1.7-1.8,3.2-3.2,4.4s-3,2.1-4.9,2.7c-1.9,0.6-4,0.9-6.3,0.9H367.9z M369.8,243.9h12.1c4.6,0,8.1-0.9,10.4-2.7
		c2.3-1.8,3.5-4.5,3.5-8.2c0-3.7-1.2-6.4-3.7-8.2c-2.5-1.8-6.1-2.7-10.9-2.7h-11.4V243.9z M369.8,245.8v23.1h14.6
		c2.1,0,4-0.3,5.7-0.8c1.7-0.5,3.1-1.3,4.3-2.3c1.2-1,2.1-2.3,2.7-3.8s1-3.2,1-5.1c0-1.5-0.3-2.9-0.8-4.2c-0.6-1.3-1.4-2.5-2.5-3.5
		s-2.5-1.9-4.2-2.5c-1.7-0.6-3.6-0.9-5.9-0.9H369.8z"/>
	<path class="st2" d="M441.1,258.7c0-1.6-0.3-3-0.8-4.3c-0.6-1.2-1.4-2.4-2.7-3.4c-1.2-1-2.8-1.9-4.8-2.8c-2-0.8-4.4-1.6-7.3-2.4
		c-2.6-0.7-4.9-1.4-6.9-2.2s-3.8-1.7-5.3-2.8c-1.4-1.1-2.6-2.3-3.3-3.8c-0.8-1.4-1.1-3.2-1.1-5.2c0-1.9,0.4-3.6,1.3-5.2
		c0.9-1.5,2-2.8,3.5-3.9c1.5-1.1,3.3-1.9,5.3-2.4c2-0.6,4.3-0.9,6.7-0.9c2.5,0,4.7,0.4,6.8,1.1s3.8,1.7,5.3,3s2.7,2.9,3.5,4.7
		c0.8,1.8,1.3,3.9,1.3,6.1h-1.9c0-1.9-0.4-3.6-1.1-5.2c-0.7-1.6-1.7-3-3-4.1c-1.3-1.2-2.9-2.1-4.7-2.7c-1.8-0.7-3.9-1-6.1-1
		c-2.4,0-4.5,0.3-6.4,0.9c-1.9,0.6-3.4,1.3-4.7,2.3c-1.3,1-2.2,2.1-2.9,3.3c-0.7,1.3-1,2.6-1,3.9c0,1.3,0.2,2.6,0.7,3.7
		c0.5,1.1,1.3,2.2,2.4,3.2c1.2,1,2.7,1.9,4.7,2.8c2,0.9,4.5,1.7,7.5,2.5c2.5,0.6,4.8,1.4,6.9,2.2s3.9,1.8,5.4,2.9s2.7,2.5,3.5,4
		c0.8,1.5,1.3,3.4,1.3,5.5c0,2.1-0.5,3.9-1.4,5.5c-0.9,1.6-2.1,3-3.7,4c-1.6,1.1-3.4,1.9-5.5,2.5c-2.1,0.6-4.3,0.9-6.7,0.9
		c-1.4,0-2.9-0.1-4.4-0.3c-1.5-0.2-2.9-0.6-4.3-1c-1.4-0.5-2.7-1.1-3.9-1.9c-1.2-0.8-2.3-1.7-3.2-2.8c-0.9-1.1-1.6-2.4-2.1-3.9
		c-0.5-1.5-0.8-3.2-0.8-5.1h1.9c0,1.7,0.2,3.2,0.7,4.5c0.5,1.3,1.2,2.4,2,3.4c0.8,1,1.8,1.8,2.9,2.4c1.1,0.7,2.3,1.2,3.5,1.6
		c1.2,0.4,2.5,0.7,3.8,0.9s2.6,0.3,3.8,0.3c2.2,0,4.3-0.3,6.1-0.8c1.9-0.5,3.5-1.3,4.8-2.2c1.4-1,2.4-2.1,3.2-3.5
		C440.7,261.8,441.1,260.3,441.1,258.7z"/>
	<path class="st2" d="M456.1,270.8h-1.9v-50.6h1.9V270.8z"/>
	<path class="st2" d="M504,222.1h-18.4v48.7h-1.9v-48.7h-18.4v-1.9H504V222.1z"/>
	<path class="st2" d="M540.1,245.7h-25.4v23.2h28.9v1.9h-30.8v-50.6h30.8v1.9h-28.9v21.7h25.4V245.7z"/>
	<path class="st2" d="M600.7,258.7c0-1.6-0.3-3-0.8-4.3c-0.6-1.2-1.4-2.4-2.7-3.4c-1.2-1-2.8-1.9-4.8-2.8c-2-0.8-4.4-1.6-7.3-2.4
		c-2.6-0.7-4.9-1.4-6.9-2.2c-2.1-0.8-3.8-1.7-5.3-2.8c-1.4-1.1-2.6-2.3-3.3-3.8c-0.8-1.4-1.1-3.2-1.1-5.2c0-1.9,0.4-3.6,1.3-5.2
		s2-2.8,3.5-3.9c1.5-1.1,3.3-1.9,5.3-2.4s4.3-0.9,6.7-0.9c2.5,0,4.7,0.4,6.8,1.1c2.1,0.7,3.8,1.7,5.3,3s2.7,2.9,3.5,4.7
		c0.8,1.8,1.3,3.9,1.3,6.1h-1.9c0-1.9-0.4-3.6-1.1-5.2s-1.7-3-3-4.1c-1.3-1.2-2.9-2.1-4.7-2.7c-1.8-0.7-3.9-1-6.1-1
		c-2.4,0-4.5,0.3-6.4,0.9c-1.9,0.6-3.4,1.3-4.7,2.3c-1.3,1-2.2,2.1-2.9,3.3c-0.7,1.3-1,2.6-1,3.9c0,1.3,0.2,2.6,0.7,3.7
		c0.5,1.1,1.3,2.2,2.4,3.2c1.2,1,2.7,1.9,4.7,2.8s4.5,1.7,7.5,2.5c2.5,0.6,4.8,1.4,6.9,2.2s3.9,1.8,5.4,2.9s2.7,2.5,3.5,4
		c0.8,1.5,1.3,3.4,1.3,5.5c0,2.1-0.5,3.9-1.4,5.5c-0.9,1.6-2.1,3-3.7,4c-1.6,1.1-3.4,1.9-5.5,2.5s-4.3,0.9-6.7,0.9
		c-1.4,0-2.9-0.1-4.4-0.3s-2.9-0.6-4.3-1c-1.4-0.5-2.7-1.1-3.9-1.9s-2.3-1.7-3.2-2.8s-1.6-2.4-2.1-3.9c-0.5-1.5-0.8-3.2-0.8-5.1h1.9
		c0,1.7,0.2,3.2,0.7,4.5c0.5,1.3,1.2,2.4,2,3.4c0.8,1,1.8,1.8,2.9,2.4c1.1,0.7,2.3,1.2,3.5,1.6c1.2,0.4,2.5,0.7,3.8,0.9
		c1.3,0.2,2.6,0.3,3.8,0.3c2.2,0,4.3-0.3,6.1-0.8c1.9-0.5,3.5-1.3,4.8-2.2c1.4-1,2.4-2.1,3.2-3.5S600.7,260.3,600.7,258.7z"/>
	<path class="st2" d="M639.7,245.7h-25.4v23.2h28.9v1.9h-30.8v-50.6h30.8v1.9h-28.9v21.7h25.4V245.7z"/>
	<path class="st2" d="M654.9,268.9h25.9v1.9H653v-50.6h1.9V268.9z"/>
	<path class="st2" d="M716.9,245.7h-25.4v23.2h28.9v1.9h-30.8v-50.6h30.8v1.9h-28.9v21.7h25.4V245.7z"/>
	<path class="st2" d="M764.5,255.3c-0.3,2.7-0.9,5.1-1.8,7.1c-1,2-2.2,3.7-3.8,5.1c-1.6,1.3-3.4,2.3-5.5,3c-2.1,0.7-4.4,1-6.9,1
		c-2.8,0-5.3-0.5-7.6-1.6c-2.3-1.1-4.2-2.6-5.8-4.5c-1.6-1.9-2.8-4.3-3.7-7s-1.3-5.7-1.3-9v-7.6c0-3.3,0.4-6.3,1.3-9s2.1-5.1,3.7-7
		c1.6-1.9,3.5-3.5,5.8-4.5c2.3-1.1,4.8-1.6,7.6-1.6c2.5,0,4.8,0.3,6.9,1c2.1,0.7,3.9,1.7,5.5,3c1.6,1.3,2.8,3,3.8,5s1.6,4.4,1.8,7.1
		h-1.9c-0.5-4.7-2.2-8.2-4.9-10.6c-2.7-2.4-6.5-3.6-11.3-3.6c-2.5,0-4.7,0.5-6.7,1.4c-2,1-3.7,2.3-5.2,4.1s-2.6,3.9-3.4,6.4
		c-0.8,2.5-1.2,5.3-1.2,8.3v7.6c0,3.1,0.4,5.8,1.2,8.3c0.8,2.5,1.9,4.6,3.4,6.4s3.2,3.1,5.2,4.1c2,1,4.2,1.5,6.7,1.5
		c2.3,0,4.4-0.3,6.3-0.9c1.9-0.6,3.5-1.4,4.9-2.6c1.4-1.2,2.5-2.7,3.3-4.4c0.8-1.8,1.4-3.9,1.6-6.4H764.5z"/>
	<path class="st2" d="M808.9,222.1h-18.4v48.7h-1.9v-48.7h-18.4v-1.9h38.7V222.1z"/>
	<path class="st2" d="M821,270.8h-1.9v-50.6h1.9V270.8z"/>
	<path class="st2" d="M872.1,249.3c0,3.3-0.4,6.3-1.3,9s-2.2,5.1-3.8,7c-1.7,1.9-3.7,3.5-6,4.5c-2.3,1.1-5,1.6-7.9,1.6
		c-2.9,0-5.5-0.5-7.9-1.6c-2.3-1.1-4.4-2.6-6-4.5c-1.7-1.9-3-4.3-3.9-7c-0.9-2.7-1.4-5.7-1.4-9v-7.6c0-3.3,0.4-6.3,1.3-9
		c0.9-2.7,2.2-5.1,3.8-7c1.7-1.9,3.7-3.5,6-4.5c2.3-1.1,5-1.6,7.9-1.6c2.9,0,5.6,0.5,7.9,1.6c2.3,1.1,4.4,2.6,6,4.5
		c1.7,1.9,2.9,4.3,3.8,7c0.9,2.7,1.4,5.7,1.4,9V249.3z M870.2,241.6c0-3-0.4-5.7-1.2-8.2c-0.8-2.5-1.9-4.6-3.4-6.4
		c-1.5-1.8-3.3-3.2-5.4-4.2c-2.1-1-4.6-1.5-7.3-1.5c-2.7,0-5.1,0.5-7.2,1.5c-2.1,1-3.9,2.4-5.4,4.2c-1.5,1.8-2.6,3.9-3.4,6.4
		c-0.8,2.5-1.1,5.2-1.1,8.2v7.6c0,3,0.4,5.7,1.2,8.2c0.8,2.5,1.9,4.6,3.4,6.4c1.5,1.8,3.3,3.2,5.4,4.2c2.1,1,4.5,1.5,7.3,1.5
		c2.7,0,5.2-0.5,7.3-1.5s3.9-2.4,5.4-4.2c1.5-1.8,2.6-3.9,3.3-6.4c0.8-2.5,1.1-5.2,1.1-8.2V241.6z"/>
	<path class="st2" d="M920.1,270.8h-1.9l-32.6-47.4v47.4h-1.9v-50.6h1.9l32.6,47.3v-47.3h1.9V270.8z"/>
	<path class="st2" d="M947.6,275.1h-2l21.1-54.9h2L947.6,275.1z"/>
	<path class="st2" d="M1023.8,270.8h-30.2v-1.9l16.6-19.1c1.6-1.8,2.9-3.5,4.1-5c1.1-1.6,2.1-3,2.8-4.4c0.7-1.4,1.3-2.6,1.6-3.8
		c0.4-1.2,0.5-2.4,0.5-3.5c0-1.8-0.3-3.4-0.8-4.8c-0.5-1.4-1.3-2.7-2.3-3.7c-1-1-2.3-1.8-3.9-2.3s-3.3-0.8-5.3-0.8
		c-1.8,0-3.5,0.3-5,1c-1.6,0.7-2.9,1.6-4,2.7c-1.1,1.2-2,2.6-2.7,4.2s-1,3.3-1,5.2h-1.9c0-2,0.4-4,1.1-5.8s1.7-3.4,3-4.8
		c1.3-1.4,2.8-2.4,4.6-3.2c1.8-0.8,3.8-1.2,5.9-1.2c2.2,0,4.1,0.3,5.9,0.9c1.7,0.6,3.2,1.4,4.5,2.6c1.2,1.1,2.2,2.6,2.9,4.3
		c0.7,1.7,1,3.6,1,5.9c0,1.6-0.3,3.1-0.9,4.7c-0.6,1.6-1.4,3.1-2.4,4.7c-1,1.6-2.1,3.1-3.4,4.7c-1.3,1.6-2.5,3.1-3.8,4.6L996,268.9
		h27.8V270.8z"/>
	<path class="st2" d="M1061.8,250.2c0,3.3-0.3,6.3-1,8.9c-0.6,2.6-1.6,4.9-2.9,6.7c-1.3,1.8-2.8,3.3-4.7,4.2c-1.9,1-4,1.5-6.5,1.5
		c-2.4,0-4.6-0.5-6.5-1.5c-1.9-1-3.5-2.4-4.8-4.2s-2.3-4.1-3-6.7c-0.7-2.6-1-5.6-1-8.9v-9.3c0-3.3,0.3-6.3,1-8.9
		c0.7-2.6,1.6-4.9,2.9-6.7s2.9-3.3,4.7-4.3c1.9-1,4-1.5,6.5-1.5s4.6,0.5,6.5,1.5c1.9,1,3.5,2.4,4.8,4.3c1.3,1.9,2.3,4.1,2.9,6.7
		c0.7,2.6,1,5.6,1,8.9V250.2z M1059.9,240.8c0-2.9-0.3-5.5-0.8-7.9s-1.4-4.5-2.5-6.2c-1.1-1.7-2.5-3-4.1-4c-1.7-0.9-3.6-1.4-5.9-1.4
		c-2.2,0-4.2,0.5-5.8,1.4c-1.7,0.9-3,2.3-4.1,4c-1.1,1.7-1.9,3.8-2.4,6.2s-0.8,5-0.8,7.9v9.2c0,2.8,0.3,5.5,0.8,7.8s1.4,4.4,2.5,6.2
		s2.5,3.1,4.2,4c1.7,1,3.6,1.4,5.8,1.4c2.2,0,4.2-0.5,5.9-1.4s3-2.3,4.1-4c1.1-1.7,1.9-3.8,2.4-6.2c0.5-2.4,0.8-5,0.8-7.8V240.8z"/>
	<path class="st2" d="M1089,270.8h-1.9v-48.2l-14.5,5.5v-2l16-5.9h0.4V270.8z"/>
	<path class="st2" d="M1140,221.4l-22.3,49.4h-1.9l22-48.7h-30.1v-1.9h32.3V221.4z"/>
</g>
</svg>
