<?xml version="1.0" encoding="utf-8"?>
<!-- Generator: Adobe Illustrator 19.0.0, SVG Export Plug-In . SVG Version: 6.00 Build 0)  -->
<svg version="1.1" id="Layer_1" xmlns="http://www.w3.org/2000/svg" xmlns:xlink="http://www.w3.org/1999/xlink" x="0px" y="0px"
	 width="1400px" height="500px" viewBox="0 0 1400 500" style="enable-background:new 0 0 1400 500;" xml:space="preserve">
<style type="text/css">
	.st0{display:none;}
	.st1{display:inline;}
	.st2{fill:#FFFFFF;}
	.st3{fill:#E6E6E6;}
	.st4{display:inline;fill:#1F63EA;}
	.st5{fill:#FFA482;}
	.st6{fill:none;stroke:#333333;stroke-width:4;stroke-linecap:round;stroke-miterlimit:10;}
	.st7{fill:#FF4600;}
	.st8{fill:#333333;}
	.st9{fill:#68BAFF;}
	.st10{fill:none;stroke:#68BAFF;stroke-width:4;stroke-miterlimit:10;}
	.st11{fill:#3B84FF;}
	.st12{clip-path:url(#SVGID_2_);}
	.st13{display:none;fill:#FFFFFF;}
	.st14{fill:#D0DDBE;}
	.st15{fill:#99B84F;}
	.st16{fill:#FFFFFF;stroke:#333333;stroke-width:4;stroke-miterlimit:10;}
	.st17{fill:#FCFCFC;}
	.st18{fill:#8CAF38;}
</style>
<g class="st0">
	<g class="st1">
		<g>
			<polygon class="st2" points="459.7,252.9 463.5,247.7 683.6,409.8 679.9,414.9 			"/>
			<path class="st3" d="M463.6,248.4l219.3,161.5l-3.2,4.3L460.4,252.8L463.6,248.4 M463.4,247l-4.4,5.9L680,415.6l4.4-5.9
				L463.4,247L463.4,247z"/>
		</g>
		<g>
			<polygon class="st2" points="459.8,247.1 679.9,85.1 683.6,90.2 463.5,252.3 			"/>
			<path class="st3" d="M679.8,85.8l3.2,4.3L463.6,251.6l-3.2-4.3L679.8,85.8 M680,84.4L459.1,247l4.4,5.9L684.3,90.3L680,84.4
				L680,84.4z"/>
		</g>
		<g>
			<polygon class="st2" points="458.9,89.6 464.1,86 684.5,410.5 679.2,414 			"/>
			<path class="st3" d="M464,86.7l219.8,323.7l-4.4,3L459.6,89.7L464,86.7 M464.3,85.3l-6.1,4.1l220.9,325.3l6.1-4.1L464.3,85.3
				L464.3,85.3z"/>
		</g>
		<g>
			<path class="st2" d="M458,415.8V84.2h227.3v331.7H458z M464.4,409.5H679v-319H464.4V409.5z"/>
			<path class="st3" d="M684.8,84.7v330.7H458.5V84.7H684.8 M463.9,410h1h213.6h1v-1V91v-1h-1H464.9h-1v1v318V410 M685.8,83.7H457.5
				v332.7h228.3V83.7L685.8,83.7z M464.9,409V91h213.6v318H464.9L464.9,409z"/>
		</g>
		<g>
			<path class="st2" d="M572,347.2c-62.5,0-113.4-50.9-113.4-113.4c0-62.5,50.9-113.4,113.4-113.4c62.5,0,113.4,50.9,113.4,113.4
				C685.4,296.3,634.5,347.2,572,347.2z M572,126.9c-58.9,0-106.9,47.9-106.9,106.9c0,59,47.9,106.9,106.9,106.9
				s106.9-48,106.9-106.9C678.9,174.9,630.9,126.9,572,126.9z"/>
			<path class="st3" d="M572,120.9c62.2,0,112.9,50.6,112.9,112.9c0,62.2-50.6,112.9-112.9,112.9c-62.2,0-112.9-50.6-112.9-112.9
				C459.1,171.5,509.7,120.9,572,120.9 M572,341.2c59.2,0,107.4-48.2,107.4-107.4c0-59.2-48.2-107.4-107.4-107.4
				c-59.2,0-107.4,48.2-107.4,107.4C464.6,293,512.8,341.2,572,341.2 M572,119.9c-62.8,0-113.9,51.1-113.9,113.9
				c0,62.8,51.1,113.9,113.9,113.9c62.8,0,113.9-51.1,113.9-113.9C685.9,171,634.8,119.9,572,119.9L572,119.9z M572,340.2
				c-58.7,0-106.4-47.7-106.4-106.4c0-58.7,47.7-106.4,106.4-106.4c58.7,0,106.4,47.7,106.4,106.4
				C678.4,292.5,630.6,340.2,572,340.2L572,340.2z"/>
		</g>
	</g>
	<g class="st1">
		<g>
			<polygon class="st2" points="716.4,409.8 936.5,247.7 940.3,252.9 720.1,414.9 			"/>
			<path class="st3" d="M936.4,248.4l3.2,4.3L720.2,414.2l-3.2-4.3L936.4,248.4 M936.6,247L715.7,409.7l4.4,5.9L940.9,253L936.6,247
				L936.6,247z"/>
		</g>
		<g>
			<polygon class="st2" points="716.4,90.2 720.1,85.1 940.3,247.1 936.5,252.3 			"/>
			<path class="st3" d="M720.2,85.8l219.3,161.5l-3.2,4.3L717.1,90.1L720.2,85.8 M720,84.4l-4.4,5.9L936.6,253l4.4-5.9L720,84.4
				L720,84.4z"/>
		</g>
		<g>
			<polygon class="st2" points="715.5,410.5 935.9,86 941.1,89.6 720.8,414 			"/>
			<path class="st3" d="M936,86.7l4.4,3L720.6,413.3l-4.4-3L936,86.7 M935.7,85.3L714.8,410.6l6.1,4.1L941.8,89.4L935.7,85.3
				L935.7,85.3z"/>
		</g>
		<g>
			<path class="st2" d="M714.7,415.8V84.2H942v331.7H714.7z M721,409.5h214.6v-319H721V409.5z"/>
			<path class="st3" d="M941.5,84.7v330.7H715.2V84.7H941.5 M720.5,410h1h213.6h1v-1V91v-1h-1H721.5h-1v1v318V410 M942.5,83.7H714.2
				v332.7h228.3V83.7L942.5,83.7z M721.5,409V91h213.6v318H721.5L721.5,409z"/>
		</g>
		<g>
			<path class="st2" d="M828,347.2c-62.5,0-113.4-50.9-113.4-113.4c0-62.5,50.9-113.4,113.4-113.4c62.5,0,113.4,50.9,113.4,113.4
				C941.4,296.3,890.5,347.2,828,347.2z M828,126.9c-58.9,0-106.9,47.9-106.9,106.9c0,59,47.9,106.9,106.9,106.9
				s106.9-48,106.9-106.9C934.9,174.9,887,126.9,828,126.9z"/>
			<path class="st3" d="M828,120.9c62.2,0,112.9,50.6,112.9,112.9c0,62.2-50.6,112.9-112.9,112.9c-62.2,0-112.9-50.6-112.9-112.9
				C715.1,171.5,765.8,120.9,828,120.9 M828,341.2c59.2,0,107.4-48.2,107.4-107.4c0-59.2-48.2-107.4-107.4-107.4
				c-59.2,0-107.4,48.2-107.4,107.4C720.6,293,768.8,341.2,828,341.2 M828,119.9c-62.8,0-113.9,51.1-113.9,113.9
				c0,62.8,51.1,113.9,113.9,113.9c62.8,0,113.9-51.1,113.9-113.9C941.9,171,890.8,119.9,828,119.9L828,119.9z M828,340.2
				c-58.7,0-106.4-47.7-106.4-106.4c0-58.7,47.7-106.4,106.4-106.4c58.7,0,106.4,47.7,106.4,106.4
				C934.4,292.5,886.7,340.2,828,340.2L828,340.2z"/>
		</g>
	</g>
</g>
<image style="display:none;overflow:visible;" width="1400" height="500" xlink:href="../logo/cover.png"  transform="matrix(0.74 0 0 0.74 182 65)">
</image>
<g class="st0">
	<path class="st4" d="M382.3,256.9l1.7,6.2l1.7-6.2l8.8-28.9h1.5l8.8,28.9l1.7,6.2l1.7-6.2L416,228h1.5l-10.1,37.4h-1.6l-9.3-31.2
		l-1.3-4l-1.3,4l-9.4,31.2h-1.6L373,228h1.5L382.3,256.9z"/>
	<path class="st4" d="M444.4,246.8h-18.8V264h21.4v1.4h-22.8V228h22.8v1.4h-21.4v16.1h18.8V246.8z"/>
	<path class="st4" d="M454.2,265.4V228h9.8c1.9,0,3.6,0.2,5.1,0.6c1.5,0.4,2.8,1,3.9,1.7c1.1,0.8,1.9,1.8,2.4,3
		c0.6,1.2,0.8,2.6,0.8,4.3c0,1.1-0.1,2.1-0.4,3c-0.3,1-0.7,1.8-1.3,2.5c-0.6,0.7-1.2,1.4-2.1,1.9c-0.8,0.5-1.8,0.8-2.8,1.1
		c1.2,0.2,2.3,0.5,3.3,1c1,0.5,1.9,1.2,2.6,2c0.7,0.8,1.3,1.7,1.7,2.8c0.4,1,0.6,2.1,0.6,3.2c0,1.7-0.3,3.1-0.8,4.4
		c-0.6,1.3-1.4,2.4-2.4,3.2c-1,0.9-2.2,1.5-3.7,2c-1.4,0.4-3,0.7-4.7,0.7H454.2z M455.6,245.5h9c3.4,0,6-0.7,7.7-2
		c1.7-1.3,2.6-3.3,2.6-6.1c0-2.7-0.9-4.7-2.7-6.1c-1.8-1.3-4.5-2-8.1-2h-8.5V245.5z M455.6,246.9V264h10.8c1.6,0,3-0.2,4.3-0.6
		c1.3-0.4,2.3-1,3.2-1.7c0.9-0.8,1.5-1.7,2-2.8s0.7-2.4,0.7-3.7c0-1.1-0.2-2.1-0.6-3.1c-0.4-1-1-1.9-1.9-2.6
		c-0.8-0.8-1.9-1.4-3.1-1.8c-1.2-0.5-2.7-0.7-4.4-0.7H455.6z"/>
	<path class="st4" d="M508.4,256.4c0-1.2-0.2-2.2-0.6-3.1c-0.4-0.9-1.1-1.7-2-2.5c-0.9-0.7-2.1-1.4-3.6-2c-1.5-0.6-3.3-1.2-5.4-1.8
		c-1.9-0.5-3.6-1.1-5.1-1.6c-1.5-0.6-2.8-1.3-3.9-2c-1.1-0.8-1.9-1.7-2.5-2.8c-0.6-1.1-0.8-2.4-0.8-3.9c0-1.4,0.3-2.7,1-3.8
		c0.6-1.1,1.5-2.1,2.6-2.9c1.1-0.8,2.4-1.4,3.9-1.8c1.5-0.4,3.2-0.6,4.9-0.6c1.8,0,3.5,0.3,5,0.8c1.5,0.5,2.8,1.3,3.9,2.2
		s2,2.1,2.6,3.5c0.6,1.4,0.9,2.9,0.9,4.5H508c0-1.4-0.3-2.7-0.8-3.8c-0.5-1.2-1.3-2.2-2.2-3.1c-1-0.9-2.1-1.5-3.5-2
		c-1.4-0.5-2.9-0.7-4.5-0.7c-1.8,0-3.3,0.2-4.7,0.6c-1.4,0.4-2.5,1-3.5,1.7c-0.9,0.7-1.6,1.5-2.1,2.5c-0.5,0.9-0.7,1.9-0.7,2.9
		c0,1,0.2,1.9,0.5,2.8c0.3,0.8,0.9,1.6,1.8,2.4c0.9,0.7,2,1.4,3.5,2.1c1.5,0.6,3.3,1.3,5.6,1.8c1.9,0.5,3.5,1,5.1,1.6
		c1.5,0.6,2.9,1.3,4,2.1c1.1,0.8,2,1.8,2.6,3c0.6,1.1,0.9,2.5,0.9,4.1c0,1.5-0.3,2.9-1,4.1c-0.7,1.2-1.6,2.2-2.7,3
		c-1.1,0.8-2.5,1.4-4,1.8c-1.5,0.4-3.2,0.6-4.9,0.6c-1.1,0-2.1-0.1-3.2-0.2c-1.1-0.2-2.2-0.4-3.2-0.8c-1-0.4-2-0.8-2.9-1.4
		c-0.9-0.6-1.7-1.3-2.3-2.1c-0.7-0.8-1.2-1.8-1.6-2.9c-0.4-1.1-0.6-2.3-0.6-3.7h1.4c0,1.3,0.2,2.4,0.5,3.3c0.4,1,0.9,1.8,1.5,2.5
		c0.6,0.7,1.3,1.3,2.2,1.8c0.8,0.5,1.7,0.9,2.6,1.2c0.9,0.3,1.9,0.5,2.8,0.7s1.9,0.2,2.8,0.2c1.6,0,3.2-0.2,4.5-0.6
		c1.4-0.4,2.6-0.9,3.6-1.7c1-0.7,1.8-1.6,2.3-2.6C508.1,258.7,508.4,257.6,508.4,256.4z"/>
	<path class="st4" d="M519.5,265.4h-1.4V228h1.4V265.4z"/>
	<path class="st4" d="M555,229.4h-13.6v36H540v-36h-13.6V228H555V229.4z"/>
	<path class="st4" d="M581.7,246.8h-18.8V264h21.4v1.4h-22.8V228h22.8v1.4h-21.4v16.1h18.8V246.8z"/>
	<path class="st4" d="M626.5,256.4c0-1.2-0.2-2.2-0.6-3.1c-0.4-0.9-1.1-1.7-2-2.5c-0.9-0.7-2.1-1.4-3.6-2c-1.5-0.6-3.3-1.2-5.4-1.8
		c-1.9-0.5-3.6-1.1-5.1-1.6c-1.5-0.6-2.8-1.3-3.9-2c-1.1-0.8-1.9-1.7-2.5-2.8c-0.6-1.1-0.8-2.4-0.8-3.9c0-1.4,0.3-2.7,1-3.8
		c0.6-1.1,1.5-2.1,2.6-2.9c1.1-0.8,2.4-1.4,3.9-1.8c1.5-0.4,3.2-0.6,4.9-0.6c1.8,0,3.5,0.3,5,0.8c1.5,0.5,2.8,1.3,3.9,2.2
		c1.1,1,2,2.1,2.6,3.5c0.6,1.4,0.9,2.9,0.9,4.5h-1.4c0-1.4-0.3-2.7-0.8-3.8c-0.5-1.2-1.3-2.2-2.2-3.1c-1-0.9-2.1-1.5-3.5-2
		c-1.4-0.5-2.9-0.7-4.5-0.7c-1.8,0-3.3,0.2-4.7,0.6c-1.4,0.4-2.5,1-3.5,1.7c-0.9,0.7-1.6,1.5-2.1,2.5c-0.5,0.9-0.7,1.9-0.7,2.9
		c0,1,0.2,1.9,0.5,2.8c0.3,0.8,0.9,1.6,1.8,2.4c0.9,0.7,2,1.4,3.5,2.1c1.5,0.6,3.3,1.3,5.6,1.8c1.9,0.5,3.5,1,5.1,1.6
		c1.5,0.6,2.9,1.3,4,2.1c1.1,0.8,2,1.8,2.6,3c0.6,1.1,0.9,2.5,0.9,4.1c0,1.5-0.3,2.9-1,4.1c-0.7,1.2-1.6,2.2-2.7,3
		c-1.1,0.8-2.5,1.4-4,1.8c-1.5,0.4-3.2,0.6-4.9,0.6c-1.1,0-2.1-0.1-3.2-0.2c-1.1-0.2-2.2-0.4-3.2-0.8c-1-0.4-2-0.8-2.9-1.4
		c-0.9-0.6-1.7-1.3-2.3-2.1s-1.2-1.8-1.6-2.9c-0.4-1.1-0.6-2.3-0.6-3.7h1.4c0,1.3,0.2,2.4,0.5,3.3c0.4,1,0.9,1.8,1.5,2.5
		c0.6,0.7,1.3,1.3,2.2,1.8c0.8,0.5,1.7,0.9,2.6,1.2c0.9,0.3,1.9,0.5,2.8,0.7c1,0.1,1.9,0.2,2.8,0.2c1.6,0,3.2-0.2,4.5-0.6
		c1.4-0.4,2.6-0.9,3.6-1.7c1-0.7,1.8-1.6,2.3-2.6C626.2,258.7,626.5,257.6,626.5,256.4z"/>
	<path class="st4" d="M655.4,246.8h-18.8V264H658v1.4h-22.8V228H658v1.4h-21.4v16.1h18.8V246.8z"/>
	<path class="st4" d="M666.6,264h19.2v1.4h-20.6V228h1.4V264z"/>
	<path class="st4" d="M712.5,246.8h-18.8V264h21.4v1.4h-22.8V228h22.8v1.4h-21.4v16.1h18.8V246.8z"/>
	<path class="st4" d="M747.8,253.9c-0.2,2-0.6,3.8-1.3,5.3c-0.7,1.5-1.6,2.7-2.8,3.7c-1.1,1-2.5,1.7-4.1,2.2
		c-1.6,0.5-3.3,0.7-5.1,0.7c-2.1,0-3.9-0.4-5.6-1.2c-1.7-0.8-3.1-1.9-4.3-3.4c-1.2-1.4-2.1-3.2-2.7-5.2c-0.6-2-1-4.2-1-6.7v-5.6
		c0-2.4,0.3-4.7,1-6.7c0.6-2,1.6-3.8,2.7-5.2c1.2-1.4,2.6-2.6,4.3-3.4c1.7-0.8,3.5-1.2,5.6-1.2c1.9,0,3.6,0.2,5.1,0.7
		c1.6,0.5,2.9,1.2,4.1,2.2c1.1,1,2.1,2.2,2.8,3.7c0.7,1.5,1.2,3.2,1.3,5.2h-1.4c-0.4-3.4-1.6-6.1-3.6-7.9c-2-1.8-4.8-2.7-8.4-2.7
		c-1.8,0-3.5,0.4-5,1.1c-1.5,0.7-2.8,1.7-3.8,3s-1.9,2.9-2.5,4.7c-0.6,1.8-0.9,3.9-0.9,6.2v5.7c0,2.3,0.3,4.3,0.9,6.2
		c0.6,1.9,1.4,3.4,2.5,4.7c1.1,1.3,2.4,2.3,3.8,3c1.5,0.7,3.1,1.1,5,1.1c1.7,0,3.3-0.2,4.7-0.6c1.4-0.4,2.6-1.1,3.6-1.9
		c1-0.9,1.8-2,2.5-3.3c0.6-1.3,1-2.9,1.2-4.7H747.8z"/>
	<path class="st4" d="M780.6,229.4H767v36h-1.4v-36H752V228h28.6V229.4z"/>
	<path class="st4" d="M789.6,265.4h-1.4V228h1.4V265.4z"/>
	<path class="st4" d="M827.4,249.5c0,2.4-0.3,4.7-1,6.7c-0.7,2-1.6,3.7-2.8,5.2c-1.2,1.4-2.7,2.6-4.4,3.4c-1.7,0.8-3.7,1.2-5.8,1.2
		c-2.1,0-4.1-0.4-5.8-1.2c-1.7-0.8-3.2-1.9-4.5-3.4c-1.2-1.4-2.2-3.2-2.9-5.2c-0.7-2-1-4.2-1-6.7v-5.6c0-2.4,0.3-4.7,1-6.7
		c0.7-2,1.6-3.8,2.8-5.2c1.2-1.4,2.7-2.6,4.4-3.4c1.7-0.8,3.7-1.2,5.8-1.2c2.2,0,4.1,0.4,5.8,1.2c1.7,0.8,3.2,1.9,4.4,3.4
		c1.2,1.4,2.2,3.2,2.8,5.2c0.7,2,1,4.2,1,6.7V249.5z M826,243.8c0-2.2-0.3-4.2-0.9-6c-0.6-1.8-1.4-3.4-2.5-4.7
		c-1.1-1.3-2.4-2.4-4-3.1c-1.6-0.7-3.4-1.1-5.4-1.1c-2,0-3.8,0.4-5.4,1.1c-1.6,0.7-2.9,1.8-4,3.1c-1.1,1.3-1.9,2.9-2.5,4.7
		c-0.6,1.8-0.8,3.8-0.8,6v5.7c0,2.2,0.3,4.2,0.9,6.1c0.6,1.8,1.4,3.4,2.5,4.8c1.1,1.3,2.4,2.4,4,3.1c1.6,0.7,3.4,1.1,5.4,1.1
		c2,0,3.8-0.4,5.4-1.1s2.9-1.8,4-3.1c1.1-1.3,1.9-2.9,2.5-4.8c0.6-1.8,0.8-3.9,0.8-6.1V243.8z"/>
	<path class="st4" d="M862.9,265.4h-1.4l-24.2-35.1v35.1h-1.4V228h1.4l24.2,35v-35h1.4V265.4z"/>
	<path class="st4" d="M883.2,268.6h-1.5l15.6-40.6h1.5L883.2,268.6z"/>
	<path class="st4" d="M939.6,265.4h-22.4V264l12.3-14.1c1.2-1.3,2.2-2.6,3-3.7c0.8-1.1,1.5-2.2,2.1-3.2c0.5-1,1-1.9,1.2-2.8
		c0.3-0.9,0.4-1.7,0.4-2.6c0-1.3-0.2-2.5-0.6-3.6c-0.4-1.1-1-2-1.7-2.7c-0.8-0.8-1.7-1.3-2.9-1.7s-2.5-0.6-3.9-0.6
		c-1.3,0-2.6,0.2-3.7,0.7c-1.1,0.5-2.1,1.2-3,2c-0.8,0.9-1.5,1.9-2,3.1s-0.7,2.5-0.7,3.9h-1.4c0-1.5,0.3-2.9,0.8-4.3
		s1.3-2.5,2.2-3.5c1-1,2.1-1.8,3.4-2.4c1.3-0.6,2.8-0.9,4.4-0.9c1.6,0,3.1,0.2,4.4,0.6c1.3,0.4,2.4,1.1,3.3,1.9
		c0.9,0.8,1.6,1.9,2.1,3.1c0.5,1.3,0.7,2.7,0.7,4.3c0,1.2-0.2,2.3-0.7,3.5c-0.4,1.2-1,2.3-1.8,3.5c-0.7,1.2-1.6,2.3-2.5,3.5
		c-0.9,1.1-1.9,2.3-2.8,3.4L919.1,264h20.6V265.4z"/>
	<path class="st4" d="M967.7,250.1c0,2.4-0.2,4.6-0.7,6.6c-0.5,1.9-1.2,3.6-2.1,5c-0.9,1.4-2.1,2.4-3.5,3.1c-1.4,0.7-3,1.1-4.8,1.1
		c-1.8,0-3.4-0.4-4.8-1.1c-1.4-0.7-2.6-1.8-3.5-3.1c-1-1.4-1.7-3-2.2-5c-0.5-1.9-0.7-4.1-0.7-6.6v-6.9c0-2.4,0.2-4.6,0.7-6.6
		c0.5-2,1.2-3.6,2.2-5c1-1.4,2.1-2.4,3.5-3.1c1.4-0.7,3-1.1,4.8-1.1c1.8,0,3.4,0.4,4.8,1.1c1.4,0.7,2.6,1.8,3.5,3.1
		c1,1.4,1.7,3,2.2,5c0.5,2,0.7,4.1,0.7,6.6V250.1z M966.3,243.2c0-2.1-0.2-4.1-0.6-5.9c-0.4-1.8-1-3.3-1.8-4.6
		c-0.8-1.3-1.8-2.2-3.1-2.9c-1.2-0.7-2.7-1-4.3-1c-1.6,0-3.1,0.3-4.3,1c-1.2,0.7-2.3,1.7-3.1,2.9c-0.8,1.3-1.4,2.8-1.8,4.6
		c-0.4,1.8-0.6,3.7-0.6,5.9v6.8c0,2.1,0.2,4,0.6,5.8s1,3.3,1.8,4.6s1.8,2.3,3.1,3c1.2,0.7,2.7,1.1,4.3,1.1c1.7,0,3.1-0.4,4.3-1.1
		c1.2-0.7,2.2-1.7,3-3c0.8-1.3,1.4-2.8,1.8-4.6c0.4-1.8,0.6-3.7,0.6-5.8V243.2z"/>
	<path class="st4" d="M987.8,265.4h-1.4v-35.7l-10.7,4v-1.5l11.8-4.4h0.3V265.4z"/>
	<path class="st4" d="M1025.6,228.8l-16.5,36.5h-1.4l16.3-36h-22.3V228h23.9V228.8z"/>
</g>
<g>
	<path class="st5" d="M341.1,125.6c-71,0-128.6,57.6-128.6,128.6c0,71,57.6,128.6,128.6,128.6s128.6-57.6,128.6-128.6
		C469.7,183.2,412.1,125.6,341.1,125.6z M412.3,221.9l-8.7-11.9l4.4-0.5c-4.4-19-19-34.6-37.8-40.1c-1.6-0.5-2.5-2.1-2-3.7
		c0.5-1.6,2.1-2.5,3.7-2c21.1,6.2,37.4,23.7,42.1,45.1l4.4-0.5L412.3,221.9z"/>
	<path class="st6" d="M202.9,206.3"/>
	<path class="st7" d="M184.4,301.1c18.7,47.8,65.3,81.7,119.8,81.7c54.5,0,101.1-33.9,119.8-81.7H184.4z"/>
	<g>
		<line class="st2" x1="497.8" y1="301.2" x2="184.4" y2="301.2"/>
		<path class="st8" d="M497.8,302.7H184.4c-0.8,0-1.5-0.7-1.5-1.5s0.7-1.5,1.5-1.5h313.4c0.8,0,1.5,0.7,1.5,1.5
			S498.6,302.7,497.8,302.7z"/>
	</g>
	<g>
		<path class="st2" d="M456,352c0,8.3-6.1,15-13.6,15H389c-7.5,0-13.6-6.7-13.6-15V247.2c0-8.3,6.1-15,13.6-15h53.3
			c7.5,0,13.6,6.7,13.6,15V352z"/>
		<path class="st8" d="M442.4,368.5H389c-8.3,0-15.1-7.4-15.1-16.5V247.2c0-9.1,6.8-16.5,15.1-16.5h53.3c8.3,0,15.1,7.4,15.1,16.5
			V352C457.5,361.1,450.7,368.5,442.4,368.5z M389,233.7c-6.7,0-12.1,6.1-12.1,13.5V352c0,7.4,5.4,13.5,12.1,13.5h53.3
			c6.7,0,12.1-6.1,12.1-13.5V247.2c0-7.4-5.4-13.5-12.1-13.5H389z"/>
	</g>
	<g>
		<rect x="254.2" y="151.7" class="st2" width="104.1" height="147.5"/>
		<path class="st8" d="M358.3,300.6H254.2c-0.8,0-1.5-0.7-1.5-1.5V151.7c0-0.8,0.7-1.5,1.5-1.5h104.1c0.8,0,1.5,0.7,1.5,1.5v147.5
			C359.7,300,359.1,300.6,358.3,300.6z M255.7,297.7h101.1V153.1H255.7V297.7z"/>
	</g>
	<g>
		<rect x="254.2" y="144.2" class="st2" width="104.1" height="164.7"/>
		<path class="st8" d="M358.3,310.4H254.2c-0.8,0-1.5-0.7-1.5-1.5V144.2c0-0.8,0.7-1.5,1.5-1.5h104.1c0.8,0,1.5,0.7,1.5,1.5v164.7
			C359.7,309.8,359.1,310.4,358.3,310.4z M255.7,307.5h101.1V145.7H255.7V307.5z"/>
	</g>
	<path class="st8" d="M358.3,286.6H254.2c-0.8,0-1.5-0.7-1.5-1.5V170.9c0-0.8,0.7-1.5,1.5-1.5h104.1c0.8,0,1.5,0.7,1.5,1.5v114.2
		C359.7,285.9,359.1,286.6,358.3,286.6z M255.7,283.6h101.1V172.4H255.7V283.6z"/>
	<g>
		<polygon class="st7" points="307.5,231.5 288.7,232.3 290.7,186.5 300.6,190.6 		"/>
		<path class="st8" d="M288.7,233.8c-0.4,0-0.8-0.2-1-0.4c-0.3-0.3-0.5-0.7-0.4-1.1l1.9-45.8c0-0.5,0.3-0.9,0.7-1.2
			c0.4-0.3,0.9-0.3,1.4-0.1l10,4.1c0.5,0.2,0.8,0.6,0.9,1.1l6.8,41c0.1,0.4,0,0.8-0.3,1.2c-0.3,0.3-0.7,0.5-1.1,0.5L288.7,233.8
			C288.8,233.8,288.8,233.8,288.7,233.8z M292.1,188.7l-1.8,42.1l15.4-0.7l-6.4-38.5L292.1,188.7z"/>
	</g>
	<g>
		<polygon class="st5" points="325.8,248.4 313.5,248.4 315.9,185.7 322.5,193.6 		"/>
		<path class="st8" d="M325.8,249.9C325.8,249.9,325.8,249.9,325.8,249.9h-12.3c-0.4,0-0.8-0.2-1.1-0.5c-0.3-0.3-0.4-0.7-0.4-1.1
			l2.4-62.7c0-0.6,0.4-1.1,1-1.3c0.6-0.2,1.2,0,1.6,0.5l6.6,8c0.2,0.2,0.3,0.5,0.3,0.9l3.2,54.6c0,0.1,0,0.2,0,0.3
			C327.3,249.2,326.6,249.9,325.8,249.9z M315,246.9h9.2l-3.1-52.7l-3.8-4.6L315,246.9z"/>
	</g>
	<g>
		<path class="st5" d="M322.3,228.7h-6.9l-1.6-32.9c0,0,1.5-7.7,4.8-7.7s4.2,8,4.2,8L322.3,228.7z"/>
		<path class="st8" d="M322.3,230.1h-6.9c-0.8,0-1.4-0.6-1.5-1.4l-1.6-32.9c0-0.1,0-0.2,0-0.4c0.3-1.5,1.9-8.9,6.2-8.9
			c4.4,0,5.5,7.8,5.7,9.3c0,0.1,0,0.1,0,0.2l-0.5,32.5C323.7,229.5,323.1,230.1,322.3,230.1z M316.8,227.2h4l0.5-31
			c-0.4-3.1-1.6-6.6-2.7-6.6c-1.2,0-2.7,3.3-3.3,6.3L316.8,227.2z"/>
	</g>
	<g>
		<path class="st5" d="M301.6,230.2h-8.2l-2.9-35c0,0,1.1-7.1,5.5-7.1s5.5,7.5,5.5,7.5L301.6,230.2z"/>
		<path class="st8" d="M301.6,231.7C301.6,231.7,301.6,231.7,301.6,231.7h-8.2c-0.8,0-1.4-0.6-1.5-1.4l-2.9-35c0-0.1,0-0.2,0-0.4
			c0.1-0.3,1.4-8.3,6.9-8.3c5.5,0,6.9,8.4,7,8.8c0,0.1,0,0.2,0,0.2L303,230c0,0.1,0,0.1,0,0.2C303.1,231.1,302.4,231.7,301.6,231.7z
			 M294.7,228.8h5.4l-0.2-33c-0.3-1.7-1.6-6.2-4.1-6.2c-2.6,0-3.8,4.8-4,5.7L294.7,228.8z"/>
	</g>
	<g>
		<polygon class="st5" points="282,246.9 271.8,247.7 269,188.1 282,188.1 		"/>
		<path class="st8" d="M271.8,249.2c-0.4,0-0.7-0.1-1-0.4c-0.3-0.3-0.5-0.6-0.5-1l-2.8-59.6c0-0.4,0.1-0.8,0.4-1.1
			c0.3-0.3,0.7-0.5,1.1-0.5h13c0.8,0,1.5,0.7,1.5,1.5v58.8c0,0.8-0.6,1.4-1.4,1.5l-10.1,0.8C271.9,249.2,271.9,249.2,271.8,249.2z
			 M270.5,189.6l2.7,56.5l7.3-0.6v-56H270.5z"/>
	</g>
	<g>
		<polygon class="st5" points="335.3,246.9 330,246.9 329.6,188.1 335.3,188.1 		"/>
		<path class="st8" d="M335.3,248.4H330c-0.8,0-1.5-0.7-1.5-1.5l-0.4-58.8c0-0.4,0.2-0.8,0.4-1.1c0.3-0.3,0.7-0.4,1.1-0.4h5.6
			c0.8,0,1.5,0.7,1.5,1.5v58.8C336.8,247.8,336.1,248.4,335.3,248.4z M331.5,245.5h2.3v-55.9h-2.7L331.5,245.5z"/>
	</g>
	<g>
		<rect x="198.8" y="267.5" class="st2" width="47.2" height="17.5"/>
		<path class="st8" d="M246.1,286.5h-47.2c-0.8,0-1.5-0.7-1.5-1.5v-17.5c0-0.8,0.7-1.5,1.5-1.5h47.2c0.8,0,1.5,0.7,1.5,1.5v17.5
			C247.5,285.9,246.9,286.5,246.1,286.5z M200.3,283.6h44.3V269h-44.3V283.6z"/>
	</g>
	<path class="st8" d="M246.1,310.4c-0.8,0-1.5-0.7-1.5-1.5v-40.3h-44.3v40.3c0,0.8-0.7,1.5-1.5,1.5c-0.8,0-1.5-0.7-1.5-1.5v-41.8
		c0-0.8,0.7-1.5,1.5-1.5h47.2c0.8,0,1.5,0.7,1.5,1.5v41.8C247.5,309.8,246.9,310.4,246.1,310.4z"/>
	<g>
		<line class="st2" x1="306.2" y1="146" x2="306.2" y2="170.6"/>
		<path class="st8" d="M306.2,172c-0.8,0-1.5-0.7-1.5-1.5V146c0-0.8,0.7-1.5,1.5-1.5s1.5,0.7,1.5,1.5v24.6
			C307.7,171.4,307.1,172,306.2,172z"/>
	</g>
	<g>
		<line class="st2" x1="261.6" y1="180.9" x2="350.9" y2="180.9"/>
		<path class="st8" d="M350.9,182.3h-89.3c-0.8,0-1.5-0.7-1.5-1.5c0-0.8,0.7-1.5,1.5-1.5h89.3c0.8,0,1.5,0.7,1.5,1.5
			C352.4,181.7,351.7,182.3,350.9,182.3z"/>
	</g>
	<g>
		<line class="st2" x1="276.1" y1="165" x2="286" y2="165"/>
		<path class="st8" d="M286,166.5h-9.9c-0.8,0-1.5-0.7-1.5-1.5c0-0.8,0.7-1.5,1.5-1.5h9.9c0.8,0,1.5,0.7,1.5,1.5
			C287.5,165.8,286.8,166.5,286,166.5z"/>
	</g>
	<g>
		<line class="st2" x1="194.3" y1="280.3" x2="250.1" y2="280.3"/>
		<path class="st8" d="M250.1,281.8h-55.8c-0.8,0-1.5-0.7-1.5-1.5s0.7-1.5,1.5-1.5h55.8c0.8,0,1.5,0.7,1.5,1.5
			S250.9,281.8,250.1,281.8z"/>
	</g>
	<g>
		<line class="st2" x1="327" y1="165" x2="336.9" y2="165"/>
		<path class="st8" d="M336.9,166.5H327c-0.8,0-1.5-0.7-1.5-1.5c0-0.8,0.7-1.5,1.5-1.5h9.9c0.8,0,1.5,0.7,1.5,1.5
			C338.4,165.8,337.7,166.5,336.9,166.5z"/>
	</g>
	<g>
		<line class="st2" x1="275.3" y1="182.6" x2="275.3" y2="190.7"/>
		<path class="st8" d="M275.3,192.2c-0.8,0-1.5-0.7-1.5-1.5v-8.1c0-0.8,0.7-1.5,1.5-1.5s1.5,0.7,1.5,1.5v8.1
			C276.8,191.6,276.2,192.2,275.3,192.2z"/>
	</g>
	<g>
		<line class="st2" x1="295.7" y1="182.6" x2="295.7" y2="186.7"/>
		<path class="st8" d="M295.7,188.2c-0.8,0-1.5-0.7-1.5-1.5v-4.1c0-0.8,0.7-1.5,1.5-1.5c0.8,0,1.5,0.7,1.5,1.5v4.1
			C297.2,187.6,296.5,188.2,295.7,188.2z"/>
	</g>
	<g>
		<line class="st2" x1="319.3" y1="182.6" x2="319.3" y2="188"/>
		<path class="st8" d="M319.3,189.4c-0.8,0-1.5-0.7-1.5-1.5v-5.4c0-0.8,0.7-1.5,1.5-1.5c0.8,0,1.5,0.7,1.5,1.5v5.4
			C320.8,188.8,320.1,189.4,319.3,189.4z"/>
	</g>
	<g>
		<line class="st2" x1="332.3" y1="182.6" x2="332.3" y2="188"/>
		<path class="st8" d="M332.3,189.4c-0.8,0-1.5-0.7-1.5-1.5v-5.4c0-0.8,0.7-1.5,1.5-1.5c0.8,0,1.5,0.7,1.5,1.5v5.4
			C333.8,188.8,333.1,189.4,332.3,189.4z"/>
	</g>
	<g>
		<polygon class="st7" points="345.9,242.5 340.6,242.5 340.2,188.9 345.9,188.9 		"/>
		<path class="st8" d="M345.9,243.9h-5.3c-0.8,0-1.5-0.7-1.5-1.5l-0.4-53.5c0-0.4,0.2-0.8,0.4-1.1c0.3-0.3,0.7-0.4,1.1-0.4h5.6
			c0.8,0,1.5,0.7,1.5,1.5v53.5C347.3,243.3,346.7,243.9,345.9,243.9z M342.1,241h2.3v-50.6h-2.7L342.1,241z"/>
	</g>
	<g>
		<line class="st2" x1="342.9" y1="182.6" x2="342.9" y2="188"/>
		<path class="st8" d="M342.9,189.4c-0.8,0-1.5-0.7-1.5-1.5v-5.4c0-0.8,0.7-1.5,1.5-1.5c0.8,0,1.5,0.7,1.5,1.5v5.4
			C344.4,188.8,343.7,189.4,342.9,189.4z"/>
	</g>
	<g>
		<circle class="st2" cx="414.9" cy="353" r="6.6"/>
		<path class="st8" d="M414.9,361.2c-4.5,0-8.1-3.6-8.1-8.1c0-4.5,3.6-8.1,8.1-8.1c4.5,0,8.1,3.6,8.1,8.1
			C423,357.5,419.4,361.2,414.9,361.2z M414.9,347.9c-2.8,0-5.2,2.3-5.2,5.2s2.3,5.2,5.2,5.2c2.8,0,5.2-2.3,5.2-5.2
			S417.7,347.9,414.9,347.9z"/>
	</g>
	<path class="st2" d="M426.6,284.6l0-6.9l-0.7,6C426.1,283.9,426.3,284.2,426.6,284.6z"/>
	<path class="st2" d="M404.7,283.7l-0.7-6l0,6.9C404.2,284.2,404.4,283.9,404.7,283.7z"/>
	<g>
		<rect x="305.4" y="265.9" class="st2" width="52.9" height="19.2"/>
		<path class="st8" d="M358.3,286.6h-52.9c-0.8,0-1.5-0.7-1.5-1.5v-19.2c0-0.8,0.7-1.5,1.5-1.5h52.9c0.8,0,1.5,0.7,1.5,1.5v19.2
			C359.7,285.9,359.1,286.6,358.3,286.6z M306.8,283.6h50v-16.3h-50V283.6z"/>
	</g>
	<g>
		<rect x="254.1" y="265.9" class="st2" width="52.9" height="19.2"/>
		<path class="st8" d="M307,286.6h-52.9c-0.8,0-1.5-0.7-1.5-1.5v-19.2c0-0.8,0.7-1.5,1.5-1.5H307c0.8,0,1.5,0.7,1.5,1.5v19.2
			C308.5,285.9,307.8,286.6,307,286.6z M255.5,283.6h49.9v-16.3h-49.9V283.6z"/>
	</g>
	<g>
		<polygon class="st5" points="281.4,201.4 273.9,199.7 269.9,188.1 281.4,188.1 		"/>
		<path class="st8" d="M281.4,202.8c-0.1,0-0.2,0-0.3,0l-7.5-1.6c-0.5-0.1-0.9-0.5-1.1-1l-3.9-11.6c-0.2-0.5-0.1-1,0.2-1.3
			c0.3-0.4,0.7-0.6,1.2-0.6h11.5c0.8,0,1.5,0.7,1.5,1.5v13.2c0,0.4-0.2,0.9-0.6,1.2C282.1,202.7,281.7,202.8,281.4,202.8z
			 M275,198.5l4.9,1.1v-9.9H272L275,198.5z"/>
	</g>
	<g>
		<path class="st5" d="M401.4,250.6c-2.4-0.8-3.9-1.7-4.8-2.4c-1.4,1.8-4.8,6.6-5.5,14c0.8,1,3.8,4.4,8.2,5.2c0.3-1,0.7-3.3,0.2-7.2
			C398.8,254.7,400.1,252.2,401.4,250.6z"/>
		<path class="st5" d="M427.1,280h-0.8c0.9,1.6,1.9,4.3,2.4,8.9c0.1,0.6-0.4,1.1-0.9,1.2c0,0-0.1,0-0.1,0c-0.5,0-1-0.4-1.1-1
			c-0.7-6.3-2.3-8.6-2.9-9.2h-16.1c-0.6,0.6-2.2,2.9-2.9,9.2c-0.1,0.5-0.5,1-1.1,1c0,0-0.1,0-0.1,0c-0.6-0.1-1-0.6-0.9-1.2
			c0.5-4.6,1.5-7.4,2.4-8.9h-0.8c-0.5,0.4-2.3,2-4,7.9c-1.9,6.2-4.1,18.5-4.2,42c1.6,0.8,7.2,3.1,19.6,3.1c12.5,0,18.1-2.3,19.6-3.1
			c-0.1-23.5-2.3-35.8-4.2-42C429.4,282,427.6,280.4,427.1,280z"/>
		<path class="st7" d="M415.7,260.5c9.6,0,13.3-1.9,14.3-2.5c0.1-4-1.2-5.6-2.3-6.6c-3,0.8-7,1.4-12.1,1.4h0c-5.1,0-9-0.6-12.1-1.4
			c-1,1-2.3,2.5-2.3,6.6C402.4,258.6,406.2,260.5,415.7,260.5z"/>
		<path class="st5" d="M429.8,260.5c-2.2,1-6.4,2.2-14.1,2.2h0c-7.7,0-11.9-1.2-14.1-2.2c0.5,5-0.2,7.5-0.6,8.4
			c0.1,1.1,0.8,5.5,3.5,9h0.7c-0.6-1.1-1.1-2.6-1.1-4.4c0-0.6,0.5-1.1,1.1-1.1c0.6,0,1.1,0.5,1.1,1.1c0,2.2,1,3.7,1.5,4.4h15.9
			c0.5-0.7,1.5-2.3,1.5-4.4c0-0.6,0.5-1.1,1.1-1.1c0.6,0,1.1,0.5,1.1,1.1c0,1.8-0.5,3.3-1.1,4.4h0.7c2.7-3.5,3.4-7.9,3.5-9
			C430.1,268,429.3,265.5,429.8,260.5z"/>
		<path class="st5" d="M430.1,250.6c1.3,1.5,2.6,4.1,2,9.6c-0.4,3.9-0.1,6.2,0.2,7.2c4.3-0.8,7.3-4.1,8.2-5.2
			c-0.8-7.4-4.1-12.3-5.5-14C434,248.9,432.4,249.8,430.1,250.6z"/>
		<path class="st8" d="M435.8,246.1c-0.4-0.4-1.1-0.4-1.5,0l0,0c0,0-5.1,4.6-18.6,4.6c-13.4,0-18.5-4.5-18.6-4.6
			c-0.4-0.4-1.1-0.4-1.5,0l0,0c-0.2,0.2-5.8,6.1-6.8,16.5c0,0.3,0,0.5,0.2,0.7c0.2,0.2,3.8,5.3,9.9,6.4c0.3,1.7,1.1,5.6,3.5,9.1
			c-2.6,2.5-8.5,12.6-8.6,51.8c0,0.4,0.2,0.7,0.5,0.9c0.2,0.2,5.6,3.7,21.3,3.7h0c15.7,0,21.1-3.6,21.3-3.7c0.3-0.2,0.5-0.5,0.5-0.9
			c-0.1-39.2-5.9-49.3-8.6-51.8c2.5-3.4,3.3-7.4,3.5-9.1c6.1-1,9.7-6.2,9.9-6.4c0.1-0.2,0.2-0.5,0.2-0.7
			C441.6,252.1,436,246.3,435.8,246.1z M403.7,251.3c3,0.8,7,1.4,12.1,1.4h0c5.1,0,9-0.6,12.1-1.4c1,1,2.3,2.5,2.3,6.6
			c-1,0.7-4.7,2.5-14.3,2.5c-9.6,0-13.3-1.9-14.3-2.6C401.3,253.9,402.6,252.3,403.7,251.3z M399.2,267.5c-4.3-0.8-7.3-4.1-8.2-5.2
			c0.8-7.4,4.1-12.3,5.5-14c0.9,0.6,2.4,1.5,4.8,2.4c-1.3,1.5-2.6,4.1-2,9.6C399.9,264.2,399.5,266.5,399.2,267.5z M431.2,287.9
			c1.9,6.2,4.1,18.5,4.2,42c-1.5,0.8-7.1,3.1-19.6,3.1c-12.4,0-18.1-2.3-19.6-3.1c0.1-23.5,2.3-35.8,4.2-42c1.8-5.9,3.5-7.5,4-7.9
			h0.8c-0.9,1.6-1.9,4.3-2.4,8.9c-0.1,0.6,0.4,1.1,0.9,1.2c0,0,0.1,0,0.1,0c0.5,0,1-0.4,1.1-1c0.7-6.3,2.3-8.6,2.9-9.2h16.1
			c0.6,0.6,2.2,2.9,2.9,9.2c0.1,0.5,0.5,1,1.1,1c0,0,0.1,0,0.1,0c0.6-0.1,1-0.6,0.9-1.2c-0.5-4.6-1.5-7.4-2.4-8.9h0.8
			C427.6,280.4,429.4,282,431.2,287.9z M426.9,277.8h-0.7c0.6-1.1,1.1-2.6,1.1-4.4c0-0.6-0.5-1.1-1.1-1.1c-0.6,0-1.1,0.5-1.1,1.1
			c0,2.1-1,3.7-1.5,4.4h-15.9c-0.5-0.7-1.5-2.2-1.5-4.4c0-0.6-0.5-1.1-1.1-1.1c-0.6,0-1.1,0.5-1.1,1.1c0,1.8,0.5,3.3,1.1,4.4h-0.7
			c-2.7-3.5-3.4-7.9-3.5-9c0.3-0.9,1.1-3.4,0.6-8.4c2.2,1,6.4,2.2,14.1,2.2h0c7.7,0,11.9-1.2,14.1-2.2c-0.5,5,0.2,7.5,0.6,8.4
			C430.3,270,429.6,274.3,426.9,277.8z M432.2,267.5c-0.3-1-0.7-3.3-0.2-7.2c0.6-5.5-0.7-8.1-2-9.6c2.4-0.8,3.9-1.8,4.8-2.4
			c1.4,1.7,4.7,6.6,5.5,14C439.6,263.4,436.6,266.7,432.2,267.5z"/>
	</g>
	<g>
		<g>
			<polygon class="st2" points="238.5,267.4 227.9,267.4 226.7,256 239.7,256 			"/>
			<path class="st8" d="M238.5,268.9h-10.5c-0.8,0-1.4-0.6-1.5-1.3l-1.2-11.4c0-0.4,0.1-0.8,0.4-1.1c0.3-0.3,0.7-0.5,1.1-0.5h13
				c0.4,0,0.8,0.2,1.1,0.5c0.3,0.3,0.4,0.7,0.4,1.1l-1.2,11.4C239.9,268.3,239.2,268.9,238.5,268.9z M229.3,265.9h7.9l0.9-8.4h-9.7
				L229.3,265.9z"/>
		</g>
		<g>
			<line class="st2" x1="233.2" y1="255.5" x2="233.2" y2="247.1"/>
			<path class="st8" d="M233.2,257c-0.8,0-1.5-0.7-1.5-1.5v-8.5c0-0.8,0.7-1.5,1.5-1.5s1.5,0.7,1.5,1.5v8.5
				C234.7,256.3,234,257,233.2,257z"/>
		</g>
		<path class="st8" d="M230.3,248.5c-6.1,0-11-5-11-11c0-6.1,5-11,11-11c6.1,0,11,5,11,11C241.4,243.5,236.4,248.5,230.3,248.5z
			 M230.3,229.3c-4.5,0-8.1,3.6-8.1,8.1c0,4.5,3.6,8.1,8.1,8.1c4.5,0,8.1-3.6,8.1-8.1C238.4,233,234.8,229.3,230.3,229.3z"/>
		<path class="st8" d="M235.8,250.5c-4.6,0-8.4-3.8-8.4-8.4c0-4.6,3.8-8.4,8.4-8.4c4.6,0,8.4,3.8,8.4,8.4
			C244.2,246.7,240.5,250.5,235.8,250.5z M235.8,236.7c-3,0-5.4,2.4-5.4,5.4c0,3,2.4,5.4,5.4,5.4c3,0,5.4-2.4,5.4-5.4
			C241.3,239.1,238.8,236.7,235.8,236.7z"/>
	</g>
	<g>
		<polygon class="st7" points="351.6,284.5 318.8,284.5 319.1,278.2 351.6,278.2 		"/>
		<path class="st8" d="M351.6,286h-32.7c-0.4,0-0.8-0.2-1.1-0.5c-0.3-0.3-0.4-0.7-0.4-1.1l0.2-6.3c0-0.8,0.7-1.4,1.5-1.4h32.5
			c0.8,0,1.5,0.7,1.5,1.5v6.3C353,285.3,352.4,286,351.6,286z M320.4,283h29.7v-3.3h-29.6L320.4,283z"/>
	</g>
	<g>
		<polygon class="st7" points="351.6,278 318.8,278 319.1,271.7 351.6,271.7 		"/>
		<path class="st8" d="M351.6,279.5h-32.7c-0.4,0-0.8-0.2-1.1-0.5c-0.3-0.3-0.4-0.7-0.4-1.1l0.2-6.3c0-0.8,0.7-1.4,1.5-1.4h32.5
			c0.8,0,1.5,0.7,1.5,1.5v6.3C353,278.8,352.4,279.5,351.6,279.5z M320.4,276.5h29.7v-3.3h-29.6L320.4,276.5z"/>
	</g>
	<g>
		<polygon class="st7" points="351.6,265 279.2,265 279.7,261.1 351.6,258.7 		"/>
		<path class="st8" d="M351.6,266.5h-72.3c-0.4,0-0.8-0.2-1.1-0.5c-0.3-0.3-0.4-0.7-0.4-1.2l0.5-3.9c0.1-0.7,0.7-1.3,1.4-1.3
			l71.8-2.4c0.4,0,0.8,0.1,1.1,0.4c0.3,0.3,0.5,0.7,0.5,1.1v6.3C353,265.8,352.4,266.5,351.6,266.5z M280.9,263.5h69.2v-3.3
			l-69.1,2.3L280.9,263.5z"/>
	</g>
	<g>
		<polygon class="st7" points="281,284.5 258.9,284.5 259,274.7 281,274.7 		"/>
		<path class="st8" d="M281,286h-22.1c-0.4,0-0.8-0.2-1.1-0.4c-0.3-0.3-0.4-0.7-0.4-1.1l0.2-9.8c0-0.8,0.7-1.5,1.5-1.5h22
			c0.8,0,1.5,0.7,1.5,1.5v9.8C282.5,285.3,281.8,286,281,286z M260.4,283h19.2v-6.9h-19.1L260.4,283z"/>
	</g>
	<g>
		<polygon class="st5" points="281,282.9 258.9,276.4 259,270.1 281,270.1 		"/>
		<path class="st8" d="M281,284.4c-0.1,0-0.3,0-0.4-0.1l-22.1-6.5c-0.6-0.2-1.1-0.8-1.1-1.5l0.2-6.3c0-0.8,0.7-1.4,1.5-1.4h22
			c0.8,0,1.5,0.7,1.5,1.5v12.8c0,0.5-0.2,0.9-0.6,1.2C281.6,284.3,281.3,284.4,281,284.4z M260.4,275.3l19.2,5.6v-9.4h-19.1
			L260.4,275.3z"/>
	</g>
	<path class="st9" d="M700,125.6c-71,0-128.6,57.6-128.6,128.6c0,71,57.6,128.6,128.6,128.6s128.6-57.6,128.6-128.6
		C828.6,183.2,771,125.6,700,125.6z M693.6,188.1l-0.3-4.3c-16.3,4.6-30.1,21.1-30.1,36.7c0,1.6-1.3,3-3,3c-1.6,0-3-1.3-3-3
		c0-18.4,16.4-37.9,35.6-42.7l-0.3-4.5l13.3,6.5L693.6,188.1z"/>
	<path class="st10" d="M736.7,119.4"/>
	<path class="st11" d="M543.3,299.8c18.4,48.5,65.3,83,120.3,83c55,0,101.9-34.5,120.3-83H543.3z"/>
	<g>
		<line class="st2" x1="856.7" y1="301.2" x2="543.3" y2="301.2"/>
		<path class="st8" d="M856.7,302.7H543.3c-0.8,0-1.5-0.7-1.5-1.5s0.7-1.5,1.5-1.5h313.4c0.8,0,1.5,0.7,1.5,1.5
			S857.5,302.7,856.7,302.7z"/>
	</g>
	<g>
		<g>
			<line class="st2" x1="821.7" y1="324.8" x2="663.8" y2="324.8"/>
			<path class="st8" d="M821.7,326.3H663.8c-0.8,0-1.5-0.7-1.5-1.5s0.7-1.5,1.5-1.5h157.9c0.8,0,1.5,0.7,1.5,1.5
				S822.5,326.3,821.7,326.3z"/>
		</g>
		<g>
			<line class="st2" x1="821.7" y1="324" x2="799.3" y2="238"/>
			<path class="st8" d="M821.7,325.5c-0.7,0-1.3-0.4-1.4-1.1l-22.4-86c-0.2-0.8,0.3-1.6,1.1-1.8c0.8-0.2,1.6,0.3,1.8,1.1l22.4,86
				c0.2,0.8-0.3,1.6-1.1,1.8C822,325.5,821.9,325.5,821.7,325.5z"/>
		</g>
		<g>
			<path class="st2" d="M799.3,332.9c0,4.5-3.6,8.1-8.1,8.1H654.5c-4.5,0-8.1-3.6-8.1-8.1v-93.6c0-4.5,3.6-8.1,8.1-8.1h136.8
				c4.5,0,8.1,3.6,8.1,8.1V332.9z"/>
			<path class="st8" d="M791.2,342.5H654.5c-5.3,0-9.6-4.3-9.6-9.6v-93.6c0-5.3,4.3-9.6,9.6-9.6h136.8c5.3,0,9.6,4.3,9.6,9.6v93.6
				C800.8,338.2,796.5,342.5,791.2,342.5z M654.5,232.6c-3.7,0-6.7,3-6.7,6.7v93.6c0,3.7,3,6.7,6.7,6.7h136.8c3.7,0,6.7-3,6.7-6.7
				v-93.6c0-3.7-3-6.7-6.7-6.7H654.5z"/>
		</g>
		<g>
			<circle class="st2" cx="783.5" cy="286.1" r="6.6"/>
			<path class="st8" d="M783.5,294.2c-4.5,0-8.1-3.6-8.1-8.1c0-4.5,3.6-8.1,8.1-8.1c4.5,0,8.1,3.6,8.1,8.1
				C791.6,290.5,788,294.2,783.5,294.2z M783.5,280.9c-2.8,0-5.2,2.3-5.2,5.2s2.3,5.2,5.2,5.2c2.8,0,5.2-2.3,5.2-5.2
				S786.4,280.9,783.5,280.9z"/>
		</g>
		<g>
			<g>
				<path class="st9" d="M735.9,262.3c-13.1-13.1-34.3-13.1-47.4,0c-13.1,13.1-13.1,34.3,0,47.4c13.1,13.1,34.3,13.1,47.4,0
					C749,296.7,749,275.4,735.9,262.3z M703.1,301.3c-3.4,0-6.1-2.7-6.1-6.1c0-3.4,2.7-6.1,6.1-6.1c3.4,0,6.1,2.7,6.1,6.1
					C709.1,298.6,706.4,301.3,703.1,301.3z M703.1,283c-3.4,0-6.1-2.7-6.1-6.1c0-3.4,2.7-6.1,6.1-6.1c3.4,0,6.1,2.7,6.1,6.1
					C709.1,280.3,706.4,283,703.1,283z M721.3,270.8c3.4,0,6.1,2.7,6.1,6.1c0,3.4-2.7,6.1-6.1,6.1c-3.4,0-6.1-2.7-6.1-6.1
					C715.2,273.5,718,270.8,721.3,270.8z M721.3,301.3c-3.4,0-6.1-2.7-6.1-6.1c0-3.4,2.7-6.1,6.1-6.1c3.4,0,6.1,2.7,6.1,6.1
					C727.4,298.6,724.7,301.3,721.3,301.3z"/>
			</g>
		</g>
	</g>
	<g>
		<g>
			<path class="st8" d="M612.2,303.4c-0.4,0-0.8-0.2-1-0.4c-0.3-0.3-0.4-0.7-0.4-1l0.1-42.1c0-0.2,0.1-0.4,0.2-0.6
				c0.1-0.3,3.4-6.8,8.6-6.8c0.8,0,2,0,3.3,0c1.9,0,4.2,0.1,6.8,0.1c3.1,0,5.6,0.9,7.2,2.7c3.2,3.4,2.9,9.4,2.7,14.6
				c-0.1,1.5-0.1,2.8-0.1,4.1C639.3,295.6,623.1,303.4,612.2,303.4z M613.8,260.2l-0.1,40.2c9.6-0.7,22.7-8,22.7-26.5
				c0-1.4,0.1-2.8,0.2-4.3c0.2-4.7,0.5-9.9-1.8-12.4c-1.1-1.2-2.8-1.7-5.1-1.7c-2.5,0-4.9,0-6.8-0.1c-1.3,0-2.4,0-3.2,0
				C616.7,255.4,614.4,259.2,613.8,260.2z"/>
			<g>
				<path class="st2" d="M558,245.8v64.3h0.1c1.3,3.2,13.2,5.7,27.5,5.7s26.2-2.5,27.5-5.7h0.1v-64.3H558z"/>
				<path class="st8" d="M585.7,317.2c-9.3,0-25.4-1.3-28.6-6c-0.3-0.3-0.6-0.7-0.6-1.2v-64.3c0-0.8,0.7-1.5,1.5-1.5h55.4
					c0.8,0,1.5,0.7,1.5,1.5v64.3c0,0.5-0.2,0.9-0.6,1.2C611.1,316,595,317.2,585.7,317.2z M559.5,309.5
					C559.5,309.5,559.5,309.5,559.5,309.5c0.8,2,10.6,4.8,26.2,4.8c15.6,0,25.4-2.8,26.2-4.8c0,0,0,0,0,0v-62.2h-52.4V309.5z"/>
			</g>
		</g>
		<path class="st8" d="M592.5,287.4c-0.8,0-1.5-0.7-1.5-1.5v-40.2c0-0.8,0.7-1.5,1.5-1.5s1.5,0.7,1.5,1.5v40.2
			C593.9,286.7,593.3,287.4,592.5,287.4z"/>
		<g>
			
				<rect x="584.6" y="271" transform="matrix(0.7071 0.7071 -0.7071 0.7071 370.6915 -337.2429)" class="st9" width="15.7" height="15.7"/>
			<path class="st8" d="M592.5,291.5c-0.4,0-0.8-0.1-1-0.4l-11.1-11.1c-0.3-0.3-0.4-0.7-0.4-1s0.2-0.8,0.4-1l11.1-11.1
				c0.6-0.6,1.5-0.6,2.1,0l11.1,11.1c0.3,0.3,0.4,0.7,0.4,1s-0.2,0.8-0.4,1L593.5,291C593.2,291.3,592.8,291.5,592.5,291.5z
				 M583.4,278.9l9,9l9-9l-9-9L583.4,278.9z"/>
		</g>
	</g>
	<g>
		<defs>
			<circle id="SVGID_1_" cx="700" cy="254.2" r="128.6"/>
		</defs>
		<clipPath id="SVGID_2_">
			<use xlink:href="#SVGID_1_"  style="overflow:visible;"/>
		</clipPath>
		<g class="st12">
			<polygon class="st13" points="750.7,219.1 726.2,219.1 726.2,175.3 752.5,175.3 752.5,216.3 			"/>
			<path class="st11" d="M759.8,179.5V210c0,5.1-4.1,9.2-9.2,9.2h-6v-18.9h6.3l1-7.4h-7.3v-4.7c0-2.1,0.6-3.6,3.7-3.6l3.9,0V178
				c-0.7-0.1-3-0.3-5.7-0.3c-5.6,0-9.5,3.4-9.5,9.7v5.4h-6.4v7.4h6.4v18.9h-16.9c-5.1,0-9.2-4.1-9.2-9.2v-30.5
				c0-5.1,4.1-9.2,9.2-9.2h30.5C755.7,170.3,759.8,174.4,759.8,179.5z"/>
		</g>
		<g class="st12">
			<rect x="714.8" y="112.9" class="st13" width="39.5" height="42.7"/>
			<path class="st11" d="M743.5,119.1c-5.3-0.1-10.6-0.1-15.9,0c-4.6,0.1-7.1,2.6-7.2,7.2c-0.1,5.3-0.1,10.7,0,16
				c0.1,4.4,2.7,7,7.1,7.1c2.7,0.1,5.4,0,8,0c0,0,0,0,0,0c2.7,0,5.5,0.1,8.2,0c2.2-0.1,4.2-0.8,5.6-2.7c0.9-1.3,1.3-2.8,1.3-4.3
				c0-5.3,0.1-10.7,0-16C750.6,121.8,748,119.2,743.5,119.1z M735.4,143.9c-5.4-0.1-9.6-4.4-9.5-9.7c0.1-5.4,4.4-9.6,9.7-9.5
				c5.3,0.1,9.5,4.3,9.5,9.7C745,139.7,740.7,143.9,735.4,143.9z M745.5,126.6c-1.2,0-2.3-1-2.3-2.3c0-1.2,1-2.2,2.3-2.2
				c1.3,0,2.2,0.9,2.2,2.2C747.7,125.5,746.7,126.6,745.5,126.6z"/>
			<path class="st11" d="M750.7,109.8h-30.5c-5.1,0-9.2,4.1-9.2,9.2v30.5c0,5.1,4.1,9.2,9.2,9.2h30.5c5.1,0,9.2-4.1,9.2-9.2V119
				C759.8,113.9,755.7,109.8,750.7,109.8z M754,143.1c-0.1,5.4-4.3,9.6-9.7,9.7c-5.9,0.2-11.7,0.1-17.6,0c-4.8-0.1-8.5-3.4-9.5-8.1
				c-0.2-1-0.3-2-0.4-2.9c0-5,0-10,0-15c0.1-0.4,0.1-0.9,0.2-1.3c0.3-4.8,3.4-8.5,8-9.5c1-0.2,2-0.3,3-0.5c5,0,10,0,15,0
				c0.4,0.1,0.8,0.1,1.2,0.2c5.5,0.3,9.7,4.3,9.8,9.8C754.1,131.4,754.1,137.2,754,143.1z"/>
			<path class="st11" d="M735.5,128.1c-3.5,0-6.2,2.7-6.2,6.2c0,3.4,2.7,6.2,6.2,6.2c3.5,0,6.2-2.7,6.2-6.2
				C741.7,130.8,739,128.1,735.5,128.1z"/>
		</g>
		<g class="st12">
			<polygon class="st13" points="810.1,218.5 781.7,218.5 776,174.6 816.7,174.6 			"/>
			<path class="st11" d="M810.7,169.8c2.5,0,4.7,0.9,6.5,2.7c1.8,1.8,2.7,3.9,2.7,6.5v30.5c0,2.5-0.9,4.7-2.7,6.5
				c-1.8,1.8-3.9,2.7-6.5,2.7h-23.1c1.8-2.6,2.9-4.8,3.4-6.7c0.2-0.7,0.8-2.9,1.7-6.6c0.4,0.8,1.2,1.5,2.3,2.1
				c1.1,0.6,2.3,0.9,3.6,0.9c3.8,0,7-1.6,9.4-4.7c2.4-3.1,3.6-7.1,3.6-11.9c0-1.8-0.4-3.5-1.1-5.2c-0.7-1.7-1.8-3.1-3.1-4.4
				c-1.3-1.3-2.9-2.3-4.8-3.1c-1.9-0.8-4-1.2-6.3-1.2c-2.2,0-4.3,0.3-6.2,0.9c-1.9,0.6-3.5,1.4-4.9,2.4c-1.3,1-2.5,2.2-3.4,3.5
				c-1,1.3-1.7,2.7-2.1,4.1c-0.5,1.4-0.7,2.8-0.7,4.2c0,2.2,0.4,4.1,1.3,5.7c0.8,1.7,2.1,2.8,3.7,3.5c0.3,0.1,0.5,0.1,0.7,0
				c0.2-0.1,0.4-0.3,0.5-0.6c0.2-0.9,0.4-1.6,0.5-1.9c0.1-0.5,0-0.9-0.4-1.3c-1.1-1.3-1.6-2.9-1.6-4.8c0-3.2,1.1-5.9,3.3-8.2
				c2.2-2.3,5.1-3.4,8.6-3.4c3.2,0,5.6,0.9,7.4,2.6c1.8,1.7,2.7,3.9,2.7,6.7c0,3.6-0.7,6.6-2.1,9.1c-1.4,2.5-3.3,3.8-5.5,3.8
				c-1.3,0-2.3-0.5-3.1-1.4c-0.8-0.9-1-2-0.7-3.3c0.2-0.7,0.5-1.7,0.8-2.9c0.4-1.2,0.7-2.3,0.9-3.2c0.2-0.9,0.3-1.7,0.3-2.4
				c0-1-0.3-1.9-0.8-2.6c-0.6-0.7-1.4-1-2.4-1c-1.3,0-2.4,0.6-3.3,1.8c-0.9,1.2-1.4,2.7-1.4,4.4c0,1.5,0.3,2.8,0.8,3.8l-3.1,13.2
				c-0.5,2.1-0.6,4.8-0.2,8.1h-5.8c-2.5,0-4.7-0.9-6.5-2.7c-1.8-1.8-2.7-3.9-2.7-6.5v-30.5c0-2.5,0.9-4.7,2.7-6.5
				c1.8-1.8,3.9-2.7,6.5-2.7H810.7z"/>
		</g>
		<g class="st12">
			<path class="st11" d="M820.4,149.5c0,5.1-4.1,9.2-9.2,9.2h-30.5c-5.1,0-9.2-4.1-9.2-9.2V119c0-5.1,4.1-9.2,9.2-9.2h30.5
				c5.1,0,9.2,4.1,9.2,9.2V149.5z M808.4,126.2c1.4-0.8,2.4-2.2,3-3.7c-1.3,0.8-2.7,1.3-4.3,1.6c-1.2-1.3-3-2.1-4.9-2.1
				c-3.7,0-6.7,3-6.7,6.7c0,0.5,0,1,0.2,1.5c-5.6-0.3-10.5-2.9-13.8-7c-0.6,1-0.9,2.2-0.9,3.4c0,2.3,1.1,4.4,2.9,5.6
				c-1.1,0-2.2-0.4-3.2-0.8c0,0,0,0,0,0.1c0,3.2,2.4,5.9,5.5,6.5c-0.6,0.2-1,0.3-1.6,0.3c-0.4,0-0.8-0.1-1.2-0.1
				c0.9,2.6,3.3,4.6,6.2,4.6c-2.3,1.8-5.1,2.9-8.3,2.9c-0.5,0-1.1,0-1.6-0.1c3,1.9,6.5,3,10.2,3c12.3,0,19-10.2,19-19
				c0-0.3,0-0.6,0-0.9c1.3-0.9,2.4-2.1,3.3-3.5C811,125.7,809.8,126,808.4,126.2z"/>
		</g>
		<g class="st12">
			<rect x="654" y="116.1" class="st13" width="39.6" height="37.4"/>
			<path class="st11" d="M699.9,150.3c0,5.1-4.1,9.2-9.2,9.2h-30.5c-5.1,0-9.2-4.1-9.2-9.2v-30.5c0-5.1,4.1-9.2,9.2-9.2h30.5
				c5.1,0,9.2,4.1,9.2,9.2V150.3z M687.9,127c1.4-0.8,2.4-2.2,3-3.7c-1.3,0.8-2.7,1.3-4.3,1.6c-1.2-1.3-3-2.1-4.9-2.1
				c-3.7,0-6.7,3-6.7,6.7c0,0.5,0,1,0.2,1.5c-5.6-0.3-10.5-2.9-13.8-7c-0.6,1-0.9,2.2-0.9,3.4c0,2.3,1.1,4.4,2.9,5.6
				c-1.1,0-2.2-0.4-3.2-0.8c0,0,0,0,0,0.1c0,3.2,2.4,5.9,5.5,6.5c-0.6,0.2-1,0.3-1.6,0.3c-0.4,0-0.8-0.1-1.2-0.1
				c0.9,2.6,3.3,4.6,6.2,4.6c-2.3,1.8-5.1,2.9-8.3,2.9c-0.5,0-1.1,0-1.6-0.1c3,1.9,6.5,3,10.2,3c12.3,0,19-10.2,19-19
				c0-0.3,0-0.6,0-0.9c1.3-0.9,2.4-2.1,3.3-3.5C690.5,126.5,689.3,126.9,687.9,127z"/>
		</g>
	</g>
	<g>
		<circle class="st14" cx="1058.9" cy="254.2" r="128.6"/>
		<path class="st15" d="M916.1,300.6c18.6,48.1,65.3,82.2,120,82.2c54.7,0,101.4-34.1,120-82.2H916.1z"/>
		<path class="st8" d="M1215.6,302.7H902.2c-0.8,0-1.5-0.7-1.5-1.5s0.7-1.5,1.5-1.5h313.4c0.8,0,1.5,0.7,1.5,1.5
			S1216.4,302.7,1215.6,302.7z"/>
		<path class="st16" d="M986.1,313.3"/>
		<g>
			<path class="st2" d="M1014.8,313.3c0,0-36.2,19-36.2-19.5c0-12.6,17.9-64.7,21.2-69.6c4.5-6.8,34.9-20.7,59.6-20.7
				c25.1,0,58,17.3,61.7,22.3c3.3,4.5,18.3,70,18.3,75.3s-2.8,13-2.8,13l-27.3,41.9l-105,0.2l4.9-40.4"/>
			<path class="st8" d="M1004.2,357.7c-0.4,0-0.8-0.2-1.1-0.5c-0.3-0.3-0.4-0.7-0.4-1.2l4.6-38.2c-6,1.8-14.3,3-20.8-0.9
				c-6.3-3.8-9.5-11.6-9.5-23.1c0-12.5,17.9-65.1,21.4-70.4c4.8-7.2,35.3-21.3,60.9-21.3c25.4,0,58.8,17.3,62.9,22.9
				c3.4,4.6,18.6,70.4,18.6,76.2c0,5.5-2.8,13.2-2.9,13.5c0,0.1-0.1,0.2-0.1,0.3l-27.3,41.9c-0.3,0.4-0.7,0.7-1.2,0.7L1004.2,357.7
				L1004.2,357.7z M1010.4,316.8l-4.6,37.9l102.5-0.2l26.7-41.1c0.4-1.1,2.7-7.8,2.7-12.4c0-2.4-3.5-19.2-7.9-37.6
				c-5.6-23.4-9.1-35.4-10.1-36.8c-3.2-4.4-35.3-21.7-60.5-21.7c-23.7,0-54.1,13.6-58.4,20c-2.7,4.1-20.9,56.2-20.9,68.8
				c0,10.4,2.7,17.3,8,20.6c9.9,6,25.8-2.3,26-2.3l1.4,2.6C1015.2,314.8,1013.3,315.7,1010.4,316.8z"/>
		</g>
		<g>
			<circle class="st2" cx="1121.6" cy="318.8" r="15.3"/>
			<path class="st8" d="M1121.6,335.6c-9.2,0-16.7-7.5-16.7-16.7s7.5-16.7,16.7-16.7s16.7,7.5,16.7,16.7S1130.8,335.6,1121.6,335.6z
				 M1121.6,305c-7.6,0-13.8,6.2-13.8,13.8c0,7.6,6.2,13.8,13.8,13.8s13.8-6.2,13.8-13.8C1135.4,311.2,1129.2,305,1121.6,305z"/>
		</g>
		<g>
			<path class="st2" d="M1072.4,232.7c0,0,9.5-12.2,9.5-21.1c0-10.3-23.3-17.1-23.3-17.1s-23.1,6.2-23.1,17.1c0,8.5,10,21.1,10,21.1
				s13.4-2,13.4-12.8C1058.9,230.4,1072.4,232.7,1072.4,232.7z"/>
			<path class="st8" d="M1073,234.3l-0.9-0.1c-3.8-0.7-10.3-3.2-13.2-8.3c-2.9,5.3-9.3,7.7-13.2,8.3l-0.8,0.1l-0.5-0.7
				c-0.4-0.5-10.4-13.1-10.4-22c0-11.8,23.2-18.3,24.2-18.5l0.4-0.1l0.4,0.1c0.2,0.1,6,1.8,11.9,4.8c8.3,4.2,12.5,8.9,12.5,13.7
				c0,9.3-9.4,21.5-9.8,22L1073,234.3z M1058.5,196.1c-6.4,1.8-21.6,7.8-21.6,15.6c0,6.8,7.1,16.7,9.2,19.5c1.1-0.3,3.3-0.9,5.4-2.1
				c3.9-2.2,5.9-5.2,5.9-9.1h3c0,3.7,2,6.8,5.9,9c2.1,1.2,4.3,1.8,5.5,2.1c2-2.7,8.6-12.4,8.6-19.4
				C1080.4,204.3,1065,198,1058.5,196.1z"/>
		</g>
		<g>
			<path class="st17" d="M1058.5,219.2c0,0,15.1-5.6,14.8-14.5c-0.5-17.2-10.4-83.9-15.2-83.9c-4.9,0-14.2,67.4-13.8,84.7
				C1044.6,214,1058.5,219.2,1058.5,219.2z"/>
			<path class="st8" d="M1058.5,220.8l-0.5-0.2c-0.6-0.2-14.9-5.7-15.1-15c-0.4-14.9,7.8-79.5,13.6-85.4c0.6-0.6,1.3-0.8,1.7-0.8
				c1.6,0,4.6,0,10.7,36.7c3.2,18.9,5.7,39.8,6,48.6c0.3,9.8-15.1,15.7-15.8,15.9L1058.5,220.8z M1058.1,122.8
				c-4.1,7.1-12.7,64.1-12.3,82.7c0.2,6.5,10.3,11.1,12.7,12.1c4.2-1.7,13.5-6.7,13.3-12.9C1071.3,187.8,1062.5,130,1058.1,122.8z"
				/>
		</g>
		<g>
			<path class="st2" d="M1091.5,150.5c0,11-64.6,15.1-64.6,1.6c0-13.8,7-33.2,30.9-33.2C1081.6,118.9,1091.5,137.1,1091.5,150.5z"/>
			<path class="st8" d="M1053.7,162.1c-8.5,0-28.3-1-28.3-10c0-8.4,2.5-16.7,6.8-22.7c5.7-7.9,14.5-12,25.6-12
				c14.1,0,22.4,6.1,27,11.3c5.2,5.9,8.3,14.1,8.3,21.8c0,3.7-4.5,6.6-13.4,8.8C1072.3,161.1,1062.8,162.1,1053.7,162.1z
				 M1057.7,120.4c-21.7,0-29.4,17.1-29.4,31.7c0,4.1,10.4,7,25.4,7c20.1,0,36.3-4.7,36.3-8.6C1090,138.4,1081.4,120.4,1057.7,120.4
				z"/>
		</g>
		<g>
			<path class="st2" d="M1083.2,168.2c-1.1,24.1-16.3,33.5-24.7,33.5c-8.4,0-23.2-7.8-25.2-33c-2.5-31.1,5.1-46.4,25.2-46.4
				S1084.6,136.2,1083.2,168.2z"/>
			<path class="st8" d="M1058.5,203.2c-8.3,0-24.5-7.2-26.7-34.3c-1.6-19.9,0.9-33.3,7.8-40.7c4.4-4.8,10.8-7.3,18.9-7.3
				c8,0,13.9,2.1,18.1,6.5c6.5,6.8,9,19.5,8.1,40.9C1083.5,194.7,1066.6,203.2,1058.5,203.2z M1058.5,123.9
				c-7.3,0-12.8,2.1-16.7,6.3c-6.3,6.8-8.6,19.4-7,38.5c2,25,16.4,31.6,23.8,31.6c6.8,0,22.2-8.1,23.2-32.1
				c0.9-20.6-1.3-32.5-7.3-38.7C1070.9,125.7,1065.7,123.9,1058.5,123.9z"/>
		</g>
		<circle class="st8" cx="1044.3" cy="161.8" r="3.6"/>
		<circle class="st8" cx="1072.6" cy="161.8" r="3.6"/>
		<path class="st8" d="M1056.7,187.9c-2.1,0-4.3-0.2-6.5-0.7c-0.8-0.2-1.3-1-1.1-1.8c0.2-0.8,1-1.3,1.8-1.1
			c6.9,1.7,14.7-0.5,14.8-0.5c0.8-0.2,1.6,0.2,1.8,1c0.2,0.8-0.2,1.6-1,1.8C1066.2,186.7,1061.9,187.9,1056.7,187.9z"/>
		<path class="st8" d="M1037.1,161.8c-0.5,0-1-0.2-1.2-0.7c-0.4-0.7-0.3-1.6,0.4-2c0.4-0.2,9.2-6,14.8-0.1c0.6,0.6,0.5,1.5-0.1,2.1
			c-0.6,0.6-1.5,0.5-2.1-0.1c-3.9-4.1-11,0.5-11.1,0.6C1037.6,161.7,1037.3,161.8,1037.1,161.8z"/>
		<path class="st8" d="M1067,161.8c-0.4,0-0.9-0.2-1.2-0.5c-0.5-0.6-0.4-1.6,0.2-2.1c0.1-0.1,0.1-0.1,0.2-0.2
			c1.4-1.3,5-4.7,14.1-0.6c0.7,0.3,1.1,1.2,0.7,2c-0.3,0.7-1.2,1.1-2,0.7c-7.3-3.3-9.8-1-10.8,0c-0.2,0.1-0.3,0.3-0.4,0.4
			C1067.7,161.7,1067.3,161.8,1067,161.8z"/>
		<path class="st8" d="M1058.1,178c-2.1,0-3.8-1.4-4-1.6c-0.6-0.5-0.7-1.5-0.2-2.1c0.5-0.6,1.5-0.7,2.1-0.2c0.3,0.2,1.2,0.9,2.1,0.9
			c1.1,0,2-0.7,2-0.7c0.6-0.5,1.6-0.4,2.1,0.2c0.5,0.6,0.4,1.6-0.2,2.1C1061.8,176.8,1060.2,178,1058.1,178z"/>
		<g>
			<g>
				<rect x="1097.3" y="344.9" class="st14" width="57.5" height="11.7"/>
				<path class="st8" d="M1154.8,358h-57.5c-0.8,0-1.5-0.7-1.5-1.5v-11.7c0-0.8,0.7-1.5,1.5-1.5h57.5c0.8,0,1.5,0.7,1.5,1.5v11.7
					C1156.3,357.4,1155.6,358,1154.8,358z M1098.7,355.1h54.6v-8.7h-54.6V355.1z"/>
			</g>
			<g>
				<rect x="1118.7" y="344.9" class="st2" width="14.7" height="11.7"/>
				<path class="st8" d="M1134.8,358h-17.6v-14.6h17.6V358z M1120.2,355.1h11.7v-8.7h-11.7V355.1z"/>
			</g>
		</g>
		<g>
			<g>
				<rect x="1103.8" y="333.5" class="st14" width="57.5" height="11.7"/>
				<path class="st8" d="M1161.3,346.6h-57.5c-0.8,0-1.5-0.7-1.5-1.5v-11.7c0-0.8,0.7-1.5,1.5-1.5h57.5c0.8,0,1.5,0.7,1.5,1.5v11.7
					C1162.8,346,1162.1,346.6,1161.3,346.6z M1105.3,343.7h54.6V335h-54.6V343.7z"/>
			</g>
			<g>
				<rect x="1125.2" y="333.5" class="st2" width="14.7" height="11.7"/>
				<path class="st8" d="M1141.3,346.6h-17.6V332h17.6V346.6z M1126.7,343.7h11.7V335h-11.7V343.7z"/>
			</g>
		</g>
		<g>
			<g>
				<rect x="1039.7" y="344.9" class="st14" width="57.5" height="11.7"/>
				<path class="st8" d="M1097.3,358h-57.5c-0.8,0-1.5-0.7-1.5-1.5v-11.7c0-0.8,0.7-1.5,1.5-1.5h57.5c0.8,0,1.5,0.7,1.5,1.5v11.7
					C1098.7,357.4,1098.1,358,1097.3,358z M1041.2,355.1h54.6v-8.7h-54.6V355.1z"/>
			</g>
			<g>
				<rect x="1061.2" y="344.9" class="st2" width="14.7" height="11.7"/>
				<path class="st8" d="M1077.3,358h-17.6v-14.6h17.6V358z M1062.7,355.1h11.7v-8.7h-11.7V355.1z"/>
			</g>
		</g>
		<g>
			<g>
				<rect x="960.2" y="344.9" class="st14" width="57.5" height="11.7"/>
				<path class="st8" d="M1017.8,358h-57.5c-0.8,0-1.5-0.7-1.5-1.5v-11.7c0-0.8,0.7-1.5,1.5-1.5h57.5c0.8,0,1.5,0.7,1.5,1.5v11.7
					C1019.2,357.4,1018.6,358,1017.8,358z M961.7,355.1h54.6v-8.7h-54.6V355.1z"/>
			</g>
			<g>
				<rect x="981.7" y="344.9" class="st2" width="14.7" height="11.7"/>
				<path class="st8" d="M997.8,358h-17.6v-14.6h17.6V358z M983.2,355.1h11.7v-8.7h-11.7V355.1z"/>
			</g>
		</g>
		<g>
			<g>
				<rect x="1039.7" y="333.5" class="st14" width="57.5" height="11.7"/>
				<path class="st8" d="M1097.3,346.6h-57.5c-0.8,0-1.5-0.7-1.5-1.5v-11.7c0-0.8,0.7-1.5,1.5-1.5h57.5c0.8,0,1.5,0.7,1.5,1.5v11.7
					C1098.7,346,1098.1,346.6,1097.3,346.6z M1041.2,343.7h54.6V335h-54.6V343.7z"/>
			</g>
			<g>
				<rect x="1061.2" y="333.5" class="st2" width="14.7" height="11.7"/>
				<path class="st8" d="M1077.3,346.6h-17.6V332h17.6V346.6z M1062.7,343.7h11.7V335h-11.7V343.7z"/>
			</g>
		</g>
		<g>
			<g>
				<rect x="1097.3" y="322.1" class="st14" width="57.5" height="11.7"/>
				<path class="st8" d="M1154.8,335.2h-57.5c-0.8,0-1.5-0.7-1.5-1.5v-11.7c0-0.8,0.7-1.5,1.5-1.5h57.5c0.8,0,1.5,0.7,1.5,1.5v11.7
					C1156.3,334.6,1155.6,335.2,1154.8,335.2z M1098.7,332.3h54.6v-8.7h-54.6V332.3z"/>
			</g>
			<g>
				<rect x="1118.7" y="322.1" class="st2" width="14.7" height="11.7"/>
				<path class="st8" d="M1134.8,335.2h-17.6v-14.6h17.6V335.2z M1120.2,332.3h11.7v-8.7h-11.7V332.3z"/>
			</g>
		</g>
		<path class="st6" d="M914.5,222.7"/>
		<path class="st6" d="M966.2,222.7"/>
		<path class="st6" d="M939.5,201.7"/>
		<path class="st6" d="M939.5,277.9"/>
		<path class="st8" d="M1089.3,152.4c-30.3,0-45.5-13.6-46.2-14.2c-0.6-0.6-0.6-1.5-0.1-2.1c0.6-0.6,1.5-0.6,2.1-0.1
			c0.2,0.2,15.1,13.4,44.2,13.4c0.8,0,1.5,0.7,1.5,1.5C1090.7,151.7,1090.1,152.4,1089.3,152.4z"/>
		<path class="st8" d="M1027.4,155.7c-0.8,0-1.5-0.7-1.5-1.5c0-0.8,0.7-1.5,1.5-1.5c11.7,0,20-11,20.1-11.1c0.5-0.7,1.4-0.8,2.1-0.3
			c0.7,0.5,0.8,1.4,0.3,2.1C1049.5,143.8,1040.6,155.7,1027.4,155.7z"/>
		<path class="st8" d="M1107.6,314.8c-0.8,0-1.4-0.6-1.5-1.4l-5.3-68c-0.1-0.8,0.5-1.5,1.4-1.6c0.8-0.1,1.5,0.5,1.6,1.4l5.3,68
			c0.1,0.8-0.5,1.5-1.4,1.6C1107.6,314.8,1107.6,314.8,1107.6,314.8z"/>
		<path class="st8" d="M1059,254.6L1059,254.6c-0.8,0-1.5-0.7-1.5-1.5l0-31.5c0-0.8,0.7-1.5,1.5-1.5l0,0c0.8,0,1.5,0.7,1.5,1.5
			l0,31.5C1060.5,253.9,1059.8,254.6,1059,254.6z"/>
		<path class="st8" d="M1012.9,283.1c0,0-0.1,0-0.1,0c-0.8-0.1-1.4-0.8-1.4-1.6l2.7-34.2c0.1-0.8,0.8-1.4,1.6-1.4
			c0.8,0.1,1.4,0.8,1.4,1.6l-2.7,34.2C1014.3,282.5,1013.6,283.1,1012.9,283.1z"/>
		<path class="st16" d="M1117.3,117.1"/>
		<g>
			<path class="st17" d="M1102.1,322.3c0-7.1,12.8-10.3,16.8-10.3c7.1,0,16.8,3.4,16.8,9.2C1135.8,322.8,1102.1,322.3,1102.1,322.3z
				"/>
			<path class="st8" d="M1114,323.8c-6.4,0-11.8-0.1-11.9-0.1l-1.5,0v-1.5c0-3.7,2.7-6.8,7.7-9.1c3.8-1.7,8.2-2.6,10.6-2.6
				c7.7,0,18.3,3.7,18.3,10.7c0,1.7-1.5,2.1-8.7,2.4C1125,323.8,1120.1,323.8,1114,323.8z M1103.9,320.8c2.1,0,5.9,0.1,10.1,0.1
				c13.7,0,18.5-0.4,20.2-0.6c-1-3.3-7.3-6.8-15.2-6.8C1115.5,313.4,1105.6,316,1103.9,320.8z"/>
		</g>
		<g>
			<path class="st17" d="M1117.6,334.8c-2.2,0-5.7-4.1-5.7-14.1c0-7.1,2.4-9,10.3-9c7.1,0,15.5,6,15.5,9.8
				C1137.7,329.3,1123.3,334.8,1117.6,334.8z"/>
			<path class="st8" d="M1117.6,336.2c-2.9,0-7.2-4.2-7.2-15.6c0-7.8,3-10.4,11.8-10.4c7.4,0,16.9,6.3,16.9,11.2
				c0,4-3.1,7.9-8.7,10.9C1126.3,334.6,1121,336.2,1117.6,336.2z M1122.2,313.2c-7.2,0-8.8,1.4-8.8,7.5c0,9.6,3.3,12.6,4.2,12.6
				c5.2,0,18.6-5.2,18.6-11.8C1136.2,318.9,1129,313.2,1122.2,313.2z"/>
		</g>
		<path class="st8" d="M1175.9,358H937.2c-0.8,0-1.5-0.7-1.5-1.5s0.7-1.5,1.5-1.5h238.8c0.8,0,1.5,0.7,1.5,1.5
			S1176.8,358,1175.9,358z"/>
		<g>
			<rect x="1041.5" y="263.5" class="st2" width="51.6" height="28.3"/>
			<g>
				<path class="st18" d="M1067.6,269.6c-4.9,0-7.4,4.6-7.4,8.1c0,3.5,2.6,8.1,7.4,8.1c4.9,0,7.4-4.6,7.4-8.1
					C1075.1,274.1,1072.5,269.6,1067.6,269.6z"/>
				<path class="st18" d="M1093.2,262.4H1042c-1,0-1.8,0.7-1.8,1.5v27.5c0,0.8,0.8,1.5,1.8,1.5h51.2c1,0,1.8-0.7,1.8-1.5v-27.5
					C1095.1,263.1,1094.2,262.4,1093.2,262.4z M1091.4,283.8c-4,0-7.3,2.7-7.3,6.1h-32.9c0-3.4-3.3-6.1-7.3-6.1v-12.2
					c4,0,7.3-2.7,7.3-6.1h32.9c0,3.4,3.3,6.1,7.3,6.1V283.8z"/>
			</g>
		</g>
		<g>
			<ellipse class="st2" cx="1014.3" cy="297.7" rx="9" ry="15.3"/>
			<path class="st8" d="M1014.3,314.4c-5.9,0-10.5-7.4-10.5-16.7c0-9.4,4.6-16.7,10.5-16.7c5.9,0,10.5,7.4,10.5,16.7
				C1024.8,307,1020.2,314.4,1014.3,314.4z M1014.3,283.9c-4.1,0-7.5,6.3-7.5,13.8c0,7.5,3.5,13.8,7.5,13.8c4.1,0,7.5-6.3,7.5-13.8
				C1021.8,290.2,1018.4,283.9,1014.3,283.9z"/>
		</g>
		<g>
			<path class="st17" d="M1014.9,299c-1.5-2.1-2.2-4.2-2.1-6.3c0.2-4.8,4.2-9.7,10.1-15.2c8.3-7.8,25-4.9,28.4-0.3
				c2.9,3.9-6.6,20.6-15.2,20.6c-11.8,0-13.6,5.6-16.8,4.9c-0.8-0.2-1.7-0.7-2.8-1.9C1015.8,300.2,1015.3,299.6,1014.9,299"/>
			<path class="st8" d="M1019.8,304.3c-0.3,0-0.6,0-0.9-0.1c-1.1-0.3-2.2-1-3.5-2.3c-0.7-0.7-1.3-1.3-1.8-2
				c-1.7-2.3-2.5-4.7-2.4-7.2c0.3-5.9,5.5-11.5,10.6-16.2c3.6-3.4,9.1-5.2,15.3-5.2c6.7,0,13,2.1,15.3,5.2c2,2.8-0.2,8-1.3,10.2
				c-3.1,6.2-9.2,12.8-15.1,12.8c-7,0-10.1,2-12.4,3.4C1022.3,303.6,1021.2,304.3,1019.8,304.3z M1037.2,274.1
				c-5.5,0-10.3,1.6-13.3,4.4c-6.5,6-9.4,10.4-9.6,14.2c-0.1,1.8,0.5,3.6,1.8,5.3c0.4,0.6,0.9,1.1,1.5,1.7c0.9,0.9,1.6,1.4,2.1,1.5
				c0.1,0,0.2,0,0.2,0c0.5,0,1.3-0.5,2.3-1.1c2.5-1.5,6.2-3.8,14-3.8c4.4,0,9.7-5.8,12.4-11.2c2-4,2-6.4,1.6-7.1
				C1048.6,276.2,1043.4,274.1,1037.2,274.1z"/>
		</g>
	</g>
</g>
</svg>
