<?xml version="1.0" encoding="utf-8"?>
<!-- Generator: Adobe Illustrator 16.0.0, SVG Export Plug-In . SVG Version: 6.00 Build 0)  -->
<!DOCTYPE svg PUBLIC "-//W3C//DTD SVG 1.1//EN" "http://www.w3.org/Graphics/SVG/1.1/DTD/svg11.dtd">
<svg version="1.1" id="Layer_1" xmlns="http://www.w3.org/2000/svg" xmlns:xlink="http://www.w3.org/1999/xlink" x="0px" y="0px"
	 width="1140px" height="500px" viewBox="0 0 1140 500" enable-background="new 0 0 1140 500" xml:space="preserve">
<rect x="1.5" fill="#FFFFFF" width="1137" height="500"/>
<g>
	<path fill="#373737" d="M738.518,270.086c-0.042,0.05-0.087,0.102-0.124,0.151c2.207-6.17,2.472-13.579,2.446-22.151
		c-0.046-15.672-7.24-30.206-23.843-30.143c-9.842,0.037-14.468,4.117-18.656,9.602c0,0-0.014-4.938-0.021-6.542
		c-0.021-5.322-15.225-1.156-15.222,0.243c0.012,2.725-0.117,35.076-0.044,54.384c0.075,19.309,0.644,51.943,0.649,53.699
		c0.009,1.845,0.61,2.722,2.564,2.715c4.778-0.019,12.293,2.179,12.248-9.592l0.044-36.575c3.498,2.473,7.981,4.091,15.922,4.061
		C727.867,289.887,735.864,278.076,738.518,270.086z M698.652,263.188l-0.038-10.105c-0.043-11.377,5.905-27.142,13.855-27.172
		c7.947-0.031,12.65,12.098,12.706,26.017c0.077,20.313-4.336,31.829-11.834,31.857
		C705.843,283.813,698.697,274.891,698.652,263.188z"/>
	<path fill="#373737" d="M760.307,279.344c2.413,7.756,6.285,10.504,15.909,9.816c22.997-1.644,32.548-50.912,43.931-55.855
		c6.65-2.889,3.071-11.741-3.631-8.105c-7.002,3.799-25.447,51.94-37.599,52.809c-1.9,0.136-3.552-4.451-4.278-9.385
		c-2.212-15.024,2.105-44.194,1.584-47.875c-0.744-5.251-15.151,0.56-15.845,3.479C760.378,224.228,756.175,257.709,760.307,279.344
		z"/>
	<path fill="#373737" d="M594.264,223.499c0.108-3.999-21.5-0.25-21.5-0.25c-6.014-0.161-32.301,42.3-32.367,44.716
		c-0.112,4.233,9.269,8.719,9.329,6.503C549.833,270.47,583.835,223.275,594.264,223.499z"/>
	<path fill="#373737" d="M603.966,268.742c0,0-10.467,9.421-13.466,9.328c-2.779-0.087-9.986-31.788-36.334-31.788
		c-3.813,0-2.722,12.64,1.611,12.64c16.298,0,17.221,32.357,24.299,32.577c9.496,0.293,26.992-20.659,26.992-20.659L603.966,268.742
		z"/>
	<path fill="#373737" d="M538.264,218.749c0,29.654-21.614,66-55.417,66c-10.724,0-11.586,7.449,0,7.449
		c33.415,0,58.667-29.033,58.667-59.2C541.514,231.166,538.264,215.602,538.264,218.749z"/>
	<path fill="#373737" d="M761.576,225.061c0,10.125-15.396,62.462-48.205,62.462c-9.536,0-9.832,2.351,0.58,2.351
		c29.875,0,51.916-40.908,51.916-58.042C765.867,230.216,761.558,223.718,761.576,225.061z"/>
	<path fill="#373737" d="M760.651,208.98c0.636,3.949,15.829-1.527,16.527-3.308c0.552-1.408,1.657-8.204,1.041-12.034
		c-0.649-4.028-16.061,1.919-16.733,3.787C761.021,198.714,760.014,205.032,760.651,208.98z"/>
	<path fill="#373737" d="M482.565,167.806c20.084,0.057,31.793,14.34,31.752,28.527c-0.006,2.104-16.112,2.194-16.106,0.142
		c0.032-11.239-6.876-18.145-16.676-18.172c-9.799-0.028-16.381,6.704-16.413,18.264c-0.066,23.19,55.343,23.805,55.24,59.881
		c-0.067,23.591-15.192,36.247-38.692,36.181c-23.5-0.067-39.077-14.811-39.01-38.477c0.006-2.417,17.543-2.701,17.534,0.716
		c-0.065,23,21.739,25.76,21.739,25.76s22.187,1.031,22.252-22.08c0.076-26.925-54.336-27.459-54.24-61.274
		C449.988,181.909,462.481,167.749,482.565,167.806z"/>
	<path fill="#373737" d="M820.687,214.908c29.776,0,7.148,6.091,7.148,11.924c0,4.875,22.097,28.583,22.097,39.93
		c0,16.237-12.086,26.771-25.585,26.962c-21.53,0.305-25.124-17.225-25.167-20.225c-0.051-3.499,13.667-4.173,13.667-0.167
		c0,7.002,7.707,11.569,11.611,11.515c3.903-0.056,10.119-3.116,9.971-13.586C834.187,253.983,790.835,214.908,820.687,214.908z"/>
	<g>
		<g>
			<path fill="#00A082" d="M388.08,202.948c-24.352-24.354-63.84-24.354-88.191,0c-24.354,24.354-24.354,63.843,0,88.195
				c24.352,24.354,63.84,24.354,88.191,0C412.433,266.793,412.436,227.301,388.08,202.948z M326.977,275.392
				c-6.26,0.002-11.338-5.076-11.338-11.34c0-6.26,5.078-11.338,11.338-11.338c6.264-0.002,11.342,5.078,11.34,11.338
				C338.316,270.315,333.24,275.392,326.977,275.392z M326.979,241.375c-6.262,0-11.34-5.077-11.34-11.34
				c0-6.261,5.078-11.338,11.338-11.338c6.264,0,11.34,5.077,11.34,11.34C338.316,236.298,333.24,241.375,326.979,241.375z
				 M360.992,218.699c6.264,0,11.34,5.077,11.338,11.339c0,6.262-5.074,11.339-11.338,11.339c-6.262,0-11.34-5.077-11.338-11.339
				C349.654,223.776,354.73,218.699,360.992,218.699z M360.994,275.392c-6.262,0.002-11.34-5.075-11.34-11.339
				s5.078-11.341,11.338-11.339c6.264-0.002,11.342,5.077,11.34,11.339C372.334,270.316,367.256,275.392,360.994,275.392z"/>
		</g>
	</g>
	<path fill="#373737" d="M553.885,201.058c0.199-5.318-15.379-0.811-15.432,0.586c-0.138,3.722,0.496,82.187,0.468,82.944
		c-0.069,1.843,2.023,3.42,3.76,4.077c6.167,2.333,11.167,2.5,11.167,1C553.348,203.328,553.788,203.66,553.885,201.058z"/>
	<path fill="#373737" d="M601.488,261.565c1.466,20.651,13.016,29.556,26.805,28.579c9.042-0.642,14.706-5.887,19.331-14.333
		c1.867,7.904,5.421,14.578,15.045,13.897c9.625-0.684,24.103-33.442,24.103-33.442l-0.273-9.337c0,0-13.948,31.278-22.354,31.874
		c-1.901,0.135-2.52-6.741-2.87-11.717c-1.886-26.579,1.375-41.467,1.113-45.177c-0.376-5.29-14.858-1.877-15.138,0.323
		l-1.042,4.042c-3.347-3.844-8.206-8.545-16.66-7.945C612.305,219.552,599.779,237.428,601.488,261.565z M617.583,254.122
		c-1.149-16.198,5.569-29.789,13.568-30.356c8-0.567,14.023,10.433,14.725,20.293c1.411,19.931-6.786,35.175-13.726,35.668
		C625.213,280.22,618.702,269.93,617.583,254.122z"/>
</g>
</svg>
