<?xml version="1.0" encoding="utf-8"?>
<!-- Generator: Adobe Illustrator 16.0.0, SVG Export Plug-In . SVG Version: 6.00 Build 0)  -->
<!DOCTYPE svg PUBLIC "-//W3C//DTD SVG 1.1//EN" "http://www.w3.org/Graphics/SVG/1.1/DTD/svg11.dtd">
<svg version="1.1" id="Layer_1" xmlns="http://www.w3.org/2000/svg" xmlns:xlink="http://www.w3.org/1999/xlink" x="0px" y="0px"
	 width="1140px" height="500px" viewBox="0 0 1140 500" enable-background="new 0 0 1140 500" xml:space="preserve">
<g>
	<g>
		<path fill="#C84141" d="M499.972,214.455c19.01,0,26.041,7.812,26.041,24.218v44.529c0,0-1.823,1.043-6.381,1.043
			c-4.035,0-6.64-1.043-6.64-1.043l-2.474-7.029c-2.995,6.119-9.635,9.373-19.01,9.373c-12.37,0-20.182-7.291-20.182-22.523
			c0-14.714,9.244-20.704,25.39-20.704c4.558,0,9.114,0.261,12.89,0.651v-2.864c0-6.511-2.344-11.849-11.718-11.849
			c-8.593,0-16.666,3.125-16.666,3.125s-2.084-1.303-3.646-4.817c-1.562-3.516-1.041-6.901-1.041-6.901
			S486.171,214.455,499.972,214.455z M498.8,253.256c-6.641,0-10.547,2.734-10.547,9.766c0,7.42,3.516,10.025,9.375,10.025
			c9.114,0,11.979-8.465,11.979-15.365v-3.906C506.353,253.516,502.575,253.256,498.8,253.256z"/>
		<path fill="#C84141" d="M565.206,214.455c13.932,0,19.139,3.776,19.139,3.776c0,4.166-1.301,8.854-4.166,11.588
			c0,0-6.119-2.083-13.281-2.083c-7.551,0-11.197,2.604-11.197,7.291c0,5.599,8.334,6.51,16.537,9.375
			c7.812,2.733,15.494,7.292,15.494,19.53c0,13.803-8.463,21.613-25.521,21.613c-14.192,0-22.524-4.947-22.524-4.947
			c0-4.816,1.432-9.244,4.426-12.109c0,0,8.464,3.125,17.317,3.125c7.03,0,10.155-2.473,10.155-7.291
			c0-5.598-6.379-7.031-13.41-9.113c-8.594-2.605-18.098-6.25-18.098-19.662C540.077,222.917,548.149,214.455,565.206,214.455z"/>
		<path fill="#C84141" d="M637.341,216.798c0,0,3.385-1.042,8.203-1.042c4.426,0,8.072,1.042,8.072,1.042l-19.01,30.598
			l22.004,35.805c0,0-3.775,1.172-9.113,1.172c-5.469,0-8.855-1.172-8.855-1.172l-17.707-28.645h-3.906v28.645
			c0,0-3.254,1.043-8.072,1.043c-5.078,0-8.332-1.043-8.332-1.043v-95.829c0,0,3.385-0.781,8.332-0.781
			c4.297,0,8.072,0.781,8.072,0.781v55.076h4.168L637.341,216.798z"/>
		<path fill="#C84141" d="M722.104,283.201c0,0-2.865,1.043-8.203,1.043c-5.729,0-8.203-1.043-8.203-1.043V237.11
			c0-5.599-2.994-9.374-10.416-9.374c-4.297,0-8.332,1.822-11.457,4.817v50.648c0,0-2.865,1.043-8.203,1.043
			c-5.729,0-8.203-1.043-8.203-1.043v-95.568c0,0,2.475-1.042,8.203-1.042c5.338,0,8.203,1.042,8.203,1.042v33.071
			c4.557-4.167,10.676-6.25,17.838-6.25c13.41,0,20.441,8.072,20.441,19.791V283.201z"/>
		<path fill="#C84141" d="M752.835,283.201c0,0-2.865,1.043-8.203,1.043c-5.729,0-8.203-1.043-8.203-1.043v-95.568
			c0,0,2.475-1.042,8.203-1.042c5.338,0,8.203,1.042,8.203,1.042V283.201z"/>
		<path fill="#C84141" d="M803.874,214.455c14.582,0,24.088,8.984,24.088,35.546c0,26.562-9.506,35.544-24.088,35.544
			c-8.334,0-13.932-2.344-17.578-6.77v33.592c0,0-2.863,1.041-8.332,1.041s-8.072-1.041-8.072-1.041v-95.569
			c0,0,2.604-1.042,8.072-1.042s8.332,1.042,8.332,1.042v4.427C789.942,216.798,795.54,214.455,803.874,214.455z M798.015,227.736
			c-7.291,0-11.719,5.858-11.719,14.062v16.406c0,8.203,4.428,14.062,11.719,14.062c8.203,0,13.02-3.906,13.02-22.265
			C811.034,231.641,806.218,227.736,798.015,227.736z"/>
	</g>
	<path fill="none" stroke="#C84141" stroke-width="8.5039" stroke-miterlimit="10" d="M411.249,201.205L411.249,201.205
		c0-0.001,0-14.174-14.172-14.174c-14.174,0-56.693,0-70.867,0c-14.172,0-14.172,14.173-14.172,14.173s0,28.346,0,42.52
		s14.172,14.174,14.172,14.174l0,0"/>
	<g>
		<path fill="#C84141" d="M356.319,253.646l8.16,8.16v-8.16h32.598c9.312,0,9.899-8.289,9.922-9.95l-0.001-28.317
			c-18.313,0-42.436,0-52.44,0c-14.174,0-14.174,14.173-14.174,14.173s0,11.875,0,24.095H356.319z"/>
		<path fill="#C84141" d="M425.423,215.378c-2.516,0-5.937,0-9.921,0l0.001,28.346c0,7.407-4.907,18.426-18.426,18.426h-24.094
			v20.187l-20.187-20.187h-12.413c0,3.647,0,7.073,0,9.921c0,14.174,14.174,14.174,14.174,14.174h14.172h14.174l14.174,14.174
			v-14.174c0,0,14.172,0,28.346,0s14.174-14.174,14.174-14.174v-42.52C439.597,229.551,439.597,215.378,425.423,215.378z"/>
	</g>
</g>
</svg>
