<?xml version="1.0" encoding="utf-8"?>
<!-- Generator: Adobe Illustrator 16.0.0, SVG Export Plug-In . SVG Version: 6.00 Build 0)  -->
<!DOCTYPE svg PUBLIC "-//W3C//DTD SVG 1.1//EN" "http://www.w3.org/Graphics/SVG/1.1/DTD/svg11.dtd">
<svg version="1.1" id="Layer_1" xmlns="http://www.w3.org/2000/svg" xmlns:xlink="http://www.w3.org/1999/xlink" x="0px" y="0px"
	 width="1140px" height="500px" viewBox="0 0 1140 500" enable-background="new 0 0 1140 500" xml:space="preserve">
<rect x="1.5" fill="#FFFFFF" width="1137" height="500"/>
<g>
	<g>
		<defs>
			<rect id="SVGID_1_" x="373.375" y="149" width="399.25" height="174"/>
		</defs>
		<clipPath id="SVGID_2_">
			<use xlink:href="#SVGID_1_"  overflow="visible"/>
		</clipPath>
		<polygon clip-path="url(#SVGID_2_)" fill="#00386D" points="373.531,235.727 373.531,300.771 395.213,322.453 416.895,322.453 
			395.213,235.727 		"/>
		<polygon clip-path="url(#SVGID_2_)" fill="#264A0B" points="503.619,235.727 503.619,300.771 481.938,322.453 460.256,322.453 
			481.938,235.727 		"/>
		
			<rect x="377.867" y="203.203" transform="matrix(-0.7072 0.7071 -0.7071 -0.7072 814.9225 90.5663)" clip-path="url(#SVGID_2_)" fill="#0078BD" width="21.679" height="21.681"/>
		
			<rect x="427.58" y="153.489" transform="matrix(-0.7071 0.7071 -0.7071 -0.7071 864.6305 -29.4744)" clip-path="url(#SVGID_2_)" fill="#EB5A00" width="21.68" height="21.682"/>
		
			<rect x="477.293" y="203.204" transform="matrix(-0.7071 0.7071 -0.7071 -0.7071 984.6483 20.2352)" clip-path="url(#SVGID_2_)" fill="#75971A" width="21.68" height="21.682"/>
		<polygon clip-path="url(#SVGID_2_)" fill="#A01F10" points="449.415,322.453 471.097,192.363 406.052,192.363 427.733,322.453 		
			"/>
		<polygon clip-path="url(#SVGID_2_)" fill="#0078BD" points="373.529,235.727 373.529,289.931 395.211,257.408 438.574,268.249 
			395.211,235.727 		"/>
		<polygon clip-path="url(#SVGID_2_)" fill="#75971A" points="503.619,289.931 503.619,235.727 481.938,268.249 438.574,257.408 
			481.938,289.931 		"/>
		<polygon clip-path="url(#SVGID_2_)" fill="#EB5A00" points="406.052,192.363 438.574,192.363 471.097,192.363 438.574,214.045 
			438.574,246.568 		"/>
		<g clip-path="url(#SVGID_2_)">
			<defs>
				<rect id="SVGID_3_" x="362.69" y="138.16" width="422.791" height="216.815"/>
			</defs>
			<clipPath id="SVGID_4_">
				<use xlink:href="#SVGID_3_"  overflow="visible"/>
			</clipPath>
			<path clip-path="url(#SVGID_4_)" fill="#2A292D" d="M571.907,231.737c0,2.342-0.222,4.45-0.665,6.323
				c-0.443,1.874-1.175,3.486-2.193,4.839c-1.017,1.354-2.335,2.393-3.952,3.122c-1.618,0.729-3.63,1.093-6.029,1.093
				c-2.193,0-4.098-0.312-5.714-0.937c-1.619-0.624-2.95-1.495-3.993-2.614c-1.045-1.119-1.815-2.432-2.311-3.942
				c-0.497-1.509-0.744-3.147-0.744-4.917l6.166-1.249c0,1.042,0.104,2.017,0.312,2.927c0.208,0.912,0.56,1.729,1.055,2.458
				c0.494,0.729,1.171,1.301,2.028,1.717c0.86,0.417,1.913,0.624,3.162,0.624c1.562,0,2.796-0.246,3.708-0.741
				c0.909-0.494,1.587-1.171,2.029-2.03c0.44-0.858,0.715-1.859,0.819-3.005c0.104-1.143,0.157-2.341,0.157-3.59
				c0-1.612-0.079-2.927-0.234-3.941c-0.158-1.015-0.496-1.898-1.016-2.654c-0.52-0.753-1.262-1.416-2.226-1.99
				c-0.963-0.571-2.251-1.197-3.862-1.873c-2.551-1.093-4.593-2.197-6.127-3.318c-1.535-1.117-2.721-2.289-3.554-3.512
				c-0.83-1.222-1.377-2.524-1.637-3.903c-0.262-1.378-0.391-2.899-0.391-4.566c0-2.081,0.26-3.993,0.782-5.737
				c0.521-1.742,1.319-3.251,2.389-4.527c1.068-1.275,2.413-2.264,4.033-2.966c1.616-0.703,3.494-1.054,5.637-1.054
				c2.35,0,4.317,0.365,5.911,1.093c1.592,0.729,2.87,1.678,3.836,2.849c0.966,1.17,1.645,2.458,2.035,3.864
				c0.391,1.405,0.588,2.785,0.588,4.136l-6.165,1.562c0-2.445-0.496-4.332-1.485-5.659c-0.988-1.327-2.68-1.99-5.072-1.99
				c-1.353,0-2.433,0.26-3.24,0.78c-0.807,0.521-1.444,1.185-1.911,1.99c-0.468,0.808-0.78,1.705-0.937,2.693
				c-0.156,0.99-0.234,1.951-0.234,2.888c0,1.145,0.064,2.146,0.194,3.005c0.131,0.858,0.483,1.666,1.059,2.419
				c0.575,0.755,1.424,1.498,2.547,2.225c1.124,0.73,2.705,1.483,4.743,2.264c2.352,0.937,4.218,1.913,5.604,2.927
				c1.384,1.015,2.441,2.146,3.173,3.395c0.732,1.249,1.202,2.654,1.411,4.215C571.801,227.991,571.907,229.761,571.907,231.737"/>
			<path clip-path="url(#SVGID_4_)" fill="#2A292D" d="M605.548,231.972c0,3.591-0.495,6.53-1.481,8.82l4.369,3.512l-3.045,3.747
				l-4.213-3.356c-2.03,1.613-4.736,2.42-8.118,2.42c-4.476,0-7.677-1.222-9.6-3.669c-1.927-2.445-2.89-5.671-2.89-9.678v-26.773
				c0-1.924,0.169-3.797,0.508-5.62c0.339-1.821,0.963-3.446,1.873-4.878c0.91-1.431,2.173-2.576,3.786-3.434
				c1.611-0.859,3.72-1.288,6.322-1.288c2.705,0,4.878,0.378,6.518,1.132c1.639,0.754,2.9,1.808,3.785,3.161
				c0.884,1.354,1.47,2.941,1.756,4.761c0.286,1.823,0.43,3.826,0.43,6.01V231.972z M599.382,205.885
				c0-0.934-0.065-1.894-0.194-2.881c-0.131-0.986-0.404-1.884-0.822-2.688c-0.414-0.805-1.052-1.479-1.91-2.024
				s-1.99-0.818-3.396-0.818c-1.561,0-2.759,0.376-3.591,1.127c-0.832,0.752-1.457,1.646-1.874,2.683
				c-0.416,1.038-0.662,2.14-0.741,3.306c-0.078,1.167-0.116,2.139-0.116,2.917v26.29c0,0.777,0.078,1.608,0.234,2.489
				c0.155,0.881,0.469,1.711,0.937,2.489c0.469,0.779,1.105,1.413,1.912,1.905s1.861,0.739,3.161,0.739
				c1.353,0,2.445-0.234,3.277-0.703l-4.604-3.824l3.044-3.669l4.216,3.435c0.312-1.141,0.468-2.44,0.468-3.895V205.885z"/>
			<path clip-path="url(#SVGID_4_)" fill="#2A292D" d="M640.04,192.32v39.652c0,4.839-0.937,8.573-2.811,11.201
				c-1.874,2.629-5.101,3.941-9.678,3.941c-4.477,0-7.678-1.222-9.602-3.668c-1.926-2.446-2.888-5.671-2.888-9.679V192.32h6.166
				v41.459c0,0.779,0.078,1.611,0.233,2.494c0.157,0.883,0.469,1.714,0.938,2.495c0.468,0.778,1.104,1.416,1.912,1.908
				c0.805,0.494,1.859,0.74,3.161,0.74c1.3,0,2.367-0.26,3.199-0.779c0.832-0.52,1.484-1.182,1.952-1.988
				c0.469-0.804,0.792-1.727,0.977-2.766c0.182-1.039,0.273-2.104,0.273-3.196V192.32H640.04z"/>
			<path clip-path="url(#SVGID_4_)" fill="#2A292D" d="M670.792,246.568l-2.498-12.098h-12.097l-2.421,12.098h-5.933l11.553-54.325
				h5.775l11.709,54.325H670.792z M662.051,203.404l-2.264,12.645l-2.576,12.722h9.991l-2.654-12.878l-2.186-12.489H662.051z"/>
			<path clip-path="url(#SVGID_4_)" fill="#2A292D" d="M697.549,192.243c3.214,0,5.756,0.559,7.624,1.678
				c1.868,1.118,3.164,3.005,3.89,5.657c0.572,2.187,0.857,4.893,0.857,8.119v11.63v11.356c0,3.096-0.338,5.71-1.012,7.845
				c-0.986,3.071-2.556,5.177-4.709,6.322c-2.151,1.144-4.604,1.717-7.352,1.717h-11.906v-54.325H697.549z M703.754,205.809
				c0-2.44-0.521-4.362-1.562-5.765c-1.041-1.402-2.888-2.103-5.54-2.103h-5.543v42.929h5.543c2.549,0,4.37-0.701,5.463-2.104
				s1.64-3.402,1.64-5.999V205.809z"/>
			<rect x="547.017" y="268.129" clip-path="url(#SVGID_4_)" fill="#2A292D" width="6.166" height="54.325"/>
			<polygon clip-path="url(#SVGID_4_)" fill="#2A292D" points="569.159,285.3 569.159,322.453 562.994,322.453 562.994,268.129 
				568.848,268.129 580.087,295.682 583.835,305.595 584.146,305.516 584.146,268.129 590.312,268.129 590.312,322.453 
				584.537,322.453 573.296,295.135 569.395,285.3 			"/>
			<polygon clip-path="url(#SVGID_4_)" fill="#2A292D" points="629.963,273.826 629.963,322.453 623.797,322.453 623.797,273.826 
				614.587,273.826 614.587,268.129 639.174,268.129 639.174,273.826 			"/>
			<path clip-path="url(#SVGID_4_)" fill="#2A292D" d="M671.111,307.857c0,4.839-0.949,8.573-2.848,11.201
				c-1.899,2.629-5.141,3.941-9.719,3.941c-4.477,0-7.663-1.222-9.562-3.669c-1.898-2.445-2.847-5.671-2.847-9.679v-26.771
				c0-1.925,0.167-3.799,0.507-5.62c0.337-1.821,0.962-3.446,1.872-4.879c0.911-1.431,2.173-2.575,3.786-3.434
				c1.612-0.858,3.721-1.288,6.322-1.288c2.707,0,4.879,0.377,6.518,1.132c1.639,0.754,2.9,1.809,3.786,3.16
				c0.885,1.354,1.469,2.94,1.756,4.763c0.284,1.821,0.429,3.824,0.429,6.01V307.857z M664.945,281.758
				c0-0.932-0.065-1.893-0.194-2.878c-0.131-0.985-0.404-1.88-0.819-2.683c-0.417-0.804-1.055-1.479-1.912-2.022
				c-0.859-0.544-1.99-0.817-3.396-0.817c-1.56,0-2.759,0.378-3.591,1.129s-1.456,1.646-1.872,2.684
				c-0.417,1.036-0.664,2.139-0.743,3.304c-0.077,1.168-0.116,2.141-0.116,2.917v26.289c0,0.778,0.078,1.608,0.235,2.488
				c0.154,0.882,0.468,1.712,0.936,2.49s1.105,1.412,1.912,1.904c0.807,0.493,1.861,0.74,3.161,0.74s2.367-0.26,3.201-0.778
				c0.83-0.519,1.482-1.179,1.95-1.982c0.469-0.804,0.794-1.726,0.976-2.762c0.183-1.036,0.273-2.1,0.273-3.19V281.758z"/>
			<path clip-path="url(#SVGID_4_)" fill="#2A292D" d="M705.423,268.206v39.651c0,4.839-0.936,8.573-2.81,11.201
				c-1.874,2.629-5.101,3.941-9.678,3.941c-4.477,0-7.678-1.222-9.601-3.669c-1.927-2.445-2.888-5.671-2.888-9.679v-41.446h6.165
				v41.459c0,0.779,0.078,1.61,0.233,2.494c0.156,0.883,0.47,1.714,0.938,2.494c0.468,0.778,1.105,1.416,1.912,1.908
				c0.807,0.494,1.86,0.741,3.161,0.741c1.3,0,2.367-0.261,3.199-0.78s1.484-1.182,1.952-1.987c0.468-0.804,0.794-1.727,0.977-2.767
				c0.182-1.038,0.273-2.104,0.273-3.195v-40.367H705.423z"/>
			<path clip-path="url(#SVGID_4_)" fill="#2A292D" d="M726.958,267.66c4.215,0,7.271,1.145,9.171,3.434
				c1.899,2.291,2.85,5.283,2.85,8.977l-6.168,1.093c0.054-2.393-0.377-4.292-1.287-5.697c-0.91-1.406-2.459-2.108-4.644-2.108
				c-1.249,0-2.263,0.288-3.045,0.858c-0.78,0.574-1.392,1.288-1.833,2.147c-0.442,0.858-0.741,1.808-0.897,2.849
				c-0.157,1.042-0.235,2.029-0.235,2.966v27.396c0,0.781,0.078,1.628,0.235,2.537c0.156,0.91,0.455,1.744,0.897,2.498
				c0.441,0.754,1.039,1.393,1.795,1.912c0.754,0.521,1.756,0.781,3.005,0.781c2.031,0,3.525-0.625,4.489-1.874
				c0.961-1.249,1.469-3.227,1.52-5.933l6.323,1.093c-0.104,3.903-1.159,6.947-3.162,9.133S730.965,323,726.958,323
				c-4.111,0-7.182-1.144-9.21-3.435c-2.03-2.288-3.045-5.516-3.045-9.679v-26.851c0-1.923,0.17-3.812,0.508-5.658
				c0.337-1.847,0.949-3.485,1.834-4.918c0.885-1.431,2.132-2.587,3.748-3.473C722.404,268.103,724.46,267.66,726.958,267.66"/>
			<polygon clip-path="url(#SVGID_4_)" fill="#2A292D" points="766.46,322.453 766.46,297.398 753.814,297.398 753.814,322.453 
				747.649,322.453 747.649,268.129 753.814,268.129 753.814,292.013 766.46,292.013 766.46,268.129 772.625,268.129 
				772.625,322.453 			"/>
		</g>
	</g>
</g>
</svg>
