<?xml version="1.0" encoding="utf-8"?>
<!-- Generator: Adobe Illustrator 19.0.0, SVG Export Plug-In . SVG Version: 6.00 Build 0)  -->
<svg version="1.1" id="Layer_1" xmlns="http://www.w3.org/2000/svg" xmlns:xlink="http://www.w3.org/1999/xlink" x="0px" y="0px"
	 width="905px" height="524.3px" viewBox="0 0 905 524.3" style="enable-background:new 0 0 905 524.3;" xml:space="preserve">
<style type="text/css">
	.st0{fill:#FFFFFF;}
	.st1{opacity:0.5;fill:#3296DC;}
	.st2{fill:#3296DC;}
	.st3{fill:none;stroke:#333333;stroke-width:0.25;stroke-miterlimit:10;}
	.st4{fill:#333333;}
	.st5{opacity:0.1;fill:#333333;}
</style>
<rect id="XMLID_171_" class="st0" width="905" height="524.3"/>
<g id="XMLID_1_">
	<polygon id="XMLID_403_" class="st1" points="81.8,232.3 81.8,352.3 121.8,392.3 161.8,392.3 121.8,232.3 	"/>
	<polygon id="XMLID_400_" class="st1" points="321.8,232.3 321.8,352.3 281.8,392.3 241.8,392.3 281.8,232.3 	"/>
	<polygon id="XMLID_399_" class="st2" points="81.5,192.2 109.8,164 138.1,192.3 109.8,220.5 	"/>
	<polygon id="XMLID_398_" class="st2" points="173.8,100.2 201.8,72.3 229.8,100.2 201.8,128.2 	"/>
	<polygon id="XMLID_397_" class="st2" points="264.9,192.3 293.2,164 321.5,192.3 293.2,220.5 	"/>
	<polygon id="XMLID_394_" class="st1" points="221.8,392.3 261.8,152.3 141.8,152.3 181.8,392.3 	"/>
	<polygon id="XMLID_393_" class="st2" points="81.8,232.3 81.8,332.3 121.8,272.3 201.8,292.3 121.8,232.3 	"/>
	<polygon id="XMLID_392_" class="st2" points="321.8,332.3 321.8,232.3 281.8,292.3 201.8,272.3 281.8,332.3 	"/>
	<polygon id="XMLID_391_" class="st2" points="141.8,152.3 201.8,152.3 261.8,152.3 201.8,192.3 201.8,252.3 	"/>
	<g id="XMLID_135_">
		<g id="XMLID_247_">
			<path id="XMLID_259_" class="st2" d="M447.8,224.9c0,4.3-0.4,8.2-1.2,11.7c-0.8,3.5-2.2,6.4-4,8.9c-1.9,2.5-4.3,4.4-7.3,5.8
				c-3,1.3-6.7,2-11.1,2c-4,0-7.6-0.6-10.5-1.7c-3-1.2-5.4-2.8-7.4-4.8c-1.9-2.1-3.3-4.5-4.3-7.3c-0.9-2.8-1.4-5.8-1.4-9.1l11.4-2.3
				c0,1.9,0.2,3.7,0.6,5.4c0.4,1.7,1,3.2,1.9,4.5c0.9,1.3,2.2,2.4,3.7,3.2c1.6,0.8,3.5,1.2,5.8,1.2c2.9,0,5.2-0.5,6.8-1.4
				c1.7-0.9,2.9-2.2,3.7-3.7c0.8-1.6,1.3-3.4,1.5-5.5c0.2-2.1,0.3-4.3,0.3-6.6c0-3-0.1-5.4-0.4-7.3c-0.3-1.9-0.9-3.5-1.9-4.9
				c-1-1.4-2.3-2.6-4.1-3.7c-1.8-1.1-4.2-2.2-7.1-3.5c-4.7-2-8.5-4.1-11.3-6.1c-2.8-2.1-5-4.2-6.6-6.5c-1.5-2.3-2.5-4.7-3-7.2
				c-0.5-2.5-0.7-5.4-0.7-8.4c0-3.8,0.5-7.4,1.4-10.6c1-3.2,2.4-6,4.4-8.4c2-2.4,4.5-4.2,7.4-5.5c3-1.3,6.5-1.9,10.4-1.9
				c4.3,0,8,0.7,10.9,2c2.9,1.3,5.3,3.1,7.1,5.3c1.8,2.2,3,4.5,3.8,7.1c0.7,2.6,1.1,5.1,1.1,7.6l-11.4,2.9c0-4.5-0.9-8-2.7-10.4
				c-1.8-2.4-4.9-3.7-9.4-3.7c-2.5,0-4.5,0.5-6,1.4c-1.5,1-2.7,2.2-3.5,3.7c-0.9,1.5-1.4,3.1-1.7,5c-0.3,1.8-0.4,3.6-0.4,5.3
				c0,2.1,0.1,4,0.4,5.5s0.9,3.1,2,4.5c1.1,1.4,2.6,2.8,4.7,4.1c2.1,1.3,5,2.7,8.8,4.2c4.3,1.7,7.8,3.5,10.3,5.4
				c2.6,1.9,4.5,4,5.9,6.3c1.3,2.3,2.2,4.9,2.6,7.8C447.6,218,447.8,221.2,447.8,224.9z"/>
			<path id="XMLID_256_" class="st2" d="M509.8,225.3c0,6.6-0.9,12-2.7,16.3l8.1,6.5l-5.6,6.9l-7.8-6.2c-3.7,3-8.7,4.5-15,4.5
				c-8.3,0-14.2-2.3-17.7-6.8c-3.6-4.5-5.3-10.5-5.3-17.9v-49.4c0-3.6,0.3-7,0.9-10.4c0.6-3.4,1.8-6.4,3.5-9c1.7-2.6,4-4.8,7-6.3
				c3-1.6,6.9-2.4,11.7-2.4c5,0,9,0.7,12,2.1c3,1.4,5.4,3.3,7,5.8c1.6,2.5,2.7,5.4,3.2,8.8c0.5,3.4,0.8,7.1,0.8,11.1V225.3z
				 M498.5,177.2c0-1.7-0.1-3.5-0.4-5.3c-0.2-1.8-0.7-3.5-1.5-5c-0.8-1.5-1.9-2.7-3.5-3.7c-1.6-1-3.7-1.5-6.3-1.5
				c-2.9,0-5.1,0.7-6.6,2.1c-1.5,1.4-2.7,3-3.5,4.9c-0.8,1.9-1.2,3.9-1.4,6.1c-0.1,2.2-0.2,3.9-0.2,5.4v48.5c0,1.4,0.1,3,0.4,4.6
				c0.3,1.6,0.9,3.2,1.7,4.6c0.9,1.4,2,2.6,3.5,3.5c1.5,0.9,3.4,1.4,5.8,1.4c2.5,0,4.5-0.4,6-1.3l-8.5-7.1l5.6-6.8l7.8,6.3
				c0.6-2.1,0.9-4.5,0.9-7.2V177.2z"/>
			<path id="XMLID_254_" class="st2" d="M573.5,152.2v73.2c0,8.9-1.7,15.8-5.2,20.7c-3.5,4.8-9.4,7.3-17.9,7.3
				c-8.3,0-14.2-2.3-17.7-6.8c-3.6-4.5-5.3-10.5-5.3-17.9v-76.5h11.4v76.5c0,1.4,0.1,3,0.4,4.6s0.9,3.2,1.7,4.6
				c0.9,1.4,2,2.6,3.5,3.5c1.5,0.9,3.4,1.4,5.8,1.4c2.4,0,4.4-0.5,5.9-1.4c1.5-1,2.7-2.2,3.6-3.7c0.9-1.5,1.5-3.2,1.8-5.1
				c0.3-1.9,0.5-3.9,0.5-5.9v-74.5H573.5z"/>
			<path id="XMLID_251_" class="st2" d="M630.2,252.3l-4.6-22.3h-22.3l-4.5,22.3h-10.9L609.2,152h10.7l21.6,100.2H630.2z
				 M614.1,172.6l-4.2,23.3l-4.8,23.5h18.4l-4.9-23.8l-4-23H614.1z"/>
			<path id="XMLID_248_" class="st2" d="M679.6,152c5.9,0,10.6,1,14.1,3.1c3.4,2.1,5.8,5.5,7.2,10.4c1.1,4,1.6,9,1.6,15
				c0,6,0,13.1,0,21.5c0,8.3,0,15.2,0,21c0,5.7-0.6,10.5-1.9,14.5c-1.8,5.7-4.7,9.6-8.7,11.7c-4,2.1-8.5,3.2-13.6,3.2h-22V152H679.6
				z M691,177.1c0-4.5-1-8-2.9-10.6c-1.9-2.6-5.3-3.9-10.2-3.9h-10.2v79.2h10.2c4.7,0,8.1-1.3,10.1-3.9c2-2.6,3-6.3,3-11.1V177.1z"
				/>
		</g>
	</g>
	<g id="XMLID_119_">
		<path id="XMLID_120_" class="st2" d="M401.9,392.3V292h11.4v100.2H401.9z"/>
		<path id="XMLID_122_" class="st2" d="M442.7,323.7v68.5h-11.4V292h10.8l20.7,50.8l6.9,18.3l0.6-0.1v-69h11.4v100.2h-10.7
			l-20.7-50.4l-7.2-18.1H442.7z"/>
		<path id="XMLID_124_" class="st2" d="M557.8,302.5v89.7h-11.4v-89.7h-17V292h45.4v10.5H557.8z"/>
		<path id="XMLID_126_" class="st2" d="M633.7,365.3c0,8.9-1.8,15.8-5.3,20.7c-3.5,4.8-9.5,7.3-17.9,7.3c-8.3,0-14.1-2.3-17.6-6.8
			c-3.5-4.5-5.3-10.5-5.3-17.9v-49.4c0-3.6,0.3-7,0.9-10.4c0.6-3.4,1.8-6.4,3.5-9c1.7-2.6,4-4.8,7-6.3c3-1.6,6.9-2.4,11.7-2.4
			c5,0,9,0.7,12,2.1c3,1.4,5.4,3.3,7,5.8c1.6,2.5,2.7,5.4,3.2,8.8c0.5,3.4,0.8,7.1,0.8,11.1V365.3z M622.3,317.2
			c0-1.7-0.1-3.5-0.4-5.3c-0.2-1.8-0.7-3.5-1.5-5c-0.8-1.5-1.9-2.7-3.5-3.7c-1.6-1-3.7-1.5-6.3-1.5c-2.9,0-5.1,0.7-6.6,2.1
			c-1.5,1.4-2.7,3-3.5,5c-0.8,1.9-1.2,3.9-1.4,6.1c-0.1,2.2-0.2,3.9-0.2,5.4v48.5c0,1.4,0.1,3,0.4,4.6c0.3,1.6,0.9,3.2,1.7,4.6
			c0.9,1.4,2,2.6,3.5,3.5c1.5,0.9,3.4,1.4,5.8,1.4c2.4,0,4.4-0.5,5.9-1.4c1.5-1,2.7-2.2,3.6-3.7s1.5-3.2,1.8-5.1
			c0.3-1.9,0.5-3.9,0.5-5.9V317.2z"/>
		<path id="XMLID_129_" class="st2" d="M697,292.2v73.2c0,8.9-1.7,15.8-5.2,20.7c-3.5,4.8-9.4,7.3-17.9,7.3
			c-8.3,0-14.2-2.3-17.7-6.8c-3.6-4.5-5.3-10.5-5.3-17.9v-76.5h11.4v76.5c0,1.4,0.1,3,0.4,4.6s0.9,3.2,1.7,4.6
			c0.9,1.4,2,2.6,3.5,3.5c1.5,0.9,3.4,1.4,5.8,1.4c2.4,0,4.4-0.5,5.9-1.4c1.5-1,2.7-2.2,3.6-3.7c0.9-1.5,1.5-3.2,1.8-5.1
			c0.3-1.9,0.5-3.9,0.5-5.9v-74.5H697z"/>
		<path id="XMLID_131_" class="st2" d="M736.8,291.2c7.8,0,13.4,2.1,16.9,6.3c3.5,4.2,5.3,9.7,5.3,16.6l-11.4,2
			c0.1-4.4-0.7-7.9-2.4-10.5c-1.7-2.6-4.5-3.9-8.6-3.9c-2.3,0-4.2,0.5-5.6,1.6c-1.4,1.1-2.6,2.4-3.4,4c-0.8,1.6-1.4,3.3-1.7,5.3
			c-0.3,1.9-0.4,3.7-0.4,5.5v50.5c0,1.4,0.1,3,0.4,4.7c0.3,1.7,0.8,3.2,1.7,4.6c0.8,1.4,1.9,2.6,3.3,3.5c1.4,1,3.2,1.4,5.5,1.4
			c3.7,0,6.5-1.2,8.3-3.5c1.8-2.3,2.7-6,2.8-10.9l11.7,2c-0.2,7.2-2.1,12.8-5.8,16.8c-3.7,4-9.2,6-16.6,6c-7.6,0-13.2-2.1-17-6.3
			c-3.7-4.2-5.6-10.2-5.6-17.9v-49.5c0-3.6,0.3-7,0.9-10.4c0.6-3.4,1.8-6.4,3.4-9.1c1.6-2.6,3.9-4.8,6.9-6.4
			C728.4,292,732.2,291.2,736.8,291.2z"/>
		<path id="XMLID_133_" class="st2" d="M809.6,392.3V346h-23.3v46.2h-11.4V292h11.4v44.1h23.3V292H821v100.2H809.6z"/>
	</g>
	<line id="XMLID_388_" class="st3" x1="61.8" y1="392.3" x2="841.8" y2="392.3"/>
	<line id="XMLID_366_" class="st3" x1="61.8" y1="72.3" x2="841.8" y2="72.3"/>
	<line id="XMLID_365_" class="st3" x1="61.8" y1="432.3" x2="841.8" y2="432.3"/>
	<line id="XMLID_364_" class="st3" x1="81.8" y1="252.3" x2="841.8" y2="252.3"/>
	<line id="XMLID_363_" class="st3" x1="81.8" y1="192.3" x2="321.8" y2="192.3"/>
	<line id="XMLID_362_" class="st3" x1="81.8" y1="232.3" x2="321.8" y2="232.3"/>
	<line id="XMLID_361_" class="st3" x1="81.8" y1="212.3" x2="321.8" y2="212.3"/>
	<line id="XMLID_360_" class="st3" x1="81.8" y1="172.3" x2="321.8" y2="172.3"/>
	<line id="XMLID_359_" class="st3" x1="81.8" y1="272.3" x2="321.8" y2="272.3"/>
	<line id="XMLID_358_" class="st3" x1="81.8" y1="292.3" x2="841.8" y2="292.3"/>
	<line id="XMLID_357_" class="st3" x1="201.8" y1="152.3" x2="201.8" y2="392.3"/>
	<line id="XMLID_356_" class="st3" x1="141.8" y1="152.3" x2="141.8" y2="392.3"/>
	<line id="XMLID_355_" class="st3" x1="261.8" y1="152.3" x2="261.8" y2="392.3"/>
	<line id="XMLID_354_" class="st3" x1="221.8" y1="152.3" x2="221.8" y2="392.3"/>
	<line id="XMLID_353_" class="st3" x1="241.8" y1="152.3" x2="241.8" y2="392.3"/>
	<line id="XMLID_352_" class="st3" x1="181.8" y1="152.3" x2="181.8" y2="392.3"/>
	<line id="XMLID_351_" class="st3" x1="161.8" y1="152.3" x2="161.8" y2="392.3"/>
	<line id="XMLID_350_" class="st3" x1="121.8" y1="152.3" x2="121.8" y2="392.3"/>
	<line id="XMLID_349_" class="st3" x1="101.8" y1="152.3" x2="101.8" y2="392.3"/>
	<line id="XMLID_348_" class="st3" x1="281.8" y1="152.3" x2="281.8" y2="392.3"/>
	<line id="XMLID_347_" class="st3" x1="301.8" y1="152.3" x2="301.8" y2="392.3"/>
	<line id="XMLID_346_" class="st3" x1="841.8" y1="152.2" x2="81.8" y2="152.2"/>
	<line id="XMLID_345_" class="st3" x1="81.8" y1="312.3" x2="321.8" y2="312.3"/>
	<line id="XMLID_344_" class="st3" x1="81.8" y1="332.3" x2="321.8" y2="332.3"/>
	<line id="XMLID_343_" class="st3" x1="81.8" y1="352.3" x2="321.8" y2="352.3"/>
	<line id="XMLID_342_" class="st3" x1="81.8" y1="372.3" x2="321.8" y2="372.3"/>
	<line id="XMLID_339_" class="st3" x1="81.8" y1="52.3" x2="81.8" y2="452.3"/>
	<line id="XMLID_338_" class="st3" x1="321.8" y1="52.3" x2="321.8" y2="452.3"/>
	<line id="XMLID_337_" class="st3" x1="401.8" y1="52.3" x2="401.8" y2="452.3"/>
	<line id="XMLID_336_" class="st3" x1="821.8" y1="52.3" x2="821.8" y2="452.3"/>
	<line id="XMLID_9_" class="st3" x1="831.8" y1="72.3" x2="831.8" y2="432.3"/>
	<line id="XMLID_11_" class="st3" x1="71.8" y1="72.3" x2="71.8" y2="392.3"/>
	<line id="XMLID_12_" class="st3" x1="81.8" y1="442.3" x2="821.8" y2="442.3"/>
	<line id="XMLID_330_" class="st3" x1="181.7" y1="52.2" x2="321.8" y2="192.3"/>
	<line id="XMLID_329_" class="st3" x1="81.8" y1="192.3" x2="221.9" y2="52.1"/>
	<line id="XMLID_328_" class="st3" x1="125.6" y1="52.1" x2="321.9" y2="248.3"/>
	<line id="XMLID_327_" class="st3" x1="81.6" y1="248.4" x2="277.9" y2="52.2"/>
	<path id="XMLID_326_" class="st3" d="M201.8,368.2"/>
	<g id="XMLID_116_">
		<path id="XMLID_117_" class="st0" d="M197.1,99c0,0,0.3-0.9,1.3-1.9c1-1,2.2-1.4,3.3-0.3c1,1,0.8,2,0.4,3.6
			c-0.2,0.9-0.7,2,0.2,2.9c0.1,0.1,0.2,0.2,0.3,0.2l2.8-2.8c0.1,0,0.2,0.1,0.3,0.2c0.1,0.1,0.2,0.2,0.2,0.3l-3.4,3.4
			c0,0-0.3-0.2-0.6-0.5c-1.3-1.3-0.9-2.6-0.6-3.9c0.3-1.3,0.5-2.1-0.3-2.8c-0.5-0.5-1.3-0.7-2.2,0.2c-0.7,0.7-1,1.5-1,1.5
			C197.5,99.3,197.2,99.3,197.1,99z"/>
	</g>
	<g id="XMLID_113_">
		<path id="XMLID_114_" class="st4" d="M857.1,203.9c0-0.1-0.1-0.4-0.1-1c0-2.2,1-3.2,2.8-3.2c1.8,0,2.8,1.1,2.8,3.5
			c0,1.6-0.4,2.2-0.4,2.2c-0.3,0-0.6-0.1-0.8-0.3c0,0,0.3-0.8,0.3-1.9c0-1.7-0.6-2.6-1.9-2.6c-1.2,0-2,0.6-2,2.5
			c0,0.7,0.1,1.4,0.1,1.6h-5v-4.8c0.3-0.1,0.6-0.1,0.9,0v3.8H857.1z"/>
	</g>
	<g id="XMLID_110_">
		<path id="XMLID_111_" class="st4" d="M857.1,343.9c0-0.1-0.1-0.4-0.1-1c0-2.2,1-3.2,2.8-3.2c1.8,0,2.8,1.1,2.8,3.5
			c0,1.6-0.4,2.2-0.4,2.2c-0.3,0-0.6-0.1-0.8-0.3c0,0,0.3-0.8,0.3-1.9c0-1.7-0.6-2.6-1.9-2.6c-1.2,0-2,0.6-2,2.5
			c0,0.7,0.1,1.4,0.1,1.6h-5v-4.8c0.3-0.1,0.6-0.1,0.9,0v3.8H857.1z"/>
	</g>
	<g id="XMLID_107_">
		<path id="XMLID_108_" class="st4" d="M852.6,275.1c0,0-0.5-1.1-0.5-2.6c0-1.6,0.7-2.9,2.5-2.9c1.7,0,2.3,1,3.3,2.7
			c0.6,0.9,1.1,2.2,2.5,2.2c0.2,0,0.4,0,0.4,0v-4.6c0.1,0,0.2-0.1,0.5-0.1c0.2,0,0.4,0,0.5,0.1v5.5c0,0-0.4,0.1-0.9,0.1
			c-2.2,0-2.9-1.4-3.7-2.7c-0.8-1.3-1.3-2.1-2.5-2.1c-0.9,0-1.7,0.5-1.7,2c0,1.1,0.4,2.1,0.4,2.1C853.2,275.1,853,275.2,852.6,275.1
			z"/>
	</g>
	<g id="XMLID_103_">
		<path id="XMLID_104_" class="st4" d="M852.4,111.5c0,0-0.1-0.2-0.1-0.5c0-0.3,0.1-0.5,0.1-0.5h6.1v-1.3c0,0,0.1-0.1,0.4-0.1
			s0.4,0.1,0.4,0.1v1.3h2.4c0,0,0.1,0.2,0.1,0.5c0,0.3-0.1,0.5-0.1,0.5h-2.4v4.6c0,0-0.1,0.1-0.4,0.1s-0.4-0.1-0.4-0.1L852.4,111.5z
			 M858.5,115v-3.5h-4.8L858.5,115z"/>
	</g>
	<g id="XMLID_100_">
		<path id="XMLID_101_" class="st4" d="M852.6,415.1c0,0-0.5-1.1-0.5-2.6c0-1.6,0.7-2.9,2.5-2.9c1.7,0,2.3,1,3.3,2.7
			c0.6,0.9,1.1,2.2,2.5,2.2c0.2,0,0.4,0,0.4,0v-4.6c0.1,0,0.2-0.1,0.5-0.1c0.2,0,0.4,0,0.5,0.1v5.5c0,0-0.4,0.1-0.9,0.1
			c-2.2,0-2.9-1.4-3.7-2.7c-0.8-1.3-1.3-2.1-2.5-2.1c-0.9,0-1.7,0.5-1.7,2c0,1.1,0.4,2.1,0.4,2.1C853.2,415.1,853,415.2,852.6,415.1
			z"/>
	</g>
	<g id="XMLID_94_">
		<path id="XMLID_95_" class="st4" d="M42.4,236.2c0,0-0.1-0.2-0.1-0.5c0-0.3,0.1-0.5,0.1-0.5h9.4c0,0,0.1,0.2,0.1,0.5
			c0,0.3-0.1,0.5-0.1,0.5h-6.1c-0.8,0-1.4,0-1.9-0.1c0.8,0.7,1.3,1.6,1.5,2.5c-0.2,0.2-0.5,0.3-0.9,0.2
			C44.1,237.8,43.4,236.9,42.4,236.2z"/>
		<path id="XMLID_97_" class="st4" d="M43.1,227.3c0.2,2.1,1.2,3.5,3.4,3.9c-0.2-0.4-0.5-1.1-0.5-2c0-1.6,0.8-2.9,3-2.9
			c2,0,3,1.2,3,3.1c0,1.8-1.1,3.1-3.7,3.1c-3.9,0-5.7-2-5.9-5.1C42.5,227.2,42.8,227.2,43.1,227.3z M46.8,229.4c0,0.9,0.4,1.7,0.6,2
			c0.3,0,0.6,0,0.9,0c2,0,2.9-0.8,2.9-2s-0.7-2-2.2-2C47.4,227.4,46.8,228.2,46.8,229.4z"/>
	</g>
	<g id="XMLID_88_">
		<path id="XMLID_90_" class="st4" d="M605.2,462.4c0,0,1.1-0.5,2.8-0.5c1.7,0,3.1,0.7,3.1,2.7c0,1.8-1.1,2.5-2.9,3.5
			c-1,0.6-2.4,1.2-2.4,2.7c0,0.2,0,0.4,0,0.5h5c0,0.1,0.1,0.3,0.1,0.5c0,0.2,0,0.4-0.1,0.5h-5.9c0,0-0.1-0.5-0.1-1
			c0-2.3,1.5-3.1,2.9-3.9c1.4-0.9,2.2-1.4,2.2-2.7c0-0.9-0.5-1.8-2.2-1.8c-1.2,0-2.3,0.4-2.3,0.4
			C605.3,463.1,605.2,462.8,605.2,462.4z"/>
		<path id="XMLID_92_" class="st4" d="M616.4,462.1c0,0,0.2-0.1,0.5-0.1c0.4,0,0.5,0.1,0.5,0.1v10c0,0-0.2,0.1-0.6,0.1
			c-0.4,0-0.6-0.1-0.6-0.1v-6.6c0-0.8,0-1.5,0.1-2c-0.7,0.8-1.7,1.4-2.7,1.6c-0.2-0.2-0.3-0.6-0.3-0.9
			C614.6,464,615.6,463.3,616.4,462.1z"/>
	</g>
	<g id="XMLID_80_">
		<path id="XMLID_84_" class="st4" d="M362.6,462.1c0,0,0.2-0.1,0.6-0.1c0.4,0,0.5,0.1,0.5,0.1v6.6h1.4c0,0,0.1,0.2,0.1,0.5
			s-0.1,0.4-0.1,0.4h-1.4v2.6c0,0-0.2,0.1-0.5,0.1c-0.3,0-0.5-0.1-0.5-0.1v-2.6h-4.9c0,0-0.1-0.1-0.1-0.4s0.1-0.5,0.1-0.5
			L362.6,462.1z M358.9,468.7h3.8v-5.1L358.9,468.7z"/>
	</g>
	<g id="XMLID_42_">
		<path id="XMLID_43_" class="st4" d="M197.8,462.1c0,0,0.2-0.1,0.5-0.1s0.5,0.1,0.5,0.1v10c0,0-0.2,0.1-0.6,0.1
			c-0.4,0-0.6-0.1-0.6-0.1v-6.6c0-0.8,0-1.5,0.1-2c-0.7,0.8-1.7,1.4-2.7,1.6c-0.2-0.2-0.3-0.6-0.3-0.9
			C196.1,464,197,463.3,197.8,462.1z"/>
		<path id="XMLID_57_" class="st4" d="M201.9,462.4c0,0,1.1-0.5,2.8-0.5c1.7,0,3.1,0.7,3.1,2.7c0,1.8-1.1,2.5-2.9,3.5
			c-1,0.6-2.4,1.2-2.4,2.7c0,0.2,0,0.4,0,0.5h4.9c0,0.1,0.1,0.3,0.1,0.5c0,0.2,0,0.4-0.1,0.5h-5.9c0,0-0.1-0.5-0.1-1
			c0-2.3,1.5-3.1,2.9-3.9c1.4-0.9,2.2-1.4,2.2-2.7c0-0.9-0.5-1.8-2.2-1.8c-1.2,0-2.3,0.4-2.3,0.4C202,463.1,201.9,462.8,201.9,462.4
			z"/>
	</g>
	<rect id="XMLID_316_" x="81.8" y="392.3" class="st5" width="740" height="40"/>
	<g id="XMLID_39_">
		<path id="XMLID_40_" class="st4" d="M91.9,377.8c0,0,0.1-0.1,0.4-0.1c0.3,0,0.4,0.1,0.4,0.1v8c0,0-0.1,0.1-0.4,0.1
			c-0.3,0-0.4-0.1-0.4-0.1v-5.3c0-0.7,0-1.2,0.1-1.6c-0.6,0.7-1.4,1.1-2.2,1.3c-0.2-0.2-0.3-0.5-0.2-0.7
			C90.5,379.2,91.3,378.7,91.9,377.8z"/>
	</g>
</g>
</svg>
