<?xml version="1.0" encoding="utf-8"?>
<!-- Generator: Adobe Illustrator 19.0.0, SVG Export Plug-In . SVG Version: 6.00 Build 0)  -->
<svg version="1.1" id="Layer_1" xmlns="http://www.w3.org/2000/svg" xmlns:xlink="http://www.w3.org/1999/xlink" x="0px" y="0px"
	 width="656px" height="344px" viewBox="0 0 656 344" style="enable-background:new 0 0 656 344;" xml:space="preserve">
<style type="text/css">
	.st0{fill:#FFFFFF;}
	.st1{fill:#FAC828;}
	.st2{fill:url(#XMLID_105_);}
	.st3{opacity:0.5;}
	.st4{fill:url(#XMLID_106_);}
	.st5{fill:url(#XMLID_107_);}
	.st6{fill:url(#XMLID_108_);}
	.st7{fill:url(#XMLID_109_);}
	.st8{fill:url(#XMLID_110_);}
</style>
<g id="XMLID_125_">
	<g id="XMLID_14_">
		<g id="XMLID_20_">
			<path id="XMLID_23_" class="st0" d="M119,198.5c-57.3,0-63-68.7-63-68.7s34.4-5.7,34.4,5.7S159.1,198.5,119,198.5z"/>
			<path id="XMLID_19_" class="st1" d="M73.2,136.9c4.9,0,7.5,0.5,8.8,0.9c1.2,6.3,7.4,13.2,19,25.5c6.7,7.2,18.7,20,21.4,26.3
				c-0.8,0.1-1.9,0.2-3.4,0.2c-38.1,0-49.8-36-53.2-52.6C68.1,137.1,70.7,136.9,73.2,136.9 M73.2,128.3c-8.6,0-17.2,1.4-17.2,1.4
				s5.7,68.7,63,68.7c40.1,0-28.6-51.5-28.6-63C90.4,129.8,81.8,128.3,73.2,128.3L73.2,128.3z"/>
		</g>
		<g id="XMLID_13_">
			<path id="XMLID_18_" class="st0" d="M141.9,198.5c57.3,0,63-68.7,63-68.7s-34.4-5.7-34.4,5.7S101.8,198.5,141.9,198.5z"/>
			<path id="XMLID_12_" class="st1" d="M187.7,136.9c2.5,0,5.1,0.1,7.4,0.3c-3.4,16.7-15,52.6-53.2,52.6c-1.5,0-2.6-0.1-3.4-0.2
				c2.8-6.3,14.7-19.1,21.4-26.3c11.5-12.4,17.7-19.3,19-25.5C180.1,137.4,182.8,136.9,187.7,136.9 M187.7,128.3
				c-8.6,0-17.2,1.4-17.2,7.2c0,11.5-68.7,63-28.6,63c57.3,0,63-68.7,63-68.7S196.3,128.3,187.7,128.3L187.7,128.3z"/>
		</g>
		<path id="XMLID_93_" class="st1" d="M119,209.9h22.9c0,0,28.6-17.2,28.6-63c0-22.9,11.5-28.6,11.5-34.4s-51.5-5.7-51.5-5.7
			s-51.5,0-51.5,5.7s11.5,11.5,11.5,34.4C90.4,192.7,119,209.9,119,209.9z"/>
		<linearGradient id="XMLID_105_" gradientUnits="userSpaceOnUse" x1="181.9515" y1="158.3841" x2="108.7587" y2="158.3841">
			<stop  offset="0" style="stop-color:#FFFFFF;stop-opacity:0.5"/>
			<stop  offset="1" style="stop-color:#FFFFFF;stop-opacity:0"/>
		</linearGradient>
		<path id="XMLID_92_" class="st2" d="M136.2,204.2c0,0,34.4,0,34.4-57.3c0-17.2,11.5-28.6,11.5-34.4c-34.4,0-40.1,51.5-40.1,51.5
			s-14.3-8.6-28.6,5.7C101.8,181.3,113.3,204.2,136.2,204.2z"/>
		<path id="XMLID_91_" class="st1" d="M141.9,209.9H119c0,0-22.9,5.7-22.9,17.2s34.4,11.5,34.4,11.5s34.4,0,34.4-11.5
			S141.9,209.9,141.9,209.9z"/>
		<g id="XMLID_90_" class="st3">
			<path id="XMLID_172_" class="st1" d="M170.5,101.1c0,11.5-14.8,20.3-40.1,20.3c-25.3,0-40.1-8.8-40.1-20.3
				c0-6.3,40.1,8.8,40.1,8.8S170.5,94.8,170.5,101.1z"/>
		</g>
		<g id="XMLID_89_" class="st3">
			<path id="XMLID_173_" class="st1" d="M153.3,89.7c0,6.3,2.4,31.7-22.9,31.7c-25.3,0-22.9-25.4-22.9-31.7s22.9,17.2,22.9,17.2
				S153.3,83.4,153.3,89.7z"/>
		</g>
		<linearGradient id="XMLID_106_" gradientUnits="userSpaceOnUse" x1="162.2575" y1="227.0849" x2="134.8482" y2="227.0849">
			<stop  offset="0" style="stop-color:#FFFFFF;stop-opacity:0.5"/>
			<stop  offset="1" style="stop-color:#FFFFFF;stop-opacity:0"/>
		</linearGradient>
		<path id="XMLID_86_" class="st4" d="M139.4,215.6c-11.5,0,2.5,0,2.5,11.5s-2.5,11.5-2.5,11.5s22.9,0,22.9-11.5
			C162.3,221.4,150.8,215.6,139.4,215.6z"/>
		
			<rect id="XMLID_85_" x="153.9" y="153.3" transform="matrix(0.7071 0.7072 -0.7072 0.7071 154.8938 -64.5434)" class="st0" width="2.9" height="2.9"/>
		
			<rect id="XMLID_84_" x="102.4" y="128.3" transform="matrix(0.7071 0.7071 -0.7071 0.7071 122.1628 -35.4094)" class="st0" width="2.9" height="2.9"/>
		
			<rect id="XMLID_83_" x="153.9" y="227.7" transform="matrix(0.7071 0.7072 -0.7072 0.7071 207.5246 -42.7409)" class="st0" width="2.9" height="2.9"/>
		<path id="XMLID_82_" class="st1" d="M130.4,95.4C130.4,84.8,119,84,119,84s11.5,1.4,11.5-11.5c0,12.8,11.5,11.5,11.5,11.5
			S130.4,83.3,130.4,95.4z"/>
		
			<rect id="XMLID_81_" x="153.9" y="166.4" transform="matrix(0.7071 0.7071 -0.7071 0.7071 164.1608 -60.6985)" class="st0" width="2.9" height="2.9"/>
	</g>
	<path id="XMLID_80_" class="st1" d="M381.1,158.4"/>
	<g id="XMLID_15_">
		<g id="XMLID_42_">
			<path id="XMLID_46_" class="st0" d="M512.6,198.5c-28.6,0-51.5-22.9-51.5-45.8c0-40.1,51.5-17.7,51.5-11.5
				C512.6,152.7,552.6,198.5,512.6,198.5z"/>
			<path id="XMLID_40_" class="st1" d="M482.7,129.3v8.6c9.1,0,18.4,4.3,21.7,6.5c0.9,4.3,3.5,9.4,7.5,16.8
				c3.6,6.8,12.1,22.7,9.7,26.7c-0.3,0.5-2.6,1.9-8.9,1.9c-24.6,0-42.9-19.6-42.9-37.2c0-10.5,3.8-14.7,13-14.7L482.7,129.3
				 M482.7,129.3c-11.4,0-21.6,5.5-21.6,23.3c0,22.9,22.9,45.8,51.5,45.8c40.1,0,0-45.8,0-57.3C512.6,137.7,496.8,129.3,482.7,129.3
				L482.7,129.3z"/>
		</g>
		<g id="XMLID_25_">
			<path id="XMLID_37_" class="st0" d="M535.5,198.5c28.6,0,51.5-22.9,51.5-45.8c0-40.1-51.5-17.7-51.5-11.5
				C535.5,152.7,495.4,198.5,535.5,198.5z"/>
			<path id="XMLID_24_" class="st1" d="M565.4,137.9c9.3,0,13,4.3,13,14.7c0,17.6-18.4,37.2-42.9,37.2c-6.4,0-8.6-1.4-8.9-1.9
				c-2.4-4,6.1-19.9,9.7-26.7c4-7.4,6.6-12.5,7.5-16.8C547,142.2,556.3,137.9,565.4,137.9 M565.4,129.3c-14.1,0-29.9,8.4-29.9,11.9
				c0,11.5-40.1,57.3,0,57.3c28.6,0,51.5-22.9,51.5-45.8C587,134.8,576.7,129.3,565.4,129.3L565.4,129.3z"/>
		</g>
		<path id="XMLID_101_" class="st1" d="M512.6,209.9h22.9c0,0,22.9-11.5,22.9-57.3c0-22.9,5.7-28.6,5.7-34.4s-40.1-5.7-40.1-5.7
			s-40.1,0-40.1,5.7s5.7,11.5,5.7,34.4C489.7,198.5,512.6,209.9,512.6,209.9z"/>
		<linearGradient id="XMLID_107_" gradientUnits="userSpaceOnUse" x1="564.0997" y1="161.3262" x2="502.3571" y2="161.3262">
			<stop  offset="0" style="stop-color:#FFFFFF;stop-opacity:0.5"/>
			<stop  offset="1" style="stop-color:#FFFFFF;stop-opacity:0"/>
		</linearGradient>
		<path id="XMLID_100_" class="st5" d="M529.7,204.2c0,0,28.6,5.7,28.6-51.5c0-17.2,5.7-28.6,5.7-34.4c-34.4,0-28.6,74.4-28.6,74.4
			s-14.3-31.5-28.6-17.2C495.4,187,506.8,204.2,529.7,204.2z"/>
		<path id="XMLID_99_" class="st1" d="M535.5,209.9h-22.9l-22.9,11.5c0,11.5,34.4,11.5,34.4,11.5s34.4,0,34.4-11.5L535.5,209.9z"/>
		<linearGradient id="XMLID_108_" gradientUnits="userSpaceOnUse" x1="555.8559" y1="229.9474" x2="506.8491" y2="229.9474">
			<stop  offset="0" style="stop-color:#FFFFFF;stop-opacity:0.5"/>
			<stop  offset="1" style="stop-color:#FFFFFF;stop-opacity:0"/>
		</linearGradient>
		<path id="XMLID_98_" class="st6" d="M533,215.6c-11.5,0-26.1,0-26.1,11.5s26.1,17.2,26.1,17.2s22.9-5.7,22.9-17.2
			C555.9,221.4,544.4,215.6,533,215.6z"/>
		
			<rect id="XMLID_97_" x="547.5" y="159" transform="matrix(0.7071 0.7072 -0.7072 0.7071 274.2444 -341.2021)" class="st0" width="2.9" height="2.9"/>
		
			<rect id="XMLID_96_" x="496" y="134.1" transform="matrix(0.7071 0.7071 -0.7071 0.7071 241.4933 -312.0487)" class="st0" width="2.9" height="2.9"/>
		
			<rect id="XMLID_95_" x="537.7" y="223.6" transform="matrix(0.7072 0.707 -0.707 0.7072 317.0196 -315.3181)" class="st0" width="2.9" height="2.9"/>
		
			<rect id="XMLID_94_" x="537.7" y="172.1" transform="matrix(0.7072 0.707 -0.707 0.7072 280.5884 -330.4066)" class="st0" width="2.9" height="2.9"/>
		<g id="XMLID_88_" class="st3">
			<path id="XMLID_174_" class="st1" d="M564.1,106.9c0,11.5-14.8,20.3-40.1,20.3c-25.3,0-40.1-8.8-40.1-20.3
				c0-6.3,40.1,8.8,40.1,8.8S564.1,100.5,564.1,106.9z"/>
		</g>
		<g id="XMLID_87_" class="st3">
			<path id="XMLID_175_" class="st1" d="M546.9,95.4c0,6.3,2.4,31.7-22.9,31.7c-25.3,0-22.9-25.4-22.9-31.7s22.9,11.5,22.9,11.5
				S546.9,89.1,546.9,95.4z"/>
		</g>
		<polygon id="XMLID_79_" class="st1" points="532.1,89.7 524,97.8 515.9,89.7 		"/>
	</g>
	<g id="XMLID_30_">
		<g id="XMLID_78_" class="st3">
			<path id="XMLID_176_" class="st1" d="M368.2,85.3c0,0-5.7,34.4-40.1,34.4s-40.1-34.4-40.1-34.4l40.1,28.6L368.2,85.3z"/>
		</g>
		<g id="XMLID_77_" class="st3">
			<path id="XMLID_177_" class="st1" d="M351.1,85.3c0,0-17.2,45.8-22.9,45.8s-22.9-45.8-22.9-45.8s22.9,5.7,22.9,17.2
				C328.2,91.1,351.1,85.3,351.1,85.3z"/>
		</g>
		<g id="XMLID_75_" class="st3">
			<path id="XMLID_178_" class="st1" d="M385.4,91.1c0,0-5.7,34.4-57.3,34.4s-57.3-34.4-57.3-34.4l57.3,21.1L385.4,91.1z"/>
		</g>
		<g id="XMLID_8_">
			<path id="XMLID_11_" class="st0" d="M311,234.2c0,0-63-28.6-63-74.4c0-51.5,57.3-35.8,57.3-22.9C305.3,148.3,311,234.2,311,234.2
				z"/>
			<path id="XMLID_7_" class="st1" d="M279.1,124.1v8.6h0c9,0,15.8,3.6,17.6,5.4c0.2,11.2,3.1,56.7,4.7,81.1
				c-17.1-10.5-44.8-31.7-44.8-59.4c0-22.4,12.2-27.1,22.5-27.1L279.1,124.1 M279.1,124.1c-15.1,0-31.1,8.4-31.1,35.7
				c0,45.8,63,74.4,63,74.4s-5.7-85.9-5.7-97.3C305.3,130.8,292.5,124.1,279.1,124.1L279.1,124.1z"/>
		</g>
		<g id="XMLID_3_">
			<path id="XMLID_6_" class="st0" d="M345.3,234.2c0,0,63-28.6,63-74.4s-57.3-34.4-57.3-22.9S345.3,234.2,345.3,234.2z"/>
			<path id="XMLID_2_" class="st1" d="M375.2,135.2c11.2,0,24.6,4.3,24.6,24.6c0,27.6-27.7,48.9-44.8,59.4c1.6-23.9,4.4-68,4.7-80.3
				C361.7,137.4,367.5,135.2,375.2,135.2 M375.2,126.6c-12.7,0-24.1,5.1-24.1,10.2c0,11.5-5.7,97.3-5.7,97.3s63-28.6,63-74.4
				C408.3,134.5,390.8,126.6,375.2,126.6L375.2,126.6z"/>
		</g>
		<path id="XMLID_71_" class="st1" d="M311,234.2h34.4c0,0,34.4-22.9,34.4-68.7c0-11.5-11.5-17.2-11.5-28.6
			c0-11,11.5-19.7,11.5-22.9c0-5.7-51.5-5.7-51.5-5.7s-51.5,0-51.5,5.7c0,3.2,11.5,11.9,11.5,22.9c0,11.5-11.5,17.2-11.5,28.6
			C276.6,211.3,311,234.2,311,234.2z"/>
		<linearGradient id="XMLID_109_" gradientUnits="userSpaceOnUse" x1="340.92" y1="234.1995" x2="340.92" y2="113.973">
			<stop  offset="0" style="stop-color:#FFFFFF;stop-opacity:0.5"/>
			<stop  offset="1" style="stop-color:#FFFFFF;stop-opacity:0"/>
		</linearGradient>
		<path id="XMLID_70_" class="st7" d="M345.3,234.2c0,0,34.4-22.9,34.4-68.7c0-11.5-11.5-17.2-11.5-28.6c0-11.2,11.5-19.3,11.5-22.9
			c-80.2,0-28.6,91.6-28.6,91.6s-28.6-34.4-45.8-11.5C294.9,207.9,311,234.2,345.3,234.2z"/>
		<path id="XMLID_69_" class="st1" d="M345.3,234.2H311l-34.4,34.4c0,11.5,51.5,11.5,51.5,11.5s51.5,0,51.5-11.5L345.3,234.2z"/>
		<linearGradient id="XMLID_110_" gradientUnits="userSpaceOnUse" x1="379.6765" y1="251.5573" x2="299.5256" y2="251.5573">
			<stop  offset="0" style="stop-color:#FFFFFF;stop-opacity:0.5"/>
			<stop  offset="1" style="stop-color:#FFFFFF;stop-opacity:0"/>
		</linearGradient>
		<path id="XMLID_65_" class="st8" d="M339.6,234.2c-11.5,0-40.1,5.7-40.1,17.2s40.1,17.2,40.1,17.2s40.1,3.5,40.1-11.5
			C379.7,251.4,351.1,234.2,339.6,234.2z"/>
		
			<rect id="XMLID_64_" x="336.1" y="166.1" transform="matrix(0.7071 0.7071 -0.7071 0.7071 217.3274 -189.6359)" class="st0" width="2.9" height="2.9"/>
		
			<rect id="XMLID_63_" x="336.1" y="116.2" transform="matrix(0.7072 0.7071 -0.7071 0.7072 182.0568 -204.2249)" class="st0" width="2.9" height="2.9"/>
		
			<rect id="XMLID_62_" x="353.3" y="166.1" transform="matrix(0.7071 0.7071 -0.7071 0.7071 222.3578 -201.7805)" class="st0" width="2.9" height="2.9"/>
		
			<rect id="XMLID_61_" x="370.5" y="166.1" transform="matrix(0.7071 0.7071 -0.7071 0.7071 227.3882 -213.9251)" class="st0" width="2.9" height="2.9"/>
		
			<rect id="XMLID_60_" x="347.6" y="252" transform="matrix(0.7071 0.7071 -0.7071 0.7071 281.404 -172.5803)" class="st0" width="2.9" height="2.9"/>
		
			<rect id="XMLID_59_" x="336.1" y="242.2" transform="matrix(0.7072 0.7071 -0.7071 0.7072 271.1129 -167.3416)" class="st0" width="2.9" height="2.9"/>
		
			<rect id="XMLID_58_" x="324.7" y="252" transform="matrix(0.7071 0.7071 -0.7071 0.7071 274.6969 -156.3875)" class="st0" width="2.9" height="2.9"/>
		
			<rect id="XMLID_57_" x="319.6" y="64.6" transform="matrix(0.7071 0.7071 -0.7071 0.7071 147.875 -210.5969)" class="st1" width="17.2" height="17.2"/>
		
			<rect id="XMLID_1_" x="325.3" y="70.3" transform="matrix(0.7071 0.7071 -0.7071 0.7071 147.8743 -210.5963)" class="st0" width="5.7" height="5.7"/>
	</g>
</g>
</svg>
