<?xml version="1.0" encoding="utf-8"?>
<!-- Generator: Adobe Illustrator 19.0.0, SVG Export Plug-In . SVG Version: 6.00 Build 0)  -->
<svg version="1.1" id="Layer_1" xmlns="http://www.w3.org/2000/svg" xmlns:xlink="http://www.w3.org/1999/xlink" x="0px" y="0px"
	 width="368.3px" height="160.5px" viewBox="0 0 368.3 160.5" style="enable-background:new 0 0 368.3 160.5;" xml:space="preserve"
	>
<style type="text/css">
	.st0{fill:#004071;}
	.st1{fill:#235413;}
	.st2{fill:#007DBE;}
	.st3{fill:#F26522;}
	.st4{fill:#66952E;}
	.st5{fill:#9E2718;}
	.st6{fill:#333132;}
</style>
<g>
	<polygon class="st0" points="0.1,80 0.1,140 20.1,160 40.1,160 20.1,80 	"/>
	<polygon class="st1" points="120.1,80 120.1,140 100.1,160 80.1,160 100.1,80 	"/>
	<rect x="4.1" y="50" transform="matrix(-0.7072 0.7071 -0.7071 -0.7072 66.5654 92.4285)" class="st2" width="20" height="20"/>
	<rect x="50" y="4.1" transform="matrix(-0.7071 0.7071 -0.7071 -0.7071 112.4252 -18.2869)" class="st3" width="20" height="20"/>
	<rect x="95.9" y="50" transform="matrix(-0.7071 0.7071 -0.7071 -0.7071 223.1371 27.5736)" class="st4" width="20" height="20"/>
	<polygon class="st5" points="70.1,160 90.1,40 30.1,40 50.1,160 	"/>
	<polygon class="st2" points="0.1,80 0.1,130 20.1,100 60.1,110 20.1,80 	"/>
	<polygon class="st4" points="120.1,130 120.1,80 100.1,110 60.1,100 100.1,130 	"/>
	<polygon class="st3" points="30.1,40 60.1,40 90.1,40 60.1,60 60.1,90 	"/>
	<g>
		<path class="st6" d="M183.1,76.3c0,2.2-0.2,4.1-0.6,5.8c-0.4,1.7-1.1,3.2-2,4.5c-0.9,1.2-2.2,2.2-3.6,2.9c-1.5,0.7-3.3,1-5.6,1
			c-2,0-3.8-0.3-5.3-0.9c-1.5-0.6-2.7-1.4-3.7-2.4c-1-1-1.7-2.2-2.1-3.6c-0.5-1.4-0.7-2.9-0.7-4.5l5.7-1.2c0,1,0.1,1.9,0.3,2.7
			c0.2,0.8,0.5,1.6,1,2.3c0.5,0.7,1.1,1.2,1.9,1.6c0.8,0.4,1.8,0.6,2.9,0.6c1.4,0,2.6-0.2,3.4-0.7c0.8-0.5,1.5-1.1,1.9-1.9
			c0.4-0.8,0.7-1.7,0.8-2.8c0.1-1.1,0.1-2.2,0.1-3.3c0-1.5-0.1-2.7-0.2-3.6c-0.1-0.9-0.5-1.8-0.9-2.4c-0.5-0.7-1.2-1.3-2.1-1.8
			c-0.9-0.5-2.1-1.1-3.6-1.7c-2.4-1-4.2-2-5.7-3.1c-1.4-1-2.5-2.1-3.3-3.2c-0.8-1.1-1.3-2.3-1.5-3.6c-0.2-1.3-0.4-2.7-0.4-4.2
			c0-1.9,0.2-3.7,0.7-5.3c0.5-1.6,1.2-3,2.2-4.2c1-1.2,2.2-2.1,3.7-2.7c1.5-0.6,3.2-1,5.2-1c2.2,0,4,0.3,5.5,1
			c1.5,0.7,2.6,1.5,3.5,2.6c0.9,1.1,1.5,2.3,1.9,3.6c0.4,1.3,0.5,2.6,0.5,3.8l-5.7,1.4c0-2.3-0.5-4-1.4-5.2
			c-0.9-1.2-2.5-1.8-4.7-1.8c-1.2,0-2.2,0.2-3,0.7c-0.7,0.5-1.3,1.1-1.8,1.8c-0.4,0.7-0.7,1.6-0.9,2.5c-0.1,0.9-0.2,1.8-0.2,2.7
			c0,1.1,0.1,2,0.2,2.8c0.1,0.8,0.4,1.5,1,2.2c0.5,0.7,1.3,1.4,2.3,2.1c1,0.7,2.5,1.4,4.4,2.1c2.2,0.9,3.9,1.8,5.2,2.7
			c1.3,0.9,2.3,2,2.9,3.1c0.7,1.2,1.1,2.4,1.3,3.9C183,72.9,183.1,74.5,183.1,76.3z"/>
		<path class="st6" d="M214.2,76.5c0,3.3-0.5,6-1.4,8.1l4,3.2l-2.8,3.5l-3.9-3.1c-1.9,1.5-4.4,2.2-7.5,2.2c-4.1,0-7.1-1.1-8.9-3.4
			c-1.8-2.3-2.7-5.2-2.7-8.9V53.5c0-1.8,0.2-3.5,0.5-5.2c0.3-1.7,0.9-3.2,1.7-4.5c0.8-1.3,2-2.4,3.5-3.2c1.5-0.8,3.4-1.2,5.8-1.2
			c2.5,0,4.5,0.3,6,1c1.5,0.7,2.7,1.7,3.5,2.9c0.8,1.2,1.4,2.7,1.6,4.4c0.3,1.7,0.4,3.5,0.4,5.5V76.5z M208.5,52.5
			c0-0.9-0.1-1.7-0.2-2.7c-0.1-0.9-0.4-1.7-0.8-2.5c-0.4-0.7-1-1.4-1.8-1.9c-0.8-0.5-1.8-0.8-3.1-0.8c-1.4,0-2.5,0.3-3.3,1
			c-0.8,0.7-1.3,1.5-1.7,2.5c-0.4,1-0.6,2-0.7,3c-0.1,1.1-0.1,2-0.1,2.7v24.2c0,0.7,0.1,1.5,0.2,2.3c0.1,0.8,0.4,1.6,0.9,2.3
			c0.4,0.7,1,1.3,1.8,1.8c0.7,0.5,1.7,0.7,2.9,0.7c1.2,0,2.3-0.2,3-0.6l-4.2-3.5l2.8-3.4l3.9,3.2c0.3-1.1,0.4-2.3,0.4-3.6V52.5z"/>
		<path class="st6" d="M246,40v36.6c0,4.5-0.9,7.9-2.6,10.3c-1.7,2.4-4.7,3.6-8.9,3.6c-4.1,0-7.1-1.1-8.9-3.4
			c-1.8-2.3-2.7-5.2-2.7-8.9V40h5.7v38.2c0,0.7,0.1,1.5,0.2,2.3c0.1,0.8,0.4,1.6,0.9,2.3c0.4,0.7,1,1.3,1.8,1.8
			c0.7,0.5,1.7,0.7,2.9,0.7c1.2,0,2.2-0.2,3-0.7c0.8-0.5,1.4-1.1,1.8-1.8c0.4-0.7,0.7-1.6,0.9-2.6c0.2-1,0.3-1.9,0.3-2.9V40H246z"/>
		<path class="st6" d="M274.3,90L272,78.8h-11.2L258.7,90h-5.5l10.7-50.1h5.3L280,90H274.3z M266.3,50.2l-2.1,11.7l-2.4,11.7h9.2
			l-2.4-11.9l-2-11.5H266.3z"/>
		<path class="st6" d="M299,39.9c3,0,5.3,0.5,7,1.5c1.7,1,2.9,2.8,3.6,5.2c0.5,2,0.8,4.5,0.8,7.5c0,3,0,6.6,0,10.7
			c0,4.1,0,7.6,0,10.5c0,2.9-0.3,5.3-0.9,7.2c-0.9,2.8-2.4,4.8-4.3,5.8c-2,1.1-4.2,1.6-6.8,1.6h-11V39.9H299z M304.8,52.4
			c0-2.3-0.5-4-1.4-5.3c-1-1.3-2.7-1.9-5.1-1.9h-5.1v39.6h5.1c2.4,0,4-0.6,5-1.9c1-1.3,1.5-3.1,1.5-5.5V52.4z"/>
	</g>
	<g>
		<path class="st6" d="M160.2,160v-50.1h5.7V160H160.2z"/>
		<path class="st6" d="M180.6,125.7V160h-5.7v-50.1h5.4l10.4,25.4l3.5,9.1l0.3-0.1v-34.5h5.7V160h-5.3l-10.4-25.2l-3.6-9.1H180.6z"
			/>
		<path class="st6" d="M236.7,115.1V160H231v-44.9h-8.5v-5.3h22.7v5.3H236.7z"/>
		<path class="st6" d="M274.6,146.5c0,4.5-0.9,7.9-2.6,10.3c-1.8,2.4-4.7,3.6-9,3.6c-4.1,0-7.1-1.1-8.8-3.4
			c-1.8-2.3-2.6-5.2-2.6-8.9v-24.7c0-1.8,0.2-3.5,0.5-5.2c0.3-1.7,0.9-3.2,1.7-4.5c0.8-1.3,2-2.4,3.5-3.2c1.5-0.8,3.4-1.2,5.8-1.2
			c2.5,0,4.5,0.3,6,1c1.5,0.7,2.7,1.7,3.5,2.9c0.8,1.2,1.4,2.7,1.6,4.4c0.3,1.7,0.4,3.5,0.4,5.5V146.5z M269,122.5
			c0-0.9-0.1-1.7-0.2-2.7c-0.1-0.9-0.4-1.7-0.8-2.5c-0.4-0.7-1-1.4-1.8-1.9c-0.8-0.5-1.8-0.8-3.1-0.8c-1.4,0-2.5,0.3-3.3,1
			c-0.8,0.7-1.3,1.5-1.7,2.5c-0.4,1-0.6,2-0.7,3c-0.1,1.1-0.1,2-0.1,2.7v24.2c0,0.7,0.1,1.5,0.2,2.3c0.1,0.8,0.4,1.6,0.9,2.3
			c0.4,0.7,1,1.3,1.8,1.8c0.7,0.5,1.7,0.7,2.9,0.7c1.2,0,2.2-0.2,3-0.7c0.8-0.5,1.4-1.1,1.8-1.8c0.4-0.7,0.7-1.6,0.9-2.5
			c0.2-1,0.3-1.9,0.3-2.9V122.5z"/>
		<path class="st6" d="M306.3,110v36.6c0,4.5-0.9,7.9-2.6,10.3c-1.7,2.4-4.7,3.6-8.9,3.6c-4.1,0-7.1-1.1-8.9-3.4
			c-1.8-2.3-2.7-5.2-2.7-8.9V110h5.7v38.2c0,0.7,0.1,1.5,0.2,2.3c0.1,0.8,0.4,1.6,0.9,2.3c0.4,0.7,1,1.3,1.8,1.8
			c0.7,0.5,1.7,0.7,2.9,0.7c1.2,0,2.2-0.2,3-0.7c0.8-0.5,1.4-1.1,1.8-1.8c0.4-0.7,0.7-1.6,0.9-2.6c0.2-1,0.3-1.9,0.3-2.9V110H306.3z
			"/>
		<path class="st6" d="M326.2,109.5c3.9,0,6.7,1.1,8.5,3.2c1.8,2.1,2.6,4.9,2.6,8.3l-5.7,1c0-2.2-0.3-4-1.2-5.3
			c-0.8-1.3-2.3-1.9-4.3-1.9c-1.2,0-2.1,0.3-2.8,0.8c-0.7,0.5-1.3,1.2-1.7,2c-0.4,0.8-0.7,1.7-0.8,2.6c-0.1,1-0.2,1.9-0.2,2.7v25.3
			c0,0.7,0.1,1.5,0.2,2.3c0.1,0.8,0.4,1.6,0.8,2.3c0.4,0.7,1,1.3,1.7,1.8c0.7,0.5,1.6,0.7,2.8,0.7c1.9,0,3.3-0.6,4.1-1.7
			c0.9-1.2,1.4-3,1.4-5.5l5.8,1c-0.1,3.6-1.1,6.4-2.9,8.4c-1.8,2-4.6,3-8.3,3c-3.8,0-6.6-1.1-8.5-3.2c-1.9-2.1-2.8-5.1-2.8-8.9
			v-24.8c0-1.8,0.2-3.5,0.5-5.2c0.3-1.7,0.9-3.2,1.7-4.5c0.8-1.3,2-2.4,3.5-3.2C322,109.9,323.9,109.5,326.2,109.5z"/>
		<path class="st6" d="M362.6,160v-23.1h-11.7V160h-5.7v-50.1h5.7v22h11.7v-22h5.7V160H362.6z"/>
	</g>
</g>
</svg>
