<?xml version="1.0" encoding="utf-8"?>
<!-- Generator: Adobe Illustrator 16.0.0, SVG Export Plug-In . SVG Version: 6.00 Build 0)  -->
<!DOCTYPE svg PUBLIC "-//W3C//DTD SVG 1.1//EN" "http://www.w3.org/Graphics/SVG/1.1/DTD/svg11.dtd">
<svg version="1.1" id="Layer_1" xmlns="http://www.w3.org/2000/svg" xmlns:xlink="http://www.w3.org/1999/xlink" x="0px" y="0px"
	 width="1140px" height="500px" viewBox="0 0 1140 500" enable-background="new 0 0 1140 500" xml:space="preserve">
<rect x="1.5" fill="#FFFFFF" width="1137" height="500"/>
<g>
	<path fill="#D8D8D8" d="M198.386,236c-19.613,0-38.049-7.636-51.917-21.504c-28.625-28.625-28.625-75.203,0-103.829l9.438,9.438
		c-23.419,23.422-23.419,61.531,0,84.952c11.348,11.346,26.433,17.594,42.479,17.594c16.045,0,31.128-6.248,42.474-17.594
		l9.44,9.438C236.434,228.363,217.996,236,198.386,236z"/>
	<path fill="#D8D8D8" d="M162.201,198.765c-19.952-19.951-19.952-52.416,0-72.368c19.949-19.952,52.416-19.952,72.365,0
		l-9.438,9.438c-14.748-14.746-38.741-14.746-53.49,0c-14.745,14.748-14.745,38.743,0,53.492L162.201,198.765z"/>
	<path fill="#D8D8D8" d="M218.839,183.033l-9.44-9.438c6.07-6.073,6.07-15.953,0-22.025c-6.072-6.07-15.953-6.07-22.026,0
		l-9.438-9.438c11.276-11.278,29.627-11.278,40.903,0C230.113,153.407,230.113,171.755,218.839,183.033z"/>
</g>
<g>
	<path fill="#D8D8D8" d="M127,274.096h16.945c6.509,0,11.481,1.815,14.925,5.443c3.439,3.63,5.161,8.697,5.161,15.205v37.367
		c0,7.481-1.815,13-5.442,16.552c-3.629,3.554-8.847,5.331-15.653,5.331H127V274.096z M138.446,343.222h5.273
		c3.216,0,5.498-0.804,6.845-2.413c1.348-1.607,2.021-4.133,2.021-7.575v-38.489c0-3.142-0.636-5.572-1.907-7.294
		c-1.272-1.721-3.591-2.581-6.958-2.581h-5.273V343.222z"/>
	<path fill="#D8D8D8" d="M177.205,274.096h34.115v10.773h-22.669v23.453H208.4v10.773h-19.749v23.451h22.669v11.447h-34.115V274.096
		z"/>
	<path fill="#D8D8D8" d="M225.117,274.096h10.998l17.28,48.141h0.224v-48.141h11.445v79.898h-10.771l-17.507-48.028h-0.225v48.028
		h-11.445V274.096z"/>
	<path fill="#D8D8D8" d="M316.584,294.818h-11.446v-0.299c0-2.617-0.616-4.881-1.852-6.789c-1.234-1.908-3.31-2.861-6.227-2.861
		c-1.572,0-2.863,0.299-3.872,0.898c-1.01,0.599-1.797,1.365-2.357,2.3c-0.561,0.936-0.952,2.02-1.178,3.255
		c-0.225,1.233-0.337,2.524-0.337,3.87c0,1.571,0.056,2.901,0.17,3.984c0.11,1.085,0.393,2.02,0.841,2.806
		c0.448,0.785,1.103,1.478,1.964,2.076c0.858,0.6,2.038,1.197,3.534,1.795l8.753,3.479c2.541,0.974,4.601,2.114,6.171,3.423
		c1.571,1.31,2.788,2.843,3.648,4.601c0.858,1.758,1.439,3.777,1.739,6.06c0.297,2.282,0.448,4.882,0.448,7.8
		c0,3.365-0.336,6.49-1.009,9.369c-0.675,2.881-1.778,5.35-3.312,7.406c-1.533,2.059-3.572,3.686-6.115,4.881
		c-2.545,1.195-5.649,1.795-9.313,1.795c-2.771,0-5.351-0.486-7.744-1.458c-2.394-0.971-4.451-2.3-6.171-3.983
		c-1.723-1.684-3.087-3.684-4.096-6.003c-1.01-2.319-1.516-4.826-1.516-7.519v-1.982h11.445v1.308c0,2.096,0.617,3.985,1.853,5.669
		c1.234,1.683,3.31,2.524,6.229,2.524c1.943,0,3.459-0.28,4.544-0.842c1.083-0.562,1.907-1.347,2.47-2.357
		c0.56-1.009,0.915-2.262,1.065-3.759c0.148-1.496,0.224-3.142,0.224-4.938c0-2.094-0.075-3.814-0.224-5.162
		c-0.15-1.346-0.468-2.43-0.955-3.254c-0.487-0.822-1.16-1.496-2.019-2.02c-0.861-0.523-2.004-1.084-3.422-1.684l-8.192-3.366
		c-4.938-2.02-8.249-4.693-9.932-8.024c-1.684-3.326-2.524-7.498-2.524-12.512c0-2.991,0.41-5.835,1.234-8.528
		c0.822-2.692,2.036-5.011,3.647-6.956c1.607-1.945,3.646-3.498,6.114-4.658c2.469-1.159,5.348-1.738,8.642-1.738
		c2.842,0,5.443,0.523,7.798,1.57c2.357,1.049,4.378,2.433,6.062,4.151c1.683,1.722,2.973,3.647,3.869,5.78
		c0.899,2.131,1.348,4.319,1.348,6.564V294.818z"/>
	<path fill="#D8D8D8" d="M342.262,274.096h9.537l17.845,79.898h-11.446l-3.367-17.17h-15.598l-3.366,17.17h-11.445L342.262,274.096z
		 M347.088,297.101h-0.226l-5.609,28.951h11.446L347.088,297.101z"/>
	<path fill="#D8D8D8" d="M380.863,274.096h18.403c13.466,0,20.198,7.819,20.198,23.453c0,4.64-0.729,8.625-2.188,11.951
		c-1.459,3.33-4.022,6.004-7.687,8.023l12.344,36.471h-12.12l-10.661-34.114h-6.843v34.114h-11.447V274.096z M392.311,309.781h6.507
		c2.021,0,3.628-0.281,4.825-0.842c1.196-0.562,2.113-1.363,2.75-2.412c0.635-1.047,1.066-2.338,1.29-3.872
		c0.226-1.532,0.337-3.311,0.337-5.33c0-2.021-0.111-3.796-0.337-5.33c-0.224-1.532-0.692-2.843-1.403-3.928
		s-1.702-1.888-2.974-2.413c-1.271-0.521-2.955-0.785-5.049-0.785h-5.946V309.781z"/>
</g>
<g>
	<path fill="#D8D8D8" d="M127.981,374.088h4.214c1.619,0,2.856,0.451,3.712,1.354s1.284,2.162,1.284,3.781v9.294
		c0,1.86-0.451,3.233-1.354,4.116c-0.903,0.885-2.2,1.326-3.894,1.326h-3.963V374.088z M130.828,391.279h1.312
		c0.8,0,1.367-0.199,1.702-0.6s0.503-1.027,0.503-1.884v-9.573c0-0.781-0.158-1.386-0.475-1.814
		c-0.316-0.428-0.894-0.641-1.73-0.641h-1.312V391.279z"/>
	<path fill="#D8D8D8" d="M150.313,374.088h8.484v2.68h-5.638v5.832h4.912v2.68h-4.912v5.833h5.638v2.847h-8.484V374.088z"/>
	<path fill="#D8D8D8" d="M179.106,389.27c0,0.652-0.111,1.271-0.335,1.856c-0.224,0.587-0.544,1.103-0.963,1.55
		c-0.419,0.445-0.926,0.8-1.521,1.061c-0.596,0.26-1.275,0.391-2.038,0.391c-0.911,0-1.67-0.2-2.274-0.601
		c-0.604-0.399-1.084-0.796-1.438-1.187l2.233-1.785c0.204,0.204,0.441,0.376,0.711,0.516s0.554,0.209,0.852,0.209
		c0.167,0,0.363-0.031,0.586-0.098c0.224-0.064,0.433-0.186,0.628-0.362s0.363-0.419,0.503-0.726s0.209-0.712,0.209-1.215v-14.791
		h2.847V389.27z"/>
	<path fill="#D8D8D8" d="M202.472,389.494c0,0.65-0.121,1.256-0.363,1.813c-0.241,0.558-0.572,1.046-0.99,1.466
		c-0.419,0.418-0.907,0.748-1.466,0.99c-0.558,0.242-1.153,0.363-1.786,0.363s-1.228-0.121-1.786-0.363
		c-0.558-0.242-1.046-0.572-1.465-0.99c-0.419-0.42-0.749-0.908-0.991-1.466s-0.362-1.163-0.362-1.813v-15.406h2.847v15.127
		c0,0.707,0.167,1.228,0.502,1.562s0.754,0.502,1.256,0.502c0.503,0,0.921-0.167,1.256-0.502s0.503-0.855,0.503-1.562v-15.127h2.847
		V389.494z"/>
	<path fill="#D8D8D8" d="M247.995,379.809h-2.847v-0.642c0-0.651-0.153-1.214-0.461-1.688c-0.307-0.475-0.823-0.711-1.549-0.711
		c-0.391,0-0.712,0.074-0.963,0.223s-0.446,0.34-0.586,0.572s-0.237,0.502-0.293,0.809c-0.056,0.308-0.084,0.629-0.084,0.963
		c0,0.391,0.014,0.722,0.042,0.991c0.028,0.271,0.098,0.503,0.209,0.698c0.112,0.195,0.274,0.367,0.489,0.516
		c0.213,0.149,0.506,0.299,0.879,0.447l2.177,0.865c0.632,0.242,1.145,0.525,1.535,0.851c0.391,0.326,0.692,0.708,0.907,1.145
		c0.213,0.438,0.357,0.939,0.433,1.507c0.073,0.568,0.111,1.215,0.111,1.939c0,0.838-0.084,1.615-0.251,2.331
		c-0.168,0.716-0.442,1.33-0.823,1.842c-0.382,0.513-0.889,0.917-1.521,1.214c-0.633,0.298-1.405,0.447-2.316,0.447
		c-0.688,0-1.33-0.121-1.926-0.363s-1.107-0.572-1.535-0.99c-0.428-0.42-0.768-0.917-1.019-1.494
		c-0.251-0.576-0.377-1.199-0.377-1.869v-1.061h2.847v0.893c0,0.521,0.153,0.99,0.461,1.41c0.307,0.418,0.823,0.627,1.549,0.627
		c0.483,0,0.86-0.069,1.13-0.209s0.475-0.335,0.614-0.586c0.14-0.252,0.228-0.562,0.266-0.936c0.037-0.371,0.056-0.781,0.056-1.228
		c0-0.521-0.019-0.948-0.056-1.284c-0.038-0.334-0.117-0.604-0.237-0.809c-0.121-0.205-0.289-0.373-0.503-0.503
		s-0.498-0.27-0.851-0.419l-2.038-0.837c-1.228-0.503-2.051-1.167-2.47-1.995s-0.628-1.865-0.628-3.112
		c0-0.743,0.103-1.451,0.307-2.121c0.205-0.67,0.507-1.246,0.907-1.73c0.4-0.483,0.907-0.869,1.521-1.158
		c0.614-0.288,1.33-0.433,2.148-0.433c0.707,0,1.354,0.131,1.94,0.391c0.586,0.262,1.088,0.605,1.507,1.033s0.739,0.906,0.963,1.438
		c0.224,0.529,0.335,1.074,0.335,1.633V379.809z"/>
	<path fill="#D8D8D8" d="M264.322,376.768h-3.294v-2.68h9.434v2.68h-3.293v17.191h-2.847V376.768z"/>
	<path fill="#D8D8D8" d="M293.065,389.494c0,0.65-0.121,1.256-0.363,1.813c-0.241,0.558-0.572,1.046-0.99,1.466
		c-0.419,0.418-0.907,0.748-1.466,0.99c-0.558,0.242-1.153,0.363-1.786,0.363s-1.228-0.121-1.786-0.363
		c-0.558-0.242-1.046-0.572-1.465-0.99c-0.419-0.42-0.749-0.908-0.991-1.466s-0.362-1.163-0.362-1.813v-15.406h2.847v15.127
		c0,0.707,0.167,1.228,0.502,1.562s0.754,0.502,1.256,0.502c0.503,0,0.921-0.167,1.256-0.502s0.503-0.855,0.503-1.562v-15.127h2.847
		V389.494z"/>
	<path fill="#D8D8D8" d="M307.243,374.088h4.214c1.619,0,2.856,0.451,3.712,1.354s1.284,2.162,1.284,3.781v9.294
		c0,1.86-0.451,3.233-1.354,4.116c-0.903,0.885-2.2,1.326-3.894,1.326h-3.963V374.088z M310.09,391.279h1.312
		c0.8,0,1.367-0.199,1.702-0.6s0.503-1.027,0.503-1.884v-9.573c0-0.781-0.158-1.386-0.475-1.814
		c-0.316-0.428-0.894-0.641-1.73-0.641h-1.312V391.279z"/>
	<path fill="#D8D8D8" d="M330.637,374.088h2.847v19.871h-2.847V374.088z"/>
	<path fill="#D8D8D8" d="M354.241,389.27c0,0.652-0.111,1.271-0.335,1.856c-0.224,0.587-0.544,1.103-0.963,1.55
		c-0.419,0.445-0.926,0.8-1.521,1.061c-0.596,0.26-1.275,0.391-2.038,0.391c-0.911,0-1.67-0.2-2.274-0.601
		c-0.604-0.399-1.084-0.796-1.438-1.187l2.233-1.785c0.204,0.204,0.441,0.376,0.711,0.516s0.554,0.209,0.852,0.209
		c0.167,0,0.363-0.031,0.586-0.098c0.224-0.064,0.433-0.186,0.628-0.362s0.363-0.419,0.503-0.726s0.209-0.712,0.209-1.215v-14.791
		h2.847V389.27z"/>
	<path fill="#D8D8D8" d="M370.751,374.088h2.372l4.438,19.871h-2.848l-0.837-4.27h-3.879l-0.838,4.27h-2.847L370.751,374.088z
		 M371.951,379.809h-0.056l-1.396,7.201h2.847L371.951,379.809z"/>
</g>
</svg>
