<?xml version="1.0" encoding="utf-8"?>
<!-- Generator: Adobe Illustrator 16.0.0, SVG Export Plug-In . SVG Version: 6.00 Build 0)  -->
<!DOCTYPE svg PUBLIC "-//W3C//DTD SVG 1.1//EN" "http://www.w3.org/Graphics/SVG/1.1/DTD/svg11.dtd">
<svg version="1.1" id="Слой_5__x28_копия2_x29_"
	 xmlns="http://www.w3.org/2000/svg" xmlns:xlink="http://www.w3.org/1999/xlink" x="0px" y="0px" width="238.333px"
	 height="49.5px" viewBox="0 0 238.333 49.5" enable-background="new 0 0 238.333 49.5" xml:space="preserve">
<linearGradient id="SVGID_1_" gradientUnits="userSpaceOnUse" x1="145.6782" y1="8.5" x2="145.6782" y2="43.1112">
	<stop  offset="0" style="stop-color:#FF5F4A"/>
	<stop  offset="1" style="stop-color:#EA5444"/>
</linearGradient>
<path fill="url(#SVGID_1_)" d="M62.944,19.984c-0.191-0.409-0.41-0.792-0.82-1.147c-0.547-0.438-1.203-0.656-1.968-0.656
	c-1.722,0-2.569,1.012-2.569,2.186c0,0.575,0.191,1.478,1.968,2.215l1.831,0.738c3.362,1.394,4.292,3.252,4.292,5.356
	c0,3.472-2.46,5.849-5.876,5.849c-2.104,0-3.334-0.765-4.292-1.83c-0.983-1.095-1.421-2.269-1.53-3.554l2.761-0.601
	c0,0.901,0.328,1.749,0.765,2.322c0.519,0.656,1.285,1.094,2.378,1.094c1.722,0,3.006-1.202,3.006-3.062
	c0-1.858-1.421-2.597-2.624-3.116l-1.749-0.737c-1.503-0.656-3.717-1.859-3.717-4.619c0-2.46,1.914-4.811,5.33-4.811
	c1.967,0,3.088,0.711,3.662,1.229c0.52,0.438,0.984,1.065,1.394,1.832L62.944,19.984z M95.469,25.068
	c0,5.357-4.018,9.456-9.484,9.456c-5.466,0-9.484-4.099-9.484-9.456s4.018-9.457,9.484-9.457
	C91.451,15.611,95.469,19.711,95.469,25.068z M92.681,25.068c0-4.046-2.76-6.888-6.696-6.888s-6.697,2.842-6.697,6.888
	c0,4.045,2.761,6.888,6.697,6.888S92.681,29.113,92.681,25.068z M107.167,34.17V14.709l13.229,13.857V15.939h2.788v19.352
	l-13.229-13.858V34.17H107.167z M145.186,24.686h7.516v0.137c0,3.144-0.928,5.63-2.705,7.38c-1.885,1.831-4.127,2.322-6.204,2.322
	c-2.651,0-4.537-0.736-6.204-2.486c-1.777-1.859-2.707-4.264-2.707-6.888c0-2.844,1.121-5.275,2.652-6.806
	c1.557-1.612,4.018-2.733,6.859-2.733c1.641,0,3.336,0.354,4.756,1.148c1.531,0.847,2.434,1.886,2.953,2.731l-2.215,1.559
	c-0.547-0.765-1.367-1.559-2.242-2.077c-1.01-0.628-2.104-0.792-3.225-0.792c-2.377,0-3.908,0.983-4.811,1.887
	c-1.201,1.202-1.939,3.142-1.939,5.11c0,1.858,0.683,3.663,1.886,4.947c1.284,1.34,2.815,1.831,4.563,1.831
	c1.613,0,2.896-0.438,4.074-1.613c1.01-0.983,1.42-2.021,1.529-3.088h-4.537V24.686z M167.188,15.939v15.606h5.357v2.624h-8.145
	v-18.23H167.188z M186.157,15.939v18.23h-2.787v-18.23H186.157z M198.731,34.17V14.709l13.229,13.857V15.939h2.787v19.352
	l-13.229-13.858V34.17H198.731z M237.377,18.563h-7.27v4.618h7.051v2.624h-7.051v5.74h7.27v2.624h-10.059v-18.23h10.059V18.563z"/>
<g id="Слой_3">
	<linearGradient id="SVGID_2_" gradientUnits="userSpaceOnUse" x1="20.2148" y1="3.375" x2="20.2148" y2="48.4568">
		<stop  offset="0" style="stop-color:#FF5F4A"/>
		<stop  offset="1" style="stop-color:#EA5444"/>
	</linearGradient>
	<path fill="url(#SVGID_2_)" d="M4.936,20.601l0.004-0.304c0.051-4.15,1.69-8.046,4.614-10.971
		c2.918-2.919,6.808-4.558,10.951-4.614l0.304-0.004v0.304v1.359v0.296l-0.295,0.004c-3.617,0.054-7.016,1.49-9.57,4.045
		c-2.56,2.56-3.997,5.965-4.045,9.589l-0.004,0.296H6.598H5.239H4.936z M11.773,11.546c-2.333,2.332-3.645,5.439-3.696,8.75
		l-0.005,0.305h0.305h1.359h0.295l0.005-0.295c0.049-2.786,1.159-5.403,3.126-7.37c1.963-1.963,4.574-3.073,7.352-3.126l0.294-0.006
		V9.51v-1.36V7.845L20.504,7.85C17.201,7.906,14.101,9.219,11.773,11.546z M6.505,33.865C-0.667,26.24-0.508,14.117,6.918,6.691
		c3.68-3.681,8.58-5.707,13.798-5.707c5.022,0,9.77,1.886,13.402,5.318l0.01-0.009l0.202,0.202l0.992,0.993l0.212,0.212
		l-0.212,0.212L8.14,35.096l-0.212,0.213l-0.212-0.213l-0.739-0.741l-0.056-0.054l-0.05-0.054l-0.146-0.146L6.5,33.87L6.505,33.865z
		 M8.308,8.08c-6.667,6.668-6.82,17.555-0.396,24.411l6.622-6.622c-2.831-3.249-2.68-8.102,0.392-11.173
		c1.545-1.545,3.604-2.396,5.794-2.396c1.99,0,3.888,0.711,5.378,2.007l6.622-6.623c-3.265-3.061-7.515-4.742-12.002-4.742
		C16.029,2.941,11.623,4.767,8.308,8.08z M20.72,14.262c-1.664,0-3.229,0.647-4.406,1.824c-2.297,2.297-2.444,5.924-0.388,8.39
		l1.925-1.925c-0.991-1.385-0.849-3.335,0.372-4.555c0.666-0.666,1.552-1.032,2.495-1.032c0.742,0,1.463,0.232,2.061,0.66
		l1.925-1.924C23.586,14.771,22.184,14.262,20.72,14.262z M20.719,18.928c-0.418,0-0.811,0.162-1.106,0.457
		c-0.459,0.46-0.578,1.155-0.328,1.732l2.061-2.06C21.15,18.972,20.938,18.928,20.719,18.928z M35.189,29.4h-1.358h-0.296
		l-0.004,0.296c-0.05,3.624-1.487,7.028-4.045,9.588c-2.555,2.555-5.954,3.991-9.571,4.045l-0.295,0.004v0.296v1.359v0.304
		l0.304-0.004c4.142-0.056,8.031-1.694,10.952-4.613c2.923-2.925,4.562-6.82,4.614-10.971l0.004-0.304H35.189z M28.655,38.455
		c2.333-2.332,3.646-5.439,3.697-8.75l0.005-0.305h-0.305h-1.36h-0.295l-0.005,0.295c-0.049,2.785-1.159,5.402-3.127,7.37
		c-1.962,1.962-4.572,3.072-7.352,3.126l-0.294,0.006v0.294v1.36v0.306l0.305-0.006C23.228,42.094,26.328,40.781,28.655,38.455z
		 M33.51,43.309c-3.68,3.681-8.58,5.707-13.798,5.707c-5.018,0-9.762-1.883-13.393-5.309L6.31,43.716l-0.212-0.212l-0.992-0.992
		L4.894,42.3l0.212-0.212l27.183-27.183l0.212-0.213l0.212,0.213l0.796,0.799l0,0.001l0.049,0.047l0.146,0.146l0.208,0.216
		l-0.003,0.004C41.097,23.742,40.942,35.877,33.51,43.309z M32.12,41.92c6.667-6.668,6.82-17.554,0.396-24.41l-6.621,6.621
		c2.83,3.249,2.68,8.102-0.392,11.173C23.958,36.85,21.9,37.7,19.709,37.7c-1.989,0-3.888-0.71-5.378-2.006l-6.622,6.622
		c3.265,3.061,7.515,4.742,12.002,4.742C24.399,47.059,28.806,45.233,32.12,41.92z M19.708,35.738c1.664,0,3.229-0.647,4.406-1.824
		c2.297-2.297,2.444-5.924,0.388-8.39l-1.925,1.925c0.991,1.384,0.849,3.335-0.372,4.555c-0.666,0.666-1.552,1.032-2.496,1.032
		c-0.741,0-1.463-0.232-2.06-0.659l-1.924,1.924C16.842,35.23,18.245,35.738,19.708,35.738z M21.144,28.883l-2.061,2.061
		c0.196,0.085,0.408,0.13,0.627,0.13c0.417,0,0.81-0.163,1.105-0.458C21.274,30.155,21.392,29.46,21.144,28.883z"/>
</g>
</svg>
