<?xml version="1.0" encoding="utf-8"?>
<!-- Generator: Adobe Illustrator 16.0.0, SVG Export Plug-In . SVG Version: 6.00 Build 0)  -->
<!DOCTYPE svg PUBLIC "-//W3C//DTD SVG 1.1//EN" "http://www.w3.org/Graphics/SVG/1.1/DTD/svg11.dtd">
<svg version="1.1" id="Layer_1" xmlns="http://www.w3.org/2000/svg" xmlns:xlink="http://www.w3.org/1999/xlink" x="0px" y="0px"
	 width="1140px" height="650px" viewBox="0 0 1140 650" enable-background="new 0 0 1140 650" xml:space="preserve">
<rect x="-13.485" y="-7.492" fill="#C1272D" width="1158.605" height="664.358"/>
<g>
	<path fill="#FFFFFF" d="M918.68,567.137c-6.457,0-278.472,0-284.108,0c-6.456,0-12.917-6.457-12.916-12.914
		c0.002-6.457,0-452.631,0.002-458.446c0-6.457,6.458-12.914,12.914-12.914c6.458,0,227.719,0,284.108,0
		c8.215,0,12.914,6.457,12.914,12.914c0,5.814,0,451.989,0,458.446S925.138,567.137,918.68,567.137z"/>
	<path fill="#FFFFFF" d="M505.43,567.137c-6.458,0-278.472,0-284.108,0c-6.458,0-12.918-6.457-12.916-12.914
		s0-452.631,0.001-458.446c0.001-6.457,6.458-12.914,12.915-12.914c6.457,0,227.718,0,284.108,0c8.214,0,12.915,6.457,12.915,12.914
		c0,5.814,0,451.989,0,458.446S511.887,567.137,505.43,567.137z"/>
	<g>
		<polygon fill="#333333" points="905.764,331.457 857.337,212.002 799.226,189.403 754.024,189.403 692.683,212.002 
			682.997,318.542 647.483,318.542 695.911,437.998 754.022,460.598 799.224,460.598 860.564,437.998 870.251,331.457 		"/>
		<g display="none">
			<defs>
				<path id="SVGID_1_" d="M874.843,263.565c-22.309-0.983-40.105-19.327-40.105-41.876c0-6.747,1.63-13.1,4.459-18.748
					l-18.284-6.736c-3.551,7.763-5.547,16.389-5.547,25.484c0,33.878,27.463,61.341,61.342,61.341c0.769,0,1.532-0.03,2.294-0.058
					L874.843,263.565z"/>
			</defs>
			<clipPath id="SVGID_2_" display="inline">
				<use xlink:href="#SVGID_1_"  overflow="visible"/>
			</clipPath>
			<g display="inline" clip-path="url(#SVGID_2_)">
				<polygon fill="#4D4D4D" points="828.279,247.517 831.509,244.288 825.052,237.83 818.594,244.288 821.823,247.517 
					825.052,244.288 				"/>
				<polygon fill="#4D4D4D" points="837.965,244.288 841.193,247.517 844.423,244.288 837.965,237.83 831.509,244.288 
					834.737,247.517 				"/>
				<polygon fill="#4D4D4D" points="821.823,234.603 825.052,237.83 828.279,234.603 821.823,228.145 815.365,234.603 
					818.594,237.83 				"/>
				<polygon fill="#4D4D4D" points="834.737,228.145 828.279,234.603 831.509,237.83 834.737,234.603 837.965,237.83 
					841.193,234.603 				"/>
				<polygon fill="#4D4D4D" points="818.594,218.459 812.138,224.917 815.365,228.145 818.594,224.917 821.823,228.145 
					825.052,224.917 				"/>
				<polygon fill="#4D4D4D" points="831.509,218.459 825.052,224.917 828.279,228.145 831.509,224.917 834.737,228.145 
					837.965,224.917 				"/>
				<polygon fill="#4D4D4D" points="828.279,208.774 821.823,215.231 825.052,218.459 828.279,215.231 831.509,218.459 
					834.737,215.231 				"/>
				<polygon fill="#4D4D4D" points="815.365,208.774 808.909,215.231 812.138,218.459 815.365,215.231 818.594,218.459 
					821.823,215.231 				"/>
				<polygon fill="#4D4D4D" points="825.052,199.089 818.594,205.545 821.823,208.774 825.052,205.545 828.279,208.774 
					831.509,205.545 				"/>
				<polygon fill="#4D4D4D" points="837.965,199.089 831.509,205.545 834.737,208.774 837.965,205.545 841.193,208.774 
					844.423,205.545 				"/>
				<polygon fill="#4D4D4D" points="834.737,247.517 828.279,253.973 831.509,257.202 834.737,253.973 837.965,257.202 
					841.193,253.973 				"/>
				<polygon fill="#4D4D4D" points="837.965,257.202 831.509,263.659 834.737,266.887 837.965,263.659 841.193,266.887 
					844.423,263.659 				"/>
				<polygon fill="#4D4D4D" points="815.365,253.973 818.594,257.202 821.823,253.973 825.052,257.202 828.279,253.973 
					821.823,247.517 				"/>
				<polygon fill="#4D4D4D" points="847.651,253.973 850.879,257.202 854.107,253.973 847.651,247.517 841.193,253.973 
					844.423,257.202 				"/>
				<polygon fill="#4D4D4D" points="847.651,266.887 850.879,263.659 854.107,266.887 857.337,263.659 850.879,257.202 
					844.423,263.659 				"/>
				<polygon fill="#4D4D4D" points="870.251,276.573 873.479,273.344 867.021,266.887 860.564,273.344 863.793,276.573 
					867.021,273.344 				"/>
				<polygon fill="#4D4D4D" points="883.164,276.573 886.393,273.344 879.937,266.887 873.479,273.344 876.707,276.573 
					879.937,273.344 				"/>
				<polygon fill="#4D4D4D" points="857.337,283.029 860.564,286.258 863.793,283.029 867.021,286.258 870.251,283.029 
					863.793,276.573 				"/>
				<polygon fill="#4D4D4D" points="873.479,286.258 876.707,283.029 879.937,286.258 883.164,283.029 876.707,276.573 
					870.251,283.029 				"/>
				<polygon fill="#4D4D4D" points="863.793,263.659 867.021,266.887 870.251,263.659 863.793,257.202 857.337,263.659 
					860.564,266.887 				"/>
				<polygon fill="#4D4D4D" points="876.707,263.659 879.937,266.887 883.164,263.659 876.707,257.202 870.251,263.659 
					873.479,266.887 				"/>
				<polygon fill="#4D4D4D" points="834.737,273.344 837.965,276.573 841.193,273.344 844.423,276.573 847.651,273.344 
					841.193,266.887 				"/>
				<polygon fill="#4D4D4D" points="847.651,273.344 850.879,276.573 854.107,273.344 857.337,276.573 860.564,273.344 
					854.107,266.887 				"/>
			</g>
		</g>
		<polygon fill="#1A1A1A" points="850.879,205.545 847.651,208.774 844.423,212.002 837.965,212.002 837.965,218.459 
			831.509,218.459 831.506,224.917 825.052,224.917 825.052,231.374 818.594,231.374 818.594,237.83 812.138,237.83 
			812.138,244.288 805.68,244.288 805.68,250.743 799.224,250.745 799.224,257.202 792.766,257.202 792.766,263.659 786.31,263.659 
			786.312,270.115 779.853,270.116 779.853,276.573 776.624,273.344 773.393,276.705 773.396,270.116 766.942,270.116 
			766.938,263.659 760.485,263.658 760.481,257.202 754.028,257.202 754.024,250.745 747.563,250.738 747.567,244.288 
			741.116,244.291 741.11,237.83 734.657,237.832 734.653,231.374 728.194,231.367 728.196,224.917 721.741,224.917 
			721.739,218.459 715.282,218.462 715.282,212.002 708.816,211.997 705.597,208.776 702.368,205.545 776.624,176.49 		"/>
		<linearGradient id="SVGID_3_" gradientUnits="userSpaceOnUse" x1="776.624" y1="166.8037" x2="776.624" y2="253.9731">
			<stop  offset="0" style="stop-color:#4D4D4D"/>
			<stop  offset="1" style="stop-color:#1A1A1A"/>
		</linearGradient>
		<polygon fill="url(#SVGID_3_)" points="821.823,189.403 776.624,253.973 731.425,189.403 776.624,166.804 		"/>
		<polygon fill="#1A1A1A" points="799.224,144.204 776.624,137.747 754.024,144.204 741.11,173.261 776.624,218.459 
			812.138,173.261 		"/>
		<polygon fill="#808080" points="795.995,208.774 776.624,215.231 757.252,208.774 757.252,192.632 757.252,166.804 
			776.624,150.661 795.995,166.804 795.995,189.403 		"/>
		<polygon fill="#1A1A1A" points="724.968,253.973 699.141,228.145 699.141,396.027 724.968,396.027 		"/>
		<polygon fill="#1A1A1A" points="718.511,396.027 660.397,318.542 702.368,299.172 718.511,299.172 		"/>
		<polygon fill="#808080" points="799.226,144.204 776.626,137.747 754.026,144.204 750.796,131.291 757.255,134.519 
			760.481,124.833 770.169,131.291 776.626,121.604 783.083,131.291 792.766,124.833 795.997,134.519 802.452,131.291 		"/>
		<path fill="#1A1A1A" d="M834.739,222.061"/>
		<path fill="#1A1A1A" d="M750.798,354.057"/>
		<polygon fill="#1A1A1A" points="724.968,396.027 699.141,421.855 699.141,253.973 724.968,253.973 		"/>
		<path fill="#1A1A1A" d="M705.599,376.656"/>
		<path fill="#1A1A1A" d="M721.741,354.057"/>
		<g>
			<rect x="721.739" y="228.145" fill="#F2F2F2" width="3.229" height="3.229"/>
			<rect x="715.282" y="221.688" fill="#F2F2F2" width="3.229" height="3.229"/>
			<rect x="783.081" y="273.344" fill="#F2F2F2" width="3.229" height="3.229"/>
			<polygon fill="#F2F2F2" points="776.624,276.573 773.396,279.801 773.396,283.029 776.624,279.801 779.853,283.029 
				779.853,279.801 			"/>
			<rect x="766.938" y="273.344" fill="#F2F2F2" width="3.228" height="3.229"/>
			<rect x="760.481" y="266.887" fill="#F2F2F2" width="3.229" height="3.229"/>
			<rect x="754.024" y="260.43" fill="#F2F2F2" width="3.228" height="3.229"/>
			<rect x="747.567" y="253.973" fill="#F2F2F2" width="3.229" height="3.229"/>
			<rect x="741.11" y="247.517" fill="#F2F2F2" width="3.229" height="3.228"/>
			<rect x="734.653" y="241.059" fill="#F2F2F2" width="3.229" height="3.229"/>
			<rect x="728.196" y="234.603" fill="#F2F2F2" width="3.229" height="3.228"/>
			<rect x="708.825" y="215.231" fill="#F2F2F2" width="3.229" height="3.228"/>
			<rect x="702.368" y="208.774" fill="#F2F2F2" width="3.229" height="3.228"/>
			<rect x="789.538" y="266.887" fill="#F2F2F2" width="3.228" height="3.229"/>
			<rect x="795.995" y="260.43" fill="#F2F2F2" width="3.229" height="3.229"/>
			<rect x="802.452" y="253.973" fill="#F2F2F2" width="3.228" height="3.229"/>
			<rect x="808.909" y="247.517" fill="#F2F2F2" width="3.229" height="3.228"/>
			<rect x="815.365" y="241.059" fill="#F2F2F2" width="3.229" height="3.229"/>
			<rect x="821.823" y="234.603" fill="#F2F2F2" width="3.229" height="3.228"/>
			<rect x="828.279" y="228.145" fill="#F2F2F2" width="3.229" height="3.229"/>
			<rect x="834.737" y="221.688" fill="#F2F2F2" width="3.228" height="3.229"/>
			<rect x="841.193" y="215.231" fill="#F2F2F2" width="3.229" height="3.228"/>
			<rect x="847.651" y="208.774" fill="#F2F2F2" width="3.228" height="3.228"/>
		</g>
		<polygon fill="#666666" points="718.511,179.718 712.054,186.175 712.054,325 718.511,354.057 728.196,347.6 728.196,344.371 
			724.968,344.371 724.968,186.175 		"/>
		<linearGradient id="SVGID_4_" gradientUnits="userSpaceOnUse" x1="713.668" y1="179.7178" x2="713.668" y2="354.0571">
			<stop  offset="0" style="stop-color:#666666"/>
			<stop  offset="1" style="stop-color:#999999"/>
		</linearGradient>
		<polygon fill="url(#SVGID_4_)" points="718.511,179.718 712.054,186.175 712.054,344.371 708.825,344.371 708.825,347.6 
			718.511,354.057 718.511,334.686 		"/>
		<g>
			<g>
				
					<rect x="761.82" y="177.978" transform="matrix(0.7073 0.7069 -0.7069 0.7073 351.9966 -487.7649)" fill="#FFFFFF" width="6.459" height="6.459"/>
				<path fill="#4D4D4D" d="M765.05,187.234l-6.029-6.026l6.029-6.026l6.025,6.026L765.05,187.234z M761.942,181.208l3.107,3.104
					l3.104-3.104l-3.104-3.104L761.942,181.208z"/>
			</g>
			<polygon fill="#1A1A1A" points="773.396,179.718 757.252,176.49 760.481,173.261 770.166,173.261 			"/>
		</g>
		<g>
			<g>
				<polygon fill="#FFFFFF" points="787.648,186.175 783.081,181.054 787.648,176.49 792.214,181.054 				"/>
				<path fill="#4D4D4D" d="M787.648,187.727l-5.987-6.712l5.987-5.986l5.985,5.986L787.648,187.727z M784.501,181.095l3.147,3.528
					l3.145-3.528l-3.145-3.146L784.501,181.095z"/>
			</g>
			<polygon fill="#1A1A1A" points="795.995,176.49 779.853,179.718 783.081,173.261 792.766,173.261 			"/>
		</g>
		<polygon fill="#1A1A1A" points="708.825,334.686 728.196,334.686 734.653,305.628 708.825,305.628 702.368,315.315 		"/>
		<polygon fill="#999999" points="731.425,305.628 734.653,299.172 724.968,299.172 718.511,292.716 712.054,299.172 
			702.368,299.172 705.597,305.628 		"/>
		<polygon fill="#1A1A1A" points="792.766,199.089 783.081,192.632 776.624,195.86 770.166,192.632 760.481,199.089 
			766.938,199.089 773.396,199.089 776.62,199.089 783.081,199.089 		"/>
		<polygon fill="#999999" points="776.624,195.86 776.624,179.718 770.166,192.632 		"/>
		<path fill="#1A1A1A" d="M783.081,212.002l-3.229-3.228l3.229-3.229l-6.457-6.457l-6.458,6.457l3.229,3.229l-3.229,3.228
			l-16.142-22.6v12.915l9.686,25.828c0,0,3.229-6.457,12.914-6.457s12.914,6.457,12.914,6.457l9.686-25.828v-12.915L783.081,212.002
			z"/>
		<polygon fill="#1A1A1A" points="828.279,253.973 854.107,228.145 854.107,396.027 828.279,396.027 		"/>
		<polygon fill="#1A1A1A" points="776.624,302.401 750.796,276.573 750.796,312.086 750.796,331.457 750.796,373.428 776.624,347.6 
			802.452,373.428 802.452,331.457 802.452,312.086 802.452,276.573 		"/>
		<polygon fill="#B3B3B3" points="792.766,328.23 799.224,328.229 799.224,334.686 805.678,334.688 805.68,341.145 799.224,341.145 
			799.224,347.602 792.765,347.602 792.765,341.145 786.31,341.143 786.308,334.688 792.765,334.686 		"/>
		<polygon fill="#CCCCCC" points="760.481,321.769 754.024,321.772 754.024,315.315 747.569,315.313 747.567,308.855 
			754.024,308.855 754.024,302.399 760.483,302.399 760.483,308.855 766.938,308.858 766.939,315.313 760.483,315.315 		"/>
		<polygon fill="#E6E6E6" points="773.396,289.488 779.853,289.487 779.853,295.943 786.308,295.946 786.31,302.402 
			779.853,302.402 779.853,308.86 773.393,308.86 773.393,302.402 766.938,302.401 766.937,295.946 773.393,295.943 		"/>
		<polygon fill="#CCCCCC" points="773.396,315.315 779.853,315.313 779.853,321.769 786.308,321.772 786.31,328.229 
			779.853,328.229 779.853,334.686 773.393,334.686 773.393,328.229 766.938,328.227 766.937,321.772 773.393,321.769 		"/>
		<polygon fill="#B3B3B3" points="760.481,347.598 754.024,347.6 754.024,341.143 747.569,341.141 747.567,334.684 754.024,334.684 
			754.024,328.227 760.483,328.227 760.483,334.684 766.938,334.686 766.939,341.141 760.483,341.143 		"/>
		<polygon fill="#CCCCCC" points="792.766,302.402 799.224,302.401 799.224,308.858 805.678,308.86 805.68,315.316 799.224,315.316 
			799.224,321.774 792.765,321.774 792.765,315.316 786.31,315.315 786.308,308.86 792.765,308.858 		"/>
		<polygon fill="#E6E6E6" points="792.766,276.575 799.224,276.573 799.224,283.029 805.678,283.031 805.68,289.489 
			799.224,289.489 799.224,295.946 792.765,295.946 792.765,289.489 786.31,289.487 786.308,283.031 792.765,283.029 		"/>
		<polygon fill="#E6E6E6" points="754.026,276.575 760.483,276.573 760.483,283.029 766.938,283.031 766.939,289.489 
			760.483,289.489 760.483,295.946 754.024,295.946 754.024,289.489 747.569,289.487 747.567,283.031 754.024,283.029 		"/>
		<polygon fill="#4D4D4D" points="773.396,341.145 779.853,341.143 779.853,347.6 786.308,347.602 786.31,354.059 779.853,354.059 
			779.853,360.516 773.393,360.516 773.393,354.059 766.938,354.057 766.937,347.602 773.393,347.6 		"/>
		<g display="none">
			<defs>
				<path id="SVGID_5_" d="M678.405,386.436c22.309,0.984,40.105,19.326,40.105,41.877c0,6.744-1.631,13.1-4.459,18.748
					l18.283,6.734c3.552-7.762,5.547-16.389,5.547-25.482c0-33.879-27.463-61.342-61.341-61.342c-0.769,0-1.532,0.029-2.295,0.059
					L678.405,386.436z"/>
			</defs>
			<clipPath id="SVGID_6_" display="inline">
				<use xlink:href="#SVGID_5_"  overflow="visible"/>
			</clipPath>
			<g display="inline" clip-path="url(#SVGID_6_)">
				<polygon fill="#4D4D4D" points="724.968,402.484 721.739,405.713 728.196,412.17 734.653,405.713 731.425,402.484 
					728.196,405.713 				"/>
				<polygon fill="#4D4D4D" points="715.282,405.713 712.054,402.484 708.825,405.713 715.282,412.17 721.739,405.713 
					718.511,402.484 				"/>
				<polygon fill="#4D4D4D" points="731.425,415.398 728.196,412.17 724.968,415.398 731.425,421.855 737.882,415.398 
					734.653,412.17 				"/>
				<polygon fill="#4D4D4D" points="718.511,421.855 724.968,415.398 721.739,412.17 718.511,415.398 715.282,412.17 
					712.054,415.398 				"/>
				<polygon fill="#4D4D4D" points="734.653,431.541 741.11,425.084 737.882,421.855 734.653,425.084 731.425,421.855 
					728.196,425.084 				"/>
				<polygon fill="#4D4D4D" points="721.739,431.541 728.196,425.084 724.968,421.855 721.739,425.084 718.511,421.855 
					715.282,425.084 				"/>
				<polygon fill="#4D4D4D" points="724.968,441.225 731.425,434.77 728.196,431.541 724.968,434.77 721.739,431.541 
					718.511,434.77 				"/>
				<polygon fill="#4D4D4D" points="737.882,441.225 744.339,434.77 741.11,431.541 737.882,434.77 734.653,431.541 731.425,434.77 
									"/>
				<polygon fill="#4D4D4D" points="728.196,450.912 734.653,444.455 731.425,441.225 728.196,444.455 724.968,441.225 
					721.739,444.455 				"/>
				<polygon fill="#4D4D4D" points="715.282,450.912 721.739,444.455 718.511,441.225 715.282,444.455 712.054,441.225 
					708.825,444.455 				"/>
				<polygon fill="#4D4D4D" points="718.511,402.484 724.968,396.027 721.739,392.799 718.511,396.027 715.282,392.799 
					712.054,396.027 				"/>
				<polygon fill="#4D4D4D" points="715.282,392.799 721.739,386.342 718.511,383.113 715.282,386.342 712.054,383.113 
					708.825,386.342 				"/>
				<polygon fill="#4D4D4D" points="737.882,396.027 734.653,392.799 731.425,396.027 728.196,392.799 724.968,396.027 
					731.425,402.484 				"/>
				<polygon fill="#4D4D4D" points="705.597,396.027 702.368,392.799 699.141,396.027 705.597,402.484 712.054,396.027 
					708.825,392.799 				"/>
				<polygon fill="#4D4D4D" points="705.597,383.113 702.368,386.342 699.141,383.113 695.911,386.342 702.368,392.799 
					708.825,386.342 				"/>
				<polygon fill="#4D4D4D" points="682.997,373.428 679.769,376.656 686.227,383.113 692.683,376.656 689.454,373.428 
					686.227,376.656 				"/>
				<polygon fill="#4D4D4D" points="670.083,373.428 666.854,376.656 673.312,383.113 679.769,376.656 676.541,373.428 
					673.312,376.656 				"/>
				<polygon fill="#4D4D4D" points="695.911,366.971 692.683,363.742 689.454,366.971 686.227,363.742 682.997,366.971 
					689.454,373.428 				"/>
				<polygon fill="#4D4D4D" points="679.769,363.742 676.541,366.971 673.312,363.742 670.083,366.971 676.541,373.428 
					682.997,366.971 				"/>
				<polygon fill="#4D4D4D" points="689.454,386.342 686.227,383.113 682.997,386.342 689.454,392.799 695.911,386.342 
					692.683,383.113 				"/>
				<polygon fill="#4D4D4D" points="676.541,386.342 673.312,383.113 670.083,386.342 676.541,392.799 682.997,386.342 
					679.769,383.113 				"/>
				<polygon fill="#4D4D4D" points="718.511,376.656 715.282,373.428 712.054,376.656 708.825,373.428 705.597,376.656 
					712.054,383.113 				"/>
				<polygon fill="#4D4D4D" points="705.597,376.656 702.368,373.428 699.141,376.656 695.911,373.428 692.683,376.656 
					699.141,383.113 				"/>
			</g>
		</g>
		<polygon fill="#1A1A1A" points="702.368,444.455 705.597,441.225 708.825,437.998 715.282,437.998 715.282,431.541 
			721.739,431.541 721.741,425.082 728.196,425.084 728.196,418.627 734.653,418.627 734.653,412.17 741.11,412.17 741.11,405.713 
			747.567,405.713 747.567,399.256 754.024,399.256 754.024,392.799 760.481,392.799 760.481,386.342 766.938,386.342 
			766.937,379.885 773.396,379.885 773.396,373.428 776.624,376.656 779.854,373.295 779.853,379.885 786.305,379.885 
			786.31,386.342 792.763,386.342 792.766,392.799 799.219,392.799 799.224,399.256 805.685,399.264 805.68,405.713 
			812.131,405.709 812.138,412.17 818.59,412.17 818.594,418.627 825.053,418.633 825.052,425.084 831.506,425.082 831.509,431.541 
			837.965,431.537 837.965,437.998 844.431,438.004 847.651,441.225 850.879,444.455 776.624,473.512 		"/>
		<linearGradient id="SVGID_7_" gradientUnits="userSpaceOnUse" x1="776.624" y1="483.1973" x2="776.624" y2="396.0273">
			<stop  offset="0" style="stop-color:#4D4D4D"/>
			<stop  offset="1" style="stop-color:#1A1A1A"/>
		</linearGradient>
		<polygon fill="url(#SVGID_7_)" points="731.425,460.598 776.624,396.027 821.823,460.598 776.624,483.197 		"/>
		<polygon fill="#1A1A1A" points="754.024,505.797 776.624,512.252 799.224,505.797 812.138,476.738 776.624,431.541 
			741.11,476.738 		"/>
		<polygon fill="#808080" points="757.252,441.225 776.624,434.77 795.995,441.225 795.995,457.369 795.995,483.197 
			776.624,499.338 757.252,483.197 757.252,460.598 		"/>
		<polygon fill="#1A1A1A" points="828.279,396.027 854.107,421.855 854.107,253.973 828.279,253.973 		"/>
		<polygon fill="#1A1A1A" points="834.737,253.973 892.851,331.457 850.879,350.828 834.737,350.828 		"/>
		<polygon fill="#666666" points="754.022,505.797 776.622,512.252 799.222,505.797 802.452,518.711 795.992,515.482 
			792.766,525.166 783.078,518.711 776.622,528.396 770.165,518.711 760.481,525.166 757.251,515.482 750.796,518.711 		"/>
		<path fill="#1A1A1A" d="M718.509,427.939"/>
		<path fill="#1A1A1A" d="M802.45,295.943"/>
		<path fill="#1A1A1A" d="M847.649,273.344"/>
		<path fill="#1A1A1A" d="M831.506,295.943"/>
		<g>
			<rect x="828.279" y="418.627" fill="#808080" width="3.229" height="3.229"/>
			<rect x="834.737" y="425.084" fill="#808080" width="3.228" height="3.229"/>
			<rect x="766.938" y="373.428" fill="#808080" width="3.228" height="3.229"/>
			<polygon fill="#808080" points="776.624,373.428 779.853,370.199 779.853,366.971 776.624,370.199 773.396,366.971 
				773.396,370.199 			"/>
			<rect x="783.081" y="373.428" fill="#808080" width="3.229" height="3.229"/>
			<rect x="789.538" y="379.885" fill="#808080" width="3.228" height="3.229"/>
			<rect x="795.995" y="386.342" fill="#808080" width="3.229" height="3.229"/>
			<rect x="802.452" y="392.799" fill="#808080" width="3.228" height="3.229"/>
			<rect x="808.909" y="399.256" fill="#808080" width="3.229" height="3.229"/>
			<rect x="815.365" y="405.713" fill="#808080" width="3.229" height="3.229"/>
			<rect x="821.823" y="412.17" fill="#808080" width="3.229" height="3.229"/>
			<rect x="841.193" y="431.541" fill="#808080" width="3.229" height="3.229"/>
			<rect x="847.651" y="437.998" fill="#808080" width="3.228" height="3.227"/>
			<rect x="760.481" y="379.885" fill="#808080" width="3.229" height="3.229"/>
			<rect x="754.024" y="386.342" fill="#808080" width="3.228" height="3.229"/>
			<rect x="747.567" y="392.799" fill="#808080" width="3.229" height="3.229"/>
			<rect x="741.11" y="399.256" fill="#808080" width="3.229" height="3.229"/>
			<rect x="734.653" y="405.713" fill="#808080" width="3.229" height="3.229"/>
			<rect x="728.196" y="412.17" fill="#808080" width="3.229" height="3.229"/>
			<rect x="721.739" y="418.627" fill="#808080" width="3.229" height="3.229"/>
			<rect x="715.282" y="425.084" fill="#808080" width="3.229" height="3.229"/>
			<rect x="708.825" y="431.541" fill="#808080" width="3.229" height="3.229"/>
			<rect x="702.368" y="437.998" fill="#808080" width="3.229" height="3.227"/>
		</g>
		<polygon fill="#666666" points="834.737,470.283 841.193,463.824 841.193,325 834.737,295.943 825.052,302.401 825.052,305.628 
			828.279,305.628 828.279,463.824 		"/>
		<linearGradient id="SVGID_8_" gradientUnits="userSpaceOnUse" x1="839.5801" y1="470.2832" x2="839.5801" y2="295.9434">
			<stop  offset="0" style="stop-color:#666666"/>
			<stop  offset="1" style="stop-color:#999999"/>
		</linearGradient>
		<polygon fill="url(#SVGID_8_)" points="834.737,470.283 841.193,463.824 841.193,305.628 844.423,305.628 844.423,302.401 
			834.737,295.943 834.737,315.315 		"/>
		<g>
			<g>
				
					<rect x="784.968" y="465.564" transform="matrix(-0.7074 -0.7068 0.7068 -0.7074 1014.4303 1357.5226)" fill="#FFFFFF" width="6.458" height="6.458"/>
				<path fill="#4D4D4D" d="M788.197,474.818l-6.024-6.025l6.024-6.027l6.03,6.027L788.197,474.818z M785.094,468.793l3.104,3.104
					l3.108-3.104l-3.108-3.105L785.094,468.793z"/>
			</g>
			<polygon fill="#1A1A1A" points="779.853,470.283 795.995,473.512 792.766,476.738 783.081,476.738 			"/>
		</g>
		<g>
			<g>
				<polygon fill="#FFFFFF" points="765.599,463.824 770.166,468.947 765.599,473.512 761.034,468.947 				"/>
				<path fill="#4D4D4D" d="M765.599,474.973l-5.985-5.986l5.985-6.711l5.988,6.711L765.599,474.973z M762.455,468.906l3.144,3.145
					l3.148-3.145l-3.148-3.529L762.455,468.906z"/>
			</g>
			<polygon fill="#1A1A1A" points="757.252,473.512 773.396,470.283 770.166,476.738 760.481,476.738 			"/>
		</g>
		<polygon fill="#1A1A1A" points="844.423,315.315 825.052,315.315 818.594,344.371 844.423,344.371 850.879,334.686 		"/>
		<polygon fill="#999999" points="821.823,344.371 818.594,350.828 828.279,350.828 834.737,357.285 841.193,350.828 
			850.879,350.828 847.651,344.371 		"/>
		<polygon fill="#1A1A1A" points="760.481,450.912 770.166,457.369 776.624,454.141 783.081,457.369 792.766,450.912 
			786.31,450.912 779.853,450.912 776.627,450.912 770.166,450.912 		"/>
		<polygon fill="#999999" points="776.624,454.141 776.624,470.283 783.081,457.369 		"/>
		<path fill="#1A1A1A" d="M770.166,437.998l3.229,3.227l-3.229,3.23l6.458,6.457l6.457-6.457l-3.229-3.23l3.229-3.227l16.143,22.6
			v-12.914l-9.686-25.828c0,0-3.229,6.457-12.914,6.457s-12.914-6.457-12.914-6.457l-9.686,25.828v12.914L770.166,437.998z"/>
		<polygon fill="#B3B3B3" points="779.853,360.514 773.396,360.514 773.396,354.057 766.939,354.055 766.938,347.598 
			773.396,347.598 773.396,341.141 779.854,341.141 779.854,347.598 786.31,347.6 786.312,354.055 779.854,354.057 		"/>
		<polygon fill="#808080" points="760.481,373.426 754.024,373.428 754.024,366.971 747.569,366.969 747.567,360.512 
			754.024,360.512 754.024,354.055 760.483,354.055 760.483,360.512 766.938,360.514 766.939,366.969 760.483,366.971 		"/>
		<polygon fill="#808080" points="799.222,373.426 792.765,373.428 792.765,366.971 786.31,366.969 786.308,360.512 
			792.765,360.512 792.765,354.055 799.224,354.055 799.224,360.512 805.678,360.514 805.68,366.969 799.224,366.971 		"/>
	</g>
	<polygon fill="#333333" points="660.4,128.062 653.942,134.519 647.486,128.062 647.486,121.604 660.4,108.69 673.314,121.604 
		673.314,128.062 666.856,134.519 	"/>
	<polygon fill="#333333" points="660.4,135.058 653.942,140.976 666.856,140.976 	"/>
	<polygon fill="#333333" points="892.852,521.938 899.309,515.482 905.766,521.938 905.766,528.396 892.852,541.311 
		879.938,528.396 879.938,521.938 886.395,515.482 	"/>
	<polygon fill="#333333" points="892.852,514.941 899.309,509.023 886.395,509.023 	"/>
	<path fill="#808080" d="M657.169,166.804v-6.457h6.458v6.457h3.229l-0.002-6.457l-3.228-3.229l3.228-3.228l0.002-6.457h-0.002
		h-3.228v3.228l-6.458,6.457v-9.685h-3.227v19.371H657.169z"/>
	<path fill="#808080" d="M896.078,483.197v6.457h-6.457v-6.457h-3.23l0.002,6.457l3.229,3.229l-3.229,3.229l-0.002,6.457h0.002
		h3.229v-3.23l6.457-6.455v9.686h3.227v-19.371H896.078z"/>
	<g>
		<polygon fill="#333333" points="247.15,128.062 240.693,134.519 234.236,128.062 234.236,121.604 247.15,108.69 260.064,121.604 
			260.064,128.062 253.607,134.519 		"/>
		<polygon fill="#333333" points="247.15,135.058 240.693,140.976 253.607,140.976 		"/>
		<polygon fill="#333333" points="479.602,521.938 486.059,515.482 492.516,521.938 492.516,528.396 479.602,541.311 
			466.688,528.396 466.688,521.938 473.146,515.482 		"/>
		<polygon fill="#333333" points="479.602,514.941 486.059,509.023 473.146,509.023 		"/>
		<rect x="253.607" y="166.804" fill="#808080" width="3.228" height="3.229"/>
		<path fill="#808080" d="M240.693,147.433v19.371h12.914v-19.371H240.693z M243.921,163.575v-12.914h6.457v12.914H243.921z"/>
		<rect x="469.917" y="479.969" fill="#808080" width="3.229" height="3.229"/>
		<path fill="#808080" d="M486.059,502.568v-19.371h-12.913v19.371H486.059z M482.831,486.424v12.914h-6.458v-12.914H482.831z"/>
		<polygon fill="#333333" points="450.89,334.506 451.171,333.91 489.288,333.91 444.27,238.217 447.317,232.049 402.118,212.376 
			391.73,166.804 395.661,160.1 385.976,140.575 363.376,130.889 340.775,140.575 331.091,160.006 334.87,166.804 324.633,212.376 
			279.692,231.876 282.921,237.83 275.766,315.688 237.464,315.688 281.719,412.924 279.434,417.549 324.633,437.223 
			335.024,483.197 331.091,489.654 340.775,509.023 363.376,518.711 385.976,509.023 395.661,489.654 391.727,483.197 
			402.118,437.223 447.059,417.723 443.83,412.17 		"/>
		<path opacity="0.6" fill="#1A1A1A" d="M473.315,299.958c-18.052,4.582-52.354,6.355-60.508-38.242
			c10.184-7.301,18.891-16.577,25.479-26.973l1.771-2.92c0.452-0.78,0.913-1.556,1.34-2.35l-2.692-1.172
			c-14.537,26.698-42.85,42.791-75.329,42.791c-32.492,0-60.822-16.111-75.35-42.829l-2.692,1.167
			c0.432,0.795,0.888,1.573,1.34,2.353l1.88,3.097c6.46,10.154,14.949,19.229,24.856,26.438c-0.796,23.99-18.429,42.06-41.596,42.06
			v4.996c6.042,0,10.52,2.058,14.065,4.978c-8.207,3.158-15.99,4.51-22.479,2.339h-25.768l15.521,34.472l0.006,0.014
			c35.569-9.58,59.116,15.535,60.267,38.062c-9.966,7.244-18.481,16.396-24.958,26.621c0,0-0.055,0.094-0.152,0.258
			c-0.578,0.961-2.594,4.332-2.963,5.014l2.691,1.17c6.529-11.992,15.839-21.844,27.056-29.057
			c13.757-8.85,30.384-13.734,48.274-13.734c32.495,0,60.821,16.111,75.354,42.83l2.688-1.168c-0.428-0.795-0.884-1.572-1.34-2.352
			l-1.88-3.098c-6.459-10.154-14.946-19.229-24.852-26.438c0.795-23.99,18.427-42.061,41.591-42.061v-4.996
			c-4.612,0-10.9-2.422-18.11-6.234c14.777-1.82,26.874-2.686,33.357-1.082h18.747L473.315,299.958z"/>
		<polyline fill="#333333" points="385.976,140.575 363.376,130.889 340.775,140.575 		"/>
		<polygon fill="#1A1A1A" points="421.489,295.943 434.403,292.716 421.489,289.487 418.261,270.116 415.032,289.487 
			402.118,292.716 415.032,295.943 418.261,315.315 		"/>
		<path opacity="0.4" fill="#1A1A1A" d="M406.727,214.381l-2.712-1.18c-6.42,16.183-22.196,25.605-40.639,25.605
			c-18.44,0-34.219-9.423-40.64-25.607l-2.708,1.175c6.873,17.22,23.705,31.493,43.348,31.493
			C383.018,245.867,399.85,231.598,406.727,214.381z"/>
		<path fill="#B3B3B3" d="M402.457,212.523c-7.188,14.333-21.982,24.217-39.081,24.217c-17.096,0-31.895-9.885-39.082-24.217
			l-2.724,1.182c7.644,15.37,23.507,25.963,41.806,25.963c18.298,0,34.162-10.59,41.805-25.959L402.457,212.523z"/>
		<path fill="#999999" d="M457.111,304.234c-25.409,0.002-46.771-22.313-46.771-48.726h2.928c0,24.828,20.029,45.802,43.735,45.802
			c-0.023-0.003,9.367-0.788,15.488-3.849l1.31,2.619c-6.636,3.316-16.274,4.119-16.681,4.153
			C457.118,304.234,457.113,304.234,457.111,304.234z"/>
		<path fill="#999999" d="M269.749,304.238v-2.928c23.707,0,43.735-20.975,43.735-45.803h2.927
			C316.411,281.922,295.043,304.238,269.749,304.238z"/>
		<path fill="#1A1A1A" d="M385.976,176.087c0,29.832-22.6,56.563-22.6,56.563s-22.601-29.96-22.601-56.563
			c0-11.313,0-15.798,0-15.798l22.601-13.259l22.6,12.915C385.976,159.945,385.976,165.056,385.976,176.087z"/>
		<linearGradient id="SVGID_9_" gradientUnits="userSpaceOnUse" x1="363.3755" y1="140.5747" x2="363.3755" y2="208.373">
			<stop  offset="0" style="stop-color:#CCCCCC"/>
			<stop  offset="1" style="stop-color:#808080"/>
		</linearGradient>
		<path fill="url(#SVGID_9_)" d="M382.747,182.544c0,12.914-19.371,25.829-19.371,25.829s-19.372-12.915-19.372-25.829
			c0-6.457-3.229-22.599-3.229-22.599l22.601-19.371l22.6,19.371C385.976,159.945,382.747,176.087,382.747,182.544z"/>
		<polygon fill="#4D4D4D" points="382.747,163.174 366.604,163.174 369.833,156.717 379.519,156.717 		"/>
		<g>
			
				<rect x="371.727" y="158.609" transform="matrix(0.707 0.7072 -0.7072 0.707 224.2982 -217.7481)" fill="#FFFFFF" width="6.456" height="6.456"/>
			<path fill="#4D4D4D" d="M374.955,167.863l-6.025-6.026l6.025-6.026l6.025,6.026L374.955,167.863z M371.851,161.837l3.104,3.104
				l3.104-3.104l-3.104-3.104L371.851,161.837z"/>
		</g>
		<polygon fill="#4D4D4D" points="375.386,185.773 363.376,189.001 351.365,185.773 360.147,185.773 366.604,185.773 		"/>
		<g>
			<polygon fill="#4D4D4D" points="360.147,163.174 344.004,163.174 347.232,156.717 356.918,156.717 			"/>
			<g>
				
					<rect x="348.572" y="158.607" transform="matrix(0.7074 0.7068 -0.7068 0.7074 217.3403 -201.3098)" fill="#FFFFFF" width="6.459" height="6.459"/>
				<path fill="#4D4D4D" d="M351.801,167.863l-6.03-6.026l6.03-6.026l6.025,6.026L351.801,167.863z M348.694,161.837l3.107,3.104
					l3.103-3.104l-3.103-3.104L348.694,161.837z"/>
			</g>
		</g>
		<path fill="#B3B3B3" d="M385.976,140.575c0,0-9.686-3.229-22.6-3.229c-12.915,0-22.601,3.229-22.601,3.229l-3.229-16.143
			l6.458,3.229l6.457-6.457l6.457,3.229l6.458-6.457l6.457,6.457l6.457-3.229l6.457,6.457l6.457-3.229L385.976,140.575z"/>
		<polygon fill="#4D4D4D" points="360.147,179.316 363.376,182.544 366.604,179.316 363.376,179.316 		"/>
		<path fill="#1A1A1A" d="M421.489,202.69"/>
		<polygon fill="#1A1A1A" points="366.604,295.943 379.519,292.716 366.604,289.487 363.376,270.116 360.147,289.487 
			347.233,292.716 360.147,295.943 363.376,315.315 		"/>
		<path fill="#B3B3B3" d="M436.804,227.472c-3.208,5.316-7.008,10.229-11.255,14.713l-7.708,0.04l0.038,7.135
			c-5.49,4.539-11.546,8.406-18.057,11.481l-6.534-3.267l-3.646,7.295c-6.816,2.201-13.996,3.578-21.435,3.994l-4.831-4.831
			l-4.832,4.831c-7.405-0.415-14.553-1.783-21.343-3.967l-4.186-7.322l-5.875,3.361c-6.786-3.182-13.087-7.216-18.766-11.984
			L308.002,242l-6.636,0.355c-4.323-4.54-8.186-9.521-11.439-14.92l-2.7,1.172c15.48,25.933,43.814,43.346,76.149,43.346
			c32.322,0,60.644-17.395,76.128-43.305L436.804,227.472z"/>
		<polygon fill="#1A1A1A" points="392.433,295.943 405.347,292.716 392.433,289.487 389.204,270.116 385.976,289.487 
			373.062,292.716 385.976,295.943 389.204,315.315 		"/>
		<polygon fill="#1A1A1A" points="366.604,328.229 379.519,325 366.604,321.772 363.376,302.401 360.147,321.772 347.232,325 
			360.147,328.229 363.376,347.6 		"/>
		<polygon fill="#999999" points="358.81,325 354.246,334.131 363.376,329.566 372.505,334.131 367.94,325 372.505,315.87 
			363.376,320.433 354.244,315.867 		"/>
		<polygon fill="#1A1A1A" points="340.776,360.514 353.69,357.285 340.776,354.057 337.548,334.686 334.32,354.057 321.406,357.285 
			334.32,360.514 337.548,379.885 		"/>
		<polygon fill="#1A1A1A" points="366.604,360.514 379.519,357.285 366.604,354.057 363.376,334.686 360.147,354.057 
			347.232,357.285 360.147,360.514 363.376,379.885 		"/>
		<polygon fill="#1A1A1A" points="311.721,360.514 324.635,357.285 311.721,354.057 308.493,334.686 305.264,354.057 
			292.349,357.285 305.264,360.514 308.493,379.885 		"/>
		<polygon fill="#808080" points="337.546,352.719 328.416,348.154 332.979,357.287 328.416,366.416 337.545,361.852 
			346.677,366.416 342.113,357.285 346.678,348.154 		"/>
		<polygon fill="#B3B3B3" points="389.204,288.151 380.071,283.584 384.636,292.717 380.071,301.845 389.202,297.282 
			398.333,301.845 393.768,292.717 398.335,283.584 		"/>
		<path opacity="0.4" fill="#1A1A1A" d="M320.028,435.217l2.708,1.182c6.421-16.184,22.2-25.605,40.64-25.605
			c18.443,0,34.223,9.424,40.639,25.607l2.712-1.176c-6.873-17.221-23.709-31.494-43.351-31.494
			C343.733,403.73,326.901,418.002,320.028,435.217z"/>
		<path fill="#999999" d="M324.294,437.074c7.191-14.33,21.986-24.215,39.082-24.215c17.099,0,31.894,9.885,39.081,24.215
			l2.724-1.182c-7.639-15.369-23.503-25.963-41.805-25.963c-18.298,0-34.158,10.592-41.802,25.961L324.294,437.074z"/>
		<path fill="#999999" d="M316.411,394.09h-2.927c0-24.828-20.029-45.801-43.735-45.801c0.023,0.002-9.367,0.787-15.487,3.848
			l-1.31-2.617c6.636-3.318,16.274-4.121,16.68-4.152c0.002,0,0.007,0,0.008,0C295.049,345.367,316.411,367.676,316.411,394.09z"/>
		<path fill="#999999" d="M413.268,394.09h-2.928c0-26.414,21.369-48.73,46.663-48.73v2.93
			C433.296,348.289,413.268,369.262,413.268,394.09z"/>
		<path fill="#1A1A1A" d="M340.775,473.512c0-29.832,22.601-56.564,22.601-56.564s22.6,29.961,22.6,56.564
			c0,11.312,0,15.799,0,15.799l-22.6,13.258l-22.601-12.914C340.775,489.654,340.775,484.545,340.775,473.512z"/>
		<linearGradient id="SVGID_10_" gradientUnits="userSpaceOnUse" x1="363.3755" y1="441.2246" x2="363.3755" y2="509.0234">
			<stop  offset="0" style="stop-color:#B3B3B3"/>
			<stop  offset="1" style="stop-color:#808080"/>
		</linearGradient>
		<path fill="url(#SVGID_10_)" d="M344.004,467.055c0-12.914,19.372-25.83,19.372-25.83s19.371,12.916,19.371,25.83
			c0,6.457,3.229,22.6,3.229,22.6l-22.6,19.369l-22.601-19.369C340.775,489.654,344.004,473.512,344.004,467.055z"/>
		<polygon fill="#4D4D4D" points="344.004,486.424 360.147,486.424 356.918,492.883 347.232,492.883 		"/>
		<g>
			
				<rect x="348.569" y="484.532" transform="matrix(-0.7076 -0.7067 0.7067 -0.7076 256.0363 1081.481)" fill="#FFFFFF" width="6.456" height="6.459"/>
			<path fill="#4D4D4D" d="M351.797,493.789l-6.025-6.029l6.025-6.025l6.03,6.025L351.797,493.789z M348.693,487.76l3.104,3.107
				l3.107-3.107l-3.107-3.102L348.693,487.76z"/>
		</g>
		<polygon fill="#4D4D4D" points="366.604,486.424 382.747,486.424 379.519,492.883 369.833,492.883 		"/>
		<polygon fill="#808080" points="363.376,457.369 369.833,463.824 356.918,463.824 		"/>
		<polygon fill="#333333" points="351.365,463.824 363.376,460.598 375.386,463.824 366.604,463.824 360.147,463.824 		"/>
		<g>
			
				<rect x="371.728" y="484.533" transform="matrix(-0.7073 -0.707 0.707 -0.7073 295.3185 1097.8113)" fill="#FFFFFF" width="6.454" height="6.456"/>
			<path fill="#4D4D4D" d="M374.955,493.789l-6.025-6.029l6.025-6.025l6.025,6.025L374.955,493.789z M371.851,487.76l3.104,3.107
				l3.104-3.107l-3.104-3.102L371.851,487.76z"/>
		</g>
		<path fill="#808080" d="M340.775,509.023c0,0,9.686,3.229,22.601,3.229c12.914,0,22.6-3.229,22.6-3.229l3.229,16.143l-6.457-3.229
			l-6.457,6.459l-6.457-3.23l-6.457,6.457l-6.458-6.457l-6.457,3.23l-6.457-6.459l-6.458,3.229L340.775,509.023z"/>
		<g>
			<path fill="#4D4D4D" d="M457.002,356.254v6.713h-6.457v6.457h6.457v6.457h6.457v-6.457h6.458v-6.457h-6.458v-6.713
				c10.949-1.57,19.372-10.961,19.372-22.344c0-12.482-10.118-22.599-22.6-22.599c-12.482,0-22.6,10.115-22.6,22.599
				C437.631,345.293,446.054,354.684,457.002,356.254z"/>
		</g>
		<polygon fill="#4D4D4D" points="366.604,470.283 363.376,467.055 360.147,470.283 363.376,470.283 		"/>
		<path fill="#1A1A1A" d="M305.262,446.908"/>
		<path fill="#999999" d="M439.528,420.992c-15.481-25.934-43.815-43.348-76.152-43.348c-32.318,0-60.64,17.393-76.125,43.307
			l2.7,1.174c3.209-5.314,7.008-10.229,11.255-14.711l7.704-0.039l-0.035-7.135c5.49-4.541,11.547-8.408,18.057-11.482l6.535,3.266
			l3.641-7.293c6.818-2.201,13.997-3.578,21.437-3.994l4.831,4.83l4.831-4.83c7.405,0.414,14.554,1.781,21.344,3.967l4.189,7.32
			l5.874-3.359c6.784,3.182,13.085,7.215,18.764,11.984l0.371,6.951l6.636-0.354c4.323,4.539,8.184,9.52,11.439,14.918
			L439.528,420.992z"/>
		<path fill="#4D4D4D" d="M269.75,293.345v-6.713h6.457v-6.458h-6.457v-6.457h-6.457v6.457h-6.458v6.458h6.458v6.713
			c-10.947,1.57-19.372,10.961-19.372,22.343c0,12.482,10.12,22.599,22.6,22.599c12.486,0,22.6-10.115,22.6-22.599
			C289.121,304.306,280.698,294.915,269.75,293.345z"/>
		<polygon fill="#1A1A1A" points="340.777,328.229 353.692,325 340.777,321.772 337.549,302.401 334.32,321.772 321.406,325 
			334.32,328.229 337.549,347.6 		"/>
		<polygon fill="#1A1A1A" points="392.433,328.229 405.347,325 392.433,321.772 389.204,302.401 385.976,321.772 373.062,325 
			385.976,328.229 389.204,347.6 		"/>
	</g>
</g>
</svg>
