<?xml version="1.0" encoding="utf-8"?>
<!-- Generator: Adobe Illustrator 16.0.0, SVG Export Plug-In . SVG Version: 6.00 Build 0)  -->
<!DOCTYPE svg PUBLIC "-//W3C//DTD SVG 1.1//EN" "http://www.w3.org/Graphics/SVG/1.1/DTD/svg11.dtd">
<svg version="1.1" id="Layer_1" xmlns="http://www.w3.org/2000/svg" xmlns:xlink="http://www.w3.org/1999/xlink" x="0px" y="0px"
	 width="1140px" height="450px" viewBox="0 0 1140 450" enable-background="new 0 0 1140 450" xml:space="preserve">
<g>
	<g>
		<path fill="#FBB040" d="M556.263,370c0,0,0,10-10,10s-460,0-470,0s-10-10-10-10V80c0,0,0-10,10-10s460,0,470,0s10,10,10,10V370z"
			/>
		<path opacity="0.2" fill="#231F20" d="M486.263,325c0,2.762-2.238,5-5,5h-340c-2.762,0-5-2.238-5-5l0,0c0-2.762,2.238-5,5-5h340
			C484.024,320,486.263,322.238,486.263,325L486.263,325z"/>
		<polygon fill="#1E366B" points="336.263,160 326.263,160 316.263,190 336.263,190 		"/>
		<g>
			<g>
				<path fill="#1C75BC" d="M345.593,135l105.67,28.819V195h-170v-60H345.593 M346.263,130h-70v70h180v-40L346.263,130L346.263,130z
					"/>
			</g>
		</g>
		<g>
			<path fill="#1C75BC" d="M341.263,135v50H253.2l16.666-50H341.263 M346.263,130h-80l-20,60h100V130L346.263,130z"/>
		</g>
		
			<line fill="none" stroke="#2791D8" stroke-width="5" stroke-linecap="round" stroke-miterlimit="10" x1="264.263" y1="130" x2="244.263" y2="190"/>
		<polygon fill="#1E366B" points="456.263,270 256.263,270 206.263,280 166.263,280 136.263,200 346.263,190 366.262,190 
			386.263,180 476.263,180 476.263,220 		"/>
		<path fill="#1C75BC" d="M466.263,260l-20-40h-60l-20,40h-130l-20-40h-50l-20,20h-10v-40l23-10l87-10h110l10,20h120c0,0,0,20,0,40
			S466.263,260,466.263,260z"/>
		<g>
			<path fill="#3A3A3A" d="M416.263,322.5c-23.435,0-42.5-19.065-42.5-42.5s19.065-42.5,42.5-42.5s42.5,19.065,42.5,42.5
				S439.697,322.5,416.263,322.5z"/>
			<path d="M416.263,240c22.092,0,40,17.908,40,40s-17.908,40-40,40s-40-17.908-40-40S394.171,240,416.263,240 M416.263,235
				c-24.813,0-45,20.187-45,45s20.187,45,45,45s45-20.187,45-45S441.076,235,416.263,235L416.263,235z"/>
		</g>
		<path fill="#2791D8" d="M246.263,190l10,10v30c0,0,0,20,20,20s30,0,50,0s20-20,20-20v-50h-100V190z"/>
		<path fill="#1C75BC" d="M336.263,190h-20c0,0,0,6.667,6.667,6.667s0,0,6.667,0C336.263,196.667,336.263,190,336.263,190z"/>
		<polyline fill="none" stroke="#2791D8" stroke-width="5" stroke-linecap="round" stroke-miterlimit="10" points="246.263,180 
			156.263,190 136.263,200 		"/>
		<polyline fill="none" stroke="#2791D8" stroke-width="5" stroke-miterlimit="10" points="136.263,240 146.263,240 166.263,220 
			216.263,220 236.263,260 366.263,260 386.263,220 446.263,220 466.263,260 476.263,260 		"/>
		<circle fill="#E6E7E8" stroke="#231F20" stroke-width="5" stroke-miterlimit="10" cx="416.263" cy="280" r="20"/>
		<circle fill="#939393" cx="416.263" cy="280" r="10"/>
		<g>
			<path fill="#3A3A3A" d="M186.263,322.5c-23.435,0-42.5-19.065-42.5-42.5s19.065-42.5,42.5-42.5s42.5,19.065,42.5,42.5
				S209.697,322.5,186.263,322.5z"/>
			<path d="M186.263,240c22.092,0,40,17.908,40,40s-17.908,40-40,40s-40-17.908-40-40S164.171,240,186.263,240 M186.263,235
				c-24.813,0-45,20.187-45,45s20.187,45,45,45s45-20.187,45-45S211.076,235,186.263,235L186.263,235z"/>
		</g>
		<circle fill="#E6E7E8" stroke="#231F20" stroke-width="5" stroke-miterlimit="10" cx="186.263" cy="280" r="20"/>
		<circle fill="#939393" cx="186.263" cy="280" r="10"/>
		<g>
			<path opacity="0.3" fill="#231F20" d="M246.263,180c0,0-10,0-10,10s10,10,10,10V180z"/>
			<path fill="#27AAE1" d="M246.263,170c0,0-10,0-10,10s10,10,10,10V170z"/>
		</g>
	</g>
	<g>
		<g>
			<path opacity="0.3" fill="#231F20" d="M673.737,210c0,0-10,0-10,10s10,10,10,10V210z"/>
			<path fill="#FFFFFF" d="M673.737,200c0,0-10,0-10,10s10,10,10,10V200z"/>
		</g>
		<path fill="#9FBEC9" d="M1073.737,370c0,0,0,10-10,10s-460,0-470,0s-10-10-10-10V80c0,0,0-10,10-10s460,0,470,0s10,10,10,10V370z"
			/>
		<g>
			<path fill="none" stroke="#414042" stroke-width="5" stroke-miterlimit="10" d="M723.737,154v-10c0,0,0.001-10,10-10
				c10,0,160.001,0,170.001,0c9.999,0,9.999,10,9.999,10v10"/>
			<line fill="none" stroke="#414042" stroke-width="5" stroke-miterlimit="10" x1="753.737" y1="134" x2="753.737" y2="120"/>
			<line fill="none" stroke="#414042" stroke-width="5" stroke-miterlimit="10" x1="883.737" y1="134" x2="883.737" y2="120"/>
		</g>
		<path fill="#414042" d="M1013.737,210c0,10,0,60,0,60s0,10,10,10s0,0,10,0s10-10,10-10v-60c0,0,0-10-10-10s-10,0-10,0
			S1013.737,200,1013.737,210z"/>
		<path fill="#231F20" d="M1013.737,270c0,10,10,10,10,10v-80c0,0-10,0-10,10S1013.737,260,1013.737,270z"/>
		<path opacity="0.2" fill="#231F20" d="M1013.737,349c0,2.762-2.238,5-5,5h-380c-2.762,0-5-2.238-5-5l0,0c0-2.762,2.238-5,5-5h380
			C1011.499,344,1013.737,346.238,1013.737,349L1013.737,349z"/>
		<polygon fill="#892711" points="983.737,320 883.737,320 853.737,320 843.737,320 803.737,320 763.737,320 733.737,320 
			663.737,320 663.737,260 983.737,260 		"/>
		<polygon fill="#E6E7E8" points="975.737,145 660.737,145 623.737,210 623.737,230 1013.737,230 1013.737,210 		"/>
		<path fill="#F7941E" d="M993.737,330l-20-10c0,0,0-40-30-40c-10,0-10,0-20,0c-30.001,0-30.001,40-30.001,40l0.001,10h-150v-10
			c0,0-0.001-40-30-40c-20,0,0,0-20,0c-30,0-30,40-30,40l-20,10l-20-70l3-30h387v50L993.737,330z"/>
		<path fill="#FFFFFF" d="M623.737,310c0,0,0,0,0,10s10,10,10,10h30v-10c0-10-10-10-10-10H623.737z"/>
		<path fill="#FFFFFF" d="M1013.737,310c0,0,0,0,0,10s-10,10-10,10h-30v-10c0,0,0-10,10-10S1013.737,310,1013.737,310z"/>
		<g>
			<g>
				<circle fill="#5E5E5E" cx="703.737" cy="320" r="30"/>
			</g>
			<circle fill="#E6E7E8" stroke="#231F20" stroke-width="5" stroke-miterlimit="10" cx="703.737" cy="320" r="15"/>
			<circle fill="#939393" cx="703.737" cy="320" r="7.5"/>
		</g>
		<g>
			<g>
				<g>
					<circle fill="#5E5E5E" cx="933.737" cy="320" r="30"/>
				</g>
			</g>
			<circle fill="#E6E7E8" stroke="#231F20" stroke-width="5" stroke-miterlimit="10" cx="933.737" cy="320" r="15"/>
			<circle fill="#939393" cx="933.737" cy="320" r="7.5"/>
		</g>
		<rect x="753.737" y="100" fill="#0F3F27" width="0" height="0"/>
		<path fill="#9FBEC9" d="M670.737,160l-27,50h90c0,0,10,0,10-10s0-20,0-30s-10-10-10-10H670.737z"/>
		<path fill="#9FBEC9" d="M763.737,160c0,0-10,0-10,10s0,20,0,30s10,10,10,10h100c0,0,10,0,10-10s0-20,0-30s-10-10-10-10H763.737z"
			/>
		<path fill="#9FBEC9" d="M893.738,160c0,0-10.001,0-10.001,10s0,20,0,30s10.001,10,10.001,10h99.999l-27-50H893.738z"/>
		<polygon fill="#414042" points="936.737,160 963.737,210 993.737,210 966.737,160 		"/>
		<g>
			<path opacity="0.3" fill="#231F20" d="M663.737,210c0,0-10,0-10,10s10,10,10,10V210z"/>
			<path fill="#F1F2F2" d="M663.737,200c0,0-10,0-10,10s10,10,10,10V200z"/>
		</g>
		<polygon fill="#414042" points="723.737,180 713.737,210 733.737,210 733.737,180 		"/>
		<polygon fill="#414042" points="823.737,180 813.737,210 833.737,210 833.737,180 		"/>
		<polygon fill="#414042" points="923.737,180 913.738,210 933.737,210 933.737,180 		"/>
		<rect x="623.737" y="230" fill="#F26522" width="390" height="30"/>
		<path fill="none" stroke="#FFFFFF" stroke-width="8" stroke-linecap="round" stroke-miterlimit="10" d="M673.737,126
			c0,0,41-10,150-10s140,10,140,10"/>
		<path fill="#FFFFFF" d="M903.738,116c0,0,29.999-20,39.999-20s-20,22,0,22L903.738,116z"/>
		<path fill="#9FBEC9" d="M964.737,172.5h-16c-1.381,0-2.5-1.119-2.5-2.5s1.119-2.5,2.5-2.5h16c1.381,0,2.5,1.119,2.5,2.5
			S966.118,172.5,964.737,172.5z"/>
		<path fill="#9FBEC9" d="M970.737,182.5h-16c-1.381,0-2.5-1.119-2.5-2.5s1.119-2.5,2.5-2.5h16c1.381,0,2.5,1.119,2.5,2.5
			S972.118,182.5,970.737,182.5z"/>
		<path fill="#9FBEC9" d="M975.737,192.5h-16c-1.381,0-2.5-1.119-2.5-2.5s1.119-2.5,2.5-2.5h16c1.381,0,2.5,1.119,2.5,2.5
			S977.118,192.5,975.737,192.5z"/>
		<path fill="#9FBEC9" d="M981.737,202.5h-16c-1.381,0-2.5-1.119-2.5-2.5s1.119-2.5,2.5-2.5h16c1.381,0,2.5,1.119,2.5,2.5
			S983.118,202.5,981.737,202.5z"/>
	</g>
</g>
</svg>
