<?xml version="1.0" encoding="utf-8"?>
<!-- Generator: Adobe Illustrator 16.0.0, SVG Export Plug-In . SVG Version: 6.00 Build 0)  -->
<!DOCTYPE svg PUBLIC "-//W3C//DTD SVG 1.1//EN" "http://www.w3.org/Graphics/SVG/1.1/DTD/svg11.dtd">
<svg version="1.1" id="Layer_1" xmlns="http://www.w3.org/2000/svg" xmlns:xlink="http://www.w3.org/1999/xlink" x="0px" y="0px"
	 width="1140px" height="450px" viewBox="0 0 1140 450" enable-background="new 0 0 1140 450" xml:space="preserve">
<g>
	<g>
		<linearGradient id="SVGID_2_" gradientUnits="userSpaceOnUse" x1="311.5127" y1="340" x2="311.5127" y2="70.0005">
			<stop  offset="0" style="stop-color:#C3DAE0"/>
			<stop  offset="1" style="stop-color:#70C0E8"/>
		</linearGradient>
		<path fill="url(#SVGID_2_)" d="M556.513,330c0,0,0,10-10,10s-460,0-470,0s-10-10-10-10V80c0,0,0-10,10-10s460,0,470,0s10,10,10,10
			V330z"/>
		<g>
			<path opacity="0.2" fill="#231F20" d="M316.513,170h10v-10h10c0,0,0-30,30-30s30,30,30,30h10v10h10v90h60v70h-60h-100V170z"/>
			
				<line opacity="0.1" fill="none" stroke="#231F20" stroke-width="4" stroke-miterlimit="10" x1="366.513" y1="130" x2="366.513" y2="110"/>
		</g>
		<polygon opacity="0.1" fill="#231F20" points="66.513,150 136.513,150 136.513,120 146.513,120 146.513,110 156.513,110 
			166.513,100 176.513,110 186.513,110 186.513,120 196.513,120 196.513,330 66.513,330 		"/>
		<polyline opacity="0.1" fill="#231F20" points="556.513,330 506.513,330 456.513,330 456.513,110 466.513,110 466.513,100 
			476.513,100 486.513,90 496.513,100 506.513,100 506.513,110 516.513,110 516.513,140 556.513,140 556.513,160 556.513,330 		"/>
		<polygon fill="#D1D3D4" points="452.513,271 460.513,271 463.513,260 456.513,257 449.513,260 		"/>
		<polygon fill="#D1D3D4" points="473.513,270 478.513,270 463.513,260 456.513,257 449.513,260 		"/>
		<polygon fill="#E6E7E8" points="444.513,270 452.513,270 463.513,260 456.513,257 449.513,260 		"/>
		<path fill="#9CB75A" d="M556.513,370c0,0,0,10-10,10s-460,0-470,0s-10-10-10-10v-40h490V370z"/>
		<path fill="#D1D3D4" d="M466.513,300c0,5.523-4.478,11-10,11s-10-5.477-10-11S466.513,294.477,466.513,300z"/>
		<path fill="#E6E7E8" d="M460.513,270.625h-8l-6,29.375c0,0,4,4,10,4s10-4,10-4L460.513,270.625z"/>
		<rect x="446.513" y="310" fill="#E6E7E8" width="20" height="19.688"/>
		<path fill="#819347" d="M486.513,345c0,13.807-13.432,14-30,14s-30-0.193-30-14s13.432-25,30-25S486.513,331.193,486.513,345z"/>
		<path fill="#819347" d="M556.513,330v40c0,0-420-30-430-30s-10-10-10-10H556.513L556.513,330z"/>
		<rect x="346.513" y="220" fill="#D1D3D4" width="53.5" height="10"/>
		<rect x="346.513" y="190" fill="#F1F2F2" width="10" height="140"/>
		<polygon fill="#BCBEC0" points="356.513,230 356.513,220 366.513,220 		"/>
		<g>
			<g>
				<rect x="307.013" y="200.5" fill="#42AAC6" width="9" height="129"/>
				<path fill="#318599" d="M315.513,201v128h-8V201H315.513 M316.513,200h-10v130h10V200L316.513,200z"/>
			</g>
			<g>
				<rect x="317.013" y="200.5" fill="#42AAC6" width="9" height="129"/>
				<path fill="#318599" d="M325.513,201v128h-8V201H325.513 M326.513,200h-10v130h10V200L326.513,200z"/>
			</g>
			<g>
				<rect x="327.013" y="200.5" fill="#42AAC6" width="9" height="129"/>
				<path fill="#318599" d="M335.513,201v128h-8V201H335.513 M336.513,200h-10v130h10V200L336.513,200z"/>
			</g>
			<g>
				<rect x="337.013" y="200.5" fill="#42AAC6" width="9" height="129"/>
				<path fill="#318599" d="M345.513,201v128h-8V201H345.513 M346.513,200h-10v130h10V200L346.513,200z"/>
			</g>
		</g>
		<g>
			<g>
				<rect x="357.013" y="230.5" fill="#42AAC6" width="9" height="99"/>
				<path fill="#318599" d="M365.513,231v98h-8v-98H365.513 M366.513,230h-10v100h10V230L366.513,230z"/>
			</g>
			<g>
				<rect x="367.013" y="230.5" fill="#42AAC6" width="9" height="99"/>
				<path fill="#318599" d="M375.513,231v98h-8v-98H375.513 M376.513,230h-10v100h10V230L376.513,230z"/>
			</g>
			<g>
				<rect x="377.013" y="230.5" fill="#42AAC6" width="9" height="99"/>
				<path fill="#318599" d="M385.513,231v98h-8v-98H385.513 M386.513,230h-10v100h10V230L386.513,230z"/>
			</g>
			<g>
				<rect x="387.013" y="230.5" fill="#42AAC6" width="9" height="99"/>
				<path fill="#318599" d="M395.513,231v98h-8v-98H395.513 M396.513,230h-10v100h10V230L396.513,230z"/>
			</g>
		</g>
		<rect x="116.513" y="200" fill="#D1D3D4" width="190" height="130"/>
		<g>
			<rect x="116.513" y="280" fill="#42AAC6" width="30" height="50"/>
		</g>
		<g>
			<rect x="146.513" y="280" fill="#42AAC6" width="30" height="50"/>
		</g>
		<g>
			<rect x="186.513" y="280" fill="#42AAC6" width="30" height="50"/>
		</g>
		<g>
			<rect x="226.513" y="280" fill="#42AAC6" width="30" height="50"/>
		</g>
		<g>
			<rect x="266.513" y="280" fill="#42AAC6" width="30" height="50"/>
		</g>
		<rect x="306.513" y="200" fill="#318599" width="40" height="10"/>
		<g>
			<rect x="256.513" y="280" fill="#D1D3D4" width="10" height="50"/>
			<rect x="216.513" y="280" fill="#D1D3D4" width="10" height="50"/>
			<rect x="176.513" y="280" fill="#D1D3D4" width="10" height="50"/>
			<rect x="136.513" y="280" fill="#D1D3D4" width="10" height="50"/>
		</g>
		<polygon opacity="0.2" fill="#231F20" points="306.513,330 306.513,200 356.513,330 		"/>
		<polygon opacity="0.2" fill="#231F20" points="356.513,330 356.513,190 396.513,330 		"/>
		<g opacity="0.2">
			<rect x="276.513" y="280" fill="#231F20" width="10" height="50"/>
			<rect x="236.513" y="280" fill="#231F20" width="10" height="50"/>
			<rect x="196.513" y="280" fill="#231F20" width="10" height="50"/>
			<rect x="156.513" y="280" fill="#231F20" width="10" height="50"/>
			<rect x="116.513" y="280" fill="#231F20" width="190" height="10"/>
		</g>
		<g>
			
				<line fill="none" stroke="#F1F2F2" stroke-width="6" stroke-linecap="square" stroke-miterlimit="10" x1="116.513" y1="200" x2="306.513" y2="200"/>
			
				<line fill="none" stroke="#F1F2F2" stroke-width="6" stroke-linecap="square" stroke-miterlimit="10" x1="116.513" y1="210" x2="306.513" y2="210"/>
			
				<line fill="none" stroke="#F1F2F2" stroke-width="6" stroke-linecap="square" stroke-miterlimit="10" x1="116.513" y1="220" x2="306.513" y2="220"/>
			
				<line fill="none" stroke="#F1F2F2" stroke-width="6" stroke-linecap="square" stroke-miterlimit="10" x1="116.513" y1="230" x2="306.513" y2="230"/>
			
				<line fill="none" stroke="#F1F2F2" stroke-width="6" stroke-linecap="square" stroke-miterlimit="10" x1="116.513" y1="240" x2="306.513" y2="240"/>
			
				<line fill="none" stroke="#F1F2F2" stroke-width="6" stroke-linecap="square" stroke-miterlimit="10" x1="116.513" y1="250" x2="306.513" y2="250"/>
			
				<line fill="none" stroke="#F1F2F2" stroke-width="6" stroke-linecap="square" stroke-miterlimit="10" x1="116.513" y1="260" x2="306.513" y2="260"/>
			
				<line fill="none" stroke="#F1F2F2" stroke-width="6" stroke-linecap="square" stroke-miterlimit="10" x1="116.513" y1="270" x2="306.513" y2="270"/>
			
				<line fill="none" stroke="#F1F2F2" stroke-width="6" stroke-linecap="square" stroke-miterlimit="10" x1="116.513" y1="280" x2="306.513" y2="280"/>
			
				<line display="none" fill="none" stroke="#F1F2F2" stroke-width="6" stroke-linecap="square" stroke-miterlimit="10" x1="116.513" y1="340" x2="306.513" y2="340"/>
			
				<line display="none" fill="none" stroke="#F1F2F2" stroke-width="6" stroke-linecap="square" stroke-miterlimit="10" x1="116.513" y1="350" x2="306.513" y2="350"/>
			
				<line display="none" fill="none" stroke="#F1F2F2" stroke-width="6" stroke-linecap="square" stroke-miterlimit="10" x1="116.513" y1="360" x2="306.513" y2="360"/>
			
				<line display="none" fill="none" stroke="#F1F2F2" stroke-width="6" stroke-linecap="square" stroke-miterlimit="10" x1="116.513" y1="370" x2="306.513" y2="370"/>
		</g>
		<path fill="#231F20" d="M396.513,150"/>
		<path fill="#D1D3D4" d="M459.388,256.125c0,2.692-1.625,4.875-2.875,4.875s-2.875-2.183-2.875-4.875s1.042-3.875,2.875-3.875
			S459.388,253.433,459.388,256.125z"/>
		<path fill="#E6E7E8" d="M459.388,254.125c0,2.692-1.625,4.875-2.875,4.875s-2.875-2.183-2.875-4.875s1.042-3.875,2.875-3.875
			S459.388,251.433,459.388,254.125z"/>
		<line fill="none" stroke="#F1F2F2" stroke-miterlimit="10" x1="465.513" y1="300" x2="479.763" y2="243.5"/>
	</g>
	<g>
		<linearGradient id="SVGID_3_" gradientUnits="userSpaceOnUse" x1="828.4873" y1="340" x2="828.4873" y2="70.0005">
			<stop  offset="0" style="stop-color:#C3DAE0"/>
			<stop  offset="1" style="stop-color:#70C0E8"/>
		</linearGradient>
		<path fill="url(#SVGID_3_)" d="M1073.487,330c0,0,0,10-10,10s-460,0-470,0s-10-10-10-10V80c0,0,0-10,10-10s460,0,470,0
			s10,10,10,10V330z"/>
		<path fill="#9CB75A" d="M1073.487,370c0,0,0,10-10,10s-460,0-470,0s-10-10-10-10v-40h490V370z"/>
		<path fill="#819347" d="M1073.487,330v40c0,0-450-30-460-30s-10-10-10-10l450-10L1073.487,330z"/>
		<g>
			<rect x="613.487" y="220" fill="#B24524" width="360" height="110"/>
		</g>
		<g>
			<rect x="613.487" y="210" fill="#B24524" width="360" height="120"/>
		</g>
		<g>
			<rect x="603.487" y="210" fill="#DA6138" width="100" height="120"/>
		</g>
		<g>
			<rect x="883.487" y="210" fill="#DA6138" width="100" height="120"/>
		</g>
		<rect x="603.487" y="210" fill="#D1D3D4" width="380" height="4.5"/>
		<rect x="713.487" y="150" fill="#D1D3D4" width="160" height="10"/>
		<polygon fill="#414042" points="983.487,210 603.487,210 643.487,170 943.487,170 		"/>
		<g>
			<rect x="733.487" y="160" fill="#B24524" width="120" height="170"/>
		</g>
		<g>
			<rect x="993.487" y="160" fill="#B24524" width="60" height="170"/>
		</g>
		<g>
			<polygon fill="#B24524" points="1063.487,90 983.487,90 983.487,150 1003.487,160 1053.487,160 1063.487,150 			"/>
		</g>
		
			<line fill="none" stroke="#E6E7E8" stroke-width="3" stroke-linecap="square" stroke-miterlimit="10" x1="603.487" y1="210" x2="713.487" y2="210"/>
		
			<line fill="none" stroke="#E6E7E8" stroke-width="3" stroke-linecap="square" stroke-miterlimit="10" x1="873.487" y1="210" x2="983.487" y2="210"/>
		<g>
			<rect x="713.487" y="160" fill="#DA6138" width="20" height="170"/>
		</g>
		<polygon opacity="0.4" fill="#231F20" points="693.487,220 633.487,220 653.487,190 663.487,190 		"/>
		<polygon opacity="0.4" fill="#231F20" points="973.487,220 913.487,220 933.487,190 943.487,190 		"/>
		<polygon fill="#D1D3D4" points="683.487,220 623.487,220 653.487,190 		"/>
		<polyline fill="#D1D3D4" points="933.487,190 963.487,220 903.487,220 		"/>
		<polyline fill="#D1D3D4" points="1023.487,60 1063.487,90 983.487,90 		"/>
		<g>
			<rect x="853.487" y="160" fill="#DA6138" width="20" height="170"/>
		</g>
		<g>
			<rect x="993.487" y="160" fill="#DA6138" width="10" height="160"/>
		</g>
		<g>
			<rect x="983.487" y="90" fill="#DA6138" width="10" height="60"/>
		</g>
		<g>
			<rect x="1053.487" y="90" fill="#DA6138" width="10" height="60"/>
		</g>
		<g>
			<rect x="1043.487" y="160" fill="#DA6138" width="10" height="160"/>
		</g>
		<rect x="713.487" y="200" fill="#D1D3D4" width="20" height="10"/>
		<rect x="853.487" y="200" fill="#D1D3D4" width="20" height="10"/>
		<rect x="1003.487" y="180" fill="#D1D3D4" width="40" height="30"/>
		<circle fill="#42AAC6" stroke="#E6E7E8" stroke-width="3" stroke-miterlimit="10" cx="793.487" cy="190" r="20"/>
		<rect x="733.487" y="210" fill="#D1D3D4" width="120" height="10"/>
		<path fill="#231F20" d="M893.487,150"/>
		<polygon fill="#D1D3D4" points="1053.487,160 993.487,160 983.487,150 1063.487,150 		"/>
		<circle fill="#D1D3D4" stroke="#E6E7E8" stroke-width="3" stroke-miterlimit="10" cx="1023.487" cy="120" r="20"/>
		<polygon fill="#819347" points="983.487,320 1073.487,300 1073.487,340 983.487,340 		"/>
		<g opacity="0.3">
			<polygon fill="#231F20" points="1053.487,160 1053.487,210 993.487,160 			"/>
		</g>
		<g opacity="0.3">
			<polygon fill="#231F20" points="1043.487,210 1043.487,250 1003.487,210 			"/>
		</g>
		<circle fill="#E6E7E8" cx="653.487" cy="208" r="6"/>
		<circle fill="#E6E7E8" cx="933.487" cy="208" r="6"/>
		<line fill="none" stroke="#D1D3D4" stroke-width="3" stroke-miterlimit="10" x1="743.487" y1="120" x2="743.487" y2="150"/>
		<line fill="none" stroke="#D1D3D4" stroke-width="3" stroke-miterlimit="10" x1="733.487" y1="120" x2="733.487" y2="150"/>
		<line fill="none" stroke="#D1D3D4" stroke-width="3" stroke-miterlimit="10" x1="753.487" y1="120" x2="753.487" y2="150"/>
		<line fill="none" stroke="#D1D3D4" stroke-width="3" stroke-miterlimit="10" x1="783.487" y1="120" x2="783.487" y2="150"/>
		<line fill="none" stroke="#D1D3D4" stroke-width="3" stroke-miterlimit="10" x1="773.487" y1="120" x2="773.487" y2="150"/>
		<line fill="none" stroke="#D1D3D4" stroke-width="3" stroke-miterlimit="10" x1="793.487" y1="120" x2="793.487" y2="150"/>
		<line fill="none" stroke="#D1D3D4" stroke-width="3" stroke-miterlimit="10" x1="803.487" y1="120" x2="803.487" y2="150"/>
		<line fill="none" stroke="#D1D3D4" stroke-width="3" stroke-miterlimit="10" x1="813.487" y1="120" x2="813.487" y2="150"/>
		<line fill="none" stroke="#D1D3D4" stroke-width="3" stroke-miterlimit="10" x1="823.487" y1="120" x2="823.487" y2="150"/>
		<line fill="none" stroke="#D1D3D4" stroke-width="3" stroke-miterlimit="10" x1="763.487" y1="120" x2="763.487" y2="150"/>
		<line fill="none" stroke="#D1D3D4" stroke-width="3" stroke-miterlimit="10" x1="833.487" y1="120" x2="833.487" y2="150"/>
		<line fill="none" stroke="#D1D3D4" stroke-width="3" stroke-miterlimit="10" x1="843.487" y1="120" x2="843.487" y2="150"/>
		<line fill="none" stroke="#D1D3D4" stroke-width="3" stroke-miterlimit="10" x1="853.487" y1="120" x2="853.487" y2="150"/>
		<line fill="none" stroke="#E6E7E8" stroke-width="3" stroke-miterlimit="10" x1="733.487" y1="120" x2="853.487" y2="120"/>
		<line fill="none" stroke="#E6E7E8" stroke-width="3" stroke-miterlimit="10" x1="733.487" y1="130" x2="853.487" y2="130"/>
		<polyline fill="none" stroke="#E6E7E8" stroke-width="3" stroke-miterlimit="10" points="623.487,330 623.487,220 
			653.487,189.666 683.487,220 683.487,330 		"/>
		<polyline fill="none" stroke="#E6E7E8" stroke-width="3" stroke-miterlimit="10" points="903.487,330 903.487,220 
			933.487,189.666 963.487,220 963.487,330 		"/>
		<line fill="none" stroke="#E6E7E8" stroke-width="3" stroke-miterlimit="10" x1="983.487" y1="260" x2="873.487" y2="260"/>
		<line fill="none" stroke="#E6E7E8" stroke-width="3" stroke-miterlimit="10" x1="853.487" y1="260" x2="733.487" y2="260"/>
		<line fill="none" stroke="#E6E7E8" stroke-width="3" stroke-miterlimit="10" x1="713.487" y1="260" x2="603.487" y2="260"/>
		
			<line fill="none" stroke="#E6E7E8" stroke-width="3" stroke-linecap="square" stroke-miterlimit="10" x1="733.488" y1="250" x2="713.488" y2="250"/>
		
			<line fill="none" stroke="#E6E7E8" stroke-width="3" stroke-linecap="square" stroke-miterlimit="10" x1="873.487" y1="250" x2="853.487" y2="250"/>
		
			<line fill="none" stroke="#E6E7E8" stroke-width="3" stroke-linecap="square" stroke-miterlimit="10" x1="713.487" y1="200" x2="733.487" y2="200"/>
		
			<line fill="none" stroke="#E6E7E8" stroke-width="3" stroke-linecap="square" stroke-miterlimit="10" x1="853.487" y1="200" x2="873.487" y2="200"/>
		<line fill="none" stroke="#E6E7E8" stroke-width="3" stroke-miterlimit="10" x1="733.487" y1="150" x2="853.487" y2="150"/>
		<line fill="none" stroke="#E6E7E8" stroke-width="3" stroke-miterlimit="10" x1="733.487" y1="160" x2="853.487" y2="160"/>
		<path fill="#42AAC6" stroke="#E6E7E8" stroke-width="3" stroke-miterlimit="10" d="M653.487,285c0,8.284,0,35,0,35h-30
			c0,0,0-29.505,0-35c0-8.284,6.716-15,15-15S653.487,276.716,653.487,285z"/>
		<path fill="#42AAC6" stroke="#E6E7E8" stroke-width="3" stroke-miterlimit="10" d="M683.487,285c0,8.284,0,35,0,35h-30
			c0,0,0-29.505,0-35c0-8.284,6.716-15,15-15S683.487,276.716,683.487,285z"/>
		<path fill="#42AAC6" stroke="#E6E7E8" stroke-width="3" stroke-miterlimit="10" d="M933.487,285c0,8.284,0,35,0,35h-30
			c0,0,0-29.505,0-35c0-8.284,6.716-15,15-15S933.487,276.716,933.487,285z"/>
		<rect x="773.487" y="220" fill="#42AAC6" width="40" height="110"/>
		<rect x="833.487" y="280" fill="#42AAC6" stroke="#E6E7E8" stroke-width="3" stroke-miterlimit="10" width="10" height="40"/>
		<path fill="#42AAC6" stroke="#E6E7E8" stroke-width="3" stroke-miterlimit="10" d="M1030.487,243v21h-14v-21c0,0,0-7,7-7
			S1030.487,243,1030.487,243z"/>
		<g>
			<path fill="#42AAC6" d="M1005.079,203.5c0.446-4.432,3.065-17,18.408-17c15.392,0,17.979,12.567,18.413,17H1005.079z"/>
			<path fill="#E6E7E8" d="M1023.487,188c6.992,0,11.948,2.75,14.732,8.175c1.064,2.074,1.63,4.187,1.929,5.825h-33.322
				c0.3-1.639,0.865-3.751,1.929-5.825C1011.539,190.75,1016.495,188,1023.487,188 M1023.487,185c-20,0-20,20-20,20h40
				C1043.487,205,1043.487,185,1023.487,185L1023.487,185z"/>
		</g>
		<rect x="743.487" y="280" fill="#42AAC6" stroke="#E6E7E8" stroke-width="3" stroke-miterlimit="10" width="10" height="40"/>
		<rect x="743.487" y="180" fill="#42AAC6" stroke="#E6E7E8" stroke-width="3" stroke-miterlimit="10" width="10" height="30"/>
		<rect x="833.487" y="180" fill="#42AAC6" stroke="#E6E7E8" stroke-width="3" stroke-miterlimit="10" width="10" height="30"/>
		<rect x="903.487" y="230" fill="#42AAC6" stroke="#E6E7E8" stroke-width="3" stroke-miterlimit="10" width="60" height="30"/>
		<rect x="623.487" y="230" fill="#42AAC6" stroke="#E6E7E8" stroke-width="3" stroke-miterlimit="10" width="60" height="30"/>
		<path fill="#42AAC6" stroke="#E6E7E8" stroke-width="3" stroke-miterlimit="10" d="M963.487,285c0,8.284,0,35,0,35h-30
			c0,0,0-29.505,0-35c0-8.284,6.716-15,15-15S963.487,276.716,963.487,285z"/>
		
			<line opacity="0.4" fill="none" stroke="#231F20" stroke-width="3" stroke-miterlimit="10" x1="923.487" y1="260" x2="923.487" y2="230"/>
		
			<line opacity="0.4" fill="none" stroke="#231F20" stroke-width="3" stroke-miterlimit="10" x1="943.487" y1="260" x2="943.487" y2="230"/>
		
			<line opacity="0.4" fill="none" stroke="#231F20" stroke-width="3" stroke-miterlimit="10" x1="783.487" y1="330" x2="783.487" y2="230"/>
		
			<line opacity="0.4" fill="none" stroke="#231F20" stroke-width="3" stroke-miterlimit="10" x1="803.487" y1="330" x2="803.487" y2="230"/>
		
			<line opacity="0.4" fill="none" stroke="#231F20" stroke-width="3" stroke-miterlimit="10" x1="643.487" y1="260" x2="643.487" y2="230"/>
		
			<line opacity="0.4" fill="none" stroke="#231F20" stroke-width="3" stroke-miterlimit="10" x1="663.487" y1="260" x2="663.487" y2="230"/>
		<rect x="813.487" y="110" fill="#F1F2F2" width="10" height="220"/>
		<rect x="763.487" y="110" fill="#F1F2F2" width="10" height="220"/>
		<polygon fill="#F1F2F2" points="853.485,100 873.485,100.001 873.487,160 853.495,159.999 		"/>
		<polygon fill="#F1F2F2" points="713.796,100 733.169,100.001 733.18,160 713.806,159.999 		"/>
		<line fill="none" stroke="#D1D3D4" stroke-width="3" stroke-miterlimit="10" x1="873.487" y1="110" x2="853.487" y2="110"/>
		<line fill="none" stroke="#D1D3D4" stroke-width="3" stroke-miterlimit="10" x1="733.487" y1="110" x2="713.487" y2="110"/>
		<g opacity="0.3">
			<polygon fill="#231F20" points="923.487,330 873.487,330 873.487,200 873.487,100 			"/>
		</g>
		<g opacity="0.3">
			<polygon fill="#231F20" points="783.487,330 733.487,330 733.487,200 733.487,100 			"/>
		</g>
		<circle fill="#F1F2F2" cx="768.487" cy="105" r="5"/>
		<circle fill="#F1F2F2" cx="818.487" cy="105" r="5"/>
		
			<line fill="#D1D3D4" stroke="#414042" stroke-width="3" stroke-linecap="round" stroke-miterlimit="10" x1="1023.487" y1="120" x2="1023.487" y2="105"/>
		
			<line fill="#D1D3D4" stroke="#414042" stroke-width="3" stroke-linecap="round" stroke-miterlimit="10" x1="1023.487" y1="120" x2="1032.487" y2="120"/>
		<circle fill="#231F20" cx="1023.487" cy="120" r="3.167"/>
		<polyline fill="none" stroke="#F1F2F2" stroke-width="3" stroke-linecap="round" stroke-miterlimit="10" points="983.487,90 
			1023.487,60 1063.487,90 		"/>
	</g>
</g>
</svg>
