<?xml version="1.0" encoding="utf-8"?>
<!-- Generator: Adobe Illustrator 16.0.0, SVG Export Plug-In . SVG Version: 6.00 Build 0)  -->
<!DOCTYPE svg PUBLIC "-//W3C//DTD SVG 1.1//EN" "http://www.w3.org/Graphics/SVG/1.1/DTD/svg11.dtd">
<svg version="1.1" id="Layer_1" xmlns="http://www.w3.org/2000/svg" xmlns:xlink="http://www.w3.org/1999/xlink" x="0px" y="0px"
	 width="1140px" height="650px" viewBox="0 0 1140 650" enable-background="new 0 0 1140 650" xml:space="preserve">
<g>
	<g>
		<polygon fill="#333333" points="143.927,275.221 143.927,308.406 154.99,319.469 166.051,319.469 166.051,308.406 154.99,308.406 
			154.99,275.221 		"/>
		<polygon fill="#333333" points="221.361,286.283 232.422,286.283 232.422,319.469 243.484,319.469 243.484,286.283 
			254.547,286.283 254.547,275.221 221.361,275.221 		"/>
		<polygon fill="#333333" points="265.611,275.221 265.611,308.406 276.674,319.469 287.735,319.469 298.797,308.406 
			298.797,275.221 287.735,275.221 287.735,308.406 276.672,308.406 276.672,275.221 		"/>
		<rect x="309.858" y="275.221" fill="#333333" width="11.062" height="44.248"/>
		<rect x="354.107" y="330.531" fill="#CCCCCC" width="11.062" height="44.248"/>
		<path fill="#333333" d="M365.17,275.221h-22.124l-11.064,11.062v33.186h11.063v-11.062h11.062v11.062h11.061v-33.186
			L365.17,275.221z M354.107,297.346h-11.062v-11.062h11.062V297.346z"/>
		<path fill="#333333" d="M188.176,275.221l-11.063,11.062v33.186h11.063v-11.062h11.061v11.062H210.3v-33.186v-11.062H188.176z
			 M199.237,297.346h-11.061v-11.062h11.061V297.346z"/>
		<polygon fill="#CCCCCC" points="298.797,330.531 276.674,330.531 276.674,341.592 276.674,363.717 287.735,374.779 
			298.797,374.779 298.796,363.717 287.735,363.717 287.735,341.592 298.796,341.592 		"/>
		<path fill="#CCCCCC" d="M320.922,330.531l-11.063,11.062v22.123l0.001,11.062h22.124l11.061-11.062v-33.186H320.922z
			 M331.982,363.717h-11.061v-22.125h11.061V363.717z"/>
	</g>
	<polygon fill="#333333" points="376.232,319.469 376.232,275.221 398.358,275.221 409.419,286.283 409.419,319.469 
		398.358,319.469 398.358,286.281 387.295,286.281 387.295,319.469 	"/>
	<polygon fill="#CCCCCC" points="376.232,374.779 376.232,330.531 398.358,330.531 409.419,341.592 409.419,374.779 
		398.358,374.779 398.358,341.592 387.295,341.592 387.295,374.779 	"/>
</g>
<g>
	<path fill="none" stroke="#333333" stroke-width="9.9213" stroke-linecap="round" stroke-miterlimit="10" d="M669.31,268.75
		c10,0,17.5,7.5,17.5,20s-7.5,20-17.5,20s-17.5-7.5-17.5-20S659.31,268.75,669.31,268.75z"/>
	<path fill="none" stroke="#CCCCCC" stroke-width="9.9213" stroke-linecap="round" stroke-miterlimit="10" d="M851.81,309.25
		c10,0,17.5,7.5,17.5,20s-7.5,19.5-17.5,19.5s-17.5-7-17.5-19.5S841.81,309.25,851.81,309.25z"/>
	<path fill="none" stroke="#CCCCCC" stroke-width="9.9213" stroke-linecap="round" stroke-miterlimit="10" d="M1031.81,309.25
		c10,0,17.5,7.5,17.5,20s-7.5,19.5-17.5,19.5s-17.5-7-17.5-19.5S1021.81,309.25,1031.81,309.25z"/>
	<path fill="none" stroke="#CCCCCC" stroke-width="9.9213" stroke-linecap="round" stroke-miterlimit="10" d="M949.144,348.75
		c0,0,0.166-10,0.166-22.5s-7.5-17.5-15-17.5s-15,8-15,20.5s0,9.5,0,9.5"/>
	<path fill="none" stroke="#CCCCCC" stroke-width="9.9213" stroke-linecap="round" stroke-miterlimit="10" d="M889.476,348.75
		c0,0-0.166-7-0.166-19.5s7.5-20.5,15-20.5s15,8,15,20.5"/>
	<path fill="none" stroke="#CCCCCC" stroke-width="9.9213" stroke-linecap="round" stroke-miterlimit="10" d="M994.354,311.25
		c0,0,0,48,0,55.5s-4.045,14.5-12.045,14.5s-10.5-7.5-10.5-7.5"/>
	<path fill="none" stroke="#333333" stroke-width="9.9213" stroke-linecap="round" stroke-miterlimit="10" d="M709.31,288.75
		c0,12.5,7.5,20,17.5,20s17.5-7.5,17.5-20s-7.5-20-17.5-20S709.31,276.25,709.31,288.75v50"/>
	
		<path fill="none" stroke="#CCCCCC" stroke-width="9.9213" stroke-linecap="round" stroke-linejoin="round" stroke-miterlimit="10" d="
		M821.81,283.75c0-20-15-32.5-32.5-32.5c-20,0-32.5,17.167-32.5,35c0,22.5,17.322,32.929,35,40c12.5,5,32.516,15.126,32.5,40
		c-0.014,23.448-20,37.5-37.5,37.5s-37.5-15-37.5-37.5s17.5-32.5,17.5-32.5v15"/>
	<linearGradient id="SVGID_1_" gradientUnits="userSpaceOnUse" x1="799.4824" y1="313.2021" x2="823.5405" y2="284.5386">
		<stop  offset="0.0936" style="stop-color:#333333"/>
		<stop  offset="1" style="stop-color:#CCCCCC"/>
	</linearGradient>
	<path fill="url(#SVGID_1_)" d="M794.31,316.211c-2.739,0-4.961-2.222-4.961-4.961s2.222-4.961,4.961-4.961
		c11.219,0,22.539-6.969,22.539-22.539c0-2.739,2.222-4.961,4.961-4.961s4.961,2.222,4.961,4.961
		C826.771,302.862,813.422,316.211,794.31,316.211z"/>
	
		<path fill="none" stroke="#333333" stroke-width="9.9213" stroke-linecap="round" stroke-linejoin="round" stroke-miterlimit="10" d="
		M774.31,288.75l30-7.5c0-5-5-12.5-15-12.5s-17.5,7.5-17.5,20s10,22.5,22.5,22.5"/>
	<path fill="none" stroke="#565656" stroke-width="9.9213" stroke-linecap="round" stroke-miterlimit="10" d="M629.828,303.982"/>
	<path fill="none" stroke="#565656" stroke-width="9.9213" stroke-linecap="round" stroke-miterlimit="10" d="M634.31,288.75"/>
	<path fill="none" stroke="#333333" stroke-width="9.9213" stroke-linecap="round" stroke-miterlimit="10" d="M629.95,278.691"/>
	
		<line fill="none" stroke="#CCCCCC" stroke-width="9.9213" stroke-linecap="round" stroke-miterlimit="10" x1="971.81" y1="311.25" x2="971.81" y2="348.75"/>
	
		<line fill="none" stroke="#CCCCCC" stroke-width="9.9213" stroke-linecap="round" stroke-miterlimit="10" x1="974.31" y1="288.75" x2="971.81" y2="291.25"/>
	
		<line fill="none" stroke="#CCCCCC" stroke-width="9.9213" stroke-linecap="round" stroke-miterlimit="10" x1="996.81" y1="288.75" x2="994.31" y2="291.25"/>
	
		<line fill="none" stroke="#CCCCCC" stroke-width="9.9213" stroke-linecap="round" stroke-miterlimit="10" x1="1049.31" y1="311.25" x2="1049.31" y2="348.75"/>
	
		<line fill="none" stroke="#CCCCCC" stroke-width="9.9213" stroke-linecap="round" stroke-miterlimit="10" x1="889.31" y1="311.25" x2="889.31" y2="348.75"/>
	<path fill="#E22D2D" d="M896.282,246.25"/>
	<path opacity="0.5" fill="none" stroke="#DB2C2C" stroke-width="9.9213" stroke-linecap="round" stroke-miterlimit="10" d="
		M787.337,311.25"/>
	<path opacity="0.5" fill="none" stroke="#DB2C2C" stroke-width="9.9213" stroke-linecap="round" stroke-miterlimit="10" d="
		M804.288,315.126"/>
	<path opacity="0.5" fill="none" stroke="#DB2C2C" stroke-width="9.9213" stroke-linecap="round" stroke-miterlimit="10" d="
		M787.337,311.25"/>
	<path fill="none" stroke="#333333" stroke-width="9.9213" stroke-linecap="round" stroke-miterlimit="10" d="M629.48,274.271
		c-3.136-3.564-7.575-5.521-12.671-5.521c-10,0-17.5,7.5-17.5,20s7.5,20.148,17.5,20.148c5.43,0,10.119-2.953,13.275-7.648"/>
</g>
</svg>
