<?xml version="1.0" encoding="utf-8"?>
<!-- Generator: Adobe Illustrator 16.0.0, SVG Export Plug-In . SVG Version: 6.00 Build 0)  -->
<!DOCTYPE svg PUBLIC "-//W3C//DTD SVG 1.1//EN" "http://www.w3.org/Graphics/SVG/1.1/DTD/svg11.dtd">
<svg version="1.1" id="Layer_1" xmlns="http://www.w3.org/2000/svg" xmlns:xlink="http://www.w3.org/1999/xlink" x="0px" y="0px"
	 width="1140px" height="650px" viewBox="0 0 1140 650" enable-background="new 0 0 1140 650" xml:space="preserve">
<g>
	<g>
		<path fill="#374953" d="M845.387,293.781c-0.052,19.811-19.768,52.832-59.411,52.832c-39.646,0-59.457-33.021-59.457-52.832
			c0-19.812,0-112.267,0-112.267h13.208l46.249-26.416l46.203,26.416h13.208C845.387,181.515,845.44,273.97,845.387,293.781z"/>
		
			<rect x="734.614" y="253.787" transform="matrix(-0.5505 -0.8348 0.8348 -0.5505 974.2383 1038.6526)" fill="#FFFFFF" width="64.249" height="6.523"/>
		<path fill="#7798A4" d="M785.954,201.326c18.205,0,33.018,14.812,33.018,33.02c0,18.208-14.812,33.02-33.018,33.02
			c-18.207,0-33.02-14.812-33.02-33.02C752.935,216.139,767.747,201.326,785.954,201.326 M785.954,194.722
			c-21.885,0-39.624,17.74-39.624,39.624c0,21.884,17.739,39.624,39.624,39.624c21.883,0,39.621-17.74,39.621-39.624
			C825.575,212.462,807.837,194.722,785.954,194.722L785.954,194.722z"/>
		<polygon fill="#FFFFFF" points="746.33,232.026 758.656,250.718 764.545,247.799 751.776,228.435 		"/>
		<linearGradient id="SVGID_1_" gradientUnits="userSpaceOnUse" x1="785.8994" y1="191.666" x2="785.8994" y2="283.4502">
			<stop  offset="0.2" style="stop-color:#7798A4"/>
			<stop  offset="0.5874" style="stop-color:#CED9DE"/>
			<stop  offset="0.8" style="stop-color:#FFFFFF"/>
		</linearGradient>
		<polygon fill="url(#SVGID_1_)" points="789.16,283.45 782.639,280.573 782.639,191.666 789.16,191.666 		"/>
		<path fill="#FFFFFF" d="M785.931,194.739c0.691,0.017,9.119,0.31,17.223,4.498c4.623,2.388,8.277,5.602,10.862,9.552
			c3.289,5.022,4.956,11.414,4.956,18.997c0,26.242-0.033,43.944-0.055,52.787h-66.01c0.011-8.871,0.027-26.606,0.027-52.846
			c0-7.583,1.665-13.971,4.949-18.988c2.581-3.943,6.23-7.149,10.846-9.53C776.821,195.036,785.238,194.755,785.931,194.739
			 M785.936,188.135c0,0-39.605,0.099-39.605,39.592c0,39.493-0.035,59.45-0.035,59.45h79.207c0,0,0.073-19.899,0.073-59.392
			C825.575,188.292,785.936,188.135,785.936,188.135L785.936,188.135z"/>
		<rect x="750.022" y="227.822" fill="#FFFFFF" width="71.752" height="6.523"/>
		
			<rect x="781.284" y="302.319" transform="matrix(0.7072 0.7071 -0.7071 0.7072 447.218 -465.8132)" fill="#FFFFFF" width="9.341" height="9.341"/>
		
			<rect x="768.076" y="315.527" transform="matrix(0.7071 0.7071 -0.7071 0.7071 452.7454 -452.6306)" fill="#FFFFFF" width="9.34" height="9.34"/>
		
			<rect x="794.491" y="315.527" transform="matrix(0.707 0.7072 -0.7072 0.707 460.599 -471.3582)" fill="#FFFFFF" width="9.339" height="9.339"/>
		
			<rect x="807.699" y="302.32" transform="matrix(0.7071 0.7071 -0.7071 0.7071 455.012 -484.5165)" fill="#FFFFFF" width="9.34" height="9.34"/>
		
			<rect x="754.869" y="302.32" transform="matrix(0.7071 0.7071 -0.7071 0.7071 439.5384 -447.16)" fill="#FFFFFF" width="9.34" height="9.34"/>
	</g>
	<g>
		<path fill="#AEAFB2" d="M729.094,485.073c0,0-0.441,0.221-1.362,0.221c-0.92,0-1.361-0.221-1.361-0.221v-26.278h14.464
			c0.074,0.258,0.221,0.626,0.221,1.141c0,0.516-0.11,0.884-0.221,1.142h-11.74v10.047h10.269c0.11,0.221,0.221,0.626,0.221,1.104
			c0,0.516-0.11,0.92-0.221,1.178h-10.269V485.073z"/>
		<path fill="#AEAFB2" d="M752.346,458.794c0.957,0,1.509,0.221,1.509,0.221l9.753,26.058c0,0-0.479,0.221-1.509,0.221
			c-0.884,0-1.325-0.221-1.325-0.221l-2.649-7.029h-11.741l-2.687,7.029c0,0-0.441,0.221-1.325,0.221
			c-0.883,0-1.288-0.221-1.288-0.221l9.754-26.058C750.837,459.015,751.426,458.794,752.346,458.794z M752.198,461.959
			c0,0-0.221,1.104-0.736,2.54l-4.269,11.262h10.121l-4.27-11.262c-0.516-1.473-0.736-2.54-0.736-2.54H752.198z"/>
		<path fill="#AEAFB2" d="M775.95,458.426c4.012,0,6.184,1.215,6.184,1.215c0.036,0.883-0.331,1.546-0.847,2.061
			c0,0-2.098-0.92-5.042-0.92c-4.601,0-7.729,2.503-7.729,11.299s3.129,11.151,7.729,11.151c3.238,0,5.446-0.92,5.446-0.92
			c0.516,0.516,0.811,1.325,0.847,2.098c0,0-2.281,1.252-6.588,1.252c-6.846,0-10.305-4.527-10.305-13.617
			C765.646,463.064,769.104,458.426,775.95,458.426z"/>
		<path fill="#AEAFB2" d="M803.045,458.794c0,0,0.222,0.441,0.222,1.178c0,0.699-0.222,1.215-0.222,1.215h-7.177v23.886
			c0,0-0.478,0.221-1.361,0.221c-0.957,0-1.361-0.221-1.361-0.221v-23.886h-7.361c0,0-0.221-0.479-0.221-1.215
			c0-0.699,0.221-1.178,0.221-1.178H803.045z"/>
		<path fill="#AEAFB2" d="M815.675,458.426c6.257,0,10.121,4.085,10.121,13.618c0,9.532-3.827,13.617-10.121,13.617
			s-10.121-4.085-10.121-13.617C805.554,462.548,809.418,458.426,815.675,458.426z M815.675,460.708
			c-4.416,0-7.25,2.834-7.25,11.336c0,8.501,2.834,11.335,7.25,11.335c4.417,0,7.251-2.834,7.251-11.335
			C822.926,463.542,820.092,460.708,815.675,460.708z"/>
		<path fill="#AEAFB2" d="M840.352,458.794c4.711,0,7.619,3.018,7.619,7.545c0,3.717-1.951,6.44-5.3,7.25l6.367,11.483
			c0,0-0.553,0.221-1.583,0.221s-1.582-0.221-1.582-0.221l-6.184-11.188h-5.741v11.188c0,0-0.441,0.221-1.325,0.221
			c-0.993,0-1.398-0.221-1.398-0.221v-26.278H840.352z M833.948,471.566h6.146c3.128,0,5.005-1.914,5.005-5.227
			c0-3.275-1.877-5.227-5.005-5.227h-6.146V471.566z"/>
		<path fill="#AEAFB2" d="M870.379,458.794c0.957,0,1.546,0.221,1.546,0.221l-9.532,15.127v10.931c0,0-0.442,0.221-1.325,0.221
			c-0.957,0-1.398-0.221-1.398-0.221v-10.857l-9.274-15.2c0,0,0.552-0.221,1.655-0.221c1.031,0,1.546,0.221,1.546,0.221
			l7.582,12.329l7.766-12.329C868.943,459.015,869.385,458.794,870.379,458.794z"/>
	</g>
	<g>
		<path fill="#AEAFB2" d="M729.094,445.448c0,0-0.441,0.221-1.325,0.221c-0.993,0-1.398-0.221-1.398-0.221v-26.278h9.312
			c4.711,0,7.618,3.165,7.618,7.876c0,4.674-2.907,7.876-7.618,7.876h-6.588V445.448z M735.424,432.566
			c3.202,0,5.006-2.098,5.006-5.483c0-3.497-1.804-5.595-5.006-5.595h-6.33v11.078H735.424z"/>
		<path fill="#AEAFB2" d="M755.4,439.007c0.662,1.95,0.92,3.422,0.92,3.422h0.11c0,0,0.258-1.472,0.957-3.422l6.956-19.617
			c0,0,0.368-0.221,1.288-0.221s1.398,0.221,1.398,0.221l-9.201,26.095c0,0-0.589,0.184-1.472,0.184
			c-0.92,0-1.509-0.184-1.509-0.184l-9.165-26.058c0,0,0.442-0.258,1.473-0.258c0.883,0,1.288,0.221,1.288,0.221L755.4,439.007z"/>
		<path fill="#AEAFB2" d="M779.521,418.801c4.012,0,6.184,1.215,6.184,1.215c0.036,0.883-0.331,1.546-0.847,2.061
			c0,0-2.098-0.92-5.042-0.92c-4.601,0-7.729,2.503-7.729,11.299s3.129,11.151,7.729,11.151c3.238,0,5.446-0.92,5.446-0.92
			c0.516,0.516,0.811,1.325,0.847,2.098c0,0-2.281,1.252-6.588,1.252c-6.846,0-10.305-4.527-10.305-13.617
			C769.216,423.439,772.675,418.801,779.521,418.801z"/>
		<path fill="#AEAFB2" d="M814.746,426.825c-0.736-2.907-0.81-4.453-0.81-4.453h-0.11c0,0-0.11,1.546-0.81,4.453l-5.152,18.623
			c-0.332,0.11-0.994,0.221-1.62,0.221c-0.662,0-1.214-0.11-1.509-0.221l-7.545-26.058c0,0,0.442-0.221,1.362-0.221
			c0.957,0,1.398,0.221,1.398,0.221l5.483,18.807c0.626,2.245,0.957,4.27,0.957,4.27h0.11c0,0,0.221-1.987,0.81-4.232l5.264-18.844
			c0,0,0.404-0.221,1.361-0.221c0.994,0,1.398,0.221,1.398,0.221l5.227,18.807c0.589,2.355,0.772,4.27,0.772,4.27h0.11
			c0,0,0.221-1.84,0.921-4.232l5.336-18.844c0,0,0.441-0.221,1.252-0.221c0.81,0,1.288,0.221,1.288,0.221l-7.361,26.058
			c0,0-0.552,0.221-1.472,0.221c-0.884,0-1.546-0.221-1.546-0.221L814.746,426.825z"/>
		<path fill="#AEAFB2" d="M834.629,419.39c0,0,0.441-0.221,1.361-0.221c0.921,0,1.362,0.221,1.362,0.221v26.058
			c0,0-0.479,0.221-1.362,0.221c-0.956,0-1.361-0.221-1.361-0.221V419.39z"/>
		<path fill="#AEAFB2" d="M848.166,426.714c-1.325-2.208-1.987-4.049-1.987-4.049h-0.11c0,0,0.184,1.987,0.184,5.595v17.188
			c0,0-0.404,0.221-1.288,0.221c-0.846,0-1.251-0.221-1.251-0.221V419.39c0,0,0.589-0.221,1.619-0.221
			c1.104,0,1.619,0.221,1.619,0.221l10.784,18.513c1.251,2.135,2.098,4.27,2.098,4.27h0.11c0,0-0.221-2.355-0.221-5.484V419.39
			c0,0,0.405-0.221,1.325-0.221c0.883,0,1.214,0.221,1.214,0.221v26.058c0,0-0.478,0.221-1.545,0.221
			c-1.104,0-1.656-0.221-1.656-0.221L848.166,426.714z"/>
		<path fill="#AEAFB2" d="M876.377,419.169c6.919,0,10.71,3.275,10.71,13.25c0,9.937-3.791,13.249-10.71,13.249h-7.692v-26.499
			H876.377z M876.156,443.35c5.042,0,8.022-2.099,8.022-10.931c0-8.87-2.98-10.932-8.022-10.932h-4.748v21.862H876.156z"/>
		<path fill="#AEAFB2" d="M901.591,418.801c6.257,0,10.121,4.085,10.121,13.618c0,9.532-3.827,13.617-10.121,13.617
			s-10.121-4.085-10.121-13.617C891.47,422.923,895.334,418.801,901.591,418.801z M901.591,421.083c-4.416,0-7.25,2.834-7.25,11.336
			c0,8.501,2.834,11.335,7.25,11.335c4.417,0,7.251-2.834,7.251-11.335C908.842,423.917,906.008,421.083,901.591,421.083z"/>
		<path fill="#AEAFB2" d="M931.696,426.825c-0.736-2.907-0.81-4.453-0.81-4.453h-0.11c0,0-0.11,1.546-0.81,4.453l-5.152,18.623
			c-0.332,0.11-0.994,0.221-1.62,0.221c-0.662,0-1.214-0.11-1.509-0.221l-7.545-26.058c0,0,0.441-0.221,1.362-0.221
			c0.957,0,1.398,0.221,1.398,0.221l5.483,18.807c0.626,2.245,0.957,4.27,0.957,4.27h0.11c0,0,0.221-1.987,0.81-4.232l5.264-18.844
			c0,0,0.404-0.221,1.361-0.221c0.994,0,1.398,0.221,1.398,0.221l5.227,18.807c0.589,2.355,0.772,4.27,0.772,4.27h0.11
			c0,0,0.221-1.84,0.92-4.232l5.337-18.844c0,0,0.441-0.221,1.252-0.221c0.81,0,1.288,0.221,1.288,0.221l-7.361,26.058
			c0,0-0.552,0.221-1.472,0.221c-0.884,0-1.546-0.221-1.546-0.221L931.696,426.825z"/>
	</g>
	<g>
		<path fill="#333333" d="M748.158,372.944c1.804,0,3.055,0.331,3.055,0.331v25.837c0,0-0.81,0.331-2.318,0.331
			s-2.393-0.331-2.393-0.331v-8.061c0-4.048-0.146-9.127,0.258-12.182h-0.221c-0.626,2.318-2.576,6.146-4.049,9.312l-2.576,5.41
			c0,0-0.552,0.184-1.361,0.184s-1.178-0.184-1.178-0.184c-0.847-1.73-1.73-3.46-2.576-5.227c-1.583-3.202-3.57-7.177-4.159-9.495
			h-0.221c0.552,2.576,0.441,7.36,0.441,11.262v8.98c0,0-0.772,0.331-2.208,0.331c-1.288,0-2.098-0.331-2.098-0.331v-25.837
			c0,0,1.141-0.331,2.834-0.331c1.398,0,2.797,0.331,2.797,0.331l3.349,6.735c1.215,2.503,2.577,5.3,3.166,7.214h0.184
			c0.331-1.067,0.772-2.355,1.472-3.828c1.656-3.349,3.239-6.735,4.785-10.121C746.134,373.054,747.312,372.944,748.158,372.944z"/>
		<path fill="#333333" d="M773.841,372.944c0.221,0.552,0.368,1.141,0.368,1.767c0,0.699-0.11,1.398-0.368,2.024h-10.489v7.435
			h8.649c0.221,0.589,0.368,1.214,0.368,1.84c0,0.662-0.11,1.325-0.368,1.951h-8.649v7.691h10.857
			c0.221,0.589,0.368,1.215,0.368,1.841c0,0.662-0.11,1.324-0.368,1.95h-15.568v-26.499H773.841z"/>
		<path fill="#333333" d="M786.784,384.316c-1.398-2.576-2.393-5.41-2.393-5.41h-0.147c0,0,0.295,2.908,0.295,6.735v13.471
			c0,0-0.699,0.331-2.208,0.331c-1.473,0-2.135-0.331-2.135-0.331v-25.837c0,0,0.993-0.331,2.834-0.331
			c1.877,0,2.797,0.331,2.797,0.331l7.581,14.722c1.436,2.65,2.467,5.521,2.467,5.521h0.146c0,0-0.294-3.091-0.294-6.846v-13.396
			c0,0,0.662-0.331,2.208-0.331s2.135,0.331,2.135,0.331v25.837c0,0-0.884,0.331-2.761,0.331c-1.84,0-2.87-0.331-2.87-0.331
			L786.784,384.316z"/>
		<path fill="#333333" d="M822.66,372.944c0.221,0.552,0.368,1.141,0.368,1.767c0,0.699-0.11,1.398-0.368,2.024h-10.489v7.435h8.649
			c0.221,0.589,0.368,1.214,0.368,1.84c0,0.662-0.11,1.325-0.368,1.951h-8.649v7.691h10.857c0.221,0.589,0.368,1.215,0.368,1.841
			c0,0.662-0.11,1.324-0.368,1.95H807.46v-26.499H822.66z"/>
		<path fill="#333333" d="M845.519,372.944c0.993,0,1.803,0.11,2.502,0.331l-7.655,12.035l8.429,13.691c0,0-0.957,0.441-2.724,0.441
			c-1.583,0-2.613-0.368-2.613-0.368l-6.183-10.048l-6.404,10.121c-0.662,0.185-1.472,0.295-2.282,0.295
			c-0.993,0-2.023-0.073-2.797-0.295l8.612-13.58l-7.472-12.293c0,0,0.957-0.331,2.724-0.331c1.583,0,2.65,0.331,2.65,0.331
			l5.3,8.649l5.483-8.649C843.825,373.054,844.598,372.944,845.519,372.944z"/>
		<path fill="#333333" d="M863.777,373.275c0,0,0.772-0.331,2.318-0.331c1.583,0,2.393,0.331,2.393,0.331v22.119h10.562
			c0.258,0.589,0.368,1.325,0.368,2.024s-0.147,1.362-0.368,2.024h-15.273V373.275z"/>
		<path fill="#333333" d="M897.676,372.944c0,0,0.368,0.884,0.368,1.987c0,1.178-0.368,2.062-0.368,2.062h-6.514v22.119
			c0,0-0.847,0.331-2.355,0.331c-1.693,0-2.355-0.331-2.355-0.331v-22.119h-6.698c0,0-0.368-0.773-0.368-1.987
			c0-1.178,0.368-2.062,0.368-2.062H897.676z"/>
		<path fill="#333333" d="M910.155,372.944c6.698,0,10.894,3.717,10.894,13.249c0,9.533-4.195,13.25-10.894,13.25h-8.649v-26.499
			H910.155z M909.824,395.542c3.569,0,6.183-1.582,6.183-9.349c0-7.802-2.613-9.348-6.183-9.348h-3.607v18.696H909.824z"/>
	</g>
</g>
<g>
	<linearGradient id="SVGID_2_" gradientUnits="userSpaceOnUse" x1="302.7119" y1="423.228" x2="302.7119" y2="272.8848">
		<stop  offset="0.0296" style="stop-color:#C6A941"/>
		<stop  offset="0.3" style="stop-color:#C6A941;stop-opacity:0.4"/>
		<stop  offset="0.6811" style="stop-color:#C6A941;stop-opacity:0.9152"/>
		<stop  offset="0.7438" style="stop-color:#C6A941"/>
		<stop  offset="0.9638" style="stop-color:#C6A941;stop-opacity:0.5707"/>
		<stop  offset="1" style="stop-color:#C6A941;stop-opacity:0.5"/>
	</linearGradient>
	<path fill="url(#SVGID_2_)" d="M220.753,268.514c0,0,8.859,0,8.859,8.86c0,8.861,0,37.657,0,37.657h26.582v37.657
		c0,0,0,31.011,31.012,31.011c19.936,0,19.936,19.937,19.936,19.937v35.442h77.529v-39.872c0,0,0-19.937-19.936-19.937
		c-33.227,0-33.227-33.228-33.227-33.228v-31.011h-24.367c0,0,0-28.796,0-37.657c0-8.86-8.859-8.86-8.859-8.86H220.753z"/>
	<g opacity="0.5">
		
			<rect x="310.655" y="376.137" transform="matrix(-0.7071 0.7071 -0.7071 -0.7071 803.853 425.5723)" fill="#FFFFFF" width="6.265" height="6.265"/>
		
			<rect x="310.655" y="362.847" transform="matrix(-0.707 0.7073 -0.7073 -0.707 794.4636 402.7789)" fill="#FFFFFF" width="6.266" height="6.265"/>
		
			<rect x="328.376" y="376.137" transform="matrix(-0.7071 0.7071 -0.7071 -0.7071 834.1041 413.0418)" fill="#FFFFFF" width="6.265" height="6.265"/>
		
			<rect x="328.375" y="362.847" transform="matrix(-0.707 0.7073 -0.7073 -0.707 824.712 390.2457)" fill="#FFFFFF" width="6.266" height="6.265"/>
		
			<rect x="319.516" y="369.491" transform="matrix(-0.7071 0.7071 -0.7071 -0.7071 814.2803 407.9621)" fill="#FFFFFF" width="6.265" height="6.266"/>
		
			<rect x="319.516" y="382.783" transform="matrix(-0.7071 0.7071 -0.7071 -0.7071 823.6788 430.6521)" fill="#FFFFFF" width="6.265" height="6.265"/>
		
			<rect x="319.516" y="356.202" transform="matrix(-0.7071 0.7071 -0.7071 -0.7071 804.8828 385.2746)" fill="#FFFFFF" width="6.265" height="6.265"/>
		
			<rect x="337.237" y="382.783" transform="matrix(-0.7071 0.7071 -0.7071 -0.7071 853.9299 418.1217)" fill="#FFFFFF" width="6.265" height="6.265"/>
		
			<rect x="337.237" y="369.491" transform="matrix(-0.7071 0.7071 -0.7071 -0.7071 844.5314 395.4316)" fill="#FFFFFF" width="6.265" height="6.266"/>
		
			<rect x="354.957" y="382.782" transform="matrix(-0.7072 0.707 -0.707 -0.7072 884.177 405.6785)" fill="#FFFFFF" width="6.266" height="6.266"/>
		
			<rect x="372.679" y="382.783" transform="matrix(-0.7071 0.7071 -0.7071 -0.7071 914.4327 393.0901)" fill="#FFFFFF" width="6.265" height="6.266"/>
		
			<rect x="346.098" y="376.137" transform="matrix(-0.7071 0.7071 -0.7071 -0.7071 864.3569 400.5107)" fill="#FFFFFF" width="6.265" height="6.265"/>
		
			<rect x="363.817" y="376.137" transform="matrix(-0.7072 0.707 -0.707 -0.7072 894.6058 388.0678)" fill="#FFFFFF" width="6.266" height="6.266"/>
		
			<rect x="346.098" y="389.428" transform="matrix(-0.7071 0.7071 -0.7071 -0.7071 873.7554 423.2007)" fill="#FFFFFF" width="6.265" height="6.265"/>
		
			<rect x="354.957" y="396.072" transform="matrix(-0.7072 0.707 -0.707 -0.7072 893.5729 428.3676)" fill="#FFFFFF" width="6.266" height="6.266"/>
		
			<rect x="346.097" y="402.719" transform="matrix(-0.707 0.7072 -0.7072 -0.707 883.1573 445.8294)" fill="#FFFFFF" width="6.265" height="6.265"/>
		
			<rect x="363.817" y="402.718" transform="matrix(-0.7071 0.7071 -0.7071 -0.7071 913.4017 433.3882)" fill="#FFFFFF" width="6.266" height="6.266"/>
		
			<rect x="363.817" y="389.428" transform="matrix(-0.7072 0.707 -0.707 -0.7072 904.0027 410.7594)" fill="#FFFFFF" width="6.266" height="6.266"/>
		
			<rect x="381.538" y="389.428" transform="matrix(-0.7072 0.707 -0.707 -0.7072 934.256 398.231)" fill="#FFFFFF" width="6.266" height="6.266"/>
		
			<rect x="354.957" y="409.364" transform="matrix(-0.7072 0.707 -0.707 -0.7072 902.9698 451.0591)" fill="#FFFFFF" width="6.266" height="6.266"/>
		
			<rect x="372.679" y="409.365" transform="matrix(-0.7071 0.7071 -0.7071 -0.7071 933.2277 438.4687)" fill="#FFFFFF" width="6.265" height="6.265"/>
		
			<rect x="372.679" y="396.073" transform="matrix(-0.7071 0.7071 -0.7071 -0.7071 923.8296 415.7782)" fill="#FFFFFF" width="6.265" height="6.266"/>
		
			<rect x="319.516" y="409.365" transform="matrix(-0.7071 0.7071 -0.7071 -0.7071 842.4748 476.0297)" fill="#FFFFFF" width="6.265" height="6.265"/>
		
			<rect x="319.516" y="396.073" transform="matrix(-0.7071 0.7071 -0.7071 -0.7071 833.0763 453.3396)" fill="#FFFFFF" width="6.265" height="6.265"/>
		
			<rect x="337.237" y="409.365" transform="matrix(-0.7071 0.7071 -0.7071 -0.7071 872.726 463.4992)" fill="#FFFFFF" width="6.265" height="6.265"/>
		
			<rect x="337.237" y="396.073" transform="matrix(-0.7071 0.7071 -0.7071 -0.7071 863.3274 440.8092)" fill="#FFFFFF" width="6.265" height="6.265"/>
		
			<rect x="328.376" y="402.719" transform="matrix(-0.707 0.7072 -0.7072 -0.707 852.9059 458.3619)" fill="#FFFFFF" width="6.265" height="6.265"/>
		
			<rect x="328.376" y="389.428" transform="matrix(-0.7071 0.7071 -0.7071 -0.7071 843.5026 435.7318)" fill="#FFFFFF" width="6.265" height="6.265"/>
		
			<rect x="310.655" y="402.719" transform="matrix(-0.707 0.7072 -0.7072 -0.707 822.6561 470.8937)" fill="#FFFFFF" width="6.265" height="6.265"/>
		
			<rect x="310.655" y="389.428" transform="matrix(-0.7071 0.7071 -0.7071 -0.7071 813.2515 448.2623)" fill="#FFFFFF" width="6.265" height="6.265"/>
		
			<rect x="301.794" y="396.073" transform="matrix(-0.7071 0.7071 -0.7071 -0.7071 802.8235 465.8707)" fill="#FFFFFF" width="6.265" height="6.265"/>
		
			<rect x="301.794" y="409.365" transform="matrix(-0.7071 0.7071 -0.7071 -0.7071 812.222 488.5608)" fill="#FFFFFF" width="6.265" height="6.265"/>
		
			<rect x="301.794" y="382.783" transform="matrix(-0.7071 0.7071 -0.7071 -0.7071 793.426 443.1832)" fill="#FFFFFF" width="6.265" height="6.265"/>
		
			<rect x="301.794" y="342.911" transform="matrix(-0.707 0.7073 -0.7073 -0.707 765.2383 375.0151)" fill="#FFFFFF" width="6.266" height="6.265"/>
		
			<rect x="319.515" y="342.911" transform="matrix(-0.707 0.7073 -0.7073 -0.707 795.4883 362.4813)" fill="#FFFFFF" width="6.266" height="6.265"/>
		
			<rect x="310.655" y="349.556" transform="matrix(-0.7071 0.7071 -0.7071 -0.7071 785.0574 380.1956)" fill="#FFFFFF" width="6.265" height="6.265"/>
		
			<rect x="284.074" y="369.491" transform="matrix(-0.7071 0.7071 -0.7071 -0.7071 753.7731 433.0493)" fill="#FFFFFF" width="6.265" height="6.266"/>
		
			<rect x="284.074" y="356.202" transform="matrix(-0.7071 0.7071 -0.7071 -0.7071 744.3761 410.3613)" fill="#FFFFFF" width="6.265" height="6.265"/>
		
			<rect x="275.212" y="362.847" transform="matrix(-0.707 0.7072 -0.7072 -0.707 733.9618 427.871)" fill="#FFFFFF" width="6.266" height="6.265"/>
		
			<rect x="301.794" y="369.491" transform="matrix(-0.7071 0.7071 -0.7071 -0.7071 784.0275 420.4932)" fill="#FFFFFF" width="6.265" height="6.266"/>
		
			<rect x="301.794" y="356.202" transform="matrix(-0.7071 0.7071 -0.7071 -0.7071 774.63 397.8057)" fill="#FFFFFF" width="6.265" height="6.265"/>
		
			<rect x="292.934" y="362.847" transform="matrix(-0.707 0.7073 -0.7073 -0.707 764.2161 415.3117)" fill="#FFFFFF" width="6.266" height="6.265"/>
		
			<rect x="292.935" y="376.137" transform="matrix(-0.7071 0.7071 -0.7071 -0.7071 773.6027 438.1023)" fill="#FFFFFF" width="6.265" height="6.265"/>
		
			<rect x="292.935" y="349.556" transform="matrix(-0.7071 0.7071 -0.7071 -0.7071 754.8071 392.7256)" fill="#FFFFFF" width="6.265" height="6.265"/>
		
			<rect x="284.073" y="342.911" transform="matrix(-0.707 0.7072 -0.7072 -0.707 734.9876 387.573)" fill="#FFFFFF" width="6.266" height="6.265"/>
		
			<rect x="275.213" y="349.556" transform="matrix(-0.7071 0.7071 -0.7071 -0.7071 724.5505 405.2817)" fill="#FFFFFF" width="6.265" height="6.265"/>
		
			<rect x="328.376" y="349.556" transform="matrix(-0.7071 0.7071 -0.7071 -0.7071 815.3085 367.6651)" fill="#FFFFFF" width="6.265" height="6.265"/>
		<polygon fill="#FFFFFF" points="331.508,343.828 331.508,334.968 327.078,339.397 		"/>
	</g>
	<g opacity="0.5">
		
			<rect x="257.493" y="322.975" transform="matrix(-0.7071 0.7071 -0.7071 -0.7071 675.5098 372.3872)" fill="#FFFFFF" width="6.265" height="6.265"/>
		
			<rect x="275.213" y="322.975" transform="matrix(-0.7071 0.7071 -0.7071 -0.7071 705.7576 359.88)" fill="#FFFFFF" width="6.265" height="6.265"/>
		
			<rect x="266.351" y="316.329" transform="matrix(-0.7071 0.7071 -0.7071 -0.7071 685.9302 354.8239)" fill="#FFFFFF" width="6.266" height="6.266"/>
		
			<rect x="266.351" y="329.619" transform="matrix(-0.7071 0.7071 -0.7071 -0.7071 695.3275 377.5128)" fill="#FFFFFF" width="6.266" height="6.266"/>
		
			<rect x="266.351" y="303.038" transform="matrix(-0.7071 0.7071 -0.7071 -0.7071 676.5327 332.1346)" fill="#FFFFFF" width="6.266" height="6.266"/>
		
			<rect x="284.073" y="329.62" transform="matrix(-0.7071 0.7071 -0.7071 -0.7071 725.5845 364.9341)" fill="#FFFFFF" width="6.266" height="6.265"/>
		
			<rect x="284.073" y="316.329" transform="matrix(-0.7071 0.7071 -0.7071 -0.7071 716.1862 342.2462)" fill="#FFFFFF" width="6.266" height="6.265"/>
		
			<rect x="301.794" y="316.329" transform="matrix(-0.707 0.7072 -0.7072 -0.707 746.4372 329.6908)" fill="#FFFFFF" width="6.265" height="6.265"/>
		
			<rect x="301.794" y="329.62" transform="matrix(-0.707 0.7072 -0.7072 -0.707 755.8361 352.3781)" fill="#FFFFFF" width="6.265" height="6.265"/>
		
			<rect x="319.516" y="316.329" transform="matrix(-0.707 0.7072 -0.7072 -0.707 776.6886 317.1583)" fill="#FFFFFF" width="6.265" height="6.265"/>
		
			<rect x="319.516" y="329.62" transform="matrix(-0.707 0.7072 -0.7072 -0.707 786.0875 339.8456)" fill="#FFFFFF" width="6.265" height="6.265"/>
		
			<rect x="310.655" y="322.975" transform="matrix(-0.7071 0.7071 -0.7071 -0.7071 766.262 334.7935)" fill="#FFFFFF" width="6.265" height="6.265"/>
		<polygon fill="#FFFFFF" points="331.508,330.537 331.508,321.677 327.078,326.107 		"/>
		
			<rect x="292.935" y="322.975" transform="matrix(-0.7071 0.7071 -0.7071 -0.7071 736.0124 347.3243)" fill="#FFFFFF" width="6.265" height="6.265"/>
		
			<rect x="292.935" y="336.266" transform="matrix(-0.707 0.7072 -0.7072 -0.707 745.4126 369.9878)" fill="#FFFFFF" width="6.265" height="6.265"/>
		
			<rect x="301.794" y="342.911" transform="matrix(-0.707 0.7073 -0.7073 -0.707 765.2383 375.0151)" fill="#FFFFFF" width="6.266" height="6.265"/>
		
			<rect x="310.655" y="349.556" transform="matrix(-0.7071 0.7071 -0.7071 -0.7071 785.0574 380.1956)" fill="#FFFFFF" width="6.265" height="6.265"/>
		
			<rect x="301.794" y="356.202" transform="matrix(-0.7071 0.7071 -0.7071 -0.7071 774.63 397.8057)" fill="#FFFFFF" width="6.265" height="6.265"/>
		
			<rect x="319.516" y="356.202" transform="matrix(-0.7071 0.7071 -0.7071 -0.7071 804.8828 385.2746)" fill="#FFFFFF" width="6.265" height="6.265"/>
		
			<rect x="319.515" y="342.911" transform="matrix(-0.707 0.7073 -0.7073 -0.707 795.4883 362.4813)" fill="#FFFFFF" width="6.266" height="6.265"/>
		<polygon fill="#FFFFFF" points="331.508,317.247 331.508,308.386 327.078,312.816 		"/>
		
			<rect x="310.655" y="336.266" transform="matrix(-0.707 0.7072 -0.7072 -0.707 775.6615 357.4563)" fill="#FFFFFF" width="6.265" height="6.265"/>
		
			<rect x="266.352" y="356.201" transform="matrix(-0.7072 0.707 -0.707 -0.7072 714.1156 422.9407)" fill="#FFFFFF" width="6.266" height="6.266"/>
		
			<rect x="266.352" y="369.491" transform="matrix(-0.7072 0.707 -0.707 -0.7072 723.5115 445.6298)" fill="#FFFFFF" width="6.266" height="6.267"/>
		
			<rect x="266.351" y="342.91" transform="matrix(-0.7071 0.7071 -0.7071 -0.7071 704.7309 400.1541)" fill="#FFFFFF" width="6.267" height="6.266"/>
		
			<rect x="275.213" y="376.137" transform="matrix(-0.7071 0.7071 -0.7071 -0.7071 743.3452 450.6594)" fill="#FFFFFF" width="6.265" height="6.265"/>
		
			<rect x="257.492" y="362.847" transform="matrix(-0.707 0.7073 -0.7073 -0.707 703.7177 440.3788)" fill="#FFFFFF" width="6.266" height="6.265"/>
		
			<rect x="275.212" y="336.266" transform="matrix(-0.7071 0.7071 -0.7071 -0.7071 715.158 382.5447)" fill="#FFFFFF" width="6.266" height="6.265"/>
		
			<rect x="257.493" y="349.556" transform="matrix(-0.7071 0.7071 -0.7071 -0.7071 694.3031 417.7872)" fill="#FFFFFF" width="6.265" height="6.265"/>
		
			<rect x="257.492" y="336.266" transform="matrix(-0.707 0.7072 -0.7072 -0.707 684.9114 395.0521)" fill="#FFFFFF" width="6.265" height="6.265"/>
		
			<rect x="248.631" y="342.911" transform="matrix(-0.707 0.7073 -0.7073 -0.707 674.4923 412.6151)" fill="#FFFFFF" width="6.266" height="6.265"/>
		
			<rect x="248.632" y="329.62" transform="matrix(-0.707 0.7072 -0.7072 -0.707 665.0859 389.9738)" fill="#FFFFFF" width="6.265" height="6.265"/>
		
			<rect x="248.632" y="289.748" transform="matrix(-0.7071 0.7071 -0.7071 -0.7071 636.8875 321.9323)" fill="#FFFFFF" width="6.265" height="6.265"/>
		
			<rect x="248.632" y="276.457" transform="matrix(-0.707 0.7072 -0.7072 -0.707 627.4902 299.2238)" fill="#FFFFFF" width="6.265" height="6.265"/>
		
			<rect x="266.351" y="289.747" transform="matrix(-0.7072 0.707 -0.707 -0.7072 667.1343 309.4672)" fill="#FFFFFF" width="6.266" height="6.266"/>
		
			<rect x="266.351" y="276.457" transform="matrix(-0.7071 0.7071 -0.7071 -0.7071 657.7379 286.7565)" fill="#FFFFFF" width="6.266" height="6.266"/>
		
			<rect x="257.492" y="283.103" transform="matrix(-0.707 0.7072 -0.7072 -0.707 647.3155 304.3016)" fill="#FFFFFF" width="6.265" height="6.265"/>
		
			<rect x="257.492" y="296.393" transform="matrix(-0.707 0.7072 -0.7072 -0.707 656.7144 326.9889)" fill="#FFFFFF" width="6.265" height="6.265"/>
		
			<rect x="248.632" y="316.329" transform="matrix(-0.707 0.7072 -0.7072 -0.707 655.6871 367.2865)" fill="#FFFFFF" width="6.265" height="6.265"/>
		
			<rect x="248.632" y="303.038" transform="matrix(-0.707 0.7072 -0.7072 -0.707 646.2881 344.5988)" fill="#FFFFFF" width="6.265" height="6.265"/>
		
			<rect x="239.77" y="296.393" transform="matrix(-0.7071 0.7071 -0.7071 -0.7071 626.4563 339.5848)" fill="#FFFFFF" width="6.266" height="6.266"/>
		
			<rect x="275.212" y="296.393" transform="matrix(-0.7071 0.7071 -0.7071 -0.7071 686.9624 314.48)" fill="#FFFFFF" width="6.266" height="6.265"/>
		
			<rect x="275.212" y="283.103" transform="matrix(-0.7071 0.7071 -0.7071 -0.7071 677.5641 291.7921)" fill="#FFFFFF" width="6.266" height="6.265"/>
		
			<rect x="292.935" y="296.393" transform="matrix(-0.707 0.7072 -0.7072 -0.707 717.2155 301.9246)" fill="#FFFFFF" width="6.265" height="6.265"/>
		
			<rect x="292.935" y="283.103" transform="matrix(-0.707 0.7072 -0.7072 -0.707 707.8167 279.2373)" fill="#FFFFFF" width="6.265" height="6.265"/>
		
			<rect x="284.073" y="276.457" transform="matrix(-0.7071 0.7071 -0.7071 -0.7071 687.9908 274.1819)" fill="#FFFFFF" width="6.266" height="6.265"/>
		
			<rect x="284.073" y="289.747" transform="matrix(-0.7071 0.7071 -0.7071 -0.7071 697.3889 296.8923)" fill="#FFFFFF" width="6.265" height="6.266"/>
		
			<rect x="284.073" y="303.038" transform="matrix(-0.7071 0.7071 -0.7071 -0.7071 706.7877 319.558)" fill="#FFFFFF" width="6.266" height="6.266"/>
		<polygon fill="#FFFFFF" points="296.067,317.247 298.282,315.031 293.851,315.031 		"/>
		<polygon fill="#FFFFFF" points="313.788,317.247 316.002,315.031 311.573,315.031 		"/>
		<polygon fill="#FFFFFF" points="278.345,317.247 280.561,315.031 276.13,315.031 		"/>
		<polygon fill="#FFFFFF" points="260.625,317.247 262.84,315.031 258.41,315.031 		"/>
	</g>
	<g opacity="0.2">
		
			<rect x="230.91" y="249.875" transform="matrix(-0.7072 0.707 -0.707 -0.7072 578.4368 266.4752)" fill="#FFFFFF" width="6.266" height="6.266"/>
		
			<rect x="230.91" y="263.166" transform="matrix(-0.7072 0.707 -0.707 -0.7072 587.8333 289.1655)" fill="#FFFFFF" width="6.266" height="6.266"/>
		
			<rect x="230.91" y="236.584" transform="matrix(-0.7072 0.707 -0.707 -0.7072 569.0405 243.7853)" fill="#FFFFFF" width="6.266" height="6.266"/>
		
			<rect x="222.05" y="243.23" transform="matrix(-0.7071 0.7071 -0.7071 -0.7071 558.6154 261.339)" fill="#FFFFFF" width="6.265" height="6.265"/>
		
			<rect x="222.05" y="256.521" transform="matrix(-0.7071 0.7071 -0.7071 -0.7071 568.0148 284.0089)" fill="#FFFFFF" width="6.265" height="6.265"/>
		
			<rect x="257.493" y="256.521" transform="matrix(-0.7071 0.7071 -0.7071 -0.7071 628.5173 258.946)" fill="#FFFFFF" width="6.265" height="6.265"/>
		
			<rect x="222.05" y="229.939" transform="matrix(-0.7071 0.7071 -0.7071 -0.7071 549.2174 238.6503)" fill="#FFFFFF" width="6.265" height="6.265"/>
		
			<rect x="213.189" y="236.584" transform="matrix(-0.7072 0.707 -0.707 -0.7072 538.7874 256.3137)" fill="#FFFFFF" width="6.266" height="6.266"/>
		
			<rect x="239.77" y="256.52" transform="matrix(-0.7072 0.707 -0.707 -0.7072 598.2632 271.5365)" fill="#FFFFFF" width="6.266" height="6.266"/>
		
			<rect x="239.771" y="243.23" transform="matrix(-0.7072 0.707 -0.707 -0.7072 588.8661 248.8658)" fill="#FFFFFF" width="6.266" height="6.266"/>
		
			<rect x="257.493" y="243.23" transform="matrix(-0.7071 0.7071 -0.7071 -0.7071 619.1193 236.2775)" fill="#FFFFFF" width="6.265" height="6.265"/>
		
			<rect x="266.352" y="236.584" transform="matrix(-0.7072 0.707 -0.707 -0.7072 629.5478 218.7283)" fill="#FFFFFF" width="6.266" height="6.266"/>
		
			<rect x="266.352" y="249.875" transform="matrix(-0.7072 0.707 -0.707 -0.7072 638.9441 241.4182)" fill="#FFFFFF" width="6.266" height="6.266"/>
		
			<rect x="266.352" y="263.166" transform="matrix(-0.7072 0.707 -0.707 -0.7072 648.3405 264.1085)" fill="#FFFFFF" width="6.266" height="6.266"/>
		
			<rect x="292.935" y="269.811" transform="matrix(-0.7071 0.7071 -0.7071 -0.7071 698.4191 256.593)" fill="#FFFFFF" width="6.265" height="6.265"/>
		
			<rect x="301.794" y="276.457" transform="matrix(-0.707 0.7072 -0.7072 -0.707 718.2402 261.628)" fill="#FFFFFF" width="6.265" height="6.265"/>
		
			<rect x="310.655" y="283.103" transform="matrix(-0.707 0.7072 -0.7072 -0.707 738.0656 266.7058)" fill="#FFFFFF" width="6.265" height="6.265"/>
		
			<rect x="248.632" y="249.875" transform="matrix(-0.7071 0.7071 -0.7071 -0.7071 608.6918 253.8872)" fill="#FFFFFF" width="6.265" height="6.265"/>
		
			<rect x="248.632" y="263.166" transform="matrix(-0.7071 0.7071 -0.7071 -0.7071 618.0898 276.576)" fill="#FFFFFF" width="6.265" height="6.265"/>
		
			<rect x="266.351" y="276.457" transform="matrix(-0.7071 0.7071 -0.7071 -0.7071 657.7379 286.7565)" fill="#FFFFFF" width="6.266" height="6.266"/>
		
			<rect x="257.492" y="283.103" transform="matrix(-0.707 0.7072 -0.7072 -0.707 647.3155 304.3016)" fill="#FFFFFF" width="6.265" height="6.265"/>
		
			<rect x="239.77" y="283.102" transform="matrix(-0.7071 0.7071 -0.7071 -0.7071 617.059 316.8959)" fill="#FFFFFF" width="6.266" height="6.266"/>
		
			<rect x="275.212" y="283.103" transform="matrix(-0.7071 0.7071 -0.7071 -0.7071 677.5641 291.7921)" fill="#FFFFFF" width="6.266" height="6.265"/>
		
			<rect x="275.213" y="269.811" transform="matrix(-0.7071 0.7071 -0.7071 -0.7071 668.1656 269.146)" fill="#FFFFFF" width="6.265" height="6.266"/>
		
			<rect x="248.632" y="236.585" transform="matrix(-0.7071 0.7071 -0.7071 -0.7071 599.294 231.1989)" fill="#FFFFFF" width="6.265" height="6.265"/>
		
			<rect x="230.909" y="303.038" transform="matrix(-0.7071 0.7071 -0.7071 -0.7071 616.0282 357.1944)" fill="#FFFFFF" width="6.266" height="6.266"/>
		
			<rect x="222.05" y="269.811" transform="matrix(-0.7071 0.7071 -0.7071 -0.7071 577.4112 306.7161)" fill="#FFFFFF" width="6.265" height="6.265"/>
		
			<rect x="239.771" y="269.811" transform="matrix(-0.7072 0.707 -0.707 -0.7072 607.6588 294.246)" fill="#FFFFFF" width="6.266" height="6.266"/>
		
			<rect x="257.493" y="269.811" transform="matrix(-0.7071 0.7071 -0.7071 -0.7071 637.9152 281.6546)" fill="#FFFFFF" width="6.265" height="6.265"/>
		
			<rect x="230.909" y="276.457" transform="matrix(-0.7071 0.7071 -0.7071 -0.7071 597.2335 311.8163)" fill="#FFFFFF" width="6.266" height="6.266"/>
		
			<rect x="230.91" y="289.747" transform="matrix(-0.7072 0.707 -0.707 -0.7072 606.6284 334.5257)" fill="#FFFFFF" width="6.266" height="6.266"/>
		
			<rect x="213.189" y="223.294" transform="matrix(-0.7072 0.707 -0.707 -0.7072 529.3913 233.6061)" fill="#FFFFFF" width="6.266" height="6.266"/>
		
			<rect x="195.469" y="223.294" transform="matrix(-0.7071 0.7071 -0.7071 -0.7071 499.1429 246.0852)" fill="#FFFFFF" width="6.265" height="6.265"/>
		
			<rect x="222.05" y="216.649" transform="matrix(-0.707 0.7072 -0.7072 -0.707 539.8192 215.9272)" fill="#FFFFFF" width="6.265" height="6.265"/>
		
			<rect x="230.91" y="210.003" transform="matrix(-0.7072 0.707 -0.707 -0.7072 550.2468 198.3873)" fill="#FFFFFF" width="6.266" height="6.266"/>
		
			<rect x="204.328" y="243.23" transform="matrix(-0.7072 0.707 -0.707 -0.7072 528.358 273.9232)" fill="#FFFFFF" width="6.266" height="6.266"/>
		
			<rect x="204.328" y="229.939" transform="matrix(-0.7072 0.707 -0.707 -0.7072 518.9616 251.2328)" fill="#FFFFFF" width="6.266" height="6.266"/>
		
			<rect x="186.608" y="229.939" transform="matrix(-0.7072 0.707 -0.707 -0.7072 488.7109 263.7444)" fill="#FFFFFF" width="6.265" height="6.266"/>
		
			<rect x="195.469" y="236.585" transform="matrix(-0.7071 0.7071 -0.7071 -0.7071 508.5398 268.7905)" fill="#FFFFFF" width="6.265" height="6.265"/>
		
			<rect x="230.91" y="223.294" transform="matrix(-0.7072 0.707 -0.707 -0.7072 559.6438 221.0771)" fill="#FFFFFF" width="6.266" height="6.266"/>
		
			<rect x="248.632" y="223.294" transform="matrix(-0.7071 0.7071 -0.7071 -0.7071 589.895 208.4915)" fill="#FFFFFF" width="6.265" height="6.265"/>
		
			<rect x="239.77" y="216.648" transform="matrix(-0.7071 0.7071 -0.7071 -0.7071 570.0717 203.4495)" fill="#FFFFFF" width="6.266" height="6.266"/>
		
			<rect x="239.771" y="229.939" transform="matrix(-0.7072 0.707 -0.707 -0.7072 579.4697 226.1754)" fill="#FFFFFF" width="6.266" height="6.266"/>
		<polygon fill="#FFFFFF" points="245.118,315.031 247.334,312.816 242.903,308.386 238.474,312.816 240.688,315.031 		"/>
	</g>
	<linearGradient id="SVGID_3_" gradientUnits="userSpaceOnUse" x1="311.5728" y1="439.0781" x2="311.5728" y2="425.7871">
		<stop  offset="0.2" style="stop-color:#1A1A1A"/>
		<stop  offset="1" style="stop-color:#3C3C3C"/>
	</linearGradient>
	<polygon fill="url(#SVGID_3_)" points="384.671,425.787 238.474,425.787 231.829,428.003 231.829,436.863 238.474,439.078 
		384.671,439.078 391.317,436.863 391.317,432.434 391.317,428.003 	"/>
	<path fill="#C6A941" d="M380.241,443.51c-4.43,0-137.338,0-137.338,0s-4.43,0-4.43-4.432c0-4.43,0-13.291,0-13.291
		s0-4.431,4.43-4.431c3.842,0,132.908,0,137.338,0c4.43,0,4.43,4.431,4.43,4.431v13.291
		C384.671,439.078,384.671,443.51,380.241,443.51z"/>
	<g opacity="0.2">
		
			<rect x="372.678" y="438.161" transform="matrix(-0.7071 0.7071 -0.7071 -0.7071 953.5941 487.5656)" opacity="0.5" fill="#FFFFFF" width="6.266" height="6.266"/>
		<polygon fill="#FFFFFF" points="384.671,439.078 384.671,430.219 380.241,434.648 		"/>
		
			<rect x="363.817" y="418.224" transform="matrix(-0.7071 0.7071 -0.7071 -0.7071 924.3654 459.859)" fill="#FFFFFF" width="6.266" height="6.266"/>
		
			<rect x="346.097" y="418.225" transform="matrix(-0.707 0.7072 -0.7072 -0.707 894.1228 472.2984)" fill="#FFFFFF" width="6.265" height="6.265"/>
		<polygon fill="#FFFFFF" points="384.671,425.787 384.671,416.927 380.241,421.356 		"/>
		
			<rect x="372.678" y="424.87" transform="matrix(-0.7071 0.7071 -0.7071 -0.7071 944.1954 464.8769)" fill="#FFFFFF" width="6.266" height="6.266"/>
		
			<rect x="346.098" y="431.516" transform="matrix(-0.7071 0.7071 -0.7071 -0.7071 903.5157 495.0484)" fill="#FFFFFF" width="6.265" height="6.265"/>
		
			<rect x="363.817" y="431.516" transform="matrix(-0.7072 0.707 -0.707 -0.7072 933.7581 482.612)" fill="#FFFFFF" width="6.266" height="6.266"/>
		
			<rect x="354.956" y="438.161" transform="matrix(-0.7071 0.7071 -0.7071 -0.7071 923.3354 500.1596)" opacity="0.5" fill="#FFFFFF" width="6.266" height="6.266"/>
		
			<rect x="337.237" y="438.161" transform="matrix(-0.707 0.7072 -0.7072 -0.707 893.0963 512.5977)" opacity="0.5" fill="#FFFFFF" width="6.265" height="6.265"/>
		
			<rect x="354.956" y="424.87" transform="matrix(-0.7071 0.7071 -0.7071 -0.7071 913.9378 477.4699)" fill="#FFFFFF" width="6.266" height="6.266"/>
		
			<rect x="337.237" y="424.87" transform="matrix(-0.707 0.7072 -0.7072 -0.707 883.6971 489.9095)" fill="#FFFFFF" width="6.265" height="6.265"/>
		
			<rect x="266.351" y="438.161" transform="matrix(-0.7071 0.7071 -0.7071 -0.7071 772.0739 562.8093)" opacity="0.5" fill="#FFFFFF" width="6.266" height="6.266"/>
		
			<rect x="284.073" y="438.161" transform="matrix(-0.7071 0.7071 -0.7071 -0.7071 802.3394 550.2222)" opacity="0.5" fill="#FFFFFF" width="6.266" height="6.266"/>
		
			<rect x="275.213" y="431.516" transform="matrix(-0.7071 0.7071 -0.7071 -0.7071 782.5018 545.1993)" fill="#FFFFFF" width="6.265" height="6.265"/>
		
			<rect x="319.516" y="438.161" transform="matrix(-0.707 0.7072 -0.7072 -0.707 862.8466 525.1295)" opacity="0.5" fill="#FFFFFF" width="6.265" height="6.265"/>
		
			<rect x="301.794" y="438.161" transform="matrix(-0.707 0.7072 -0.7072 -0.707 832.5951 537.662)" opacity="0.5" fill="#FFFFFF" width="6.265" height="6.265"/>
		<polygon fill="#FFFFFF" points="260.625,425.787 265.055,421.356 256.194,421.356 		"/>
		<polygon fill="#FFFFFF" points="242.903,425.787 247.334,421.356 238.474,421.356 		"/>
		<polygon fill="#FFFFFF" points="278.345,425.787 282.775,421.356 273.916,421.356 		"/>
		
			<rect x="266.351" y="424.87" transform="matrix(-0.7071 0.7071 -0.7071 -0.7071 762.6762 540.1196)" fill="#FFFFFF" width="6.266" height="6.266"/>
		
			<rect x="239.771" y="431.516" transform="matrix(-0.7072 0.707 -0.707 -0.7072 721.9824 570.3118)" opacity="0.5" fill="#FFFFFF" width="6.266" height="6.266"/>
		
			<rect x="257.493" y="431.516" transform="matrix(-0.7071 0.7071 -0.7071 -0.7071 752.2576 557.7016)" fill="#FFFFFF" width="6.265" height="6.265"/>
		
			<rect x="248.632" y="438.161" transform="matrix(-0.707 0.7072 -0.7072 -0.707 741.845 575.2578)" opacity="0.5" fill="#FFFFFF" width="6.265" height="6.265"/>
		
			<rect x="248.632" y="424.87" transform="matrix(-0.707 0.7072 -0.7072 -0.707 732.4458 552.5696)" opacity="0.5" fill="#FFFFFF" width="6.265" height="6.265"/>
		
			<rect x="284.073" y="424.87" transform="matrix(-0.7071 0.7071 -0.7071 -0.7071 792.9407 527.5335)" fill="#FFFFFF" width="6.266" height="6.266"/>
		
			<rect x="301.794" y="424.87" transform="matrix(-0.707 0.7072 -0.7072 -0.707 823.1959 514.9738)" fill="#FFFFFF" width="6.265" height="6.265"/>
		
			<rect x="319.516" y="424.87" transform="matrix(-0.707 0.7072 -0.7072 -0.707 853.4473 502.4413)" fill="#FFFFFF" width="6.265" height="6.265"/>
		<polygon fill="#FFFFFF" points="296.067,425.787 300.497,421.356 291.636,421.356 		"/>
		
			<rect x="310.655" y="418.225" transform="matrix(-0.707 0.7072 -0.7072 -0.707 833.6216 497.3627)" fill="#FFFFFF" width="6.265" height="6.265"/>
		
			<rect x="328.376" y="418.225" transform="matrix(-0.707 0.7072 -0.7072 -0.707 863.8714 484.8309)" fill="#FFFFFF" width="6.265" height="6.265"/>
		
			<rect x="292.935" y="431.516" transform="matrix(-0.7071 0.7071 -0.7071 -0.7071 812.7615 532.64)" fill="#FFFFFF" width="6.265" height="6.265"/>
		
			<rect x="310.655" y="431.516" transform="matrix(-0.7071 0.7071 -0.7071 -0.7071 843.0118 520.11)" fill="#FFFFFF" width="6.265" height="6.265"/>
		
			<rect x="328.376" y="431.516" transform="matrix(-0.7071 0.7071 -0.7071 -0.7071 873.2629 507.5795)" fill="#FFFFFF" width="6.265" height="6.265"/>
	</g>
	<linearGradient id="SVGID_4_" gradientUnits="userSpaceOnUse" x1="320.3706" y1="456.7388" x2="368.9816" y2="408.1278">
		<stop  offset="0.2" style="stop-color:#FFFFFF"/>
		<stop  offset="1" style="stop-color:#C6A941"/>
	</linearGradient>
	<path opacity="0.3" fill="url(#SVGID_4_)" d="M307.142,421.356h73.1c0,0,4.43,0,4.43,4.431c0,4.432,0,8.861,0,13.291
		c0,4.432-4.43,4.432-4.43,4.432h-73.1V421.356z"/>
	<path fill="#1A1A1A" d="M378.026,206.49v13.291v26.582v13.291h-4.431l-2.214-2.215v-8.86c0,0-8.417-6.571-8.417-15.505
		c0-8.936,8.417-15.506,8.417-15.506v-8.86l2.214-2.215H378.026z"/>
	<linearGradient id="SVGID_5_" gradientUnits="userSpaceOnUse" x1="370.4946" y1="206.4902" x2="370.4946" y2="244.5908">
		<stop  offset="0.2" style="stop-color:#3C3C3C"/>
		<stop  offset="1" style="stop-color:#1A1A1A"/>
	</linearGradient>
	<path fill="url(#SVGID_5_)" d="M378.026,226.426v-13.291v-6.646h-4.431l-2.214,2.215v8.86c0,0-8.417,7.014-8.417,15.949
		c0,8.935,8.417,11.076,8.417,11.076v-15.949l2.214-2.215H378.026z"/>
	<linearGradient id="SVGID_6_" gradientUnits="userSpaceOnUse" x1="238.3242" y1="257.4385" x2="384.6709" y2="257.4385">
		<stop  offset="0.2" style="stop-color:#1A1A1A"/>
		<stop  offset="1" style="stop-color:#3C3C3C"/>
	</linearGradient>
	<path fill="url(#SVGID_6_)" d="M242.239,204.275v60.178h8.491l0.886-0.812l1.625-1.772c0,0-0.811-14.25,3.619-19.419
		c4.431-5.169,9.082-6.055,11.963-6.572c0,0,36.77,2.067,48.142,5.464c11.371,3.396,14.621,10.854,15.875,13.659
		c1.255,2.806,2.73,7.827,1.255,14.841c-1.476,7.014-3.986,10.929-9.82,14.177c-5.835,3.248-23.253,4.43-28.059,4.43
		c-4.579,0-55.748,0-55.748,0l-2.143,4.431l4.431,17.458c0,0,137.486,0.592,137.486,0c0-0.59,4.43-17.458,4.43-17.458l-2.438-4.431
		h-4.208c0,0-13.256-9.909-17.425-24.587c-3.397-11.961-1.18-20.232-0.811-21.93c0.368-1.698,1.107-5.24,1.107-8.86
		c0-6.646-1.479-11.666-5.835-14.62c-2.904-1.969-5.899-4.061-16.538-4.061c-11.446,0-20.01,1.55-29.167,3.249
		c-9.155,1.697-19.566,2.14-24.882,2.14c-5.316,0-11.889-0.074-14.991-0.517c-3.101-0.443-7.382-1.623-10.558-4.282
		c-3.175-2.658-4.358-4.726-4.727-5.686c-0.368-0.959-0.221-2.806-0.221-2.806l-2.215-2.215H242.239z"/>
	<polygon fill="#FFFFFF" points="244.97,265.413 247.185,265.413 244.97,281.805 	"/>
	<linearGradient id="SVGID_7_" gradientUnits="userSpaceOnUse" x1="384.6709" y1="290.665" x2="347.0137" y2="290.665">
		<stop  offset="0.2" style="stop-color:#666666"/>
		<stop  offset="1" style="stop-color:#333333"/>
	</linearGradient>
	<path opacity="0.4" fill="url(#SVGID_7_)" d="M384.671,292.88h-37.657c0,0,0-4.431,6.646-4.431c4.43,0,28.574,0,28.574,0
		L384.671,292.88z"/>
	<linearGradient id="SVGID_8_" gradientUnits="userSpaceOnUse" x1="384.6709" y1="301.6089" x2="238.3242" y2="301.6089">
		<stop  offset="0.2" style="stop-color:#1A1A1A"/>
		<stop  offset="1" style="stop-color:#333333"/>
	</linearGradient>
	<polygon fill="url(#SVGID_8_)" points="380.241,310.338 242.755,310.338 238.324,292.88 384.671,292.88 	"/>
	<g>
		<linearGradient id="SVGID_9_" gradientUnits="userSpaceOnUse" x1="370.2729" y1="405.8506" x2="370.2729" y2="379.2695">
			<stop  offset="0.2" style="stop-color:#621607"/>
			<stop  offset="1" style="stop-color:#9E2F1F"/>
		</linearGradient>
		<path fill="url(#SVGID_9_)" d="M358.089,383.699c0,0,2.216,0,6.646,0c10.453,0,15.506,6.646,15.462,17.722
			c0,0,0.044,2.215-2.171,2.215c0,2.215,0,2.215,0,2.215h6.645l-0.032-4.43c0.032-15.505-9.207-22.151-19.904-22.151
			c-4.43,0-8.861,0-8.861,0v4.43H358.089z"/>
		<g>
			<linearGradient id="SVGID_10_" gradientUnits="userSpaceOnUse" x1="183.0952" y1="405.8506" x2="183.0952" y2="326.1069">
				<stop  offset="0.2" style="stop-color:#621607"/>
				<stop  offset="1" style="stop-color:#9E2F1F"/>
			</linearGradient>
			<path fill="url(#SVGID_10_)" d="M191.956,401.421c-6.645,0-13.291,0-13.291,0v-8.859c0,0,0-59.81,0-62.025
				c0-2.215,2.215-2.215,2.215-2.215v-2.215h-17.721v2.215c0,0,2.215,0,2.215,2.215c0,2.215,0,68.903,0,70.884
				c0,2.215-2.215,2.215-2.215,2.215v2.215h37.657h2.215v-15.505v-2.215c0,0,0,0-2.215,0
				C200.816,396.991,198.602,401.421,191.956,401.421z"/>
			<linearGradient id="SVGID_11_" gradientUnits="userSpaceOnUse" x1="218.5376" y1="405.8506" x2="218.5376" y2="326.1069">
				<stop  offset="0.2" style="stop-color:#621607"/>
				<stop  offset="1" style="stop-color:#9E2F1F"/>
			</linearGradient>
			<path fill="url(#SVGID_11_)" d="M227.397,405.851h-17.72v-2.215c0,0,2.215,0,2.215-2.215c0-1.98,0-68.669,0-70.884
				c0-2.215-2.215-2.215-2.215-2.215v-2.215h17.72v2.215c0,0-2.215,0-2.215,2.215c0,2.215,0,68.903,0,70.884
				c0,2.215,2.215,2.215,2.215,2.215V405.851z"/>
			<linearGradient id="SVGID_12_" gradientUnits="userSpaceOnUse" x1="402.3921" y1="405.8506" x2="402.3921" y2="326.1069">
				<stop  offset="0.2" style="stop-color:#621607"/>
				<stop  offset="1" style="stop-color:#9E2F1F"/>
			</linearGradient>
			<path fill="url(#SVGID_12_)" d="M411.252,405.851h-17.72v-2.215c0,0,2.215,0,2.215-2.215c0-4.853,0-65.931,0-70.884
				c0-2.215-2.215-2.215-2.215-2.215v-2.215h17.72v2.215c0,0-2.215,0-2.215,2.215c0,4.953,0,66.031,0,70.884
				c0,2.215,2.215,2.215,2.215,2.215V405.851z"/>
			<linearGradient id="SVGID_13_" gradientUnits="userSpaceOnUse" x1="259.5171" y1="405.8506" x2="259.5171" y2="326.1069">
				<stop  offset="0.2" style="stop-color:#621607"/>
				<stop  offset="1" style="stop-color:#9E2F1F"/>
			</linearGradient>
			<path fill="url(#SVGID_13_)" d="M260.625,383.699v4.432c0,0,6.645,0,6.645,2.215c0,2.216,0,8.86,0,8.86s0,2.215-2.215,2.215
				s-8.861,0-11.076,0s-2.215-2.215-2.215-2.215v-66.454c0,0,0-2.215,2.215-2.215s15.505,0,17.721,0
				c2.216,0,2.216,2.215,2.216,2.215s0,4.431,0,6.646s-2.216,2.215-2.216,2.215v2.216h6.646c0,0,0-2.216,0-4.431s0-6.646,0-6.646
				s0-6.645-6.646-6.645c-6.645,0-19.936,0-26.582,0c-6.645,0-6.645,6.645-6.645,6.645v66.454c0,0,0,6.645,6.645,6.645
				c6.646,0,28.797,0,28.797,0s0-6.645,6.645-6.645v-2.215c0,0,0-5.059,0-6.646c0-2.215,0-2.215,0-2.215v-4.432H260.625z"/>
			<linearGradient id="SVGID_14_" gradientUnits="userSpaceOnUse" x1="310.4648" y1="405.8506" x2="310.4648" y2="326.1069">
				<stop  offset="0.2" style="stop-color:#621607"/>
				<stop  offset="1" style="stop-color:#9E2F1F"/>
			</linearGradient>
			<path fill="url(#SVGID_14_)" d="M324.863,328.322c0,0,2.215,0,2.215,2.215c0,2.215,0,66.691,0,68.669
				c0,2.215-2.215,2.215-2.215,2.215h-17.722c0,0-2.215,0-2.215-2.215c0-1.978,0-66.454,0-68.669c0-2.215,2.215-2.215,2.215-2.215
				v-2.215h-17.72v2.215c0,0,2.215,0,2.215,2.215s0,68.669,0,68.669s0,6.645,6.646,6.645c6.645,0,19.935,0,26.581,0
				c6.645,0,6.645-6.645,6.645-6.645s0-66.454,0-68.669c0-2.215,0-2.215,0-2.215v-2.215h-6.645V328.322z"/>
			<linearGradient id="SVGID_15_" gradientUnits="userSpaceOnUse" x1="363.6274" y1="405.8506" x2="363.6274" y2="326.1069">
				<stop  offset="0.2" style="stop-color:#621607"/>
				<stop  offset="1" style="stop-color:#9E2F1F"/>
			</linearGradient>
			<path fill="url(#SVGID_15_)" d="M384.671,354.904c0-22.152-8.86-28.797-19.936-28.797c-4.43,0-22.151,0-22.151,0v2.215
				c0,0,2.215,0,2.215,2.215c0,1.981,0,68.669,0,70.884s-2.215,2.215-2.215,2.215v2.215h17.722v-2.215c0,0-2.216,0-2.216-2.215
				c0-1.693,0-13.29,0-15.505c0-2.217,2.216-2.217,2.216-2.217s0,0,4.43,0C373.595,383.699,384.671,377.055,384.671,354.904z
				 M364.735,379.27c-4.43,0-4.43,0-4.43,0s-2.216,0-2.216-2.215s0-35.442,0-35.442v-11.075c0,0,2.216,0,6.646,0
				c11.076,0,15.506,11.075,15.506,24.367C380.241,368.193,375.811,379.27,364.735,379.27z"/>
			<linearGradient id="SVGID_16_" gradientUnits="userSpaceOnUse" x1="441.1572" y1="405.8506" x2="441.1572" y2="326.1069">
				<stop  offset="0.2" style="stop-color:#621607"/>
				<stop  offset="1" style="stop-color:#9E2F1F"/>
			</linearGradient>
			<path fill="url(#SVGID_16_)" d="M451.125,326.107c-11.076,0-31.012,0-31.012,0v2.215c0,0,2.215,0,2.215,2.215
				c0,4.854,0,65.932,0,70.884c0,2.215-2.215,2.215-2.215,2.215v2.215h17.72v-2.215c0,0-2.214,0-2.214-2.215s0-15.505,0-15.505
				s0-2.217,2.214-2.217c2.216,0,11.076,0,15.507,0c2.215,0,2.215,2.217,2.215,2.217s0,13.29,0,15.505s-2.215,2.215-2.215,2.215
				v2.215h8.861v-2.215c0,0-2.216,0-2.216-2.215c0-4.952,0-4.271,0-66.453C459.985,334.968,459.985,326.107,451.125,326.107z
				 M455.555,377.055c0,0,0,2.215-2.215,2.215s-13.291,0-15.507,0c-2.214,0-2.214-2.215-2.214-2.215v-39.872v-6.646
				c0,0,11.075,0,15.506,0c4.43,0,4.43,4.431,4.43,4.431V377.055z"/>
		</g>
	</g>
</g>
</svg>
