<?xml version="1.0" encoding="utf-8"?>
<!-- Generator: Adobe Illustrator 16.0.0, SVG Export Plug-In . SVG Version: 6.00 Build 0)  -->
<!DOCTYPE svg PUBLIC "-//W3C//DTD SVG 1.1//EN" "http://www.w3.org/Graphics/SVG/1.1/DTD/svg11.dtd">
<svg version="1.1" id="Layer_1" xmlns="http://www.w3.org/2000/svg" xmlns:xlink="http://www.w3.org/1999/xlink" x="0px" y="0px"
	 width="1140px" height="650px" viewBox="0 0 1140 650" enable-background="new 0 0 1140 650" xml:space="preserve">
<g>
	<path fill="#9BCEE0" d="M839.446,202.393h62.743c0,0,20.915,0,20.915,20.916c0,20.914,0.004,125.489,0.004,125.489l-94.12,10.457
		l-52.286-52.286l-10.458-83.66L839.446,202.393z"/>
	<path fill="#1A1A1A" d="M734.87,223.457c0,0,0.001-20.916,20.917-20.916c20.915,0,83.659-0.148,83.659-0.148
		s-20.914,41.979-41.829,41.979S734.87,223.457,734.87,223.457z"/>
	<path fill="#1A1A1A" d="M734.871,348.945c0.004,62.598,41.831,93.969,94.117,93.969c52.287,0,94.12-31.225,94.12-94.116
		c0-62.891-83.659-83.659-83.659-83.659s-0.003,31.373-0.003,52.287c0,31.372-41.827-4.505-41.827-31.227
		C797.619,259.477,734.871,307.264,734.871,348.945z"/>
	<path fill="#FF1D25" d="M797.617,286.199c0,34.654-28.094,62.746-62.747,62.746c-34.651,0-62.742-28.092-62.742-62.746
		c0-34.65,28.091-62.742,62.742-62.742C769.523,223.457,797.617,251.549,797.617,286.199z"/>
	<path fill="#C1272D" d="M776.702,265.284c0,23.103-18.731,41.831-41.832,41.831c-23.098,0-41.827-18.729-41.827-41.831
		c0-23.099,18.729-41.827,41.827-41.827C757.971,223.457,776.702,242.186,776.702,265.284z"/>
	<circle fill="#FF1D25" cx="753.116" cy="261.685" r="8.482"/>
	<circle fill="#1A1A1A" cx="747.189" cy="243.674" r="4.066"/>
	<rect x="647.704" y="181.48" fill="#FFFFFF" width="87.167" height="272.039"/>
	<polygon fill="#1A1A1A" points="734.871,257.85 726.273,252.97 734.64,247.393 	"/>
</g>
<g>
	<g>
		<path fill="#024DA1" d="M266.564,439.861h12.832v3.119h-9.384v4.76h8.892v3.119h-8.892v5.254h9.877v3.119h-13.324V439.861z"/>
		<path fill="#024DA1" d="M300.11,452.119c0,1.166-0.201,2.221-0.602,3.16c-0.401,0.939-0.949,1.736-1.642,2.393
			c-0.693,0.656-1.514,1.164-2.462,1.52c-0.949,0.355-1.979,0.533-3.092,0.533c-1.113,0-2.144-0.178-3.092-0.533
			s-1.774-0.863-2.476-1.52s-1.25-1.453-1.642-2.393s-0.588-1.994-0.588-3.16v-12.258h3.447v12.148c0,0.473,0.073,0.971,0.219,1.49
			s0.387,0.998,0.725,1.436c0.337,0.439,0.784,0.799,1.341,1.082c0.556,0.283,1.245,0.424,2.065,0.424s1.509-0.141,2.066-0.424
			c0.556-0.283,1.003-0.643,1.34-1.082c0.337-0.438,0.579-0.916,0.725-1.436s0.219-1.018,0.219-1.49v-12.148h3.448V452.119z"/>
		<path fill="#024DA1" d="M305.87,439.861h6.73c0.93,0,1.829,0.086,2.695,0.26s1.637,0.469,2.312,0.889s1.213,0.984,1.614,1.697
			c0.401,0.711,0.602,1.613,0.602,2.709c0,1.404-0.388,2.58-1.163,3.529c-0.775,0.947-1.883,1.521-3.324,1.723l5.144,8.564h-4.159
			l-4.487-8.209h-2.517v8.209h-3.447V439.861z M311.998,448.068c0.493,0,0.985-0.021,1.478-0.068
			c0.493-0.045,0.944-0.154,1.354-0.328c0.41-0.172,0.743-0.438,0.999-0.793c0.255-0.355,0.383-0.852,0.383-1.49
			c0-0.566-0.119-1.021-0.355-1.369c-0.237-0.346-0.547-0.605-0.93-0.779c-0.383-0.174-0.807-0.287-1.272-0.342
			c-0.465-0.055-0.917-0.082-1.354-0.082h-2.982v5.252H311.998z"/>
		<path fill="#024DA1" d="M323.423,449.629c0-1.551,0.229-2.959,0.689-4.227c0.459-1.268,1.096-2.35,1.908-3.242
			c0.812-0.895,1.781-1.584,2.906-2.066c1.124-0.482,2.359-0.725,3.706-0.725c1.362-0.02,2.61,0.205,3.743,0.67
			s2.109,1.145,2.93,2.037c0.821,0.895,1.461,1.971,1.921,3.229c0.459,1.26,0.689,2.664,0.689,4.215c0,1.514-0.23,2.891-0.689,4.131
			c-0.46,1.24-1.1,2.309-1.921,3.201c-0.821,0.895-1.797,1.592-2.93,2.094c-1.133,0.5-2.38,0.76-3.743,0.779
			c-1.347,0-2.582-0.242-3.706-0.725c-1.125-0.484-2.093-1.168-2.906-2.053s-1.449-1.947-1.908-3.188
			C323.653,452.52,323.423,451.143,323.423,449.629z M326.673,449.41c0,1.039,0.144,1.996,0.431,2.873
			c0.287,0.875,0.693,1.633,1.219,2.27c0.525,0.639,1.153,1.141,1.884,1.506s1.547,0.547,2.45,0.547s1.724-0.182,2.462-0.547
			s1.371-0.867,1.896-1.506c0.525-0.637,0.932-1.395,1.219-2.27c0.287-0.877,0.431-1.834,0.431-2.873
			c0-0.967-0.144-1.869-0.431-2.709s-0.693-1.574-1.219-2.203s-1.157-1.121-1.896-1.477s-1.56-0.533-2.462-0.533
			s-1.72,0.178-2.45,0.533s-1.358,0.848-1.884,1.477s-0.932,1.363-1.219,2.203C326.817,447.541,326.673,448.443,326.673,449.41z"/>
		<path fill="#024DA1" d="M355.908,453.869c0,0.766-0.123,1.506-0.369,2.217s-0.611,1.336-1.094,1.873
			c-0.484,0.539-1.09,0.967-1.82,1.287c-0.729,0.318-1.578,0.479-2.544,0.479c-1.532,0-2.787-0.355-3.762-1.066
			c-0.976-0.713-1.619-1.844-1.929-3.393l3.229-0.768c0.109,0.639,0.37,1.15,0.78,1.533c0.411,0.383,0.917,0.574,1.519,0.574
			c0.985,0,1.655-0.332,2.011-0.998c0.356-0.666,0.534-1.582,0.534-2.75v-12.996h3.447V453.869z"/>
		<path fill="#024DA1" d="M377.605,452.119c0,1.166-0.201,2.221-0.602,3.16c-0.401,0.939-0.949,1.736-1.642,2.393
			c-0.693,0.656-1.514,1.164-2.462,1.52c-0.949,0.355-1.979,0.533-3.092,0.533c-1.113,0-2.144-0.178-3.092-0.533
			s-1.774-0.863-2.476-1.52s-1.25-1.453-1.642-2.393s-0.588-1.994-0.588-3.16v-12.258h3.447v12.148c0,0.473,0.073,0.971,0.219,1.49
			s0.387,0.998,0.725,1.436c0.337,0.439,0.784,0.799,1.341,1.082c0.556,0.283,1.245,0.424,2.065,0.424s1.509-0.141,2.066-0.424
			c0.556-0.283,1.003-0.643,1.34-1.082c0.337-0.438,0.579-0.916,0.725-1.436s0.219-1.018,0.219-1.49v-12.148h3.448V452.119z"/>
		<path fill="#024DA1" d="M392.556,444.02c-0.365-0.529-0.853-0.916-1.463-1.162c-0.611-0.246-1.254-0.369-1.929-0.369
			c-0.401,0-0.789,0.045-1.163,0.137c-0.374,0.09-0.711,0.236-1.013,0.438c-0.301,0.201-0.542,0.461-0.725,0.779
			c-0.183,0.32-0.274,0.697-0.274,1.135c0,0.658,0.228,1.16,0.684,1.506c0.456,0.346,1.021,0.646,1.696,0.902
			s1.414,0.502,2.216,0.738c0.802,0.238,1.541,0.566,2.216,0.986c0.674,0.42,1.24,0.975,1.696,1.668
			c0.456,0.693,0.684,1.615,0.684,2.764c0,1.039-0.192,1.947-0.575,2.723c-0.383,0.775-0.899,1.418-1.546,1.928
			c-0.647,0.512-1.4,0.895-2.257,1.15c-0.857,0.254-1.76,0.383-2.708,0.383c-1.204,0-2.362-0.201-3.475-0.602
			c-1.113-0.402-2.071-1.076-2.873-2.025l2.599-2.518c0.419,0.639,0.971,1.137,1.655,1.492s1.409,0.533,2.175,0.533
			c0.401,0,0.802-0.055,1.204-0.164s0.766-0.273,1.095-0.492c0.328-0.219,0.592-0.498,0.793-0.836
			c0.2-0.336,0.301-0.725,0.301-1.162c0-0.711-0.228-1.258-0.684-1.641s-1.021-0.707-1.696-0.973
			c-0.675-0.264-1.414-0.514-2.216-0.752c-0.803-0.236-1.542-0.561-2.216-0.971c-0.675-0.41-1.241-0.957-1.696-1.643
			c-0.457-0.684-0.684-1.6-0.684-2.75c0-1.002,0.205-1.869,0.616-2.598c0.41-0.73,0.948-1.336,1.614-1.82
			c0.666-0.482,1.427-0.844,2.284-1.08s1.733-0.355,2.627-0.355c1.021,0,2.011,0.154,2.968,0.465s1.819,0.82,2.585,1.531
			L392.556,444.02z"/>
		<path fill="#024DA1" d="M404.491,442.98h-5.938v-3.119h15.322v3.119h-5.937v16.252h-3.447V442.98z"/>
	</g>
	<g>
		<polygon fill="#FFCA00" points="269.697,415.691 252.125,398.043 252.124,203.922 428.598,203.922 428.598,398.043 
			410.876,415.691 		"/>
		<polygon fill="#024DA1" points="330.013,203.922 252.124,260.195 252.124,300.684 277.671,380.395 252.125,361.629 
			252.125,398.045 269.697,415.691 410.876,415.691 428.598,398.043 428.598,203.922 		"/>
		<path fill="#FFFFFF" d="M396.654,326.598L379.11,256.43v-3.096h-77.648v3.096l-17.542,70.168l3.424,4.387h35.295l0.034-0.045
			v0.045l3.39-4.387l-16.551-66.203h27.244v98.826h-35.294v7.059h77.648v-7.059h-35.294v-98.826h27.245l-16.551,66.203l3.425,4.387
			h35.294l0.034-0.045v0.045L396.654,326.598z M291.864,323.924l13.127-52.508l13.126,52.508H291.864z M362.454,323.924
			l13.127-52.508l13.127,52.508H362.454z"/>
	</g>
</g>
</svg>
