<?xml version="1.0" encoding="utf-8"?>
<!-- Generator: Adobe Illustrator 16.0.0, SVG Export Plug-In . SVG Version: 6.00 Build 0)  -->
<!DOCTYPE svg PUBLIC "-//W3C//DTD SVG 1.1//EN" "http://www.w3.org/Graphics/SVG/1.1/DTD/svg11.dtd">
<svg version="1.1" id="Layer_1" xmlns="http://www.w3.org/2000/svg" xmlns:xlink="http://www.w3.org/1999/xlink" x="0px" y="0px"
	 width="1140px" height="650px" viewBox="0 0 1140 650" enable-background="new 0 0 1140 650" xml:space="preserve">
<g>
	<g>
		<path fill="#E02222" d="M446.997,359.691c0-4.152,2.41-6.798,8.025-6.798c5.615,0,8.025,2.625,8.025,6.798
			s-2.41,6.799-8.025,6.799C449.471,366.49,446.997,363.843,446.997,359.691z M450.074,359.691c0,1.528,0.947,2.41,4.949,2.41
			c3.98,0,4.927-0.882,4.927-2.41c0-1.57-0.947-2.431-4.927-2.431C451.021,357.26,450.074,358.121,450.074,359.691z"/>
		<path fill="#E02222" d="M455.496,344.313c-2.151,0.818-4.045,1.184-4.045,1.184v0.107c0,0,1.85-0.258,4.282-0.258h6.841
			c0,0,0.194,0.603,0.194,1.786c0,1.162-0.194,1.699-0.194,1.699h-15.103c0,0-0.194-0.882-0.194-2.71
			c0-1.808,0.194-2.604,0.194-2.604l6.992-2.732c2.087-0.774,4.432-1.248,4.432-1.248v-0.086c0,0-2.302,0.215-4.69,0.215h-6.734
			c0,0-0.194-0.731-0.194-1.786c0-1.119,0.194-1.721,0.194-1.721h15.103c0,0,0.194,0.817,0.194,2.646c0,1.7-0.194,2.668-0.194,2.668
			L455.496,344.313z"/>
		<path fill="#E02222" d="M447.277,312.808c0-0.796,0.086-2.173,0.194-2.711h15.103c0,0,0.194,0.71,0.194,1.915
			c0,1.248-0.194,1.958-0.194,1.958h-4.303c-2.689,0-5.981-0.323-6.541-0.409v0.129c0.516,0.151,2.926,0.774,4.625,1.398l3.442,1.27
			c0,0,0.172,0.56,0.172,1.657s-0.172,1.592-0.172,1.592l-3.313,1.227c-1.851,0.688-4.325,1.312-4.755,1.42v0.129
			c0.495-0.086,3.679-0.452,6.368-0.452h4.475c0,0,0.194,0.646,0.194,1.764s-0.194,1.807-0.194,1.807h-15.103
			c-0.129-0.731-0.194-1.829-0.194-2.539c0-1.549,0.194-2.431,0.194-2.431l3.958-1.463c1.614-0.581,3.055-0.968,4.088-1.141v-0.107
			c-0.71-0.064-1.592-0.258-2.625-0.581c-1.743-0.581-3.636-1.333-5.421-2C447.427,315.066,447.277,314.228,447.277,312.808z"/>
		<path fill="#E02222" d="M457.41,293.309c3.615,0,5.637,2.453,5.637,6.132c0,3.701-2.044,6.132-5.637,6.132h-9.939
			c0,0-0.194-0.753-0.194-2.022c0-1.291,0.194-2.065,0.194-2.065h10.004c1.42,0,2.151-0.71,2.151-2.087s-0.731-2.044-2.151-2.044
			h-10.004c0,0-0.194-0.731-0.194-2.001s0.194-2.044,0.194-2.044H457.41z"/>
		<path fill="#E02222" d="M446.997,283.456c0-2.926,0.774-4.712,0.774-4.712c1.098-0.021,2.195,0.323,2.948,0.968
			c0,0-0.409,1.441-0.409,3.055c0,1.613,0.452,2.41,1.27,2.41c0.989,0,1.205-1.721,1.829-3.486c0.667-1.829,1.764-3.7,4.647-3.7
			c3.271,0,4.992,1.958,4.992,6.088c0,3.335-1.14,5.465-1.14,5.465c-1.076,0-2.302-0.387-3.034-0.968c0,0,0.646-1.807,0.646-4.131
			c0-1.441-0.409-2.151-1.227-2.151s-1.162,0.99-1.549,2.238c-0.645,2.065-1.42,4.862-4.841,4.862
			C448.998,289.394,446.997,287.564,446.997,283.456z"/>
		<path fill="#E02222" d="M447.471,274.203c0,0-0.194-0.817-0.194-2.022c0-1.227,0.194-2.065,0.194-2.065h15.103
			c0,0,0.194,0.86,0.194,2.043c0,1.291-0.194,2.044-0.194,2.044H447.471z"/>
		<path fill="#E02222" d="M446.997,259.102c0-2.754,0.882-4.174,0.882-4.174c1.076-0.021,2.022,0.388,2.711,1.162
			c0,0-0.431,1.097-0.431,2.41c0,2.13,1.119,3.27,4.884,3.27c3.765,0,4.819-1.14,4.819-3.27c0-1.398-0.474-2.582-0.474-2.582
			c0.646-0.774,1.7-1.226,2.775-1.205c0,0,0.882,1.398,0.882,4.389c0,4.518-2.797,7.035-8.025,7.035
			C449.794,266.137,446.997,263.62,446.997,259.102z"/>
	</g>
	<polygon fill="#E6E6E6" points="179.262,366.214 179.262,255.928 210.772,255.928 210.772,318.948 195.017,318.948 
		195.017,334.703 210.772,334.703 210.772,350.458 195.017,350.458 195.017,366.214 	"/>
	<path fill="#E6E6E6" d="M226.527,255.928v110.286h47.265V255.928H226.527z M258.038,350.458h-15.755v-47.266h15.755V350.458z"/>
	<polygon fill="#E6E6E6" points="289.548,255.928 289.548,366.214 321.058,366.214 321.058,334.703 305.303,334.703 
		305.303,286.388 321.058,286.388 321.058,255.928 	"/>
	<polygon fill="#E6E6E6" points="336.813,255.928 336.813,366.214 368.322,366.214 384.078,366.214 384.078,255.928 
		368.322,255.928 368.322,318.948 352.568,318.948 352.568,255.928 	"/>
	<polygon fill="#E6E6E6" points="399.833,255.928 431.343,255.928 431.343,287.438 415.587,287.438 415.587,303.192 
		431.343,303.192 431.343,366.214 415.587,366.214 399.833,366.214 399.833,334.703 415.587,334.703 415.587,318.948 
		399.833,318.948 	"/>
	<rect x="226.527" y="381.968" fill="#E6E6E6" width="47.265" height="15.756"/>
	<rect x="179.262" y="381.968" fill="#E6E6E6" width="31.511" height="15.756"/>
	<rect x="289.548" y="381.968" fill="#E6E6E6" width="31.51" height="15.756"/>
	<rect x="336.813" y="381.968" fill="#E6E6E6" width="47.265" height="15.756"/>
	<rect x="399.833" y="381.968" fill="#E6E6E6" width="31.51" height="15.756"/>
	<rect x="447.098" y="381.968" fill="#E02222" width="15.755" height="15.756"/>
</g>
<g>
	<rect x="681.218" y="270" fill="#C42818" width="15.714" height="109.999"/>
	<rect x="681.218" y="270" fill="#C42818" width="62.857" height="15.714"/>
	<rect x="759.789" y="270" fill="#C42818" width="62.857" height="15.715"/>
	<polygon fill="#C42818" points="901.218,317.143 916.933,332.856 869.789,332.856 869.789,317.143 	"/>
	<rect x="948.358" y="317.142" fill="#C42818" width="62.859" height="15.715"/>
	<polygon fill="#C42818" points="995.501,270 1011.217,285.714 948.358,285.714 948.36,270 	"/>
	<rect x="869.789" y="270" fill="#C42818" width="62.856" height="15.714"/>
	<rect x="759.789" y="364.285" fill="#C42818" width="62.857" height="15.715"/>
	<rect x="759.789" y="270" fill="#C42818" width="15.715" height="109.999"/>
	<polygon opacity="0.5" fill="#DB7937" points="901.218,317.143 681.218,317.143 681.218,301.429 916.932,301.429 	"/>
	<polygon opacity="0.5" fill="#DB7937" points="901.218,348.571 681.218,348.571 681.218,332.857 916.932,332.857 	"/>
	<rect x="681.22" y="317.143" opacity="0.5" fill="#DB7937" width="267.14" height="15.714"/>
	<rect x="838.36" y="270" fill="#C42818" width="15.714" height="110"/>
	<rect x="869.789" y="270" fill="#C42818" width="15.715" height="110"/>
	<polygon fill="#C42818" points="806.932,317.143 822.646,332.856 759.789,332.856 759.789,317.143 	"/>
	<rect x="995.501" y="270" fill="#C42818" width="15.716" height="109.999"/>
	<polygon opacity="0.5" fill="#DB7937" points="1011.218,332.857 995.504,317.143 932.645,317.143 916.932,301.429 
		1011.218,301.429 	"/>
	<polygon opacity="0.5" fill="#DB7937" points="1011.218,348.572 932.645,348.572 916.932,332.857 1011.218,332.857 	"/>
	<polygon fill="#C42818" points="948.36,380 964.072,285.714 970,280 952,279.5 948.358,285.714 932.645,380 	"/>
	<polygon fill="#C42818" points="744.075,270 744.075,301.429 728.362,317.143 728.362,270 	"/>
	<polygon fill="#C42818" points="681.219,317.142 728.362,317.142 744.074,332.857 681.219,332.855 	"/>
	<polygon fill="#C42818" points="744.074,332.857 728.362,317.143 728.362,379.999 744.075,380 	"/>
</g>
</svg>
