<?xml version="1.0" encoding="utf-8"?>
<!-- Generator: Adobe Illustrator 16.0.0, SVG Export Plug-In . SVG Version: 6.00 Build 0)  -->
<!DOCTYPE svg PUBLIC "-//W3C//DTD SVG 1.1//EN" "http://www.w3.org/Graphics/SVG/1.1/DTD/svg11.dtd">
<svg version="1.1" id="Layer_1" xmlns="http://www.w3.org/2000/svg" xmlns:xlink="http://www.w3.org/1999/xlink" x="0px" y="0px"
	 width="1140px" height="650px" viewBox="0 0 1140 650" enable-background="new 0 0 1140 650" xml:space="preserve">
<g>
	<path fill="#1B1C20" d="M991.737,294.094c0.849,0.697,1.7,1.369,2.314,1.979c0.185,0.186,0.472,0.359,0.788,0.529l0.543-2.34
		L991.737,294.094L991.737,294.094z M994.278,333.141l2.085,4.234c-0.438,1.08-0.961,1.986-1.543,2.711
		c0.596,0.746,1.205,1.047,1.717,0.691c1.824-1.264,3.392-6.043,3.351-12.512c-0.044-7.084-1.611-12.271-3.479-12.195
		c-0.587,0.025-1.183,0.602-1.733,1.561c0.898,1.035,1.664,2.516,2.212,4.336l-2.312,3.381l-0.433-6.646
		c-0.416,0.979-0.785,2.184-1.085,3.539l0.003,3.477l-0.431-1.045c-0.22,1.615-0.333,3.359-0.303,5.135
		c0.02,1.195,0.118,2.287,0.248,3.322l0.245-0.424l0.05,2.348c0.309,1.537,0.722,2.797,1.182,3.764L994.278,333.141L994.278,333.141
		z M997.827,329.822l-2.643-1.381l2.08-5.035c0.375,1.688,0.584,3.572,0.579,5.568C997.844,329.26,997.835,329.541,997.827,329.822
		L997.827,329.822z M995.124,330.668l2.645,0.234c-0.135,1.855-0.451,3.576-0.911,5.08L995.124,330.668L995.124,330.668z
		 M979.344,297.971c0.643,0.115,6.341-1.006,8.038-1.67c0.091-2.002,0.537-1.623-0.954-3.436c-1.49-1.816-9.45-11.926-11.426-13.236
		c-1.979-1.312-5.105-1.713-5.105-1.713s5.015,7.699,6.004,10.365C976.889,290.941,978.702,297.854,979.344,297.971L979.344,297.971
		z M980.859,309.332l0.328-1.648l-0.962,1.342l-5.444-0.572l1.697,2.277L980.859,309.332L980.859,309.332z M970.467,297.807
		c0.44,1.191,0.427,1.664,0.333,1.842c0.691,0.004,5.907-0.727,5.933-1.242c0.024-0.523-1.756-6.152-3.072-9.707
		c-1.317-3.551-5.814-10.479-6.905-10.877c-1.094-0.4-11.608-1.23-12.352-1.178c-0.741,0.053-0.888,19.338-0.926,20.207
		c-0.039,0.871,2.226-0.07,2.226-0.07s2.464-1.285,3.211-1.426c0.746-0.141,9.263-0.098,9.263-0.098
		S969.478,295.141,970.467,297.807L970.467,297.807z M970.8,299.648c-0.008,0-0.041,0.004-0.05,0.004
		C970.444,299.639,970.688,299.873,970.8,299.648L970.8,299.648z M1023.005,269.924v-1.506H783.139v1.506l-16.606,78.572h26.217
		l-1.295-2.432l-4.53-2.102l0.033-0.738l-1.956-1.756l0.11-2.402l4.408-3.314l3.579-1.316l-0.738-0.033l-0.898-0.326
		c0,0-4.157-10.553-4.345-12.504c-0.19-1.949,0.325-3.039,1.017-4.025c0.694-0.986,3.025-5.414,27.118-10.049
		c24.095-4.633,42.214-8.859,42.214-8.859l1.206-1.367l-0.303-1.496c0,0,1.73-1.4,2.653-1.359s3.888,0.594,3.888,0.594
		s6.459-5.475,10.6-8.523c4.352-3.203,12.024-9.057,15.493-10.498c3.47-1.443,13.201-4.199,32.83-4.498
		c19.629-0.303,21.155,0.486,27.065,0.76c5.913,0.27,15.728,1.461,19.331,2.367c3.604,0.906,5.087,2.082,7.591,4.051
		c1.854,1.457,6.759,7.434,9.674,10.977l16.447,0.752l-0.243,1.287l-3.646,2.793l-2.487-0.115l-0.882,2.998
		c1.496,0.498,3.012,0.824,3.012,0.824s4.039,4.793,4.532,6.131c0.493,1.336,0.702,4.846,0.575,7.617
		c-0.126,2.77-0.259,5.652-0.259,5.652l0.821,0.223c0,0,0.65,1.953-0.121,2.658s-0.84,0.146-1.268,1.422
		c-0.43,1.279-0.49,2.631-0.534,3.619c-0.047,0.982,0.421,2.855,0.421,2.855s-2.286,1.664-2.647,1.328
		c-0.13,2.479-0.587,8.809-1.923,11.033c-1.673,2.785-1.59,3.443-4.276,4.246c-2.684,0.805-9.663-0.441-11.14-0.51
		c-1.416-0.066-2.777-0.994-3.626-2.809l-0.661,0.365l-36.445,14.572l0.425-3.795l-0.314-0.016l-0.3-0.014
		c0,0-0.025,0.248-0.069,0.656c-0.003,0.035-0.005,0.061-0.011,0.098c-0.009,0.098-0.022,0.211-0.036,0.326
		c-0.011,0.082-0.02,0.154-0.027,0.242c-0.014,0.115-0.03,0.24-0.047,0.369c-0.014,0.105-0.024,0.209-0.038,0.324
		c-0.02,0.131-0.036,0.266-0.056,0.402c-0.017,0.127-0.033,0.254-0.053,0.389c-0.021,0.152-0.044,0.309-0.068,0.469
		c-0.02,0.139-0.039,0.273-0.061,0.416c-0.025,0.162-0.053,0.328-0.08,0.502c-0.022,0.15-0.047,0.303-0.074,0.459
		c-0.027,0.178-0.061,0.354-0.091,0.533c-0.027,0.164-0.059,0.33-0.089,0.498c-0.032,0.18-0.065,0.355-0.102,0.537
		c-0.033,0.176-0.069,0.355-0.104,0.537c-0.036,0.18-0.072,0.355-0.11,0.535c-0.041,0.189-0.083,0.377-0.127,0.568
		c-0.036,0.176-0.077,0.35-0.118,0.525c-0.044,0.195-0.094,0.391-0.144,0.586c-0.041,0.17-0.083,0.338-0.127,0.508
		c-0.052,0.203-0.11,0.402-0.168,0.604c-0.044,0.16-0.085,0.32-0.132,0.477c-0.063,0.213-0.133,0.422-0.198,0.629
		c-0.044,0.141-0.089,0.283-0.136,0.418c-0.096,0.283-0.195,0.557-0.297,0.826c-0.022,0.057-0.042,0.117-0.063,0.172
		c6.599-2.852,11.528-4.998,11.528-4.998l29.696-11.879l24.845,0.004L1023.005,269.924L1023.005,269.924z M801.538,276.471
		l-1.165,2.42c-0.521-0.281-1.072-0.521-1.659-0.719c-0.587-0.199-1.254-0.299-1.997-0.299c-1.273,0-2.411,0.367-3.408,1.104
		c-1.002,0.734-1.803,1.809-2.4,3.217c-0.601,1.412-0.899,2.957-0.899,4.643c0,1.488,0.34,2.629,1.023,3.418
		c0.681,0.791,1.688,1.184,3.017,1.184c1.166,0,2.527-0.281,4.081-0.842v2.539c-1.488,0.555-3.033,0.832-4.638,0.832
		c-2.05,0-3.656-0.613-4.815-1.84c-1.163-1.229-1.744-2.951-1.744-5.166c0-2.148,0.437-4.145,1.309-5.988
		c0.873-1.842,2.036-3.244,3.491-4.203c1.454-0.959,3.116-1.439,4.984-1.439C798.51,275.33,800.119,275.711,801.538,276.471
		L801.538,276.471z M806.746,291.176h6.682l-0.532,2.543h-9.621l3.829-18.127h2.94L806.746,291.176L806.746,291.176z
		 M833.323,275.592l-2.504,11.854c-0.463,2.207-1.323,3.848-2.579,4.916c-1.257,1.072-2.924,1.605-4.996,1.605
		c-1.796,0-3.182-0.438-4.16-1.314c-0.98-0.875-1.472-2.137-1.472-3.781c0-0.688,0.086-1.389,0.248-2.109l2.395-11.17h2.94
		l-2.381,11.221c-0.174,0.727-0.262,1.381-0.262,1.959c0,0.842,0.245,1.498,0.738,1.965c0.49,0.467,1.237,0.701,2.237,0.701
		c1.198,0,2.149-0.332,2.852-0.996c0.703-0.668,1.216-1.748,1.538-3.244l2.466-11.605H833.323L833.323,275.592z M849.604,279.709
		c0,1.207-0.358,2.209-1.071,3.012c-0.717,0.801-1.706,1.328-2.971,1.576v0.1c0.893,0.23,1.584,0.658,2.078,1.283
		c0.49,0.623,0.738,1.381,0.738,2.273c0,1.793-0.623,3.203-1.86,4.229c-1.242,1.025-2.965,1.537-5.172,1.537h-6.089l3.833-18.127
		h4.945c1.838,0,3.224,0.348,4.16,1.043C849.134,277.328,849.604,278.354,849.604,279.709L849.604,279.709z M845.588,282.33
		c0.628-0.5,0.941-1.207,0.941-2.125c0-1.422-0.92-2.133-2.766-2.133h-2.243l-1.066,5.01h2.469
		C844.069,283.082,844.959,282.83,845.588,282.33L845.588,282.33z M842.438,285.486h-2.48l-1.253,5.74h2.766
		c1.215,0,2.169-0.281,2.857-0.844c0.689-0.562,1.036-1.363,1.036-2.406c0-0.809-0.248-1.426-0.744-1.852
		S843.396,285.486,842.438,285.486L842.438,285.486z M761.564,319.465l10.899-51.047h-21.417l-10.462,48.912
		c-1.022,4.857-2.51,8.461-4.464,10.816c-1.953,2.354-4.32,2.562-7.753,2.562c-4.417,0-8.798,0-8.798,0l13.293-62.291h-21.416
		l-10.899,50.555c-0.438,2.375-6.569,29.732-6.569,29.732s25.897,0,30.791,0c10.407,0,18.408-1.57,24.47-6.484
		C755.301,337.311,759.409,329.727,761.564,319.465L761.564,319.465z M689.107,319.465l10.898-51.047l-22.179,0.002l-17.42-0.002
		h-21.416l-10.9,50.555c-0.438,2.375-6.568,29.732-6.568,29.732s25.897,0,30.791,0c10.406,0,18.408-1.57,24.471-6.48
		C682.845,337.311,686.953,329.727,689.107,319.465L689.107,319.465z M674.714,286.316l-6.585,31.014
		c-1.022,4.855-2.511,8.461-4.464,10.816c-1.953,2.354-4.321,2.562-7.753,2.562c-4.42,0-8.797,0-8.797,0l9.273-44.385
		L674.714,286.316L674.714,286.316z M615.756,331.021H589.63l13.2-62.604h-21.417l-16.923,80.074h47.543L615.756,331.021
		L615.756,331.021z M800.529,349.734l-1.33-0.281l0.421,3.209l2.452,0.621L800.529,349.734L800.529,349.734z M822.481,317.064
		c1.906-1.205,2.08-2.58-0.319-2.697c-2.408-0.117-4.393,0.898-5.365,1.529c-0.975,0.635-2.322,2.602-0.185,2.77
		C818.863,318.846,820.574,318.275,822.481,317.064L822.481,317.064z M806.473,365.65l-3.201-1.266l0.099,0.377l24.365,9.633
		l2.378,0.664c0,0,55.991,6.27,60.979,6.5c4.986,0.229,12.831-1.264,15.832-2.1c0.738-0.207,3.849-1.471,8.111-3.26
		c-0.006,0-0.014,0-0.017-0.002c-0.939-0.1-1.854-0.195-2.725-0.283c-0.452-0.047-0.857-0.084-1.281-0.121
		c-0.378-0.037-0.783-0.078-1.136-0.107c-1.422-0.408-2.275-1.16-2.846-2.072c-0.667,0.145-1.431,0.314-2.227,0.492
		c-0.474,0.105-0.962,0.215-1.449,0.326c-1.976,0.449-3.965,0.916-5.147,1.248c-2.604,0.721-8.855,1.939-13.724,2.1
		c-0.039,0-0.077,0.006-0.116,0.008c-0.699,0.02-1.366,0.016-1.989-0.014c-2.027-0.092-12.471-1.182-24.158-2.441
		c-0.898-0.1-1.805-0.195-2.717-0.295c-9.104-0.986-18.618-2.039-25.277-2.777c-5.329-0.592-8.825-0.98-8.825-0.98l-2.378-0.668
		L806.473,365.65L806.473,365.65z M931.244,306.797l6.057-1.594l-6.057,0.799V306.797L931.244,306.797z M867.442,296.525
		c2.788-0.221,26.589-1.482,26.589-1.482s42.523,3.479,44.917,3.764c2.395,0.283,7.429-0.533,8.112-3.297
		c0.41-1.67,2.661-17.684,1.793-18.945c-0.867-1.262-18.339-2.367-31.557-2.174c-13.22,0.195-20.854,1.334-25.258,2.527
		C887.634,278.113,864.657,296.744,867.442,296.525L867.442,296.525z M921.32,348.311l3.395,2.508l-2.979,6.221
		c0.124,0.793,0.245,1.588,0.41,2.332l3.516-4.994l-0.267,12.957c1.394,1.928,3.058,3.094,4.896,3.176
		c5.511,0.254,10.415-9.137,10.961-20.971c0.54-11.836-3.485-21.635-8.993-21.889c-1.733-0.078-3.403,0.797-4.899,2.398
		c0.069,0.035,0.135,0.082,0.201,0.121l0,0l-0.292-0.014c-0.061,0.066-0.118,0.143-0.179,0.211l-0.579,13.59l-2.937-7.25
		c-0.281,0.77-0.543,1.566-0.78,2.406l2.29,7.74l-3.654-0.146C921.386,347.236,921.348,347.771,921.32,348.311L921.32,348.311z
		 M933.066,338.635l-4.034,4.881l-0.353-12.572C930.564,332.518,932.094,335.227,933.066,338.635L933.066,338.635z M934.102,350.436
		l-4.268-2.254l3.756-7.371c0.51,2.547,0.735,5.379,0.598,8.363C934.168,349.598,934.135,350.016,934.102,350.436L934.102,350.436z
		 M932.104,359.568l-2.516-8.064l4.348,0.543C933.595,354.805,932.961,357.354,932.104,359.568L932.104,359.568z M927.013,366.834
		l1.022-11.699l3.165,6.477C930.035,363.939,928.6,365.746,927.013,366.834L927.013,366.834z M923.568,336.691l0.006,0.016
		c0.234-0.639,0.477-1.262,0.738-1.846C924.051,335.443,923.803,336.055,923.568,336.691L923.568,336.691z M921.714,357.084
		l0.022-0.045c-0.02-0.117-0.044-0.229-0.061-0.348C921.694,356.818,921.694,356.957,921.714,357.084L921.714,357.084z
		 M924.381,365.699c-0.611-1.133-1.144-2.441-1.592-3.885C923.237,363.258,923.77,364.564,924.381,365.699L924.381,365.699z
		 M925.588,367.611C925.588,367.611,925.588,367.609,925.588,367.611L925.588,367.611
		C925.588,367.609,925.588,367.611,925.588,367.611L925.588,367.611z"/>
	<path fill="none" stroke="#1B1C20" stroke-width="1.4173" d="M930.338,369.514c4.866,0.223,9.407-8.945,9.914-20.021
		c0.507-11.072-3.174-20.617-8.04-20.84c-4.866-0.225-9.407,8.943-9.914,20.016C921.791,359.746,925.473,369.289,930.338,369.514
		L930.338,369.514z"/>
	<path fill="#1B1C20" d="M893.53,340.293c0,0-3.447-9.305-5.972-12.121c-1.732-1.938-7.854-2.697-12.922-2.93
		c-5.064-0.232-47.259-1.332-47.259-1.332l-1.739-1.582l-16.094-0.904l-0.776,1.133l-18.252-2.738
		c-2.185,0.234-1.688,1.926-1.688,1.926l4.117,10.594c0,0,0.793,1.678,1.972,2.033c1.18,0.354,19.455,4.297,19.455,4.297
		l0.482,1.357l4.659,1.215l12.107,0.887l1.154-1.449c0,0,45.371,2.916,52.609,3.246C892.621,344.258,893.53,340.293,893.53,340.293
		L893.53,340.293z M796.319,332.977c-1.54,0.227-3.116-1.809-3.521-4.551c-0.402-2.744,0.521-5.15,2.061-5.375
		c1.54-0.23,3.119,1.809,3.521,4.551C798.785,330.344,797.862,332.752,796.319,332.977L796.319,332.977z M803.905,334.58
		c-2.045,0.301-4.067-1.941-4.519-5.012c-0.452-3.068,0.837-5.799,2.882-6.1c2.044-0.303,4.066,1.943,4.519,5.01
		C807.239,331.547,805.949,334.277,803.905,334.58L803.905,334.58z M843.521,334.506l-4.892-0.223l-0.749-1.887l4.803,0.221
		L843.521,334.506L843.521,334.506z M856.124,340.117c-2.998,0.283-5.701-2.373-6.037-5.934c-0.333-3.559,1.827-6.672,4.827-6.953
		c2.998-0.285,5.701,2.371,6.037,5.932C861.284,336.723,859.124,339.836,856.124,340.117L856.124,340.117z M872.389,341.139
		c-3.207,0.416-6.208-2.348-6.704-6.17c-0.493-3.824,1.706-7.26,4.913-7.674c3.204-0.416,6.205,2.348,6.701,6.17
		C877.794,337.289,875.596,340.725,872.389,341.139L872.389,341.139z"/>
	<path fill="none" stroke="#1B1C20" d="M790.517,319.818l18.252,2.738l0.776-1.133l16.094,0.904l1.739,1.582
		c0,0,42.194,1.1,47.259,1.332c5.067,0.232,11.189,0.992,12.922,2.93c2.524,2.816,5.972,12.121,5.972,12.121
		s-0.907,3.965-8.146,3.631c-7.235-0.33-52.609-3.246-52.609-3.246l-1.154,1.449l-12.107-0.887l-4.659-1.215l-0.482-1.357
		c0,0-18.275-3.943-19.455-4.297c-1.179-0.355-1.972-2.033-1.972-2.033l-4.117-10.594
		C788.828,321.744,788.332,320.053,790.517,319.818L790.517,319.818z"/>
	<path fill="none" stroke="#1B1C20" stroke-width="0.5669" stroke-linecap="round" d="M931.286,306.402
		c0,0-7.261,1.281-15.499,3.373c-8.235,2.094-27.192,7.977-29.978,8.158c-2.783,0.18-50.579-2.496-50.579-2.496l-2.133-1.863
		l-16.626-0.586l-1.526,0.988c0,0-21.02-1.582-22.497-1.648"/>
	<path fill="#1B1C20" d="M793.272,333.955l-3.27,1.453l-2.591,2.168c0,0-0.947,0.639,0.678,1.223
		c1.623,0.588,24.85,6.078,24.85,6.078l69.128,4.531c0,0,6.064-0.232,9.581-0.924c3.518-0.689,20.582-4.844,20.582-4.844
		l-1.576-1.604l-17.378,2.947l-13.203-0.846l-47.075-3.559l-1.669,1.525c0,0-10.655-0.49-11.386-0.523
		c-0.732-0.033-5.355-1.045-5.355-1.045l-0.328-1.617l-20.025-4.119L793.272,333.955L793.272,333.955z"/>
	<path fill="none" stroke="#1B1C20" d="M793.272,333.955l-3.27,1.453l-2.591,2.168c0,0-0.947,0.639,0.678,1.223
		c1.623,0.588,24.85,6.078,24.85,6.078l69.128,4.531c0,0,6.064-0.232,9.581-0.924c3.518-0.689,20.582-4.844,20.582-4.844
		l-1.576-1.604l-17.378,2.947l-13.203-0.846l-47.075-3.559l-1.669,1.525c0,0-10.655-0.49-11.386-0.523
		c-0.732-0.033-5.355-1.045-5.355-1.045l-0.328-1.617l-20.025-4.119L793.272,333.955L793.272,333.955z"/>
	<polygon fill="#1B1C20" points="860.154,358.051 873.457,358.66 873.554,364.197 860.609,363.443 860.154,358.051 	"/>
	<polygon fill="none" stroke="#1B1C20" stroke-linejoin="round" points="860.154,358.051 873.457,358.66 873.554,364.197 
		860.609,363.443 860.154,358.051 	"/>
	<polygon fill="none" stroke="#1B1C20" stroke-width="0.7087" points="797.543,352.207 794.189,347.25 800.729,349.701 
		802.742,354.102 797.543,352.207 	"/>
</g>
<g>
	<rect x="223.272" y="224.961" fill="#373737" width="143.227" height="143.248"/>
	<g>
		<path fill="#828282" d="M175.824,415.972v-23.884h2.777v23.884H175.824z"/>
		<path fill="#828282" d="M206.188,415.972h-3.17l-13.053-20.045h-0.131c0.174,2.353,0.262,4.509,0.262,6.469v13.576h-2.565v-23.884
			h3.137l13.021,19.963h0.131c-0.021-0.294-0.071-1.238-0.147-2.834s-0.104-2.736-0.081-3.423v-13.706h2.598V415.972z"/>
		<path fill="#828282" d="M229.381,392.088h2.989l-8.609,23.884h-2.744l-8.561-23.884h2.94l5.489,15.454
			c0.632,1.775,1.133,3.502,1.503,5.179c0.393-1.765,0.904-3.523,1.536-5.276L229.381,392.088z"/>
		<path fill="#828282" d="M238.651,415.972v-23.884h2.777v23.884H238.651z"/>
		<path fill="#828282" d="M263.954,409.617c0,2.102-0.763,3.74-2.287,4.917c-1.525,1.176-3.595,1.765-6.208,1.765
			c-2.832,0-5.01-0.365-6.535-1.095v-2.68c0.98,0.414,2.048,0.741,3.202,0.98s2.298,0.359,3.431,0.359
			c1.852,0,3.245-0.352,4.183-1.054c0.937-0.702,1.404-1.68,1.404-2.933c0-0.827-0.166-1.505-0.498-2.034
			c-0.332-0.527-0.888-1.015-1.666-1.462c-0.779-0.446-1.964-0.953-3.554-1.52c-2.222-0.794-3.809-1.736-4.762-2.826
			c-0.953-1.089-1.43-2.51-1.43-4.264c0-1.84,0.691-3.305,2.075-4.395c1.383-1.089,3.212-1.634,5.488-1.634
			c2.375,0,4.559,0.437,6.552,1.308l-0.866,2.417c-1.972-0.827-3.888-1.241-5.75-1.241c-1.471,0-2.62,0.316-3.447,0.947
			c-0.828,0.632-1.242,1.509-1.242,2.631c0,0.827,0.152,1.506,0.458,2.033c0.305,0.528,0.819,1.014,1.544,1.454
			c0.724,0.441,1.832,0.929,3.324,1.462c2.505,0.894,4.229,1.853,5.171,2.876C263.482,406.654,263.954,407.983,263.954,409.617z"/>
		<path fill="#828282" d="M271.144,415.972v-23.884h2.777v23.884H271.144z"/>
		<path fill="#828282" d="M282.851,392.088h6.747c3.17,0,5.462,0.474,6.878,1.421s2.124,2.445,2.124,4.492
			c0,1.416-0.395,2.584-1.185,3.505c-0.79,0.92-1.941,1.517-3.455,1.789v0.163c3.627,0.62,5.44,2.526,5.44,5.718
			c0,2.135-0.722,3.801-2.165,4.999s-3.461,1.797-6.053,1.797h-8.332V392.088z M285.628,402.314h4.574
			c1.961,0,3.371-0.308,4.231-0.923s1.291-1.653,1.291-3.112c0-1.34-0.479-2.307-1.438-2.9c-0.959-0.593-2.483-0.89-4.574-0.89
			h-4.085V402.314z M285.628,404.667v8.936h4.983c1.928,0,3.379-0.373,4.354-1.119c0.975-0.745,1.462-1.913,1.462-3.504
			c0-1.48-0.498-2.57-1.495-3.268c-0.996-0.696-2.513-1.045-4.55-1.045H285.628z"/>
		<path fill="#828282" d="M307.142,415.972v-23.884h2.777v21.368h10.537v2.516H307.142z"/>
		<path fill="#828282" d="M340.426,415.972h-13.314v-23.884h13.314v2.467h-10.537v7.694h9.9v2.45h-9.9v8.789h10.537V415.972z"/>
		<path fill="#828282" d="M373.738,392.088h2.989l-8.609,23.884h-2.744l-8.561-23.884h2.94l5.489,15.454
			c0.632,1.775,1.133,3.502,1.503,5.179c0.393-1.765,0.904-3.523,1.536-5.276L373.738,392.088z"/>
		<path fill="#828282" d="M385.787,415.972h-2.777v-23.884h13.314v2.467h-10.537v8.74h9.9v2.467h-9.9V415.972z"/>
		<path fill="#828282" d="M420.179,415.972h-3.153l-6.421-10.505l-6.534,10.505h-2.94l7.939-12.481l-7.4-11.402h3.071l5.93,9.459
			l5.979-9.459h2.957l-7.4,11.305L420.179,415.972z"/>
	</g>
	<polygon opacity="0.7" fill="#282828" points="329.16,324.881 323.402,323.766 330.523,284.249 329.237,261.494 306.825,260.769 
		282.953,332.387 276.984,329.402 265.048,323.434 282.953,269.721 274,266.736 259.08,260.77 223.272,368.195 318.762,368.195 
		330.697,332.387 	"/>
	<polygon fill="#FFFFFF" points="282.953,260.77 259.08,260.77 259.08,332.387 282.953,332.387 282.953,323.434 268.032,323.434 
		268.032,269.721 282.953,269.721 	"/>
	<polygon fill="#FFFFFF" points="306.825,260.77 330.697,260.77 330.697,332.387 306.825,332.387 306.825,323.434 321.746,323.434 
		321.746,269.721 306.825,269.721 	"/>
</g>
</svg>
