<?xml version="1.0" encoding="utf-8"?>
<!-- Generator: Adobe Illustrator 16.0.0, SVG Export Plug-In . SVG Version: 6.00 Build 0)  -->
<!DOCTYPE svg PUBLIC "-//W3C//DTD SVG 1.1//EN" "http://www.w3.org/Graphics/SVG/1.1/DTD/svg11.dtd">
<svg version="1.1" id="Layer_1" xmlns="http://www.w3.org/2000/svg" xmlns:xlink="http://www.w3.org/1999/xlink" x="0px" y="0px"
	 width="1140px" height="650px" viewBox="0 0 1140 650" enable-background="new 0 0 1140 650" xml:space="preserve">
<g>
	
		<rect x="848.765" y="304.61" transform="matrix(0.5937 0.8047 -0.8047 0.5937 656.3986 -526.8324)" fill="#C8974B" width="2.198" height="163.867"/>
	
		<rect x="767.928" y="288.285" transform="matrix(0.8053 0.5929 -0.5929 0.8053 337.081 -447.5439)" fill="#C8974B" width="163.867" height="2.2"/>
	
		<rect x="848.762" y="220.522" transform="matrix(0.8272 0.5619 -0.5619 0.8272 336.7571 -419.1403)" fill="#C8974B" width="2.199" height="234.887"/>
	<path fill="#C8974B" d="M916.94,436.223H782.786V239.707H916.94V436.223z M784.984,434.025h129.759V241.904H784.984V434.025z"/>
	<path fill="#C8974B" d="M849.688,263.633c35.647,0,64.648,29,64.648,64.648s-29.001,64.649-64.648,64.649
		c-35.648,0-64.647-29.001-64.647-64.649S814.04,263.633,849.688,263.633 M849.688,261.362c-36.96,0-66.919,29.961-66.919,66.919
		c0,36.959,29.959,66.92,66.919,66.92c36.958,0,66.917-29.961,66.917-66.92C916.605,291.323,886.646,261.362,849.688,261.362"/>
	<g>
		<path fill="#38363A" d="M876.373,372.96c-3.334,0-7.454-1.766-9.611-3.923c-2.551-2.55-3.924-5.296-4.709-8.435
			c-7.846,5.296-17.262,12.358-22.755,12.358c-14.32,0-24.129-11.966-24.129-24.128c0-9.809,5.101-15.693,15.693-19.225
			c11.771-4.119,26.287-9.416,30.603-12.947v-3.923c0-13.732-6.277-21.579-15.693-21.579c-3.531,0-6.474,1.374-8.436,3.727
			c-2.354,2.747-4.119,7.062-5.688,13.144c-0.981,3.531-3.139,4.904-6.277,4.904c-3.728,0-9.22-3.924-9.22-8.632
			c0-3.139,2.55-5.296,6.474-8.239c5.688-4.12,18.832-11.574,30.013-13.732c6.082,0,12.163,1.766,16.479,5.297
			c7.258,5.885,9.22,13.928,9.22,24.521v35.703c0,8.828,3.335,11.574,6.67,11.574c2.354,0,5.101-0.98,7.062-1.961l1.962,5.296
			L876.373,372.96z M861.465,323.526c-4.119,2.158-12.162,5.885-16.479,7.847c-7.258,3.531-11.377,7.062-11.377,14.32
			c0,10.201,7.65,14.909,13.535,14.909c4.708,0,10.789-2.943,14.32-6.277V323.526z"/>
	</g>
</g>
<g>
	<polygon fill="#C1272D" points="255.253,272.251 174.556,272.251 174.556,406.748 201.455,406.748 201.455,352.949 
		228.354,406.748 228.354,352.949 228.354,352.949 255.253,406.748 255.253,272.251 	"/>
	<path fill="#C1272D" d="M362.851,406.748h-80.698V272.251h80.698V406.748z M309.052,352.949l26.899-53.798h-26.899V352.949z"/>
	<path fill="#C1272D" d="M443.548,406.748l-26.899-53.799v53.799H389.75V272.251h80.698v80.698h-26.899l26.899,53.799H443.548z
		 M416.649,299.15l26.899,53.798V299.15H416.649z"/>
	<path fill="#C1272D" d="M551.146,406.748l-26.899-53.799v53.799h-26.899V272.251h80.698v80.698h-26.899l26.899,53.799H551.146z
		 M524.247,299.15l26.899,53.798V299.15H524.247z"/>
</g>
</svg>
