<?xml version="1.0" encoding="utf-8"?>
<!-- Generator: Adobe Illustrator 16.0.0, SVG Export Plug-In . SVG Version: 6.00 Build 0)  -->
<!DOCTYPE svg PUBLIC "-//W3C//DTD SVG 1.1//EN" "http://www.w3.org/Graphics/SVG/1.1/DTD/svg11.dtd">
<svg version="1.1" id="Layer_1" xmlns="http://www.w3.org/2000/svg" xmlns:xlink="http://www.w3.org/1999/xlink" x="0px" y="0px"
	 width="1140px" height="400px" viewBox="0 0 1140 400" enable-background="new 0 0 1140 400" xml:space="preserve">
<g>
	<path fill-rule="evenodd" clip-rule="evenodd" fill="#C1272D" d="M397.714,212.665c-0.467,4.686-0.99,9.366-1.387,14.058
		c-0.406,4.807-0.684,9.623-1.029,14.435c-0.206,2.872-1.934,4.837-4.303,6.004c-3.02,1.487-6.172,2.841-9.414,3.696
		c-1.853,0.488-4.013-0.013-6.004-0.289c-1.159-0.161-1.666-1.132-1.836-2.345c-1.347-9.619-2.245-19.264-2.652-28.98
		c-0.415-9.9-1.395-19.776-2.119-29.664c-0.037-0.514-0.005-1.034,0.242-1.588c1.334,5.032,2.668,10.063,4.002,15.096
		c0.125-0.029,0.252-0.059,0.377-0.088c-0.541-2.534-1.084-5.069-1.625-7.605c-1.008-4.725-2.187-9.423-2.95-14.188
		c-0.392-2.441-0.106-5.005-0.005-7.508c0.1-2.461,0.292-4.923,0.562-7.371c0.225-2.039-0.469-3.655-1.829-5.103
		c-0.684-0.728-1.266-1.551-1.895-2.33c0.058-0.136,0.114-0.271,0.172-0.405c1.284,0.121,2.589,0.137,3.85,0.381
		c7.019,1.358,13.926,3.132,20.465,6.085c3.733,1.686,6.18,4.794,8.15,8.218c2.003,3.479,3.898,7.039,5.539,10.698
		c2.085,4.649,3.836,9.447,5.796,14.153c0.649,1.56,1.501,3.034,2.261,4.547c0.173-0.032,0.347-0.064,0.521-0.098
		c0.155-2.031,0.246-4.07,0.478-6.093c0.597-5.21,1.076-10.443,1.975-15.603c0.364-2.095,1.598-4.071,2.612-6.009
		c0.789-1.507,2.082-2.287,3.896-1.646c2.222,0.785,4.479,1.48,6.665,2.355c0.441,0.176,0.89,0.969,0.904,1.489
		c0.262,9.37,2.186,18.526,3.461,27.769c0.754,5.467,1.2,10.977,1.753,16.47c0.332,3.307,0.634,6.616,0.886,9.929
		c0.085,1.117,0.135,2.277-0.071,3.366c-0.665,3.52-2.7,4.96-7.084,5.059c-2.953,0.066-5.908,0.003-8.862,0.029
		c-1.174,0.01-2.354,0.216-3.52,0.141c-4.092-0.266-6.511-3.11-8.203-6.265c-2.938-5.476-5.418-11.199-8.022-16.85
		c-0.591-1.281-0.905-2.689-1.347-4.039C397.986,212.605,397.851,212.636,397.714,212.665z"/>
	<path fill-rule="evenodd" clip-rule="evenodd" fill="#C1272D" d="M669.778,175.95c0.31,1.388,0.618,2.776,0.928,4.164
		c0.127,0.023,0.255,0.047,0.382,0.07c0.149-0.501,0.388-0.994,0.43-1.504c0.12-1.445,0.952-2.18,2.301-2.196
		c4.51-0.056,9.022-0.069,13.532,0.003c0.6,0.01,1.274,0.512,1.771,0.949c2.57,2.263,5.093,4.58,7.636,6.875
		c0.812,0.734,1.395,0.16,1.907-0.404c0.712-0.784,1.264-0.988,2.29-0.261c1.731,1.227,2.829,0.739,3.449-1.265
		c0.666-2.153,1.337-4.307,1.934-6.479c0.436-1.586,1.859-1.761,3.032-2.342c3.397-1.684,6.966-1.367,10.546-0.952
		c2.61,0.303,5.22,0.612,7.827,0.935c1.92,0.237,1.95,0.408,1.756,2.358c-0.88,8.852-1.743,17.704-2.528,26.565
		c-0.42,4.75-0.661,9.517-1.006,14.273c-0.037,0.511-0.227,1.01-0.743,1.603c-0.49-1.115-0.98-2.229-1.62-3.686
		c-0.286,1.82-0.445,3.164,1.062,4.146c1.08,0.702,1.407,1.76,1.302,3.075c-0.361,4.486-0.62,8.981-0.942,13.471
		c-0.067,0.946-0.239,1.885-0.364,2.841c-0.268-0.06-0.44-0.063-0.45-0.105c-0.934-4.012-3.947-6.817-5.921-10.224
		c-1.8-3.105-3.6-6.212-5.4-9.317c-0.163-0.278-0.325-0.557-0.502-0.825c-1.02-1.547-1.534-1.703-2.673-0.304
		c-1.923,2.365-3.657,4.885-5.463,7.345c-0.4,0.547-0.766,1.119-1.27,1.861c-0.84-1.043-1.45-2.004-2.253-2.758
		c-2.056-1.933-4.159-3.82-6.338-5.61c-0.425-0.349-1.279-0.174-1.936-0.241c0.374,0.498,0.644,1.209,1.144,1.461
		c2.994,1.513,4.096,4.09,4.292,7.227c0.012,0.197-0.089,0.401-0.184,0.803c-3.317-1.478-4.604-4.931-7.5-7.3
		c-0.234,1.354-0.441,2.354-0.577,3.365c-0.699,5.21-1.372,10.424-2.073,15.635c-0.313,2.337-0.604,4.681-1.025,7
		c-0.44,2.419-1.344,2.796-3.425,1.579c-3.105-1.814-6.207-3.635-9.312-5.453c-1.961-1.148-2.994-2.74-2.933-5.135
		c0.062-2.459-0.138-4.929-0.309-7.389c-0.099-1.408,0.307-2.521,1.412-3.395c0.292-0.232,0.543-0.52,0.798-0.796
		c0.688-0.745,1.75-1.424,1.919-2.275c0.111-0.568-1.113-1.349-1.629-2.108c-0.378-0.557-0.772-1.221-0.822-1.863
		c-0.594-7.587-1.087-15.181-1.683-22.767c-0.406-5.184-0.968-10.354-1.383-15.536c-0.134-1.681-0.021-3.382-0.021-5.073
		C669.355,175.978,669.567,175.964,669.778,175.95z"/>
	<path fill-rule="evenodd" clip-rule="evenodd" fill="#C1272D" d="M641.498,242.856c-0.509-0.293-1.175-0.494-1.571-0.938
		c-1.6-1.791-3.236-3.571-4.614-5.528c-0.764-1.086-1.304-1.374-2.374-0.57c-2.525,1.895-5.158,3.657-7.592,5.663
		c-1.874,1.545-3.664,2.135-6.027,1.148c-5.555-2.319-11.094-4.649-15.812-8.489c-0.612-0.499-1.2-1.452-1.213-2.205
		c-0.191-11.931-1.525-23.75-3.391-35.517c-0.188-1.19,0.165-1.943,0.992-2.668c4.437-3.884,8.872-7.768,13.274-11.691
		c0.751-0.669,1.229-0.692,1.774,0.174c0.509,0.809,0.983,1.759,2.257,0.978c0.181-0.111,0.682,0.213,0.99,0.406
		c3.673,2.31,7.563,4.327,10.429,7.73c0.904,1.075,1.354,0.533,2.013-0.408c2.204-3.152,4.479-6.262,6.858-9.284
		c1.118-1.422,2.599-1.695,4.461-1.034c3.839,1.364,6.823,3.738,9.283,6.898c0.711,0.914,1.005,1.861,0.628,2.991
		c-1.304,3.91-2.617,7.817-3.884,11.738c-1.539,4.764-2.481,9.504-0.416,14.437c1.099,2.624,1.758,5.473,3.809,7.555
		c1.761,1.788,3.689,3.429,5.663,4.984c1.191,0.938,1.298,1.576,0.175,2.649c-1.586,1.517-3.044,3.172-4.507,4.813
		c-0.372,0.418-0.5,1.044-0.833,1.509c-0.624,0.871-1.156,2.153-2.01,2.45C647.191,241.577,644.391,242.125,641.498,242.856z
		 M620.179,222.039c1.032-0.528,2.391-0.977,3.424-1.821c1.052-0.861,1.79-2.109,2.654-3.196c0.753-0.947,0.865-1.945,0.131-2.953
		c-2.74-3.764-5.482-7.525-8.241-11.274c-0.572-0.777-1.144-0.718-2.048-0.238c-3.226,1.712-5.172,4.572-7.149,7.446
		c-1.61,2.341-1.731,3.08,0.449,4.913c2.775,2.333,5.804,4.371,8.759,6.484C618.608,221.721,619.26,221.761,620.179,222.039z"/>
	<path fill-rule="evenodd" clip-rule="evenodd" fill="#C1272D" d="M455.385,191.728c-0.517-2.941,0.852-4.271,3.495-5.42
		c6.639-2.887,13.134-6.107,19.638-9.293c1.447-0.709,2.288-0.36,3.362,0.673c4.09,3.935,8.271,7.773,12.431,11.637
		c3.688,3.425,7.727,6.497,10.469,10.849c0.734,1.166,0.858,1.984-0.419,2.79c-4.714,2.975-9.346,6.085-14.128,8.943
		c-3.49,2.087-7.146,3.904-10.771,5.756c-2.691,1.374-3.088,3.475-0.984,5.646c1.801,1.859,3.589,3.747,6.16,4.502
		c0.547,0.16,1.517,0.058,1.814-0.311c1.483-1.832,3.454-2.559,5.649-3.061c4.075-0.933,8.112-2.035,12.185-2.981
		c1.747-0.405,3.541,1.387,3.373,3.188c-0.043,0.456-0.171,1.03,0.039,1.361c0.763,1.202,0.147,1.887-0.75,2.556
		c-3.227,2.407-6.499,4.757-9.655,7.253c-3.698,2.925-7.261,6.021-10.947,8.961c-1.505,1.2-3.206,2.152-4.77,3.284
		c-0.901,0.652-1.588,0.298-2.324-0.234c-4.309-3.109-8.612-6.225-12.938-9.31c-1.749-1.246-3.589-2.366-5.305-3.654
		c-0.536-0.402-1.007-1.121-1.149-1.772c-0.262-1.194-0.398-2.454-0.34-3.674c0.406-8.51-1.465-16.752-2.766-25.07
		C456.103,200.17,455.829,195.936,455.385,191.728z M481.44,199.975c-1.303-1.607-2.485-3.051-3.652-4.507
		c-1.463-1.826-3.67-2.4-5.738-1.289c-1.266,0.681-2.48,1.521-3.559,2.472c-1.686,1.483-1.947,2.421-1.014,3.908
		c1.624,2.588,3.395,5.084,5.128,7.602c0.159,0.23,0.503,0.334,1.282,0.825c-0.98-3.102,0.917-4.15,2.592-5.356
		C478.163,202.416,479.821,201.169,481.44,199.975z"/>
	<path fill-rule="evenodd" clip-rule="evenodd" fill="#C1272D" d="M556.334,183.418c-1.506,2.152-0.317,2.622,0.917,3.242
		c3.017,1.519,5.978,3.15,8.965,4.728c1.253,0.662,1.63,1.571,1.03,2.922c-0.345,0.778-0.487,1.645-0.742,2.464
		c-0.812,2.613-2.123,3.459-4.801,2.809c-4.429-1.077-8.844-2.226-13.229-3.47c-1.513-0.429-2.608-0.305-3.747,0.881
		c-4.065,4.234-7.901,8.621-10.507,13.951c-1.017,2.08-1.501,4.044,0.746,5.715c0.404,0.301,0.657,0.846,0.896,1.32
		c1.85,3.662,4.504,6.626,7.699,9.169c2.057,1.639,3.095,1.896,5.146,0.271c2.387-1.892,4.581-4.03,6.799-6.126
		c0.5-0.472,0.748-1.211,1.29-2.13c-2.283-0.303-4.226-0.545-6.162-0.828c-0.577-0.084-1.173-0.206-1.697-0.448
		c-1.259-0.58-1.539-1.676-0.664-2.748c1.319-1.62,2.667-3.223,4.089-4.751c1.765-1.896,4.097-1.985,6.435-1.66
		c1.96,0.272,3.881,0.81,5.835,1.136c4.175,0.696,8.362,1.315,12.537,2.007c0.89,0.146,1.767,0.42,2.622,0.716
		c1.188,0.41,1.613,1.312,1.48,2.536c-0.227,2.077-0.449,4.155-0.636,6.235c-0.133,1.479-0.792,2.267-2.38,2.13
		c-0.853-0.074-1.726-0.083-2.572,0.022c-0.55,0.068-1.198,0.262-1.579,0.63c-2.548,2.451-5.058,4.94-7.533,7.463
		c-2.631,2.68-5.167,5.453-7.845,8.083c-0.62,0.608-1.667,0.767-2.489,1.188c-1.062,0.547-2.368,0.919-3.09,1.771
		c-1.919,2.27-4.395,2.706-7.123,3.047c-2.477,0.309-4.448,0.067-6.053-2.081c-0.936-1.253-2.124-2.222-3.844-2.691
		c-1.282-0.35-2.343-1.633-3.422-2.59c-4.32-3.833-9.038-7.298-11.783-12.607c-1.505-2.907-3.238-5.717-4.475-8.731
		c-0.636-1.551-0.674-3.478-0.523-5.195c0.433-4.948,1.718-9.672,5.437-13.248c2.778-2.672,5.74-5.161,8.715-7.617
		c3.308-2.731,6.703-5.357,10.107-7.968c0.648-0.497,1.545-1.055,2.278-0.994C546.927,182.339,551.377,182.88,556.334,183.418z"/>
	<path fill-rule="evenodd" clip-rule="evenodd" fill="#C1272D" d="M769.327,236.014c0.747,1.095,1.303,1.902,1.85,2.715
		c0.623,0.925,0.48,1.755-0.164,2.656c-1.53,2.138-2.987,4.326-4.456,6.507c-0.297,0.438-0.511,0.932-0.601,1.513
		c1.955-2.641,3.911-5.28,5.865-7.92c0.195,0.003,0.391,0.006,0.585,0.009c0.19,1.572,0.462,3.14,0.545,4.717
		c0.097,1.809,0.023,3.626,0.032,5.438c0,0.268,0.05,0.535,0.062,0.803c0.229,5.142-1.359,6.367-6.667,4.836
		c1.371-2.121,2.7-4.179,4.028-6.236c-0.137-0.112-0.273-0.226-0.41-0.338c-0.377,0.37-0.811,0.698-1.119,1.118
		c-0.919,1.256-1.86,2.506-2.657,3.839c-0.769,1.285-1.708,1.437-2.986,0.886c-1.624-0.7-3.257-1.391-4.927-1.967
		c-2.625-0.905-5.269-1.765-7.933-2.544c-2.073-0.605-3.794-2.65-3.739-4.815c0.197-7.652,0.379-15.306,0.67-22.954
		c0.237-6.267,0.602-12.528,0.949-18.789c0.288-5.19,0.625-10.378,0.955-15.566c0.098-1.536,0.976-2.201,2.541-1.7
		c1.986,0.636,3.921,1.442,5.854,2.235c2.283,0.937,4.572,1.87,6.792,2.943c0.755,0.364,1.308,1.146,1.95,1.74
		c0.036,0.033,0.037,0.103,0.065,0.146c2.271,3.426,2.692,7.213,2.491,11.229c-0.196,3.965-0.116,7.949-0.026,11.921
		c0.121,5.413,0.371,10.822,0.548,16.234C769.443,235.25,769.341,235.835,769.327,236.014z"/>
	<path fill-rule="evenodd" clip-rule="evenodd" fill="#C1272D" d="M772.221,167.03c-3.05,2.727-5.991,5.196-8.737,7.867
		c-1.796,1.746-4.039,2.59-6.286,1.705c-0.426-0.167-0.849-0.829-0.925-1.316c-0.378-2.434-0.653-4.884-0.932-7.331
		c-0.074-0.637,0.062-1.307-0.066-1.927c-0.157-0.758-0.49-1.479-0.747-2.217c-0.599,0.388-1.283,0.688-1.775,1.181
		c-1.438,1.436-2.791,2.954-4.189,4.428c-0.354,0.372-0.759,0.696-1.316,1.202c-0.259-0.585-0.449-0.938-0.575-1.312
		c-0.912-2.739-1.736-5.513-2.749-8.216c-0.522-1.394-0.748-2.686-0.024-4.019c1.885-3.468,3.236-7.115,3.891-11.022
		c0.148-0.89,0.488-1.759,0.824-2.603c0.632-1.585,1.323-1.767,2.599-0.599c1.384,1.268,2.566,2.777,4.04,3.919
		c1.141,0.884,2.537,1.733,3.92,1.945c3.381,0.519,6.848,0.476,10.228,1c3.849,0.597,7.654,1.509,11.443,2.43
		c0.557,0.136,1.15,1.015,1.33,1.659c1.43,5.131,2.435,10.325,1.917,15.701c-0.067,0.692-0.092,1.394-0.073,2.09
		c0.039,1.477-0.479,2.612-1.849,3.291c-1.426,0.707-2.806,0.817-3.984-0.434c-1.28-1.36-2.537-2.747-3.726-4.188
		C773.714,169.364,773.118,168.342,772.221,167.03z"/>
	<path fill-rule="evenodd" clip-rule="evenodd" fill="#C1272D" d="M364.959,203.352c2.994,14.686,5.601,29.434,7.136,44.583
		c-2.709-0.893-4.768-2.336-5.744-4.869c-2.283-5.923-4.086-12.008-4.665-18.346c-0.222-2.422,0.154-4.932,0.516-7.363
		c0.692-4.663,1.569-9.299,2.37-13.946C364.7,203.391,364.829,203.371,364.959,203.352z"/>
	<path fill-rule="evenodd" clip-rule="evenodd" fill="#C1272D" d="M435.864,219.597c-0.391-2.625-0.779-5.25-1.171-7.874
		c-1.562-10.451-3.125-20.9-4.684-31.352c-0.142-0.954-0.249-1.913-0.386-2.868c-0.162-1.126,0.275-1.602,1.351-1.115
		c1.269,0.574,2.538,1.181,3.712,1.923c2.401,1.52,2.788,3.847,2.521,6.482c-0.292,2.876-0.524,5.767-0.584,8.655
		c-0.172,8.312-0.243,16.627-0.358,24.941c-0.006,0.397-0.061,0.794-0.092,1.191C436.07,219.586,435.968,219.591,435.864,219.597z"
		/>
	<path fill-rule="evenodd" clip-rule="evenodd" fill="#C1272D" d="M596.69,197.848c-0.482,9.766-0.964,19.531-1.445,29.297
		c-0.222,0.012-0.443,0.024-0.665,0.037c-0.179-1.426-0.404-2.847-0.527-4.276c-0.51-5.864-0.974-11.731-1.487-17.595
		c-0.143-1.639,0.257-3.008,1.387-4.26c0.906-1.003,1.595-2.203,2.381-3.316C596.451,197.772,596.571,197.81,596.69,197.848z"/>
	<path fill-rule="evenodd" clip-rule="evenodd" fill="#C1272D" d="M449.976,190.063c1.977,6.6,1.945,13.337,2.181,20.063
		c-2.093-3.43-3.203-7.165-3.385-11.718c-1.771,1.343-3.1,2.351-4.429,3.357C446.004,197.793,447.325,193.655,449.976,190.063z"/>
	<path fill-rule="evenodd" clip-rule="evenodd" fill="#C1272D" d="M452.805,230.423c-0.605-0.588-1.531-1.071-1.763-1.781
		c-1.273-3.896-2.307-7.859-0.525-11.896c0.294-0.664,0.823-1.224,1.244-1.831c0.132,0.066,0.265,0.134,0.396,0.2
		c0.357,5.002,0.716,10.005,1.074,15.007C453.089,230.222,452.946,230.322,452.805,230.423z"/>
	<path fill-rule="evenodd" clip-rule="evenodd" fill="#C1272D" d="M457.772,233.112c-1.56-3.221-0.69-6.866-1.589-10.202
		c0.186-0.034,0.37-0.069,0.556-0.104c0.644,3.371,1.287,6.741,1.931,10.111C458.37,232.983,458.071,233.048,457.772,233.112z"/>
	<path fill-rule="evenodd" clip-rule="evenodd" fill="#C1272D" d="M494.954,219.77c1.652-1.232,2.815-3.229,5.189-3.335
		c0.09,0.141,0.181,0.28,0.27,0.421c-1.746,1.087-3.492,2.173-5.237,3.26C495.102,220,495.027,219.885,494.954,219.77z"/>
	<path fill-rule="evenodd" clip-rule="evenodd" fill="#C1272D" d="M452.475,194.922c-0.352-1.713-0.703-3.427-1.054-5.14
		c0.242-0.045,0.484-0.09,0.727-0.135c0.259,1.741,0.518,3.483,0.776,5.225C452.774,194.889,452.624,194.905,452.475,194.922z"/>
</g>
</svg>
