<?xml version="1.0" encoding="utf-8"?>
<!-- Generator: Adobe Illustrator 16.0.0, SVG Export Plug-In . SVG Version: 6.00 Build 0)  -->
<!DOCTYPE svg PUBLIC "-//W3C//DTD SVG 1.1//EN" "http://www.w3.org/Graphics/SVG/1.1/DTD/svg11.dtd">
<svg version="1.1" id="Layer_1" xmlns="http://www.w3.org/2000/svg" xmlns:xlink="http://www.w3.org/1999/xlink" x="0px" y="0px"
	 width="900px" height="650px" viewBox="0 0 900 650" enable-background="new 0 0 900 650" xml:space="preserve">
<rect fill="#FFF1B9" width="900" height="650"/>
<linearGradient id="SVGID_1_" gradientUnits="userSpaceOnUse" x1="431.0742" y1="512.7188" x2="431.0742" y2="223.4942">
	<stop  offset="0.0296" style="stop-color:#C6A941"/>
	<stop  offset="0.3" style="stop-color:#C6A941;stop-opacity:0.4"/>
	<stop  offset="0.6811" style="stop-color:#C6A941;stop-opacity:0.9152"/>
	<stop  offset="0.7438" style="stop-color:#C6A941"/>
	<stop  offset="0.9638" style="stop-color:#C6A941;stop-opacity:0.5707"/>
	<stop  offset="1" style="stop-color:#C6A941;stop-opacity:0.5"/>
</linearGradient>
<path fill="url(#SVGID_1_)" d="M273.403,215.085c0,0,17.045,0,17.045,17.045s0,72.443,0,72.443h51.137v72.444
	c0,0,0,59.659,59.659,59.659c38.353,0,38.353,38.353,38.353,38.353v68.182h149.148v-76.705c0,0,0-38.353-38.353-38.353
	c-63.921,0-63.921-63.92-63.921-63.92v-59.66h-46.875c0,0,0-55.398,0-72.443s-17.046-17.045-17.046-17.045H273.403z"/>
<g opacity="0.5">
	
		<rect x="446.354" y="422.128" transform="matrix(-0.7071 0.7071 -0.7071 -0.7071 1075.012 410.9871)" fill="#FFFFFF" width="12.053" height="12.053"/>
	
		<rect x="446.355" y="396.559" transform="matrix(-0.7071 0.7071 -0.7071 -0.7071 1056.9333 367.3748)" fill="#FFFFFF" width="12.053" height="12.053"/>
	
		<rect x="480.445" y="422.128" transform="matrix(-0.7071 0.7071 -0.7071 -0.7071 1133.2073 386.8798)" fill="#FFFFFF" width="12.053" height="12.053"/>
	
		<rect x="480.445" y="396.559" transform="matrix(-0.7071 0.7071 -0.7071 -0.7071 1115.13 343.2689)" fill="#FFFFFF" width="12.053" height="12.053"/>
	
		<rect x="463.399" y="409.343" transform="matrix(-0.7071 0.7071 -0.7071 -0.7071 1095.0706 377.1461)" fill="#FFFFFF" width="12.054" height="12.053"/>
	
		<rect x="463.399" y="434.911" transform="matrix(-0.7071 0.7071 -0.7071 -0.7071 1113.1501 420.7941)" fill="#FFFFFF" width="12.054" height="12.053"/>
	
		<rect x="463.399" y="383.774" transform="matrix(-0.7071 0.7071 -0.7071 -0.7071 1076.9943 333.533)" fill="#FFFFFF" width="12.053" height="12.054"/>
	
		<rect x="497.491" y="434.912" transform="matrix(-0.7071 0.7071 -0.7071 -0.7071 1171.3459 396.6493)" fill="#FFFFFF" width="12.053" height="12.053"/>
	
		<rect x="497.491" y="409.343" transform="matrix(-0.7071 0.7071 -0.7071 -0.7071 1153.2654 353.0024)" fill="#FFFFFF" width="12.053" height="12.053"/>
	
		<rect x="531.582" y="434.912" transform="matrix(-0.7071 0.7071 -0.7071 -0.7071 1229.5413 372.5421)" fill="#FFFFFF" width="12.053" height="12.053"/>
	
		<rect x="565.673" y="434.912" transform="matrix(-0.7071 0.7071 -0.7071 -0.7071 1287.7366 348.4349)" fill="#FFFFFF" width="12.053" height="12.053"/>
	
		<rect x="514.536" y="422.127" transform="matrix(-0.7071 0.7071 -0.7071 -0.7071 1191.4062 362.811)" fill="#FFFFFF" width="12.054" height="12.053"/>
	
		<rect x="548.626" y="422.127" transform="matrix(-0.7071 0.7071 -0.7071 -0.7071 1249.6029 338.7051)" fill="#FFFFFF" width="12.054" height="12.053"/>
	
		<rect x="514.536" y="447.696" transform="matrix(-0.7071 0.7071 -0.7071 -0.7071 1209.4858 406.4589)" fill="#FFFFFF" width="12.054" height="12.053"/>
	
		<rect x="531.582" y="460.48" transform="matrix(-0.7071 0.7071 -0.7071 -0.7071 1247.6218 416.189)" fill="#FFFFFF" width="12.053" height="12.053"/>
	
		<rect x="514.536" y="473.264" transform="matrix(-0.7071 0.7071 -0.7071 -0.7071 1227.5653 450.1068)" fill="#FFFFFF" width="12.054" height="12.053"/>
	
		<rect x="548.626" y="473.264" transform="matrix(-0.7071 0.7071 -0.7071 -0.7071 1285.762 426.001)" fill="#FFFFFF" width="12.054" height="12.053"/>
	
		<rect x="548.626" y="447.696" transform="matrix(-0.7071 0.7071 -0.7071 -0.7071 1267.6825 382.3531)" fill="#FFFFFF" width="12.054" height="12.053"/>
	
		<rect x="582.719" y="447.696" transform="matrix(-0.7071 0.7071 -0.7071 -0.7071 1325.8754 358.2043)" fill="#FFFFFF" width="12.053" height="12.053"/>
	
		<rect x="531.582" y="486.048" transform="matrix(-0.7071 0.7071 -0.7071 -0.7071 1265.7024 459.8358)" fill="#FFFFFF" width="12.053" height="12.053"/>
	
		<rect x="565.673" y="486.048" transform="matrix(-0.7071 0.7071 -0.7071 -0.7071 1323.8977 435.7286)" fill="#FFFFFF" width="12.053" height="12.053"/>
	
		<rect x="565.673" y="460.48" transform="matrix(-0.7071 0.7071 -0.7071 -0.7071 1305.8171 392.0818)" fill="#FFFFFF" width="12.053" height="12.053"/>
	
		<rect x="463.399" y="486.048" transform="matrix(-0.7071 0.7071 -0.7071 -0.7071 1149.3093 508.0899)" fill="#FFFFFF" width="12.054" height="12.053"/>
	
		<rect x="463.399" y="460.48" transform="matrix(-0.7071 0.7071 -0.7071 -0.7071 1131.2297 464.442)" fill="#FFFFFF" width="12.054" height="12.053"/>
	
		<rect x="497.491" y="486.048" transform="matrix(-0.7071 0.7071 -0.7071 -0.7071 1207.5072 483.9431)" fill="#FFFFFF" width="12.053" height="12.053"/>
	
		<rect x="497.491" y="460.48" transform="matrix(-0.7071 0.7071 -0.7071 -0.7071 1189.4265 440.2962)" fill="#FFFFFF" width="12.053" height="12.053"/>
	
		<rect x="480.445" y="473.264" transform="matrix(-0.7071 0.7071 -0.7071 -0.7071 1169.3684 474.1736)" fill="#FFFFFF" width="12.053" height="12.053"/>
	
		<rect x="480.445" y="447.696" transform="matrix(-0.7071 0.7071 -0.7071 -0.7071 1151.2878 430.5267)" fill="#FFFFFF" width="12.053" height="12.053"/>
	
		<rect x="446.354" y="473.264" transform="matrix(-0.7071 0.7071 -0.7071 -0.7071 1111.1731 498.2808)" fill="#FFFFFF" width="12.053" height="12.053"/>
	
		<rect x="446.354" y="447.696" transform="matrix(-0.7071 0.7071 -0.7071 -0.7071 1093.0925 454.6339)" fill="#FFFFFF" width="12.053" height="12.053"/>
	
		<rect x="429.308" y="460.48" transform="matrix(-0.7071 0.7071 -0.7071 -0.7071 1073.0337 488.5296)" fill="#FFFFFF" width="12.054" height="12.053"/>
	
		<rect x="429.308" y="486.048" transform="matrix(-0.7071 0.7071 -0.7071 -0.7071 1091.1138 532.177)" fill="#FFFFFF" width="12.054" height="12.053"/>
	
		<rect x="429.308" y="434.912" transform="matrix(-0.7071 0.7071 -0.7071 -0.7071 1054.9536 444.8822)" fill="#FFFFFF" width="12.054" height="12.053"/>
	
		<rect x="429.309" y="358.206" transform="matrix(-0.7071 0.7071 -0.7071 -0.7071 1000.7163 313.9724)" fill="#FFFFFF" width="12.053" height="12.054"/>
	
		<rect x="463.399" y="358.206" transform="matrix(-0.7071 0.7071 -0.7071 -0.7071 1058.9158 289.884)" fill="#FFFFFF" width="12.053" height="12.054"/>
	
		<rect x="446.355" y="370.99" transform="matrix(-0.7071 0.7071 -0.7071 -0.7071 1038.8538 323.7269)" fill="#FFFFFF" width="12.053" height="12.053"/>
	
		<rect x="395.217" y="409.343" transform="matrix(-0.7071 0.7071 -0.7071 -0.7071 978.6776 425.3413)" fill="#FFFFFF" width="12.054" height="12.053"/>
	
		<rect x="395.218" y="383.774" transform="matrix(-0.7071 0.7071 -0.7071 -0.7071 960.598 381.7259)" fill="#FFFFFF" width="12.053" height="12.054"/>
	
		<rect x="378.172" y="396.559" transform="matrix(-0.7071 0.7071 -0.7071 -0.7071 940.5392 415.5868)" fill="#FFFFFF" width="12.053" height="12.053"/>
	
		<rect x="429.308" y="409.343" transform="matrix(-0.7071 0.7071 -0.7071 -0.7071 1036.8735 401.2348)" fill="#FFFFFF" width="12.054" height="12.053"/>
	
		<rect x="429.309" y="383.774" transform="matrix(-0.7071 0.7071 -0.7071 -0.7071 1018.7953 357.6208)" fill="#FFFFFF" width="12.053" height="12.054"/>
	
		<rect x="412.263" y="396.559" transform="matrix(-0.7071 0.7071 -0.7071 -0.7071 998.7361 391.4976)" fill="#FFFFFF" width="12.053" height="12.054"/>
	
		<rect x="412.263" y="422.127" transform="matrix(-0.7071 0.7071 -0.7071 -0.7071 1016.8156 435.1118)" fill="#FFFFFF" width="12.054" height="12.053"/>
	
		<rect x="412.263" y="370.99" transform="matrix(-0.7071 0.7071 -0.7071 -0.7071 980.6571 347.8492)" fill="#FFFFFF" width="12.053" height="12.054"/>
	
		<rect x="395.218" y="358.206" transform="matrix(-0.7071 0.7071 -0.7071 -0.7071 942.5189 338.0775)" fill="#FFFFFF" width="12.053" height="12.054"/>
	
		<rect x="378.172" y="370.99" transform="matrix(-0.7071 0.7071 -0.7071 -0.7071 922.4596 371.9389)" fill="#FFFFFF" width="12.053" height="12.053"/>
	
		<rect x="480.445" y="370.99" transform="matrix(-0.7071 0.7071 -0.7071 -0.7071 1097.0504 299.621)" fill="#FFFFFF" width="12.053" height="12.053"/>
	<polygon fill="#FFFFFF" points="486.472,359.972 486.472,342.926 477.949,351.449 	"/>
</g>
<g opacity="0.5">
	
		<rect x="344.081" y="319.854" transform="matrix(-0.7071 0.7071 -0.7071 -0.7071 828.1036 308.7634)" fill="#FFFFFF" width="12.053" height="12.053"/>
	
		<rect x="378.172" y="319.854" transform="matrix(-0.7071 0.7071 -0.7071 -0.7071 886.3007 284.6435)" fill="#FFFFFF" width="12.053" height="12.053"/>
	
		<rect x="361.127" y="307.07" transform="matrix(-0.7071 0.7071 -0.7071 -0.7071 848.1625 274.8724)" fill="#FFFFFF" width="12.053" height="12.053"/>
	
		<rect x="361.127" y="332.638" transform="matrix(-0.7071 0.7071 -0.7071 -0.7071 866.2419 318.52)" fill="#FFFFFF" width="12.053" height="12.053"/>
	
		<rect x="361.127" y="281.502" transform="matrix(-0.7071 0.7071 -0.7071 -0.7071 830.083 231.2245)" fill="#FFFFFF" width="12.053" height="12.053"/>
	
		<rect x="395.218" y="332.638" transform="matrix(-0.7071 0.7071 -0.7071 -0.7071 924.4399 294.4291)" fill="#FFFFFF" width="12.053" height="12.054"/>
	
		<rect x="395.218" y="307.07" transform="matrix(-0.7071 0.7071 -0.7071 -0.7071 906.361 250.781)" fill="#FFFFFF" width="12.053" height="12.053"/>
	
		<rect x="429.309" y="307.07" transform="matrix(-0.7071 0.7071 -0.7071 -0.7071 964.5583 226.6759)" fill="#FFFFFF" width="12.053" height="12.053"/>
	
		<rect x="429.309" y="332.638" transform="matrix(-0.7071 0.7071 -0.7071 -0.7071 982.6372 270.3239)" fill="#FFFFFF" width="12.053" height="12.054"/>
	
		<rect x="463.399" y="307.07" transform="matrix(-0.7071 0.7071 -0.7071 -0.7071 1022.7589 202.5865)" fill="#FFFFFF" width="12.053" height="12.054"/>
	
		<rect x="463.399" y="332.638" transform="matrix(-0.7071 0.7071 -0.7071 -0.7071 1040.8372 246.2351)" fill="#FFFFFF" width="12.053" height="12.054"/>
	
		<rect x="446.355" y="319.854" transform="matrix(-0.7071 0.7071 -0.7071 -0.7071 1002.6948 236.4314)" fill="#FFFFFF" width="12.053" height="12.053"/>
	<polygon fill="#FFFFFF" points="486.472,334.403 486.472,317.358 477.949,325.881 	"/>
	
		<rect x="412.263" y="319.854" transform="matrix(-0.7071 0.7071 -0.7071 -0.7071 944.4992 260.5527)" fill="#FFFFFF" width="12.053" height="12.053"/>
	
		<rect x="412.263" y="345.422" transform="matrix(-0.7071 0.7071 -0.7071 -0.7071 962.5781 304.2007)" fill="#FFFFFF" width="12.053" height="12.054"/>
	
		<rect x="429.309" y="358.206" transform="matrix(-0.7071 0.7071 -0.7071 -0.7071 1000.7163 313.9724)" fill="#FFFFFF" width="12.053" height="12.054"/>
	
		<rect x="446.355" y="370.99" transform="matrix(-0.7071 0.7071 -0.7071 -0.7071 1038.8538 323.7269)" fill="#FFFFFF" width="12.053" height="12.053"/>
	
		<rect x="429.309" y="383.774" transform="matrix(-0.7071 0.7071 -0.7071 -0.7071 1018.7953 357.6208)" fill="#FFFFFF" width="12.053" height="12.054"/>
	
		<rect x="463.399" y="383.774" transform="matrix(-0.7071 0.7071 -0.7071 -0.7071 1076.9943 333.533)" fill="#FFFFFF" width="12.053" height="12.054"/>
	
		<rect x="463.399" y="358.206" transform="matrix(-0.7071 0.7071 -0.7071 -0.7071 1058.9158 289.884)" fill="#FFFFFF" width="12.053" height="12.054"/>
	<polygon fill="#FFFFFF" points="486.472,308.835 486.472,291.79 477.949,300.312 	"/>
	
		<rect x="446.355" y="345.422" transform="matrix(-0.7071 0.7071 -0.7071 -0.7071 1020.7742 280.0789)" fill="#FFFFFF" width="12.053" height="12.053"/>
	
		<rect x="361.127" y="383.775" transform="matrix(-0.7071 0.7071 -0.7071 -0.7071 902.401 405.8158)" fill="#FFFFFF" width="12.053" height="12.053"/>
	
		<rect x="361.127" y="409.343" transform="matrix(-0.7071 0.7071 -0.7071 -0.7071 920.4825 449.432)" fill="#FFFFFF" width="12.053" height="12.053"/>
	
		<rect x="361.127" y="358.206" transform="matrix(-0.7071 0.7071 -0.7071 -0.7071 884.3215 362.1678)" fill="#FFFFFF" width="12.053" height="12.053"/>
	
		<rect x="378.172" y="422.128" transform="matrix(-0.7071 0.7071 -0.7071 -0.7071 958.6205 459.2019)" fill="#FFFFFF" width="12.053" height="12.053"/>
	
		<rect x="344.081" y="396.559" transform="matrix(-0.7071 0.7071 -0.7071 -0.7071 882.3406 439.7083)" fill="#FFFFFF" width="12.053" height="12.054"/>
	
		<rect x="378.172" y="345.422" transform="matrix(-0.7071 0.7071 -0.7071 -0.7071 904.38 328.291)" fill="#FFFFFF" width="12.053" height="12.053"/>
	
		<rect x="344.081" y="370.99" transform="matrix(-0.7071 0.7071 -0.7071 -0.7071 864.2615 396.0598)" fill="#FFFFFF" width="12.053" height="12.054"/>
	
		<rect x="344.081" y="345.422" transform="matrix(-0.7071 0.7071 -0.7071 -0.7071 846.1825 352.4114)" fill="#FFFFFF" width="12.053" height="12.054"/>
	
		<rect x="327.036" y="358.206" transform="matrix(-0.7071 0.7071 -0.7071 -0.7071 826.1234 386.2881)" fill="#FFFFFF" width="12.053" height="12.054"/>
	
		<rect x="327.036" y="332.638" transform="matrix(-0.7071 0.7071 -0.7071 -0.7071 808.0443 342.6397)" fill="#FFFFFF" width="12.053" height="12.054"/>
	
		<rect x="327.035" y="255.934" transform="matrix(-0.7071 0.7071 -0.7071 -0.7071 753.8063 211.6836)" fill="#FFFFFF" width="12.053" height="12.053"/>
	
		<rect x="327.035" y="230.365" transform="matrix(-0.7071 0.7071 -0.7071 -0.7071 735.7267 168.0357)" fill="#FFFFFF" width="12.053" height="12.053"/>
	
		<rect x="361.127" y="255.934" transform="matrix(-0.7071 0.7071 -0.7071 -0.7071 812.0016 187.5647)" fill="#FFFFFF" width="12.053" height="12.053"/>
	
		<rect x="361.127" y="230.366" transform="matrix(-0.7071 0.7071 -0.7071 -0.7071 793.9216 143.9173)" fill="#FFFFFF" width="12.053" height="12.053"/>
	
		<rect x="344.081" y="243.15" transform="matrix(-0.7071 0.7071 -0.7071 -0.7071 773.8648 177.8068)" fill="#FFFFFF" width="12.053" height="12.053"/>
	
		<rect x="344.081" y="268.717" transform="matrix(-0.7071 0.7071 -0.7071 -0.7071 791.9442 221.4543)" fill="#FFFFFF" width="12.053" height="12.053"/>
	
		<rect x="327.036" y="307.07" transform="matrix(-0.7071 0.7071 -0.7071 -0.7071 789.9655 298.9917)" fill="#FFFFFF" width="12.053" height="12.053"/>
	
		<rect x="327.036" y="281.501" transform="matrix(-0.7071 0.7071 -0.7071 -0.7071 771.8864 255.3433)" fill="#FFFFFF" width="12.053" height="12.053"/>
	
		<rect x="309.99" y="268.718" transform="matrix(-0.7071 0.7071 -0.7071 -0.7071 733.7467 245.5481)" fill="#FFFFFF" width="12.053" height="12.053"/>
	
		<rect x="378.172" y="268.718" transform="matrix(-0.7071 0.7071 -0.7071 -0.7071 850.1395 197.3347)" fill="#FFFFFF" width="12.053" height="12.053"/>
	
		<rect x="378.172" y="243.15" transform="matrix(-0.7071 0.7071 -0.7071 -0.7071 832.0596 153.6877)" fill="#FFFFFF" width="12.053" height="12.053"/>
	
		<rect x="412.263" y="268.717" transform="matrix(-0.7071 0.7071 -0.7071 -0.7071 908.3384 173.2422)" fill="#FFFFFF" width="12.053" height="12.053"/>
	
		<rect x="412.263" y="243.15" transform="matrix(-0.7071 0.7071 -0.7071 -0.7071 890.259 129.5947)" fill="#FFFFFF" width="12.053" height="12.053"/>
	
		<rect x="395.217" y="230.365" transform="matrix(-0.7071 0.7071 -0.7071 -0.7071 852.1208 119.8237)" fill="#FFFFFF" width="12.053" height="12.053"/>
	
		<rect x="395.217" y="255.934" transform="matrix(-0.7071 0.7071 -0.7071 -0.7071 870.2004 163.4716)" fill="#FFFFFF" width="12.053" height="12.053"/>
	
		<rect x="395.218" y="281.501" transform="matrix(-0.7071 0.7071 -0.7071 -0.7071 888.282 207.1326)" fill="#FFFFFF" width="12.053" height="12.053"/>
	<polygon fill="#FFFFFF" points="418.29,308.835 422.551,304.574 414.028,304.574 	"/>
	<polygon fill="#FFFFFF" points="452.381,308.835 456.642,304.574 448.119,304.574 	"/>
	<polygon fill="#FFFFFF" points="384.199,308.835 388.46,304.574 379.938,304.574 	"/>
	<polygon fill="#FFFFFF" points="350.107,308.835 354.369,304.574 345.846,304.574 	"/>
</g>
<g opacity="0.2">
	
		<rect x="292.945" y="179.229" transform="matrix(-0.7071 0.7071 -0.7071 -0.7071 641.3709 104.8457)" fill="#FFFFFF" width="12.053" height="12.053"/>
	
		<rect x="292.945" y="204.797" transform="matrix(-0.7071 0.7071 -0.7071 -0.7071 659.4487 148.4833)" fill="#FFFFFF" width="12.053" height="12.053"/>
	
		<rect x="292.945" y="153.66" transform="matrix(-0.7071 0.7071 -0.7071 -0.7071 623.2914 61.1978)" fill="#FFFFFF" width="12.053" height="12.053"/>
	
		<rect x="275.9" y="166.444" transform="matrix(-0.7071 0.7071 -0.7071 -0.7071 603.2328 95.0747)" fill="#FFFFFF" width="12.053" height="12.053"/>
	
		<rect x="275.899" y="192.013" transform="matrix(-0.7071 0.7071 -0.7071 -0.7071 621.3107 138.7129)" fill="#FFFFFF" width="12.053" height="12.053"/>
	
		<rect x="344.081" y="192.013" transform="matrix(-0.7071 0.7071 -0.7071 -0.7071 737.7057 90.5109)" fill="#FFFFFF" width="12.053" height="12.053"/>
	
		<rect x="275.899" y="140.876" transform="matrix(-0.7071 0.7071 -0.7071 -0.7071 585.1507 51.4185)" fill="#FFFFFF" width="12.053" height="12.053"/>
	
		<rect x="258.853" y="153.66" transform="matrix(-0.7071 0.7071 -0.7071 -0.7071 565.0959 85.3126)" fill="#FFFFFF" width="12.053" height="12.053"/>
	
		<rect x="309.99" y="192.013" transform="matrix(-0.7071 0.7071 -0.7071 -0.7071 679.5067 114.6064)" fill="#FFFFFF" width="12.053" height="12.053"/>
	
		<rect x="309.99" y="166.444" transform="matrix(-0.7071 0.7071 -0.7071 -0.7071 661.4294 70.9688)" fill="#FFFFFF" width="12.053" height="12.053"/>
	
		<rect x="344.081" y="166.444" transform="matrix(-0.7071 0.7071 -0.7071 -0.7071 719.6298 46.8736)" fill="#FFFFFF" width="12.053" height="12.053"/>
	
		<rect x="361.127" y="153.66" transform="matrix(-0.7071 0.7071 -0.7071 -0.7071 739.6855 12.9857)" fill="#FFFFFF" width="12.053" height="12.053"/>
	
		<rect x="361.127" y="179.229" transform="matrix(-0.7071 0.7071 -0.7071 -0.7071 757.7651 56.6337)" fill="#FFFFFF" width="12.053" height="12.053"/>
	
		<rect x="361.127" y="204.797" transform="matrix(-0.7071 0.7071 -0.7071 -0.7071 775.8415 100.2699)" fill="#FFFFFF" width="12.053" height="12.053"/>
	
		<rect x="412.263" y="217.581" transform="matrix(-0.7071 0.7071 -0.7071 -0.7071 872.1794 85.9468)" fill="#FFFFFF" width="12.053" height="12.053"/>
	
		<rect x="429.308" y="230.365" transform="matrix(-0.7071 0.7071 -0.7071 -0.7071 910.3176 95.7178)" fill="#FFFFFF" width="12.053" height="12.053"/>
	
		<rect x="446.354" y="243.15" transform="matrix(-0.7071 0.7071 -0.7071 -0.7071 948.4524 105.4743)" fill="#FFFFFF" width="12.053" height="12.053"/>
	
		<rect x="327.036" y="179.228" transform="matrix(-0.7071 0.7071 -0.7071 -0.7071 699.5706 80.7504)" fill="#FFFFFF" width="12.053" height="12.053"/>
	
		<rect x="327.035" y="204.797" transform="matrix(-0.7071 0.7071 -0.7071 -0.7071 717.6471 124.3878)" fill="#FFFFFF" width="12.053" height="12.053"/>
	
		<rect x="361.127" y="230.366" transform="matrix(-0.7071 0.7071 -0.7071 -0.7071 793.9216 143.9173)" fill="#FFFFFF" width="12.053" height="12.053"/>
	
		<rect x="344.081" y="243.15" transform="matrix(-0.7071 0.7071 -0.7071 -0.7071 773.8648 177.8068)" fill="#FFFFFF" width="12.053" height="12.053"/>
	
		<rect x="309.99" y="243.15" transform="matrix(-0.7071 0.7071 -0.7071 -0.7071 715.6668 201.9012)" fill="#FFFFFF" width="12.053" height="12.053"/>
	
		<rect x="378.172" y="243.15" transform="matrix(-0.7071 0.7071 -0.7071 -0.7071 832.0596 153.6877)" fill="#FFFFFF" width="12.053" height="12.053"/>
	
		<rect x="378.172" y="217.581" transform="matrix(-0.7071 0.7071 -0.7071 -0.7071 813.9795 110.0403)" fill="#FFFFFF" width="12.053" height="12.053"/>
	
		<rect x="327.036" y="153.66" transform="matrix(-0.7071 0.7071 -0.7071 -0.7071 681.4915 37.1019)" fill="#FFFFFF" width="12.053" height="12.053"/>
	
		<rect x="292.945" y="281.502" transform="matrix(-0.7071 0.7071 -0.7071 -0.7071 713.6888 279.4366)" fill="#FFFFFF" width="12.053" height="12.053"/>
	
		<rect x="275.899" y="217.581" transform="matrix(-0.7071 0.7071 -0.7071 -0.7071 639.3907 182.3603)" fill="#FFFFFF" width="12.053" height="12.053"/>
	
		<rect x="309.99" y="217.581" transform="matrix(-0.7071 0.7071 -0.7071 -0.7071 697.5867 158.2538)" fill="#FFFFFF" width="12.053" height="12.053"/>
	
		<rect x="344.081" y="217.581" transform="matrix(-0.7071 0.7071 -0.7071 -0.7071 755.7852 134.1588)" fill="#FFFFFF" width="12.053" height="12.053"/>
	
		<rect x="292.945" y="230.366" transform="matrix(-0.7071 0.7071 -0.7071 -0.7071 677.5287 192.1307)" fill="#FFFFFF" width="12.053" height="12.053"/>
	
		<rect x="292.945" y="255.934" transform="matrix(-0.7071 0.7071 -0.7071 -0.7071 695.6088 235.7781)" fill="#FFFFFF" width="12.053" height="12.053"/>
	
		<rect x="258.853" y="128.092" transform="matrix(-0.7071 0.7071 -0.7071 -0.7071 547.0144 41.6565)" fill="#FFFFFF" width="12.053" height="12.053"/>
	
		<rect x="224.763" y="128.092" transform="matrix(-0.7071 0.7071 -0.7071 -0.7071 488.8159 65.755)" fill="#FFFFFF" width="12.053" height="12.053"/>
	
		<rect x="275.899" y="115.308" transform="matrix(-0.7071 0.7071 -0.7071 -0.7071 567.0706 7.7711)" fill="#FFFFFF" width="12.053" height="12.053"/>
	
		<rect x="292.945" y="102.524" transform="matrix(-0.7071 0.7071 -0.7071 -0.7071 587.1287 -26.1055)" fill="#FFFFFF" width="12.053" height="12.053"/>
	
		<rect x="241.808" y="166.444" transform="matrix(-0.7071 0.7071 -0.7071 -0.7071 545.0368 119.1894)" fill="#FFFFFF" width="12.053" height="12.053"/>
	
		<rect x="241.808" y="140.876" transform="matrix(-0.7071 0.7071 -0.7071 -0.7071 526.9559 75.5334)" fill="#FFFFFF" width="12.053" height="12.053"/>
	
		<rect x="207.717" y="140.876" transform="matrix(-0.7071 0.7071 -0.7071 -0.7071 468.7579 99.6319)" fill="#FFFFFF" width="12.053" height="12.053"/>
	
		<rect x="224.763" y="153.66" transform="matrix(-0.7071 0.7071 -0.7071 -0.7071 506.8972 109.4099)" fill="#FFFFFF" width="12.053" height="12.053"/>
	
		<rect x="292.945" y="128.092" transform="matrix(-0.7071 0.7071 -0.7071 -0.7071 605.2086 17.5415)" fill="#FFFFFF" width="12.053" height="12.053"/>
	
		<rect x="327.035" y="128.092" transform="matrix(-0.7071 0.7071 -0.7071 -0.7071 663.4086 -6.5555)" fill="#FFFFFF" width="12.053" height="12.053"/>
	
		<rect x="309.99" y="115.308" transform="matrix(-0.7071 0.7071 -0.7071 -0.7071 625.2666 -16.3354)" fill="#FFFFFF" width="12.053" height="12.053"/>
	
		<rect x="309.99" y="140.876" transform="matrix(-0.7071 0.7071 -0.7071 -0.7071 643.3467 27.312)" fill="#FFFFFF" width="12.053" height="12.053"/>
	<polygon fill="#FFFFFF" points="320.278,304.574 324.539,300.312 316.017,291.79 307.494,300.312 311.755,304.574 	"/>
</g>
<linearGradient id="SVGID_2_" gradientUnits="userSpaceOnUse" x1="448.1196" y1="543.2109" x2="448.1196" y2="517.6426">
	<stop  offset="0.2" style="stop-color:#1A1A1A"/>
	<stop  offset="1" style="stop-color:#3C3C3C"/>
</linearGradient>
<polygon fill="url(#SVGID_2_)" points="588.745,517.643 307.494,517.643 294.709,521.904 294.709,538.949 307.494,543.211 
	588.745,543.211 601.529,538.949 601.529,530.427 601.529,521.904 "/>
<path fill="#C6A941" d="M580.222,551.733c-8.522,0-264.205,0-264.205,0s-8.523,0-8.523-8.522s0-25.568,0-25.568s0-8.522,8.523-8.522
	c7.39,0,255.683,0,264.205,0c8.523,0,8.523,8.522,8.523,8.522v25.568C588.745,543.211,588.745,551.733,580.222,551.733z"/>
<g opacity="0.2">
	
		<rect x="565.673" y="541.446" transform="matrix(-0.7071 0.7071 -0.7071 -0.7071 1363.0729 530.3411)" opacity="0.5" fill="#FFFFFF" width="12.053" height="12.053"/>
	<polygon fill="#FFFFFF" points="588.745,543.211 588.745,526.165 580.222,534.688 	"/>
	
		<rect x="548.627" y="503.093" transform="matrix(-0.7071 0.7071 -0.7071 -0.7071 1306.8566 476.9663)" fill="#FFFFFF" width="12.053" height="12.053"/>
	
		<rect x="514.536" y="503.093" transform="matrix(-0.7071 0.7071 -0.7071 -0.7071 1248.6586 501.0708)" fill="#FFFFFF" width="12.053" height="12.053"/>
	<polygon fill="#FFFFFF" points="588.745,517.643 588.745,500.598 580.222,509.12 	"/>
	
		<rect x="565.673" y="515.877" transform="matrix(-0.7071 0.7071 -0.7071 -0.7071 1344.9933 486.6931)" fill="#FFFFFF" width="12.053" height="12.053"/>
	
		<rect x="514.536" y="528.661" transform="matrix(-0.7071 0.7071 -0.7071 -0.7071 1266.7367 544.7189)" fill="#FFFFFF" width="12.053" height="12.054"/>
	
		<rect x="548.627" y="528.661" transform="matrix(-0.7071 0.7071 -0.7071 -0.7071 1324.9347 520.6145)" fill="#FFFFFF" width="12.053" height="12.054"/>
	
		<rect x="531.582" y="541.446" transform="matrix(-0.7071 0.7071 -0.7071 -0.7071 1304.8762 554.4469)" opacity="0.5" fill="#FFFFFF" width="12.053" height="12.053"/>
	
		<rect x="497.491" y="541.446" transform="matrix(-0.7071 0.7071 -0.7071 -0.7071 1246.6796 578.5527)" opacity="0.5" fill="#FFFFFF" width="12.053" height="12.053"/>
	
		<rect x="531.582" y="515.877" transform="matrix(-0.7071 0.7071 -0.7071 -0.7071 1286.7966 510.799)" fill="#FFFFFF" width="12.053" height="12.053"/>
	
		<rect x="497.491" y="515.877" transform="matrix(-0.7071 0.7071 -0.7071 -0.7071 1228.6 534.9048)" fill="#FFFFFF" width="12.053" height="12.053"/>
	
		<rect x="361.127" y="541.446" transform="matrix(-0.7071 0.7071 -0.7071 -0.7071 1013.8912 674.9768)" opacity="0.5" fill="#FFFFFF" width="12.053" height="12.053"/>
	
		<rect x="395.218" y="541.445" transform="matrix(-0.7071 0.7071 -0.7071 -0.7071 1072.085 650.8902)" opacity="0.5" fill="#FFFFFF" width="12.053" height="12.054"/>
	
		<rect x="378.172" y="528.661" transform="matrix(-0.7071 0.7071 -0.7071 -0.7071 1033.9497 641.1)" fill="#FFFFFF" width="12.053" height="12.053"/>
	
		<rect x="463.399" y="541.445" transform="matrix(-0.7071 0.7071 -0.7071 -0.7071 1188.478 602.7004)" opacity="0.5" fill="#FFFFFF" width="12.053" height="12.054"/>
	
		<rect x="429.309" y="541.445" transform="matrix(-0.7071 0.7071 -0.7071 -0.7071 1130.2822 626.785)" opacity="0.5" fill="#FFFFFF" width="12.053" height="12.054"/>
	<polygon fill="#FFFFFF" points="350.107,517.643 358.63,509.12 341.585,509.12 	"/>
	<polygon fill="#FFFFFF" points="316.017,517.643 324.539,509.12 307.494,509.12 	"/>
	<polygon fill="#FFFFFF" points="384.199,517.643 392.721,509.12 375.676,509.12 	"/>
	
		<rect x="361.127" y="515.877" transform="matrix(-0.7071 0.7071 -0.7071 -0.7071 995.8116 631.3289)" fill="#FFFFFF" width="12.053" height="12.053"/>
	
		<rect x="309.99" y="528.661" transform="matrix(-0.7071 0.7071 -0.7071 -0.7071 917.5555 689.312)" opacity="0.5" fill="#FFFFFF" width="12.053" height="12.053"/>
	
		<rect x="344.081" y="528.661" transform="matrix(-0.7071 0.7071 -0.7071 -0.7071 975.7485 665.2241)" fill="#FFFFFF" width="12.053" height="12.054"/>
	
		<rect x="327.036" y="541.445" transform="matrix(-0.7071 0.7071 -0.7071 -0.7071 955.6893 699.1009)" opacity="0.5" fill="#FFFFFF" width="12.053" height="12.054"/>
	
		<rect x="327.036" y="515.877" transform="matrix(-0.7071 0.7071 -0.7071 -0.7071 937.6104 655.4525)" opacity="0.5" fill="#FFFFFF" width="12.053" height="12.054"/>
	
		<rect x="395.218" y="515.877" transform="matrix(-0.7071 0.7071 -0.7071 -0.7071 1054.0059 607.2418)" fill="#FFFFFF" width="12.053" height="12.054"/>
	
		<rect x="429.309" y="515.877" transform="matrix(-0.7071 0.7071 -0.7071 -0.7071 1112.2032 583.1366)" fill="#FFFFFF" width="12.053" height="12.054"/>
	
		<rect x="463.399" y="515.877" transform="matrix(-0.7071 0.7071 -0.7071 -0.7071 1170.3995 559.0515)" fill="#FFFFFF" width="12.053" height="12.054"/>
	<polygon fill="#FFFFFF" points="418.29,517.643 426.812,509.12 409.767,509.12 	"/>
	
		<rect x="446.355" y="503.094" transform="matrix(-0.7071 0.7071 -0.7071 -0.7071 1132.2646 549.2408)" fill="#FFFFFF" width="12.053" height="12.053"/>
	
		<rect x="480.445" y="503.094" transform="matrix(-0.7071 0.7071 -0.7071 -0.7071 1190.4614 525.135)" fill="#FFFFFF" width="12.053" height="12.053"/>
	
		<rect x="412.263" y="528.661" transform="matrix(-0.7071 0.7071 -0.7071 -0.7071 1092.144 617.0134)" fill="#FFFFFF" width="12.053" height="12.054"/>
	
		<rect x="446.355" y="528.661" transform="matrix(-0.7071 0.7071 -0.7071 -0.7071 1150.3439 592.8879)" fill="#FFFFFF" width="12.053" height="12.053"/>
	
		<rect x="480.445" y="528.661" transform="matrix(-0.7071 0.7071 -0.7071 -0.7071 1208.5405 568.782)" fill="#FFFFFF" width="12.053" height="12.053"/>
</g>
<linearGradient id="SVGID_3_" gradientUnits="userSpaceOnUse" x1="465.0469" y1="577.1836" x2="558.5604" y2="483.6701">
	<stop  offset="0.2" style="stop-color:#FFFFFF"/>
	<stop  offset="1" style="stop-color:#C6A941"/>
</linearGradient>
<path opacity="0.3" fill="url(#SVGID_3_)" d="M439.597,509.12h140.625c0,0,8.523,0,8.523,8.522s0,17.046,0,25.568
	s-8.523,8.522-8.523,8.522H439.597V509.12z"/>
<path fill="#1A1A1A" d="M575.961,95.766v25.568v51.137v25.568h-8.523l-4.261-4.261v-17.045c0,0-16.191-12.641-16.191-29.83
	c0-17.189,16.191-29.83,16.191-29.83v-17.045l4.261-4.262H575.961z"/>
<linearGradient id="SVGID_4_" gradientUnits="userSpaceOnUse" x1="561.4727" y1="95.7661" x2="561.4727" y2="169.062">
	<stop  offset="0.2" style="stop-color:#3C3C3C"/>
	<stop  offset="1" style="stop-color:#1A1A1A"/>
</linearGradient>
<path fill="url(#SVGID_4_)" d="M575.961,134.119V108.55V95.766h-8.523l-4.261,4.262v17.045c0,0-16.191,13.493-16.191,30.682
	c0,17.189,16.191,21.307,16.191,21.307V138.38l4.261-4.261H575.961z"/>
<linearGradient id="SVGID_5_" gradientUnits="userSpaceOnUse" x1="307.2085" y1="193.7778" x2="588.7451" y2="193.7778">
	<stop  offset="0.2" style="stop-color:#1A1A1A"/>
	<stop  offset="1" style="stop-color:#3C3C3C"/>
</linearGradient>
<path fill="url(#SVGID_5_)" d="M314.737,91.505v115.768h16.335l1.704-1.563l3.125-3.409c0,0-1.562-27.415,6.96-37.357
	c8.523-9.944,17.472-11.649,23.012-12.643c0,0,70.737,3.977,92.614,10.512c21.876,6.534,28.128,20.881,30.542,26.277
	c2.413,5.397,5.253,15.058,2.413,28.551c-2.839,13.493-7.668,21.024-18.891,27.273c-11.224,6.249-44.733,8.523-53.977,8.523
	c-8.809,0-107.248,0-107.248,0l-4.12,8.522l8.522,33.585c0,0,264.491,1.139,264.491,0c0-1.135,8.523-33.585,8.523-33.585
	l-4.689-8.522h-8.095c0,0-25.502-19.063-33.522-47.302c-6.535-23.011-2.271-38.921-1.561-42.188c0.709-3.266,2.13-10.08,2.13-17.045
	c0-12.784-2.843-22.442-11.224-28.125c-5.587-3.787-11.35-7.812-31.815-7.812c-22.02,0-38.496,2.983-56.109,6.25
	c-17.613,3.266-37.642,4.118-47.869,4.118c-10.228,0-22.872-0.143-28.837-0.996c-5.966-0.852-14.204-3.123-20.312-8.236
	c-6.108-5.113-8.381-9.092-9.091-10.939c-0.71-1.845-0.426-5.397-0.426-5.397l-4.261-4.261H314.737z"/>
<polygon fill="#FFFFFF" points="319.992,209.119 324.254,209.119 319.992,240.653 "/>
<linearGradient id="SVGID_6_" gradientUnits="userSpaceOnUse" x1="588.7451" y1="257.6987" x2="516.3018" y2="257.6987">
	<stop  offset="0.2" style="stop-color:#666666"/>
	<stop  offset="1" style="stop-color:#333333"/>
</linearGradient>
<path opacity="0.4" fill="url(#SVGID_6_)" d="M588.745,261.96h-72.443c0,0,0-8.522,12.784-8.522c8.522,0,54.97,0,54.97,0
	L588.745,261.96z"/>
<linearGradient id="SVGID_7_" gradientUnits="userSpaceOnUse" x1="588.7451" y1="278.7524" x2="307.209" y2="278.7525">
	<stop  offset="0.2" style="stop-color:#1A1A1A"/>
	<stop  offset="1" style="stop-color:#333333"/>
</linearGradient>
<polygon fill="url(#SVGID_7_)" points="580.222,295.545 315.731,295.545 307.208,261.96 588.745,261.96 "/>
<g>
	<linearGradient id="SVGID_8_" gradientUnits="userSpaceOnUse" x1="561.0459" y1="479.29" x2="561.0459" y2="428.1533">
		<stop  offset="0.2" style="stop-color:#621607"/>
		<stop  offset="1" style="stop-color:#9E2F1F"/>
	</linearGradient>
	<path fill="url(#SVGID_8_)" d="M537.608,436.677c0,0,4.261,0,12.784,0c20.109,0,29.829,12.784,29.744,34.091
		c0,0,0.085,4.262-4.176,4.262c0,4.261,0,4.261,0,4.261h12.784l-0.063-8.522c0.063-29.83-17.712-42.614-38.289-42.614
		c-8.523,0-17.046,0-17.046,0v8.523H537.608z"/>
	<g>
		<linearGradient id="SVGID_9_" gradientUnits="userSpaceOnUse" x1="200.9595" y1="479.29" x2="200.9595" y2="325.8809">
			<stop  offset="0.2" style="stop-color:#621607"/>
			<stop  offset="1" style="stop-color:#9E2F1F"/>
		</linearGradient>
		<path fill="url(#SVGID_9_)" d="M218.005,470.768c-12.784,0-25.568,0-25.568,0v-17.046c0,0,0-115.059,0-119.318
			c0-4.262,4.261-4.262,4.261-4.262v-4.261h-34.091v4.261c0,0,4.261,0,4.261,4.262s0,132.554,0,136.364
			c0,4.262-4.261,4.262-4.261,4.262v4.261h72.443h4.261v-29.829v-4.262c0,0,0,0-4.261,0
			C235.05,462.245,230.789,470.768,218.005,470.768z"/>
		<linearGradient id="SVGID_10_" gradientUnits="userSpaceOnUse" x1="269.1411" y1="479.29" x2="269.1411" y2="325.8809">
			<stop  offset="0.2" style="stop-color:#621607"/>
			<stop  offset="1" style="stop-color:#9E2F1F"/>
		</linearGradient>
		<path fill="url(#SVGID_10_)" d="M286.187,479.29h-34.091v-4.261c0,0,4.262,0,4.262-4.262c0-3.811,0-132.103,0-136.364
			s-4.262-4.262-4.262-4.262v-4.261h34.091v4.261c0,0-4.261,0-4.261,4.262s0,132.554,0,136.364c0,4.262,4.261,4.262,4.261,4.262
			V479.29z"/>
		<linearGradient id="SVGID_11_" gradientUnits="userSpaceOnUse" x1="622.8359" y1="479.29" x2="622.8359" y2="325.8809">
			<stop  offset="0.2" style="stop-color:#621607"/>
			<stop  offset="1" style="stop-color:#9E2F1F"/>
		</linearGradient>
		<path fill="url(#SVGID_11_)" d="M639.881,479.29H605.79v-4.261c0,0,4.262,0,4.262-4.262c0-9.335,0-126.836,0-136.364
			c0-4.262-4.262-4.262-4.262-4.262v-4.261h34.091v4.261c0,0-4.261,0-4.261,4.262c0,9.528,0,127.029,0,136.364
			c0,4.262,4.261,4.262,4.261,4.262V479.29z"/>
		<linearGradient id="SVGID_12_" gradientUnits="userSpaceOnUse" x1="347.9771" y1="479.29" x2="347.9771" y2="325.8809">
			<stop  offset="0.2" style="stop-color:#621607"/>
			<stop  offset="1" style="stop-color:#9E2F1F"/>
		</linearGradient>
		<path fill="url(#SVGID_12_)" d="M350.107,436.677v8.522c0,0,12.784,0,12.784,4.262c0,4.261,0,17.045,0,17.045s0,4.262-4.261,4.262
			s-17.045,0-21.307,0c-4.261,0-4.261-4.262-4.261-4.262V338.665c0,0,0-4.262,4.261-4.262c4.262,0,29.83,0,34.091,0
			s4.261,4.262,4.261,4.262s0,8.522,0,12.784c0,4.261-4.261,4.261-4.261,4.261v4.262h12.784c0,0,0-4.262,0-8.522
			c0-4.262,0-12.784,0-12.784s0-12.784-12.784-12.784s-38.353,0-51.137,0s-12.784,12.784-12.784,12.784v127.841
			c0,0,0,12.784,12.784,12.784s55.398,0,55.398,0s0-12.784,12.784-12.784v-4.261c0,0,0-9.731,0-12.784c0-4.262,0-4.262,0-4.262
			v-8.522H350.107z"/>
		<linearGradient id="SVGID_13_" gradientUnits="userSpaceOnUse" x1="445.9888" y1="479.29" x2="445.9888" y2="325.8809">
			<stop  offset="0.2" style="stop-color:#621607"/>
			<stop  offset="1" style="stop-color:#9E2F1F"/>
		</linearGradient>
		<path fill="url(#SVGID_13_)" d="M473.688,330.142c0,0,4.262,0,4.262,4.262s0,128.299,0,132.103c0,4.262-4.262,4.262-4.262,4.262
			h-34.091c0,0-4.262,0-4.262-4.262c0-3.804,0-127.841,0-132.103s4.262-4.262,4.262-4.262v-4.261h-34.091v4.261
			c0,0,4.262-0.001,4.262,4.262c0,4.262,0,132.103,0,132.103s0,12.784,12.784,12.784c12.784,0,38.353,0,51.137,0
			s12.784-12.784,12.784-12.784s0-127.843,0-132.103c0-4.262,0-4.262,0-4.262v-4.261h-12.784V330.142z"/>
		<linearGradient id="SVGID_14_" gradientUnits="userSpaceOnUse" x1="548.2617" y1="479.29" x2="548.2617" y2="325.8809">
			<stop  offset="0.2" style="stop-color:#621607"/>
			<stop  offset="1" style="stop-color:#9E2F1F"/>
		</linearGradient>
		<path fill="url(#SVGID_14_)" d="M588.745,381.278c0-42.613-17.046-55.397-38.353-55.397c-8.523,0-42.614,0-42.614,0v4.261
			c0,0,4.262-0.001,4.262,4.262c0,3.811,0,132.103,0,136.364s-4.262,4.262-4.262,4.262v4.261h34.091v-4.261c0,0-4.261,0-4.261-4.262
			c0-3.256,0-25.568,0-29.83c0-4.261,4.261-4.261,4.261-4.261s0,0,8.523,0C567.438,436.677,588.745,423.893,588.745,381.278z
			 M550.393,428.153c-8.523,0-8.523,0-8.523,0s-4.261,0-4.261-4.261c0-4.262,0-68.183,0-68.183v-21.307c0,0,4.261,0,12.784,0
			c21.307,0,29.829,21.307,29.829,46.875S571.699,428.153,550.393,428.153z"/>
		<linearGradient id="SVGID_15_" gradientUnits="userSpaceOnUse" x1="697.4102" y1="479.29" x2="697.4102" y2="325.8809">
			<stop  offset="0.2" style="stop-color:#621607"/>
			<stop  offset="1" style="stop-color:#9E2F1F"/>
		</linearGradient>
		<path fill="url(#SVGID_15_)" d="M716.586,325.881c-21.307,0-59.659,0-59.659,0v4.261c0,0,4.262,0,4.262,4.262
			c0,9.335,0,126.836,0,136.364c0,4.262-4.262,4.262-4.262,4.262v4.261h34.091v-4.261c0,0-4.261,0-4.261-4.262s0-29.83,0-29.83
			s0-4.261,4.261-4.261c4.262,0,21.308,0,29.83,0c4.261,0,4.261,4.261,4.261,4.261s0,25.568,0,29.83s-4.261,4.262-4.261,4.262v4.261
			h17.045v-4.261c0,0-4.261,0-4.261-4.262c0-9.528,0-8.217,0-127.842C733.632,342.926,733.632,325.881,716.586,325.881z
			 M725.108,423.893c0,0,0,4.261-4.261,4.261c-4.262,0-25.568,0-29.83,0c-4.261,0-4.261-4.261-4.261-4.261v-76.705v-12.784
			c0,0,21.307,0,29.829,0s8.522,8.522,8.522,8.522V423.893z"/>
	</g>
</g>
</svg>
