<?xml version="1.0" encoding="utf-8"?>
<!-- Generator: Adobe Illustrator 16.0.0, SVG Export Plug-In . SVG Version: 6.00 Build 0)  -->
<!DOCTYPE svg PUBLIC "-//W3C//DTD SVG 1.1//EN" "http://www.w3.org/Graphics/SVG/1.1/DTD/svg11.dtd">
<svg version="1.1" id="Layer_1" xmlns="http://www.w3.org/2000/svg" xmlns:xlink="http://www.w3.org/1999/xlink" x="0px" y="0px"
	 width="1140px" height="650px" viewBox="0 0 1140 650" enable-background="new 0 0 1140 650" xml:space="preserve">
<rect x="-8.992" y="-15.662" fill="#0082FF" width="1165.759" height="674.609"/>
<g>
	<g>
		<path fill="#FFFFFF" d="M179.204,426.577c-19.613,0-38.049-7.637-51.917-21.504c-28.625-28.626-28.625-75.203,0-103.829
			l9.438,9.438c-23.419,23.422-23.419,61.531,0,84.951c11.348,11.347,26.433,17.594,42.479,17.594
			c16.045,0,31.128-6.247,42.474-17.594l9.44,9.439C217.251,418.94,198.814,426.577,179.204,426.577z"/>
		<path fill="#FFFFFF" d="M143.019,389.343c-19.952-19.951-19.952-52.416,0-72.368c19.949-19.952,52.416-19.952,72.365,0
			l-9.438,9.438c-14.748-14.746-38.741-14.746-53.49,0c-14.745,14.748-14.745,38.742,0,53.492L143.019,389.343z"/>
		<path fill="#FFFFFF" d="M199.657,373.61l-9.44-9.438c6.07-6.073,6.07-15.952,0-22.024c-6.072-6.07-15.953-6.07-22.026,0
			l-9.438-9.438c11.276-11.278,29.627-11.278,40.903,0C210.931,343.983,210.931,362.333,199.657,373.61z"/>
	</g>
	<g>
		<path fill="#FFFFFF" d="M107.818,464.673h16.945c6.509,0,11.481,1.814,14.925,5.443c3.439,3.629,5.161,8.697,5.161,15.205v37.367
			c0,7.48-1.815,13-5.442,16.551c-3.629,3.555-8.847,5.332-15.653,5.332h-15.936V464.673z M119.264,533.798h5.273
			c3.216,0,5.498-0.803,6.845-2.412c1.348-1.607,2.021-4.133,2.021-7.576v-38.488c0-3.143-0.636-5.572-1.907-7.295
			c-1.272-1.721-3.591-2.58-6.958-2.58h-5.273V533.798z"/>
		<path fill="#FFFFFF" d="M158.023,464.673h34.115v10.773h-22.669v23.453h19.749v10.773h-19.749v23.451h22.669v11.447h-34.115
			V464.673z"/>
		<path fill="#FFFFFF" d="M205.935,464.673h10.998l17.28,48.141h0.224v-48.141h11.445v79.898h-10.771l-17.507-48.029h-0.225v48.029
			h-11.445V464.673z"/>
		<path fill="#FFFFFF" d="M297.402,485.396h-11.446v-0.299c0-2.617-0.616-4.881-1.852-6.789c-1.234-1.908-3.31-2.861-6.227-2.861
			c-1.572,0-2.863,0.299-3.872,0.898c-1.01,0.598-1.797,1.365-2.357,2.299c-0.561,0.936-0.952,2.02-1.178,3.256
			c-0.225,1.232-0.337,2.523-0.337,3.869c0,1.572,0.056,2.902,0.17,3.984c0.11,1.086,0.393,2.02,0.841,2.807
			c0.448,0.785,1.103,1.477,1.964,2.076c0.858,0.6,2.038,1.197,3.534,1.795l8.753,3.479c2.541,0.973,4.601,2.113,6.171,3.422
			c1.571,1.311,2.788,2.844,3.648,4.602c0.858,1.758,1.439,3.777,1.739,6.059c0.297,2.283,0.448,4.883,0.448,7.801
			c0,3.365-0.336,6.49-1.009,9.369c-0.675,2.881-1.778,5.35-3.312,7.406c-1.533,2.059-3.572,3.686-6.115,4.881
			c-2.545,1.195-5.649,1.795-9.313,1.795c-2.771,0-5.351-0.486-7.744-1.459c-2.394-0.971-4.451-2.299-6.171-3.982
			c-1.723-1.684-3.087-3.684-4.096-6.004c-1.01-2.318-1.516-4.826-1.516-7.518v-1.982h11.445v1.307c0,2.096,0.617,3.986,1.853,5.67
			c1.234,1.682,3.31,2.523,6.229,2.523c1.943,0,3.459-0.279,4.544-0.842c1.083-0.561,1.907-1.346,2.47-2.357
			c0.56-1.008,0.915-2.262,1.065-3.758c0.148-1.496,0.224-3.143,0.224-4.938c0-2.094-0.075-3.814-0.224-5.162
			c-0.15-1.346-0.468-2.43-0.955-3.254c-0.487-0.822-1.16-1.496-2.019-2.02c-0.861-0.523-2.004-1.084-3.422-1.684l-8.192-3.367
			c-4.938-2.02-8.249-4.693-9.932-8.023c-1.684-3.326-2.524-7.498-2.524-12.512c0-2.992,0.41-5.836,1.234-8.529
			c0.822-2.691,2.036-5.01,3.647-6.955c1.607-1.945,3.646-3.498,6.114-4.658c2.469-1.16,5.348-1.738,8.642-1.738
			c2.842,0,5.443,0.523,7.798,1.57c2.357,1.049,4.378,2.432,6.062,4.15c1.683,1.723,2.973,3.648,3.869,5.781
			c0.899,2.131,1.348,4.318,1.348,6.564V485.396z"/>
		<path fill="#FFFFFF" d="M323.08,464.673h9.537l17.845,79.898h-11.446l-3.367-17.17H320.05l-3.366,17.17h-11.445L323.08,464.673z
			 M327.906,487.677h-0.226l-5.609,28.951h11.446L327.906,487.677z"/>
		<path fill="#FFFFFF" d="M361.681,464.673h18.403c13.466,0,20.198,7.818,20.198,23.453c0,4.639-0.729,8.625-2.188,11.951
			c-1.459,3.33-4.022,6.004-7.687,8.023l12.344,36.471h-12.12l-10.661-34.115h-6.843v34.115h-11.447V464.673z M373.128,500.358
			h6.507c2.021,0,3.628-0.281,4.825-0.842c1.196-0.562,2.113-1.363,2.75-2.412c0.635-1.047,1.066-2.338,1.29-3.873
			c0.226-1.531,0.337-3.311,0.337-5.33s-0.111-3.795-0.337-5.33c-0.224-1.531-0.692-2.842-1.403-3.928
			c-0.711-1.084-1.702-1.887-2.974-2.412c-1.271-0.521-2.955-0.785-5.049-0.785h-5.946V500.358z"/>
	</g>
</g>
<g>
	<g>
		<linearGradient id="SVGID_1_" gradientUnits="userSpaceOnUse" x1="958.9443" y1="683.708" x2="958.9443" y2="-412.0791">
			<stop  offset="0" style="stop-color:#00FFCC"/>
			<stop  offset="1" style="stop-color:#00D2FF"/>
		</linearGradient>
		<path display="none" fill="url(#SVGID_1_)" d="M572.34-32.974c0-126.368,0-252.736,0-379.106c115.471,0,230.939,0,346.408,0
			c-10.399,10.55-20.801,21.098-31.521,31.97c1.729,1.291,2.938,2.325,4.271,3.159c1.995,1.248,4.052,2.404,6.128,3.509
			c4.752,2.53,6.699,6.491,5.851,11.726c-0.8,4.932-1.729,9.847-2.785,14.732c-2.27,10.503-4.224,21.062-4.631,31.812
			c-0.68,17.831,2.158,35.175,7.934,52.04c2.002,5.841,4.131,11.64,6.203,17.456c0.482,1.354,1.183,2.704-0.348,4.538
			c-1.753-1.228-3.644-2.267-5.191-3.684c-6.395-5.852-12.482-12.055-19.067-17.679c-7.24-6.187-14.54-12.425-22.456-17.673
			c-16.682-11.059-35.996-15.564-55.107-21.064c-2.094,3.047-6.772,4.479-4.898,8.934c11.657,3.228,22.866,6.221,34.009,9.454
			c8.785,2.549,17.22,6.001,25.035,10.838c12.93,8.002,24.384,17.856,35.376,28.277c6.081,5.766,11.922,11.8,18.164,17.382
			c3.81,3.407,8.137,6.25,12.321,9.223c1.55,1.102,3.356,1.8,5.522,0.773c0.759-2.115-0.185-4.053-0.995-5.847
			c-1.938-4.286-4.06-8.491-6.187-12.689c-8.343-16.479-15.446-33.383-17.824-51.903c-2.558-19.885,0.728-38.672,10.756-56.139
			c6.433-11.206,14.673-20.979,24.744-29.009c6.759-5.386,14.144-9.989,21.239-14.953c1.99-1.392,3.724-1.582,5.016,0.879
			c-0.247,0.293-0.394,0.577-0.63,0.728c-0.985,0.636-1.993,1.241-2.998,1.845c-14.205,8.531-27.215,18.443-37.425,31.716
			c-12.685,16.49-18.609,35.014-17.782,55.848c0.554,13.9,3.876,27.133,9.568,39.634c5.719,12.564,12.498,24.642,18.71,36.986
			c1.51,3,2.943,6.118,3.812,9.344c0.969,3.584-0.789,5.192-4.277,4.086c-2.488-0.787-4.896-2.004-7.142-3.358
			c-9.123-5.498-16.499-13.155-24.472-20.072c-8.535-7.405-16.746-15.212-25.577-22.238c-10.727-8.531-22.239-15.9-35.435-20.253
			c-12.624-4.162-25.503-7.08-38.733-8.385c-1.548-0.153-3.124-0.02-5.085-0.02c0,4.595-0.095,8.696,0.03,12.79
			c0.091,2.995-0.037,5.832-2.616,7.876c0.754,1.397,2.791,1.285,2.634,3.315c-0.237,3.031-0.062,6.095-0.062,8.669
			c-5.253,3.107-8.103-0.243-10.628-2.983c-26.431,26.466-52.6,52.667-78.9,79c0.039,0.07,0.293,0.606,0.626,1.084
			c13.104,18.86,28.136,36.143,43.487,53.164c6,6.652,11.922,13.375,17.967,19.987c7.134,7.806,14.331,15.557,21.577,23.261
			c1.459,1.551,3.121,3.042,5.974,3.288c0-3.131,0-6.006,0-9.14c6.161,1.273,11.421,0.054,15.63-3.862
			c3.086-2.875,6.061-6.111,8.207-9.709c4.135-6.931,8.1-14.036,11.315-21.425c4.806-11.044,8.832-22.427,13.343-33.603
			c1.366-3.381,2.919-6.78,4.962-9.778c2.992-4.396,7.745-4.056,10.14,0.655c1.024,2.013,1.744,4.552,1.53,6.749
			c-0.541,5.536-1.328,11.102-2.674,16.494c-2.594,10.397-5.673,20.674-8.489,31.017c-4.104,15.064-7.084,30.375-8.754,45.88
			c-1.545,14.32-2.317,28.721-3.563,43.075c-0.966,11.132-3.884,21.689-10.079,31.146c-2.232,3.411-4.6,6.735-7.183,10.505
			c20.804,20.809,41.576,41.589,62.764,62.78c-3.978,3.786-7.52,7.478-11.395,10.782c-7.48,6.378-15.264,12.407-22.686,18.854
			c-3.303,2.87-6.359,6.16-8.951,9.684c-4.056,5.508-2.794,8.962,3.752,10.678c3.814,1,7.79,1.607,11.729,1.884
			c23.851,1.683,46.842,6.768,68.645,16.796c13.777,6.339,27.558,12.671,39.736,21.883c1.967,1.485,3.736,3.322,5.268,5.257
			c1.24,1.568,2.606,3.513,1.193,5.635c-1.365,2.049-3.576,1.815-5.622,1.315c-2.28-0.553-4.639-1.046-6.735-2.046
			c-8.094-3.862-16.138-7.839-24.124-11.917c-12.587-6.429-25.146-12.808-39.062-16.102c-17.672-4.185-35.094-4.023-51.982,2.92
			c-8.678,3.563-16.975,8.087-25.308,12.438c-7.279,3.797-14.369,7.961-21.696,12.046c0,1.575,0,3.039,0,4.502
			c0,8.393-0.104,16.792,0.057,25.181c0.052,2.747-0.872,4.247-3.362,5.416c-10.729,5.041-21.826,8.845-33.646,10.172
			c-7.16,0.803-14.335,1.564-21.554,0.313c-6.293-1.093-10.915-4.258-13.303-10.27c-4.167-10.496-1.665-20.162,7.008-27.828
			c5.562-4.919,12.086-8.321,18.723-11.518c9.011-4.343,18.097-8.543,26.988-13.121c6.516-3.351,12.77-7.206,18.86-10.676
			c0-7.159,0-13.718,0-20.219c-0.361-0.083-0.541-0.187-0.624-0.137c-0.487,0.31-1.028,0.586-1.413,1
			c-7.486,8.033-16.737,13.47-26.822,17.346c-8.771,3.373-17.814,6.066-26.796,8.863c-8.273,2.578-16.697,4.685-24.926,7.4
			c-7.17,2.37-12.506,7.209-15.436,14.218c-1.578,3.764-2.543,7.81-3.524,11.791c-0.505,2.046-0.262,4.002,0.497,6.26
			c0.924,2.751,1.392,5.444,3.512,7.681c0.619,0.654,0.357,2.258,0.299,3.419c-0.189,3.671-0.444,7.339-0.722,11.007
			c-1.066,14.102-1.535,28.23-0.631,42.347c1.651,25.718,8.467,50.11,19.761,73.229c17.072,34.943,41.403,64.026,71.84,88.093
			c1.429,1.132,3.01,2.07,5.027,3.44c0.459-11.2-0.108-21.675,0.348-32.183c0.817,0.134,1.16,0.088,1.358,0.234
			c26.003,19.533,54.923,33.517,85.326,44.595c22.534,8.213,45.619,14.668,68.759,20.92c10.229,2.766,20.382,5.714,29.694,11.05
			c13.475,7.721,25.208,17.695,36.958,27.692c1.782,1.517,2.277,3.12,2.241,5.325c-0.106,6.918-0.026,13.843-0.05,20.766
			c-0.004,1.093-0.166,2.188-0.293,3.761c-2.595-1.064-4.748-1.935-6.894-2.826c-7.876-3.269-15.678-6.729-23.643-9.767
			c-10.504-4.006-21.365-6.573-32.691-6.702c-15.164-0.176-30.263-1.23-45.297-3.25c-35.113-4.722-69.383-12.862-102.598-25.283
			c-4.209-1.574-8.396-3.206-13.173-5.038c0,11.263,0,21.92,0,33.1c-1.896-0.744-3.229-1.262-4.561-1.794
			c-4.504-1.805-8.923-3.88-13.525-5.372c-9.344-3.024-13.198,0.392-10.76,9.892c1.486,5.789,3.618,11.539,6.319,16.868
			c4.01,7.907,8.778,15.43,13.228,23.113c-0.075,0.09-0.146,0.18-0.218,0.266c-4.16-4.105-8.32-8.213-12.48-12.322
			c-0.223,0.228-0.44,0.453-0.661,0.68c6.611,7.591,13.235,15.175,20.652,22.021c0.423,0.393,1.255,0.334,2.3,0.582
			c0-10.618,0-20.852,0-31.868c2.233,2.552,3.828,4.595,5.644,6.418c13.301,13.362,26.641,26.681,39.982,39.999
			c0.933,0.932,1.896,1.877,2.989,2.597c10.277,6.76,21.296,11.956,33.206,15.069c14.646,3.826,29.564,4.852,44.646,3.776
			c11.498-0.82,22.852-2.543,33.702-6.509c8.28-3.027,16.412-6.483,24.518-9.968c7.191-3.096,14.379-5.997,22.306-6.666
			c1.424-0.118,2.978-1.162,4.077-2.198c3.75-3.533,7.263-7.317,10.991-10.872c1.612-1.536,2.343-3.144,2.289-5.413
			c-0.144-6.033-0.061-12.074-0.039-18.115c0.005-1.262,0.129-2.523,0.228-4.344c10.952,9.13,21.468,17.897,31.912,26.605
			c0.792-0.59,1.182-0.812,1.486-1.114c17.61-17.591,35.195-35.206,52.844-52.754c1.512-1.503,1.938-3.088,1.921-5.109
			c-0.072-8.835,0.015-17.674-0.071-26.509c-0.015-1.729-0.279-3.541-0.862-5.159c-9.609-26.652-21.684-52.153-36.207-76.476
			c-12.243-20.507-27.423-38.492-46.279-53.285c-5.05-3.959-4.98-4.049-4.98-10.64c0-2.212,0-4.42,0-6.627c0-3.024,0-6.048,0-9.479
			c1.453,0.518,2.283,0.752,3.061,1.101c15.86,7.119,31.215,15.206,46.019,24.318c11.148,6.859,22.201,13.879,33.325,20.779
			c1.677,1.039,3.512,1.819,5.963,3.074c0-7.09,0-13.341,0-20.176c4.073,0,7.705-0.154,11.318,0.028
			c12.706,0.645,25.005,3.632,37.277,6.71c6.535,1.641,13.056,3.344,20.086,5.146c0.821-1.027,1.562-2.157,2.493-3.096
			c14.25-14.282,28.45-28.619,42.854-42.746c2.713-2.661,3.649-5.502,3.468-9.033c-0.338-6.565-2.155-12.765-4.91-18.669
			c-8.979-19.255-22.07-35.691-35.936-51.531c-7.142-8.158-16.15-14.124-25.566-19.345c-12.604-6.991-25.377-13.671-38.067-20.5
			c-4.366-2.352-8.706-4.747-12.82-6.994c0-6.983,0-13.438,0-20.446c1.688,0.611,3.034,1.079,4.366,1.582
			c13.783,5.217,27.813,9.662,42.304,12.405c10.538,1.996,21.171,3.484,31.762,5.186c20.732,3.333,41.542,3.901,62.457,1.978
			c15.115-1.388,30.047-3.769,44.809-7.282c0.685-0.166,1.412-0.147,2.788-0.276c-0.245,3.552-0.471,6.854-0.686,10.165
			c-0.903,0.425-1.779,1.007-2.739,1.227c-7.742,1.751-15.456,3.667-23.26,5.091c-24.079,4.391-48.223,4.869-72.395,0.644
			c-1.04-0.183-2.119-0.137-3.713-0.227c0.759,0.974,1.061,1.46,1.455,1.855c9.052,9.069,18.15,18.091,27.143,27.217
			c1.692,1.715,3.657,2.327,5.877,2.625c9.615,1.291,19.214,2.711,28.847,3.854c12.438,1.478,24.943,1.65,37.455,1.41
			c0.537-0.012,1.071-0.292,2.036-0.576c0-7.781,0-15.512,0-23.347c13.654-0.233,26.837-0.46,40.213-0.69c0-2.952,0-5.343,0-7.958
			c-13.615,0.633-26.896,1.27-39.99,0.647c-0.369-4.308-0.692-8.076-1.015-11.844c1.149,0.176,2.315,0.571,3.445,0.492
			c10.848-0.784,21.689-1.632,32.531-2.499c1.704-0.136,3.394-0.453,4.949-0.669c0.951-7.586,0.587-50.639-0.424-53.688
			c-6.476,2.373-12.885,4.94-19.438,7.066c-6.609,2.139-13.077,4.865-20.152,6.073c0-3.815,0-7.123,0-10.636
			c13.942-3.28,27.25-7.753,40.101-13.039c0-5.169,0-9.926,0-15.083c-3.004,1.052-5.348,3.019-8.431,2.309
			c1.519-1.127,3.123-2.085,4.841-2.735c3.823-1.447,3.9-1.384,3.906-5.16c0.021-15.609,0.014-31.219-0.014-46.828
			c-0.002-0.914-0.275-1.828-0.393-2.567c-13.548,7.014-26.812,13.879-40.461,20.945c0,13.969,0,28.21,0,42.446
			c-1.354,0.608-2.389,1.164-3.485,1.552c-9.838,3.484-19.599,7.218-29.552,10.333c-14.671,4.596-29.784,6.8-45.16,7.157
			c-13.75,0.316-27.313-1.097-40.684-4.351c-11.463-2.788-22.754-6.107-33.113-11.899c-10.65-5.952-16.719-15.226-17.637-27.311
			c-0.441-5.795,0.301-11.758,1.141-17.555c1.475-10.176,3.777-20.239,5.105-30.429c1.545-11.857,3.907-23.452,8.064-34.678
			c2.043-5.51,4.015-11.053,5.783-16.657c2.981-9.437,4.655-19.103,4.725-29.04c0.072-10.25-1.729-20.237-4.566-29.989
			c-7.627-26.222-19.279-50.466-36.254-72.014c-1.075-1.363-1.799-3.003-2.799-4.709c4.182,3.88,8.593,7.046,11.844,11.138
			c21.532,27.114,35.713,57.929,45.021,91.112c3.268,11.65,4.559,23.649,6.152,35.598c0.638,4.787,1.657,9.548,2.892,14.219
			c0.669,2.53,2.011,5.223,5.122,5.439c3.025,0.208,4.884-2.102,6.067-4.45c1.638-3.26,2.921-6.726,4.043-10.205
			c1.034-3.209,1.511-6.597,2.492-9.825c1.297-4.273,3.461-4.721,6.538-1.379c1.689,1.834,3.141,3.891,4.647,5.885
			c5.938,7.855,11.73,15.825,17.828,23.552c3.463,4.387,7.447,8.37,12.397,11.161c6.846,3.857,12.077,2.424,15.939-4.361
			c3.14-5.513,4.102-11.551,4.361-17.812c0.548-13.236-1.883-26.06-4.937-38.831c-0.646-2.704-1.992-4.746-3.928-6.67
			c-18.471-18.388-36.866-36.854-55.342-55.24c-1.824-1.815-3.089-3.793-3.93-6.219c-16.937-48.832-40.931-93.714-74.814-133
			c-1.827-2.12-2.381-4.132-2.364-6.724c0.071-11.927,0.021-23.854,0.04-35.783c0.001-1.786-0.005-3.438-1.507-4.838
			c-6.022-5.611-11.74-11.571-17.981-16.926c-11.44-9.814-24.484-17.277-37.561-24.664c-4.218-2.383-8.441-4.856-12.288-7.777
			c-7.316-5.559-6.904-10.969,0.868-15.963c5.016-3.226,10.576-5.115,16.283-6.644c15.149-4.056,30.545-4.192,46.025-2.814
			c1.989,0.176,3.956,0.604,6.212,0.96c0,14.498,0,28.592,0,42.935c2.145,0.422,3.995,0.784,5.844,1.153
			c24.128,4.807,46.993,13.335,68.954,24.199c20.437,10.11,40.556,20.859,60.828,31.296c13.229,6.809,26.702,13.071,40.941,17.504
			c3.714,1.157,7.552,1.927,11.895,3.017c0-6.339-0.119-11.913,0.052-17.479c0.081-2.58-0.803-4.358-2.606-6.16
			c-38.78-38.689-77.52-77.418-116.192-116.217c-2.061-2.066-4.132-2.814-6.97-2.8c-19.29,0.095-38.581,0.054-57.87,0.043
			c-1.559-0.002-3.119-0.104-4.787-0.164c0-14.753,0-29.016,0-43.279c76.571,0,153.14,0,229.736,0c0,365.158,0,730.317,0,1095.788
			c-180.837,0-361.7,0-542.564,0c0-10.992,0-21.984,0-33.438c2.1,0,3.833,0,5.564,0c28.413,0,56.829-0.161,85.239,0.137
			c5.77,0.062,9.736-2.212,13.527-5.89c-0.32-0.482-0.508-0.896-0.811-1.197c-8.106-8.134-16.17-16.311-24.4-24.318
			c-1.267-1.233-3.229-1.956-4.996-2.444c-4.955-1.367-9.988-2.46-14.977-3.711c-19.953-5.018-38.991-12.226-56.307-23.557
			c-0.789-0.514-1.728-0.801-3.113-1.428c0,11.025,0,21.535,0,32.869c-2.167-1.521-3.72-2.549-5.211-3.663
			c-12.671-9.454-23.615-20.697-33.298-33.114c-9.929-12.732-19.725-25.584-29.081-38.733
			c-17.416-24.483-32.835-50.168-45.523-77.464c-2.819-6.062-4.5-12.808-9.515-17.738c-0.486-0.478-0.676-1.294-0.916-1.984
			c-4.843-13.884-9.94-27.685-14.446-41.675c-7.944-24.671-16.799-48.957-29.026-71.872c-7.015-13.154-15.289-25.419-26.046-35.901
			c-10.674-10.401-22.606-19.168-34.913-27.471c-0.7-0.471-1.593-0.658-2.396-0.978c0-26.808,0-53.614,0-80.417
			c6.255-4.362,12.636-8.551,18.734-13.114c14.999-11.215,27.797-24.433,36.483-41.259c0.252-0.485,0.664-0.887,0.718-0.956
			c5.682,5.647,11.28,11.217,17.222,17.125c0.104,3.319-2.284,6.354-4.691,9.263c-4.117,4.969-8.095,10.129-12.747,14.57
			c-8.383,8.001-17.281,15.462-25.846,23.276c-6.623,6.041-13.336,12.013-18.287,19.636c-6.457,9.946-6.999,20.072-0.949,30.349
			c1.71,2.908,3.543,5.814,5.746,8.346c6.079,6.972,12.14,13.994,18.654,20.553c13.205,13.298,23.433,28.634,31.955,45.188
			c12.615,24.513,22.41,50.176,31.197,76.273c7.41,22.018,15.221,43.896,22.978,65.795c0.808,2.279,2.104,4.585,3.757,6.329
			c5.672,5.983,11.594,11.729,17.444,17.543c0.62,0.616,1.388,1.091,2.803,2.184c-0.777-2.085-1.183-3.175-1.59-4.262
			c-6.057-16.094-12.406-32.092-18.105-48.312c-7.65-21.776-14.411-43.872-22.266-65.573c-9.755-26.953-20.35-53.602-30.346-80.473
			c-3.995-10.734-7.931-21.55-8.882-33.136c-0.964-11.729,2.605-21.913,11.303-29.783c4.419-4.003,9.658-7.181,14.792-10.288
			c5.906-3.574,12.232-6.45,18.143-10.018c5.397-3.258,10.216-7.325,14.041-12.352c-2.918-3.797-2.95-3.804-1.911-8.198
			c0.541-2.287,0.9-4.686,1.888-6.774c1.999-4.222,3.901-8.623,6.694-12.305c4.66-6.145,11.657-8.137,19.052-8.798
			c9.813-0.877,19.669-1.359,29.305-3.693c8.913-2.158,17.711-4.667,24.928-10.64c7.261-6.009,7.548-11.802,4.353-17.92
			c-1.354-2.594-2.8-5.243-4.7-7.433c-5.874-6.767-11.954-13.355-18.014-19.956c-7.748-8.445-15.634-16.766-23.316-25.268
			c-8.071-8.934-15.856-18.127-23.982-27.006c-8.142-8.892-16.353-17.738-24.907-26.228C677.221,15.69,670.04,9.363,662.749,3.21
			c-4.375-3.693-9.351-6.656-15.011-8.17c-5.332-1.424-9.327,0.129-11.857,4.93c-1.085,2.057-2.03,4.315-2.418,6.586
			c-1.129,6.657-2.016,13.358-2.872,20.057c-1.851,14.428-3.25,28.926-5.535,43.286c-2.089,13.116-6.366,25.668-12.336,37.586
			c-0.68,1.358-1.517,2.635-2.585,4.473c-5.21-5.4-9.901-10.265-14.462-14.991c-1.063,0.39-1.694,0.78-2.354,0.833
			c-2.02,0.166-2.68,1.319-1.562,2.805c1.06,1.408,0.537,2.461,0.003,3.632c-3.43,7.515-7.392,14.728-12.836,20.997
			c-1.967,2.262-3.217,5.369-6.584,6.16c0-17.674,0-35.349,0-53.022c1.18,0.748,2.523,1.322,3.507,2.273
			c4.02,3.879,7.916,7.886,11.889,11.815c0.79,0.784,1.713,1.435,2.737,2.281c0.793-1.806,1.495-3.259,2.082-4.759
			c6.163-15.719,9.344-32.102,10.561-48.877c1.602-22.071,0.107-44.003-3.007-65.878c-1.346-9.44-2.135-18.96-3.201-28.443
			c-0.069-0.62-0.361-1.215-0.688-2.272c-1.518,1.425-2.703,2.486-3.829,3.608c-5.518,5.503-10.992,11.052-16.554,16.51
			C574.844-34.394,573.513-33.763,572.34-32.974z M802.972,65.316c-0.979,0.054-1.293,0.156-1.536,0.068
			c-0.688-0.252-1.353-0.569-2.016-0.881c-20.444-9.603-38.216-22.99-54.421-38.565c-12.724-12.23-24.284-25.548-35.747-38.94
			c-8.2-9.581-16.104-19.417-24.277-29.023c-7.32-8.606-14.794-17.084-22.266-25.559c-5.244-5.947-10.556-11.833-15.913-17.676
			c-3.253-3.549-6.647-6.967-9.951-10.412c-4.539,3.308-24.691,23.796-26.216,26.596c3.344,1.812,6.803,3.439,10.01,5.468
			c14.764,9.338,27.201,21.454,39.478,33.695c7.383,7.363,14.282,15.211,21.306,22.926c7.513,8.248,14.905,16.606,22.369,24.9
			c7.467,8.293,14.731,16.785,22.494,24.792c9.214,9.506,18.772,18.686,28.364,27.815c6.054,5.764,12.298,11.352,18.718,16.709
			c9.519,7.95,18.082,16.765,25.648,26.583c2.59,3.36,4.569,6.812,3.855,11.276c-0.126,0.784,0.135,1.627,0.279,3.073
			c2.862-1.899,5.301-3.447,7.669-5.101c9.313-6.51,18.104-13.615,24.708-23.011c5.722-8.141,7.631-17.112,5.17-26.844
			c-5.059-19.996-18.993-31.791-36.95-39.833c-0.095-0.043-0.27,0.092-0.775,0.284C802.972,44.045,802.972,54.581,802.972,65.316z
			 M802.582-59c-3.23-2.109-6.395-3.765-9.068-6.005c-5.846-4.898-11.448-10.085-17.139-15.168
			c-6.456-5.766-12.899-11.548-19.351-17.319c-9.516-8.513-19.279-16.765-28.479-25.605c-9.857-9.474-19.18-19.503-28.752-29.277
			c-1.088-1.113-2.271-2.134-2.993-2.808c-2.399,1.994-4.519,3.752-6.627,5.503c0.574,0.957,0.794,1.521,1.177,1.929
			c6.931,7.396,13.817,14.834,20.852,22.134c5.414,5.618,10.938,11.134,16.551,16.557c8.666,8.372,17.366,16.713,26.202,24.902
			c8.287,7.683,16.679,15.254,25.202,22.67c4.53,3.941,9.349,7.567,14.207,11.1c2.314,1.682,4.887,3.174,8.219,3.427
			C802.582-51.15,802.582-55.064,802.582-59z M1344.688,20.6c0.085-1.259,0.216-2.253,0.212-3.245
			c-0.054-20.748-0.121-41.494-0.196-62.241c-0.003-0.106-0.138-0.241-0.245-0.308c-0.119-0.075-0.277-0.09-0.748-0.228
			c-9.618,12.082-21.057,22.54-32.878,32.149C1322.141-1.96,1333.242,9.147,1344.688,20.6z M1149.833,423.654
			c-11.501-11.495-22.751-22.736-33.897-33.876c0,9.268,0,19.008,0,28.871C1126.841,424.435,1137.943,427.125,1149.833,423.654z
			 M1303.812,261.184c0-2.981,0-5.218,0-7.012c-19.768-1.924-39.122-3.812-59.123-5.757c1.972,1.984,3.859,3.578,5.362,5.473
			c2.688,3.388,6.075,4.534,10.331,4.735C1274.751,259.292,1289.104,260.288,1303.812,261.184z M1027.521,603.638
			c7.195-7.166,14.422-14.361,21.428-21.341c-6.713-2.441-13.959-5.077-21.428-7.796
			C1027.521,584.655,1027.521,594.421,1027.521,603.638z M1304.281-270.081c5.293,2.079,14.675,1.742,18.781-0.573
			c-2.683-4.195-16.146-17.282-18.781-18.213C1304.281-282.698,1304.281-276.553,1304.281-270.081z M1115.893,559.118
			c2.496-2.186,4.772-4.178,6.94-6.076c-2.13-7.552-4.18-14.815-6.229-22.075c-0.237,0.048-0.476,0.097-0.712,0.145
			C1115.893,540.428,1115.893,549.744,1115.893,559.118z M1307.199,204.104c-0.023,0.287-0.047,0.571-0.069,0.859
			c12.495,0.144,24.983-0.061,37.661-0.953c-0.071-1.205-0.12-2.025-0.177-2.995
			C1331.983,202.058,1319.593,203.083,1307.199,204.104z"/>
		<g>
			<linearGradient id="SVGID_2_" gradientUnits="userSpaceOnUse" x1="874.0166" y1="471.6875" x2="874.0165" y2="-242.3721">
				<stop  offset="0" style="stop-color:#00FFCC"/>
				<stop  offset="1" style="stop-color:#00D2FF"/>
			</linearGradient>
			<path fill-rule="evenodd" clip-rule="evenodd" fill="url(#SVGID_2_)" d="M938.159-242.373c0,9.956,0,19.913,0,30.21
				c1.164,0.042,2.254,0.114,3.341,0.114c13.468,0.008,26.934,0.037,40.399-0.03c1.981-0.01,3.427,0.512,4.865,1.954
				c26.996,27.085,54.039,54.122,81.11,81.129c1.26,1.258,1.877,2.499,1.82,4.3c-0.119,3.885-0.036,7.776-0.036,12.201
				c-3.032-0.76-5.712-1.298-8.304-2.105c-9.94-3.096-19.346-7.468-28.58-12.22c-14.152-7.285-28.196-14.79-42.464-21.847
				c-15.329-7.584-31.292-13.536-48.133-16.893c-1.292-0.257-2.583-0.51-4.08-0.803c0-10.014,0-19.853,0-29.973
				c-1.575-0.249-2.948-0.547-4.335-0.671c-10.809-0.961-21.557-0.867-32.131,1.964c-3.983,1.067-7.866,2.386-11.366,4.638
				c-5.427,3.486-5.714,7.263-0.607,11.144c2.687,2.04,5.635,3.766,8.578,5.43c9.128,5.155,18.234,10.364,26.221,17.216
				c4.355,3.738,8.347,7.898,12.552,11.815c1.05,0.979,1.055,2.131,1.052,3.377c-0.012,8.327,0.021,16.653-0.027,24.979
				c-0.012,1.81,0.373,3.215,1.649,4.695c23.653,27.424,40.403,58.755,52.229,92.844c0.586,1.693,1.467,3.074,2.74,4.341
				c12.899,12.834,25.74,25.725,38.635,38.562c1.35,1.343,2.291,2.769,2.741,4.656c2.132,8.915,3.828,17.868,3.446,27.108
				c-0.182,4.37-0.854,8.585-3.045,12.433c-2.696,4.736-6.348,5.737-11.125,3.045c-3.457-1.951-6.238-4.73-8.656-7.792
				c-4.257-5.394-8.299-10.958-12.444-16.442c-1.054-1.392-2.067-2.828-3.244-4.108c-2.148-2.333-3.659-2.021-4.565,0.964
				c-0.686,2.254-1.018,4.618-1.739,6.859c-0.782,2.428-1.681,4.847-2.823,7.124c-0.825,1.639-2.123,3.252-4.234,3.106
				c-2.173-0.15-3.108-2.03-3.576-3.797c-0.861-3.26-1.574-6.584-2.019-9.926c-1.112-8.341-2.013-16.718-4.294-24.851
				c-6.498-23.163-16.398-44.675-31.43-63.603c-2.269-2.856-5.349-5.066-8.269-7.775c0.701,1.191,1.204,2.335,1.956,3.288
				c11.85,15.042,19.984,31.966,25.309,50.271c1.979,6.809,3.237,13.78,3.188,20.935c-0.05,6.938-1.218,13.685-3.299,20.272
				c-1.236,3.912-2.611,7.781-4.037,11.628c-2.902,7.836-4.552,15.93-5.63,24.207c-0.927,7.114-2.536,14.138-3.564,21.242
				c-0.586,4.046-1.104,8.209-0.796,12.255c0.641,8.436,4.877,14.909,12.312,19.065c7.231,4.044,15.113,6.359,23.116,8.304
				c9.334,2.273,18.801,3.258,28.401,3.039c10.733-0.248,21.282-1.787,31.523-4.995c6.947-2.175,13.763-4.782,20.63-7.214
				c0.766-0.271,1.487-0.66,2.434-1.083c0-9.938,0-19.88,0-29.632c9.527-4.932,18.787-9.725,28.244-14.621
				c0.082,0.516,0.272,1.154,0.275,1.792c0.018,10.896,0.021,21.792,0.008,32.689c-0.005,2.636-0.058,2.593-2.726,3.602
				c-1.2,0.453-2.319,1.122-3.381,1.909c2.153,0.496,3.79-0.877,5.886-1.611c0,3.6,0,6.92,0,10.529
				c-8.971,3.69-18.261,6.812-27.993,9.102c0,2.452,0,4.76,0,7.425c4.938-0.845,9.454-2.747,14.068-4.239
				c4.574-1.485,9.048-3.275,13.567-4.933c0.707,2.129,0.961,32.182,0.297,37.479c-1.086,0.151-2.265,0.371-3.455,0.467
				c-7.568,0.604-15.135,1.198-22.709,1.744c-0.789,0.054-1.604-0.223-2.405-0.345l0.052,0.04c0.158-2.301,0.316-4.606,0.486-7.083
				c-0.96,0.089-1.469,0.075-1.945,0.19c-10.305,2.456-20.73,4.117-31.281,5.084c-14.6,1.345-29.125,0.946-43.6-1.38
				c-7.393-1.186-14.816-2.226-22.172-3.617c-10.114-1.917-19.908-5.016-29.531-8.662c-0.929-0.349-1.868-0.676-3.047-1.104
				c0,4.891,0,9.399,0,14.272c2.871,1.567,5.901,3.243,8.949,4.882c8.858,4.769,17.775,9.432,26.574,14.312
				c6.572,3.642,12.861,7.807,17.848,13.506c9.678,11.057,18.816,22.527,25.085,35.972c1.923,4.121,3.191,8.45,3.428,13.031
				c0.127,2.467-0.527,4.448-2.421,6.308c-10.056,9.862-19.967,19.866-29.914,29.837c-0.651,0.658-1.167,1.445-1.741,2.165
				c-4.908-1.259-9.459-2.448-14.022-3.596c-8.566-2.147-17.152-4.232-26.022-4.682c-2.521-0.13-5.057-0.021-7.899-0.021
				c0,4.771,0,9.137,0,14.084c-1.713-0.873-2.993-1.42-4.164-2.143c-7.765-4.818-15.48-9.72-23.263-14.509
				c-10.335-6.361-21.054-12.007-32.125-16.976c-0.541-0.245-1.123-0.407-2.137-0.766c0,2.394,0,4.505,0,6.612
				c0,1.542,0,3.085,0,4.627c0,4.603-0.047,4.664,3.479,7.429c13.163,10.328,23.759,22.881,32.305,37.198
				c10.139,16.977,18.568,34.778,25.276,53.383c0.407,1.13,0.591,2.396,0.603,3.603c0.059,6.168-0.001,12.338,0.048,18.505
				c0.012,1.413-0.284,2.518-1.34,3.566c-12.321,12.252-24.598,24.549-36.889,36.829c-0.213,0.208-0.486,0.366-1.038,0.776
				c-7.291-6.081-14.633-12.201-22.277-18.573c-0.068,1.271-0.155,2.15-0.158,3.032c-0.016,4.218-0.073,8.435,0.025,12.646
				c0.038,1.586-0.473,2.709-1.598,3.78c-2.602,2.481-5.054,5.119-7.673,7.59c-0.766,0.724-1.85,1.448-2.845,1.531
				c-5.532,0.468-10.551,2.495-15.57,4.653c-5.659,2.435-11.336,4.848-17.117,6.961c-7.572,2.77-15.499,3.971-23.525,4.542
				c-10.527,0.752-20.941,0.036-31.166-2.636c-8.314-2.172-16.006-5.8-23.181-10.517c-0.763-0.504-1.437-1.161-2.087-1.816
				c-9.314-9.295-18.625-18.594-27.909-27.921c-1.269-1.273-2.381-2.701-3.94-4.48c0,7.69,0,14.836,0,22.246
				c-0.729-0.172-1.311-0.132-1.604-0.405c-5.179-4.779-9.804-10.072-14.419-15.373c0.155-0.157,0.308-0.315,0.462-0.474
				c2.903,2.869,5.808,5.735,8.713,8.604c0.049-0.063,0.101-0.125,0.152-0.187c-3.104-5.364-6.435-10.618-9.234-16.138
				c-1.886-3.718-3.374-7.73-4.411-11.772c-1.702-6.631,0.986-9.018,7.51-6.907c3.215,1.043,6.299,2.492,9.441,3.75
				c0.931,0.371,1.86,0.734,3.184,1.255c0-7.807,0-15.245,0-23.106c3.335,1.276,6.26,2.417,9.197,3.517
				c23.187,8.67,47.11,14.351,71.621,17.648c10.493,1.41,21.035,2.147,31.619,2.269c7.907,0.09,15.489,1.885,22.822,4.68
				c5.561,2.12,11.005,4.537,16.504,6.817c1.498,0.621,3.001,1.229,4.812,1.973c0.089-1.097,0.202-1.862,0.205-2.624
				c0.016-4.832-0.041-9.666,0.035-14.499c0.025-1.534-0.32-2.657-1.565-3.718c-8.202-6.976-16.395-13.94-25.799-19.326
				c-6.501-3.726-13.588-5.786-20.729-7.714c-16.154-4.369-32.268-8.874-47.999-14.605c-21.223-7.734-41.413-17.494-59.563-31.133
				c-0.138-0.101-0.378-0.068-0.947-0.162c-0.319,7.337,0.075,14.646-0.245,22.467c-1.407-0.957-2.511-1.611-3.508-2.401
				c-21.248-16.8-38.232-37.105-50.15-61.495c-7.885-16.139-12.642-33.168-13.795-51.121c-0.632-9.853-0.303-19.716,0.441-29.561
				c0.192-2.561,0.372-5.12,0.503-7.684c0.04-0.809,0.224-1.927-0.209-2.384c-1.479-1.564-1.806-3.445-2.45-5.365
				c-0.529-1.575-0.7-2.941-0.348-4.369c0.686-2.779,1.358-5.602,2.46-8.23c2.045-4.894,5.771-8.27,10.775-9.924
				c5.742-1.895,11.624-3.366,17.4-5.167c6.271-1.952,12.583-3.833,18.705-6.188c7.04-2.704,13.498-6.501,18.724-12.107
				c0.269-0.288,0.646-0.481,0.987-0.698c0.059-0.036,0.183,0.036,0.436,0.094c0,4.538,0,9.118,0,14.116
				c-4.252,2.42-8.619,5.114-13.166,7.451c-6.208,3.197-12.55,6.127-18.841,9.162c-4.633,2.229-9.188,4.603-13.068,8.041
				c-6.055,5.351-7.802,12.096-4.893,19.424c1.667,4.196,4.894,6.404,9.286,7.17c5.039,0.874,10.048,0.338,15.046-0.223
				c8.252-0.924,15.998-3.582,23.488-7.098c1.737-0.816,2.383-1.863,2.348-3.783c-0.111-5.854-0.04-11.719-0.04-17.576
				c0-1.021,0-2.042,0-3.143c5.115-2.851,10.063-5.76,15.145-8.41c5.817-3.035,11.609-6.192,17.666-8.68
				c11.792-4.847,23.952-4.962,36.29-2.039c9.715,2.297,18.48,6.752,27.268,11.24c5.574,2.848,11.189,5.625,16.84,8.321
				c1.464,0.693,3.11,1.039,4.702,1.424c1.427,0.352,2.972,0.514,3.925-0.917c0.985-1.482,0.033-2.837-0.832-3.934
				c-1.07-1.352-2.306-2.632-3.679-3.667c-8.501-6.433-18.12-10.853-27.738-15.278c-15.221-7.001-31.271-10.55-47.921-11.726
				c-2.749-0.191-5.524-0.615-8.187-1.313c-4.57-1.197-5.449-3.61-2.619-7.456c1.81-2.459,3.943-4.757,6.249-6.759
				c5.18-4.5,10.613-8.709,15.836-13.162c2.704-2.306,5.178-4.884,7.954-7.526c-14.79-14.793-29.292-29.298-43.813-43.826
				c1.803-2.631,3.454-4.952,5.013-7.333c4.326-6.602,6.362-13.971,7.036-21.743c0.87-10.021,1.41-20.074,2.488-30.07
				c1.165-10.825,3.245-21.512,6.111-32.028c1.966-7.221,4.115-14.394,5.925-21.652c0.939-3.764,1.489-7.649,1.868-11.514
				c0.149-1.534-0.354-3.306-1.069-4.711c-1.672-3.288-4.988-3.525-7.078-0.457c-1.425,2.093-2.51,4.465-3.462,6.826
				c-3.15,7.801-5.961,15.748-9.315,23.457c-2.246,5.159-5.015,10.119-7.899,14.957c-1.498,2.512-3.576,4.77-5.729,6.778
				c-2.938,2.733-6.61,3.584-10.91,2.695c0,2.187,0,4.194,0,6.381c-1.992-0.172-3.151-1.212-4.17-2.295
				c-5.06-5.378-10.083-10.788-15.063-16.237c-4.22-4.618-8.353-9.31-12.542-13.954C677.251-48.436,666.757-60.5,657.61-73.666
				c-0.232-0.333-0.41-0.708-0.438-0.757c18.36-18.383,36.628-36.672,55.08-55.149c1.762,1.914,3.75,4.252,7.418,2.083
				c0-1.797-0.123-3.936,0.042-6.052c0.111-1.417-1.312-1.339-1.838-2.314c1.801-1.427,1.891-3.407,1.826-5.499
				c-0.086-2.857-0.021-5.72-0.021-8.928c1.369,0,2.469-0.093,3.55,0.014c9.236,0.911,18.226,2.948,27.037,5.854
				c9.214,3.038,17.248,8.182,24.737,14.138c6.165,4.904,11.897,10.355,17.855,15.524c5.564,4.828,10.714,10.173,17.082,14.012
				c1.567,0.945,3.25,1.795,4.986,2.343c2.436,0.773,3.663-0.349,2.987-2.851c-0.608-2.252-1.609-4.428-2.663-6.524
				c-4.337-8.616-9.068-17.048-13.062-25.818c-3.972-8.727-6.291-17.965-6.677-27.668c-0.579-14.543,3.558-27.475,12.412-38.986
				c7.128-9.266,16.21-16.185,26.125-22.141c0.702-0.421,1.406-0.843,2.094-1.287c0.165-0.106,0.268-0.304,0.439-0.508
				c-0.902-1.719-2.112-1.586-3.502-0.614c-4.954,3.465-10.109,6.679-14.826,10.438c-7.03,5.606-12.781,12.428-17.273,20.25
				c-7,12.194-9.293,25.309-7.508,39.189c1.659,12.929,6.619,24.729,12.442,36.233c1.484,2.93,2.967,5.867,4.318,8.858
				c0.565,1.253,1.226,2.605,0.695,4.082c-1.513,0.717-2.774,0.229-3.856-0.541c-2.92-2.076-5.941-4.061-8.601-6.439
				c-4.356-3.896-8.434-8.108-12.679-12.134c-7.676-7.273-15.67-14.153-24.697-19.739c-5.454-3.375-11.343-5.786-17.475-7.565
				c-7.779-2.256-15.604-4.346-23.742-6.599c-1.308-3.11,1.959-4.109,3.42-6.237c13.342,3.84,26.824,6.985,38.47,14.705
				c5.525,3.664,10.62,8.019,15.677,12.337c4.596,3.926,8.847,8.256,13.31,12.341c1.08,0.989,2.401,1.714,3.625,2.571
				c1.067-1.28,0.578-2.223,0.241-3.168c-1.446-4.06-2.933-8.108-4.329-12.185c-4.031-11.772-6.015-23.88-5.539-36.328
				c0.286-7.504,1.649-14.875,3.232-22.207c0.737-3.41,1.388-6.841,1.945-10.285c0.592-3.654-0.768-6.419-4.084-8.185
				c-1.451-0.771-2.887-1.58-4.277-2.45c-0.932-0.583-1.775-1.304-2.983-2.205c7.485-7.59,14.746-14.953,22.005-22.317
				C846.45-242.373,892.305-242.373,938.159-242.373z M794.19-69.012c-5.754,13.564-11.404,26.548-16.774,39.646
				c-5.357,13.068-9.135,26.583-10.335,40.722c-0.286,3.374-0.474,6.757-0.603,10.139c-0.148,3.894-0.359,7.798-0.225,11.686
				c0.244,7.073,0.934,14.132,1.04,21.204c0.092,6.047-0.404,12.103-0.581,18.155c-0.141,4.892,2.302,8.22,6.643,10.136
				c3.937,1.736,8.096,2.128,12.368,1.508c5.361-0.779,9.407-3.462,11.877-8.28c1.115-2.179,2.089-4.484,2.73-6.839
				c1.471-5.394,1.507-10.947,1.47-16.507c-0.069-10.573-0.699-21.166,0.623-31.705c1.006-8.04,1.933-16.105,3.363-24.075
				c2.505-13.943,5.821-27.709,10.325-41.16c0.424-1.265,0.271-2.141-0.522-3.063c-0.375-0.436-0.718-0.901-1.315-1.66
				c0.753-0.094,1.117-0.178,1.483-0.178c4.008-0.011,8.032-0.228,12.02,0.057c3.454,0.246,6.959,0.756,10.28,1.708
				c4.516,1.295,5.46,3.462,3.996,7.952c-1.05,3.216-2.185,6.409-3.439,9.552c-0.701,1.757-0.492,2.992,0.941,4.331
				c3.151,2.945,6.129,6.08,9.196,9.117c0.467,0.464,1.032,0.828,1.638,1.304c0.756-1.374,1.327-2.58,2.052-3.689
				c0.758-1.158,1.658-2.221,2.494-3.327c0.263,0.077,0.526,0.153,0.788,0.229c0.059,1.026,0.275,2.073,0.14,3.072
				c-0.304,2.233-0.833,4.435-1.159,6.666c-0.095,0.637-0.04,1.539,0.343,1.958c1.62,1.77,3.388,3.405,5.348,5.332
				c0.931-2.359,1.668-4.255,2.427-6.143c2.602-6.463,6.26-12.233,11.314-17.066c0.519-0.495,1.231-0.791,2.218-1.409
				c0,5.479,0.045,10.4-0.044,15.321c-0.014,0.859-0.561,1.718-0.903,2.559c-1.703,4.174-3.537,8.298-5.089,12.526
				c-1.317,3.585-0.91,4.248,2.765,6.253c1.254-4.188,3.887-7.943,3.38-12.634c-0.069-0.645,0.771-1.653,1.451-2.068
				c2.447-1.495,5.011-2.801,7.523-4.189c3.319-1.834,6.826-3.406,9.902-5.585c4.032-2.857,4.196-6.432,0.701-9.862
				c-1.737-1.705-3.749-3.187-5.81-4.499c-3.809-2.426-7.718-4.697-11.643-6.938c-1.593-0.91-2.458-2.021-2.242-3.933
				c0.133-1.18,0.025-2.388,0.025-3.805c1.091,0.281,1.787,0.422,2.455,0.639c10.745,3.477,21.502,6.921,32.22,10.475
				c2.815,0.935,5.645,1.986,8.239,3.4c4.398,2.398,5.136,5.797,2.509,10.059c-0.424,0.688-0.977,1.31-1.523,1.914
				c-2.513,2.781-5.549,4.918-8.869,6.56c-5.333,2.635-10.764,5.085-16.187,7.543c-7.022,3.186-13.323,7.26-17.556,13.939
				c-0.487,0.769-1.154,1.616-1.189,2.449c-0.137,3.305-0.056,6.62-0.056,9.933c1.007-0.692,1.515-1.43,1.936-2.214
				c3.432-6.375,8.306-11.414,14.317-15.375c5.621-3.704,11.846-6.113,18.135-8.375c5.326-1.914,10.643-3.631,16.478-3.426
				c1.711,0.059,3.707-1.203,5.173-2.366c3.463-2.75,4.63-6.83,4.76-10.979c0.303-9.664-3.352-15.071-12.66-15.919
				c-0.102-0.009-0.203-0.026-0.305-0.038c-10.838-1.187-21.589-2.801-31.896-6.56c-5.285-1.927-10.556-3.893-15.979-5.894
				c0-1.295,0-2.306,0-3.317c-0.002-2.571-0.051-5.144,0.018-7.71c0.036-1.362-0.424-2.284-1.542-3.112
				c-1.64-1.217-3.177-2.591-4.642-4.016c-0.568-0.554-0.828-1.426-1.228-2.153c0.155-0.205,0.312-0.41,0.468-0.613
				c2.17,0.383,4.341,0.767,6.716,1.188c0-1.314,0-2.583,0-4.03c-8.713-3.51-17.369-7.018-26.046-10.465
				c-0.862-0.343-1.864-0.341-2.801-0.5c-0.146,0.207-0.295,0.415-0.441,0.622c0.478,0.95,0.846,1.977,1.455,2.833
				c4.355,6.13,9.467,11.587,15.048,16.609c2.182,1.962,4.173,4.043,5.861,7.005c-2.483,0.379-4.523,0.523-6.472,1.017
				c-5.896,1.492-11.778,1.267-17.723,0.331c-9.225-1.452-18.424-3.019-27.833-3.013c-4.589,0.004-9.182-0.813-13.771-1.27
				c-1.491-0.148-2.668-0.84-3.692-1.961C798.022-65.173,796.189-66.963,794.19-69.012z M763.166,280.043
				c2.156-0.87,3.967-1.514,5.702-2.319c5.048-2.351,7.034-5.851,6.437-11.384c-0.165-1.521-0.426-3.081-0.964-4.502
				c-1.971-5.182-4.152-10.276-6.111-15.462c-2.359-6.235-4.858-12.438-6.779-18.81c-2.458-8.151-3.33-16.562-1.416-24.969
				c2.465-10.812,8.572-18.54,19.671-21.488c7.07-1.881,13.869-0.446,20.435,2.337c6.172,2.618,11.89,6.092,17.327,9.971
				c17.974,12.83,36.231,25.207,55.729,35.645c0.927,0.496,1.886,0.935,3.091,1.524c0-2.265,0-3.998,0-5.782
				c-0.548-0.355-1.047-0.701-1.566-1.01c-5.375-3.219-10.912-6.196-16.1-9.688c-12.677-8.54-25.188-17.321-37.774-25.998
				c-7.621-5.253-15.374-10.258-24.094-13.573c-18.146-6.897-34.885-2.197-46.56,13.207c-3.434,4.526-5.858,9.64-8.105,14.836
				c-2.405,5.555-4.771,11.133-7.394,16.587c-2.831,5.894-7.213,10.435-12.965,13.61c-0.676,0.374-1.298,0.848-1.982,1.301
				c8.084,8.062,16.01,15.966,23.789,23.725c-0.366,1.306-0.621,2.205-1.021,3.618c-3.083-2.226-5.773-0.259-8.584,0.273
				c-2.421,0.46-4.801,1.133-7.204,1.689c-2.273,0.532-4.551,1.047-7.074,1.618c0,7.85,0,15.52,0,23.07
				c-6.961,2.5-11.941,1.773-17.374-2.312c-4.346-3.272-7.533-7.537-10.331-12.101c-9.219-15.044-13.947-31.426-14.502-49.038
				c-0.064-2.011,0.25-4.118-1.69-5.649c-0.438-0.346-0.408-1.302-0.566-1.985c-0.135-0.579-0.031-1.349-0.371-1.719
				c-1.551-1.683-3.224-3.254-5.282-5.293c-0.325,3.852-0.713,6.979-0.829,10.118c-0.278,7.504,0.194,14.987,1.312,22.406
				c3.235,21.478,11.049,41.186,23.438,59.018c6.589,9.485,14.374,17.91,23.721,24.792c0.673,0.497,1.447,0.853,2.505,1.468
				c0-4.236-0.056-7.933,0.015-11.625c0.07-3.621-0.304-7.264,0.264-11.169c1.437,0.859,2.567,1.539,3.699,2.215
				c4.889,2.906,10.059,5.136,15.593,6.479c7.171,1.741,14.314,2.054,21.039-1.513c7.275-3.855,15.063-5.938,23.074-7.422
				c1.041-0.191,2.055-0.547,3.546-0.95C778.81,295.692,771.072,287.954,763.166,280.043z M876.368,121.587
				c0,3.835,0.035,7.078-0.017,10.32c-0.022,1.292,0.319,2.332,1.11,3.391c2.09,2.789,4.155,5.608,6.008,8.56
				c3.32,5.289,5.729,10.891,5.386,17.36c-0.227,4.279-1.625,8.216-3.209,12.128c-1.31,3.229-2.707,6.44-3.746,9.759
				c-2.732,8.723-2.658,17.407,1.245,25.807c1.596,3.434,3.627,6.663,5.389,10.025c0.995,1.902,2.065,3.814,2.708,5.842
				c1.036,3.272-0.305,5.089-3.76,5.405c-1.468,0.133-2.956,0.021-4.511,0.021c0.139,0.471,0.136,0.705,0.253,0.82
				c4.051,4.088,8.08,8.197,12.21,12.204c0.673,0.653,1.757,1.053,2.711,1.222c6.811,1.208,13.499,0.654,20.026-1.646
				c1.16-0.406,2.327-0.845,3.396-1.441c2.63-1.468,3.384-3.424,2.247-6.16c-0.623-1.503-1.509-2.916-2.432-4.268
				c-2.773-4.067-5.844-7.947-8.402-12.14c-5.296-8.677-5.569-17.659-0.647-26.616c1.877-3.416,4.128-6.616,6.13-9.964
				c4.913-8.234,4.602-14.231-1.068-21.923c-0.185-0.244-0.393-0.471-0.577-0.719c-4.641-6.206-10.461-11.266-16.128-16.454
				c-6.191-5.671-12.538-11.176-18.824-16.742C880.211,124.911,878.533,123.471,876.368,121.587z M937.887,136.532
				c-1.301-0.496-2.269-0.801-3.181-1.224c-7.072-3.288-14.228-6.407-21.178-9.939c-12.563-6.389-24.256-14.191-35.488-22.686
				c-0.684-0.517-1.612-1.436-1.553-2.087c0.223-2.424-1.256-3.538-2.765-5.037c-9.888-9.839-19.969-19.48-28.798-30.354
				c-14.364-17.693-21.318-37.917-21.486-60.558c-0.088-11.968,1.713-23.708,4.937-35.232c0.964-3.448,0.569-4.327-2.697-5.977
				c-0.161,0.494-0.347,0.963-0.463,1.448c-3.665,15.104-6.009,30.314-5.063,45.971c0.714,11.814,3.114,23.149,7.617,34.059
				c4.068,9.861,9.877,18.697,16.555,26.921c9.939,12.24,20.138,24.27,30.235,36.38c0.393,0.468,0.855,0.896,1.351,1.248
				c1.392,0.988,2.909,1.82,4.22,2.902c17.221,14.212,35.784,26.428,55.278,37.262c0.741,0.414,1.574,0.666,2.719,1.136
				c0-4.182,0-7.86,0-11.784c4.289,1.029,8.327,2,12.365,2.967c0.114-0.184,0.229-0.37,0.341-0.558
				c-2.061-1.949-4.221-3.809-6.157-5.877c-1.795-1.915-3.98-2.167-6.452-2.316C938.109,134.319,938.02,135.22,937.887,136.532z
				 M849.361,241.702c0.891,2.344,2.403,4.095,4.277,5.573c5.146,4.053,10.286,8.108,15.447,12.143
				c2.224,1.736,4.49,3.416,7.307,5.552c0-3.812,0-7.005,0-10.572c1.114,0.54,1.756,0.827,2.372,1.158
				c13.229,7.026,26.448,14.07,39.685,21.082c6.24,3.305,12.7,6.109,19.431,8.454c0-7.386,0-14.639,0-22.1
				c-6.329,0.291-11.91,2.441-17.507,4.739c0.33,0.716,0.558,1.212,0.856,1.862c-2.036-0.312-3.965-0.13-5.422-1.693
				c-0.387-0.417-1.106-0.511-1.665-0.773c-4.648-2.168-9.242-4.465-13.954-6.486c-9.083-3.888-17.046-10.086-26.694-12.812
				c-2.158-0.606-4.155-1.769-6.292-2.484c-4.565-1.527-9.16-2.977-13.775-4.357C852.189,240.616,850.801,240.324,849.361,241.702z
				 M719.825-19.761c3.381,1.299,6.377,0.674,9.123-1.285c2.534-1.805,4.488-4.201,6.059-6.853
				c8.385-14.163,12.296-29.395,11.083-45.912c-0.374-5.105-0.467-10.262-0.215-15.371c0.234-4.728,2.939-7.061,7.663-6.958
				c3.474,0.075,6.938,0.625,10.406,0.952c1.14,0.107,2.281,0.177,4.01,0.308c-0.805-0.932-1.103-1.329-1.452-1.675
				c-3.147-3.098-6.273-6.214-9.476-9.257c-0.946-0.9-2.014-2.01-3.191-2.271c-3.385-0.753-6.84-1.365-10.295-1.567
				c-3.073-0.181-4.995,1.493-5.817,4.478c-0.404,1.466-0.619,3.021-0.655,4.542c-0.171,6.735,1.573,13.216,2.746,19.771
				c1.759,9.826,2.947,19.68,0.918,29.616c-1.446,7.097-3.896,13.793-8.142,19.753c-3.069,4.311-6.849,6.737-12.345,4.947
				c-0.08-0.026-0.185,0.032-0.42,0.081C719.825-24.27,719.825-22.05,719.825-19.761z M876.802,89.64
				c-0.756,3.769-0.741,3.891,1.411,5.507c17.782,13.349,36.792,24.564,57.377,33.041c0.709,0.289,1.468,0.453,2.325,0.714
				c0-1.914,0-3.53,0-5.261C915.814,115.404,895.532,104.021,876.802,89.64z M879.015,76.722
				c9.538,12.16,46.004,29.31,58.886,31.291c0-1.723,0-3.429,0-5.323C916.645,97.569,897.457,87.964,879.015,76.722z
				 M980.886,172.041c-2.108-2.261-3.808-4.142-5.565-5.961c-1.457-1.503-3.227-2.266-5.333-2.719
				c-9.816-2.11-19.52-4.664-28.89-8.342c-0.891-0.349-1.857-0.496-2.863-0.755c0,1.931,0,3.531,0,5.232
				C951.99,164.917,965.96,169.096,980.886,172.041z M875.705,85.009c0.222-0.12,0.444-0.239,0.664-0.36
				c0-0.903-0.104-1.822,0.02-2.708c0.398-2.836-0.78-4.628-3.025-6.43c-5.729-4.603-11.314-9.414-16.669-14.449
				c-3.486-3.28-6.468-7.099-9.67-10.682c-1.126-1.259-2.234-2.533-3.351-3.8c-0.213,0.119-0.424,0.238-0.636,0.355
				c0.678,1.533,1.278,3.107,2.051,4.591c3.146,6.043,7.352,11.328,12.073,16.179c4.211,4.326,8.624,8.464,13.012,12.617
				C871.929,81.979,873.857,83.452,875.705,85.009z M856.545,46.716c-0.293,0.292-0.587,0.584-0.883,0.875
				c4.784,9.197,12.049,16.077,20.557,22.28c0.214-2.249,0.452-3.933-1.264-5.231c-5.642-4.264-10.945-8.909-15.559-14.293
				C858.396,49.181,857.492,47.927,856.545,46.716z"/>
			<linearGradient id="SVGID_3_" gradientUnits="userSpaceOnUse" x1="631.5518" y1="387.9199" x2="631.5518" y2="41.4741">
				<stop  offset="0" style="stop-color:#00FFCC"/>
				<stop  offset="1" style="stop-color:#00D2FF"/>
			</linearGradient>
			<path fill-rule="evenodd" clip-rule="evenodd" fill="url(#SVGID_3_)" d="M558.773,137.013c2.352-0.554,3.225-2.721,4.596-4.3
				c3.801-4.375,6.567-9.412,8.961-14.658c0.374-0.817,0.737-1.552-0.002-2.535c-0.78-1.036-0.319-1.843,1.089-1.958
				c0.462-0.036,0.903-0.309,1.646-0.581c3.183,3.299,6.458,6.694,10.095,10.464c0.745-1.282,1.33-2.174,1.806-3.122
				c4.166-8.321,7.151-17.083,8.61-26.238c1.596-10.024,2.571-20.145,3.864-30.217c0.6-4.676,1.217-9.354,2.005-14
				c0.271-1.586,0.93-3.162,1.688-4.598c1.767-3.352,4.555-4.437,8.277-3.442c3.951,1.058,7.423,3.125,10.479,5.704
				c5.09,4.295,10.102,8.711,14.826,13.4c5.971,5.926,11.704,12.101,17.387,18.308c5.674,6.199,11.107,12.617,16.741,18.854
				c5.363,5.935,10.868,11.743,16.277,17.639c4.231,4.607,8.476,9.207,12.575,13.93c1.327,1.53,2.336,3.378,3.281,5.19
				c2.231,4.27,2.029,8.315-3.038,12.508c-5.04,4.171-11.18,5.922-17.402,7.429c-6.727,1.629-13.607,1.967-20.456,2.578
				c-5.162,0.46-10.048,1.852-13.3,6.142c-1.949,2.571-3.277,5.642-4.674,8.591c-0.689,1.456-0.938,3.131-1.316,4.729
				c-0.727,3.066-0.704,3.071,1.334,5.724c-2.672,3.51-6.034,6.347-9.802,8.623c-4.125,2.488-8.544,4.495-12.665,6.99
				c-3.585,2.169-7.242,4.387-10.326,7.181c-6.071,5.498-8.563,12.607-7.892,20.791c0.664,8.091,3.413,15.642,6.201,23.132
				c6.979,18.759,14.375,37.363,21.184,56.177c5.481,15.148,10.203,30.574,15.543,45.773c3.978,11.326,8.41,22.492,12.639,33.729
				c0.285,0.759,0.566,1.518,1.11,2.974c-0.988-0.762-1.523-1.093-1.957-1.525c-4.083-4.059-8.218-8.068-12.177-12.246
				c-1.153-1.216-2.06-2.826-2.623-4.416c-5.414-15.285-10.865-30.561-16.041-45.932c-6.132-18.217-12.971-36.131-21.777-53.243
				c-5.948-11.557-13.09-22.261-22.308-31.546c-4.547-4.577-8.776-9.481-13.021-14.348c-1.539-1.769-2.817-3.796-4.013-5.828
				c-4.223-7.169-3.845-14.243,0.664-21.183c3.455-5.322,8.141-9.489,12.766-13.707c5.979-5.455,12.189-10.665,18.042-16.249
				c3.248-3.1,6.024-6.703,8.896-10.172c1.683-2.028,3.35-4.146,3.276-6.465c-4.148-4.125-8.057-8.012-12.021-11.953
				c-0.038,0.047-0.326,0.327-0.501,0.665c-6.064,11.748-14.999,20.974-25.467,28.802c-4.26,3.187-8.713,6.109-13.08,9.155
				C558.773,164.159,558.773,150.585,558.773,137.013z M618.531,156.41c2.037,2.24,3.785,4.261,6.215,6.048
				c0-1.597,0.115-2.729-0.028-3.83c-0.208-1.586-0.149-3.538-1.909-4.232C621.095,153.717,620.136,155.464,618.531,156.41z"/>
			<linearGradient id="SVGID_4_" gradientUnits="userSpaceOnUse" x1="675.6924" y1="522.5713" x2="675.6924" y2="233.8667">
				<stop  offset="0" style="stop-color:#00FFCC"/>
				<stop  offset="1" style="stop-color:#00D2FF"/>
			</linearGradient>
			<path fill-rule="evenodd" clip-rule="evenodd" fill="url(#SVGID_4_)" d="M558.773,233.866c0.562,0.224,1.186,0.353,1.673,0.684
				c8.59,5.796,16.921,11.916,24.373,19.176c7.509,7.317,13.284,15.879,18.182,25.062c8.535,15.998,14.717,32.948,20.264,50.172
				c3.145,9.767,6.704,19.403,10.083,29.094c0.17,0.481,0.3,1.05,0.641,1.385c3.499,3.44,4.673,8.151,6.64,12.383
				c8.859,19.054,19.623,36.982,31.78,54.073c6.53,9.181,13.369,18.152,20.3,27.041c6.761,8.669,14.4,16.515,23.245,23.113
				c1.04,0.78,2.125,1.499,3.639,2.561c0-7.912,0-15.25,0-22.945c0.968,0.436,1.622,0.637,2.173,0.996
				c12.087,7.911,25.377,12.941,39.306,16.443c3.483,0.874,6.996,1.636,10.455,2.59c1.234,0.341,2.603,0.849,3.487,1.707
				c5.746,5.591,11.375,11.298,17.034,16.976c0.211,0.213,0.343,0.501,0.565,0.835c-2.646,2.57-5.414,4.157-9.442,4.113
				c-19.833-0.208-39.67-0.097-59.504-0.097c-1.209,0-2.419,0-3.884,0c0,7.996,0,15.67,0,23.344c-7.815,0-15.63,0-23.442,0
				c-0.706-0.379-1.392-0.81-2.124-1.127c-5.467-2.361-10.959-4.663-16.407-7.072c-1.255-0.553-2.369-1.431-3.665-2.233
				c2.153-2.344,4.485-3.261,7.127-3.375c1.638-0.072,3.287-0.015,4.923,0.093c6.354,0.41,12.707,0.873,19.013-0.461
				c3.23-0.683,6.388-1.578,8.99-3.771c2.289-1.931,2.963-4.034,1.991-6.843c-0.429-1.248-0.964-2.534-1.766-3.556
				c-2.645-3.388-5.396-6.692-8.176-9.971c-4.901-5.783-10.188-11.27-14.704-17.332c-9.065-12.169-17.903-24.516-26.503-37.016
				c-16.92-24.602-31.269-50.631-42.612-78.286c-0.233-0.562-0.384-1.227-0.783-1.64c-2.479-2.575-5.019-5.085-7.536-7.624
				c-0.235,1.137-0.057,2.003,0.278,2.809c2.085,5.02,4.148,10.051,6.321,15.034c8.422,19.32,18.255,37.918,29.1,55.979
				c8.349,13.909,16.851,27.724,25.157,41.658c2.781,4.66,5.401,9.46,6.704,14.813c1.373,5.653-0.797,8.548-6.646,8.522
				c-2.85-0.012-5.735-0.41-8.537-0.975c-9.103-1.837-17.636-5.427-26.252-8.76c-1.908-0.736-3.911-1.876-5.822-1.794
				c-2.361,0.108-3.562-1.058-4.935-2.435c-22.596-22.61-45.193-45.209-67.817-67.791c-0.829-0.827-1.919-1.391-2.886-2.078
				c0-6.99,0-13.983,0-20.974c0.957,0.55,1.98,1.01,2.861,1.661c7.85,5.785,15.767,11.463,24.441,15.979
				c3.746,1.949,7.574,3.711,11.837,4.186c3.704,0.416,5.774-1.137,6.676-4.769c0.846-3.419,0.203-6.782-0.595-10.036
				c-1.584-6.469-3.277-12.933-5.334-19.266c-5.295-16.303-10.825-32.523-16.229-48.787c-0.994-2.988-1.837-6.03-2.75-9.04
				c2.279,1.471,4.09,3.24,5.887,5.02c1.752,1.737,3.489,3.488,5.232,5.229c1.817,1.819,3.625,3.643,5.452,5.447
				c1.741,1.723,3.504,3.42,5.258,5.132c0.208-0.145,0.416-0.292,0.624-0.435c-1.917-5.398-3.692-10.846-5.779-16.175
				c-5.861-14.979-13.567-28.784-26.287-39.132c-3.555-2.892-7.518-5.283-11.294-7.908
				C558.773,253.607,558.773,243.737,558.773,233.866z"/>
			<linearGradient id="SVGID_5_" gradientUnits="userSpaceOnUse" x1="569.7427" y1="111.4277" x2="569.7427" y2="6.5566">
				<stop  offset="0" style="stop-color:#00FFCC"/>
				<stop  offset="1" style="stop-color:#00D2FF"/>
			</linearGradient>
			<path fill-rule="evenodd" clip-rule="evenodd" fill="url(#SVGID_5_)" d="M558.773,22.271c0.818-0.551,1.749-0.991,2.441-1.672
				c3.882-3.811,7.703-7.684,11.555-11.525c0.786-0.784,1.614-1.524,2.673-2.518c0.229,0.736,0.433,1.152,0.482,1.585
				c0.743,6.619,1.295,13.265,2.233,19.854c2.175,15.271,3.216,30.581,2.101,45.989c-0.851,11.71-3.07,23.147-7.373,34.12
				c-0.411,1.046-0.9,2.061-1.454,3.323c-0.715-0.592-1.358-1.046-1.911-1.593c-2.771-2.744-5.491-5.541-8.299-8.249
				c-0.687-0.664-1.625-1.063-2.448-1.586C558.773,74.091,558.773,48.181,558.773,22.271z"/>
			<linearGradient id="SVGID_6_" gradientUnits="userSpaceOnUse" x1="666.1738" y1="134.7583" x2="666.1738" y2="-21.4961">
				<stop  offset="0" style="stop-color:#00FFCC"/>
				<stop  offset="1" style="stop-color:#00D2FF"/>
			</linearGradient>
			<path fill-rule="evenodd" clip-rule="evenodd" fill="url(#SVGID_6_)" d="M719.772,90.886c0-7.494,0-14.848,0-22.1
				c0.354-0.134,0.475-0.228,0.541-0.198c12.536,5.615,22.263,13.847,25.794,27.807c1.719,6.793,0.387,13.056-3.608,18.739
				c-4.61,6.559-10.748,11.52-17.249,16.062c-1.651,1.156-3.354,2.237-5.353,3.562c-0.101-1.011-0.282-1.599-0.193-2.145
				c0.497-3.118-0.887-5.526-2.691-7.872c-5.283-6.855-11.261-13.007-17.908-18.558c-4.479-3.739-8.838-7.64-13.065-11.664
				c-6.696-6.374-13.367-12.782-19.8-19.417c-5.419-5.59-10.49-11.518-15.703-17.308c-5.21-5.789-10.371-11.624-15.615-17.382
				c-4.903-5.385-9.719-10.863-14.873-16.004c-8.569-8.544-17.251-17.002-27.558-23.521c-2.238-1.416-4.653-2.552-6.986-3.817
				c1.062-1.954,15.13-16.257,18.299-18.566c2.306,2.404,4.677,4.791,6.946,7.268c3.741,4.079,7.45,8.188,11.109,12.339
				c5.215,5.916,10.433,11.834,15.544,17.842c5.705,6.706,11.223,13.573,16.945,20.259c8.004,9.35,16.074,18.646,24.956,27.185
				c11.311,10.873,23.717,20.218,37.99,26.921c0.463,0.217,0.926,0.439,1.405,0.615C718.871,90.995,719.091,90.923,719.772,90.886z
				 M719.676,106.852c0,1.944-0.015,3.887,0.006,5.83c0.02,1.944,0.074,3.889,0.114,5.832
				C722.816,114.577,722.603,110.7,719.676,106.852z"/>
			<linearGradient id="SVGID_7_" gradientUnits="userSpaceOnUse" x1="1047.9316" y1="214.1909" x2="1047.9316" y2="183.5723">
				<stop  offset="0" style="stop-color:#00FFCC"/>
				<stop  offset="1" style="stop-color:#00D2FF"/>
			</linearGradient>
			<path fill-rule="evenodd" clip-rule="evenodd" fill="url(#SVGID_7_)" d="M1069.229,183.572c0.225,2.632,0.451,5.265,0.708,8.271
				c9.141,0.432,18.411-0.011,27.916-0.453c0,1.826,0,3.495,0,5.555c-9.337,0.162-18.539,0.32-28.071,0.482
				c0,5.469,0,10.866,0,16.295c-0.674,0.202-1.044,0.396-1.42,0.407c-8.734,0.166-17.465,0.046-26.147-0.985
				c-6.726-0.798-13.425-1.791-20.139-2.693c-1.548-0.205-2.921-0.633-4.1-1.83c-6.279-6.372-12.631-12.668-18.949-19
				c-0.275-0.277-0.486-0.615-1.017-1.294c1.113,0.061,1.867,0.028,2.593,0.158c16.873,2.949,33.728,2.614,50.536-0.45
				c5.448-0.996,10.834-2.33,16.237-3.556c0.671-0.151,1.283-0.557,1.914-0.856C1069.281,183.612,1069.229,183.572,1069.229,183.572
				z"/>
			<linearGradient id="SVGID_8_" gradientUnits="userSpaceOnUse" x1="680.2656" y1="12.5073" x2="680.2656" y2="-63.04">
				<stop  offset="0" style="stop-color:#00FFCC"/>
				<stop  offset="1" style="stop-color:#00D2FF"/>
			</linearGradient>
			<path fill-rule="evenodd" clip-rule="evenodd" fill="url(#SVGID_8_)" d="M719.501,4.104c0,2.747,0,5.479,0,8.403
				c-2.327-0.177-4.122-1.218-5.738-2.393c-3.392-2.465-6.755-4.996-9.916-7.748c-5.95-5.177-11.81-10.462-17.595-15.825
				c-6.168-5.717-12.24-11.539-18.29-17.383c-3.918-3.786-7.774-7.636-11.555-11.559c-4.909-5.095-9.718-10.287-14.557-15.45
				c-0.268-0.285-0.419-0.68-0.82-1.348c1.472-1.223,2.951-2.45,4.626-3.841c0.504,0.471,1.331,1.183,2.09,1.961
				c6.683,6.822,13.189,13.824,20.071,20.437c6.421,6.171,13.238,11.933,19.88,17.875c4.503,4.029,9.002,8.065,13.509,12.09
				c3.972,3.548,7.883,7.17,11.964,10.59C715.037,1.475,717.245,2.631,719.501,4.104z"/>
			<linearGradient id="SVGID_9_" gradientUnits="userSpaceOnUse" x1="1086.1895" y1="59.6694" x2="1086.1895" y2="13.5811">
				<stop  offset="0" style="stop-color:#00FFCC"/>
				<stop  offset="1" style="stop-color:#00D2FF"/>
			</linearGradient>
			<path fill-rule="evenodd" clip-rule="evenodd" fill="url(#SVGID_9_)" d="M1097.934,59.669
				c-7.992-7.994-15.742-15.748-23.635-23.645c8.252-6.708,16.237-14.009,22.952-22.443c0.328,0.097,0.439,0.106,0.522,0.16
				c0.075,0.046,0.167,0.14,0.17,0.214c0.053,14.484,0.099,28.965,0.137,43.45C1098.082,58.097,1097.992,58.791,1097.934,59.669z"/>
			<linearGradient id="SVGID_10_" gradientUnits="userSpaceOnUse" x1="950.0762" y1="342.1123" x2="950.0762" y2="317.3862">
				<stop  offset="0" style="stop-color:#00FFCC"/>
				<stop  offset="1" style="stop-color:#00D2FF"/>
			</linearGradient>
			<path fill-rule="evenodd" clip-rule="evenodd" fill="url(#SVGID_10_)" d="M961.907,341.034
				c-8.299,2.424-16.05,0.544-23.661-3.495c0-6.886,0-13.685,0-20.153C946.025,325.163,953.879,333.01,961.907,341.034z"/>
			<linearGradient id="SVGID_11_" gradientUnits="userSpaceOnUse" x1="1048.7617" y1="227.6172" x2="1048.7617" y2="218.7031">
				<stop  offset="0" style="stop-color:#00FFCC"/>
				<stop  offset="1" style="stop-color:#00D2FF"/>
			</linearGradient>
			<path fill-rule="evenodd" clip-rule="evenodd" fill="url(#SVGID_11_)" d="M1069.398,227.617
				c-10.27-0.626-20.288-1.319-30.317-1.787c-2.971-0.141-5.336-0.942-7.212-3.305c-1.049-1.323-2.368-2.438-3.744-3.822
				c13.963,1.359,27.475,2.675,41.273,4.02C1069.398,223.975,1069.398,225.535,1069.398,227.617z"/>
			<linearGradient id="SVGID_12_" gradientUnits="userSpaceOnUse" x1="884.0039" y1="466.6748" x2="884.0039" y2="446.3369">
				<stop  offset="0" style="stop-color:#00FFCC"/>
				<stop  offset="1" style="stop-color:#00D2FF"/>
			</linearGradient>
			<path fill-rule="evenodd" clip-rule="evenodd" fill="url(#SVGID_12_)" d="M876.524,466.675c0-6.433,0-13.251,0-20.338
				c5.215,1.898,10.272,3.736,14.959,5.44C886.594,456.649,881.548,461.673,876.524,466.675z"/>
			<linearGradient id="SVGID_13_" gradientUnits="userSpaceOnUse" x1="940.6367" y1="435.6006" x2="940.6367" y2="415.9453">
				<stop  offset="0" style="stop-color:#00FFCC"/>
				<stop  offset="1" style="stop-color:#00D2FF"/>
			</linearGradient>
			<path fill-rule="evenodd" clip-rule="evenodd" fill="url(#SVGID_13_)" d="M938.214,435.601c0-6.549,0-13.05,0-19.555
				c0.167-0.032,0.332-0.067,0.498-0.101c1.431,5.069,2.861,10.14,4.348,15.412C941.547,432.681,939.957,434.072,938.214,435.601z"
				/>
			<linearGradient id="SVGID_14_" gradientUnits="userSpaceOnUse" x1="798.2402" y1="24.0859" x2="798.2402" y2="-57.7666">
				<stop  offset="0" style="stop-color:#00FFCC"/>
				<stop  offset="1" style="stop-color:#00D2FF"/>
			</linearGradient>
			<path fill-rule="evenodd" clip-rule="evenodd" fill="url(#SVGID_14_)" d="M807.034-57.767c0.392,0.142,0.508,0.152,0.578,0.214
				c3.935,3.374,3.99,3.387,2.753,8.312c-2.576,10.234-5.175,20.462-7.838,30.676c-2.872,11-5.775,21.991-8.799,32.949
				c-0.677,2.45-1.847,4.775-2.918,7.102c-0.542,1.174-1.112,2.491-2.822,2.601c-1.859-1.019-2.005-2.945-2.263-4.741
				c-0.768-5.357-0.048-10.649,0.945-15.903c2.061-10.92,5.885-21.333,9.438-31.809c3.226-9.506,6.768-18.907,10.189-28.348
				C806.432-57.083,806.76-57.384,807.034-57.767z"/>
		</g>
	</g>
</g>
</svg>
