<?xml version="1.0" encoding="utf-8"?>
<!-- Generator: Adobe Illustrator 16.0.0, SVG Export Plug-In . SVG Version: 6.00 Build 0)  -->
<!DOCTYPE svg PUBLIC "-//W3C//DTD SVG 1.1//EN" "http://www.w3.org/Graphics/SVG/1.1/DTD/svg11.dtd">
<svg version="1.1" id="Layer_1" xmlns="http://www.w3.org/2000/svg" xmlns:xlink="http://www.w3.org/1999/xlink" x="0px" y="0px"
	 width="900px" height="650px" viewBox="0 0 900 650" enable-background="new 0 0 900 650" xml:space="preserve">
<g>
	<linearGradient id="SVGID_1_" gradientUnits="userSpaceOnUse" x1="45.813" y1="-98.2988" x2="45.8129" y2="829.5659">
		<stop  offset="0" style="stop-color:#FFFFFF"/>
		<stop  offset="1" style="stop-color:#80CEF2"/>
	</linearGradient>
	<path fill="url(#SVGID_1_)" d="M743.769,829.565c16.023-60.966,24.573-125.047,24.573-191.167
		c0-406.873-323.485-736.697-722.528-736.697c-399.042,0-722.528,329.824-722.528,736.697c0,66.12,8.551,130.201,24.574,191.167
		H743.769z"/>
	<linearGradient id="SVGID_2_" gradientUnits="userSpaceOnUse" x1="-1526.085" y1="648.4219" x2="676.4072" y2="648.4219">
		<stop  offset="0" style="stop-color:#FFFFFF"/>
		<stop  offset="1" style="stop-color:#9BB75A"/>
	</linearGradient>
	<path fill="url(#SVGID_2_)" d="M676.407,728.658h-2202.492c0,0,0-84.149,0-160.473c850.762,91.979,2202.492,63.247,2202.492,63.247
		V728.658z"/>
	<g opacity="0.5">
		<g opacity="0.3">
			<path fill="#0D4C6F" d="M375.013,181.935c-1.672,0-3.222-1.081-3.74-2.765c-0.634-2.066,0.525-4.256,2.592-4.891l79.55-24.45
				c2.062-0.634,4.255,0.522,4.892,2.591c0.635,2.066-0.525,4.257-2.591,4.891l-79.551,24.451
				C375.781,181.879,375.395,181.935,375.013,181.935z"/>
			<path fill="#0D4C6F" d="M380.505,199.808c-1.672,0-3.222-1.082-3.74-2.766c-0.635-2.066,0.525-4.256,2.591-4.891l79.552-24.451
				c2.062-0.632,4.257,0.522,4.894,2.592c0.635,2.065-0.526,4.256-2.592,4.89l-79.552,24.451
				C381.274,199.751,380.888,199.808,380.505,199.808z"/>
			<path fill="#0D4C6F" d="M386.002,217.684c-1.672,0-3.222-1.081-3.74-2.765c-0.634-2.066,0.525-4.256,2.591-4.89l79.55-24.453
				c2.063-0.634,4.257,0.522,4.892,2.591c0.636,2.066-0.525,4.256-2.59,4.891l-79.551,24.453
				C386.77,217.628,386.384,217.684,386.002,217.684z"/>
			<path fill="#0D4C6F" d="M391.496,235.559c-1.672,0-3.222-1.082-3.74-2.766c-0.634-2.066,0.525-4.256,2.591-4.89l79.551-24.453
				c2.061-0.635,4.254,0.522,4.892,2.591c0.636,2.066-0.525,4.256-2.591,4.891l-79.551,24.453
				C392.265,235.502,391.878,235.559,391.496,235.559z"/>
			<path fill="#0D4C6F" d="M355.998,187.779c-1.674,0-3.222-1.083-3.74-2.767c-0.635-2.066,0.527-4.256,2.593-4.891l3.083-0.945
				c2.066-0.633,4.255,0.527,4.891,2.593c0.634,2.066-0.528,4.256-2.594,4.89l-3.082,0.946
				C356.765,187.724,356.377,187.779,355.998,187.779z"/>
			<path fill="#0D4C6F" d="M361.494,205.656c-1.672,0-3.22-1.081-3.739-2.762c-0.636-2.066,0.522-4.256,2.588-4.893l3.083-0.95
				c2.06-0.64,4.254,0.522,4.893,2.588c0.636,2.066-0.522,4.256-2.587,4.893l-3.083,0.95
				C362.264,205.6,361.876,205.656,361.494,205.656z"/>
			<path fill="#0D4C6F" d="M366.986,223.529c-1.674,0-3.224-1.083-3.74-2.768c-0.635-2.067,0.528-4.256,2.595-4.89l3.083-0.946
				c2.075-0.636,4.258,0.527,4.891,2.594c0.634,2.066-0.528,4.256-2.596,4.89l-3.083,0.946
				C367.752,223.473,367.366,223.529,366.986,223.529z"/>
			<path fill="#0D4C6F" d="M372.479,241.403c-1.674,0-3.222-1.083-3.74-2.766c-0.635-2.066,0.527-4.256,2.594-4.892l3.086-0.947
				c2.067-0.639,4.254,0.526,4.891,2.591c0.634,2.067-0.526,4.257-2.594,4.892l-3.087,0.947
				C373.247,241.348,372.859,241.403,372.479,241.403z"/>
		</g>
		<g opacity="0.3">
			<path fill="#0D4C6F" d="M398.142,257.178c-1.672,0-3.222-1.082-3.74-2.765c-0.635-2.066,0.525-4.256,2.591-4.891l79.55-24.453
				c2.06-0.635,4.256,0.523,4.893,2.592c0.635,2.065-0.525,4.256-2.592,4.89l-79.55,24.453
				C398.909,257.121,398.523,257.178,398.142,257.178z"/>
			<path fill="#0D4C6F" d="M403.634,275.05c-1.672,0-3.222-1.082-3.74-2.764c-0.635-2.067,0.525-4.257,2.592-4.892l79.548-24.453
				c2.061-0.635,4.256,0.523,4.893,2.59c0.635,2.067-0.525,4.257-2.592,4.892l-79.548,24.453
				C404.402,274.994,404.016,275.05,403.634,275.05z"/>
			<path fill="#0D4C6F" d="M409.128,292.925c-1.672,0-3.222-1.082-3.74-2.766c-0.635-2.064,0.525-4.255,2.591-4.89l79.55-24.453
				c2.061-0.635,4.257,0.523,4.893,2.592c0.635,2.065-0.525,4.255-2.592,4.89l-79.55,24.453
				C409.896,292.869,409.51,292.925,409.128,292.925z"/>
			<path fill="#0D4C6F" d="M414.623,310.798c-1.673,0-3.222-1.082-3.74-2.765c-0.634-2.066,0.525-4.256,2.591-4.891l79.549-24.453
				c2.062-0.635,4.258,0.522,4.894,2.591c0.634,2.066-0.525,4.256-2.593,4.891l-79.549,24.453
				C415.391,310.741,415.005,310.798,414.623,310.798z"/>
			<path fill="#0D4C6F" d="M379.125,263.02c-1.674,0-3.224-1.083-3.74-2.767c-0.634-2.067,0.527-4.257,2.596-4.89l3.083-0.946
				c2.077-0.633,4.257,0.527,4.89,2.594c0.635,2.067-0.528,4.257-2.596,4.89l-3.082,0.946
				C379.893,262.964,379.506,263.02,379.125,263.02z"/>
			<path fill="#0D4C6F" d="M384.62,280.895c-1.672,0-3.222-1.082-3.74-2.765c-0.635-2.066,0.525-4.256,2.591-4.892l3.083-0.947
				c2.06-0.636,4.255,0.522,4.893,2.59c0.634,2.066-0.526,4.256-2.591,4.892l-3.083,0.948
				C385.388,280.838,385.002,280.895,384.62,280.895z"/>
			<path fill="#0D4C6F" d="M390.115,298.77c-1.672,0-3.222-1.082-3.74-2.765c-0.635-2.065,0.525-4.256,2.591-4.891l3.083-0.947
				c2.06-0.637,4.255,0.522,4.892,2.589c0.635,2.066-0.525,4.256-2.592,4.893l-3.083,0.947
				C390.882,298.712,390.497,298.77,390.115,298.77z"/>
			<path fill="#0D4C6F" d="M395.609,316.642c-1.675,0-3.222-1.082-3.74-2.767c-0.636-2.066,0.527-4.255,2.593-4.891l3.083-0.945
				c2.068-0.633,4.256,0.526,4.89,2.594c0.635,2.066-0.527,4.256-2.593,4.891l-3.082,0.945
				C396.377,316.586,395.989,316.642,395.609,316.642z"/>
		</g>
		<g opacity="0.3">
			<path fill="#0D4C6F" d="M545.235,232.66c-1.671,0-3.222-1.082-3.739-2.765c-0.635-2.065,0.525-4.256,2.592-4.891l66.717-20.508
				c2.062-0.632,4.256,0.521,4.893,2.592c0.635,2.066-0.525,4.256-2.592,4.891l-66.717,20.508
				C546.004,232.604,545.619,232.66,545.235,232.66z"/>
			<path fill="#0D4C6F" d="M568.311,207.823c-1.672,0-3.223-1.082-3.74-2.764c-0.635-2.067,0.525-4.257,2.592-4.892l38.658-11.883
				c2.061-0.635,4.254,0.523,4.892,2.591c0.635,2.067-0.524,4.257-2.59,4.892l-38.659,11.883
				C569.079,207.767,568.693,207.823,568.311,207.823z"/>
			<path fill="#0D4C6F" d="M550.73,250.535c-1.672,0-3.223-1.082-3.74-2.765c-0.635-2.067,0.526-4.256,2.592-4.892l66.715-20.508
				c2.061-0.634,4.256,0.521,4.893,2.59c0.635,2.067-0.526,4.256-2.592,4.891l-66.715,20.508
				C551.499,250.479,551.113,250.535,550.73,250.535z"/>
			<path fill="#0D4C6F" d="M556.225,268.409c-1.672,0-3.223-1.082-3.74-2.765c-0.635-2.066,0.525-4.256,2.592-4.891l66.715-20.506
				c2.062-0.637,4.257,0.523,4.893,2.591c0.636,2.066-0.525,4.256-2.592,4.891l-66.715,20.506
				C556.994,268.353,556.607,268.409,556.225,268.409z"/>
			<path fill="#0D4C6F" d="M561.717,286.284c-1.672,0-3.222-1.082-3.738-2.766c-0.635-2.066,0.524-4.256,2.59-4.89l66.72-20.508
				c2.062-0.636,4.256,0.522,4.893,2.591c0.635,2.066-0.526,4.256-2.592,4.891L562.87,286.11
				C562.485,286.228,562.1,286.284,561.717,286.284z"/>
			<path fill="#0D4C6F" d="M529.287,237.563c-1.672,0-3.222-1.081-3.738-2.764c-0.636-2.066,0.524-4.256,2.59-4.892l2.586-0.795
				c2.061-0.631,4.257,0.523,4.893,2.591c0.635,2.066-0.525,4.256-2.592,4.891l-2.585,0.795
				C530.056,237.507,529.67,237.563,529.287,237.563z"/>
			<path fill="#0D4C6F" d="M534.784,255.437c-1.673,0-3.22-1.082-3.738-2.763c-0.636-2.065,0.522-4.256,2.588-4.893l2.585-0.796
				c2.061-0.64,4.258,0.522,4.893,2.587c0.637,2.064-0.521,4.256-2.588,4.892l-2.584,0.797
				C535.555,255.38,535.166,255.437,534.784,255.437z"/>
			<path fill="#0D4C6F" d="M540.277,273.311c-1.673,0-3.223-1.081-3.74-2.764c-0.635-2.066,0.525-4.256,2.591-4.892l2.586-0.795
				c2.062-0.632,4.256,0.522,4.892,2.591c0.635,2.065-0.525,4.255-2.59,4.891l-2.587,0.795
				C541.045,273.255,540.659,273.311,540.277,273.311z"/>
			<path fill="#0D4C6F" d="M545.772,291.186c-1.672,0-3.222-1.081-3.739-2.764c-0.635-2.066,0.525-4.256,2.592-4.891l2.586-0.795
				c2.062-0.633,4.256,0.523,4.892,2.59c0.634,2.065-0.526,4.255-2.592,4.891l-2.585,0.795
				C546.541,291.129,546.155,291.186,545.772,291.186z"/>
		</g>
		<g opacity="0.3">
			<path fill="#0D4C6F" d="M572.07,319.956c-1.673,0-3.223-1.083-3.74-2.765c-0.635-2.066,0.525-4.256,2.592-4.892l66.715-20.51
				c2.062-0.632,4.256,0.522,4.893,2.591c0.634,2.066-0.526,4.256-2.592,4.892l-66.716,20.509
				C572.839,319.899,572.452,319.956,572.07,319.956z"/>
			<path fill="#0D4C6F" d="M595.145,295.118c-1.673,0-3.222-1.082-3.739-2.766c-0.636-2.066,0.524-4.256,2.591-4.89l38.66-11.884
				c2.06-0.635,4.256,0.523,4.893,2.592c0.635,2.066-0.525,4.256-2.592,4.891l-38.66,11.883
				C595.913,295.061,595.526,295.118,595.145,295.118z"/>
			<path fill="#0D4C6F" d="M577.562,337.827c-1.671,0-3.221-1.082-3.739-2.767c-0.635-2.064,0.525-4.256,2.592-4.89l66.719-20.507
				c2.06-0.633,4.256,0.523,4.893,2.592c0.635,2.066-0.525,4.256-2.592,4.891l-66.718,20.508
				C578.331,337.771,577.945,337.827,577.562,337.827z"/>
			<path fill="#0D4C6F" d="M583.057,355.706c-1.672,0-3.223-1.083-3.74-2.765c-0.634-2.066,0.526-4.256,2.592-4.894l66.72-20.507
				c2.062-0.636,4.256,0.523,4.892,2.592c0.635,2.065-0.525,4.256-2.591,4.892l-66.72,20.508
				C583.825,355.648,583.439,355.706,583.057,355.706z"/>
			<path fill="#0D4C6F" d="M588.553,373.581c-1.672,0-3.222-1.083-3.74-2.766c-0.635-2.065,0.526-4.257,2.593-4.893l66.717-20.51
				c2.063-0.629,4.255,0.522,4.893,2.591c0.635,2.065-0.525,4.256-2.592,4.893l-66.717,20.51
				C589.321,373.522,588.936,373.581,588.553,373.581z"/>
			<path fill="#0D4C6F" d="M556.121,324.856c-1.675,0-3.226-1.083-3.74-2.77c-0.637-2.065,0.527-4.254,2.594-4.888l2.588-0.793
				c2.063-0.633,4.256,0.527,4.889,2.595c0.635,2.068-0.527,4.256-2.596,4.889l-2.587,0.794
				C556.887,324.801,556.5,324.856,556.121,324.856z"/>
			<path fill="#0D4C6F" d="M561.616,342.731c-1.673,0-3.221-1.081-3.739-2.763c-0.635-2.067,0.522-4.257,2.59-4.894l2.584-0.797
				c2.062-0.641,4.257,0.522,4.894,2.587c0.636,2.067-0.522,4.257-2.588,4.895l-2.586,0.797
				C562.387,342.675,561.999,342.731,561.616,342.731z"/>
			<path fill="#0D4C6F" d="M567.11,360.61c-1.673,0-3.22-1.082-3.737-2.765c-0.637-2.065,0.521-4.255,2.588-4.892l2.585-0.797
				c2.062-0.641,4.257,0.519,4.893,2.588c0.637,2.065-0.521,4.257-2.589,4.892l-2.584,0.797
				C567.881,360.553,567.494,360.61,567.11,360.61z"/>
			<path fill="#0D4C6F" d="M572.604,378.481c-1.672,0-3.223-1.082-3.74-2.766c-0.635-2.066,0.525-4.256,2.592-4.893l2.585-0.795
				c2.062-0.627,4.256,0.521,4.894,2.591c0.633,2.066-0.526,4.256-2.592,4.893l-2.587,0.796
				C573.371,378.424,572.985,378.481,572.604,378.481z"/>
		</g>
		<g opacity="0.3">
			<path fill="#0D4C6F" d="M242.089,115.648c-1.672,0-3.222-1.081-3.741-2.766c-0.634-2.066,0.526-4.256,2.592-4.89l66.716-20.506
				c2.061-0.634,4.254,0.522,4.893,2.591c0.634,2.066-0.526,4.256-2.592,4.891l-66.717,20.507
				C242.857,115.592,242.471,115.648,242.089,115.648z"/>
			<path fill="#0D4C6F" d="M265.166,90.811c-1.672,0-3.222-1.082-3.74-2.765c-0.635-2.066,0.525-4.257,2.591-4.891l38.658-11.883
				c2.06-0.634,4.254,0.522,4.893,2.59c0.634,2.067-0.526,4.257-2.592,4.891l-38.657,11.884
				C265.934,90.755,265.548,90.811,265.166,90.811z"/>
			<path fill="#0D4C6F" d="M247.583,133.522c-1.671,0-3.222-1.082-3.74-2.765c-0.634-2.066,0.526-4.256,2.592-4.891l66.717-20.509
				c2.062-0.632,4.256,0.522,4.893,2.592c0.634,2.066-0.526,4.256-2.591,4.891l-66.717,20.508
				C248.352,133.466,247.966,133.522,247.583,133.522z"/>
			<path fill="#0D4C6F" d="M253.076,151.399c-1.672,0-3.222-1.082-3.74-2.764c-0.634-2.067,0.526-4.257,2.592-4.892l66.717-20.51
				c2.064-0.634,4.256,0.522,4.892,2.59c0.635,2.067-0.525,4.256-2.591,4.892l-66.717,20.51
				C253.844,151.343,253.458,151.399,253.076,151.399z"/>
			<path fill="#0D4C6F" d="M258.572,169.272c-1.672,0-3.222-1.082-3.74-2.765c-0.634-2.067,0.525-4.255,2.591-4.892l66.717-20.51
				c2.064-0.632,4.256,0.522,4.893,2.591c0.635,2.067-0.526,4.256-2.591,4.892l-66.717,20.51
				C259.341,169.216,258.955,169.272,258.572,169.272z"/>
			<path fill="#0D4C6F" d="M226.141,120.552c-1.672,0-3.22-1.082-3.738-2.763c-0.636-2.066,0.522-4.257,2.588-4.894l2.588-0.797
				c2.062-0.634,4.256,0.523,4.892,2.588c0.637,2.066-0.521,4.257-2.587,4.894l-2.587,0.796
				C226.911,120.496,226.523,120.552,226.141,120.552z"/>
			<path fill="#0D4C6F" d="M231.635,138.423c-1.674,0-3.224-1.083-3.74-2.768c-0.634-2.067,0.528-4.256,2.594-4.889l2.585-0.793
				c2.064-0.632,4.258,0.528,4.891,2.594c0.634,2.067-0.527,4.256-2.593,4.89l-2.586,0.792
				C232.404,138.367,232.016,138.423,231.635,138.423z"/>
			<path fill="#0D4C6F" d="M237.129,156.299c-1.672,0-3.222-1.082-3.74-2.764c-0.634-2.066,0.526-4.256,2.591-4.892l2.586-0.795
				c2.06-0.637,4.254,0.522,4.893,2.59c0.634,2.066-0.525,4.257-2.592,4.892l-2.586,0.794
				C237.898,156.243,237.512,156.299,237.129,156.299z"/>
			<path fill="#0D4C6F" d="M242.626,174.176c-1.672,0-3.22-1.081-3.738-2.762c-0.637-2.065,0.522-4.256,2.587-4.893l2.586-0.797
				c2.061-0.638,4.256,0.521,4.893,2.588c0.636,2.065-0.522,4.255-2.588,4.892l-2.585,0.797
				C243.396,174.12,243.008,174.176,242.626,174.176z"/>
		</g>
		<g opacity="0.3">
			<path fill="#0D4C6F" d="M323.683,1.258c-1.673,0-3.222-1.082-3.74-2.765c-0.635-2.066,0.525-4.257,2.591-4.891l74.761-22.979
				c2.064-0.632,4.257,0.521,4.893,2.591c0.634,2.066-0.526,4.256-2.591,4.89L324.834,1.084
				C324.45,1.202,324.064,1.258,323.683,1.258z"/>
			<path fill="#0D4C6F" d="M329.838,21.287c-1.672,0-3.222-1.082-3.74-2.765c-0.634-2.066,0.525-4.256,2.592-4.891l74.761-22.979
				c2.061-0.635,4.255,0.523,4.892,2.592c0.634,2.065-0.525,4.256-2.591,4.89L330.99,21.113
				C330.606,21.23,330.22,21.287,329.838,21.287z"/>
			<path fill="#0D4C6F" d="M335.996,41.315c-1.673,0-3.222-1.082-3.74-2.765c-0.635-2.066,0.525-4.256,2.592-4.891l74.761-22.981
				c2.062-0.636,4.256,0.522,4.893,2.59c0.634,2.067-0.526,4.257-2.591,4.892l-74.762,22.981
				C336.764,41.259,336.377,41.315,335.996,41.315z"/>
			<path fill="#0D4C6F" d="M342.149,61.345c-1.672,0-3.222-1.082-3.739-2.765c-0.635-2.066,0.525-4.256,2.591-4.891l74.763-22.979
				c2.064-0.633,4.255,0.521,4.893,2.591c0.635,2.066-0.526,4.256-2.592,4.891l-74.762,22.979
				C342.918,61.289,342.532,61.345,342.149,61.345z"/>
			<path fill="#0D4C6F" d="M305.811,6.751c-1.674,0-3.222-1.083-3.74-2.766c-0.634-2.067,0.527-4.257,2.593-4.891l2.901-0.891
				c2.064-0.631,4.256,0.528,4.891,2.593c0.634,2.067-0.528,4.256-2.594,4.891l-2.901,0.891
				C306.58,6.695,306.192,6.751,305.811,6.751z"/>
			<path fill="#0D4C6F" d="M311.969,26.777c-1.674,0-3.222-1.083-3.74-2.766c-0.635-2.067,0.527-4.257,2.593-4.891l2.901-0.891
				c2.064-0.636,4.254,0.528,4.891,2.593c0.634,2.067-0.528,4.256-2.594,4.891l-2.901,0.891
				C312.737,26.722,312.35,26.777,311.969,26.777z"/>
			<path fill="#0D4C6F" d="M318.126,46.81c-1.674,0-3.222-1.082-3.74-2.766c-0.635-2.066,0.525-4.256,2.593-4.89l2.899-0.891
				c2.068-0.635,4.256,0.526,4.891,2.592c0.635,2.066-0.525,4.255-2.593,4.89l-2.899,0.891
				C318.895,46.753,318.507,46.81,318.126,46.81z"/>
			<path fill="#0D4C6F" d="M324.284,66.84c-1.672,0-3.22-1.079-3.738-2.761c-0.637-2.066,0.521-4.257,2.587-4.894l2.896-0.892
				c2.061-0.639,4.256,0.52,4.893,2.586s-0.522,4.257-2.587,4.894l-2.896,0.892C325.054,66.784,324.666,66.84,324.284,66.84z"/>
		</g>
		<g opacity="0.3">
			<g>
				<path fill="#0D4C6F" d="M250.578,378.786c-0.632,0-1.263-0.152-1.833-0.454c-0.918-0.487-1.604-1.318-1.909-2.311
					l-51.323-167.118c-0.635-2.066,0.525-4.255,2.593-4.89l130.95-40.219c0.986-0.306,2.064-0.204,2.981,0.283
					c0.917,0.486,1.604,1.317,1.91,2.308l51.324,167.118c0.635,2.066-0.525,4.257-2.593,4.892l-130.952,40.219
					C251.352,378.729,250.964,378.786,250.578,378.786z M204.146,210.348l49.026,159.635l123.467-37.922l-49.025-159.634
					L204.146,210.348z"/>
				<path fill="#0D4C6F" d="M212.656,253.103c-1.674,0-3.222-1.083-3.74-2.765c-0.635-2.067,0.526-4.256,2.593-4.892l129.083-39.644
					c2.064-0.633,4.256,0.528,4.891,2.593c0.634,2.067-0.528,4.256-2.593,4.891L213.806,252.93
					C213.424,253.048,213.036,253.103,212.656,253.103z"/>
				<path fill="#0D4C6F" d="M225.441,294.728c-1.675,0-3.222-1.083-3.74-2.766c-0.634-2.067,0.525-4.255,2.594-4.891l129.08-39.646
					c2.066-0.641,4.256,0.527,4.891,2.592c0.635,2.066-0.525,4.255-2.593,4.891l-129.081,39.646
					C226.209,294.672,225.822,294.728,225.441,294.728z"/>
				<path fill="#0D4C6F" d="M240.723,335.585c-1.674,0-3.222-1.083-3.74-2.766c-0.635-2.067,0.525-4.256,2.593-4.892l129.081-39.644
					c2.064-0.633,4.254,0.527,4.89,2.592c0.636,2.067-0.524,4.257-2.593,4.892l-129.081,39.645
					C241.491,335.53,241.103,335.585,240.723,335.585z"/>
				<path fill="#0D4C6F" d="M293.534,364.233c-1.674,0-3.222-1.084-3.74-2.768L239.33,197.153c-0.635-2.067,0.526-4.256,2.593-4.891
					c2.068-0.639,4.254,0.526,4.891,2.591l50.465,164.315c0.634,2.065-0.525,4.256-2.594,4.891
					C294.303,364.176,293.915,364.233,293.534,364.233z"/>
				<path fill="#0D4C6F" d="M338.239,349.82c-1.674,0-3.222-1.083-3.74-2.769l-50.463-164.311c-0.635-2.066,0.525-4.256,2.593-4.891
					c2.068-0.633,4.254,0.527,4.891,2.593l50.463,164.313c0.635,2.065-0.527,4.255-2.593,4.89
					C339.007,349.763,338.62,349.82,338.239,349.82z"/>
			</g>
			<g>
				<path fill="#0D4C6F" d="M230.487,228.021c-4.759,0-8.893-3.057-10.29-7.605c-0.845-2.747-0.568-5.66,0.778-8.201
					c1.347-2.54,3.603-4.404,6.352-5.248c1.026-0.316,2.093-0.478,3.165-0.478c4.753,0,8.885,3.055,10.284,7.604
					c1.743,5.673-1.454,11.707-7.126,13.452C232.617,227.862,231.555,228.021,230.487,228.021z M230.492,214.319
					c-0.291,0-0.581,0.044-0.864,0.131c-0.755,0.232-1.371,0.741-1.737,1.432c-0.367,0.693-0.442,1.486-0.212,2.235
					c0.468,1.522,2.114,2.422,3.673,1.946c1.544-0.476,2.417-2.121,1.942-3.669C232.919,215.173,231.767,214.319,230.492,214.319z"
					/>
				<path fill="#0D4C6F" d="M274.918,214.378c-4.758,0-8.894-3.058-10.289-7.608c-0.845-2.746-0.567-5.66,0.778-8.201
					c1.347-2.54,3.603-4.403,6.348-5.247c1.029-0.316,2.093-0.477,3.163-0.477c4.757,0,8.891,3.057,10.288,7.605
					c1.744,5.669-1.454,11.704-7.126,13.451C277.047,214.217,275.987,214.378,274.918,214.378z M274.918,200.673
					c-0.289,0-0.581,0.045-0.864,0.132c-0.749,0.23-1.362,0.738-1.729,1.43c-0.369,0.693-0.444,1.487-0.212,2.236
					c0.458,1.502,2.142,2.421,3.666,1.948c1.546-0.476,2.419-2.123,1.943-3.669C277.347,201.527,276.195,200.673,274.918,200.673z"
					/>
				<path fill="#0D4C6F" d="M319.346,200.73c-4.759,0-8.894-3.057-10.287-7.608c-0.845-2.744-0.568-5.656,0.78-8.198
					c1.345-2.541,3.6-4.405,6.349-5.25c1.03-0.316,2.092-0.476,3.161-0.476c4.759,0,8.894,3.058,10.289,7.608
					c0.843,2.746,0.568,5.659-0.78,8.199c-1.347,2.541-3.602,4.406-6.349,5.249C321.48,200.57,320.416,200.73,319.346,200.73z
					 M319.348,187.026c-0.291,0-0.582,0.044-0.862,0.131c-0.749,0.23-1.365,0.739-1.731,1.433c-0.367,0.693-0.444,1.486-0.214,2.233
					c0.461,1.502,2.137,2.417,3.67,1.947c0.75-0.23,1.364-0.738,1.731-1.43c0.367-0.693,0.443-1.488,0.212-2.238
					C321.779,187.879,320.624,187.026,319.348,187.026z"/>
				<path fill="#0D4C6F" d="M243.219,269.491c-4.753,0-8.889-3.056-10.286-7.604c-1.737-5.675,1.462-11.708,7.129-13.451
					c1.032-0.316,2.094-0.477,3.165-0.477c4.759,0,8.893,3.057,10.288,7.606c0.843,2.747,0.565,5.66-0.78,8.201
					c-1.348,2.54-3.604,4.404-6.353,5.248C245.355,269.33,244.289,269.491,243.219,269.491z M243.226,255.787
					c-0.291,0-0.581,0.044-0.866,0.132c-1.544,0.475-2.419,2.123-1.946,3.673c0.46,1.494,2.145,2.405,3.667,1.939
					c0.753-0.231,1.369-0.74,1.736-1.432c0.367-0.693,0.443-1.488,0.211-2.238C245.65,256.621,244.524,255.787,243.226,255.787z"/>
				<path fill="#0D4C6F" d="M287.652,255.845c-4.755,0-8.888-3.057-10.287-7.605c-1.743-5.674,1.454-11.706,7.128-13.45
					c1.028-0.316,2.092-0.477,3.161-0.477c4.755,0,8.891,3.056,10.288,7.604c0.845,2.746,0.569,5.66-0.776,8.2
					c-1.347,2.543-3.604,4.408-6.356,5.253C289.783,255.686,288.72,255.845,287.652,255.845z M287.654,242.142
					c-0.291,0-0.581,0.045-0.864,0.132c-1.546,0.475-2.419,2.12-1.943,3.667c0.458,1.497,2.142,2.418,3.665,1.945
					c0.753-0.23,1.369-0.74,1.735-1.433c0.367-0.692,0.442-1.486,0.213-2.234C290.083,242.995,288.931,242.142,287.654,242.142z"/>
				<path fill="#0D4C6F" d="M313.412,339.713c-4.757,0-8.891-3.054-10.29-7.602c-0.844-2.749-0.567-5.662,0.78-8.203
					c1.348-2.542,3.604-4.404,6.355-5.246c1.024-0.314,2.089-0.476,3.159-0.476c4.755,0,8.887,3.056,10.284,7.604
					c0.845,2.746,0.57,5.658-0.775,8.199c-1.348,2.541-3.603,4.405-6.353,5.249C315.543,339.555,314.48,339.713,313.412,339.713z
					 M313.416,326.015c-0.289,0-0.581,0.044-0.864,0.132c-0.753,0.229-1.368,0.737-1.735,1.43c-0.367,0.692-0.444,1.486-0.212,2.236
					c0.46,1.498,2.145,2.414,3.669,1.943c0.751-0.23,1.364-0.737,1.731-1.431c0.367-0.691,0.441-1.484,0.212-2.233
					C315.835,326.849,314.709,326.015,313.416,326.015z"/>
				<path fill="#0D4C6F" d="M332.078,242.198c-4.753,0-8.886-3.054-10.286-7.601c-1.737-5.68,1.462-11.712,7.132-13.454
					c1.028-0.315,2.093-0.476,3.163-0.476c4.755,0,8.888,3.057,10.287,7.605c0.843,2.749,0.566,5.662-0.781,8.202
					c-1.347,2.54-3.604,4.404-6.353,5.246C334.216,242.038,333.15,242.198,332.078,242.198z M332.087,228.495
					c-0.289,0-0.581,0.046-0.864,0.132c-1.55,0.476-2.423,2.124-1.949,3.674c0.46,1.493,2.146,2.409,3.667,1.938
					c0.755-0.231,1.369-0.74,1.737-1.433c0.367-0.693,0.443-1.486,0.212-2.234C334.511,229.331,333.383,228.495,332.087,228.495z"/>
				<path fill="#0D4C6F" d="M344.433,282.42c-4.757,0-8.891-3.058-10.288-7.609c-1.739-5.67,1.46-11.702,7.13-13.447
					c1.031-0.316,2.093-0.476,3.162-0.476c4.757,0,8.893,3.055,10.289,7.602c0.845,2.748,0.568,5.663-0.779,8.204
					c-1.346,2.541-3.603,4.405-6.351,5.25C346.568,282.26,345.503,282.42,344.433,282.42z M344.437,268.717
					c-0.289,0-0.579,0.044-0.862,0.131c-1.546,0.475-2.42,2.121-1.946,3.668c0.466,1.52,2.114,2.422,3.669,1.944
					c0.749-0.229,1.364-0.739,1.731-1.432c0.369-0.694,0.443-1.489,0.212-2.238C346.868,269.569,345.713,268.717,344.437,268.717z"
					/>
			</g>
		</g>
		<g opacity="0.3">
			<path fill="#0D4C6F" d="M765.086,86.516l30.416,98.956c1.231,4.001,0.86,7.866-1.114,11.59c-1.974,3.727-4.96,6.204-8.963,7.435
				l-122.238,37.575c-4.004,1.231-7.868,0.858-11.594-1.117c-3.724-1.972-6.203-4.961-7.434-8.962l-30.417-98.956
				c-1.231-4.002-0.858-7.865,1.116-11.593c1.974-3.725,4.959-6.204,8.965-7.433l122.239-37.575c4.002-1.23,7.865-0.86,11.59,1.114
				C761.377,79.527,763.854,82.514,765.086,86.516z M669.257,147.827l-5.369-17.464c-0.26-0.848-0.747-1.462-1.46-1.84
				c-0.715-0.377-1.495-0.436-2.344-0.174l-29.106,8.946c-0.849,0.262-1.461,0.747-1.841,1.462
				c-0.377,0.712-0.435,1.495-0.174,2.343l5.367,17.461c0.262,0.851,0.747,1.464,1.463,1.84c0.712,0.379,1.492,0.438,2.344,0.178
				l29.103-8.948c0.849-0.26,1.465-0.748,1.844-1.462C669.458,149.457,669.518,148.675,669.257,147.827z M679.992,182.752
				l-5.368-17.464c-0.26-0.849-0.749-1.46-1.46-1.838c-0.715-0.378-1.496-0.438-2.345-0.178l-29.104,8.948
				c-0.85,0.262-1.462,0.748-1.842,1.462c-0.38,0.713-0.437,1.494-0.175,2.343l5.368,17.464c0.261,0.849,0.746,1.462,1.461,1.838
				c0.714,0.378,1.494,0.438,2.345,0.176l29.104-8.946c0.848-0.262,1.462-0.748,1.84-1.462
				C680.193,184.384,680.252,183.601,679.992,182.752z M690.727,217.678l-5.365-17.462c-0.262-0.849-0.75-1.464-1.463-1.842
				c-0.714-0.376-1.496-0.436-2.345-0.176l-29.104,8.948c-0.85,0.26-1.462,0.748-1.841,1.462c-0.377,0.713-0.435,1.495-0.175,2.343
				l5.368,17.464c0.262,0.849,0.747,1.462,1.461,1.84c0.716,0.376,1.493,0.436,2.344,0.174l29.104-8.946
				c0.849-0.26,1.462-0.747,1.843-1.46C690.931,219.308,690.989,218.528,690.727,217.678z M715.824,133.512l-5.366-17.463
				c-0.262-0.849-0.75-1.462-1.462-1.841c-0.715-0.376-1.497-0.436-2.346-0.174l-29.106,8.946c-0.849,0.262-1.459,0.748-1.838,1.462
				c-0.379,0.713-0.436,1.495-0.176,2.343l5.368,17.462c0.262,0.85,0.748,1.464,1.463,1.841c0.714,0.378,1.493,0.437,2.342,0.177
				l29.104-8.946c0.852-0.262,1.463-0.75,1.843-1.464C716.027,135.142,716.086,134.361,715.824,133.512z M726.561,168.438
				l-5.367-17.463c-0.264-0.849-0.749-1.462-1.464-1.839c-0.711-0.378-1.493-0.438-2.345-0.175l-29.104,8.946
				c-0.849,0.262-1.46,0.747-1.839,1.462c-0.38,0.713-0.436,1.495-0.176,2.343l5.369,17.463c0.26,0.849,0.746,1.462,1.459,1.839
				c0.716,0.378,1.495,0.438,2.344,0.175l29.104-8.946c0.851-0.262,1.463-0.747,1.842-1.462
				C726.764,170.068,726.82,169.287,726.561,168.438z M737.296,203.363l-5.369-17.462c-0.259-0.848-0.747-1.464-1.46-1.842
				c-0.714-0.376-1.497-0.436-2.346-0.173l-29.105,8.946c-0.849,0.259-1.459,0.747-1.839,1.462
				c-0.378,0.712-0.436,1.494-0.174,2.343l5.367,17.464c0.262,0.849,0.747,1.462,1.462,1.84c0.713,0.377,1.493,0.436,2.342,0.175
				l29.104-8.946c0.851-0.26,1.467-0.747,1.844-1.46C737.497,204.994,737.558,204.214,737.296,203.363z M762.392,119.198
				l-5.367-17.463c-0.261-0.849-0.749-1.462-1.462-1.839c-0.713-0.378-1.493-0.438-2.346-0.175l-29.102,8.946
				c-0.849,0.262-1.465,0.749-1.841,1.461c-0.379,0.713-0.436,1.495-0.174,2.343l5.366,17.462c0.262,0.85,0.747,1.464,1.462,1.84
				c0.713,0.38,1.492,0.438,2.341,0.178l29.106-8.946c0.849-0.262,1.464-0.75,1.841-1.464
				C762.593,120.828,762.654,120.046,762.392,119.198z M773.129,154.124l-5.368-17.464c-0.259-0.849-0.751-1.462-1.464-1.838
				c-0.711-0.378-1.493-0.438-2.343-0.176l-29.105,8.946c-0.849,0.26-1.462,0.748-1.841,1.462c-0.377,0.713-0.435,1.495-0.174,2.343
				l5.369,17.464c0.26,0.848,0.745,1.462,1.461,1.838c0.712,0.379,1.494,0.438,2.343,0.176l29.104-8.946
				c0.852-0.262,1.464-0.747,1.841-1.462C773.329,155.753,773.389,154.972,773.129,154.124z M783.863,189.049l-5.366-17.461
				c-0.262-0.848-0.751-1.464-1.463-1.84c-0.714-0.378-1.495-0.438-2.346-0.176l-29.104,8.946c-0.848,0.26-1.461,0.749-1.838,1.462
				c-0.38,0.713-0.437,1.495-0.177,2.343l5.368,17.464c0.263,0.848,0.748,1.461,1.463,1.84c0.71,0.379,1.492,0.436,2.341,0.174
				l29.104-8.946c0.85-0.26,1.464-0.747,1.842-1.46C784.064,190.68,784.126,189.899,783.863,189.049z"/>
		</g>
		<g opacity="0.3">
			<path fill="#0D4C6F" d="M586.035,91.24l21.705,70.608c0.786,2.555,0.54,5.024-0.734,7.408c-1.277,2.383-3.198,3.971-5.772,4.762
				l-78.637,24.172c-2.575,0.791-5.058,0.558-7.454-0.697c-2.393-1.255-3.98-3.162-4.763-5.716l-21.707-70.61
				c-0.784-2.555-0.541-5.022,0.733-7.406c1.275-2.385,3.197-3.972,5.773-4.763l78.637-24.171c2.575-0.791,5.058-0.558,7.45,0.696
				C583.661,86.779,585.251,88.683,586.035,91.24z M520.312,190.756l35.57-10.934l-20.562-66.893l-37.444,11.511l19.99,65.035
				c0.156,0.5,0.474,0.881,0.957,1.135C519.308,190.863,519.803,190.913,520.312,190.756z M600.252,164.151L580.26,99.116
				l-37.449,11.51l20.562,66.893l35.575-10.936c0.507-0.155,0.889-0.474,1.146-0.956
				C600.351,165.147,600.404,164.654,600.252,164.151z"/>
		</g>
		<path opacity="0.3" fill="#0D4C6F" d="M605.121,102.372c-1.254,0-2.416-0.812-2.804-2.074L572.799,4.277
			c-0.475-1.549,0.395-3.192,1.945-3.668l147.153-45.236c1.542-0.474,3.192,0.392,3.667,1.943l29.52,96.023
			c0.229,0.745,0.153,1.549-0.212,2.237c-0.362,0.688-0.985,1.203-1.732,1.432l-147.155,45.232
			C605.698,102.329,605.408,102.372,605.121,102.372z M579.274,5.359l27.791,90.408l141.544-43.507l-27.793-90.412L579.274,5.359z"
			/>
		<g opacity="0.3">
			<path fill="#0D4C6F" d="M679.811,12.457c3.013,2.775,5.132,6.161,6.36,10.163c1.23,4,1.38,7.992,0.446,11.979
				c-0.933,3.983-2.787,7.484-5.559,10.492c-2.774,3.008-6.161,5.129-10.16,6.36c-4.001,1.229-7.995,1.376-11.978,0.443
				c-3.987-0.931-7.484-2.786-10.494-5.557c-3.01-2.773-5.129-6.16-6.359-10.16c-1.229-4.001-1.379-7.994-0.446-11.979
				c0.934-3.986,2.786-7.484,5.56-10.496c2.772-3.008,6.159-5.13,10.159-6.358c4-1.229,7.994-1.377,11.979-0.445
				C673.304,7.832,676.801,9.686,679.811,12.457z M680.054,33.077c0.661-2.82,0.556-5.649-0.315-8.482
				c-0.869-2.832-2.371-5.232-4.504-7.193c-2.134-1.964-4.61-3.275-7.435-3.94c-2.822-0.662-5.649-0.559-8.482,0.313
				c-2.833,0.871-5.231,2.374-7.194,4.506c-1.963,2.133-3.278,4.613-3.938,7.435c-0.665,2.821-0.559,5.649,0.312,8.483
				c0.871,2.834,2.372,5.231,4.509,7.196c2.131,1.964,4.609,3.276,7.433,3.937c2.82,0.661,5.648,0.558,8.483-0.313
				c2.832-0.872,5.229-2.374,7.191-4.506C678.079,38.378,679.393,35.902,680.054,33.077z M676.063,25.728
				c0.218,0.707,0.076,1.326-0.434,1.861l-12.795,13.99c-0.234,0.259-0.514,0.439-0.84,0.539c-0.307,0.096-0.636,0.115-0.989,0.054
				c-0.725-0.176-1.197-0.616-1.414-1.325l-5.649-18.377c-0.219-0.709-0.075-1.34,0.426-1.891c0.526-0.538,1.141-0.718,1.846-0.538
				l18.445,4.388C675.379,24.584,675.846,25.016,676.063,25.728z"/>
		</g>
		<g opacity="0.3">
			<path fill="#0D4C6F" d="M747.306,245.301l5.484,17.841c0.761,2.48,0.54,4.854-0.661,7.121s-3.042,3.784-5.519,4.544
				l-29.737,9.139c-2.481,0.765-4.854,0.543-7.12-0.657c-2.268-1.2-3.782-3.042-4.544-5.519l-5.484-17.842
				c-0.763-2.477-0.541-4.851,0.659-7.121c1.201-2.265,3.041-3.78,5.521-4.541l29.734-9.143c2.479-0.761,4.851-0.541,7.121,0.658
				C745.027,240.984,746.544,242.823,747.306,245.301z M761.93,292.88l5.485,17.841c0.763,2.479,0.541,4.854-0.659,7.119
				c-1.203,2.269-3.044,3.784-5.522,4.545l-29.734,9.142c-2.48,0.762-4.854,0.542-7.12-0.66c-2.268-1.2-3.783-3.042-4.545-5.519
				l-5.483-17.843c-0.763-2.478-0.543-4.852,0.657-7.116c1.2-2.268,3.043-3.784,5.523-4.545l29.735-9.143
				c2.477-0.761,4.852-0.539,7.119,0.66C759.651,288.563,761.169,290.404,761.93,292.88z M776.556,340.46l5.484,17.843
				c0.764,2.478,0.541,4.854-0.659,7.118c-1.203,2.271-3.044,3.783-5.521,4.546l-29.735,9.142c-2.48,0.759-4.854,0.541-7.121-0.662
				c-2.266-1.2-3.781-3.039-4.545-5.519l-5.484-17.842c-0.761-2.479-0.541-4.851,0.659-7.118c1.2-2.267,3.042-3.784,5.522-4.544
				l29.736-9.141c2.476-0.763,4.85-0.541,7.118,0.658C774.278,336.144,775.794,337.984,776.556,340.46z M806.778,227.02l5.482,17.84
				c0.763,2.48,0.543,4.854-0.658,7.121c-1.2,2.266-3.041,3.784-5.519,4.544l-29.737,9.139c-2.48,0.764-4.852,0.542-7.118-0.657
				c-2.269-1.2-3.783-3.042-4.547-5.52l-5.482-17.842c-0.764-2.477-0.541-4.85,0.659-7.121c1.199-2.266,3.04-3.78,5.521-4.541
				l29.737-9.143c2.477-0.761,4.848-0.542,7.119,0.659C804.501,222.702,806.016,224.541,806.778,227.02z M821.403,274.599
				l5.483,17.842c0.762,2.479,0.543,4.854-0.657,7.121c-1.202,2.268-3.043,3.782-5.52,4.542l-29.737,9.144
				c-2.48,0.761-4.853,0.538-7.119-0.661c-2.268-1.2-3.783-3.043-4.546-5.52l-5.483-17.842c-0.763-2.478-0.543-4.851,0.659-7.117
				c1.203-2.267,3.041-3.784,5.522-4.545l29.736-9.143c2.477-0.761,4.85-0.539,7.116,0.662S820.642,272.122,821.403,274.599z
				 M836.027,322.18l5.484,17.842c0.763,2.478,0.544,4.853-0.656,7.119c-1.204,2.269-3.043,3.781-5.52,4.543l-29.736,9.143
				c-2.481,0.76-4.854,0.542-7.119-0.661c-2.27-1.201-3.785-3.039-4.547-5.52l-5.484-17.842c-0.762-2.478-0.542-4.851,0.661-7.117
				c1.199-2.267,3.04-3.785,5.521-4.545L824.367,316c2.479-0.762,4.85-0.54,7.117,0.66
				C833.752,317.861,835.267,319.702,836.027,322.18z M866.254,208.738l5.484,17.84c0.761,2.481,0.542,4.854-0.658,7.121
				c-1.203,2.267-3.045,3.785-5.522,4.545l-29.736,9.139c-2.477,0.765-4.853,0.542-7.118-0.658
				c-2.268-1.199-3.783-3.042-4.544-5.519l-5.484-17.842c-0.762-2.477-0.543-4.851,0.657-7.121c1.2-2.264,3.043-3.78,5.521-4.54
				l29.737-9.143c2.478-0.761,4.853-0.541,7.119,0.657C863.976,204.42,865.491,206.259,866.254,208.738z M880.878,256.316
				l5.485,17.842c0.762,2.479,0.542,4.854-0.658,7.119c-1.202,2.268-3.044,3.784-5.521,4.544l-29.737,9.144
				c-2.478,0.761-4.852,0.541-7.118-0.661c-2.267-1.2-3.782-3.043-4.545-5.52l-5.485-17.842c-0.76-2.477-0.539-4.851,0.659-7.117
				c1.203-2.266,3.043-3.784,5.521-4.544l29.737-9.143c2.477-0.761,4.851-0.539,7.119,0.661
				C878.601,251.999,880.116,253.84,880.878,256.316z M895.503,303.898l5.485,17.842c0.763,2.477,0.542,4.852-0.658,7.116
				c-1.201,2.271-3.044,3.784-5.521,4.547l-29.737,9.141c-2.479,0.762-4.854,0.544-7.119-0.661c-2.267-1.2-3.781-3.038-4.544-5.519
				l-5.484-17.843c-0.762-2.477-0.541-4.851,0.659-7.117c1.2-2.266,3.041-3.783,5.521-4.545l29.736-9.141
				c2.477-0.763,4.85-0.541,7.119,0.66C893.227,299.581,894.743,301.421,895.503,303.898z"/>
		</g>
		<path opacity="0.3" fill="#0D4C6F" d="M512.111,84.949c-23.77,0-44.436-15.278-51.426-38.019
			c-4.223-13.74-2.843-28.303,3.887-41.005c6.729-12.704,18.002-22.025,31.744-26.248c5.154-1.585,10.481-2.389,15.827-2.389
			c23.771,0,44.437,15.278,51.426,38.017c8.719,28.367-7.266,58.538-35.632,67.255C522.782,84.145,517.458,84.949,512.111,84.949z
			 M512.144-16.841c-4.762,0-9.507,0.717-14.104,2.129c-12.24,3.764-22.285,12.068-28.28,23.384
			c-5.994,11.317-7.226,24.291-3.462,36.532c6.229,20.261,24.639,33.874,45.814,33.874c4.76,0,9.506-0.716,14.104-2.129
			c25.27-7.768,39.51-34.646,31.744-59.919C551.73-3.229,533.32-16.841,512.144-16.841z"/>
		<g opacity="0.3">
			<path fill="#0D4C6F" d="M354.898,79.946l3.314,10.786c0.462,1.497,0.328,2.932-0.398,4.302c-0.726,1.37-1.838,2.287-3.336,2.746
				l-17.972,5.525c-1.498,0.46-2.932,0.327-4.304-0.398c-1.369-0.726-2.286-1.838-2.748-3.336l-3.314-10.785
				c-0.459-1.499-0.325-2.931,0.397-4.304c0.726-1.37,1.839-2.286,3.337-2.746l17.976-5.525c1.495-0.46,2.932-0.327,4.3,0.398
				C353.522,77.337,354.439,78.447,354.898,79.946z M363.739,108.704l3.314,10.787c0.462,1.498,0.328,2.931-0.397,4.301
				c-0.727,1.373-1.839,2.288-3.337,2.747l-17.973,5.524c-1.498,0.461-2.931,0.331-4.303-0.397
				c-1.373-0.727-2.286-1.838-2.749-3.335l-3.314-10.786c-0.458-1.496-0.329-2.932,0.398-4.302c0.726-1.37,1.838-2.287,3.336-2.748
				l17.976-5.525c1.495-0.458,2.932-0.327,4.3,0.399C362.364,106.097,363.28,107.208,363.739,108.704z M372.58,137.464l3.314,10.784
				c0.462,1.499,0.328,2.934-0.397,4.304c-0.728,1.371-1.839,2.286-3.337,2.749l-17.976,5.523c-1.494,0.46-2.932,0.329-4.3-0.398
				c-1.373-0.726-2.286-1.838-2.748-3.337l-3.314-10.784c-0.462-1.498-0.329-2.934,0.397-4.304c0.726-1.371,1.838-2.286,3.336-2.746
				l17.973-5.525c1.498-0.46,2.935-0.327,4.304,0.399C371.204,134.856,372.118,135.968,372.58,137.464z M426.799,57.845
				l3.313,10.785c0.462,1.499,0.329,2.934-0.397,4.304c-0.726,1.37-1.839,2.288-3.337,2.747l-53.924,16.575
				c-1.498,0.461-2.931,0.327-4.304-0.399c-1.368-0.724-2.285-1.838-2.744-3.335l-3.318-10.784
				c-0.458-1.498-0.325-2.932,0.401-4.304c0.727-1.37,1.835-2.286,3.333-2.746l53.924-16.575c1.498-0.46,2.936-0.329,4.304,0.397
				C425.422,55.237,426.34,56.347,426.799,57.845z M435.639,86.604l3.314,10.786c0.463,1.497,0.325,2.932-0.397,4.302
				c-0.727,1.373-1.842,2.288-3.337,2.747l-53.924,16.575c-1.499,0.46-2.932,0.33-4.304-0.399c-1.373-0.724-2.285-1.837-2.744-3.333
				l-3.318-10.786c-0.458-1.499-0.328-2.932,0.398-4.304c0.727-1.369,1.838-2.286,3.337-2.747l53.923-16.575
				c1.498-0.459,2.932-0.327,4.304,0.399C434.26,83.995,435.181,85.107,435.639,86.604z M444.48,115.364l3.313,10.784
				c0.462,1.498,0.325,2.934-0.397,4.304c-0.727,1.37-1.842,2.286-3.337,2.747l-53.923,16.575c-1.499,0.461-2.932,0.329-4.304-0.397
				c-1.372-0.726-2.285-1.838-2.749-3.336l-3.313-10.787c-0.459-1.496-0.329-2.932,0.397-4.302c0.726-1.37,1.838-2.285,3.336-2.746
				l53.924-16.578c1.499-0.458,2.932-0.326,4.304,0.4C443.101,112.754,444.018,113.866,444.48,115.364z"/>
		</g>
	</g>
	<path fill="#809247" d="M76.59,687.562c0,0-610.974-41.574-625.53-41.574c-14.555,0-14.555-14.555-14.555-14.555L80.504,617.11
		L76.59,687.562z"/>
	<polygon fill="#809247" points="-10.402,616.877 76.59,587.756 76.59,645.977 -10.402,645.987 	"/>
	<linearGradient id="SVGID_3_" gradientUnits="userSpaceOnUse" x1="-17.5244" y1="176.5508" x2="109.1514" y2="176.5508">
		<stop  offset="0" style="stop-color:#FFFFFF"/>
		<stop  offset="1" style="stop-color:#FFFFFF"/>
	</linearGradient>
	<ellipse fill="url(#SVGID_3_)" cx="45.813" cy="176.55" rx="63.338" ry="64.581"/>
	<linearGradient id="SVGID_4_" gradientUnits="userSpaceOnUse" x1="-57.3979" y1="176.9033" x2="149.0254" y2="176.9033">
		<stop  offset="0" style="stop-color:#FFFFFF"/>
		<stop  offset="1" style="stop-color:#FFFFFF"/>
	</linearGradient>
	<path fill="url(#SVGID_4_)" d="M45.813,281.709c-4.233,0-8.495-0.264-12.665-0.784c-2.145-0.268-3.666-2.222-3.398-4.368
		c0.267-2.146,2.207-3.673,4.369-3.399c7.631,0.952,15.548,0.962,23.195,0.024c2.16-0.259,4.1,1.264,4.361,3.409
		c0.262,2.146-1.265,4.098-3.409,4.361C54.162,281.455,49.972,281.709,45.813,281.709z M81.227,275.083
		c-1.567,0-3.046-0.947-3.648-2.495c-0.785-2.014,0.212-4.283,2.227-5.067c7.201-2.803,14.07-6.51,20.417-11.016
		c1.764-1.251,4.208-0.837,5.458,0.926c1.252,1.762,0.837,4.206-0.925,5.457c-6.873,4.878-14.311,8.892-22.11,11.927
		C82.179,274.998,81.699,275.083,81.227,275.083z M10.221,275.013c-0.474,0-0.955-0.087-1.426-0.271
		c-7.787-3.05-15.216-7.075-22.077-11.965c-1.76-1.254-2.169-3.698-0.915-5.458c1.253-1.76,3.694-2.172,5.46-0.915
		c6.337,4.517,13.196,8.234,20.387,11.05c2.013,0.788,3.004,3.059,2.217,5.071C13.264,274.069,11.786,275.013,10.221,275.013z
		 M120.356,247.351c-0.906,0-1.817-0.312-2.557-0.952c-1.636-1.414-1.816-3.884-0.403-5.52c5.07-5.873,9.439-12.351,12.982-19.259
		c0.988-1.921,3.345-2.682,5.269-1.695c1.922,0.986,2.682,3.346,1.695,5.269c-3.826,7.46-8.544,14.458-14.021,20.801
		C122.547,246.891,121.456,247.351,120.356,247.351z M-28.85,247.212c-1.101,0-2.194-0.461-2.968-1.36
		c-5.466-6.352-10.173-13.363-13.991-20.839c-0.982-1.926-0.22-4.283,1.707-5.266c1.926-0.981,4.283-0.219,5.265,1.706
		c3.533,6.922,7.893,13.413,12.952,19.293c1.41,1.639,1.225,4.109-0.413,5.521C-27.038,246.9-27.946,247.212-28.85,247.212z
		 M142.262,204.665c-0.304,0-0.612-0.035-0.919-0.109c-2.103-0.506-3.396-2.619-2.89-4.721c1.807-7.51,2.729-15.278,2.745-23.085
		c0.004-2.159,1.756-3.907,3.914-3.907c0.002,0,0.003,0,0.008,0c2.161,0.004,3.91,1.76,3.906,3.922
		c-0.016,8.417-1.013,16.796-2.962,24.901C145.631,203.459,144.027,204.665,142.262,204.665z M-50.683,204.463
		c-1.77,0-3.375-1.209-3.803-3.008c-1.932-8.11-2.912-16.489-2.912-24.905l0.001-0.413c0-2.161,1.753-3.914,3.914-3.914
		c2.162,0,3.914,1.753,3.914,3.914l-0.002,0.468c0,7.75,0.908,15.52,2.699,23.036c0.5,2.102-0.797,4.213-2.899,4.713
		C-50.077,204.428-50.382,204.463-50.683,204.463z M142.348,156.667c-1.773,0-3.379-1.213-3.805-3.015
		c-1.787-7.562-4.476-14.907-7.99-21.827c-0.979-1.927-0.21-4.283,1.718-5.262c1.928-0.979,4.284-0.208,5.262,1.717
		c3.795,7.475,6.7,15.405,8.628,23.571c0.497,2.104-0.805,4.212-2.909,4.709C142.95,156.633,142.646,156.667,142.348,156.667z
		 M-50.579,156.065c-0.306,0-0.618-0.037-0.927-0.112c-2.101-0.509-3.391-2.625-2.88-4.726c1.978-8.154,4.929-16.064,8.769-23.511
		c0.99-1.92,3.352-2.674,5.271-1.686c1.923,0.991,2.677,3.351,1.686,5.273c-3.555,6.895-6.286,14.22-8.119,21.77
		C-47.214,154.864-48.815,156.065-50.579,156.065z M120.615,113.874c-1.103,0-2.2-0.463-2.974-1.367
		c-5.069-5.913-10.827-11.192-17.116-15.694c-1.758-1.257-2.164-3.702-0.904-5.46c1.254-1.756,3.7-2.167,5.46-0.905
		c6.799,4.867,13.026,10.575,18.503,16.964c1.406,1.642,1.217,4.113-0.424,5.52C122.422,113.564,121.517,113.874,120.615,113.874z
		 M-28.6,113.422c-0.91,0-1.821-0.314-2.562-0.958c-1.632-1.417-1.808-3.888-0.392-5.521c5.509-6.354,11.769-12.025,18.601-16.854
		c1.766-1.247,4.207-0.826,5.454,0.937c1.248,1.765,0.829,4.208-0.936,5.456c-6.318,4.466-12.107,9.711-17.206,15.591
		C-26.416,112.964-27.504,113.422-28.6,113.422z M81.596,85.993c-0.477,0-0.961-0.087-1.434-0.273
		c-7.212-2.841-14.767-4.776-22.458-5.752c-2.144-0.272-3.662-2.23-3.391-4.375c0.271-2.144,2.232-3.668,4.376-3.39
		c8.334,1.056,16.524,3.154,24.342,6.234c2.01,0.792,2.999,3.065,2.205,5.077C84.632,85.053,83.157,85.993,81.596,85.993z
		 M10.595,85.772c-1.569,0-3.05-0.951-3.65-2.502c-0.78-2.017,0.222-4.283,2.238-5.062c7.837-3.032,16.044-5.079,24.39-6.084
		c2.134-0.247,4.095,1.273,4.353,3.418c0.26,2.147-1.271,4.096-3.417,4.355c-7.7,0.927-15.272,2.814-22.501,5.612
		C11.543,85.688,11.065,85.772,10.595,85.772z"/>
	<g>
		<linearGradient id="SVGID_5_" gradientUnits="userSpaceOnUse" x1="179.0488" y1="10.0547" x2="211.1789" y2="311.1873">
			<stop  offset="0" style="stop-color:#FFFFFF"/>
			<stop  offset="1" style="stop-color:#FFFFFF"/>
		</linearGradient>
		<path fill="url(#SVGID_5_)" d="M195.341,164.507c-1.974,0-3.671-1.491-3.885-3.5c-0.403-3.779-0.965-7.583-1.667-11.308
			c-0.401-2.125,0.995-4.171,3.119-4.573c2.12-0.396,4.172,0.996,4.572,3.121c0.743,3.93,1.333,7.944,1.758,11.931
			c0.229,2.149-1.326,4.078-3.476,4.307C195.621,164.5,195.48,164.507,195.341,164.507z"/>
		<linearGradient id="SVGID_6_" gradientUnits="userSpaceOnUse" x1="27.6567" y1="26.2256" x2="59.5427" y2="325.0703">
			<stop  offset="0" style="stop-color:#FFFFFF"/>
			<stop  offset="1" style="stop-color:#FFFFFF"/>
		</linearGradient>
		<path fill="url(#SVGID_6_)" d="M26.253,326.843c-0.16,0-0.323-0.009-0.487-0.028c-7.922-0.983-15.824-2.588-23.49-4.774
			c-2.077-0.592-3.283-2.758-2.691-4.836c0.592-2.079,2.756-3.288,4.839-2.691c7.276,2.075,14.781,3.601,22.305,4.532
			c2.144,0.266,3.669,2.221,3.401,4.366C29.886,325.393,28.199,326.843,26.253,326.843z M-18.549,314.068
			c-0.551,0-1.108-0.116-1.64-0.361c-7.247-3.347-14.284-7.283-20.915-11.703c-1.8-1.198-2.288-3.627-1.087-5.427
			c1.197-1.798,3.625-2.288,5.426-1.086c6.297,4.194,12.98,7.932,19.86,11.112c1.963,0.905,2.819,3.23,1.912,5.194
			C-15.655,313.228-17.07,314.068-18.549,314.068z M-57.313,288.232c-0.947,0-1.896-0.342-2.649-1.033
			c-5.89-5.42-11.378-11.333-16.315-17.575c-1.341-1.695-1.054-4.157,0.642-5.499c1.693-1.337,4.155-1.053,5.497,0.642
			c4.682,5.921,9.89,11.529,15.478,16.67c1.59,1.465,1.693,3.94,0.229,5.53C-55.204,287.807-56.257,288.232-57.313,288.232z
			 M-86.189,251.686c-1.372,0-2.704-0.724-3.42-2.008c-3.897-6.979-7.25-14.326-9.967-21.837c-0.736-2.033,0.317-4.276,2.349-5.012
			c2.032-0.735,4.277,0.317,5.013,2.35c2.572,7.114,5.748,14.074,9.438,20.685c1.055,1.887,0.378,4.271-1.51,5.326
			C-84.89,251.524-85.543,251.686-86.189,251.686z M-102.042,207.885c-1.848,0-3.492-1.313-3.843-3.194
			c-0.729-3.887-1.31-7.846-1.726-11.768c-0.428-3.997-0.7-8.063-0.803-12.085c-0.057-2.161,1.649-3.958,3.811-4.015
			c2.144-0.095,3.958,1.65,4.013,3.812c0.1,3.812,0.356,7.667,0.761,11.456c0.397,3.721,0.948,7.474,1.638,11.159
			c0.398,2.125-1.001,4.169-3.126,4.567C-101.56,207.863-101.803,207.885-102.042,207.885z M-103.215,161.322
			c-0.177,0-0.355-0.011-0.535-0.036c-2.142-0.292-3.641-2.266-3.348-4.408c1.08-7.903,2.817-15.786,5.162-23.431
			c0.632-2.068,2.83-3.229,4.89-2.594c2.066,0.634,3.228,2.824,2.594,4.89c-2.223,7.242-3.869,14.709-4.891,22.195
			C-99.611,159.9-101.291,161.322-103.215,161.322z M187.463,130.339c-1.6,0-3.102-0.988-3.679-2.579
			c-2.58-7.109-5.764-14.063-9.462-20.669c-1.057-1.886-0.382-4.271,1.504-5.327c1.886-1.057,4.273-0.382,5.326,1.503
			c3.905,6.974,7.266,14.315,9.99,21.821c0.738,2.033-0.312,4.277-2.343,5.015C188.358,130.263,187.907,130.339,187.463,130.339z
			 M-89.575,116.803c-0.582,0-1.17-0.13-1.726-0.404c-1.94-0.956-2.736-3.302-1.782-5.24c3.519-7.144,7.646-14.076,12.266-20.605
			c1.25-1.765,3.694-2.182,5.456-0.935c1.764,1.249,2.183,3.691,0.935,5.456c-4.382,6.194-8.296,12.769-11.635,19.543
			C-86.741,116-88.131,116.803-89.575,116.803z M164.733,89.685c-1.153,0-2.295-0.507-3.069-1.482
			c-4.696-5.923-9.91-11.525-15.5-16.653c-1.592-1.461-1.699-3.937-0.237-5.53c1.462-1.59,3.935-1.701,5.531-0.238
			c5.89,5.406,11.389,11.312,16.34,17.556c1.342,1.694,1.06,4.156-0.636,5.5C166.443,89.407,165.585,89.685,164.733,89.685z
			 M-62.68,78.763c-0.984,0-1.969-0.369-2.731-1.109c-1.547-1.508-1.58-3.986-0.073-5.534c5.565-5.718,11.624-11.046,18.003-15.835
			c1.735-1.298,4.185-0.946,5.481,0.781c1.298,1.728,0.948,4.182-0.78,5.48c-6.058,4.547-11.81,9.606-17.097,15.035
			C-60.644,78.368-61.662,78.763-62.68,78.763z M130.413,58.171c-0.744,0-1.497-0.211-2.162-0.655
			c-6.308-4.191-12.996-7.921-19.875-11.088c-1.965-0.904-2.823-3.229-1.919-5.192c0.903-1.965,3.229-2.823,5.19-1.92
			c7.249,3.336,14.292,7.265,20.935,11.681c1.802,1.197,2.291,3.625,1.095,5.426C132.922,57.558,131.68,58.171,130.413,58.171z
			 M-25.402,50.787c-1.401,0-2.756-0.754-3.459-2.076c-1.015-1.909-0.292-4.278,1.617-5.294c7.039-3.744,14.435-6.974,21.982-9.595
			c2.035-0.714,4.273,0.371,4.982,2.413c0.709,2.042-0.373,4.272-2.414,4.981c-7.167,2.489-14.19,5.555-20.874,9.111
			C-24.152,50.638-24.783,50.787-25.402,50.787z M88.097,38.688c-0.353,0-0.712-0.049-1.07-0.15
			c-7.279-2.066-14.787-3.582-22.311-4.503c-2.146-0.265-3.671-2.216-3.409-4.361c0.264-2.147,2.259-3.651,4.361-3.41
			c7.926,0.972,15.83,2.568,23.496,4.744c2.079,0.589,3.287,2.754,2.697,4.834C91.371,37.564,89.804,38.688,88.097,38.688z
			 M18.609,35.481c-1.854,0-3.5-1.32-3.846-3.208c-0.392-2.125,1.015-4.166,3.142-4.557c3.888-0.714,7.872-1.291,11.843-1.715
			c3.979-0.424,8.009-0.702,11.979-0.824c2.152-0.061,3.968,1.631,4.032,3.792c0.067,2.161-1.63,3.966-3.791,4.033
			c-3.773,0.116-7.606,0.38-11.391,0.783c-3.776,0.403-7.564,0.952-11.258,1.631C19.081,35.46,18.842,35.481,18.609,35.481z"/>
		<linearGradient id="SVGID_7_" gradientUnits="userSpaceOnUse" x1="23.9121" y1="26.5825" x2="56.0429" y2="327.7221">
			<stop  offset="0" style="stop-color:#FFFFFF"/>
			<stop  offset="1" style="stop-color:#FFFFFF"/>
		</linearGradient>
		<path fill="url(#SVGID_7_)" d="M49.743,327.925c-2.106,0-3.846-1.674-3.911-3.793c-0.066-2.161,1.63-3.966,3.792-4.033
			c3.796-0.116,7.639-0.381,11.423-0.785c2.139-0.225,4.078,1.325,4.308,3.477c0.231,2.148-1.326,4.078-3.474,4.309
			c-3.981,0.424-8.023,0.703-12.016,0.824C49.825,327.925,49.783,327.925,49.743,327.925z"/>
	</g>
	<linearGradient id="SVGID_8_" gradientUnits="userSpaceOnUse" x1="-103.8955" y1="638.3984" x2="195.5229" y2="638.3984">
		<stop  offset="0" style="stop-color:#FFFFFF"/>
		<stop  offset="1" style="stop-color:#FFFFFF"/>
	</linearGradient>
	<ellipse fill="url(#SVGID_8_)" cx="45.814" cy="638.398" rx="149.709" ry="152.645"/>
	<g>
		<path fill="#B1CDCC" d="M750.443,504.91l-206.135,3.914l7.828,221.791l77.567-1.435l-0.593-126.42c0,0,16.512-16.646,22.186-1.302
			c11.277,30.499,20.088,96.429,24.947,126.859l16.796-0.312l80.888-3.914L750.443,504.91z"/>
		<path fill="#AF641F" d="M552.135,733.551c-1.576,0-2.875-1.25-2.932-2.832l-7.827-221.791c-0.028-0.785,0.261-1.55,0.802-2.12
			c0.541-0.573,1.287-0.903,2.076-0.918l206.134-3.914c0.021,0,0.039,0,0.056,0c1.498,0,2.759,1.129,2.919,2.621l23.484,219.183
			c0.085,0.805-0.163,1.607-0.688,2.223c-0.525,0.613-1.28,0.984-2.089,1.022l-80.888,3.914l-16.883,0.315
			c-1.457-0.004-2.724-1.028-2.953-2.474c-0.758-4.756-1.615-10.379-2.563-16.597c-5.105-33.55-12.824-84.248-22.239-109.706
			c-1.692-4.582-4.092-4.582-4.994-4.582c-3.913,0-9.074,3.934-11.496,6.121l0.586,125.15c0.008,1.605-1.276,2.918-2.882,2.949
			l-77.566,1.435C552.174,733.551,552.154,733.551,552.135,733.551z M547.348,511.703l7.622,215.924l71.785-1.329l-0.579-123.524
			c-0.004-0.78,0.301-1.527,0.853-2.081c0.878-0.887,8.819-8.668,16.521-8.668c3.372,0,7.93,1.462,10.502,8.415
			c9.621,26.021,17.394,77.076,22.536,110.86c0.784,5.137,1.503,9.868,2.158,14.035l14.241-0.264l77.69-3.759l-22.865-213.416
			L547.348,511.703z"/>
	</g>
	<path fill="#F4D488" d="M598.126,114.655l1.468-26.418c0,0,3.915-35.226,49.414-37.673c52.42-2.818,51.371,45.011,51.371,45.011
		l2.445,27.072l-13.696,14.676L598.126,114.655z"/>
	<polyline fill="#F4D488" points="618.675,187.228 609.541,193.751 604.324,198.97 533.219,227.02 518.215,315.734 544.309,512.738 
		734.831,508.85 794.149,456.638 802.633,401.837 764.146,227.02 693.04,198.97 687.823,193.751 	"/>
	<polygon fill="#FAF2DE" points="598.453,121.994 602.367,144.499 608.238,151.349 619.326,178.746 620.307,190.164 
		614.763,208.102 628.461,227.998 647.704,245.284 671.023,226.693 678.035,215.929 685.212,211.364 678.689,187.228 
		680.972,177.443 685.866,158.198 689.126,151.349 696.953,144.826 689.128,137.323 692.551,112.209 671.515,106.338 
		651.618,83.179 641.509,102.424 624.221,109.598 608.238,109.927 601.715,116.777 	"/>
	<circle fill="#AF651F" cx="624.056" cy="127.865" r="4.403"/>
	<circle fill="#AF651F" cx="664.174" cy="127.865" r="4.403"/>
	<path fill="#AF651F" d="M636.774,124.929c-0.561,0-1.125-0.16-1.627-0.493c-6.208-4.138-16.75-2.035-16.857-2.015
		c-1.576,0.322-3.138-0.693-3.467-2.28c-0.328-1.586,0.688-3.138,2.275-3.468c0.528-0.111,13.041-2.634,21.306,2.877
		c1.35,0.899,1.714,2.721,0.815,4.07C638.653,124.47,637.723,124.929,636.774,124.929z"/>
	<path opacity="0.5" fill="#AF651F" d="M647.76,178.366c-4.549,0-9.497-0.92-14.278-3.367c-1.442-0.738-2.014-2.507-1.274-3.95
		c0.738-1.446,2.511-2.012,3.95-1.276c9.051,4.634,19.466,2.59,23.972-0.337c1.355-0.882,3.177-0.499,4.061,0.862
		c0.883,1.359,0.497,3.177-0.861,4.061C660.184,176.402,654.4,178.366,647.76,178.366z"/>
	<path opacity="0.5" fill="#AF651F" d="M647.979,160.941c-2.179,0-4.663-0.915-8.008-3.283c-1.322-0.938-1.636-2.769-0.697-4.093
		c0.937-1.323,2.768-1.636,4.092-0.699c4.272,3.028,4.833,2.677,8.488,0.396c1.373-0.857,3.187-0.443,4.047,0.934
		c0.857,1.375,0.439,3.186-0.935,4.045C652.496,159.785,650.429,160.941,647.979,160.941z"/>
	<path fill="#AF651F" d="M678.153,126.729c-0.743,0-1.487-0.281-2.06-0.845c-4.887-4.814-15.958-1.494-16.068-1.459
		c-1.55,0.487-3.198-0.369-3.685-1.914c-0.487-1.546,0.369-3.196,1.914-3.684c0.588-0.188,14.504-4.474,21.96,2.875
		c1.154,1.138,1.166,2.996,0.03,4.152C679.669,126.437,678.913,126.729,678.153,126.729z"/>
	<path fill="#AF651F" d="M625.654,170.799c-2.188,0-4.358-0.568-5.846-2.153c-1.147-1.222-2.689-3.997-0.147-8.87
		c0.751-1.437,2.524-1.989,3.962-1.245c1.437,0.75,1.992,2.524,1.243,3.961c-0.842,1.614-0.715,2.24-0.712,2.246
		c0.406,0.295,2.926,0.389,5.093-0.572c9.933-4.413,15.859-0.056,16.107,0.132c1.292,0.979,1.548,2.82,0.568,4.113
		c-0.973,1.276-2.782,1.536-4.068,0.601c-0.229-0.153-3.721-2.37-10.223,0.519C630.069,170.225,627.852,170.799,625.654,170.799z"/>
	<path fill="#AF651F" d="M670.45,170.799c-2.198,0-4.414-0.574-5.979-1.269c-6.586-2.927-10.085-0.614-10.229-0.515
		c-1.31,0.904-3.139,0.616-4.071-0.682c-0.935-1.293-0.691-3.074,0.58-4.037c0.246-0.186,6.18-4.542,16.106-0.132
		c2.146,0.953,4.634,0.867,5.152,0.464c-0.043-0.018-0.003-0.668-0.771-2.139c-0.749-1.437-0.193-3.21,1.243-3.961
		c1.438-0.743,3.211-0.191,3.963,1.245c2.541,4.874,0.999,7.648-0.148,8.87C674.809,170.23,672.64,170.799,670.45,170.799z"/>
	<path fill="#AF651F" d="M647.704,249.198c-0.042,0-0.085-0.001-0.127-0.004c-0.531-0.035-1.027-0.286-1.369-0.693l-32.941-39.14
		c-0.612-0.726-0.614-1.784-0.008-2.513l0,0c-0.002,0,1.535-2.074,4.22-9.825c3.669-10.601-1.715-19.437-1.769-19.524
		c-0.535-0.86-0.327-1.986,0.481-2.597c0.805-0.608,1.948-0.505,2.629,0.246c9.091,10.016,19.777,20.838,21.924,21.614
		c1.402,0.382,4.004,0.616,6.93,0.616c3.645,0,7.123-0.355,9.299-0.95c2.154-0.793,13.505-12.117,23.218-22.601
		c0.706-0.766,1.89-0.84,2.688-0.173c0.798,0.667,0.937,1.844,0.312,2.676l0,0c0,0-1.679,2.512-2.557,9.826
		c-0.626,5.204,1.712,11.289,3.592,16.178c0.855,2.229,1.595,4.153,1.922,5.685c0.807,3.758-11.685,17.44-37.125,40.667
		C648.662,249.017,648.191,249.198,647.704,249.198z M617.177,207.931l30.711,36.488c16.52-15.175,33.436-32.24,34.391-35.776
		c-0.293-1.224-0.949-2.937-1.706-4.905c-1.927-5.014-4.564-11.88-3.825-18.048c0.129-1.066,0.273-2.046,0.431-2.943
		c-7.081,7.417-16.357,16.69-19.175,17.459c-2.53,0.691-6.296,1.087-10.329,1.087c-3.303,0-6.213-0.277-7.985-0.76
		c-2.706-0.739-10.87-8.938-17.405-15.872c0.645,3.813,0.663,8.538-1.105,13.645C619.352,203.578,618.003,206.439,617.177,207.931z"
		/>
	<path fill="#AF651F" d="M614.784,113.146c-3.128,0-5.203-0.271-5.427-0.302c-1.069-0.146-1.817-1.132-1.672-2.203
		c0.146-1.069,1.099-1.829,2.202-1.674c0.135,0.02,13.771,1.774,24.45-4.329c10.622-6.069,15.198-20.74,15.245-20.888
		c0.313-1.032,1.402-1.618,2.441-1.3c1.034,0.315,1.615,1.409,1.3,2.443c-0.2,0.662-5.089,16.312-17.045,23.144
		C628.763,112.331,620.199,113.146,614.784,113.146z"/>
	<path fill="#AF651F" d="M692.551,114.166c-0.014,0-0.027,0-0.041,0c-0.544-0.011-13.452-0.362-24.568-8.184
		c-11.05-7.78-19.689-26.091-20.054-26.867c-0.456-0.98-0.035-2.143,0.944-2.601c0.986-0.458,2.146-0.034,2.603,0.944
		c0.084,0.18,8.565,18.146,18.758,25.322c10.149,7.141,22.275,7.469,22.398,7.471c1.079,0.022,1.938,0.917,1.917,1.997
		C694.485,113.315,693.613,114.166,692.551,114.166z"/>
	<path fill="#FAF2DE" d="M680.407,112.109"/>
	<path fill="#AF651F" d="M699.563,120.69c-0.496,0-0.993-0.188-1.375-0.564c-9.546-9.436-13.989-21.078-14.176-21.569
		c-0.378-1.011,0.133-2.139,1.144-2.519c1.013-0.381,2.143,0.129,2.521,1.141c0.044,0.113,4.349,11.351,13.263,20.163
		c0.77,0.759,0.776,1.999,0.016,2.769C700.573,120.496,700.068,120.69,699.563,120.69z"/>
	<path fill="#AF651F" d="M608.89,138.628c-1.007,0-1.864-0.773-1.947-1.795l-1.957-23.484c-0.091-1.077,0.708-2.022,1.787-2.112
		c1.095-0.096,2.021,0.712,2.111,1.788l1.957,23.484c0.089,1.077-0.71,2.023-1.787,2.113
		C608.998,138.626,608.943,138.628,608.89,138.628z"/>
	<path fill="#AF651F" d="M688.479,140.585c-0.085,0-0.17-0.005-0.257-0.016c-1.071-0.141-1.827-1.123-1.686-2.195l2.852-21.771
		c0.138-1.071,1.118-1.826,2.193-1.686c1.073,0.14,1.827,1.123,1.687,2.194l-2.853,21.771
		C690.289,139.868,689.446,140.585,688.479,140.585z"/>
	<path fill="#AF651F" d="M598.45,121.985c-0.258,0-0.519-0.051-0.77-0.159c-0.986-0.426-1.448-1.558-1.031-2.548
		c0.117-0.278,3.004-6.885,14.858-13.66c10.603-6.056,14.105-15.195,14.141-15.287c0.374-1.013,1.5-1.529,2.514-1.154
		c1.01,0.374,1.53,1.493,1.158,2.506c-0.158,0.427-3.972,10.536-15.87,17.333c-10.562,6.037-13.176,11.74-13.201,11.797
		C599.927,121.545,599.204,121.985,598.45,121.985z"/>
	<polygon fill="#FAF2DE" points="606.283,392.711 600.083,395.483 606.933,423.369 613.293,420.434 	"/>
	<path fill="#AF651F" d="M647.542,247.724c-0.438,0-0.873-0.146-1.23-0.434l-32.207-26.043l-18.396,11.038
		c-0.712,0.427-1.617,0.361-2.258-0.172c-0.64-0.532-0.873-1.409-0.584-2.188l12.233-32.942c0.375-1.013,1.507-1.53,2.515-1.153
		c1.016,0.376,1.53,1.503,1.154,2.516l-10.292,27.712l14.787-8.871c0.703-0.422,1.596-0.361,2.237,0.156l32.162,26.006l39.9-26.121
		c0.625-0.411,1.43-0.427,2.072-0.045l12.029,7.152l-14.916-27.699c-0.513-0.952-0.154-2.139,0.797-2.651
		c0.948-0.516,2.139-0.158,2.65,0.795l18.266,33.92c0.417,0.774,0.266,1.732-0.369,2.341c-0.637,0.609-1.603,0.719-2.354,0.268
		l-17.054-10.138l-40.072,26.232C648.286,247.618,647.915,247.724,647.542,247.724z"/>
	
		<path fill="#EBECEE" stroke="#494748" stroke-width="2" stroke-linecap="round" stroke-linejoin="round" stroke-miterlimit="10" d="
		M818.287,470.337"/>
	<path opacity="0.2" fill="#AF651F" d="M676.078,184.617c0,0-3.915,39.14-26.745,39.14c-22.831,0-29.354-41.097-29.354-41.097
		l20.225,15.983l19.568-1.63L676.078,184.617z"/>
	<path opacity="0.2" fill="#AF651F" d="M694.02,115.739c0,0-21.856,5.276-44.687,5.276c-22.831,0-40.441-7.234-40.441-7.234
		s36.204-6.85,42.727-30.603C659.772,99.104,694.02,115.739,694.02,115.739z"/>
	<path fill="#AF641F" d="M606.935,426.305c-0.688,0-1.354-0.363-1.712-1.007c-0.525-0.944-0.187-2.135,0.761-2.661l8.806-4.893
		c0.943-0.529,2.137-0.186,2.66,0.762c0.525,0.943,0.186,2.135-0.76,2.66l-8.807,4.892
		C607.582,426.227,607.256,426.305,606.935,426.305z"/>
	<path fill="#AF641F" d="M533.416,405.784c-0.621,0-1.231-0.296-1.611-0.844l-12.455-17.991c-0.615-0.889-0.395-2.108,0.496-2.724
		c0.888-0.618,2.105-0.392,2.723,0.495l12.455,17.991c0.615,0.889,0.394,2.108-0.495,2.723
		C534.188,405.671,533.8,405.784,533.416,405.784z"/>
	<path fill="#AF641F" d="M600.57,396.461c-0.914,0-1.731-0.642-1.917-1.574c-0.212-1.06,0.477-2.09,1.535-2.302l4.893-0.979
		c1.069-0.217,2.093,0.476,2.302,1.536c0.213,1.062-0.476,2.09-1.533,2.302l-4.894,0.979
		C600.827,396.449,600.696,396.461,600.57,396.461z"/>
	<g>
		<polyline fill="#F4BA84" points="556.053,333.673 528.655,393.361 597.801,389.448 608.892,442.287 538.439,459.249 		"/>
		<path fill="#AF641F" d="M538.438,461.205c-0.884,0-1.687-0.603-1.901-1.498c-0.253-1.051,0.394-2.107,1.443-2.362l68.606-16.516
			l-10.354-49.331l-67.467,3.817c-0.714,0.036-1.342-0.282-1.727-0.85c-0.387-0.568-0.449-1.296-0.164-1.92l27.398-59.689
			c0.453-0.982,1.613-1.414,2.596-0.963c0.982,0.452,1.414,1.613,0.963,2.596l-26.043,56.737l65.902-3.731
			c0.96-0.048,1.826,0.603,2.024,1.553l11.091,52.838c0.217,1.036-0.429,2.056-1.456,2.305l-70.452,16.961
			C538.744,461.188,538.592,461.205,538.438,461.205z"/>
	</g>
	<path fill="#AF651F" d="M547.572,392.711c-1.081,0-1.957-0.875-1.957-1.957v-39.14c0-1.082,0.876-1.956,1.957-1.956
		c1.082,0,1.959,0.874,1.959,1.956v39.14C549.531,391.836,548.654,392.711,547.572,392.711z"/>
	<path fill="#AF651F" d="M554.09,544.377c-1.432,0-2.684-1.047-2.898-2.504l-12.396-83.498l-29.986-157.747
		c-0.088-0.459-0.062-0.93,0.068-1.378l21.525-73.061c0.256-0.867,0.898-1.569,1.738-1.901l70.537-27.825l4.788-4.789
		c0.115-0.114,0.236-0.218,0.369-0.313l7.663-5.473l-0.986-6.411l-2.511-6.903l-6.238-19.338c-1.896-1.307-5.576-4.258-6.278-7.85
		c-0.651-3.343-3.793-22.112-3.927-22.91c-0.027-0.159-0.04-0.322-0.04-0.484v-21.526c-0.054-0.722-1.288-22.352,13.239-37.861
		c9.31-9.938,22.853-14.978,40.251-14.978c17.901,0,31.701,5.062,41.02,15.044c12.312,13.189,12.611,30.522,12.501,34.552
		l0.966,1.931c0.164,0.329,0.266,0.687,0.298,1.054l1.957,22.181c0.066,0.763-0.166,1.523-0.652,2.117l-5.308,6.483
		c-0.261,2.68-1.079,10.588-1.924,14.461c-0.938,4.298-4.396,6.838-6.316,7.946l-6.151,19.075l-2.427,6.68l0.514,6.687l6.312,5.738
		l4.938,4.935l70.613,31.742c0.833,0.376,1.447,1.118,1.654,2.009l40.445,172.861c0.096,0.411,0.102,0.836,0.018,1.252l-11.09,54.8
		c-0.128,0.637-0.465,1.215-0.959,1.64l-40.771,35.226c-1.227,1.062-3.082,0.924-4.14-0.303c-1.061-1.228-0.925-3.081,0.302-4.139
		l40.014-34.571l10.764-53.19l-39.97-170.823l-69.78-31.369c-0.324-0.146-0.622-0.35-0.871-0.602l-5.218-5.219l-7.075-6.426
		c-0.554-0.503-0.895-1.201-0.954-1.947l-0.649-8.482c-0.033-0.417,0.024-0.835,0.166-1.228l2.609-7.174l6.488-20.122
		c0.264-0.818,0.873-1.478,1.666-1.809c0.019-0.007,3.5-1.542,4.13-4.438c0.932-4.261,1.894-14.547,1.903-14.651
		c0.054-0.582,0.281-1.134,0.65-1.587l5.114-6.248l-1.803-20.435l-1.055-2.109c-0.235-0.468-0.339-0.991-0.302-1.514
		c0.012-0.176,1.045-18.225-10.943-31.022c-8.162-8.716-20.507-13.135-36.686-13.135c-15.687,0-27.773,4.401-35.93,13.082
		c-12.792,13.617-11.709,33.5-11.695,33.698l0.006,21.47c0.376,2.246,3.262,19.447,3.861,22.515
		c0.259,1.334,2.835,3.554,4.515,4.578c0.603,0.366,1.051,0.936,1.267,1.605l6.523,20.224l2.573,7.072
		c0.066,0.181,0.114,0.367,0.143,0.557l1.305,8.482c0.169,1.095-0.294,2.191-1.194,2.835l-8.937,6.381l-5.045,5.048
		c-0.284,0.285-0.623,0.507-0.998,0.655l-69.772,27.523l-20.922,71.004l29.875,157.167l12.415,83.615
		c0.239,1.606-0.868,3.098-2.472,3.335C554.379,544.367,554.232,544.377,554.09,544.377z"/>
	<path fill="#AF651F" d="M639.714,313.283c-0.38,0-0.759-0.111-1.086-0.329c-0.548-0.366-0.875-0.983-0.871-1.642l0.489-68.984
		c0.008-1.076,0.883-1.942,1.957-1.942c0.004,0,0.01,0,0.013,0c1.083,0.007,1.952,0.889,1.944,1.971l-0.469,66.004l12.23-5.188
		l0.958-61.839c0.018-1.07,0.891-1.926,1.957-1.926c0.01,0,0.02,0,0.032,0c1.079,0.017,1.942,0.906,1.925,1.987l-0.978,63.113
		c-0.012,0.773-0.48,1.469-1.192,1.77l-16.146,6.85C640.234,313.231,639.974,313.283,639.714,313.283z"/>
	<path fill="#AF641F" d="M570.076,515.671c-1.607,0-2.918-1.295-2.935-2.905c-0.019-1.623,1.284-2.949,2.905-2.966l128.509-1.306
		c0.011,0,0.021,0,0.03,0c1.606,0,2.918,1.294,2.935,2.905c0.019,1.622-1.284,2.948-2.904,2.966l-128.509,1.306
		C570.096,515.671,570.086,515.671,570.076,515.671z"/>
	<path fill="#AF641F" d="M747.507,458.918c-1.531,0-2.822-1.189-2.926-2.74L734.144,299.29c-0.105-1.618,1.119-3.017,2.735-3.124
		c1.584-0.116,3.016,1.116,3.125,2.733l10.437,156.889c0.106,1.616-1.118,3.015-2.735,3.124
		C747.638,458.916,747.573,458.918,747.507,458.918z"/>
	<g>
		<polygon opacity="0.2" fill="#0D4C6F" points="468.15,166.292 465.376,171.248 469.999,187.486 		"/>
		<path opacity="0.2" fill="#0D4C6F" d="M694.998,422.385l1.957-25.441l-65.561-114.477l-63.926-28.049h-3.347l-1.876-4.566
			l-0.976-17.613l6.339-16.816l-34.391,11.597l-9.457,26.687l-14.324-3.152l-0.91,3.863h-3.686l-13.044,1.305l-33.271,11.742
			l-79.583,104.044l40.118,96.872l-13.696,60.66l23.806-14.345l-8.153,42.727l30.333,157.538l180.042,4.567l-21.526-155.256
			l8.319-87.58L694.998,422.385z M445.157,414.888l-18.918-41.097l26.746-26.744L445.157,414.888z M560.945,475.224v-19.57
			l46.641-102.736l36.531,49.898L560.945,475.224z"/>
		<polygon opacity="0.2" fill="#0D4C6F" points="605.434,177.496 605.571,185.187 607.097,180.81 		"/>
	</g>
	<path fill="#468092" d="M648.031,396.943l-65.561-114.477l-63.927-28.049h-62.626l-13.045,1.305l-33.271,11.742L330.02,371.508
		l40.118,96.872l-13.697,60.66l23.807-14.345l-8.152,42.727l30.333,157.538l180.042,4.567l-21.527-155.256l8.319-87.58
		l76.812-54.307L648.031,396.943z M396.232,414.888l-18.918-41.097l26.746-26.744L396.232,414.888z M512.021,455.653l46.641-102.736
		l36.532,49.898l-83.173,72.408V455.653z"/>
	<path fill="#757575" d="M421.51,189.015l-5.059-17.767l29.032-51.864c0,0,30.658-15.486,46.641-16.959
		c15.982-1.474,37.507,21.528,37.507,21.528l28.541,56.857l-4.566,13.097l-21.036,8.807l-91.489-5.872L421.51,189.015z"/>
	<path fill="#FCF6EB" d="M444.503,177.118l3.182,36.115l13.452,34.662l-2.61,11.09l-6.194,5.869l10.762,45.011l57.732-41.748
		l-7.504-18.265l-0.977-17.613l7.501-19.895l14.678-10.765l1.306-10.111l-26.258,0.407c0,0-5.217-15.629-18.756-24.868
		c-5.272-3.599-7.092-19.245-7.092-19.245l-14.268,20.706l-17.126,6.041L444.503,177.118z"/>
	<path opacity="0.2" fill="#0D4C6F" d="M483.725,147.761c0,0,25.034,35.494,27.318,46.257c-52.512-24.462-59.955-2.044-67.843-6.465
		c0,0,3.568-12.563,9.131-13.045C479.404,172.165,483.725,147.761,483.725,147.761z"/>
	<circle fill="#0D4C6F" cx="451.517" cy="185.596" r="4.403"/>
	<circle fill="#0D4C6F" cx="488.373" cy="186.574" r="4.404"/>
	<path fill="#0D4C6F" d="M463.583,184.291c-0.466,0-0.935-0.165-1.307-0.501c-9.249-8.309-12.312-5.145-12.342-5.111
		c-0.7,0.777-1.923,0.902-2.727,0.235c-0.809-0.665-0.983-1.809-0.354-2.646c0.138-0.185,1.437-1.816,4.232-2.091
		c3.806-0.36,8.446,1.884,13.805,6.703c0.805,0.722,0.871,1.959,0.149,2.763C464.652,184.072,464.119,184.291,463.583,184.291z"/>
	<path opacity="0.5" fill="#0D4C6F" d="M475.313,234.7c-4.158,0-8.815-1.411-14.373-4.253c-1.442-0.739-2.015-2.508-1.274-3.951
		c0.737-1.446,2.51-2.012,3.95-1.277c10.628,5.438,14.917,3.688,18.101,1.62c1.356-0.882,3.178-0.499,4.061,0.861
		c0.883,1.359,0.498,3.178-0.861,4.062C481.909,233.717,478.784,234.7,475.313,234.7z"/>
	<path opacity="0.5" fill="#0D4C6F" d="M469.904,217.742c-2.655,0-5.038-1.471-6.705-4.195c-0.845-1.384-0.408-3.191,0.975-4.036
		c1.385-0.846,3.188-0.411,4.036,0.973c0.357,0.586,0.914,1.3,1.53,1.378c0.89,0.117,2.244-0.833,2.709-1.285l2.035,2.096
		l0.026-0.006l2.915,0.347c-0.279,2.352-4.328,4.206-5.895,4.548C470.981,217.683,470.437,217.742,469.904,217.742z"/>
	<path fill="#0D4C6F" d="M482.037,185.88c-0.594,0-1.182-0.269-1.566-0.781c-0.648-0.864-0.475-2.091,0.389-2.741
		c0.283-0.213,0.591-0.454,0.924-0.711c3.853-3.005,11.868-9.254,19.545-1.688c0.771,0.758,0.777,1.997,0.019,2.768
		c-0.759,0.77-1.997,0.777-2.767,0.019c-4.832-4.762-9.564-1.777-14.391,1.986c-0.35,0.275-0.677,0.53-0.979,0.755
		C482.859,185.752,482.447,185.88,482.037,185.88z"/>
	<path fill="#0D4C6F" d="M457.879,326.821c-0.252,0-0.505-0.049-0.745-0.147c-0.673-0.276-1.138-0.904-1.204-1.63l-5.546-60.011
		c-0.074-0.817,0.367-1.595,1.109-1.946c0.205-0.102,5.289-2.69,6.744-10.339c0.584-3.076-0.723-8.704-3.59-15.45
		c-0.918-1.962-1.5-3.301-1.5-3.301c-0.422-0.973,0.006-2.104,0.968-2.553c0.965-0.448,2.104-0.048,2.577,0.897
		c0,0,0.664,1.324,1.529,3.359c4.781,10.192,7.564,13.552,8.369,13.905c1.041,0.282,2.844,0.451,4.904,0.451
		c4.176,0,8.383-0.657,10.717-1.674c12.277-5.354,31.553-22.954,31.746-23.131c0.675-0.619,1.684-0.686,2.437-0.165
		c0.751,0.521,1.042,1.494,0.699,2.341c-0.325,0.809-7.824,20.021,6.201,36.483c0.417,0.488,0.616,1.133,0.559,1.815
		c-0.519,6.199-45.431,44.47-64.716,60.637C458.777,326.665,458.33,326.821,457.879,326.821z M454.395,265.894l5.09,55.067
		c27.934-23.522,57.188-49.672,60.265-55.191c-9.953-12.184-9.536-25.551-8.079-33.291c-6.699,5.737-18.848,15.546-27.896,19.491
		c-3.384,1.476-8.562,2.001-12.28,2.001c-2.43,0-4.551-0.214-5.977-0.603c-0.575-0.157-1.535-0.418-3.233-2.53
		c0.016,0.935-0.046,1.821-0.203,2.643C460.691,260.778,456.497,264.464,454.395,265.894z"/>
	<path fill="#0D4C6F" d="M534.528,199.239c-0.142,0-0.288-0.015-0.431-0.048c-1.055-0.236-1.719-1.282-1.48-2.337l0.76-3.392
		l-23.773,0.369c-1.007,0.004-1.803-0.683-1.961-1.637c-0.019-0.105-1.971-10.977-11.885-17.953
		c-7.303-5.142-10.598-14.96-12.037-21.547c-2.816,5.495-7.795,13.367-14.926,17.918c-19.839,12.666-34.016,8.826-34.612,8.653
		c-1.039-0.297-1.642-1.379-1.346-2.419c0.296-1.037,1.374-1.64,2.414-1.346c0.175,0.047,13.237,3.433,31.438-8.187
		c10.381-6.627,16.034-21.917,16.09-22.07c0.314-0.865,1.197-1.4,2.102-1.27c0.912,0.124,1.614,0.865,1.689,1.782
		c0.014,0.183,1.581,18.342,11.439,25.284c8.96,6.304,12.143,15.19,13.117,18.854l24.672-0.383c0.673,0.017,1.172,0.256,1.548,0.722
		c0.378,0.464,0.524,1.078,0.392,1.663l-1.303,5.815C536.23,198.621,535.424,199.239,534.528,199.239z"/>
	<path fill="#FAF2DE" stroke="#0D4C6F" stroke-miterlimit="10" d="M517.978,168.862"/>
	<path fill="#0D4C6F" d="M525.719,162.707c-0.197,0-0.398-0.03-0.598-0.094c-28.143-9.046-33.393-31.317-33.603-32.262
		c-0.233-1.055,0.432-2.101,1.487-2.334c1.056-0.228,2.098,0.429,2.333,1.483c0.068,0.294,5.11,21.071,30.979,29.386
		c1.03,0.331,1.597,1.434,1.265,2.463C527.314,162.178,526.547,162.707,525.719,162.707z"/>
	<path fill="#0D4C6F" d="M521.319,201.356c-0.146,0-0.295-0.016-0.442-0.049c-1.053-0.244-1.711-1.294-1.468-2.348l1.468-6.36
		c0.244-1.052,1.301-1.706,2.347-1.467c1.054,0.244,1.71,1.294,1.468,2.348l-1.468,6.36
		C523.014,200.745,522.209,201.356,521.319,201.356z"/>
	
		<path fill="#EBECEE" stroke="#0D4C6F" stroke-width="2" stroke-linecap="round" stroke-linejoin="round" stroke-miterlimit="10" d="
		M655.857,527.09"/>
	<path opacity="0.2" fill="#0D4C6F" d="M510.387,231.587c0,0-15.653,43.052-38.484,43.052c-22.83,0-8.483-28.375-8.483-28.375
		s0.286,6.198,5.871,6.198C487.883,252.462,510.387,231.587,510.387,231.587z"/>
	<path fill="#0D4C6F" d="M370.985,462.535c-0.621,0-1.23-0.294-1.611-0.843l-12.454-17.991c-0.615-0.889-0.394-2.107,0.495-2.724
		c0.889-0.615,2.106-0.392,2.723,0.496l12.455,17.991c0.616,0.889,0.394,2.107-0.495,2.723
		C371.758,462.424,371.371,462.535,370.985,462.535z"/>
	<g>
		<polyline fill="#F4BA84" points="393.624,390.425 366.226,450.115 435.372,446.201 446.461,499.04 376.01,516.001 		"/>
		<path fill="#0D4C6F" d="M376.009,517.958c-0.883,0-1.686-0.602-1.902-1.498c-0.252-1.052,0.394-2.109,1.445-2.362l68.605-16.516
			l-10.355-49.332l-67.466,3.818c-0.728,0.04-1.342-0.283-1.728-0.851c-0.386-0.566-0.447-1.295-0.163-1.918l27.398-59.69
			c0.453-0.983,1.612-1.413,2.595-0.963c0.982,0.451,1.415,1.612,0.963,2.595l-26.043,56.737l65.901-3.73
			c0.956-0.046,1.827,0.602,2.026,1.552l11.09,52.839c0.219,1.035-0.428,2.057-1.456,2.305l-70.451,16.961
			C376.314,517.941,376.162,517.958,376.009,517.958z"/>
	</g>
	<path fill="#0D4C6F" d="M385.144,449.464c-1.083,0-1.957-0.876-1.957-1.957v-39.141c0-1.081,0.875-1.957,1.957-1.957
		c1.081,0,1.957,0.876,1.957,1.957v39.141C387.101,448.588,386.225,449.464,385.144,449.464z"/>
	<polygon fill="#FCF6EB" points="581.982,416.025 599.13,430.832 607.913,452.718 569.263,476.691 571.709,426.789 	"/>
	<path fill="#0D4C6F" d="M581.488,722.463c-1.455,0-2.716-1.079-2.907-2.559l-23.484-181.676c-0.013-0.104-0.022-0.212-0.024-0.317
		l-0.977-49.91c-0.019-0.959,0.434-1.866,1.209-2.432l89.979-65.412l-0.182-22.391L577.46,284.715l-63.155-31.255
		c-0.839-0.414-1.428-1.203-1.591-2.123l-3.26-18.591c-0.097-0.554-0.032-1.124,0.185-1.643l8.479-20.223
		c0.396-0.942,1.252-1.611,2.262-1.766c0.008-0.001,3.32-0.604,6.111-3.648c2.842-3.101,5.47-7.6,5.495-7.645
		c0.688-1.181,2.101-1.73,3.404-1.33c0.04,0.014,5.61,1.621,10.425-1.064c11.305-6.312,9.951-11.846,5.502-24.865
		c-4.047-11.853-21.271-40.856-23.069-43.87c-5.522-6.006-20.981-20.849-29.436-20.849c-11.157,0-41.602,9.124-49.475,15.782
		c-7.278,6.154-19.374,28.653-25.636,42.664c-3.345,7.481-5.426,18.054,3.648,25.934c7.551,6.558,14.525,2.235,14.597,2.189
		c0.826-0.524,1.855-0.605,2.751-0.218c0.894,0.389,1.537,1.197,1.715,2.157l2.884,15.553l13.27,33.988
		c0.217,0.556,0.26,1.166,0.121,1.746l-1.631,6.85c-0.24,1.013-1,1.822-1.994,2.127l-47.989,14.716l-74.835,102.657
		c4.151,11.732,29.985,85.306,29.985,98.35c0,7.845,2.095,44.307,2.267,47.262L406.29,718.33c0.3,1.593-0.748,3.127-2.341,3.428
		c-1.578,0.315-3.129-0.747-3.426-2.342l-37.837-200.918c-0.025-0.121-0.04-0.246-0.046-0.372
		c-0.093-1.606-2.288-39.482-2.288-47.789c0-10.687-21.773-74.252-30.163-97.843c-0.325-0.914-0.178-1.931,0.394-2.715
		l76.322-104.698c0.375-0.513,0.904-0.89,1.511-1.077l47.317-14.51l1.029-4.322l-13.038-33.393
		c-0.067-0.172-0.119-0.351-0.151-0.532l-2.269-12.232c-4.562,1.306-11.35,1.249-17.806-4.358
		c-9.2-7.989-11.033-19.625-5.158-32.764c4.346-9.725,17.708-36.722,27.203-44.75c8.961-7.578,40.74-17.169,53.267-17.169
		c12.672,0,31.827,20.628,33.972,22.98c0.129,0.144,0.247,0.3,0.346,0.466c0.786,1.31,19.293,32.212,23.745,45.246
		c4.028,11.795,7.837,22.937-8.196,31.888c-4.805,2.681-9.886,2.473-12.736,2.039c-1.147,1.792-3.049,4.577-5.125,6.842
		c-2.786,3.042-5.947,4.441-7.842,5.051l-7.588,18.096l2.855,16.279l62.595,30.977c0.506,0.249,0.928,0.641,1.217,1.124
		l68.496,114.476c0.269,0.45,0.412,0.962,0.417,1.486l0.199,24.698c0.008,0.946-0.444,1.841-1.211,2.397l-89.96,65.399l0.945,48.218
		l23.463,181.516c0.207,1.607-0.929,3.081-2.535,3.287C581.739,722.455,581.614,722.463,581.488,722.463z"/>
	<path fill="#0D4C6F" d="M394.598,415.052c-1.137,0-2.191-0.663-2.67-1.72l-17.124-37.671c-0.501-1.107-0.273-2.407,0.578-3.272
		l27.109-27.593l4.872-30.186c0.257-1.601,1.758-2.689,3.365-2.431c1.6,0.258,2.689,1.765,2.429,3.365l-15.66,97.04
		c-0.207,1.275-1.225,2.268-2.507,2.44C394.859,415.044,394.728,415.052,394.598,415.052z M380.983,375.063l12.268,26.99
		l7.621-47.234L380.983,375.063z"/>
	<path fill="#0D4C6F" d="M534.526,462.503c-0.244,0-0.492-0.03-0.734-0.093c-0.954-0.247-1.722-0.957-2.042-1.889l-10.766-31.307
		c-0.236-0.688-0.209-1.438,0.078-2.107l33.195-77.62l-7.486-11.069c-0.91-1.343-0.558-3.169,0.784-4.077
		c1.343-0.907,3.167-0.558,4.077,0.787l45.99,67.999c0.82,1.214,0.624,2.844-0.462,3.824l-60.667,54.796
		C535.947,462.24,535.245,462.503,534.526,462.503z M526.904,428.376l8.951,26.034l55.477-50.106l-33.164-49.031L526.904,428.376z"
		/>
	<path fill="#0D4C6F" d="M605.469,456.63c-0.038,0-0.076,0-0.117-0.001c-1.618-0.063-2.879-1.428-2.818-3.047
		c0.004-0.115,0.377-11.564-4.531-20.487c-4.83-8.779-17.091-14.333-17.213-14.389c-1.48-0.661-2.145-2.396-1.486-3.876
		c0.658-1.48,2.396-2.145,3.873-1.488c0.575,0.256,14.179,6.395,19.971,16.925c5.71,10.381,5.274,23.016,5.254,23.547
		C608.338,455.394,607.036,456.63,605.469,456.63z"/>
	<polygon fill="#F7F2EA" points="53.436,506.208 39.41,552.523 115.405,628.846 101.706,523.174 	"/>
	<path fill="#91B87D" d="M238.645,402.655l-36.324-19.75l-62.052-6.02l-57.806,24.951l-47.017,88.444l68.544,36.802l-0.327,115.463
		c0,0,46.968,20.875,91.326,16.961c59.22-5.226,69.798-22.181,69.798-22.181l-2.608-63.274l37.917-49.783L238.645,402.655z"/>
	<polygon fill="#FFFFFF" points="274.574,553.124 335.24,542.688 335.24,512.029 305.07,511.539 	"/>
	<path fill="#FFFFFF" d="M234.665,299.229l-0.392,28.995l-23.894,52.534l-14.033,3.449l5.665,11.153c0,0,10.428,7.97,10.02,16.519
		c-0.407,8.549-15.981,12.591-15.981,12.591l-29.708-1.297l-18.144-9.632l-15.788-16.702l-8.554-12.546l16.413-7.407l10.978-37.558
		l10.905-4.664l7.165-34.135L234.665,299.229z"/>
	<path opacity="0.5" fill="#63721D" d="M210.366,353.679c-1.598,0-3.438-0.37-5.496-1.319c-1.473-0.678-2.116-2.423-1.437-3.895
		c0.676-1.472,2.419-2.117,3.895-1.438c3.492,1.609,4.91,0.232,5.061,0.07c0.997-1.277,2.809-1.463,4.085-0.461
		c1.277,0.997,1.47,2.883,0.47,4.162C215.92,352.108,213.658,353.679,210.366,353.679z"/>
	<path fill="#63721D" d="M200.052,328.214c-0.602,0-1.21-0.186-1.734-0.569c-0.254-0.18-5.374-3.776-11.386-1.739
		c-1.537,0.519-3.204-0.3-3.723-1.836c-0.522-1.535,0.3-3.201,1.834-3.724c8.994-3.057,16.442,2.34,16.755,2.57
		c1.303,0.965,1.579,2.802,0.616,4.106C201.839,327.802,200.95,328.214,200.052,328.214z"/>
	<path opacity="0.5" fill="#63721D" d="M211.97,364.545c-0.099,0-0.199-0.007-0.3-0.022c-0.7-0.108-17.217-2.715-25.114-8.7
		c-0.86-0.653-1.03-1.881-0.376-2.742c0.649-0.857,1.876-1.032,2.742-0.377c7.115,5.396,23.184,7.926,23.344,7.951
		c1.068,0.163,1.801,1.164,1.636,2.232C213.753,363.854,212.919,364.545,211.97,364.545z"/>
	<path fill="#63721D" d="M219.028,329.096c-0.654,0-1.31-0.216-1.854-0.66c-1.252-1.023-1.445-2.859-0.428-4.114
		c0.266-0.329,6.605-8.008,14.773-5.194c1.533,0.528,2.347,2.2,1.818,3.733c-0.528,1.532-2.202,2.349-3.732,1.816
		c-4.273-1.469-8.266,3.3-8.304,3.349C220.719,328.729,219.876,329.096,219.028,329.096z"/>
	<circle fill="#63721D" cx="193.378" cy="329.388" r="5.137"/>
	<path fill="#63721D" d="M221.227,328.515c-0.573,2.779,0.952,5.441,3.398,5.942c2.446,0.502,4.893-1.339,5.466-4.119
		c0.572-2.781-0.95-5.441-3.398-5.943C224.249,323.893,221.801,325.733,221.227,328.515z"/>
	<path fill="#63721D" d="M197.096,382.646c-2.272,0-4.661-0.226-7.134-0.685c-11.208-2.076-21.599-8.417-26.473-16.153
		c-2.311-3.671-3.919-11.828-4.569-15.603c-2.106-0.048-4.841-0.929-6.853-3.938c-3.027-4.525-2.924-6.173-2.582-7.021
		c0.405-1.004,1.544-1.479,2.547-1.083c0.829,0.333,1.305,1.174,1.215,2.021c0.055,0.273,0.375,1.369,2.071,3.907
		c1.873,2.805,4.373,2.167,4.657,2.089c0.542-0.16,1.144-0.078,1.617,0.226c0.476,0.305,0.812,0.796,0.896,1.355
		c0.497,3.321,2.238,12.664,4.313,15.96c4.25,6.751,13.842,12.534,23.873,14.393c7.623,1.414,14.205,0.404,18.531-2.837
		c11.098-8.308,20.203-31.797,21.845-44.981c0.47-3.785,0.994-17.484,1.166-21.988l0.059-1.518c0.046-1.08,1.002-1.876,2.04-1.872
		c1.08,0.047,1.917,0.959,1.871,2.039l-0.06,1.5c-0.191,5.025-0.701,18.37-1.193,22.323c-1.691,13.579-10.99,38.354-23.38,47.632
		C207.818,381.206,202.827,382.646,197.096,382.646z"/>
	<path fill="#63721D" d="M193.996,399.614c-0.197,0-0.398-0.03-0.596-0.097c-1.518-0.49-4.177-2.418-4.514-6.521
		c-0.352-4.247,2.612-11.593,2.95-12.416c0.413-0.998,1.562-1.471,2.553-1.064c1,0.409,1.478,1.555,1.066,2.555
		c-0.821,1.996-2.901,7.795-2.668,10.603c0.199,2.438,1.692,3.073,1.862,3.138c0.992,0.377,1.527,1.485,1.176,2.486
		C195.542,399.102,194.801,399.614,193.996,399.614z"/>
	<path fill="#63721D" d="M185.893,427.944c-40.396,0.002-61.127-42.366-61.356-42.845c-0.466-0.976-0.052-2.144,0.923-2.609
		c0.971-0.467,2.142-0.053,2.609,0.923c0.217,0.453,19.917,40.596,57.914,40.601c4.508,0,9.269-0.563,14.291-1.827
		c4.933-1.241,7.778-3.414,8.702-6.642c2.503-8.757-9.571-23.758-14.436-28.801c-0.749-0.777-0.728-2.016,0.05-2.767
		c0.78-0.751,2.017-0.727,2.768,0.05c0.778,0.804,19.014,19.877,15.383,32.59c-1.323,4.625-5.195,7.775-11.511,9.364
		C195.838,427.339,190.722,427.944,185.893,427.944z"/>
	<path fill="#63721D" d="M100.118,526.791c-0.751,0-1.468-0.436-1.791-1.168c-0.436-0.988,0.013-2.142,1-2.58
		c0.081-0.035,8.147-3.68,15.993-13.313c7.239-8.893,15.778-24.877,15.346-50.528c-0.646-38.388-34.853-61.129-35.197-61.354
		c-0.906-0.591-1.162-1.805-0.571-2.708c0.592-0.906,1.804-1.16,2.708-0.572c0.363,0.237,36.294,24.128,36.974,64.568
		c0.453,26.959-8.656,43.836-16.374,53.246c-8.436,10.282-16.944,14.089-17.304,14.246
		C100.646,526.737,100.379,526.791,100.118,526.791z"/>
	<path fill="#63721D" d="M244.526,548.328c-0.107-0.466-10.64-46.941-7.679-96.382c2.288-38.225-24.617-58.939-24.889-59.143
		l2.349-3.131c1.179,0.883,28.866,22.114,26.446,62.507c-2.925,48.859,7.482,94.811,7.587,95.27L244.526,548.328z"/>
	<path fill="#63721D" d="M147.709,357.938c-0.853,0-1.634-0.559-1.881-1.417c-0.298-1.037,0.3-2.119,1.334-2.419
		c0.268-0.079,5.765-1.79,5.708-7.03c-0.011-1.081,0.854-1.967,1.936-1.979c1.106,0.025,1.967,0.854,1.978,1.936
		c0.07,6.609-5.552,9.976-8.535,10.833C148.068,357.913,147.886,357.938,147.709,357.938z"/>
	<path fill="#63721D" d="M334.591,514.964c-0.032,0-0.064,0-0.097-0.003l-39.793-1.305c-1.05-0.035-2.002-0.628-2.495-1.553
		l-57.53-107.842l-40.868-18.001c-1.483-0.653-2.158-2.387-1.504-3.869c0.655-1.485,2.391-2.152,3.87-1.505l41.796,18.411
		c0.602,0.265,1.097,0.724,1.406,1.304l57.209,107.243l38.098,1.25c1.62,0.053,2.892,1.409,2.838,3.028
		C337.471,513.712,336.167,514.964,334.591,514.964z"/>
	<path fill="#63721D" d="M271.31,758.985c-1.554,0-2.852-1.218-2.93-2.787l-9.134-182c-0.082-1.618,1.167-2.998,2.785-3.079
		c1.598-0.062,2.998,1.166,3.079,2.786l9.133,181.998c0.082,1.619-1.166,2.999-2.784,3.079
		C271.41,758.983,271.36,758.985,271.31,758.985z"/>
	<polygon fill="#63721D" points="237.756,293.083 243.444,310.446 206.019,301.099 210.647,306.608 189.077,301.025 
		183.198,310.102 176.66,305.241 177.511,309.587 178.506,330.615 169.102,329.672 170.09,338.672 163.389,334.807 151.546,333.085 
		153.998,352.842 142.296,353.808 145.5,345.032 137.83,319.484 139.309,297.763 	"/>
	<path opacity="0.2" fill="#63721D" d="M236.573,302.503l-2.622,21.821c0,0-32.141,3.142-49.593-18.002l-19.853,13.258l3.949-21.605
		L236.573,302.503z"/>
	<path fill="#63721D" d="M173.339,344.289c-0.472,0-0.942-0.17-1.312-0.505l-8.222-7.42c-0.802-0.725-0.866-1.963-0.141-2.764
		c0.724-0.804,1.96-0.865,2.763-0.143l3.179,2.868c-2.223-8.517-1.313-8.973-0.132-9.563c0.499-0.252,1.808-0.651,3.105,1.093
		c1.321,1.766,3.042,1.899,3.971,1.812c0.73-1.603,2.2-6.207-0.203-13.909c-2.008-6.433-1.926-9.754,0.278-11.102
		c1.915-1.182,4.417,0.088,6.303,1.496c0.881-1.514,2.311-3.307,4.46-4.282c2.368-1.076,5.028-0.955,7.904,0.367
		c3.144,1.441,6.44,2.73,9.284,3.763l-2.313-2.352c-0.387-0.395-0.59-0.938-0.557-1.489c0.045-0.766,0.512-1.51,1.249-1.989
		c1.589-1.028,5.361-1.768,19.836,3.659c13.487,5.059,17.621,5.42,19.4,4.632c-2.188-3.216-4.392-9.138-5.617-12.724
		c-3,1.223-8.94,3.288-15.541,3.631c-3.714,0.196-8.671-0.115-14.404-0.472c-13.785-0.862-32.664-2.037-38.945,4.658
		c-1.804,1.921-2.481,4.428-2.072,7.663c0.155,1.229,0.39,3.086-1.341,3.633c-1.718,0.541-2.495-0.922-3.394-2.62
		c-0.759-1.432-2.773-5.236-4.199-5.55c-0.076-0.021-0.212-0.048-0.512,0.183c-5.928,4.498-8.385,6.36-10.878,3.482
		c-0.44-0.507-0.818-0.945-2.232-1.17c-1.066-0.171-1.794-1.172-1.625-2.239c0.17-1.067,1.159-1.789,2.24-1.627
		c2.683,0.428,3.847,1.638,4.481,2.364c1.309-0.638,4.514-3.069,5.647-3.931c1.141-0.864,2.421-1.168,3.723-0.885
		c1.76,0.388,3.212,1.813,4.403,3.47c0.474-2.073,1.443-3.897,2.903-5.452c7.545-8.037,26.674-6.843,42.045-5.886
		c5.377,0.335,10.459,0.65,13.956,0.471c8.45-0.438,15.987-4.098,16.062-4.135c0.511-0.25,1.105-0.267,1.628-0.045
		c0.523,0.223,0.925,0.661,1.099,1.204c1.978,6.158,5.03,13.51,6.511,14.649c0.424,0.325,0.697,0.812,0.753,1.344
		c0.058,0.532-0.107,1.064-0.453,1.473c-3.341,3.949-7.429,4.143-25.015-2.453c-7.412-2.781-11.57-3.74-13.84-4.028l5.517,5.61
		c0.627,0.636,0.742,1.615,0.283,2.381c-0.46,0.766-1.376,1.126-2.236,0.867c-0.375-0.111-9.284-2.774-17.479-6.532
		c-1.823-0.836-3.342-0.956-4.653-0.36c-2.458,1.114-3.498,4.418-3.507,4.452c-0.195,0.656-0.72,1.163-1.384,1.334
		c-0.66,0.18-1.37-0.013-1.859-0.491c-1.126-1.098-2.598-2.153-3.438-2.507c-0.052,0.733,0.058,2.505,1.263,6.37
		c3.597,11.523-0.457,17.659-0.63,17.917c-0.246,0.358-0.601,0.625-1.013,0.757c-0.159,0.051-2.809,0.876-5.611-0.328
		c0.596,2.539,1.501,5.876,2.385,8.833c0.252,0.842-0.088,1.745-0.83,2.215C174.063,344.19,173.7,344.289,173.339,344.289z"/>
	<path fill="#A2BC61" d="M213.166,304.438l49.609-13.587l-30.283-11.83l-7.903-26.583c0,0-12.879-17.265-43.567-16.369
		c-30.671,0.893-44.608,24.631-44.608,24.631l-2.305,37.494l46.427-0.558L213.166,304.438z"/>
	<path fill="#63721D" d="M109.532,769.423c-1.567,0-2.867-1.237-2.932-2.817l-7.826-193.089c-0.065-1.619,1.194-2.985,2.815-3.053
		c1.649-0.068,2.986,1.194,3.052,2.815l7.826,193.089c0.064,1.618-1.194,2.985-2.815,3.053
		C109.612,769.423,109.572,769.423,109.532,769.423z"/>
	<path fill="#63721D" d="M103.011,622.649c-0.738,0-1.475-0.275-2.045-0.831L33.75,556.553c-0.778-0.757-1.076-1.881-0.774-2.922
		l15.157-52.355c0.449-1.558,2.081-2.457,3.635-2.002c1.558,0.448,2.454,2.077,2.003,3.635l-14.666,50.661l65.95,64.038
		c1.164,1.13,1.191,2.987,0.062,4.151C104.542,622.351,103.778,622.649,103.011,622.649z"/>
	<path fill="#63721D" d="M100.565,529.529c-0.495,0-0.988-0.125-1.43-0.37l-65.119-36.313c-1.37-0.765-1.898-2.473-1.196-3.875
		l44.988-90.103c0.333-0.669,0.908-1.183,1.607-1.442l43.417-16.05c0.184-0.062,10.759-3.661,15.841-6.954
		c2.277-1.478,5.082-9.933,6.884-18.36l-5,1.435c-1.051,0.3-2.184-0.003-2.938-0.798c-0.755-0.791-1.005-1.938-0.649-2.975
		l3.692-10.776c0.065-0.193,0.153-0.378,0.256-0.555c2.991-5.011,4.586-10.506,3.797-11.49c-9.045-2.748-10.66-26.201-10.815-28.868
		c-0.013-0.205-0.043-0.75-1.167-0.802c-1.573-0.071-2.868-1.373-2.861-2.948c0.006-1.178,0.174-28.984,4.136-38.869
		c6.364-15.873,36.101-28.274,60.005-25.046c13.227,1.787,35.982,9.909,39.925,44.22c1.569,2.241,13.741,4.531,18.97,5.515
		c9.352,1.76,12.851,2.419,13.366,5.526c0.092,0.561,0.22,2.489-2.054,3.776c-7.908,4.482-48.785,25.699-84.636,7.468
		c-1.445-0.734-2.021-2.501-1.286-3.946c0.734-1.446,2.5-2.023,3.947-1.286c28.651,14.567,61.244,1.647,74.346-4.842
		c-1.571-0.324-3.283-0.646-4.77-0.926c-13.896-2.616-23.052-4.757-23.697-10.472c-3.274-28.957-20.784-37.308-34.896-39.215
		c-18.887-2.552-47.998,7.016-53.769,21.413c-2.691,6.712-3.538,25.341-3.69,34.403c1.983,0.858,3.817,2.637,3.992,5.691
		c0.779,13.397,4.365,22.881,6.492,23.522c1.875,0.567,3.29,1.864,3.979,3.652c2.012,5.197-2.752,13.942-4.113,16.265l-1.77,5.166
		l4.18-1.2c0.97-0.28,2.012-0.038,2.765,0.631c0.753,0.672,1.106,1.684,0.94,2.678c-0.898,5.326-4.302,23.01-10.37,26.94
		c-5.699,3.692-16.611,7.405-17.074,7.562L82.542,402.53l-43.216,86.553l59.916,33.411l16.279-34.816
		c0.684-1.468,2.429-2.104,3.902-1.413c1.467,0.686,2.102,2.433,1.414,3.901l-17.613,37.673c-0.344,0.737-0.98,1.299-1.757,1.55
		C101.173,529.482,100.869,529.529,100.565,529.529z"/>
	<path opacity="0.2" fill="#63721D" d="M152.97,348.349c0.661-6.956,7.909,0.657,7.909,0.657l5.207,15.524l25.75,18.575
		l-7.157,8.445l2.427,13.546c0,0-28.544-4.847-32.902-41.796l-10.787,4.164l3.86-16.684L152.97,348.349z"/>
	<path fill="#63721D" d="M179.645,661.797c-55.118,0-74.982-16.215-75.923-17.012c-1.236-1.049-1.39-2.901-0.342-4.138
		c1.045-1.23,2.891-1.387,4.126-0.352c0.262,0.218,26.091,20.875,100.272,14.329c42.572-3.757,54.557-18.921,54.673-19.074
		c0.981-1.294,2.827-1.543,4.113-0.562c1.292,0.98,1.542,2.823,0.562,4.112c-0.539,0.709-13.701,17.389-58.832,21.372
		C197.835,661.396,188.303,661.797,179.645,661.797z"/>
	<path fill="#63721D" d="M274.57,556.06c-1.405,0-2.647-1.011-2.89-2.442c-0.273-1.6,0.804-3.115,2.401-3.387l58.811-10.011
		l-0.585-22.245c-0.044-1.62,1.236-2.967,2.857-3.009c0.025-0.002,0.052-0.002,0.079-0.002c1.584,0,2.892,1.263,2.931,2.858
		l0.652,24.789c0.04,1.46-1.001,2.726-2.44,2.97l-61.318,10.438C274.901,556.046,274.735,556.06,274.57,556.06z"/>
	<g>
		<polygon fill="#FFFFFF" points="180.31,728.658 160.741,728.658 125.515,570.143 164.654,570.143 		"/>
		<path fill="#63721D" d="M180.348,731.594c-0.009,0-0.022,0.003-0.038,0h-19.569c-1.376,0-2.567-0.956-2.865-2.299L122.65,570.779
			c-0.193-0.87,0.018-1.778,0.576-2.473c0.556-0.696,1.398-1.1,2.289-1.1h39.14c1.51,0,2.773,1.146,2.922,2.647l15.608,158.042
			c0.065,0.242,0.1,0.498,0.1,0.762C183.284,730.278,181.971,731.594,180.348,731.594z M163.095,725.724h13.976l-15.077-152.646
			h-32.82L163.095,725.724z"/>
	</g>
	<g>
		<polygon fill="#FFFFFF" points="714.566,728.658 734.137,728.658 769.362,570.143 730.223,570.143 		"/>
		<path fill="#63721D" d="M734.137,731.594h-19.57c-0.83,0-1.618-0.35-2.175-0.965c-0.556-0.613-0.828-1.434-0.747-2.259
			l15.656-158.516c0.148-1.502,1.411-2.647,2.922-2.647h39.14c0.891,0,1.733,0.403,2.289,1.1c0.559,0.694,0.769,1.603,0.575,2.473
			l-35.225,158.516C736.703,730.638,735.512,731.594,734.137,731.594z M717.806,725.724h13.977l33.921-152.646h-32.82
			L717.806,725.724z"/>
	</g>
	<g>
		<path fill="#FFFFFF" d="M837.856,563.293c0,4.864-3.942,8.807-8.807,8.807H63.87c-4.864,0-8.807-3.942-8.807-8.807l0,0
			c0-4.863,3.943-8.806,8.807-8.806h765.18C833.914,554.487,837.856,558.43,837.856,563.293L837.856,563.293z"/>
		<path fill="#63721D" d="M829.05,575.035H63.87c-6.475,0-11.742-5.268-11.742-11.742s5.267-11.741,11.742-11.741h765.18
			c6.475,0,11.742,5.267,11.742,11.741S835.524,575.035,829.05,575.035z M63.87,557.422c-3.237,0-5.871,2.634-5.871,5.871
			s2.634,5.871,5.871,5.871h765.18c3.237,0,5.871-2.634,5.871-5.871s-2.634-5.871-5.871-5.871H63.87z"/>
	</g>
	<g>
		<path fill="#FFFFFF" d="M567.142,542.745c0,5.404-4.38,9.785-9.785,9.785H346.002c-5.404,0-9.785-4.381-9.785-9.785
			l-7.827-142.859c0-5.405,4.38-9.786,9.784-9.786h227.011c5.404,0,9.785,4.381,9.785,9.786L567.142,542.745z"/>
		<path fill="#63721D" d="M557.356,555.465H346.002c-7.014,0-12.72-5.706-12.72-12.72l-7.825-142.698
			c-0.004-7.176,5.703-12.882,12.716-12.882h227.011c7.013,0,12.72,5.706,12.72,12.721l-7.832,143.021
			C570.076,549.759,564.37,555.465,557.356,555.465z M338.174,393.036c-3.776,0-6.849,3.073-6.849,6.85l7.824,142.699
			c0.003,3.937,3.077,7.01,6.853,7.01h211.354c3.776,0,6.849-3.073,6.849-6.85l7.832-143.021c-0.004-3.615-3.076-6.688-6.853-6.688
			H338.174z"/>
	</g>
	<g>
		<polygon fill="#FFFFFF" points="773.929,552.53 700.867,552.53 681.298,458.595 793.5,458.595 		"/>
		<path fill="#63721D" d="M773.929,555.465h-73.062c-1.391,0-2.589-0.975-2.874-2.337l-19.569-93.935
			c-0.181-0.864,0.04-1.765,0.596-2.45c0.558-0.687,1.395-1.084,2.278-1.084H793.5c0.882,0,1.72,0.397,2.277,1.084
			c0.556,0.686,0.775,1.586,0.598,2.45l-19.571,93.935C776.519,554.49,775.321,555.465,773.929,555.465z M703.255,549.595h68.288
			l18.346-88.064h-104.98L703.255,549.595z"/>
	</g>
	<g>
		
			<rect x="440.916" y="460.552" transform="matrix(0.7071 0.7071 -0.7071 0.7071 465.543 -181.3405)" fill="#FFFFFF" width="21.526" height="21.527"/>
		<path fill="#63721D" d="M451.679,489.474c-0.751,0-1.501-0.287-2.075-0.861l-15.222-15.222c-1.147-1.147-1.147-3.005,0-4.15
			l15.222-15.223c1.146-1.146,3.004-1.146,4.15,0l15.223,15.223c1.146,1.146,1.146,3.003,0,4.15l-15.223,15.222
			C453.182,489.187,452.431,489.474,451.679,489.474z M440.608,471.316l11.071,11.069l11.071-11.069l-11.071-11.073L440.608,471.316
			z"/>
	</g>
	<g>
		<path fill="#C58131" d="M258.681,430.943c-33.316,0-60.424,27.104-60.424,60.421c0,33.317,27.107,60.422,60.424,60.422
			c33.318,0,60.42-27.104,60.42-60.422C319.101,458.048,292,430.943,258.681,430.943"/>
		<g>
			<path fill="#504F53" d="M318.885,478.445c0.069-0.319,0.1-0.516,0.105-0.546l-0.22-0.036
				c-5.481-27.802-30.371-48.859-60.162-48.859c-33.796,0-61.29,27.097-61.29,60.403c0,4.831,0.581,9.53,1.673,14.037l-0.028,0.013
				c0.006,0.013,0.028,0.064,0.065,0.142c6.496,26.481,30.74,46.214,59.579,46.214c33.796,0,61.287-27.098,61.287-60.405
				C319.896,485.663,319.546,482.002,318.885,478.445 M317.88,489.407c0,13.781-4.874,26.46-13.011,36.458l-0.149-0.054
				c-0.01,0.024-1.269,2.625-9.066,3.823c-8.333,1.284-22.272-3.618-31.721-8.222c-5.859-2.861-11.219-5.478-18.052-10.414
				l7.302-10.036c5.995,3.868,12.548,5.217,17.19,5.217c0.716,0,1.388-0.032,2.003-0.092c7.178-0.695,20.632-5.842,29.496-10.415
				c7.303-3.771,12.399-7.771,14.739-11.572c0.327-0.533,0.609-1.061,0.856-1.575C317.737,484.783,317.88,487.08,317.88,489.407
				 M316.819,478.403c-0.252,1.015-0.815,2.835-1.926,4.641c-2.148,3.489-6.968,7.235-13.945,10.835
				c-8.507,4.393-21.923,9.539-28.766,10.202c-4.26,0.416-11.354-0.621-17.808-4.753l40.686-55.929
				C306.144,451.938,314.073,464.276,316.819,478.403 M293.44,442.2l-40.726,55.979c-6.191-4.796-9.553-14.163-10.182-16.047
				c-1.185-3.556-1.15-14.028-0.621-22.252c0.464-7.203,2.544-17.318,4.634-22.547c1.996-4.986,5.829-5.852,5.992-5.884
				l-0.025-0.123c2.003-0.205,4.039-0.306,6.097-0.306C271.616,431.021,283.656,435.173,293.44,442.2 M247.7,432.015
				c-1.105,1.056-2.206,2.519-3.027,4.572c-2.156,5.391-4.296,15.783-4.774,23.166c-0.418,6.488-0.738,18.641,0.723,23.016
				c0.661,1.989,4.22,11.887,10.905,17.044l-7.268,9.992c-3.595-2.704-7.606-6.051-12.306-10.391
				c-15.898-14.695-21.087-27.468-22.58-32.274c-2.031-6.55,0.746-10.978,0.774-11.02l-0.142-0.094
				C218.743,443.722,232.163,434.874,247.7,432.015 M206.647,461.342c-0.113,1.826,0.054,3.984,0.8,6.394
				c1.541,4.967,6.88,18.133,23.137,33.161c4.732,4.373,8.823,7.775,12.495,10.527l-5.967,8.203
				c-3.241-2.357-6.482-4.465-8.952-5.795c-3.436-1.851-8.965-3.225-13.844-4.436c-3.535-0.882-6.873-1.711-8.611-2.535
				c-3.165-1.5-4.434-3.384-4.776-3.987c-1.042-4.325-1.594-8.833-1.594-13.467C199.335,479.241,201.988,469.675,206.647,461.342
				 M202.099,507.04c0.744,0.563,1.648,1.126,2.743,1.645c1.919,0.91,5.196,1.726,8.988,2.669
				c4.767,1.182,10.164,2.523,13.376,4.255c2.364,1.272,5.535,3.342,8.716,5.653l-11.502,15.813
				C213.992,529.799,206.047,519.29,202.099,507.04 M226.093,538.201l11.451-15.739c3.721,2.806,7.268,5.824,9.326,8.162
				c2.846,3.234,4.738,6.339,6.412,9.076c1.197,1.957,2.324,3.808,3.641,5.456c0.774,0.966,1.798,1.878,2.751,2.625
				c-0.355,0.007-0.71,0.014-1.066,0.014C246.611,547.795,235.437,544.261,226.093,538.201 M262.941,547.638
				c-0.938-0.605-3.155-2.131-4.443-3.741c-1.238-1.547-2.333-3.344-3.495-5.247c-1.712-2.808-3.656-5.99-6.616-9.356
				c-2.175-2.47-5.825-5.584-9.653-8.469l5.972-8.205c7.077,5.106,12.625,7.815,18.391,10.627
				c8.569,4.184,20.877,8.605,29.687,8.605c1.12,0,2.187-0.07,3.178-0.224c1.846-0.284,3.373-0.65,4.641-1.057
				C290.814,540.259,277.609,546.588,262.941,547.638"/>
			<path fill="#504F53" d="M258.609,551.77c-29.246,0-54.482-19.534-61.435-47.525c-0.004-0.009-0.008-0.014-0.008-0.017
				c-0.089-0.211-0.142-0.433-0.154-0.657c-1.095-4.629-1.649-9.391-1.649-14.163c0-34.386,28.373-62.36,63.247-62.36
				c29.935,0,55.845,20.829,61.92,49.642c0.023,0.029,0.044,0.058,0.065,0.089c0.302,0.43,0.416,0.966,0.319,1.482
				c-0.006,0.037-0.017,0.106-0.035,0.203c0.646,3.605,0.975,7.287,0.975,10.944C321.853,523.794,293.482,551.77,258.609,551.77z
				 M228.912,537.652c7.891,4.726,16.771,7.479,25.972,8.066c-1.16-1.545-2.171-3.197-3.233-4.934
				c-1.691-2.771-3.532-5.779-6.25-8.868c-1.548-1.76-4.216-4.146-7.455-6.68L228.912,537.652z M241.439,520.433
				c3.614,2.815,6.567,5.468,8.415,7.566c3.081,3.501,5.066,6.758,6.819,9.631c1.138,1.866,2.198,3.602,3.352,5.043
				c0.929,1.159,2.517,2.332,3.438,2.963c11.146-0.929,21.745-5.073,30.509-11.853c-9.233,0.404-22.633-4.338-31.734-8.778
				c-5.208-2.539-10.581-5.159-17.088-9.672L241.439,520.433z M205.723,511.146c3.889,9.108,10.228,17.18,18.262,23.199
				l9.193-12.638c-2.597-1.821-5.049-3.378-6.899-4.375c-3.004-1.618-8.273-2.928-12.921-4.08
				C210.399,512.518,207.746,511.858,205.723,511.146z M248.629,510.549c5.934,4.113,10.706,6.442,16.162,9.105
				c8.167,3.979,19.79,8.232,27.918,8.232c0.959,0,1.85-0.064,2.646-0.187c6.003-0.922,7.508-2.654,7.652-2.837
				c0.186-0.335,0.458-0.599,0.778-0.772c7.942-9.998,12.138-21.974,12.138-34.684c0-0.41-0.004-0.822-0.013-1.235
				c-2.932,3.128-7.395,6.272-13.14,9.24c-9.03,4.658-22.796,9.907-30.205,10.623c-0.674,0.065-1.408,0.102-2.192,0.102
				c-2.712,0-9.499-0.468-16.667-4.566L248.629,510.549z M202.76,502.114c0.367,0.548,1.435,1.865,3.784,2.98
				c1.553,0.735,4.927,1.575,8.189,2.389c5.043,1.252,10.698,2.656,14.354,4.624c2.123,1.146,4.77,2.82,7.583,4.799l3.7-5.086
				c-3.519-2.723-7.17-5.842-11.115-9.487c-16.61-15.354-22.091-28.903-23.677-34.019c-0.02-0.058-0.036-0.116-0.054-0.176
				c-2.782,6.724-4.233,13.968-4.233,21.269C201.292,493.694,201.786,497.968,202.76,502.114z M212.014,456.585
				c-0.041,0.229-0.121,0.446-0.25,0.637c-0.054,0.096-2.248,3.778-0.522,9.339c1.447,4.657,6.49,17.044,22.039,31.416
				c3.795,3.506,7.272,6.483,10.574,9.056l5.019-6.901c-6.209-5.712-9.481-14.854-10.11-16.744
				c-1.915-5.74-0.936-21.934-0.818-23.76c0.489-7.559,2.693-18.221,4.91-23.768c0.111-0.276,0.227-0.548,0.352-0.812
				C230.655,438.479,219.727,445.995,212.014,456.585z M257.225,498.736c4.082,2.195,8.848,3.474,13.11,3.474
				c0.592,0,1.146-0.026,1.655-0.076c6.41-0.621,19.683-5.668,28.059-9.994c6.565-3.386,11.243-6.98,13.177-10.122
				c0.847-1.377,1.332-2.778,1.584-3.677c-2.542-12.546-9.382-23.87-19.374-32.136L257.225,498.736z M253.357,433.211
				c-0.137,0.073-0.283,0.127-0.436,0.156c-0.097,0.024-2.973,0.732-4.558,4.692c-2.027,5.071-4.046,14.916-4.499,21.948
				c-0.624,9.679-0.404,18.725,0.523,21.505c0.529,1.583,3.21,9.084,8.003,13.785l38.289-52.631
				c-9.496-6.344-20.541-9.688-32.072-9.688C256.839,432.979,255.075,433.057,253.357,433.211z"/>
		</g>
		<g opacity="0.8">
			<g>
				<defs>
					<rect id="SVGID_9_" x="207.806" y="446.575" width="111.295" height="103.254"/>
				</defs>
				<clipPath id="SVGID_10_">
					<use xlink:href="#SVGID_9_"  overflow="visible"/>
				</clipPath>
				<path clip-path="url(#SVGID_10_)" fill="#BCBEC6" d="M207.806,521.972c10.754,16.743,29.54,27.857,50.875,27.857
					c33.318,0,60.424-27.104,60.424-60.422c0-16.724-6.834-31.881-17.85-42.832c5.15,8.447,8.823,19.949,3.652,36.749
					c-8.295,26.956-26.953,45.619-60.132,51.841C228.639,538.188,216.262,530.583,207.806,521.972"/>
			</g>
		</g>
	</g>
	<g>
		<circle fill="#FFFFFF" cx="734.138" cy="431.192" r="23.484"/>
		<path fill="#63721D" d="M734.139,457.61c-14.568,0-26.419-11.851-26.419-26.418c0-14.569,11.851-26.42,26.419-26.42
			s26.419,11.851,26.419,26.42C760.558,445.76,748.707,457.61,734.139,457.61z M734.139,410.644
			c-11.331,0-20.549,9.217-20.549,20.549c0,11.33,9.218,20.548,20.549,20.548s20.548-9.218,20.548-20.548
			C754.687,419.86,745.47,410.644,734.139,410.644z"/>
	</g>
	<g>
		<circle fill="#FFFFFF" cx="757.623" cy="390.095" r="20.548"/>
		<path fill="#63721D" d="M757.622,413.578c-12.949,0-23.483-10.534-23.483-23.483c0-12.95,10.534-23.483,23.483-23.483
			s23.483,10.533,23.483,23.483C781.105,403.044,770.571,413.578,757.622,413.578z M757.622,372.481
			c-9.712,0-17.612,7.901-17.612,17.613c0,9.711,7.9,17.612,17.612,17.612s17.613-7.901,17.613-17.612
			C775.235,380.383,767.334,372.481,757.622,372.481z"/>
	</g>
	<g>
		<circle fill="#FFFFFF" cx="730.713" cy="356.338" r="19.081"/>
		<path fill="#63721D" d="M730.714,378.353c-12.14,0-22.017-9.876-22.017-22.015c0-12.14,9.877-22.017,22.017-22.017
			c12.139,0,22.016,9.877,22.016,22.017C752.729,368.477,742.853,378.353,730.714,378.353z M730.714,340.192
			c-8.902,0-16.146,7.243-16.146,16.146c0,8.9,7.243,16.144,16.146,16.144s16.146-7.243,16.146-16.144
			C746.859,347.436,739.616,340.192,730.714,340.192z"/>
	</g>
	<g>
		<circle fill="#FFFFFF" cx="696.466" cy="404.283" r="12.231"/>
		<path fill="#63721D" d="M696.467,419.449c-8.363,0-15.167-6.803-15.167-15.166c0-8.364,6.804-15.167,15.167-15.167
			c8.362,0,15.166,6.803,15.166,15.167C711.633,412.646,704.829,419.449,696.467,419.449z M696.467,394.986
			c-5.126,0-9.296,4.17-9.296,9.297c0,5.126,4.17,9.295,9.296,9.295c5.125,0,9.296-4.169,9.296-9.295
			C705.763,399.156,701.592,394.986,696.467,394.986z"/>
	</g>
	<g>
		<circle fill="#FFFFFF" cx="780.616" cy="428.746" r="12.231"/>
		<path fill="#63721D" d="M780.616,443.912c-8.362,0-15.166-6.804-15.166-15.166c0-8.364,6.804-15.168,15.166-15.168
			c8.364,0,15.167,6.804,15.167,15.168C795.783,437.108,788.98,443.912,780.616,443.912z M780.616,419.449
			c-5.125,0-9.296,4.17-9.296,9.297c0,5.125,4.171,9.295,9.296,9.295c5.126,0,9.296-4.17,9.296-9.295
			C789.912,423.619,785.742,419.449,780.616,419.449z"/>
	</g>
	<path fill="#63721D" d="M724.354,456.632c-1.62,0-2.936-1.314-2.936-2.936v-79.258c0-1.621,1.315-2.935,2.936-2.935
		s2.935,1.313,2.935,2.935v79.258C727.288,455.317,725.974,456.632,724.354,456.632z"/>
	<path fill="#63721D" d="M760.558,458.589c-1.621,0-2.936-1.314-2.936-2.936v-53.816c0-1.62,1.314-2.937,2.936-2.937
		s2.936,1.316,2.936,2.937v53.816C763.493,457.274,762.179,458.589,760.558,458.589z"/>
	<path fill="#63721D" d="M697.934,460.546c-1.62,0-2.936-1.314-2.936-2.936v-41.097c0-1.62,1.315-2.936,2.936-2.936
		c1.622,0,2.936,1.315,2.936,2.936v41.097C700.869,459.231,699.556,460.546,697.934,460.546z"/>
	<g>
		<path fill="#FFFFFF" d="M235.108,540.877c0,6.432-4.38,11.646-9.785,11.646h-92.957c-5.405,0-9.785-5.215-9.785-11.646v-1.166
			c0-6.434,4.38-11.649,9.785-11.649h92.957c5.405,0,9.785,5.216,9.785,11.649V540.877z"/>
		<path fill="#63721D" d="M225.323,555.46h-92.957c-7.014,0-12.721-6.541-12.721-14.583v-1.166c0-8.043,5.707-14.585,12.721-14.585
			h92.957c7.014,0,12.721,6.542,12.721,14.585v1.166C238.043,548.919,232.336,555.46,225.323,555.46z M132.366,530.997
			c-3.776,0-6.85,3.909-6.85,8.714v1.166c0,4.804,3.073,8.712,6.85,8.712h92.957c3.776,0,6.85-3.908,6.85-8.712v-1.166
			c0-4.805-3.073-8.714-6.85-8.714H132.366z"/>
	</g>
	<g>
		<path fill="#FFFFFF" d="M203.796,540.877c0,6.432-4.381,11.646-9.786,11.646h-92.957c-5.404,0-9.785-5.215-9.785-11.646v-1.166
			c0-6.434,4.38-11.649,9.785-11.649h92.957c5.405,0,9.786,5.216,9.786,11.649V540.877z"/>
		<path fill="#63721D" d="M194.011,555.46h-92.957c-7.014,0-12.72-6.541-12.72-14.583v-1.166c0-8.043,5.707-14.585,12.72-14.585
			h92.957c7.014,0,12.721,6.542,12.721,14.585v1.166C206.731,548.919,201.025,555.46,194.011,555.46z M101.054,530.997
			c-3.776,0-6.849,3.909-6.849,8.714v1.166c0,4.804,3.073,8.712,6.849,8.712h92.957c3.776,0,6.85-3.908,6.85-8.712v-1.166
			c0-4.805-3.074-8.714-6.85-8.714H101.054z"/>
	</g>
	<g>
		<path fill="#FFFFFF" d="M647.54,486.971c-0.494,0-0.977,0.047-1.466,0.074v-6.929h-52.839v69.473h52.839v-8.876
			c0.489,0.027,0.972,0.075,1.466,0.075c14.858,0,26.909-12.051,26.909-26.908C674.449,499.019,662.398,486.971,647.54,486.971z
			 M647.54,529.685c-0.494,0-0.982-0.029-1.466-0.074v-31.462c0.483-0.045,0.972-0.074,1.466-0.074
			c8.729,0,15.806,7.077,15.806,15.806C663.346,522.607,656.269,529.685,647.54,529.685z"/>
		<path fill="#63721D" d="M646.074,552.523h-52.839c-1.621,0-2.936-1.314-2.936-2.935v-69.473c0-1.621,1.314-2.936,2.936-2.936
			h52.839c1.621,0,2.936,1.314,2.936,2.936v3.955c15.776,0.77,28.375,13.845,28.375,29.809s-12.599,29.039-28.375,29.807v5.902
			C649.01,551.209,647.695,552.523,646.074,552.523z M596.172,546.653h46.967v-5.94c0-0.806,0.333-1.576,0.917-2.13
			c0.585-0.554,1.376-0.836,2.179-0.801l0.487,0.03c0.272,0.019,0.542,0.041,0.818,0.041c13.219,0,23.974-10.756,23.974-23.974
			c0-13.22-10.755-23.974-23.974-23.974c-0.276,0-0.546,0.021-0.818,0.041l-0.487,0.03c-0.801,0.029-1.594-0.246-2.179-0.802
			c-0.584-0.553-0.917-1.324-0.917-2.131v-3.993h-46.967V546.653z M647.54,532.62c-0.589,0-1.169-0.032-1.743-0.088
			c-1.507-0.144-2.658-1.408-2.658-2.922v-31.462c0-1.513,1.151-2.778,2.658-2.922c0.574-0.055,1.154-0.087,1.743-0.087
			c10.333,0,18.74,8.406,18.74,18.74S657.873,532.62,647.54,532.62z M649.01,501.095v25.57c6.406-0.729,11.399-6.187,11.399-12.785
			S655.416,501.824,649.01,501.095z"/>
	</g>
	<path fill="#63721D" d="M566.816,784.428c-1.621,0-2.937-1.315-2.937-2.937s1.315-2.935,2.937-2.935
		c9.733,0,18.502-12.321,24.691-34.694c5.847-21.138,9.066-49.647,9.066-80.279c0-65.546-14.514-114.973-33.758-114.973
		c-1.621,0-2.937-1.314-2.937-2.936c0-1.62,1.315-2.935,2.937-2.935c12.797,0,23.29,13.484,30.349,38.997
		c5.986,21.634,9.28,50.7,9.28,81.846s-3.294,60.212-9.28,81.846C590.106,770.941,579.613,784.428,566.816,784.428z"/>
</g>
</svg>
