<?xml version="1.0" encoding="utf-8"?>
<!-- Generator: Adobe Illustrator 16.0.0, SVG Export Plug-In . SVG Version: 6.00 Build 0)  -->
<!DOCTYPE svg PUBLIC "-//W3C//DTD SVG 1.1//EN" "http://www.w3.org/Graphics/SVG/1.1/DTD/svg11.dtd">
<svg version="1.1" id="Layer_1" xmlns="http://www.w3.org/2000/svg" xmlns:xlink="http://www.w3.org/1999/xlink" x="0px" y="0px"
	 width="900px" height="650px" viewBox="0 0 900 650" enable-background="new 0 0 900 650" xml:space="preserve">
<path fill="#A2BB61" d="M50.284,100.458c-1.096,0-2.241-0.155-3.415-0.469L-5.92,85.902l1.761-6.598l52.788,14.087
	c1.13,0.303,2.694,0.463,3.73-0.475c1.017-0.916,1.41-2.806,1.052-5.057l-7.062-44.294c-0.875-5.484-5.669-11.198-10.469-12.479
	l-52.783-14.09l1.761-6.598l52.781,14.09c7.368,1.965,14.155,9.872,15.454,18.001l7.062,44.296
	c0.735,4.613-0.439,8.696-3.221,11.204C55.125,99.62,52.833,100.458,50.284,100.458z"/>
<path fill="#A2BB61" d="M138.971,124.129c-1.096,0-2.236-0.156-3.388-0.463L82.79,109.575c-7.365-1.963-14.15-9.869-15.446-18
	l-7.063-44.291c-0.655-4.109,0.187-7.775,2.36-10.323c2.514-2.944,6.599-4.043,10.932-2.887l52.786,14.091
	c7.364,1.965,14.15,9.869,15.45,17.996l7.062,44.299c0.653,4.107-0.188,7.772-2.361,10.321
	C144.667,122.94,141.988,124.129,138.971,124.129z M70.186,40.44c-1.017,0-1.808,0.321-2.348,0.955
	c-0.845,0.99-1.141,2.745-0.811,4.815L74.089,90.5c0.874,5.485,5.665,11.199,10.462,12.477l52.792,14.091
	c1.746,0.465,3.166,0.225,3.97-0.721c0.845-0.989,1.142-2.743,0.812-4.812l-7.062-44.296c-0.875-5.481-5.671-11.195-10.466-12.475
	l-52.786-14.09C71.234,40.519,70.688,40.44,70.186,40.44z"/>
<path fill="#A2BB61" d="M63.727,184.94c-1.093,0-2.234-0.156-3.385-0.464L7.55,170.389c-7.368-1.969-14.156-9.875-15.454-18
	l-7.064-44.294c-0.651-4.106,0.188-7.771,2.364-10.32C-10.09,94.832-6,93.737-1.68,94.888l52.788,14.087
	c7.373,1.963,14.161,9.871,15.455,18.002l7.061,44.295c0.653,4.106-0.185,7.77-2.358,10.319
	C69.422,183.75,66.747,184.94,63.727,184.94z M-5.064,101.254c-1.016,0-1.805,0.322-2.346,0.955
	c-0.845,0.991-1.142,2.745-0.813,4.812l7.063,44.291c0.876,5.481,5.671,11.196,10.472,12.479l52.791,14.087
	c1.75,0.47,3.166,0.221,3.967-0.72c0.845-0.99,1.139-2.742,0.81-4.811l-7.061-44.294c-0.871-5.485-5.666-11.2-10.469-12.478
	l-52.79-14.088C-4.017,101.333-4.563,101.254-5.064,101.254z"/>
<path fill="#A2BB61" d="M152.444,208.612c-1.096,0-2.239-0.156-3.394-0.464l-52.788-14.085c-7.369-1.965-14.155-9.873-15.451-18.001
	l-7.062-44.294c-0.654-4.106,0.188-7.771,2.361-10.32c2.517-2.944,6.605-4.042,10.929-2.886l52.787,14.087
	c7.364,1.966,14.152,9.874,15.45,18l7.061,44.296c0.654,4.105-0.185,7.771-2.358,10.32
	C158.137,207.424,155.462,208.612,152.444,208.612z M83.653,124.927c-1.017,0-1.806,0.321-2.346,0.956
	c-0.845,0.989-1.141,2.743-0.811,4.811l7.06,44.293c0.873,5.484,5.667,11.198,10.466,12.479l52.792,14.084
	c1.758,0.47,3.165,0.225,3.969-0.718c0.845-0.989,1.139-2.742,0.81-4.812l-7.061-44.293c-0.876-5.484-5.669-11.198-10.466-12.479
	L85.28,125.159C84.702,125.005,84.155,124.927,83.653,124.927z"/>
<path fill="#A2BB61" d="M77.19,269.431c-1.096,0-2.237-0.155-3.39-0.462l-52.782-14.091c-7.366-1.965-14.152-9.871-15.451-17.999
	l-7.063-44.293c-0.653-4.109,0.185-7.773,2.361-10.322c2.514-2.941,6.594-4.04,10.927-2.888l52.792,14.092
	c7.369,1.961,14.152,9.868,15.447,18.001l7.063,44.291c0.653,4.105-0.183,7.767-2.358,10.319
	C82.893,268.241,80.211,269.431,77.19,269.431z M8.409,185.743c-1.018,0-1.809,0.321-2.349,0.954
	c-0.844,0.989-1.139,2.744-0.81,4.815l7.063,44.292c0.875,5.482,5.668,11.195,10.466,12.476l52.782,14.09
	c1.747,0.469,3.172,0.225,3.979-0.724c0.845-0.989,1.14-2.742,0.81-4.808l-7.064-44.294c-0.871-5.486-5.662-11.198-10.459-12.476
	l-52.792-14.092C9.457,185.821,8.91,185.743,8.409,185.743z"/>
<path fill="#A2BB61" d="M165.905,293.104c-1.094,0-2.232-0.156-3.382-0.461l-52.788-14.09c-7.373-1.961-14.16-9.867-15.453-18
	l-7.064-44.295c-0.653-4.104,0.185-7.768,2.361-10.317c2.511-2.944,6.594-4.045,10.93-2.89l52.784,14.088
	c7.372,1.97,14.162,9.877,15.456,18.001l7.063,44.295c0.651,4.107-0.19,7.772-2.364,10.318
	C171.602,291.915,168.923,293.104,165.905,293.104z M97.125,209.418c-1.018,0-1.809,0.321-2.352,0.956
	c-0.842,0.989-1.138,2.742-0.808,4.81l7.062,44.296c0.871,5.485,5.664,11.198,10.466,12.475l52.789,14.089
	c1.747,0.463,3.162,0.22,3.972-0.723c0.843-0.989,1.141-2.742,0.812-4.811l-7.063-44.294c-0.873-5.48-5.668-11.193-10.472-12.478
	l-52.783-14.089C98.172,209.495,97.625,209.418,97.125,209.418z"/>
<path fill="#A2BB61" d="M37.379,17.883c-1.096,0-2.242-0.154-3.417-0.468l-52.783-14.09l1.761-6.598l52.781,14.09
	c1.132,0.298,2.697,0.463,3.742-0.478c1.014-0.916,1.407-2.807,1.046-5.057L33.448-39.01c-0.872-5.486-5.663-11.199-10.459-12.475
	l-52.793-14.093l1.76-6.598l52.791,14.091c7.368,1.961,14.153,9.869,15.447,18.001l7.062,44.292
	c0.737,4.609-0.434,8.693-3.216,11.202C42.229,17.044,39.932,17.883,37.379,17.883z"/>
<path fill="#A2BB61" d="M126.066,41.552c-1.093,0-2.232-0.156-3.382-0.461L69.896,27.001c-7.373-1.961-14.16-9.867-15.454-18
	L47.38-35.294c-0.653-4.104,0.185-7.768,2.361-10.318c2.51-2.945,6.596-4.043,10.93-2.89l52.784,14.089
	c7.371,1.971,14.161,9.877,15.455,18.001l7.063,44.296c0.652,4.107-0.189,7.771-2.362,10.319
	C131.764,40.363,129.085,41.552,126.066,41.552z M57.287-42.135c-1.018,0-1.809,0.322-2.352,0.957
	c-0.842,0.989-1.139,2.742-0.81,4.81l7.064,44.295c0.871,5.486,5.664,11.198,10.466,12.475l52.788,14.089
	c1.748,0.465,3.164,0.22,3.973-0.724c0.843-0.989,1.141-2.743,0.812-4.811l-7.062-44.294c-0.875-5.479-5.67-11.193-10.475-12.477
	L58.91-41.903C58.333-42.057,57.787-42.135,57.287-42.135z"/>
<path fill="#D4EDF9" d="M-507.555,545.582c482.616,4.553,824.089-179.843,824.089-179.843s-74.911-2.242-200.075-3.406
	c-5.639-36.589-37.752-64.626-76.521-64.626c-38.526,0-70.464,27.688-76.397,63.94"/>
<g>
	<path fill="none" stroke="#D4EDF9" stroke-width="3" stroke-miterlimit="10" d="M-507.555,545.582
		c482.616,4.553,824.089-179.843,824.089-179.843s-74.911-2.242-200.075-3.406c-5.639-36.589-37.752-64.626-76.521-64.626
		c-38.526,0-70.464,27.688-76.397,63.94"/>
	<path fill="none" stroke="#FFFFFF" stroke-width="6" stroke-miterlimit="10" d="M-507.555,545.582
		c482.616,4.553,824.089-179.843,824.089-179.843s-74.911-2.242-200.075-3.406c-5.639-36.589-37.752-64.626-76.521-64.626
		c-38.526,0-70.464,27.688-76.397,63.94"/>
</g>
<polyline opacity="0.4" fill="#0C4C6F" points="-888.867,671.927 14.9,659.406 -308.361,592.249 "/>
<path fill="#0D4C6F" d="M-910.495,676.479c-1.863,0-3.386-1.497-3.414-3.366c-0.027-1.884,1.479-3.438,3.365-3.463L-1.03,656.454
	l-312.561-63.133c-1.849-0.374-3.044-2.178-2.671-4.024c0.372-1.848,2.176-3.036,4.022-2.671l343.751,69.432
	c1.711,0.348,2.885,1.926,2.724,3.665c-0.16,1.735-1.606,3.071-3.35,3.099l-941.33,13.658
	C-910.461,676.479-910.479,676.479-910.495,676.479z"/>
<path fill="#0D4C6F" d="M-477.962,599.079c-1.838,0-3.355-1.463-3.412-3.312c-0.057-1.885,1.426-3.459,3.31-3.515
	c373.381-11.247,546.538-36.141,548.243-36.391c1.887-0.27,3.602,1.019,3.875,2.884c0.273,1.865-1.02,3.602-2.884,3.875
	c-1.709,0.249-175.256,25.198-549.026,36.456C-477.893,599.079-477.928,599.079-477.962,599.079z"/>
<path fill="none" stroke="#1B1C20" stroke-width="3" stroke-miterlimit="10" d="M70.675,530.784"/>
<g>
	<path fill="#504F53" d="M-9.147,71.142L95.484-33.49c4.444-4.446,11.652-4.446,16.098,0l49.095,49.096
		c4.446,4.446,4.443,11.652,0,16.097L56.046,136.335c-4.443,4.445-11.652,4.446-16.098,0L-9.147,87.239"/>
	<path fill="#1B1C20" d="M47.998,143.085c-3.953,0-7.67-1.54-10.465-4.336l-49.096-49.096l4.829-4.829l49.096,49.097
		c3.011,3.01,8.257,3.013,11.27,0L158.263,29.289c3.106-3.106,3.106-8.162,0-11.268l-49.095-49.097
		c-3.008-3.007-8.257-3.01-11.269,0L-6.733,73.556l-4.829-4.829L93.07-35.904c2.794-2.796,6.509-4.334,10.462-4.335
		c3.953,0,7.669,1.539,10.464,4.335l49.096,49.097c5.769,5.768,5.769,15.155,0,20.925L58.461,138.749
		C55.666,141.545,51.951,143.083,47.998,143.085z"/>
</g>
<path fill="#1B1C20" d="M31.096,110.32c-3.801,0-7.373-1.479-10.061-4.167c-2.687-2.687-4.167-6.259-4.167-10.059
	c0-3.803,1.481-7.375,4.169-10.062c2.686-2.687,6.258-4.167,10.06-4.167c3.799,0,7.374,1.48,10.06,4.168
	c2.688,2.685,4.167,6.258,4.167,10.059s-1.479,7.375-4.167,10.062C38.47,108.84,34.898,110.32,31.096,110.32z M31.096,88.694
	c-1.977,0-3.834,0.77-5.229,2.167c-1.4,1.398-2.169,3.255-2.169,5.232c0,1.975,0.769,3.833,2.168,5.229
	c2.794,2.796,7.665,2.796,10.462,0.001c1.398-1.398,2.167-3.256,2.167-5.232s-0.769-3.833-2.167-5.229
	C34.927,89.463,33.071,88.694,31.096,88.694z"/>
<g>
	
		<rect x="46.752" y="-6.072" transform="matrix(0.7071 0.7071 -0.7071 0.7071 55.7178 -45.3543)" fill="#FFFFFF" width="71.711" height="101.305"/>
	<path fill="#1B1C20" d="M72.144,109.165c-0.875,0-1.748-0.333-2.414-1L19.022,57.458c-0.641-0.641-1.001-1.508-1.001-2.415
		c0-0.906,0.361-1.774,1.001-2.414l71.633-71.633c1.281-1.281,3.548-1.281,4.829,0l50.705,50.707c1.334,1.333,1.334,3.496,0,4.829
		l-71.632,71.633C73.891,108.832,73.018,109.165,72.144,109.165z M26.265,55.044l45.879,45.878l66.802-66.804L93.07-11.76
		L26.265,55.044z"/>
</g>
<g>
	<path fill="#A2BB61" d="M122.849,41.823c-0.873,0-1.748-0.334-2.414-1L87.167,7.555c-1.334-1.332-1.334-3.496,0-4.828
		c1.334-1.334,3.495-1.334,4.829,0l33.268,33.267c1.333,1.333,1.333,3.496,0,4.83C124.596,41.489,123.723,41.823,122.849,41.823z"/>
	<path fill="#A2BB61" d="M109.077,55.596c-0.875,0-1.749-0.333-2.415-1L73.396,21.328c-1.334-1.333-1.334-3.496,0-4.829
		c1.334-1.334,3.494-1.334,4.829,0l33.266,33.267c1.334,1.333,1.334,3.496,0,4.829C110.824,55.262,109.951,55.596,109.077,55.596z"
		/>
	<path fill="#A2BB61" d="M95.305,69.366c-0.875,0-1.748-0.334-2.415-1L59.625,35.099c-1.334-1.334-1.334-3.496,0-4.829
		c1.334-1.334,3.495-1.334,4.829,0l33.264,33.266c1.334,1.334,1.334,3.496,0,4.829C97.051,69.032,96.178,69.366,95.305,69.366z"/>
	<path fill="#A2BB61" d="M81.532,83.138c-0.874,0-1.747-0.333-2.414-1L45.853,48.871c-1.334-1.334-1.334-3.496,0-4.829
		c1.333-1.334,3.495-1.334,4.828,0l33.265,33.268c1.334,1.333,1.334,3.496,0,4.829C83.279,82.805,82.406,83.138,81.532,83.138z"/>
</g>
<path fill="#1B1C20" d="M134.923,12.583c-0.873,0-1.748-0.333-2.415-1L115.606-5.321c-1.334-1.333-1.334-3.496,0-4.829
	c1.334-1.333,3.495-1.333,4.829,0l16.903,16.903c1.334,1.333,1.334,3.496,0,4.829C136.67,12.249,135.796,12.583,134.923,12.583z"/>
<g>
	<path fill="#FFFFFF" d="M-52.257,303.135c60.979,0,110.41,49.432,110.41,110.41c0,60.979-49.431,110.409-110.41,110.409"/>
	<path fill="#0D4C6F" d="M-52.257,527.37v-6.829c58.998,0,106.996-47.998,106.996-106.996c0-58.997-47.999-106.995-106.996-106.995
		v-6.83c62.764,0,113.826,51.062,113.826,113.825S10.507,527.37-52.257,527.37z"/>
</g>
<polyline fill="#FAFAFA" points="-17.249,431.581 13.853,447.964 9.078,490.174 -29.976,510.072 "/>
<polyline fill="#FAFAFA" points="-24.939,383.021 -0.333,358.416 38.333,376.001 45.19,419.292 13.853,447.964 -17.249,431.581 "/>
<path fill="#0D4C6F" d="M-17.916,319.753l17.583,38.663l38.666,17.585l2.528-16.288c-4.829-8.669-10.925-16.826-18.294-24.195
	c-7.366-7.366-15.522-13.462-24.192-18.292L-17.916,319.753"/>
<path fill="#0D4C6F" d="M52.614,433.978l-7.423-14.686l-31.337,28.672l-4.775,42.21L25.3,487.55
	C39.722,472.072,48.824,453.442,52.614,433.978z"/>
<path fill="#C7CBD6" d="M-56.794,523.964c60.619,0,109.76-49.145,109.76-109.765c0-30.387-12.349-57.883-32.3-77.767l-1.847-0.288
	c0,0,25.615,65.859-53.664,121.958"/>
<polyline fill="none" points="-164.089,523.964 52.966,523.964 52.966,336.145 -164.089,336.145 "/>
<g>
	<g opacity="0.5">
		<path fill="#A2BB61" d="M393.309,114.915c-2.252,0-4.21-1.672-4.508-3.966c-0.326-2.495,1.435-4.779,3.928-5.103l96.003-12.469
			c2.506-0.329,4.778,1.435,5.102,3.929c0.326,2.494-1.435,4.779-3.928,5.102l-96.003,12.468
			C393.703,114.902,393.505,114.915,393.309,114.915z"/>
		<path fill="#A2BB61" d="M396.111,136.485c-2.253,0-4.21-1.672-4.509-3.966c-0.325-2.494,1.435-4.779,3.928-5.102l96.003-12.469
			c2.502-0.33,4.779,1.435,5.103,3.928c0.325,2.494-1.437,4.779-3.929,5.102l-96.002,12.47
			C396.503,136.473,396.306,136.485,396.111,136.485z"/>
		<path fill="#A2BB61" d="M398.913,158.057c-2.251,0-4.21-1.671-4.507-3.966c-0.326-2.494,1.435-4.778,3.928-5.102l96.003-12.47
			c2.506-0.317,4.778,1.435,5.103,3.928c0.324,2.495-1.436,4.779-3.929,5.103l-96.003,12.469
			C399.308,158.045,399.109,158.057,398.913,158.057z"/>
		<path fill="#A2BB61" d="M401.715,179.63c-2.253,0-4.211-1.672-4.509-3.966c-0.325-2.494,1.436-4.777,3.929-5.102l96.002-12.471
			c2.502-0.318,4.779,1.436,5.103,3.929c0.325,2.494-1.436,4.777-3.928,5.102l-96.003,12.471
			C402.108,179.618,401.911,179.63,401.715,179.63z"/>
		<path fill="#A2BB61" d="M370.36,117.896c-2.252,0-4.21-1.672-4.509-3.967c-0.324-2.494,1.434-4.778,3.928-5.102l3.721-0.484
			c2.503-0.317,4.779,1.436,5.103,3.929c0.324,2.494-1.436,4.777-3.929,5.102l-3.72,0.482
			C370.753,117.884,370.555,117.896,370.36,117.896z"/>
		<path fill="#A2BB61" d="M373.164,139.466c-2.253,0-4.211-1.672-4.509-3.966c-0.326-2.495,1.433-4.777,3.928-5.103l3.721-0.483
			c2.494-0.318,4.78,1.435,5.103,3.928c0.324,2.495-1.436,4.778-3.929,5.103l-3.721,0.483
			C373.557,139.454,373.359,139.466,373.164,139.466z"/>
		<path fill="#A2BB61" d="M375.964,161.039c-2.251,0-4.21-1.671-4.509-3.966c-0.325-2.495,1.434-4.778,3.929-5.102l3.72-0.484
			c2.503-0.319,4.779,1.436,5.103,3.929c0.324,2.494-1.434,4.777-3.928,5.102L376.559,161
			C376.357,161.026,376.16,161.039,375.964,161.039z"/>
		<path fill="#A2BB61" d="M378.765,182.61c-2.253,0-4.21-1.673-4.508-3.969c-0.323-2.493,1.435-4.776,3.93-5.1l3.725-0.482
			c2.474-0.332,4.773,1.436,5.1,3.93c0.321,2.493-1.438,4.777-3.931,5.101l-3.724,0.482
			C379.159,182.598,378.961,182.61,378.765,182.61z"/>
	</g>
	<g opacity="0.5">
		<path fill="#A2BB61" d="M405.103,205.719c-2.252,0-4.209-1.671-4.508-3.966c-0.325-2.495,1.437-4.778,3.929-5.103l96.006-12.47
			c2.503-0.318,4.777,1.435,5.102,3.928c0.324,2.495-1.436,4.778-3.928,5.102l-96.007,12.471
			C405.496,205.708,405.299,205.719,405.103,205.719z"/>
		<path fill="#A2BB61" d="M442.938,180.908c-2.251,0-4.211-1.672-4.509-3.966c-0.324-2.495,1.438-4.778,3.929-5.103l55.627-7.226
			c2.5-0.318,4.778,1.435,5.103,3.928c0.324,2.495-1.436,4.778-3.929,5.102l-55.627,7.227
			C443.331,180.896,443.134,180.908,442.938,180.908z"/>
		<path fill="#A2BB61" d="M407.905,227.289c-2.253,0-4.212-1.672-4.509-3.966c-0.326-2.494,1.436-4.779,3.928-5.103l96.003-12.469
			c2.499-0.319,4.778,1.435,5.102,3.928c0.326,2.495-1.435,4.779-3.928,5.103l-96.003,12.469
			C408.298,227.277,408.1,227.289,407.905,227.289z"/>
		<path fill="#A2BB61" d="M410.706,248.862c-2.253,0-4.21-1.672-4.509-3.967c-0.324-2.494,1.435-4.778,3.928-5.102l96.006-12.469
			c2.506-0.321,4.778,1.435,5.102,3.928c0.324,2.495-1.435,4.779-3.928,5.102l-96.005,12.469
			C411.098,248.85,410.9,248.862,410.706,248.862z"/>
		<path fill="#A2BB61" d="M413.508,270.433c-2.252,0-4.21-1.672-4.508-3.967c-0.325-2.494,1.435-4.776,3.928-5.102l96.003-12.472
			c2.499-0.318,4.778,1.435,5.104,3.929c0.323,2.495-1.437,4.778-3.93,5.102l-96.004,12.472
			C413.902,270.42,413.704,270.433,413.508,270.433z"/>
		<path fill="#A2BB61" d="M382.155,208.699c-2.252,0-4.209-1.673-4.508-3.968c-0.323-2.494,1.435-4.777,3.93-5.101l3.722-0.482
			c2.468-0.321,4.774,1.435,5.1,3.929c0.321,2.495-1.437,4.778-3.931,5.101l-3.722,0.483
			C382.549,208.686,382.351,208.699,382.155,208.699z"/>
		<path fill="#A2BB61" d="M384.957,230.271c-2.252,0-4.21-1.672-4.509-3.966c-0.325-2.495,1.433-4.778,3.929-5.102l3.722-0.484
			c2.494-0.321,4.779,1.434,5.102,3.928c0.324,2.495-1.434,4.777-3.928,5.103l-3.722,0.483
			C385.351,230.258,385.153,230.271,384.957,230.271z"/>
		<path fill="#A2BB61" d="M387.76,251.843c-2.252,0-4.208-1.671-4.509-3.965c-0.324-2.493,1.434-4.777,3.927-5.104l3.718-0.484
			c2.489-0.308,4.779,1.432,5.106,3.927c0.324,2.493-1.436,4.777-3.926,5.104l-3.721,0.484
			C388.156,251.831,387.958,251.843,387.76,251.843z"/>
		<path fill="#A2BB61" d="M390.561,273.412c-2.251,0-4.209-1.671-4.507-3.967c-0.323-2.495,1.435-4.778,3.929-5.1l3.721-0.484
			c2.465-0.323,4.775,1.434,5.1,3.931c0.323,2.494-1.436,4.777-3.931,5.1l-3.718,0.483
			C390.955,273.4,390.757,273.412,390.561,273.412z"/>
	</g>
	<g opacity="0.5">
		<path fill="#A2BB61" d="M578.574,206.396c-2.252,0-4.211-1.672-4.509-3.966c-0.324-2.495,1.437-4.779,3.929-5.103l80.516-10.458
			c2.494-0.322,4.777,1.434,5.102,3.928c0.323,2.494-1.436,4.779-3.928,5.102l-80.516,10.458
			C578.967,206.383,578.769,206.396,578.574,206.396z"/>
		<path fill="#A2BB61" d="M609.895,182.431c-2.254,0-4.211-1.671-4.51-3.966c-0.324-2.494,1.437-4.779,3.93-5.102l46.653-6.059
			c2.506-0.324,4.779,1.434,5.103,3.928c0.324,2.494-1.436,4.778-3.929,5.103l-46.653,6.059
			C610.287,182.419,610.09,182.431,609.895,182.431z"/>
		<path fill="#A2BB61" d="M581.375,227.968c-2.252,0-4.211-1.673-4.508-3.966c-0.325-2.495,1.436-4.779,3.928-5.102l80.515-10.458
			c2.504-0.324,4.778,1.434,5.104,3.928c0.324,2.495-1.437,4.779-3.93,5.103l-80.515,10.457
			C581.77,227.955,581.571,227.968,581.375,227.968z"/>
		<path fill="#A2BB61" d="M584.176,249.54c-2.252,0-4.21-1.671-4.509-3.966c-0.323-2.495,1.438-4.778,3.931-5.102l80.513-10.459
			c2.498-0.326,4.779,1.434,5.103,3.928c0.325,2.495-1.435,4.778-3.928,5.103l-80.516,10.458
			C584.57,249.528,584.372,249.54,584.176,249.54z"/>
		<path fill="#A2BB61" d="M586.977,271.11c-2.251,0-4.209-1.671-4.507-3.965c-0.325-2.496,1.436-4.779,3.928-5.102l80.517-10.458
			c2.504-0.328,4.779,1.434,5.103,3.928c0.324,2.495-1.435,4.778-3.928,5.103l-80.519,10.458
			C587.372,271.099,587.174,271.11,586.977,271.11z"/>
		<path fill="#A2BB61" d="M559.326,208.895c-2.252,0-4.211-1.672-4.509-3.967c-0.322-2.494,1.437-4.777,3.931-5.101l3.122-0.404
			c2.465-0.317,4.775,1.436,5.099,3.929c0.323,2.495-1.436,4.778-3.93,5.101l-3.121,0.405
			C559.72,208.883,559.522,208.895,559.326,208.895z"/>
		<path fill="#A2BB61" d="M562.13,230.467c-2.252,0-4.211-1.671-4.509-3.966c-0.324-2.493,1.435-4.777,3.928-5.102l3.121-0.406
			c2.503-0.318,4.778,1.435,5.104,3.928c0.324,2.493-1.436,4.777-3.93,5.102l-3.121,0.406
			C562.522,230.456,562.325,230.467,562.13,230.467z"/>
		<path fill="#A2BB61" d="M564.931,252.039c-2.252,0-4.21-1.673-4.509-3.968c-0.322-2.494,1.438-4.777,3.931-5.101l3.122-0.405
			c2.465-0.32,4.775,1.436,5.099,3.93c0.323,2.495-1.435,4.777-3.931,5.101l-3.121,0.405
			C565.323,252.026,565.125,252.039,564.931,252.039z"/>
		<path fill="#A2BB61" d="M567.734,273.611c-2.252,0-4.208-1.671-4.509-3.965c-0.324-2.494,1.435-4.777,3.926-5.103l3.121-0.408
			c2.477-0.312,4.778,1.431,5.104,3.928c0.325,2.493-1.434,4.776-3.925,5.103l-3.122,0.408
			C568.13,273.599,567.933,273.611,567.734,273.611z"/>
	</g>
	<g opacity="0.5">
		<path fill="#A2BB61" d="M592.258,311.747c-2.252,0-4.211-1.672-4.51-3.966c-0.323-2.494,1.437-4.777,3.93-5.102l80.515-10.46
			c2.497-0.326,4.777,1.435,5.103,3.928c0.324,2.494-1.437,4.777-3.929,5.103l-80.515,10.46
			C592.651,311.735,592.453,311.747,592.258,311.747z"/>
		<path fill="#A2BB61" d="M623.58,287.782c-2.253,0-4.212-1.672-4.51-3.966c-0.323-2.494,1.437-4.778,3.929-5.102l46.655-6.061
			c2.504-0.327,4.777,1.434,5.101,3.928c0.326,2.495-1.435,4.778-3.928,5.103l-46.654,6.061
			C623.973,287.771,623.774,287.782,623.58,287.782z"/>
		<path fill="#A2BB61" d="M595.059,333.316c-2.252,0-4.211-1.672-4.509-3.967c-0.323-2.494,1.437-4.777,3.929-5.102l80.518-10.457
			c2.5-0.327,4.777,1.433,5.103,3.928c0.324,2.494-1.437,4.779-3.929,5.102l-80.518,10.459
			C595.452,333.305,595.254,333.316,595.059,333.316z"/>
		<path fill="#A2BB61" d="M597.859,354.892c-2.251,0-4.21-1.672-4.509-3.966c-0.323-2.494,1.438-4.778,3.929-5.102l80.521-10.458
			c2.493-0.318,4.776,1.436,5.102,3.928c0.323,2.496-1.437,4.779-3.93,5.103l-80.52,10.459
			C598.255,354.88,598.057,354.892,597.859,354.892z"/>
		<path fill="#A2BB61" d="M600.663,376.463c-2.252,0-4.21-1.673-4.509-3.966c-0.323-2.494,1.436-4.776,3.928-5.103l80.519-10.46
			c2.504-0.317,4.777,1.435,5.104,3.929c0.323,2.493-1.438,4.776-3.93,5.103l-80.517,10.459
			C601.057,376.451,600.858,376.463,600.663,376.463z"/>
		<path fill="#A2BB61" d="M573.01,314.246c-2.252,0-4.211-1.672-4.509-3.967c-0.322-2.495,1.438-4.778,3.931-5.101l3.121-0.405
			c2.468-0.321,4.776,1.436,5.1,3.93c0.323,2.493-1.435,4.776-3.931,5.101l-3.121,0.405
			C573.402,314.234,573.204,314.246,573.01,314.246z"/>
		<path fill="#A2BB61" d="M575.813,335.818c-2.252,0-4.208-1.672-4.509-3.965c-0.324-2.494,1.434-4.778,3.926-5.105l3.121-0.406
			c2.477-0.307,4.778,1.433,5.104,3.929c0.324,2.492-1.434,4.777-3.925,5.102l-3.122,0.407
			C576.209,335.805,576.012,335.818,575.813,335.818z"/>
		<path fill="#A2BB61" d="M578.614,357.394c-2.251,0-4.208-1.672-4.509-3.965c-0.324-2.494,1.435-4.778,3.927-5.104l3.121-0.407
			c2.482-0.314,4.78,1.433,5.104,3.929c0.324,2.493-1.434,4.777-3.926,5.102l-3.121,0.408
			C579.01,357.38,578.812,357.394,578.614,357.394z"/>
		<path fill="#A2BB61" d="M581.415,378.962c-2.252,0-4.208-1.67-4.508-3.966c-0.325-2.492,1.434-4.776,3.927-5.103l3.121-0.405
			c2.476-0.318,4.776,1.431,5.104,3.925c0.324,2.494-1.433,4.778-3.926,5.104l-3.121,0.406
			C581.811,378.95,581.612,378.962,581.415,378.962z"/>
	</g>
	<g opacity="0.5">
		<path fill="#A2BB61" d="M253.86,12.889c-2.251,0-4.211-1.671-4.509-3.966c-0.324-2.494,1.437-4.778,3.928-5.103l80.518-10.457
			c2.5-0.321,4.777,1.434,5.103,3.928c0.324,2.494-1.437,4.778-3.928,5.102l-80.519,10.458
			C254.255,12.877,254.057,12.889,253.86,12.889z"/>
		<path fill="#A2BB61" d="M256.662,34.46c-2.252,0-4.211-1.671-4.509-3.966c-0.324-2.495,1.437-4.779,3.929-5.102l80.517-10.458
			c2.494-0.322,4.778,1.434,5.102,3.928s-1.436,4.779-3.928,5.103l-80.518,10.457C257.056,34.447,256.858,34.46,256.662,34.46z"/>
		<path fill="#A2BB61" d="M259.462,56.032c-2.252,0-4.21-1.672-4.507-3.966c-0.326-2.495,1.436-4.778,3.928-5.103L339.4,36.506
			c2.502-0.324,4.778,1.434,5.102,3.928c0.324,2.495-1.436,4.778-3.928,5.103l-80.518,10.458
			C259.857,56.02,259.659,56.032,259.462,56.032z"/>
		<path fill="#A2BB61" d="M262.266,77.604c-2.252,0-4.21-1.671-4.509-3.966c-0.324-2.494,1.437-4.778,3.928-5.102l80.518-10.459
			c2.494-0.326,4.777,1.434,5.102,3.928c0.325,2.495-1.437,4.777-3.928,5.103L262.86,77.567
			C262.66,77.593,262.462,77.604,262.266,77.604z"/>
		<path fill="#A2BB61" d="M234.612,15.389c-2.252,0-4.21-1.672-4.509-3.966c-0.324-2.495,1.437-4.778,3.93-5.102l3.123-0.407
			c2.501-0.329,4.778,1.436,5.102,3.929c0.324,2.494-1.436,4.778-3.928,5.102l-3.124,0.406
			C235.007,15.376,234.809,15.389,234.612,15.389z"/>
		<path fill="#A2BB61" d="M237.416,36.959c-2.252,0-4.211-1.671-4.509-3.966c-0.324-2.493,1.434-4.777,3.928-5.102l3.122-0.405
			c2.495-0.331,4.778,1.435,5.102,3.928c0.326,2.493-1.433,4.777-3.928,5.102l-3.122,0.405
			C237.809,36.948,237.611,36.959,237.416,36.959z"/>
		<path fill="#A2BB61" d="M240.217,58.532c-2.251,0-4.21-1.673-4.508-3.967c-0.322-2.495,1.437-4.777,3.93-5.102l3.122-0.405
			c2.472-0.318,4.775,1.436,5.1,3.93c0.323,2.494-1.436,4.777-3.93,5.101l-3.121,0.404C240.611,58.52,240.414,58.532,240.217,58.532
			z"/>
		<path fill="#A2BB61" d="M243.021,80.104c-2.252,0-4.21-1.672-4.508-3.966c-0.325-2.493,1.434-4.777,3.928-5.102l3.122-0.406
			c2.495-0.32,4.778,1.434,5.102,3.929c0.324,2.493-1.434,4.777-3.928,5.102l-3.122,0.406
			C243.414,80.092,243.216,80.104,243.021,80.104z"/>
	</g>
	<g opacity="0.5">
		<g>
			<path fill="#A2BB61" d="M212.099,316.288c-1,0-1.979-0.33-2.779-0.947c-0.956-0.737-1.58-1.825-1.736-3.021l-26.144-201.675
				c-0.322-2.495,1.437-4.778,3.931-5.101l158.029-20.488c1.185-0.152,2.406,0.171,3.364,0.908c0.957,0.736,1.581,1.824,1.736,3.021
				l26.146,201.677c0.322,2.493-1.435,4.776-3.93,5.102L212.684,316.25C212.49,316.275,212.295,316.288,212.099,316.288z
				 M191.054,113.987l24.975,192.647l149.001-19.317L340.053,94.67L191.054,113.987z"/>
			<path fill="#A2BB61" d="M193.208,164.746c-2.252,0-4.21-1.673-4.507-3.967c-0.323-2.495,1.436-4.778,3.929-5.101l155.776-20.198
				c2.468-0.32,4.775,1.436,5.099,3.93c0.323,2.494-1.436,4.777-3.929,5.101l-155.775,20.198
				C193.603,164.734,193.405,164.746,193.208,164.746z"/>
			<path fill="#A2BB61" d="M199.723,214.977c-2.252,0-4.21-1.673-4.509-3.967c-0.323-2.494,1.436-4.777,3.931-5.101l155.772-20.198
				c2.477-0.33,4.776,1.435,5.1,3.93c0.323,2.495-1.435,4.777-3.931,5.101l-155.772,20.197
				C200.116,214.965,199.918,214.977,199.723,214.977z"/>
			<path fill="#A2BB61" d="M209.25,264.819c-2.254,0-4.211-1.672-4.509-3.967c-0.323-2.495,1.436-4.777,3.931-5.101l155.773-20.198
				c2.478-0.317,4.775,1.437,5.1,3.93c0.323,2.494-1.436,4.777-3.931,5.101L209.84,264.782
				C209.643,264.808,209.445,264.819,209.25,264.819z"/>
			<path fill="#A2BB61" d="M264.2,308.006c-2.251,0-4.211-1.673-4.509-3.968l-25.708-198.292c-0.323-2.495,1.436-4.777,3.931-5.101
				c2.465-0.324,4.774,1.435,5.1,3.93l25.708,198.292c0.323,2.494-1.436,4.777-3.931,5.102
				C264.594,307.994,264.396,308.006,264.2,308.006z"/>
			<path fill="#A2BB61" d="M318.283,300.227c-2.251,0-4.21-1.672-4.509-3.967L288.068,97.968c-0.322-2.495,1.437-4.777,3.931-5.101
				c2.465-0.319,4.775,1.436,5.1,3.929l25.707,198.291c0.323,2.494-1.437,4.777-3.931,5.102
				C318.676,300.216,318.478,300.227,318.283,300.227z"/>
		</g>
		<g>
			<path fill="#A2BB61" d="M219.9,139.589c-6.268,0-11.602-4.691-12.41-10.91c-0.432-3.318,0.456-6.604,2.498-9.255
				c2.043-2.649,4.994-4.344,8.311-4.772c6.892-0.897,13.151,4.054,14.027,10.804c0.885,6.846-3.961,13.137-10.806,14.029
				C220.974,139.554,220.436,139.589,219.9,139.589z M219.922,123.651c-0.149,0-0.301,0.01-0.452,0.03
				c-0.907,0.117-1.711,0.58-2.27,1.302c-0.556,0.723-0.798,1.619-0.68,2.522c0.239,1.846,1.947,3.186,3.828,2.949
				c1.866-0.243,3.19-1.96,2.949-3.827C223.076,124.932,221.625,123.651,219.922,123.651z"/>
			<path fill="#A2BB61" d="M273.518,132.637c-6.269,0-11.603-4.692-12.407-10.914c-0.431-3.314,0.456-6.601,2.499-9.25
				c2.041-2.649,4.99-4.346,8.306-4.775c6.892-0.901,13.151,4.053,14.027,10.806c0.432,3.318-0.456,6.604-2.498,9.252
				c-2.041,2.649-4.992,4.344-8.308,4.775C274.591,132.602,274.051,132.637,273.518,132.637z M273.535,116.7
				c-0.148,0-0.298,0.01-0.449,0.03c-0.905,0.116-1.708,0.58-2.265,1.302c-0.556,0.723-0.799,1.617-0.68,2.521
				c0.238,1.845,1.916,3.189,3.824,2.95c0.905-0.118,1.709-0.581,2.268-1.303c0.556-0.722,0.798-1.617,0.68-2.521
				C276.691,117.98,275.24,116.7,273.535,116.7z"/>
			<path fill="#A2BB61" d="M327.135,125.686c-6.27,0-11.603-4.692-12.407-10.915c-0.889-6.84,3.959-13.134,10.806-14.025
				c6.945-0.89,13.155,4.058,14.029,10.808c0.886,6.847-3.962,13.138-10.807,14.026C328.213,125.65,327.671,125.686,327.135,125.686
				z M327.154,109.747c-0.147,0-0.296,0.01-0.448,0.029c-1.867,0.243-3.19,1.959-2.947,3.825c0.237,1.848,1.942,3.199,3.826,2.949
				c1.868-0.242,3.19-1.958,2.948-3.826C330.312,111.026,328.86,109.747,327.154,109.747z"/>
			<path fill="#A2BB61" d="M226.385,189.632c-6.265,0-11.6-4.69-12.407-10.911c-0.883-6.849,3.966-13.139,10.806-14.028
				c6.949-0.888,13.159,4.057,14.03,10.809c0.432,3.314-0.456,6.6-2.498,9.25c-2.041,2.649-4.995,4.344-8.311,4.774
				C227.462,189.598,226.921,189.632,226.385,189.632z M226.407,173.695c-0.148,0-0.301,0.009-0.452,0.029
				c-1.865,0.242-3.188,1.959-2.947,3.829c0.239,1.841,1.935,3.186,3.825,2.944c0.907-0.118,1.711-0.581,2.27-1.303
				c0.556-0.723,0.798-1.619,0.681-2.522C229.566,174.972,228.115,173.695,226.407,173.695z"/>
			<path fill="#A2BB61" d="M280.003,182.68c-6.266,0-11.596-4.691-12.405-10.911c-0.887-6.849,3.962-13.14,10.807-14.028
				c6.94-0.9,13.151,4.058,14.025,10.808c0.432,3.312-0.453,6.599-2.494,9.249c-2.043,2.652-4.996,4.349-8.315,4.777
				C281.078,182.646,280.538,182.68,280.003,182.68z M280.022,166.743c-0.148,0-0.298,0.01-0.449,0.029
				c-1.866,0.243-3.188,1.959-2.946,3.826c0.239,1.846,1.976,3.206,3.822,2.947c0.91-0.118,1.714-0.58,2.271-1.303
				c0.557-0.721,0.797-1.616,0.678-2.519C283.179,168.023,281.728,166.743,280.022,166.743z"/>
			<path fill="#A2BB61" d="M293.132,283.896c-6.269,0-11.605-4.689-12.414-10.912c-0.43-3.318,0.457-6.604,2.5-9.253
				c2.044-2.65,4.993-4.346,8.311-4.772c6.861-0.895,13.147,4.056,14.021,10.807c0.431,3.313-0.453,6.598-2.494,9.249
				c-2.041,2.649-4.992,4.347-8.308,4.778C294.202,283.861,293.663,283.896,293.132,283.896z M293.147,267.96
				c-0.148,0-0.298,0.009-0.449,0.029c-0.907,0.116-1.711,0.578-2.268,1.301c-0.558,0.722-0.8,1.619-0.682,2.523
				c0.237,1.84,1.934,3.181,3.829,2.948c0.903-0.119,1.708-0.58,2.263-1.303c0.556-0.721,0.797-1.616,0.679-2.518
				C296.3,269.238,294.85,267.96,293.147,267.96z"/>
			<path fill="#A2BB61" d="M333.622,175.729c-6.267,0-11.603-4.69-12.409-10.91c-0.882-6.849,3.966-13.139,10.809-14.028
				c6.919-0.904,13.153,4.054,14.029,10.805c0.888,6.85-3.963,13.142-10.808,14.028
				C334.699,175.694,334.158,175.729,333.622,175.729z M333.645,159.792c-0.149,0-0.298,0.009-0.449,0.028
				c-1.869,0.243-3.193,1.961-2.952,3.83c0.24,1.841,1.954,3.204,3.829,2.943c1.869-0.242,3.192-1.958,2.95-3.826
				C336.802,161.071,335.35,159.792,333.645,159.792z"/>
			<path fill="#A2BB61" d="M339.912,224.267c-6.267,0-11.599-4.691-12.403-10.912c-0.885-6.844,3.962-13.135,10.807-14.027
				c6.949-0.888,13.154,4.058,14.027,10.808c0.432,3.316-0.456,6.604-2.5,9.253c-2.042,2.649-4.993,4.345-8.309,4.773
				C340.992,224.232,340.448,224.267,339.912,224.267z M339.934,208.329c-0.147,0-0.295,0.01-0.446,0.029
				c-1.865,0.243-3.19,1.959-2.948,3.827c0.239,1.845,1.947,3.203,3.824,2.945c0.907-0.117,1.712-0.579,2.27-1.301
				c0.556-0.723,0.798-1.619,0.68-2.522C343.093,209.609,341.642,208.329,339.934,208.329z"/>
		</g>
	</g>
	
		<text transform="matrix(0.9917 -0.1288 0.1288 0.9917 693.7119 242.4507)" opacity="0.5" fill="#A2BC61" font-family="'FontAwesome'" font-size="198.3517"></text>
	
		<text transform="matrix(0.9992 -0.1298 0.1288 0.9917 546.1875 154.8306)" opacity="0.5" fill="#A2BC61" font-family="'FontAwesome'" font-size="126.6349"></text>
	<path opacity="0.5" fill="#A2BC61" d="M672.554,68.702c-1.69,0-3.159-1.253-3.382-2.975L654.119-50.158
		c-0.242-1.871,1.076-3.584,2.945-3.826l177.591-23.069c1.863-0.259,3.583,1.076,3.825,2.946L853.537,41.78
		c0.116,0.898-0.128,1.806-0.682,2.523c-0.553,0.719-1.366,1.187-2.264,1.303L672.997,68.673
		C672.849,68.693,672.701,68.702,672.554,68.702z M661.331-47.651l14.172,109.112l170.822-22.188L832.15-69.841L661.331-47.651z"/>
	
		<text transform="matrix(0.9917 -0.1288 0.1288 0.9917 730.2363 22.1167)" opacity="0.5" fill="#A2BC61" font-family="'FontAwesome'" font-size="62.6224"></text>
	
		<text transform="matrix(0.9917 -0.1288 0.1288 0.9917 768.791 414.9355)" opacity="0.5" fill="#A2BC61" font-family="'FontAwesome'" font-size="202.6635"></text>
	<path opacity="0.5" fill="#A2BC61" d="M579.22,32.495c-31.883,0-59.025-23.875-63.138-55.537
		c-2.192-16.884,2.318-33.612,12.707-47.102c10.387-13.49,25.406-22.127,42.29-24.32c2.749-0.357,5.534-0.537,8.286-0.537
		c31.883,0,59.025,23.875,63.139,55.537c4.524,34.854-20.146,66.895-55.001,71.421C584.756,32.315,581.969,32.495,579.22,32.495z
		 M579.365-85.895c-2.361,0-4.753,0.154-7.112,0.461c-14.472,1.879-27.346,9.283-36.249,20.845
		c-8.904,11.562-12.772,25.9-10.892,40.373c3.525,27.139,26.787,47.605,54.107,47.605c2.358,0,4.75-0.155,7.109-0.462
		c29.877-3.88,51.025-31.342,47.144-61.217C629.946-65.43,606.686-85.895,579.365-85.895z"/>
	
		<text transform="matrix(0.9917 -0.1288 0.1288 0.9917 546.0557 -3.6348)" opacity="0.5" fill="#A2BC61" font-family="'FontAwesome'" font-size="73.1458"></text>
	
		<text transform="matrix(0.9917 -0.1288 0.1288 0.9917 366.3423 87.3726)" opacity="0.5" fill="#A2BC61" font-family="'FontAwesome'" font-size="122.4985"></text>
</g>
<path fill="#8DA6B0" d="M266.452,186.655l15.175,13.659l1.045,33.958l10.717-1.707l-4.931,11.761c0,0,8.158-7.208,5.313,0.759
	c-2.845,7.968-21.628,8.726-21.628,8.726l14.419,21.249l-16.696-9.867l-8.729,33.769l-15.935,27.317l-29.972,14.986l55.205,21.058
	l50.652,179.844l-22.765,60.325l-2.276,75.878c0,0-38.131,11.769-92.198,2.095c-54.067-9.677-109.651-33.959-109.651-33.959
	l-2.277-54.637L14.52,577.453l0.381-28.457l14.039-66.398l-9.106-10.622l46.289-116.101l37.182-9.105l45.341-15.747l17.642-27.317
	l-1.707-22.196l-9.295-1.519l-9.486-30.352l21.059-58.051l18.212-13.659L266.452,186.655z"/>
<polygon opacity="0.5" fill="#0D4C6F" points="133.658,465.146 131.381,541.029 90.404,525.852 93.439,512.952 113.169,505.365 "/>
<polygon opacity="0.5" fill="#0D4C6F" points="133.658,601.735 145.041,666.234 93.439,644.989 91.92,588.076 126.068,591.872 
	126.824,597.94 "/>
<path fill="#0D4C6F" d="M167.25,626.095l-13.094-144.81c-0.113-1.251,0.811-2.357,2.063-2.471c1.243-0.104,2.358,0.811,2.471,2.062
	l12.704,140.509l98.788-3.631l-1.454-50.101c-0.035-1.257,0.954-2.305,2.21-2.343c1.268-0.006,2.305,0.954,2.343,2.21l1.583,54.618
	L167.25,626.095z"/>
<polygon fill="#DCE5E3" points="150.353,266.331 145.798,249.638 154.903,199.555 175.392,174.513 261.899,182.102 279.351,200.313 
	282.673,234.271 235.343,245.084 196.166,238.824 186.02,243.566 178.522,274.394 "/>
<path fill="#F7F2EA" d="M185.637,281.509c0,0-2.657,33.01,19.35,50.84c14.23,11.531,25.421,6.832,28.837,5.314"/>
<path fill="#F7F2EA" d="M260.477,261.021c0,0,8.608-1.043,9.391,5.69c0.958,8.226-6.176,25.27-10.245,35.287
	c-7.398,18.212-18.212,31.301-23.333,34.147c-5.122,2.846-23.334,5.121-23.334,5.121l-1.139,7.398l31.113,19.35
	c0,0-8.346,37.562-64.499,1.521c-18.875-12.117-34.91-37.942-34.91-37.942l17.644-19.92l2.845-18.781l-7.587-13.659l17.452,9.487
	c0,0,2.087,19.539,8.917,29.214s21.057,19.919,23.903,19.919c2.845,0,2.845,0,2.845,0l-19.918-26.749l-1.139-23.334l-0.569-21.438
	l8.347,12.521l-2.657-24.661l11.383,12.899l2.276-25.8l32.251,3.794l16.694,8.726L260.477,261.021z"/>
<path fill="#0D4C6F" d="M92.298,625.632c-1.789,0-3.292-1.392-3.404-3.2l-1.727-27.62l-73.186-11.71
	c-1.686-0.271-2.912-1.742-2.875-3.449l0.713-32.635c0.005-0.271,0.045-0.54,0.115-0.805l15.618-58.578l-10.678-18.507
	c-0.537-0.93-0.604-2.059-0.183-3.046l48.564-113.825c0.401-0.938,1.2-1.649,2.182-1.938l74.612-21.855
	c2.925-2.034,20.421-15.198,18.557-37.567c-0.617-7.394-4.711-8.29-4.753-8.299c-1.216-0.205-2.229-1.051-2.646-2.212
	l-10.624-29.594c-0.212-0.594-0.258-1.234-0.129-1.851l11.383-54.635c0.135-0.651,0.457-1.248,0.929-1.718l20.489-20.488
	c0.751-0.751,1.797-1.111,2.864-0.971l91.06,12.142c1.061,0.141,1.992,0.771,2.519,1.701l12.899,22.765
	c0.323,0.568,0.476,1.218,0.439,1.87l-1.23,22.574c-0.104,1.882-1.686,3.335-3.598,3.224c-1.883-0.103-3.326-1.713-3.223-3.595
	l1.178-21.577l-11.569-20.417l-87.706-11.693l-18.574,18.574l-10.978,52.694l9.753,27.166c2.823,1.268,7.568,4.73,8.322,13.775
	c2.335,28.027-21.041,43.483-22.037,44.128c-0.276,0.18-0.578,0.317-0.894,0.408l-73.577,21.555L23.644,467.193l10.53,18.251
	c0.452,0.782,0.574,1.712,0.341,2.587l-15.877,59.547L18,576.828l72.945,11.669c1.576,0.254,2.768,1.564,2.867,3.159l1.896,30.348
	c0.119,1.884-1.313,3.504-3.194,3.621C92.441,625.63,92.37,625.632,92.298,625.632z"/>
<path fill="#0D4C6F" d="M296.047,613.876c-0.4,0-0.807-0.067-1.203-0.218c-1.765-0.665-2.657-2.635-1.994-4.399l39.319-104.474
	l-68.781-139.801l-49.468-20.564c-1.74-0.725-2.565-2.725-1.84-4.465c0.723-1.739,2.719-2.564,4.465-1.842l50.651,21.059
	c0.764,0.317,1.388,0.901,1.751,1.645l70.001,142.281c0.418,0.846,0.465,1.828,0.134,2.71l-39.839,105.856
	C298.728,613.033,297.427,613.876,296.047,613.876z"/>
<path fill="#0D4C6F" d="M231.17,270.697c-1.21,0-2.382-0.646-2.999-1.782c-2.674-4.896-6.497-6.317-6.657-6.376
	c-1.761-0.634-2.703-2.571-2.09-4.338c0.612-1.766,2.508-2.715,4.287-2.127c0.26,0.087,6.443,2.216,10.453,9.573
	c0.904,1.654,0.293,3.728-1.361,4.632C232.283,270.561,231.723,270.697,231.17,270.697z"/>
<path opacity="0.5" fill="#0D4C6F" d="M244.257,323.338c-0.583,0-1.165-0.221-1.61-0.667c-1.318-1.316-5.554-0.84-9.292-0.415
	c-2.436,0.277-4.996,0.562-7.355,0.515c-4.439-0.09-10.855-2.922-11.124-3.043c-1.149-0.512-1.666-1.856-1.157-3.005
	c0.514-1.15,1.859-1.663,3.006-1.155c1.614,0.717,6.444,2.592,9.364,2.65c2.094,0.036,4.465-0.227,6.754-0.485
	c5.219-0.591,10.152-1.152,13.022,1.72c0.889,0.89,0.889,2.33,0,3.219C245.422,323.117,244.839,323.338,244.257,323.338z"/>
<path fill="#0D4C6F" d="M256.491,272.966c-0.458,0-0.922-0.091-1.368-0.286c-1.722-0.756-2.512-2.759-1.762-4.486
	c1.837-4.22,5.689-8.761,10.444-7.655c1.839,0.424,2.983,2.256,2.562,4.094c-0.426,1.837-2.25,2.991-4.095,2.56
	c-0.49,0.19-1.917,2.073-2.65,3.736C259.057,272.205,257.803,272.966,256.491,272.966z"/>
<path opacity="0.5" fill="#0D4C6F" d="M242.276,312.017c-2.845,0-4.933-1.718-6.087-2.667c-0.252-0.209-0.493-0.413-0.732-0.582
	c-1.541-1.09-1.906-3.22-0.816-4.761c1.091-1.539,3.225-1.904,4.76-0.812c0.369,0.26,0.745,0.563,1.131,0.881
	c1.705,1.405,1.883,1.552,3.746-0.091c1.417-1.245,3.573-1.106,4.82,0.309c1.244,1.415,1.108,3.573-0.307,4.818
	C246.327,311.282,244.139,312.017,242.276,312.017z"/>
<g>
	<path fill="#78858E" d="M240.651,685.966L89.647,308.827l-25.044-69.054c0,0-3.037-34.147,4.553-46.289
		s75.885-91.059,75.885-91.059s12.14-11.382,16.692,5.312c0.722,2.64,8.349,33.388,8.349,33.388s-2.654,6.07-28.836,30.354
		c-26.384,24.471-32.631,35.664-38.699,55.394c-6.07,19.73,3.037,48.564,7.589,69.053c4.553,20.488,148.727,389.282,148.727,389.282
		"/>
	<path fill="#0D4C6F" d="M240.651,689.381c-1.354,0-2.636-0.812-3.169-2.146L86.476,310.096l-25.083-69.159
		c-0.101-0.278-0.166-0.567-0.191-0.861c-0.129-1.44-3.046-35.438,5.059-48.401c7.642-12.227,73.401-88.254,76.199-91.484
		c0.075-0.09,0.16-0.175,0.245-0.257c0.682-0.641,6.847-6.199,13.414-4.337c4.201,1.188,7.2,4.971,8.911,11.243
		c0.723,2.646,8.056,32.207,8.368,33.464c0.18,0.731,0.114,1.5-0.188,2.19c-0.489,1.123-4.226,7.916-29.641,31.489
		c-26.833,24.887-32.11,35.533-37.759,53.895c-4.802,15.613,0.709,38.351,5.137,56.619c0.905,3.736,1.775,7.326,2.521,10.689
		c4.446,20,147.134,385.095,148.576,388.781c0.685,1.755-0.182,3.736-1.938,4.423c-1.748,0.679-3.737-0.18-4.424-1.938
		c-5.889-15.067-144.322-369.274-148.88-389.785c-0.739-3.323-1.598-6.869-2.494-10.561c-4.625-19.082-10.382-42.83-5.026-60.236
		c6.392-20.781,13.343-32.501,39.641-56.893c19.739-18.308,25.814-25.987,27.5-28.417c-1.497-6.026-7.368-29.668-7.984-31.922
		c-1.004-3.686-2.484-5.981-4.17-6.465c-2.355-0.677-5.639,1.639-6.783,2.646c-3.435,3.973-68.231,78.951-75.435,90.477
		c-5.639,9.021-4.889,34.199-4.085,43.737l24.891,68.63l150.964,377.036c0.7,1.752-0.151,3.739-1.9,4.439
		C241.504,689.304,241.074,689.381,240.651,689.381z"/>
</g>
<path fill="#0D4C6F" d="M195.622,281.008c-1.443,0-3.297-2.195-9.691-13.561c-0.617-1.096-0.229-2.483,0.868-3.1
	c1.098-0.618,2.482-0.227,3.098,0.868c0.556,0.983,1.142,2.006,1.729,3.016c-0.31-2.672-0.505-5.266-0.625-7.161
	c-0.712-11.354,0.02-12.096,0.606-12.692c0.602-0.61,1.541-0.844,2.349-0.588c1.475,0.466,1.717,1.925,1.894,2.991
	c0.592,3.543,4.429,8.286,7.544,11.569l3.137-21.017c0.187-1.243,1.354-2.093,2.587-1.917c1.245,0.186,2.101,1.346,1.917,2.587
	l-3.794,25.422c-0.125,0.828-0.69,1.52-1.477,1.803c-0.787,0.289-1.665,0.118-2.287-0.437c-0.688-0.615-4.725-4.27-7.976-8.726
	c0.336,5.683,1.036,12.411,2.161,15.788c0.449,1.346,1.284,3.851-0.878,4.809C196.37,280.846,196.011,281.008,195.622,281.008z"/>
<circle fill="#0D4C6F" cx="222.914" cy="278.378" r="7.114"/>
<path fill="#0D4C6F" d="M263.224,284.715c-0.864,3.6-3.639,6.016-6.192,5.401c-2.55-0.613-3.919-4.03-3.052-7.625
	c0.865-3.6,3.638-6.015,6.189-5.401C262.722,277.701,264.091,281.119,263.224,284.715z"/>
<path fill="#0D4C6F" d="M286.563,277.335c-0.082,0-0.167-0.003-0.251-0.014c-0.458-0.05-11.263-1.333-17.471-9.2
	c-2.739-3.47-4.383-5.39-5.321-6.427l-1.756,1.202c-0.931,0.635-2.192,0.498-2.958-0.333c-1.754-1.897-2.512-3.87-3.066-5.308
	c-0.724-1.881-0.818-1.889-1.414-1.934c-4.035-0.31-13.632-6.012-15.515-7.152c-0.781-0.472-1.206-1.364-1.077-2.268
	c0.129-0.905,0.785-1.643,1.667-1.879l54.352-14.513c0.716-0.185,1.476-0.022,2.042,0.449c0.567,0.473,0.872,1.19,0.813,1.926
	c-0.02,0.255-0.422,4.81-4.083,9.697l2.091-0.274c0.82-0.111,1.652,0.247,2.141,0.926c0.49,0.678,0.566,1.571,0.202,2.324
	c-0.179,0.372-4.546,9.112-16.297,9.112c-1.588,0-3.247-0.165-4.958-0.493c2.521,2.036,4.773,4.333,6.05,6.793
	c5.304,10.228,6.858,14.083,6.922,14.244c0.295,0.743,0.182,1.586-0.302,2.224C287.942,277.008,287.27,277.335,286.563,277.335z
	 M263.798,256.467c0.439,0,0.879,0.127,1.262,0.382c0.927,0.618,3.539,3.62,7.354,8.451c2.851,3.612,7.05,5.533,10.18,6.521
	c-1.052-2.208-2.622-5.394-4.883-9.753c-2.418-4.661-10.495-9.333-14.378-11.577c-2.708-1.565-3.944-2.28-3.453-4.112
	c0.267-0.995,1.283-1.725,2.314-1.725c0.884,0,2.017,0.329,11.021,3.194c2.649,0.843,5.155,1.27,7.448,1.27
	c3.784,0,6.544-1.158,8.472-2.502l-2.657,0.347c-1.014,0.126-2.012-0.44-2.402-1.399c-0.39-0.958-0.085-2.058,0.744-2.678
	c3.565-2.676,5.389-5.705,6.315-7.963l-45.205,12.07c3.57,1.927,7.272,3.677,8.746,3.791c3.552,0.273,4.568,2.911,5.31,4.837
	c0.289,0.751,0.586,1.519,1.017,2.279l1.507-1.033C262.897,256.6,263.349,256.467,263.798,256.467z"/>
<path fill="#0D4C6F" d="M216.644,399.672c-17.771,0-40.269-7.288-60.081-31.348c-16.229-19.706-29.465-29.889-29.597-29.989
	c-0.998-0.763-1.191-2.19-0.429-3.19c0.76-1,2.186-1.196,3.19-0.431c0.555,0.422,13.756,10.566,30.348,30.715
	c31.169,37.848,68.8,31.967,81.188,23.474c2.307-1.582,3.542-3.537,3.78-5.977c0.641-6.545-6.088-15.134-9.018-18.207
	l-25.313-14.064c-0.842-0.467-1.298-1.414-1.141-2.364l1.708-10.244c0.205-1.239,1.382-2.08,2.619-1.871
	c1.241,0.207,2.079,1.379,1.872,2.621l-1.442,8.658l24.205,13.449c0.194,0.106,0.367,0.241,0.52,0.396
	c0.472,0.479,11.518,11.883,10.525,22.069c-0.371,3.806-2.304,6.931-5.741,9.288C238.42,396.37,228.604,399.672,216.644,399.672z"/>
<path fill="#0D4C6F" d="M216.201,388.136c-14.415,0-32.639-5.903-48.675-25.376c-13.117-15.931-24.681-26.738-24.796-26.846
	c-0.92-0.855-0.971-2.298-0.113-3.217c0.856-0.923,2.294-0.969,3.218-0.115c0.117,0.109,11.9,11.123,25.208,27.283
	c24.884,30.218,54.865,25.562,64.718,18.8c1.888-1.295,2.854-2.777,2.955-4.533c0.249-4.426-4.85-9.858-6.834-11.58
	c-0.949-0.822-1.053-2.261-0.232-3.21c0.819-0.95,2.26-1.057,3.208-0.236c0.903,0.778,8.814,7.831,8.403,15.272
	c-0.124,2.211-1.078,5.402-4.926,8.042C233.928,385.443,225.932,388.136,216.201,388.136z"/>
<path fill="#FFFFFF" stroke="#0D4C6F" stroke-miterlimit="10" d="M184.121,281.889"/>
<path fill="#0D4C6F" d="M227.099,341.225c-22.087,0-35.474-18.821-39.596-29.287c-5.065-12.861-2.717-44.079-2.615-45.401
	c0.099-1.253,1.156-2.202,2.446-2.096c1.254,0.098,2.192,1.193,2.095,2.446c-0.025,0.314-2.371,31.494,2.312,43.383
	c4.536,11.52,18.5,28.035,38.471,26.264c9.954-0.878,19.206-18.868,23.653-27.516c0.738-1.436,1.366-2.658,1.875-3.573
	c3.635-6.542,13.375-38.319,13.473-38.639c0.367-1.201,1.632-1.881,2.844-1.511c1.2,0.367,1.878,1.641,1.508,2.843
	c-0.405,1.326-9.977,32.559-13.845,39.519c-0.489,0.882-1.096,2.061-1.808,3.444c-5.188,10.09-14.846,28.87-27.299,29.968
	C229.417,341.174,228.247,341.225,227.099,341.225z"/>
<path fill="#0D4C6F" d="M178.522,276.67c-0.239,0-0.481-0.038-0.716-0.114l-26.653-8.822c-1.193-0.395-1.84-1.683-1.445-2.876
	c0.394-1.192,1.671-1.846,2.876-1.445l24.275,8.033l5.42-23.738c0.022-0.097,0.048-0.193,0.084-0.286
	c0.177-0.471,4.353-11.516,13.964-10.868c7.932,0.566,48.473,5.493,50.196,5.702c1.247,0.152,2.136,1.286,1.985,2.534
	c-0.154,1.248-1.285,2.136-2.537,1.985c-0.42-0.051-42.148-5.122-49.97-5.68c-5.718-0.438-8.908,6.766-9.323,7.792l-5.938,26.013
	c-0.143,0.625-0.543,1.162-1.102,1.477C179.297,276.572,178.911,276.67,178.522,276.67z"/>
<path fill="#0D4C6F" d="M97.469,511.505l-71.603-26.775c-1.179-0.44-1.775-1.751-1.336-2.929c0.439-1.179,1.757-1.774,2.929-1.336
	l70.242,26.265l12.344-3.294l20.038-42.302c0.541-1.135,1.9-1.618,3.03-1.083c1.135,0.539,1.622,1.897,1.082,3.033l-20.938,44.206
	L97.469,511.505z"/>
<path fill="#0D4C6F" d="M84.331,537.233c-0.325,0-0.653-0.068-0.967-0.216c-1.139-0.535-1.626-1.892-1.092-3.03l12.141-25.8
	c0.535-1.139,1.889-1.622,3.03-1.091c1.138,0.535,1.625,1.893,1.091,3.03l-12.14,25.8C86.005,536.751,85.187,537.233,84.331,537.233
	z"/>
<path fill="#0D4C6F" d="M296.047,661.683c-1.867,0-3.393-1.503-3.415-3.374l-1.139-96.752c-0.021-1.886,1.491-3.433,3.375-3.455
	c1.852-0.03,3.432,1.489,3.454,3.375l1.139,96.751c0.022,1.887-1.49,3.433-3.375,3.455
	C296.074,661.683,296.061,661.683,296.047,661.683z"/>
<path fill="#0D4C6F" d="M236.644,634.083l-13.431-29.1l-65.541-5.157l-68.254-4.549c-1.883-0.126-3.306-1.754-3.181-3.635
	c0.126-1.885,1.771-3.297,3.634-3.181l68.294,4.554l69.573,5.473l4.779,10.357l2.348-21.59l-15.967-29.154H170.23l-78.732-29.048
	c-1.769-0.653-2.673-2.615-2.02-4.386c0.654-1.768,2.616-2.674,4.386-2.02l77.584,28.624h51.498l18.94,34.588L236.644,634.083z"/>
<path fill="#0D4C6F" d="M251.275,436.311h-88.023c-1.259,0-2.277-1.02-2.277-2.276c0-1.258,1.018-2.277,2.277-2.277h88.023
	c1.258,0,2.276,1.02,2.276,2.277C253.552,435.291,252.534,436.311,251.275,436.311z"/>
<g>
	<path fill="#FFFFFF" d="M24.386,465.146L67.64,481.84c0,0,30.373-73.598,35.664-88.025c8.348-22.766-7.588-25.042-7.588-25.042
		l-29.594-8.344l-7.127,13.658l21.311,6.244c0,0,11.474,1.704,5.461,18.731c-3.81,10.792-25.682,65.854-25.682,65.854
		l-31.146-12.487L24.386,465.146z"/>
	<path fill="#0D4C6F" d="M67.64,484.117c-0.274,0-0.552-0.05-0.82-0.152L23.567,467.27c-1.153-0.444-1.741-1.729-1.324-2.891
		l4.553-12.719c0.208-0.582,0.645-1.055,1.21-1.31c0.562-0.253,1.207-0.267,1.781-0.036l29.025,11.638
		c4.055-10.226,21.481-54.224,24.807-63.647c1.972-5.584,2.134-9.999,0.47-12.764c-1.51-2.508-4.094-2.954-4.119-2.957
		c-0.104-0.016-0.206-0.039-0.306-0.068l-21.311-6.244c-0.654-0.192-1.187-0.667-1.454-1.294c-0.267-0.627-0.241-1.341,0.075-1.944
		l7.127-13.659c0.498-0.955,1.6-1.43,2.636-1.137l29.479,8.312c1.067,0.193,6.405,1.409,9.542,6.657
		c3.095,5.179,2.988,12.373-0.32,21.392c-5.244,14.304-35.392,87.373-35.694,88.109C69.382,483.584,68.535,484.117,67.64,484.117z
		 M27.278,463.822l39.105,15.094c4.958-12.028,30.063-73.019,34.784-85.885c2.77-7.555,3.008-13.604,0.685-17.489
		c-2.284-3.82-6.417-4.509-6.458-4.516c-0.1-0.013-0.198-0.034-0.295-0.062l-27.814-7.844l-4.989,9.562l18.541,5.433
		c0.927,0.186,4.799,1.172,7.154,5.079c2.423,4.024,2.396,9.618-0.076,16.627c-3.781,10.71-24.819,63.686-25.713,65.935
		c-0.224,0.562-0.663,1.013-1.218,1.252s-1.184,0.246-1.744,0.021l-28.953-11.607L27.278,463.822z"/>
</g>
<path fill="#898685" d="M165.525,542.547l51.603-2.656l18.972,12.521l11.002,32.631l-4.547,40.941l-5.702,3.827l-13.655-17.072
	l-67.725-13.091l-9.68,8.157l-18.97-9.864c0,0,12.714-5.122,17.836-30.163c5.342-26.117-1.9-29.025-1.9-29.025l18.212-0.759
	L165.525,542.547z"/>
<polygon opacity="0.4" fill="#1B1C20" points="137.831,590.733 210.298,597.181 228.891,604.201 242.556,625.983 239.514,630.949 
	224.052,611.884 197.777,610.084 155.474,602.492 143.903,610.084 131.001,599.457 "/>
<g>
	<polygon fill="#F7D869" points="167.761,568.19 145.141,566.05 147.74,546.876 165.806,546.739 	"/>
	<path fill="#0D4C6F" d="M170.277,570.716l-27.711-2.622l3.184-23.479l22.134-0.168L170.277,570.716z M147.715,564.006l17.529,1.659
		l-1.514-16.634l-14.001,0.105L147.715,564.006z"/>
</g>
<path fill="#0D4C6F" d="M159.959,591.313l-21.679-7.979l4.399-12.708l24.727,5.235L159.959,591.313z M144.042,580.604l13.611,5.009
	l3.131-6.501l-15.117-3.198L144.042,580.604z"/>
<path fill="#0D4C6F" d="M236.854,633.227c-1.065,0-2.091-0.499-2.748-1.388l-12.705-17.209l-22.308-1.329
	c-0.118-0.007-0.233-0.02-0.349-0.039l-43.565-7.138l-4.86,4.251c-1.014,0.89-2.459,1.094-3.686,0.527l-21.246-9.864
	c-1.234-0.574-2.01-1.827-1.975-3.187c0.032-1.36,0.874-2.569,2.136-3.078c0.069-0.032,11.144-5.08,15.766-27.682
	c4.116-20.114,0.219-25.151,0.175-25.173c-1.495-0.597-2.367-2.16-2.094-3.745c0.273-1.585,1.615-2.768,3.223-2.834l18.212-0.759
	c0.941-0.042,1.881,0.323,2.556,0.998l3.48,3.479l50.087-2.579c0.907-0.04,1.79,0.268,2.459,0.872l18.972,17.073
	c0.396,0.355,0.703,0.798,0.896,1.294l11.002,28.078c0.188,0.474,0.263,0.98,0.228,1.487l-3.035,42.493
	c-0.1,1.398-1.043,2.593-2.378,3.015l-7.215,2.276C237.542,633.176,237.196,633.227,236.854,633.227z M199.673,606.493l23.729,1.413
	c1.011,0.062,1.943,0.565,2.545,1.382l12.204,16.533l2.675-0.845l2.815-39.408l-10.426-26.606l-17.321-15.589l-50.195,2.584
	c-0.962,0.036-1.904-0.311-2.588-0.996l-3.495-3.491l-10.789,0.448c1.483,4.697,2.001,12.752-0.822,26.544
	c-3.3,16.136-9.729,24.63-14.394,28.865l13.884,6.445l4.399-3.849c0.77-0.672,1.807-0.961,2.798-0.8L199.673,606.493z"/>
<path fill="#0D4C6F" d="M208.015,599.459c-0.376,0-0.756-0.094-1.107-0.289c-1.099-0.611-1.491-1.998-0.878-3.097
	c0.099-0.178,9.959-17.925,13.259-30.577c3.112-11.934-3.266-22.397-3.333-22.503c-0.662-1.064-0.338-2.469,0.727-3.135
	c1.069-0.665,2.465-0.342,3.134,0.722c0.308,0.49,7.5,12.182,3.877,26.063c-3.448,13.222-13.272,30.9-13.69,31.648
	C209.589,599.039,208.813,599.459,208.015,599.459z"/>
<path fill="#0D4C6F" d="M241.409,574.037c-0.471,0-0.95-0.146-1.358-0.451l-17.835-13.28c-1.006-0.75-1.215-2.177-0.464-3.187
	c0.75-1.004,2.175-1.216,3.186-0.465l17.834,13.282c1.006,0.748,1.216,2.176,0.464,3.185
	C242.789,573.721,242.104,574.037,241.409,574.037z"/>
<path fill="#0D4C6F" d="M245.395,607.046c-0.929,0-1.802-0.572-2.139-1.498l-6.541-17.986l-18.825-10.561
	c-1.096-0.616-1.488-2.002-0.872-3.099c0.616-1.099,2.006-1.49,3.099-0.872l19.562,10.974c0.475,0.267,0.839,0.696,1.024,1.206
	l6.83,18.782c0.433,1.183-0.179,2.487-1.36,2.917C245.916,607.002,245.652,607.046,245.395,607.046z"/>
<path fill="#0D4C6F" d="M243.307,627.157c-0.938,0-1.815-0.584-2.147-1.521l-8.997-25.524l-18.765-9.797
	c-1.114-0.582-1.545-1.959-0.966-3.071c0.583-1.117,1.962-1.546,3.073-0.967l19.562,10.214c0.512,0.267,0.902,0.719,1.093,1.263
	l9.295,26.371c0.418,1.186-0.205,2.485-1.392,2.903C243.814,627.115,243.558,627.157,243.307,627.157z"/>
<path opacity="0.2" fill="#0D4C6F" d="M161.165,311.292l8.537-0.189c0,0-5.689,25.042,15.178,42.115
	c20.866,17.073,28.453,9.865,27.696-3.034c-0.421-7.152,1.175-12.391,1.517-12.713l-18.211-6.261l-17.453-21.626l-4.553-18.97
	l-11.76-7.967L161.165,311.292z"/>
<path opacity="0.2" fill="#0D4C6F" d="M208.405,249.26c0,0,16.693-1.898,37.559,15.176c20.867,17.073,16.363,29.877,16.363,29.877
	l9.391-25.895l11.051,6.641c1.365-7.883-11.535-27.865-12.521-26.938l-61.465-7.589L208.405,249.26z"/>
<path fill="#0D4C6F" d="M215.234,341.455c-0.059,0-0.116-0.002-0.176-0.006c-33.179-2.525-40.357-40.874-41.401-47.965
	l-19.976-12.711c-1.061-0.675-1.374-2.082-0.698-3.145c0.675-1.056,2.08-1.37,3.143-0.698l21.795,13.873l0.116,1.096
	c0.042,0.424,4.789,42.53,37.367,45.009c1.253,0.097,2.191,1.189,2.097,2.441C217.411,340.545,216.412,341.455,215.234,341.455z"/>
<circle fill="#FFFFFF" cx="77.505" cy="652.576" r="50.842"/>
<path fill="#0D4C6F" d="M158.316,595.663c-0.615,0-1.235-0.164-1.796-0.512c-1.602-0.995-2.095-3.097-1.102-4.7
	c16.247-26.206,6.076-44.668,5.636-45.439c-0.932-1.633-0.374-3.718,1.253-4.657c1.635-0.938,3.708-0.392,4.653,1.23
	c0.53,0.908,12.774,22.605-5.74,52.464C160.576,595.091,159.457,595.663,158.316,595.663z"/>
<path fill="#0D4C6F" d="M95.489,586.01l-2.962-3.456c0.069-0.062,7.54-6.67,11.819-21.114c4.339-14.647,1.689-27.782,1.664-27.914
	l4.454-0.93c0.122,0.581,2.91,14.403-1.75,30.138C104.021,578.562,95.836,585.713,95.489,586.01z"/>
<g>
	<path fill="#91B87D" d="M745.279,629.811c0,38.555-31.256,69.812-69.812,69.812c-38.56,0-69.813-31.257-69.813-69.812
		c0-38.557,31.254-69.812,69.813-69.812C714.023,559.998,745.279,591.254,745.279,629.811z"/>
	<path fill="none" stroke="#91B87D" stroke-width="6" stroke-miterlimit="10" d="M745.279,629.811
		c0,38.555-31.256,69.812-69.812,69.812c-38.56,0-69.813-31.257-69.813-69.812c0-38.557,31.254-69.812,69.813-69.812
		C714.023,559.998,745.279,591.254,745.279,629.811z"/>
</g>
<polygon fill="#91B87D" points="629.933,390.779 672.426,364.221 752.862,350.562 772.592,355.114 865.17,395.332 901.595,615.015 
	810.535,637.78 808.258,657.129 734.697,660.274 651.227,663.848 617.792,665.279 595.406,666.234 603.791,639.538 552.53,500.052 
	"/>
<g>
	<path opacity="0.5" fill="#63721D" d="M691.396,488.669l-34.619-118.364l-22.673,14.783l-59.565,155.941l4.553,29.594L601.1,626.02
		l-7.971,38.509c17.074,0,21.059-1.707,21.059-1.707l-2.086-114.202l43.632,22.004l29.594-18.212c0,0,12.14-11.191,12.14-23.523
		S691.396,488.669,691.396,488.669z"/>
</g>
<path fill="#F7D869" d="M720.612,588.834c0,0,13.659,17.074,7.968,47.807c-2.521,13.617-57.48,15.936-57.48,15.936
	s-11.951-6.829-26.181-25.042c-14.228-18.212-9.105-48.375-9.105-48.375l59.757-5.122L720.612,588.834z"/>
<polygon fill="#F7F2EA" points="636.002,267.281 639.229,300.859 671.953,359.479 688.551,362.135 683.05,375.604 682.293,395.332 
	699.364,405.955 727.064,402.163 749.446,391.349 763.865,370.291 765.762,352.838 752.862,348.284 736.548,305.792 
	723.459,301.428 711.887,262.538 "/>
<path opacity="0.5" fill="#63721D" d="M668.418,328.122c-3.324,0-5.742-1.452-6.943-2.751c-1.277-1.387-1.191-3.548,0.193-4.826
	c1.356-1.253,3.46-1.196,4.75,0.114c0.245,0.218,2.035,1.578,5.847-0.578c1.639-0.926,3.724-0.352,4.653,1.293
	c0.929,1.642,0.348,3.727-1.293,4.653C672.922,327.554,670.494,328.122,668.418,328.122z"/>
<path fill="#63721D" d="M678.613,297.58c-0.462,0-0.936-0.097-1.388-0.298c-1.717-0.767-2.492-2.771-1.731-4.492
	c2.034-4.6,8.367-12.679,17.776-10.326c1.829,0.456,2.94,2.31,2.484,4.14c-0.457,1.83-2.294,2.944-4.142,2.485
	c-6.155-1.536-9.73,6.147-9.879,6.476C681.163,296.827,679.917,297.58,678.613,297.58z"/>
<path opacity="0.5" fill="#63721D" d="M680.067,342.308c-6.384,0-11.869-1.435-12.283-1.547c-1.214-0.323-1.935-1.571-1.609-2.784
	c0.324-1.213,1.571-1.936,2.785-1.613c0.162,0.043,16.44,4.283,23.668-2.198c0.938-0.839,2.374-0.761,3.215,0.175
	c0.839,0.937,0.763,2.376-0.175,3.214C691.514,341.279,685.469,342.308,680.067,342.308z"/>
<path fill="#63721D" d="M656.709,298.155c-1.274,0-2.497-0.716-3.082-1.939c-0.137-0.283-3.094-6.214-7.047-4.468
	c-1.734,0.766-3.741-0.024-4.502-1.751c-0.761-1.727,0.024-3.741,1.751-4.5c8.037-3.535,13.954,3.544,15.963,7.78
	c0.808,1.705,0.083,3.74-1.622,4.548C657.698,298.049,657.2,298.155,656.709,298.155z"/>
<circle fill="#63721D" cx="689.026" cy="298.298" r="5.976"/>
<path fill="#63721D" d="M656.657,297.671c0.929,3.168-0.582,6.398-3.37,7.213c-2.788,0.818-5.803-1.085-6.731-4.252
	c-0.93-3.168,0.58-6.397,3.371-7.215C652.713,292.6,655.728,294.502,656.657,297.671z"/>
<path fill="#63721D" d="M685.87,364.837c-6.045,0-14.387-1.714-15.869-4.187c-0.453-0.758-7.015-12.633-16.972-30.661
	c-6.62-11.989-12.919-23.393-14.077-25.454c-2.038-3.62-3.005-14.232-3.751-25.157c-0.102-1.495-0.17-2.572-0.225-2.993
	c-0.155-1.248,0.729-2.387,1.977-2.542c1.255-0.159,2.386,0.729,2.542,1.976c0.058,0.458,0.139,1.627,0.249,3.249
	c0.374,5.475,1.362,20.012,3.174,23.237c1.163,2.064,7.468,13.48,14.098,25.482c7.247,13.125,15.403,27.896,16.725,30.23
	c1.96,1.104,11.952,3.405,15.557,1.916c4.552-1.872,27.706-17.823,30.511-22.416c2.346-3.835,4.056-16.427,4.516-20.953
	c0.066-0.653,0.411-1.244,0.945-1.624c0.533-0.38,1.2-0.51,1.843-0.362c0.295,0.06,3.261,0.563,5.171-2.873
	c1.725-3.106,1.989-4.408,2.029-4.73c-0.187-0.977,0.288-1.995,1.218-2.462c1.125-0.561,2.491-0.104,3.055,1.02
	c0.475,0.949,0.752,2.853-2.323,8.384c-2.064,3.717-5.195,4.991-7.645,5.229c-0.588,4.891-2.203,16.3-4.922,20.747
	c-3.544,5.8-27.921,22.3-32.662,24.252C689.876,364.619,688.018,364.837,685.87,364.837z"/>
<path fill="#63721D" d="M699.555,388.504c-0.252,0-0.512-0.043-0.764-0.133c-1.187-0.424-1.801-1.726-1.379-2.909
	c0.754-2.117,2.712-8.351,2.712-11.756c0-2.463-4.695-8.307-7.87-11.479c-0.889-0.89-0.889-2.33,0-3.219
	c0.89-0.891,2.33-0.891,3.219,0c1.536,1.535,9.203,9.468,9.203,14.698c0,4.891-2.855,12.946-2.977,13.286
	C701.366,387.923,700.491,388.504,699.555,388.504z"/>
<path fill="#63721D" d="M705.247,406.146c-12.469,0-20.651-3.431-24.324-10.195c-7.029-12.949,5.745-32.887,6.291-33.729l3.819,2.48
	c-0.12,0.183-11.851,18.512-6.105,29.082c2.816,5.182,9.652,7.809,20.319,7.809c56.407,0,58.923-45.757,59.003-47.705l4.549,0.177
	C768.779,354.586,766.111,406.146,705.247,406.146z"/>
<path fill="#63721D" d="M729.715,649.162c-1.681,0-3.14-1.238-3.379-2.942c-0.257-1.833,0.995-3.536,2.82-3.841l0.237-0.04
	c0.814-0.211,9.43-2.903,9.43-23.91c0-23.702-13.953-34.371-14.547-34.814c-0.996-0.741-1.517-1.967-1.352-3.193
	c0.164-1.229,0.975-2.276,2.13-2.73l101.303-39.839c1.748-0.693,3.737,0.171,4.428,1.928c0.69,1.754-0.173,3.737-1.929,4.425
	l-96.303,37.874c5.136,5.647,13.1,17.447,13.1,36.351c0,10.49-2.004,17.404-4.575,21.963l104.179-17.363
	c1.863-0.306,3.623,0.945,3.931,2.806c0.312,1.861-0.947,3.621-2.806,3.932l-116.101,19.349c-0.089,0.015-0.146,0.022-0.178,0.025
	C729.975,649.155,729.843,649.162,729.715,649.162z"/>
<path fill="#63721D" d="M787.016,558.102c-0.162,0-0.326-0.012-0.491-0.035c-1.867-0.269-3.162-1.999-2.893-3.866l12.141-84.229
	c0.236-1.645,1.621-2.879,3.281-2.928c0.033-0.001,0.067-0.001,0.099-0.001c1.62,0,3.023,1.139,3.345,2.735l14.798,72.848
	c0.375,1.85-0.819,3.649-2.666,4.025c-1.836,0.371-3.65-0.816-4.025-2.665l-10.881-53.558l-9.332,64.747
	C790.146,556.875,788.686,558.102,787.016,558.102z"/>
<path fill="#63721D" d="M692.159,468.181c-0.106,0-0.216-0.007-0.325-0.022l-15.936-2.277c-0.642-0.091-1.213-0.453-1.574-0.994
	c-0.357-0.54-0.471-1.208-0.307-1.837l12.073-46.096c-3.521-2.075-11.913-7.702-17.513-17.035
	c-7.41-12.35,9.564-35.265,11.522-37.836c0.765-0.999,2.189-1.193,3.189-0.432c1.001,0.761,1.195,2.19,0.435,3.189
	c-4.806,6.31-16.187,24.496-11.243,32.735c6.414,10.691,17.169,16.155,17.279,16.209c0.961,0.481,1.454,1.57,1.185,2.613
	l-11.876,45.336l11.389,1.629l12.014-46.969c0.249-0.975,1.109-1.669,2.116-1.709c0.195-0.008,19.88-0.877,37.859-8.911
	c33.758-15.082,32.859-46.572,32.804-47.905c-0.051-1.256,0.923-2.316,2.176-2.371c1.236-0.062,2.317,0.916,2.373,2.172
	c0.016,0.355,1.16,35.887-35.493,52.262c-15.877,7.094-32.527,8.816-37.835,9.201l-12.11,47.336
	C694.102,467.487,693.184,468.181,692.159,468.181z"/>
<path fill="#63721D" d="M679.591,654.174c-1.895,0-3.602-0.161-5.059-0.528c-15.156-3.787-36.921-26.378-39.27-45.178
	c-2.27-18.143-2.295-32.016-2.295-32.153c0-1.023,0.682-1.919,1.667-2.192c0.989-0.278,2.032,0.145,2.562,1.021
	c0.164,0.273,16.744,27.35,41.302,27.35c14.604,0,28.345-7.6,28.482-7.674c1.096-0.619,2.485-0.226,3.097,0.873
	c0.615,1.095,0.225,2.482-0.874,3.096c-0.603,0.339-14.926,8.259-30.705,8.259c-19.481,0-33.902-14.59-40.766-23.284
	c0.256,5.715,0.814,14.281,2.047,24.141c2.072,16.574,22.607,38.016,35.854,41.329c10.31,2.565,38.683-7.467,49.99-12.029
	c0.762-2.486,2.708-10.41,1.822-24.32c-0.994-15.664-9.034-24.205-10.42-25.565l-34.968-16.921c-1.131-0.55-1.604-1.909-1.058-3.04
	c0.549-1.13,1.905-1.602,3.041-1.059l35.285,17.073c0.188,0.091,0.357,0.204,0.515,0.343c0.446,0.392,10.939,9.842,12.148,28.881
	c1.152,18.109-2.291,26.819-2.438,27.18c-0.23,0.567-0.679,1.017-1.241,1.249C726.866,641.617,696.157,654.174,679.591,654.174z"/>
<path fill="#63721D" d="M742.242,327.038c-0.15,0-0.299-0.014-0.451-0.045c-3.54-0.708-10.381-4.074-10.927-11.745
	c-0.092-1.253,0.853-2.342,2.106-2.432c1.268-0.08,2.343,0.856,2.433,2.108c0.442,6.166,7.214,7.591,7.282,7.604
	c1.231,0.247,2.032,1.447,1.786,2.679C744.256,326.29,743.304,327.038,742.242,327.038z"/>
<path fill="#F7D869" d="M638.09,301.997l-10.243-6.829l-2.277-47.238l14.228-31.302c0,0,25.805-16.315,61.468-14.797
	c35.663,1.518,47.235,19.918,47.235,19.918l7.968,33.009l-1.708,40.409l-16.313,12.143l-21.817-11.004
	c2.406,6.335,7.4-37.563-12.329-37.563c-17.602,0-71.332,6.26-71.332,6.26L638.09,301.997z"/>
<path fill="#63721D" d="M807.498,660.545c-0.015,0-0.027,0-0.041,0c-1.884-0.022-3.396-1.567-3.374-3.455l0.38-33.01
	c0.018-1.607,1.155-2.983,2.731-3.307l85.951-17.556l-33.327-205.517l-88.482-39.407l-19.588-6.781
	c-0.887-0.307-1.611-0.968-1.997-1.822l-10.624-23.524c-0.416-0.921-0.402-1.982,0.038-2.892c0.442-0.911,1.266-1.579,2.245-1.824
	l3.257-0.814l-3.323-3.324c-0.715-0.689-4.404-4.54-3.521-8.952c0.354-1.78,1.588-4.224,5.44-5.742
	c5.415-2.141,7.591-10.458,7.611-10.541c0.136-0.46,7.954-27.104-8.782-70.034c-5.179-13.292-36.474-21.904-64.403-17.735
	c-12.815,1.916-42.867,9.602-45.11,39.514c-2.583,34.432,2.735,60.014,6.377,61.906c0.594,0.273,1.089,0.484,1.499,0.648
	c0.2-0.195,0.43-0.368,0.685-0.513c1.617-0.925,3.689-0.378,4.64,1.236c0.036,0.063,0.073,0.126,0.105,0.189l29.526,52.994
	c0.893,1.605,0.355,3.632-1.218,4.584l-37.358,22.564L572.13,544.139l33.312,91.333c0.647,1.771-0.267,3.73-2.037,4.377
	c-1.762,0.646-3.731-0.265-4.378-2.038l-33.77-92.578c-0.293-0.8-0.274-1.684,0.051-2.472l65.64-158.975
	c0.281-0.675,0.768-1.243,1.393-1.621l35.496-21.439l-26.178-46.988c-1.773-0.148-3.733-0.964-5.567-1.812
	c-10.313-4.759-12.245-42.988-10.324-68.615c1.838-24.517,20.394-41.195,50.912-45.758c28.247-4.225,64.668,3.776,71.776,22.008
	c17.685,45.367,9.355,73.188,8.994,74.349c-0.06,0.275-2.93,11.604-11.682,15.058c-1.044,0.412-1.259,0.762-1.261,0.764
	c-0.064,0.446,0.8,1.913,1.629,2.716l7.623,7.624c0.869,0.87,1.204,2.141,0.876,3.326c-0.326,1.187-1.271,2.104-2.461,2.401
	l-5.14,1.285l8.336,18.457l18.338,6.348c0.092,0.032,0.183,0.067,0.272,0.107l90.301,40.219c1.052,0.468,1.796,1.437,1.981,2.572
	l34.147,210.576c0.293,1.807-0.892,3.525-2.688,3.893l-86.463,17.66l-0.349,30.254C810.89,659.041,809.364,660.545,807.498,660.545z
	"/>
<path fill="#63721D" d="M595.407,670.788c-0.267,0-0.54-0.03-0.812-0.099c-1.832-0.445-2.952-2.292-2.507-4.128l16.316-66.778
	c0.447-1.827,2.281-2.952,4.129-2.505c1.831,0.447,2.951,2.294,2.505,4.128l-16.315,66.778
	C598.343,669.743,596.946,670.788,595.407,670.788z"/>
<polygon fill="#63721D" points="631.83,260.45 613.333,265.856 625.854,274.963 644.635,275.533 655.447,270.694 669.393,266.71 
	664.554,273.542 675.082,271.264 689.026,265.003 694.433,261.304 701.547,261.874 708.092,266.142 710.084,276.102 
	707.238,294.599 706.385,298.298 714.922,296.307 714.636,306.834 722.035,301.712 735.599,307.688 731.426,315.656 
	737.971,322.486 744.802,323.338 745.085,315.656 744.802,304.273 736.548,305.792 721.371,300.289 718.052,283.215 
	718.052,268.134 708.092,260.735 698.132,259.312 674.229,261.304 659.717,263.011 644.064,263.297 "/>
<path fill="#63721D" d="M711.223,313.665c-0.357,0-0.721-0.087-1.055-0.261c-0.904-0.471-1.385-1.489-1.175-2.487
	c0.745-3.528,1.479-7.501,1.928-10.507c-3.158,1.7-6.292,1.001-6.48,0.957c-0.621-0.146-1.153-0.546-1.464-1.104
	c-0.312-0.555-0.376-1.218-0.178-1.823c0.021-0.059,1.981-6.074,4.779-18.567c1.165-5.201,0.637-9.315-1.571-12.228
	c-2.699-3.562-7.313-4.565-9.173-4.83c-1.592,1.241-5.638,4.203-12.668,8.158c-9.377,5.274-21.905,7.029-22.436,7.101
	c-1.011,0.143-2.025-0.436-2.416-1.399c-0.392-0.966-0.078-2.071,0.76-2.689l4.924-3.629c-2.812,0.872-6.917,2.445-12.848,5.244
	c-22.452,10.6-39.929-5.928-41.85-7.847c-0.44-0.44-0.681-1.042-0.667-1.665c0.016-0.622,0.284-1.212,0.745-1.63
	c3.362-3.056,16.978-5.557,21.07-6.251c0.406-0.07,0.829-0.023,1.214,0.126c0.091,0.035,9.132,3.544,19.017,3.258
	c4.075-0.124,9.936-0.977,16.139-1.88c17.725-2.579,39.784-5.794,49.299,2.804c3.297,2.978,4.856,7.104,4.632,12.263
	c-0.045,1.013-0.116,2.161-0.192,3.398c-0.441,6.955-1.178,18.595,3.124,21.332c9.521,6.058,13.015,4.767,17.445,3.129
	c1.276-0.471,2.594-0.96,4.127-1.332c1.215-0.301,2.451,0.446,2.751,1.671c0.298,1.222-0.45,2.452-1.672,2.75
	c-1.277,0.313-2.471,0.756-3.628,1.184c-4.935,1.822-10.034,3.714-21.469-3.561c-0.084-0.052-0.167-0.11-0.248-0.165
	c-0.082,0.131-0.176,0.256-0.286,0.371l-8.821,9.392C712.441,313.416,711.836,313.665,711.223,313.665z M713.292,292.787
	c0.39,0,0.711,0.097,0.923,0.183c1.423,0.573,2.521,1.017,0.763,11.098l3.407-3.63c0.21-0.221,0.452-0.393,0.714-0.511
	c-3.128-5.58-2.541-14.866-2.089-22.038c0.078-1.206,0.147-2.322,0.191-3.309c0.164-3.792-0.861-6.633-3.137-8.688
	c-1.633-1.478-3.859-2.515-6.496-3.211c0.725,0.633,1.412,1.355,2.04,2.176c3.077,4.035,3.888,9.421,2.412,16.01
	c-1.709,7.639-3.099,12.854-3.956,15.86c0.897-0.314,1.872-0.953,2.65-2.196C711.59,293.128,712.557,292.787,713.292,292.787z
	 M615.853,266.629c5.441,4.456,18.336,12.421,34.356,4.853c16.247-7.673,20.709-7.182,22.643-6.141
	c0.899,0.485,1.513,1.302,1.641,2.186c0.118,0.831-0.23,1.657-0.905,2.156l-2.109,1.555c3.423-1.013,7.191-2.397,10.456-4.233
	c3.789-2.131,6.675-3.964,8.734-5.359c-7.439,0.422-15.358,1.576-22.195,2.571c-6.61,0.962-12.319,1.795-16.655,1.925
	c-9.37,0.278-17.88-2.503-20.208-3.343C625.871,263.8,619.391,265.322,615.853,266.629z"/>
<path fill="#63721D" d="M682.549,245.132c-3.052,0-5.358-2.633-5.529-6.363c-0.171-3.748,2.006-6.574,5.175-6.719l25.017-1.148
	l0.21,4.548l-25.018,1.149c-0.753,0.034-0.857,1.463-0.835,1.961c0.045,0.963,0.465,2.017,0.999,2.019
	c0.006,0,0.012-0.001,0.019-0.001l25.017-1.148l0.21,4.549l-25.018,1.148C682.713,245.13,682.63,245.132,682.549,245.132z"/>
<path fill="#63721D" d="M631.919,246.937c-1.108,0-2.078-0.807-2.252-1.934c-0.19-1.239,0.657-2.397,1.895-2.59
	c0.207-0.033,2.223-0.325,9.341-0.651c0.757-0.035,0.86-1.464,0.838-1.962c-0.044-0.976-0.411-2.012-1.021-2.018
	c-6.723,0.308-8.854,0.603-8.872,0.605c-1.247,0.169-2.396-0.687-2.575-1.93c-0.18-1.241,0.678-2.394,1.921-2.575
	c0.089-0.014,2.276-0.326,9.317-0.647c3.133-0.108,5.6,2.526,5.778,6.355c0.174,3.748-2.005,6.574-5.179,6.721
	c-6.867,0.314-8.833,0.599-8.854,0.603C632.143,246.928,632.029,246.937,631.919,246.937z"/>
<path opacity="0.2" fill="#63721D" d="M735.41,318.69c-1.432-8.002-9.105,1.519-9.105,1.519l-4.554,18.495l-28.076,23.999
	l9.105,9.106l-1.518,15.937c0,0,32.629-8.348,34.147-51.602l12.9,3.794l-6.071-18.973L735.41,318.69z"/>
<path opacity="0.2" fill="#63721D" d="M706.385,262.917c-1.433-8.001-13.659-1.896-13.659-1.896l-17.644,5.69l-44.96,3.984
	l8.536,9.675l0.57,15.937c0,0,37.561,0.567,55.773-25.612l24.284,13.471l-6.072-18.972L706.385,262.917z"/>
<path fill="#63721D" d="M724.41,593.01c-0.836,0-1.639-0.459-2.04-1.258c-0.562-1.126-0.105-2.492,1.02-3.054l7.587-3.796
	c1.127-0.559,2.49-0.106,3.056,1.018c0.562,1.126,0.106,2.492-1.019,3.055l-7.588,3.795
	C725.099,592.932,724.753,593.01,724.41,593.01z"/>
<path fill="#63721D" d="M720.232,589.216c-0.582,0-1.166-0.223-1.609-0.668c-0.89-0.89-0.89-2.33,0-3.219l6.07-6.072
	c0.892-0.89,2.331-0.89,3.221,0s0.89,2.329,0,3.221l-6.072,6.07C721.397,588.993,720.815,589.216,720.232,589.216z"/>
<path fill="#63721D" d="M729.718,648.023c-0.581,0-1.164-0.222-1.608-0.667l-4.933-4.93c-0.891-0.891-0.891-2.33,0-3.222
	c0.889-0.889,2.329-0.889,3.219,0l4.933,4.933c0.889,0.89,0.889,2.33,0,3.219C730.883,647.802,730.301,648.023,729.718,648.023z"/>
<path fill="#63721D" d="M730.854,638.92c-1.081,0-2.038-0.77-2.236-1.869c-0.227-1.236,0.594-2.421,1.831-2.646l8.349-1.518
	c1.234-0.24,2.424,0.594,2.646,1.831c0.228,1.236-0.594,2.422-1.832,2.646l-8.349,1.518
	C731.127,638.909,730.99,638.92,730.854,638.92z"/>
<g>
	<polygon fill="#FCED64" points="743.314,453.488 758.496,455.889 756.005,471.626 748.074,474.408 740.443,468.016 	"/>
	<path fill="#63721D" d="M748.074,476.685c-0.526,0-1.044-0.183-1.461-0.531l-7.63-6.392c-0.64-0.534-0.935-1.372-0.774-2.188
		l2.872-14.527c0.239-1.198,1.39-1.998,2.59-1.808l15.18,2.401c0.596,0.094,1.132,0.422,1.484,0.91
		c0.355,0.488,0.503,1.099,0.408,1.693l-2.49,15.737c-0.129,0.828-0.706,1.515-1.494,1.795l-7.931,2.781
		C748.582,476.641,748.328,476.685,748.074,476.685z M742.937,467.137l5.607,4.693l5.424-1.902l1.924-12.146l-10.77-1.703
		L742.937,467.137z"/>
</g>
<g>
	<path fill="#F4BA84" d="M390.901,147.955l2.276,12.899v26.56l6.83,7.588l9.864,23.524l5.312,8.347l-0.759,9.865l-10.624,7.589
		l-6.069,6.071l-82.714,32.629l-15.175,13.659l-70.951,209.057l34.716,59.757l61.274-13.848l-4.55,84.988
		c0,0,65.068,32.818,133.933,32.818c68.864,0,126.345-36.61,126.345-36.61l-4.931-86.506l43.631,24.28l27.318-25.041l14.416-28.077
		l-6.07-28.836L598.82,296.687l-15.176-13.659l-82.713-32.629l-6.069-6.071l-10.625-7.589l-0.758-9.865l5.312-8.347l9.863-23.524
		l6.83-7.588l4.553-26.56l2.276-22.006l-4.554-5.312l-1.516-12.141l-4.553-38.7c0,0-38.51-23.714-52.359-23.714
		c-13.851,0-52.361,25.991-52.361,25.991l-2.276,45.53"/>
	<path fill="#FFFFFF" d="M454.264,670.597c-68.345,0-133.794-32.61-134.448-32.939l-0.662-0.334l4.511-84.227l-60.623,13.698
		l-35.397-60.927l71.215-209.829l15.74-14.071l82.494-32.542l5.902-5.905l10.335-7.401l0.688-8.957l-5.108-8.026l-9.879-23.518
		l-6.992-7.769v-26.997l-2.258-12.702l2.241-0.396l2.277,12.9l0.017,26.321l6.741,7.583l9.863,23.524l5.428,8.496l-0.831,10.773
		l-11.055,7.898l-6.313,6.205l-82.523,32.553l-14.801,13.321l-70.689,208.286l34.037,58.589l61.924-13.997l-4.59,85.742
		c7.045,3.416,68.646,32.369,132.758,32.369c64.13,0,119.039-32.345,125.17-36.085l-5.011-87.896l44.722,24.89l26.562-24.348
		l14.143-27.536l-5.99-28.441l-56.04-191.588l-14.782-13.306l-82.743-32.641l-6.235-6.238l-10.915-7.777l-0.828-10.773l5.517-8.667
		l9.976-23.674l6.61-7.343l4.498-26.236l2.215-21.443l-4.457-5.2l-1.558-12.481l-4.489-38.157
		c-4.421-2.685-38.731-23.259-51.294-23.259c-12.534,0-46.819,22.53-51.254,25.479l-2.249,44.959l-2.271-0.113l2.303-46.098
		l0.473-0.319c1.583-1.069,38.961-26.185,52.998-26.185c14.013,0,51.373,22.908,52.955,23.883l0.471,0.289l0.062,0.547l6.027,50.494
		l4.649,5.423l-2.327,22.492l-4.618,26.96l-6.921,7.688l-9.791,23.346l-5.196,8.197l0.688,8.958l10.192,7.28l6.043,6.024
		l82.688,32.618l15.567,14.013l0.09,0.311l56.151,191.984l6.176,29.314l-14.844,28.754l-27.923,25.597l-42.541-23.673l4.851,85.107
		l-0.562,0.358C580.643,634.176,522.666,670.597,454.264,670.597z"/>
</g>
<g>
	<path fill="#FFFFFF" d="M513.834,652.955c0,54.271-43.993,98.266-98.267,98.266c-54.275,0-98.27-43.994-98.27-98.266
		s43.994-98.267,98.27-98.267C469.841,554.688,513.834,598.684,513.834,652.955z"/>
</g>
<g>
	<path fill="#FFFFFF" d="M276.701,826.346c-54.276,0-98.27-43.997-98.27-98.267c0-54.271,43.994-98.269,98.27-98.269
		c54.273,0,98.267,43.997,98.267,98.269C374.968,782.349,330.975,826.346,276.701,826.346"/>
</g>
<polygon fill="#FAF2DE" points="527.111,428.723 536.599,436.69 540.014,470.838 535.462,484.497 519.575,472.127 "/>
<path fill="#AF651F" d="M453.884,620.705c-1.239,0-2.254-0.989-2.277-2.231l-1.896-97.89c-0.024-1.258,0.978-2.297,2.231-2.319
	c0.016,0,0.031,0,0.046,0c1.238,0,2.252,0.988,2.276,2.23l1.896,97.889c0.023,1.26-0.977,2.298-2.232,2.321
	C453.912,620.705,453.896,620.705,453.884,620.705z"/>
<polygon fill="#FAF2DE" points="390.901,160.854 395.455,187.034 402.285,195.002 415.183,226.873 416.323,240.152 409.874,261.021 
	425.81,284.165 448.194,295.168 475.321,282.647 483.477,270.126 491.825,264.816 484.237,236.738 486.895,225.355 492.585,202.969 
	496.378,195.002 505.484,187.414 507.004,175.651 499.793,156.301 475.892,126.707 444.398,123.292 421.634,143.401 
	402.285,146.816 394.696,154.784 "/>
<path fill="#AF651F" d="M449.71,385.088c-1.232,0-2.247-0.986-2.276-2.226l-1.139-50.46c-0.025-1.257,0.971-2.3,2.226-2.327
	c0.019-0.001,0.036-0.001,0.051-0.001c1.234,0,2.248,0.985,2.276,2.226l1.14,50.461c0.026,1.258-0.97,2.299-2.227,2.327
	C449.743,385.088,449.726,385.088,449.71,385.088z"/>
<g>
	<path fill="#AF641F" d="M535.456,436.69c-0.441,0-0.887-0.129-1.279-0.396l-8.349-5.692c-1.039-0.707-1.307-2.123-0.598-3.163
		c0.709-1.038,2.123-1.306,3.163-0.598l8.349,5.691c1.037,0.708,1.307,2.124,0.597,3.162
		C536.899,436.341,536.184,436.69,535.456,436.69z"/>
	<path fill="#AF641F" d="M531.609,483.584c-0.48,0-0.968-0.152-1.38-0.465l-12.035-9.183c-1.001-0.763-1.192-2.191-0.43-3.189
		c0.759-0.997,2.192-1.194,3.19-0.43l12.035,9.182c1.001,0.762,1.192,2.189,0.43,3.19
		C532.975,483.275,532.296,483.584,531.609,483.584z"/>
</g>
<linearGradient id="SVGID_1_" gradientUnits="userSpaceOnUse" x1="451.9863" y1="395.332" x2="451.9863" y2="297.4448">
	<stop  offset="0" style="stop-color:#FFFFFF"/>
	<stop  offset="1" style="stop-color:#F4BA82"/>
</linearGradient>
<polygon opacity="0.8" fill="url(#SVGID_1_)" points="523.696,395.332 382.553,395.332 366.618,297.444 537.355,297.444 "/>
<g>
	<path fill="#EBECEE" d="M512.313,508.399c0,6.286-5.095,11.383-11.382,11.383h-96.371c-6.286,0-11.383-5.097-11.383-11.383
		l-22.765-112.309c0-6.287,5.096-11.383,11.382-11.383h139.624c6.287,0,11.383,5.096,11.383,11.383L512.313,508.399z"/>
	<path fill="#0D4C6F" d="M500.932,522.059h-96.371c-7.453,0-13.53-5.998-13.656-13.421l-22.768-112.547
		c0-7.532,6.127-13.659,13.659-13.659h139.624c7.533,0,13.659,6.127,13.659,13.659l-0.038,0.409l-20.453,112.115
		C514.473,516.048,508.393,522.059,500.932,522.059z M372.692,395.876l22.763,112.294v0.229c0,5.022,4.083,9.105,9.106,9.105h96.371
		c5.021,0,9.105-4.083,9.105-9.105l0.038-0.408l20.448-112.094c-0.104-4.934-4.148-8.912-9.104-8.912H381.795
		C376.847,386.985,372.807,390.953,372.692,395.876z"/>
</g>
<circle fill="#AF651F" cx="425.238" cy="167.684" r="5.122"/>
<circle fill="#AF651F" cx="471.906" cy="167.684" r="5.122"/>
<path fill="#AF651F" d="M413.293,165.974c-1.217,0-2.393-0.648-3.011-1.792c-0.892-1.658-0.279-3.726,1.376-4.623
	c0.631-0.342,15.596-8.296,25.718-1.546c1.57,1.046,1.994,3.166,0.946,4.735c-1.046,1.571-3.164,1.994-4.734,0.948
	c-5.56-3.708-15.368,0.093-18.681,1.872C414.393,165.842,413.84,165.974,413.293,165.974z"/>
<path opacity="0.5" fill="#AF651F" d="M448.258,226.43c-5.291,0-11.047-1.071-16.607-3.916c-1.68-0.86-2.344-2.917-1.483-4.595
	c0.855-1.682,2.918-2.341,4.595-1.486c10.528,5.39,22.646,3.013,27.884-0.392c1.578-1.027,3.698-0.581,4.725,1.003
	c1.028,1.58,0.578,3.696-1.001,4.724C462.711,224.145,455.984,226.43,448.258,226.43z"/>
<path opacity="0.5" fill="#AF651F" d="M448.514,206.161c-2.533,0-5.424-1.064-9.314-3.819c-1.539-1.091-1.903-3.222-0.812-4.762
	c1.09-1.538,3.217-1.903,4.76-0.812c4.971,3.522,5.625,3.113,9.876,0.46c1.596-0.999,3.703-0.515,4.704,1.086
	c0.999,1.6,0.513,3.706-1.086,4.705C453.768,204.816,451.363,206.161,448.514,206.161z"/>
<path fill="#AF651F" d="M483.614,166.363c-0.864,0-1.73-0.327-2.396-0.983c-5.687-5.606-18.563-1.737-18.693-1.697
	c-1.805,0.571-3.714-0.428-4.285-2.226c-0.566-1.798,0.43-3.716,2.228-4.285c0.686-0.215,16.876-5.203,25.545,3.344
	c1.341,1.324,1.356,3.486,0.035,4.83C485.379,166.023,484.497,166.363,483.614,166.363z"/>
<path fill="#AF651F" d="M448.194,336.903c-0.034,0-0.068-0.001-0.105-0.003c-0.809-0.036-1.54-0.502-1.914-1.222l-38.319-73.607
	c-0.425-0.815-0.318-1.804,0.269-2.509l0,0c-0.002,0,1.788-2.412,4.909-11.428c4.241-12.256-1.997-22.616-2.061-22.719
	c-0.617-1.001-0.37-2.311,0.571-3.016c0.94-0.704,2.258-0.582,3.049,0.287c10.576,11.651,23.007,24.242,25.503,25.144
	c1.633,0.445,4.657,0.716,8.062,0.716c4.239,0,8.285-0.414,10.817-1.104c2.504-0.921,15.706-14.094,27.008-26.29
	c0.821-0.891,2.198-0.977,3.127-0.201c0.93,0.776,1.09,2.143,0.364,3.113l0,0c0,0-1.955,2.921-2.974,11.428
	c-0.728,6.052,1.99,13.13,4.176,18.818c0.996,2.591,1.856,4.83,2.236,6.614c1.163,5.419-26.319,49.273-42.804,74.933
	C449.69,336.511,448.967,336.903,448.194,336.903z M412.503,261.14l35.896,68.95c19.425-30.382,39.442-63.659,40.028-68.38
	c-0.332-1.428-1.108-3.445-1.999-5.767c-2.242-5.833-5.31-13.819-4.449-20.994c0.149-1.241,0.318-2.38,0.501-3.424
	c-8.237,8.627-19.027,19.415-22.306,20.309c-2.942,0.804-7.325,1.265-12.015,1.265c-3.843,0-7.228-0.322-9.289-0.884
	c-3.148-0.859-12.646-10.398-20.249-18.463c0.751,4.437,0.772,9.931-1.285,15.873C415.074,256.157,413.442,259.508,412.503,261.14z"
	/>
<path fill="#AF651F" d="M406.615,150.855c-2.386,0-3.624-0.708-4.142-1.124l2.845-3.555c-0.033-0.031,0.278,0.133,1.247,0.133
	c1.842,0,5.883-0.662,13.275-4.885c12.626-7.214,19.978-19.192,20.05-19.312c0.655-1.078,2.056-1.419,3.128-0.769
	c1.075,0.653,1.418,2.053,0.769,3.127c-0.323,0.533-8.049,13.115-21.688,20.906C414.512,149.713,409.641,150.855,406.615,150.855z"
	/>
<path fill="#AF651F" d="M506.052,170.814c-1.092,0-2.057-0.788-2.244-1.899l0,0c-0.021-0.127-2.292-12.775-13.823-20.89
	c-13.138-9.249-15.128-20.726-15.206-21.209c-0.201-1.241,0.643-2.41,1.886-2.611c1.241-0.2,2.409,0.644,2.609,1.884
	c0.016,0.091,1.845,10.126,13.33,18.212c13.141,9.247,15.597,23.272,15.694,23.864c0.208,1.241-0.633,2.414-1.872,2.618
	C506.3,170.804,506.174,170.814,506.052,170.814z"/>
<path fill="#FAF2DE" d="M486.236,149.355"/>
<path fill="#AF651F" d="M508.521,159.337c-0.578,0-1.156-0.219-1.6-0.657c-11.105-10.976-16.273-24.518-16.489-25.089
	c-0.44-1.176,0.153-2.488,1.329-2.93c1.176-0.441,2.49,0.152,2.933,1.328c0.051,0.131,5.056,13.203,15.428,23.453
	c0.895,0.884,0.902,2.325,0.019,3.22C509.695,159.111,509.107,159.337,508.521,159.337z"/>
<path fill="#AF651F" d="M403.042,180.205c-1.172,0-2.167-0.899-2.265-2.088l-2.275-27.318c-0.105-1.252,0.823-2.354,2.078-2.458
	c1.266-0.106,2.355,0.828,2.457,2.079l2.277,27.318c0.104,1.253-0.826,2.354-2.079,2.458
	C403.167,180.202,403.104,180.205,403.042,180.205z"/>
<path fill="#AF651F" d="M495.624,182.481c-0.098,0-0.198-0.006-0.297-0.019c-1.247-0.163-2.127-1.306-1.961-2.553l3.316-25.326
	c0.163-1.246,1.29-2.122,2.553-1.962c1.247,0.164,2.126,1.306,1.96,2.553l-3.316,25.327
	C497.73,181.646,496.751,182.481,495.624,182.481z"/>
<path fill="#AF651F" d="M390.899,160.845c-0.299,0-0.604-0.06-0.895-0.186c-1.148-0.495-1.687-1.813-1.202-2.964
	c0.138-0.323,3.495-8.011,17.286-15.89c12.414-7.093,16.407-17.672,16.447-17.778c0.433-1.179,1.734-1.784,2.92-1.354
	c1.182,0.434,1.785,1.741,1.353,2.921c-0.182,0.497-4.621,12.255-18.462,20.164c-12.284,7.021-15.325,13.657-15.354,13.723
	C392.616,160.333,391.775,160.845,390.899,160.845z"/>
<polygon opacity="0.2" fill="#0D4C6F" points="501.689,438.587 487.272,521.298 403.045,519.782 394.695,484.117 "/>
<path fill="#FAF2DE" d="M500.934,417.339l-47.807,25.801l-22.007,6.071c0,0,11.382-9.864,13.659-15.177
	c2.276-5.313,1.519-21.247-5.311-11.383c-6.83,9.863-25.799,23.524-25.799,23.524l-12.513,31.281l-1.146-6.239l-9.489,0.946
	l10.243,39.271l15.021-9.324l51-8.129c0,0,16.693-18.211,30.352-37.184C510.797,437.827,500.934,417.339,500.934,417.339z"/>
<path fill="#AF641F" d="M400.768,512.572c-0.782,0-1.545-0.404-1.97-1.13c-0.631-1.087-0.266-2.48,0.82-3.115l13.661-7.966
	c0.237-0.139,0.5-0.232,0.774-0.278l49.385-8.231c2.632-2.565,15.334-15.213,27.3-31.831c10.188-14.15,9.294-32.077,8.437-39.145
	l-44.968,24.268c-0.151,0.081-0.308,0.144-0.475,0.189l-22.007,6.072c-1.023,0.286-2.107-0.183-2.612-1.12
	c-0.503-0.938-0.287-2.098,0.516-2.796c3.057-2.647,11.362-10.393,13.059-14.354c1.322-3.086,1.139-9.268,0.302-11.125
	c-0.334,0.276-0.884,0.832-1.649,1.937c-6.415,9.265-22.656,21.382-25.827,23.701l-13.412,31.296
	c-0.493,1.157-1.843,1.688-2.988,1.195c-1.156-0.496-1.692-1.834-1.196-2.989l13.659-31.871c0.162-0.38,0.427-0.708,0.762-0.951
	c0.185-0.135,18.733-13.547,25.258-22.974c3.222-4.65,5.822-4.562,7.438-3.667c4.309,2.382,3.512,13.33,1.835,17.243
	c-1.194,2.793-4.415,6.495-7.506,9.646l12.909-3.563l47.58-25.675c0.629-0.344,1.383-0.365,2.035-0.065
	c0.652,0.302,1.123,0.893,1.271,1.595c0.226,1.063,5.359,26.25-8.727,45.814c-13.628,18.928-28.213,32.814-28.359,32.954
	c-0.328,0.312-0.741,0.518-1.191,0.592l-49.67,8.277l-13.299,7.759C401.552,512.473,401.156,512.572,400.768,512.572z"/>
<path fill="#AF651F" d="M577.193,551.272c-0.878,0-1.757-0.335-2.423-1.009l-55.013-55.393c-0.906-0.913-1.224-2.257-0.821-3.478
	c0.404-1.221,1.458-2.112,2.73-2.306c0.566-0.097,14.551-2.722,14.551-24.322c0-23.462-4.465-32.034-4.51-32.118
	c-0.713-1.327-0.482-2.981,0.585-4.048c1.064-1.065,2.691-1.325,4.022-0.607l74.747,40.217c1.662,0.894,2.283,2.963,1.39,4.624
	c-0.896,1.66-2.962,2.283-4.626,1.389l-67.281-36.198c1.278,5.621,2.5,14.26,2.5,26.742c0,14.221-5.383,21.89-9.898,25.816
	c-1.652,1.438-3.302,2.489-4.786,3.259l51.256,51.611c1.331,1.339,1.321,3.499-0.017,4.829
	C578.935,550.942,578.062,551.272,577.193,551.272z"/>
<path fill="#AF651F" d="M572.263,451.865c-0.52,0-1.043-0.119-1.526-0.36l-10.626-5.312c-1.036-0.518-1.74-1.528-1.867-2.681
	l-8.348-75.882c-0.198-1.796,1.039-3.436,2.819-3.74c1.77-0.305,3.49,0.83,3.9,2.591l18.849,80.663
	c0.168,0.402,0.259,0.844,0.259,1.307c0,1.885-1.528,3.414-3.416,3.414C572.291,451.865,572.278,451.865,572.263,451.865z
	 M564.829,440.917l2.453,1.226l-4.381-18.745L564.829,440.917z"/>
<path fill="#AF651F" d="M471.336,299.151c-0.637,0-1.275-0.268-1.724-0.791c-0.82-0.954-0.714-2.393,0.239-3.211l24.473-21.057
	c0.772-0.668,1.898-0.736,2.748-0.169l18.064,12.044l-19.248-36.015c-0.594-1.108-0.174-2.487,0.935-3.08
	c1.111-0.592,2.489-0.176,3.081,0.935l23.521,44.012c0.492,0.92,0.298,2.057-0.477,2.76c-0.773,0.697-1.923,0.786-2.793,0.206
	l-24.171-16.114l-23.164,19.931C472.393,298.97,471.863,299.151,471.336,299.151z"/>
<path fill="#AF651F" d="M429.79,301.428c-0.556,0-1.113-0.202-1.55-0.611l-23.842-22.214l-23.601,12.873
	c-0.873,0.479-1.961,0.333-2.684-0.372c-0.713-0.7-0.886-1.786-0.427-2.675l21.06-40.597c0.578-1.118,1.953-1.553,3.07-0.973
	c1.117,0.58,1.551,1.954,0.971,3.069l-17.626,33.982l18.499-10.091c0.858-0.468,1.924-0.337,2.641,0.333l25.042,23.333
	c0.921,0.856,0.972,2.299,0.113,3.218C431.009,301.185,430.4,301.428,429.79,301.428z"/>
<path fill="#AF651F" d="M556.136,621.275c-0.473,0-0.939-0.146-1.335-0.434l-55.774-40.408c-0.634-0.458-0.988-1.212-0.938-1.992
	l1.709-26.179c0.056-0.833,0.562-1.57,1.32-1.919c0.762-0.35,1.649-0.256,2.316,0.247l59.188,44.391
	c0.722,0.54,1.056,1.454,0.854,2.332l-5.122,22.196c-0.171,0.744-0.705,1.351-1.421,1.621
	C556.676,621.228,556.405,621.275,556.136,621.275z M502.717,577.482l51.975,37.657l4.015-17.404l-54.638-40.979L502.717,577.482z"
	/>
<path fill="#AF641F" d="M346.129,621.275c-0.283,0-0.566-0.054-0.838-0.16c-0.695-0.275-1.21-0.876-1.38-1.605l-5.123-22.196
	c-0.205-0.891,0.145-1.82,0.885-2.357l61.465-44.391c0.646-0.461,1.488-0.562,2.214-0.254c0.731,0.308,1.252,0.973,1.37,1.758
	l3.984,26.179c0.135,0.872-0.249,1.743-0.982,2.235l-60.327,40.407C347.017,621.144,346.574,621.275,346.129,621.275z
	 M343.566,597.764l4.039,17.506l56.383-37.766l-3.205-21.065L343.566,597.764z"/>
<path fill="#FFFFFF" d="M519.712,394.194H380.845c-1.256,0-2.275-1.02-2.275-2.275c0-1.257,1.019-2.277,2.275-2.277h138.867
	c1.259,0,2.275,1.021,2.275,2.277C521.987,393.175,520.971,394.194,519.712,394.194z"/>
<path fill="#0D4C6F" d="M403.611,394.194h-18.212c-1.257,0-2.274-1.02-2.274-2.275c0-1.257,1.017-2.277,2.274-2.277h18.212
	c1.259,0,2.278,1.021,2.278,2.277C405.889,393.175,404.87,394.194,403.611,394.194z"/>
<path fill="#EBECEE" stroke="#494748" stroke-width="2" stroke-linecap="round" stroke-linejoin="round" stroke-miterlimit="10" d="
	M646.627,566.07"/>
<path opacity="0.2" fill="#AF651F" d="M481.202,233.702c0,0-4.557,45.53-31.114,45.53c-26.558,0-34.147-47.806-34.147-47.806
	l23.528,18.592l22.762-1.897L481.202,233.702z"/>
<path opacity="0.2" fill="#AF651F" d="M501.5,132.967c0,0-17.265,36.994-81.954,36.994c-43.253,0-25.042-40.977-25.042-40.977
	l55.587-6.83L501.5,132.967z"/>
<path fill="#AF641F" d="M391.091,477.857c-0.955,0-1.841-0.604-2.159-1.559c-0.397-1.191,0.247-2.481,1.439-2.879l10.244-3.415
	c1.2-0.401,2.481,0.249,2.879,1.439c0.398,1.192-0.248,2.481-1.438,2.88l-10.245,3.414
	C391.571,477.819,391.329,477.857,391.091,477.857z"/>
<g>
	<polyline fill="#F4BA84" points="298.326,476.528 401.526,467.422 403.045,526.611 321.09,553.172 	"/>
	<path fill="#AF641F" d="M321.09,556.586c-1.44,0-2.782-0.918-3.247-2.361c-0.583-1.794,0.399-3.722,2.193-4.302l79.529-25.772
		l-1.36-53.007l-99.58,8.786c-1.879,0.172-3.538-1.223-3.702-3.102c-0.167-1.878,1.222-3.536,3.101-3.701l103.202-9.105
		c0.93-0.089,1.869,0.226,2.574,0.854c0.702,0.625,1.116,1.517,1.138,2.459l1.519,59.19c0.041,1.512-0.92,2.867-2.36,3.335
		l-81.952,26.559C321.793,556.532,321.439,556.586,321.09,556.586z"/>
</g>
<g>
	<line fill="#F4BA84" x1="351.441" y1="373.327" x2="321.09" y2="474.252"/>
	<path fill="#AF641F" d="M321.093,477.669c-0.327,0-0.659-0.048-0.986-0.146c-1.808-0.544-2.829-2.448-2.288-4.255l30.35-100.924
		c0.546-1.807,2.461-2.83,4.254-2.286c1.807,0.543,2.83,2.447,2.287,4.254l-30.349,100.924
		C323.917,476.713,322.56,477.669,321.093,477.669z"/>
</g>
<path fill="#AF651F" d="M331.717,475.771c-0.044,0-0.091-0.001-0.135-0.006c-1.256-0.073-2.211-1.15-2.139-2.405l2.276-38.7
	c0.073-1.254,1.149-2.239,2.405-2.139c1.256,0.074,2.211,1.15,2.139,2.405l-2.276,38.7
	C333.915,474.837,332.913,475.771,331.717,475.771z"/>
<path fill="#AF651F" d="M580.604,624.881c-1.757,0-3.248-1.348-3.399-3.131l-6.261-74.745c-0.107-1.303,0.537-2.553,1.661-3.222
	c1.124-0.668,2.528-0.634,3.622,0.085c8.806,5.8,33.541,21.173,42.137,22.63c0.09,0.004,2.148,0.302,7.451-4.221
	c13.71-11.699,31.946-40.459,31.814-53.844c-0.149-15.211-44.364-155.744-61.776-209.825l-14.032-12.631l-82.143-32.403
	c-0.436-0.172-0.83-0.431-1.161-0.762l-6.07-6.071l-8.229-7.477c-0.645-0.586-1.041-1.396-1.106-2.266l-0.759-9.866
	c-0.038-0.485,0.028-0.972,0.193-1.428l3.034-8.346l7.548-23.405c0.308-0.952,1.017-1.72,1.938-2.104
	c0.02-0.009,4.07-1.793,4.805-5.164c1.082-4.956,2.203-16.921,2.213-17.042c0.062-0.677,0.328-1.319,0.757-1.845l5.949-7.271
	l-2.097-23.769l-1.228-2.455c-0.164-0.328-0.273-0.68-0.326-1.043l-6.621-46.354c-11.4-8.037-39.252-26.201-49.187-26.201
	c-9.906,0-36.243,18.162-46.937,26.168l-8.079,49.216v24.479c0.438,2.614,3.795,22.622,4.492,26.19
	c0.302,1.555,3.248,4.094,5.26,5.327c0.694,0.427,1.216,1.091,1.467,1.866l7.587,23.524l2.995,8.227
	c0.075,0.21,0.131,0.427,0.164,0.648l1.519,9.866c0.195,1.272-0.343,2.548-1.389,3.297l-10.396,7.424l-5.869,5.872
	c-0.332,0.332-0.725,0.59-1.161,0.762l-82.14,32.403l-14.077,12.669c-27.675,77.349-68.566,195.641-68.566,206.719
	c0,7.867,27.496,53.235,34.288,56.71c5.548-0.352,36.706-8.522,55.483-13.713c1.064-0.3,2.209-0.058,3.065,0.644
	c0.858,0.697,1.323,1.769,1.253,2.872l-4.552,69.053c-0.124,1.883-1.772,3.294-3.633,3.184c-1.88-0.125-3.304-1.753-3.183-3.634
	l4.235-64.263c-13.07,3.564-47.106,12.698-52.998,12.698c-1.683,0-6.805,0-24.085-28.064c-2.791-4.529-16.703-27.528-16.703-35.486
	c0-15.88,62.166-190.025,69.256-209.829c0.191-0.533,0.508-1.01,0.929-1.388l15.175-13.659c0.305-0.273,0.653-0.489,1.031-0.64
	l82.054-32.367l5.57-5.57c0.132-0.134,0.274-0.255,0.429-0.364l8.915-6.368l-1.147-7.456l-2.921-8.031l-7.257-22.495
	c-2.205-1.52-6.487-4.953-7.303-9.131c-0.757-3.888-4.413-25.722-4.568-26.649c-0.032-0.186-0.046-0.375-0.046-0.564v-25.041
	c0-0.186,0.015-0.371,0.043-0.554l8.347-50.84c0.143-0.861,0.608-1.636,1.305-2.166c3.821-2.905,37.759-28.376,52.15-28.376
	c14.342,0,50.295,25.419,54.347,28.317c0.759,0.542,1.261,1.372,1.395,2.295l6.749,47.257l1.27,2.54
	c0.191,0.383,0.309,0.799,0.346,1.227l2.277,25.8c0.078,0.888-0.193,1.772-0.757,2.462l-6.175,7.544
	c-0.305,3.117-1.256,12.315-2.238,16.822c-1.092,5-5.115,7.954-7.348,9.244l-7.156,22.188l-2.822,7.771l0.597,7.778l7.344,6.677
	l5.684,5.681l82.057,32.368c0.378,0.151,0.727,0.367,1.03,0.64l15.176,13.659c0.447,0.402,0.78,0.917,0.965,1.49
	c2.539,7.881,62.197,193.271,62.389,212.729c0.166,16.924-20.64,47.523-34.213,59.104c-5.242,4.476-9.486,6.372-13.025,5.761
	c-8.938-1.515-28.787-13.5-38.892-19.887l5.683,67.837c0.156,1.879-1.238,3.529-3.119,3.688
	C580.797,624.876,580.699,624.881,580.604,624.881z"/>
<g>
	<polyline fill="#EBECEE" points="635.244,545.582 642.074,539.322 686.465,542.735 697.848,591.11 	"/>
	<path fill="#0D4C6F" d="M697.846,593.387c-1.031,0-1.969-0.706-2.214-1.753l-11.001-46.754l-41.747-3.214l-6.101,5.594
		c-0.93,0.851-2.368,0.788-3.218-0.141c-0.85-0.927-0.787-2.367,0.141-3.217l6.829-6.26c0.465-0.427,1.062-0.648,1.715-0.591
		l44.391,3.414c0.987,0.075,1.814,0.783,2.04,1.748l11.383,48.374c0.288,1.225-0.471,2.451-1.693,2.739
		C698.194,593.368,698.019,593.387,697.846,593.387z"/>
</g>
<g>
	<path fill="#EBECEE" d="M702.4,591.11c0,0-39.838,20.489-60.326-18.211l-6.83-27.317l45.53,3.414l10.244,44.391"/>
	<path fill="#0D4C6F" d="M678.781,598.722c-12.964,0-28.286-5.052-38.72-24.757c-0.086-0.163-0.151-0.335-0.195-0.515l-6.829-27.317
		c-0.179-0.709-0.005-1.461,0.467-2.02c0.469-0.557,1.15-0.869,1.911-0.801l45.53,3.413c0.993,0.075,1.823,0.787,2.048,1.759
		l10.079,43.684c5.003-1.423,8.235-3.053,8.291-3.082c1.106-0.573,2.484-0.137,3.062,0.987c0.573,1.118,0.134,2.487-0.984,3.062
		C703.229,593.245,692.282,598.722,678.781,598.722z M644.215,572.077c8.033,15.013,19.98,22.415,35.504,22.169
		c3.184-0.062,6.206-0.458,8.931-1.004l-9.716-42.101l-40.717-3.055L644.215,572.077z"/>
</g>
<g>
	<path fill="#D2A073" d="M391.281,131.64c0,0,32.632-9.486,58.811-9.486c26.18,0,53.496,11.005,56.152,11.763
		c2.657,0.758,15.179-36.804-56.532-36.804C378.003,97.112,391.281,131.64,391.281,131.64z"/>
	<path fill="#AF641F" d="M506.326,137.342h-0.478l-0.541-0.142c-0.36-0.104-1.137-0.374-2.271-0.776
		c-7.566-2.685-30.589-10.855-52.945-10.855c-25.398,0-57.537,9.257-57.856,9.35l-3.015,0.876l-1.126-2.929
		c-0.165-0.432-3.989-10.698,2.968-20.828c8.358-12.17,28.091-18.341,58.65-18.341c22.732,0,39.628,3.73,50.219,11.087
		c10.653,7.399,12.243,16.572,12.243,21.382C512.174,130.658,510.618,137.342,506.326,137.342z M450.092,118.739
		c23.117,0,46.544,8.168,54.796,11.095c0.611-2.308,0.945-6.697-1.419-11.315c-3.438-6.719-14.994-17.992-53.757-17.992
		c-35.092,0-48.202,8.362-53.019,15.377c-2.986,4.345-3.188,8.703-2.874,11.493C403.017,124.949,428.469,118.739,450.092,118.739z"
		/>
</g>
<path fill="#AF641F" d="M463.749,459.075c-0.674,0-1.34-0.299-1.79-0.868c-0.777-0.988-0.608-2.419,0.378-3.197l37.563-29.594
	c0.988-0.777,2.418-0.609,3.196,0.38c0.779,0.986,0.609,2.419-0.379,3.196l-37.561,29.595
	C464.739,458.917,464.242,459.075,463.749,459.075z"/>
<path opacity="0.5" fill="#AF641F" d="M466.023,472.734c-0.597,0-1.191-0.232-1.639-0.695c-0.87-0.905-0.846-2.347,0.059-3.219
	l33.009-31.871c0.901-0.873,2.346-0.849,3.219,0.055c0.872,0.906,0.847,2.348-0.058,3.221l-33.01,31.87
	C467.164,472.521,466.592,472.734,466.023,472.734z"/>
<path opacity="0.5" fill="#AF641F" d="M466.023,486.394c-0.569,0-1.139-0.214-1.58-0.64c-0.904-0.872-0.933-2.312-0.059-3.219
	l30.733-31.871c0.876-0.903,2.313-0.927,3.219-0.058c0.905,0.872,0.931,2.314,0.058,3.219l-30.732,31.872
	C467.215,486.158,466.62,486.394,466.023,486.394z"/>
</svg>
