<?xml version="1.0" encoding="utf-8"?>
<!-- Generator: Adobe Illustrator 16.0.0, SVG Export Plug-In . SVG Version: 6.00 Build 0)  -->
<!DOCTYPE svg PUBLIC "-//W3C//DTD SVG 1.1//EN" "http://www.w3.org/Graphics/SVG/1.1/DTD/svg11.dtd">
<svg version="1.1" id="Layer_1" xmlns="http://www.w3.org/2000/svg" xmlns:xlink="http://www.w3.org/1999/xlink" x="0px" y="0px"
	 width="900px" height="650px" viewBox="0 0 900 650" enable-background="new 0 0 900 650" xml:space="preserve">
<rect x="-16.5" y="-38.86" fill="#E6E6E6" width="1033" height="727.721"/>
<g display="none">
	<path display="inline" fill="#FFFFFF" d="M219.802,110.635c10.111,0,436.065,0,444.889,0c10.111,0,20.229,10.112,20.226,20.223
		c-0.003,10.11,0,708.783-0.002,717.891c-0.001,10.109-10.112,20.221-20.224,20.221c-10.11,0-356.587,0-444.889,0
		c-12.864,0-20.222-10.111-20.222-20.221c0-9.107,0-707.78,0-717.891C199.581,120.747,209.692,110.635,219.802,110.635z"/>
	<g display="inline">
		<polygon fill="#333333" points="260.248,181.414 250.134,191.525 240.024,181.414 240.024,171.302 260.248,151.08 
			280.467,171.302 280.467,181.414 270.359,191.525 		"/>
		<polygon fill="#333333" points="260.248,192.373 250.134,201.637 270.359,201.637 		"/>
		<rect x="270.359" y="242.08" fill="#808080" width="5.055" height="5.056"/>
		<path fill="#808080" d="M250.134,211.747v30.333h20.225v-30.333H250.134z M255.19,237.024v-20.222h10.111v20.222H255.19z"/>
		<polygon fill="#333333" points="305.206,474.917 304.767,475.85 245.08,475.85 315.574,625.696 310.802,635.359 381.58,666.165 
			397.846,737.525 391.69,748.023 406.857,778.6 442.246,793.766 477.637,778.6 492.803,748.17 486.885,737.525 502.915,666.165 
			573.289,635.626 568.234,626.304 579.438,504.385 639.414,504.385 570.115,352.119 573.692,344.879 502.915,314.073 
			486.645,242.08 492.803,231.97 477.637,201.637 442.246,186.469 406.857,201.637 391.691,231.97 397.854,242.08 381.58,314.073 
			311.207,344.607 316.262,353.303 		"/>
		<path opacity="0.6" fill="#1A1A1A" d="M270.09,529.019c28.27-7.177,81.984-9.954,94.754,59.882
			c-15.948,11.438-29.582,25.958-39.898,42.238l-2.774,4.573c-0.708,1.22-1.43,2.438-2.1,3.678l4.216,1.84
			c22.763-41.81,67.099-67.007,117.958-67.007c50.881,0,95.242,25.226,117.992,67.063l4.217-1.828
			c-0.677-1.241-1.391-2.459-2.098-3.682l-2.945-4.849c-10.116-15.897-23.41-30.111-38.924-41.401
			c1.246-37.566,28.857-65.86,65.136-65.86v-7.822c-9.461,0-16.474-3.224-22.025-7.796c12.853-4.945,25.04-7.063,35.2-3.663h40.351
			l-24.304-53.98l-0.01-0.021c-55.698,15.001-92.571-24.327-94.373-59.603c15.605-11.343,28.939-25.677,39.082-41.686
			c0,0,0.086-0.15,0.237-0.404c0.903-1.505,4.062-6.784,4.64-7.85l-4.215-1.831c-10.224,18.777-24.801,34.202-42.367,45.498
			c-21.543,13.858-47.578,21.506-75.594,21.506c-50.885,0-95.239-25.227-117.997-67.068l-4.208,1.83
			c0.669,1.246,1.383,2.461,2.098,3.682l2.944,4.854c10.115,15.898,23.405,30.107,38.916,41.396
			c-1.245,37.567-28.854,65.861-65.129,65.861v7.824c7.225,0,17.069,3.794,28.358,9.764c-23.138,2.851-42.08,4.206-52.233,1.693
			h-29.356L270.09,529.019z"/>
		<polygon fill="#1A1A1A" points="351.248,535.304 331.023,540.358 351.248,545.414 356.303,575.748 361.357,545.414 
			381.58,540.358 361.357,535.304 356.303,504.97 		"/>
		<path opacity="0.4" fill="#1A1A1A" d="M374.362,663.026l4.247,1.845c10.055-25.341,34.757-40.097,63.637-40.097
			c28.877,0,53.585,14.756,63.639,40.1l4.241-1.842c-10.763-26.966-37.121-49.311-67.88-49.311
			C411.489,613.722,385.131,636.063,374.362,663.026z"/>
		<path fill="#B3B3B3" d="M381.048,665.933c11.256-22.443,34.423-37.923,61.198-37.923c26.771,0,49.945,15.479,61.2,37.923
			l4.265-1.852c-11.967-24.069-36.811-40.653-65.465-40.653c-28.652,0-53.494,16.581-65.464,40.647L381.048,665.933z"/>
		<path fill="#999999" d="M295.464,522.322c39.788-0.003,73.241,34.938,73.241,76.298h-4.584c0-38.877-31.363-71.719-68.485-71.719
			c0.036,0.003-14.668,1.233-24.253,6.024l-2.05-4.101c10.392-5.195,25.482-6.451,26.121-6.503
			C295.455,522.322,295.462,522.322,295.464,522.322z"/>
		<path fill="#999999" d="M588.859,522.313v4.588c-37.122,0-68.484,32.845-68.484,71.722h-4.586
			C515.789,557.26,549.251,522.313,588.859,522.313z"/>
		<path fill="#1A1A1A" d="M406.857,722.987c0-46.714,35.389-88.571,35.389-88.571s35.391,46.914,35.391,88.571
			c0,17.716,0,24.739,0,24.739l-35.391,20.762l-35.389-20.224C406.857,748.265,406.857,740.265,406.857,722.987z"/>
		<polygon fill="#1A1A1A" points="437.191,535.304 416.969,540.358 437.191,545.414 442.246,575.748 447.303,545.414 
			467.525,540.358 447.303,535.304 442.246,504.97 		"/>
		<path fill="#B3B3B3" d="M327.265,642.525c5.023-8.325,10.975-16.021,17.624-23.04l12.072-0.063l-0.063-11.173
			c8.599-7.105,18.081-13.164,28.277-17.979l10.232,5.114l5.71-11.421c10.674-3.448,21.916-5.605,33.566-6.256l7.562,7.566
			l7.568-7.566c11.594,0.65,22.787,2.791,33.42,6.21l6.556,11.467l9.2-5.259c10.625,4.979,20.494,11.299,29.385,18.761l0.582,10.89
			l10.391-0.559c6.771,7.11,12.819,14.912,17.914,23.363l4.229-1.835c-24.242-40.608-68.609-67.873-119.244-67.873
			c-50.612,0-94.96,27.236-119.209,67.811L327.265,642.525z"/>
		<polygon fill="#1A1A1A" points="396.747,535.304 376.525,540.358 396.747,545.414 401.801,575.748 406.857,545.414 
			427.079,540.358 406.857,535.304 401.801,504.97 		"/>
		<polygon fill="#1A1A1A" points="437.191,484.749 416.969,489.802 437.191,494.858 442.246,525.192 447.303,494.858 
			467.527,489.802 447.303,484.749 442.246,454.414 		"/>
		<polygon fill="#999999" points="449.398,489.802 456.545,475.505 442.246,482.653 427.952,475.505 435.1,489.802 427.952,504.101 
			442.246,496.953 456.547,504.104 		"/>
		<polygon fill="#1A1A1A" points="477.637,434.191 457.414,439.247 477.637,444.302 482.691,474.637 487.747,444.302 
			507.969,439.247 487.747,434.191 482.691,403.859 		"/>
		<polygon fill="#1A1A1A" points="437.191,434.191 416.969,439.247 437.191,444.302 442.246,474.637 447.303,444.302 
			467.527,439.247 447.303,434.191 442.246,403.859 		"/>
		<polygon fill="#1A1A1A" points="523.134,434.191 502.912,439.247 523.134,444.302 528.19,474.637 533.246,444.302 
			553.471,439.247 533.246,434.191 528.19,403.859 		"/>
		<polygon fill="#808080" points="482.695,446.397 496.993,453.544 489.846,439.243 496.993,424.949 482.696,432.097 
			468.398,424.949 475.545,439.247 468.394,453.544 		"/>
		<polygon fill="#B3B3B3" points="401.801,547.507 416.104,554.657 408.956,540.355 416.104,526.062 401.806,533.208 
			387.508,526.062 394.654,540.355 387.503,554.657 		"/>
		<path opacity="0.4" fill="#1A1A1A" d="M510.126,317.212l-4.241-1.849c-10.054,25.341-34.762,40.095-63.639,40.095
			c-28.88,0-53.589-14.758-63.637-40.098l-4.246,1.839c10.763,26.964,37.126,49.318,67.883,49.318
			C473.005,366.518,499.363,344.171,510.126,317.212z"/>
		<path fill="#999999" d="M503.446,314.303c-11.262,22.441-34.429,37.919-61.2,37.919c-26.775,0-49.942-15.478-61.197-37.919
			l-4.266,1.852c11.963,24.066,36.804,40.655,65.463,40.655c28.654,0,53.49-16.585,65.459-40.652L503.446,314.303z"/>
		<path fill="#999999" d="M515.789,381.615h4.586c0,38.877,31.362,71.718,68.484,71.718c-0.036-0.004,14.668-1.231,24.254-6.025
			l2.05,4.101c-10.392,5.195-25.483,6.453-26.12,6.504c-0.004,0-0.011,0-0.012,0C549.242,457.912,515.789,422.975,515.789,381.615z"
			/>
		<path fill="#999999" d="M364.122,381.615h4.584c0,41.359-33.461,76.306-73.069,76.306v-4.588
			C332.758,453.333,364.122,420.492,364.122,381.615z"/>
		<path fill="#1A1A1A" d="M477.637,257.248c0,46.712-35.391,88.573-35.391,88.573s-35.389-46.915-35.389-88.573
			c0-17.716,0-24.741,0-24.741l35.389-20.76l35.391,20.223C477.637,231.97,477.637,239.969,477.637,257.248z"/>
		
			<linearGradient id="SVGID_1_" gradientUnits="userSpaceOnUse" x1="554.6885" y1="197.3623" x2="554.6885" y2="303.5293" gradientTransform="matrix(-1 0 0 -1 996.9355 505.166)">
			<stop  offset="0" style="stop-color:#B3B3B3"/>
			<stop  offset="1" style="stop-color:#808080"/>
		</linearGradient>
		<path fill="url(#SVGID_1_)" d="M472.582,267.357c0,20.223-30.336,40.446-30.336,40.446s-30.332-20.223-30.332-40.446
			c0-10.11-5.057-35.388-5.057-35.388l35.389-30.333l35.391,30.333C477.637,231.97,472.582,257.248,472.582,267.357z"/>
		<polygon fill="#4D4D4D" points="472.582,237.024 447.303,237.024 452.359,226.914 467.527,226.914 		"/>
		<g>
			
				<rect x="455.323" y="229.874" transform="matrix(0.7074 0.7068 -0.7068 0.7074 300.7784 -256.6674)" fill="#FFFFFF" width="10.111" height="10.114"/>
			<path fill="#4D4D4D" d="M460.379,225.496l9.436,9.438l-9.436,9.435l-9.441-9.435L460.379,225.496z M465.238,234.933l-4.859-4.864
				l-4.865,4.864l4.865,4.859L465.238,234.933z"/>
		</g>
		<polygon fill="#4D4D4D" points="437.191,237.024 411.914,237.024 416.969,226.914 432.137,226.914 		"/>
		<polygon fill="#808080" points="442.246,282.525 432.137,272.415 452.359,272.415 		"/>
		<polygon fill="#333333" points="461.055,272.415 442.246,277.469 423.439,272.415 437.191,272.415 447.303,272.415 		"/>
		<g>
			
				<rect x="419.063" y="229.875" transform="matrix(0.7072 0.707 -0.707 0.7072 290.2945 -231.0728)" fill="#FFFFFF" width="10.108" height="10.111"/>
			<path fill="#4D4D4D" d="M424.117,225.496l9.436,9.438l-9.436,9.435l-9.436-9.435L424.117,225.496z M428.977,234.933l-4.859-4.864
				l-4.859,4.864l4.859,4.859L428.977,234.933z"/>
		</g>
		<path fill="#808080" d="M477.637,201.637c0,0-15.166-5.056-35.391-5.056c-20.221,0-35.389,5.056-35.389,5.056l-5.057-25.279
			l10.113,5.056l10.111-10.112l10.111,5.056l10.109-10.11l10.113,10.11l10.111-5.056l10.111,10.112l10.111-5.056L477.637,201.637z"
			/>
		<g>
			<path fill="#4D4D4D" d="M295.636,440.863V430.35h10.11v-10.111h-10.11v-10.111h-10.113v10.111h-10.109v10.111h10.109v10.514
				c-17.142,2.456-30.333,17.163-30.333,34.986c0,19.546,15.846,35.39,35.391,35.39s35.388-15.84,35.388-35.39
				C325.968,458.026,312.78,443.319,295.636,440.863z"/>
		</g>
		<polygon fill="#4D4D4D" points="437.191,262.303 442.246,267.357 447.303,262.303 442.246,262.303 		"/>
		<path fill="#1A1A1A" d="M533.248,298.906"/>
		<path fill="#999999" d="M323,339.486c24.24,40.61,68.61,67.88,119.247,67.88c50.608,0,94.958-27.237,119.207-67.815l-4.229-1.838
			c-5.025,8.322-10.975,16.016-17.625,23.038l-12.064,0.058l0.055,11.174c-8.598,7.11-18.082,13.167-28.275,17.98l-10.232-5.113
			l-5.701,11.42c-10.678,3.446-21.92,5.605-33.57,6.255l-7.564-7.563l-7.562,7.563c-11.598-0.647-22.793-2.79-33.426-6.212
			L394.7,384.85l-9.199,5.262c-10.623-4.983-20.489-11.3-29.381-18.768l-0.581-10.884l-10.393,0.554
			c-6.77-7.107-12.816-14.908-17.913-23.361L323,339.486z"/>
		<path fill="#4D4D4D" d="M588.858,539.372v10.514h-10.111v10.111h10.111v10.109h10.11v-10.109h10.112v-10.111h-10.112v-10.514
			c17.143-2.457,30.334-17.163,30.334-34.987c0-19.545-15.846-35.388-35.389-35.388c-19.553,0-35.389,15.839-35.389,35.388
			C558.525,522.209,571.713,536.915,588.858,539.372z"/>
		<polygon fill="#1A1A1A" points="477.634,484.749 457.412,489.802 477.634,494.858 482.689,525.192 487.746,494.858 
			507.969,489.802 487.746,484.749 482.689,454.414 		"/>
		<polygon fill="#1A1A1A" points="396.747,484.749 376.525,489.802 396.747,494.858 401.801,525.192 406.857,494.858 
			427.079,489.802 406.857,484.749 401.801,454.414 		"/>
	</g>
</g>
<g>
	<g>
		<g>
			<polygon fill="#333333" points="1178.035,129.802 1059.54,-162.486 917.351,-217.785 806.75,-217.785 656.657,-162.486 
				632.959,98.202 546.061,98.202 664.559,390.491 806.746,445.787 917.346,445.787 1067.439,390.491 1091.14,129.802 			"/>
			<polygon fill="#1A1A1A" points="735.655,-59.793 672.458,-122.989 672.458,287.794 735.655,287.794 			"/>
			<polygon fill="#1A1A1A" points="719.854,287.794 577.66,98.202 680.357,50.803 719.854,50.803 			"/>
			<path fill="#1A1A1A" d="M798.857,185.1"/>
			<polygon fill="#1A1A1A" points="735.655,287.794 672.458,350.989 672.458,-59.793 735.655,-59.793 			"/>
			<path fill="#1A1A1A" d="M688.261,240.397"/>
			<path fill="#1A1A1A" d="M727.761,185.1"/>
			<g>
				<polygon fill="#F2F2F2" points="862.048,-4.495 854.148,3.405 854.148,11.306 862.048,3.405 869.947,11.306 869.947,3.405 				
					"/>
			</g>
			<polygon fill="#666666" points="719.854,-241.485 704.058,-225.685 704.058,114 719.854,185.1 743.555,169.298 743.555,161.399 
				735.655,161.399 735.655,-225.685 			"/>
			<linearGradient id="SVGID_2_" gradientUnits="userSpaceOnUse" x1="708.0039" y1="-241.4849" x2="708.0039" y2="185.0996">
				<stop  offset="0" style="stop-color:#666666"/>
				<stop  offset="1" style="stop-color:#999999"/>
			</linearGradient>
			<polygon fill="url(#SVGID_2_)" points="719.854,-241.485 704.058,-225.685 704.058,161.399 696.154,161.399 696.154,169.298 
				719.854,185.1 719.854,137.699 			"/>
			<polygon fill="#1A1A1A" points="696.154,137.699 743.555,137.699 759.355,66.604 696.154,66.604 680.357,90.302 			"/>
			<polygon fill="#999999" points="751.452,66.604 759.355,50.803 735.655,50.803 719.854,35.004 704.058,50.803 680.357,50.803 
				688.257,66.604 			"/>
			<polygon fill="#1A1A1A" points="862.048,58.703 798.853,-4.495 798.853,82.401 798.853,129.802 798.853,232.496 862.048,169.298 
				925.245,232.496 925.245,129.802 925.245,82.401 925.245,-4.495 			"/>
			<polygon fill="#B3B3B3" points="901.55,121.907 917.346,121.902 917.346,137.699 933.141,137.706 933.145,153.504 
				917.346,153.504 917.346,169.303 901.541,169.303 901.541,153.504 885.748,153.5 885.744,137.706 901.541,137.699 			"/>
			<polygon fill="#CCCCCC" points="822.551,106.097 806.75,106.101 806.75,90.302 790.958,90.298 790.953,74.499 806.75,74.499 
				806.75,58.698 822.556,58.698 822.556,74.499 838.353,74.503 838.356,90.298 822.556,90.302 			"/>
			<polygon fill="#E6E6E6" points="854.148,27.105 869.947,27.105 869.947,42.906 885.744,42.908 885.748,58.709 869.947,58.709 
				869.947,74.508 854.145,74.508 854.145,58.709 838.353,58.703 838.346,42.908 854.145,42.906 			"/>
			<polygon fill="#CCCCCC" points="854.148,90.302 869.947,90.298 869.947,106.097 885.744,106.101 885.748,121.902 
				869.947,121.902 869.947,137.699 854.145,137.699 854.145,121.902 838.353,121.896 838.346,106.101 854.145,106.097 			"/>
			<polygon fill="#B3B3B3" points="822.551,169.294 806.75,169.298 806.75,153.5 790.958,153.495 790.953,137.696 806.75,137.696 
				806.75,121.896 822.556,121.896 822.556,137.696 838.353,137.699 838.356,153.495 822.556,153.5 			"/>
			<polygon fill="#CCCCCC" points="901.55,58.709 917.346,58.703 917.346,74.503 933.141,74.508 933.145,90.307 917.346,90.307 
				917.346,106.105 901.541,106.105 901.541,90.307 885.748,90.302 885.744,74.508 901.541,74.503 			"/>
			<polygon fill="#E6E6E6" points="901.55,-4.488 917.346,-4.495 917.346,11.306 933.141,11.311 933.145,27.109 917.346,27.109 
				917.346,42.908 901.541,42.908 901.541,27.109 885.748,27.105 885.744,11.311 901.541,11.306 			"/>
			<polygon fill="#E6E6E6" points="806.755,-4.488 822.556,-4.495 822.556,11.306 838.353,11.311 838.356,27.109 822.556,27.109 
				822.556,42.908 806.75,42.908 806.75,27.109 790.958,27.105 790.953,11.311 806.75,11.306 			"/>
			<polygon fill="#4D4D4D" points="854.148,153.504 869.947,153.5 869.947,169.298 885.744,169.303 885.748,185.102 
				869.947,185.102 869.947,200.903 854.145,200.903 854.145,185.102 838.353,185.1 838.346,169.303 854.145,169.298 			"/>
			<g display="none">
				<defs>
					<path id="SVGID_7_" d="M621.722,264.323c54.587,2.408,98.133,47.29,98.133,102.467c0,16.506-3.989,32.054-10.91,45.874
						l44.737,16.479c8.689-18.993,13.571-40.1,13.571-62.353c0-82.898-67.197-150.093-150.093-150.093
						c-1.884,0-3.749,0.073-5.616,0.145L621.722,264.323z"/>
				</defs>
				<clipPath id="SVGID_4_" display="inline">
					<use xlink:href="#SVGID_7_"  overflow="visible"/>
				</clipPath>
				<g display="inline" clip-path="url(#SVGID_4_)">
					<polygon fill="#4D4D4D" points="735.655,303.593 727.756,311.495 743.555,327.293 759.355,311.495 751.452,303.593 
						743.555,311.495 					"/>
					<polygon fill="#4D4D4D" points="711.955,311.495 704.058,303.593 696.154,311.495 711.955,327.293 727.756,311.495 
						719.854,303.593 					"/>
					<polygon fill="#4D4D4D" points="751.452,335.193 743.555,327.293 735.655,335.193 751.452,350.989 767.253,335.193 
						759.355,327.293 					"/>
					<polygon fill="#4D4D4D" points="719.854,350.989 735.655,335.193 727.756,327.293 719.854,335.193 711.955,327.293 
						704.058,335.193 					"/>
					<polygon fill="#4D4D4D" points="759.355,374.692 775.152,358.891 767.253,350.989 759.355,358.891 751.452,350.989 
						743.555,358.891 					"/>
					<polygon fill="#4D4D4D" points="727.756,374.692 743.555,358.891 735.655,350.989 727.756,358.891 719.854,350.989 
						711.955,358.891 					"/>
					<polygon fill="#4D4D4D" points="735.655,398.391 751.452,382.592 743.555,374.692 735.655,382.592 727.756,374.692 
						719.854,382.592 					"/>
					<polygon fill="#4D4D4D" points="767.253,398.391 783.054,382.592 775.152,374.692 767.253,382.592 759.355,374.692 
						751.452,382.592 					"/>
					<polygon fill="#4D4D4D" points="743.555,422.089 759.355,406.287 751.452,398.391 743.555,406.287 735.655,398.391 
						727.756,406.287 					"/>
					<polygon fill="#4D4D4D" points="711.955,422.089 727.756,406.287 719.854,398.391 711.955,406.287 704.058,398.391 
						696.154,406.287 					"/>
					<polygon fill="#4D4D4D" points="719.854,303.593 735.655,287.794 727.756,279.895 719.854,287.794 711.955,279.895 
						704.058,287.794 					"/>
					<polygon fill="#4D4D4D" points="711.955,279.895 727.756,264.096 719.854,256.196 711.955,264.096 704.058,256.196 
						696.154,264.096 					"/>
					<polygon fill="#4D4D4D" points="767.253,287.794 759.355,279.895 751.452,287.794 743.555,279.895 735.655,287.794 
						751.452,303.593 					"/>
					<polygon fill="#4D4D4D" points="688.257,287.794 680.357,279.895 672.458,287.794 688.257,303.593 704.058,287.794 
						696.154,279.895 					"/>
					<polygon fill="#4D4D4D" points="688.257,256.196 680.357,264.096 672.458,256.196 664.559,264.096 680.357,279.895 
						696.154,264.096 					"/>
					<polygon fill="#4D4D4D" points="632.959,232.496 625.06,240.397 640.855,256.196 656.657,240.397 648.76,232.496 
						640.855,240.397 					"/>
					<polygon fill="#4D4D4D" points="601.358,232.496 593.462,240.397 609.261,256.196 625.06,240.397 617.16,232.496 
						609.261,240.397 					"/>
					<polygon fill="#4D4D4D" points="664.559,216.697 656.657,208.798 648.76,216.697 640.855,208.798 632.959,216.697 
						648.76,232.496 					"/>
					<polygon fill="#4D4D4D" points="625.06,208.798 617.16,216.697 609.261,208.798 601.358,216.697 617.16,232.496 
						632.959,216.697 					"/>
					<polygon fill="#4D4D4D" points="648.76,264.096 640.855,256.196 632.959,264.096 648.76,279.895 664.559,264.096 
						656.657,256.196 					"/>
					<polygon fill="#4D4D4D" points="617.16,264.096 609.261,256.196 601.358,264.096 617.16,279.895 632.959,264.096 
						625.06,256.196 					"/>
					<polygon fill="#4D4D4D" points="719.854,240.397 711.955,232.496 704.058,240.397 696.154,232.496 688.257,240.397 
						704.058,256.196 					"/>
					<polygon fill="#4D4D4D" points="688.257,240.397 680.357,232.496 672.458,240.397 664.559,232.496 656.657,240.397 
						672.458,256.196 					"/>
				</g>
			</g>
			<polygon fill="#1A1A1A" points="680.357,406.287 688.257,398.391 696.154,390.491 711.955,390.491 711.955,374.692 
				727.756,374.692 727.761,358.885 743.555,358.891 743.555,343.092 759.355,343.092 759.355,327.293 775.152,327.293 
				775.152,311.495 790.953,311.495 790.953,295.696 806.75,295.696 806.75,279.895 822.551,279.895 822.551,264.096 
				838.353,264.096 838.346,248.295 854.148,248.295 854.148,232.496 862.048,240.397 869.954,232.169 869.947,248.295 
				885.739,248.295 885.748,264.096 901.538,264.096 901.55,279.895 917.337,279.895 917.346,295.696 933.158,295.716 
				933.145,311.495 948.933,311.483 948.943,327.293 964.733,327.293 964.745,343.092 980.551,343.105 980.544,358.891 
				996.338,358.885 996.345,374.692 1012.146,374.686 1012.146,390.491 1027.962,390.504 1035.842,398.384 1043.741,406.287 
				862.048,477.387 			"/>
			<linearGradient id="SVGID_5_" gradientUnits="userSpaceOnUse" x1="862.0488" y1="501.085" x2="862.0488" y2="287.7944">
				<stop  offset="0" style="stop-color:#4D4D4D"/>
				<stop  offset="1" style="stop-color:#1A1A1A"/>
			</linearGradient>
			<polygon fill="url(#SVGID_5_)" points="751.452,445.787 862.048,287.794 972.645,445.787 862.048,501.085 			"/>
			<polygon fill="#1A1A1A" points="806.75,556.383 862.048,572.182 917.346,556.383 948.943,485.286 862.048,374.692 
				775.152,485.286 			"/>
			<polygon fill="#808080" points="814.649,398.391 862.048,382.592 909.447,398.391 909.447,437.89 909.447,501.085 
				862.048,540.584 814.649,501.085 814.649,445.787 			"/>
			<polygon fill="#666666" points="806.746,556.383 862.044,572.182 917.342,556.383 925.245,587.982 909.442,580.081 
				901.55,603.781 877.843,587.982 862.044,611.681 846.242,587.982 822.551,603.781 814.647,580.081 798.853,587.982 			"/>
			<path fill="#1A1A1A" d="M719.85,365.877"/>
			<g>
				<rect x="838.353" y="232.496" fill="#808080" width="7.899" height="7.901"/>
				<polygon fill="#808080" points="862.048,232.496 869.947,224.597 869.947,216.697 862.048,224.597 854.148,216.697 
					854.148,224.597 				"/>
				<rect x="877.85" y="232.496" fill="#808080" width="7.898" height="7.901"/>
				<rect x="893.646" y="248.295" fill="#808080" width="7.904" height="7.901"/>
				<rect x="822.551" y="248.295" fill="#808080" width="7.899" height="7.901"/>
				<rect x="806.75" y="264.096" fill="#808080" width="7.899" height="7.899"/>
				<rect x="790.953" y="279.895" fill="#808080" width="7.899" height="7.899"/>
				<rect x="775.152" y="295.696" fill="#808080" width="7.901" height="7.897"/>
				<rect x="759.355" y="311.495" fill="#808080" width="7.897" height="7.899"/>
				<rect x="743.555" y="327.293" fill="#808080" width="7.897" height="7.9"/>
				<rect x="727.756" y="343.092" fill="#808080" width="7.899" height="7.897"/>
				<rect x="711.955" y="358.891" fill="#808080" width="7.899" height="7.899"/>
				<rect x="696.154" y="374.692" fill="#808080" width="7.903" height="7.899"/>
				<rect x="680.357" y="390.491" fill="#808080" width="7.899" height="7.899"/>
			</g>
			<g>
				<g>
					<polygon fill="#FFFFFF" points="890.371,454.669 901.55,465.843 890.371,477.011 879.201,465.843 					"/>
					<path fill="#4D4D4D" d="M890.371,480.586l-14.745-14.743l14.745-14.749l14.754,14.749L890.371,480.586z M882.776,465.843
						l7.595,7.593l7.599-7.593l-7.599-7.599L882.776,465.843z"/>
				</g>
				<polygon fill="#1A1A1A" points="869.947,469.487 909.447,477.387 901.55,485.286 877.85,485.286 				"/>
			</g>
			<g>
				<g>
					<polygon fill="#FFFFFF" points="835.072,453.688 846.252,466.219 835.072,477.387 823.902,466.219 					"/>
					<path fill="#4D4D4D" d="M835.072,480.962l-14.645-14.646l14.645-16.426l14.654,16.426L835.072,480.962z M827.378,466.121
						l7.694,7.69l7.702-7.69l-7.702-8.636L827.378,466.121z"/>
				</g>
				<polygon fill="#1A1A1A" points="814.649,477.387 854.148,469.487 846.252,485.286 822.551,485.286 				"/>
			</g>
			<polygon fill="#1A1A1A" points="822.551,422.089 846.252,437.89 862.048,429.99 877.85,437.89 901.55,422.089 885.748,422.089 
				869.947,422.089 862.06,422.089 846.252,422.089 			"/>
			<polygon fill="#999999" points="862.048,429.99 862.048,469.487 877.85,437.89 			"/>
			<path fill="#1A1A1A" d="M846.252,390.491l7.896,7.899l-7.896,7.896l15.796,15.802l15.802-15.802l-7.902-7.896l7.902-7.899
				l39.496,55.296v-31.598l-23.7-63.2c0,0-7.897,15.801-31.598,15.801c-23.695,0-31.598-15.801-31.598-15.801l-23.7,63.2v31.598
				L846.252,390.491z"/>
			<polygon fill="#B3B3B3" points="869.947,200.898 854.148,200.898 854.148,185.1 838.356,185.093 838.353,169.294 
				854.148,169.294 854.148,153.495 869.954,153.495 869.954,169.294 885.748,169.298 885.755,185.093 869.954,185.1 			"/>
			<polygon fill="#808080" points="822.551,232.492 806.75,232.496 806.75,216.697 790.958,216.693 790.953,200.892 806.75,200.892 
				806.75,185.093 822.556,185.093 822.556,200.892 838.353,200.898 838.356,216.693 822.556,216.697 			"/>
			<polygon fill="#808080" points="917.342,232.492 901.541,232.496 901.541,216.697 885.748,216.693 885.744,200.892 
				901.541,200.892 901.541,185.093 917.346,185.093 917.346,200.892 933.141,200.898 933.145,216.693 917.346,216.697 			"/>
		</g>
	</g>
	<g>
		<g>
			<polygon fill="#333333" points="53.557,77.157 37.758,92.957 21.959,77.157 21.959,61.358 53.557,29.759 85.156,61.358 
				85.156,77.157 69.357,92.957 			"/>
			<polygon fill="#333333" points="53.557,94.275 37.758,108.757 69.357,108.757 			"/>
			<rect x="69.357" y="171.954" fill="#808080" width="7.899" height="7.899"/>
			<path fill="#808080" d="M37.758,124.556v47.398h31.599v-47.398H37.758z M45.658,164.054v-31.599h15.799v31.599H45.658z"/>
			<polygon fill="#333333" points="552.081,582.298 552.769,580.842 646.031,580.842 535.883,346.694 543.338,331.597 
				432.742,283.463 407.325,171.954 416.943,155.553 393.244,107.774 337.945,84.075 282.645,107.774 258.949,155.319 
				268.196,171.954 243.147,283.463 133.184,331.176 141.083,345.747 123.575,536.251 29.858,536.251 138.143,774.176 
				132.553,785.492 243.147,833.631 268.572,946.122 258.949,961.92 282.645,1009.321 337.945,1033.02 393.244,1009.321 
				416.943,961.92 407.315,946.122 432.742,833.631 542.706,785.917 534.807,772.33 			"/>
			<path opacity="0.6" fill="#1A1A1A" d="M606.95,497.761c-44.17,11.215-128.104,15.552-148.056-93.572
				c24.918-17.866,46.224-40.559,62.344-65.995l4.335-7.149c1.106-1.905,2.231-3.808,3.278-5.747l-6.587-2.874
				c-35.567,65.331-104.848,104.706-184.319,104.706c-79.503,0-148.822-39.421-184.37-104.794l-6.587,2.854
				c1.057,1.945,2.173,3.846,3.278,5.755l4.602,7.575c15.807,24.844,36.578,47.052,60.821,64.694
				c-1.949,58.698-45.093,102.912-101.78,102.912v12.226c14.784,0,25.74,5.036,34.415,12.18
				c-20.083,7.726-39.126,11.034-55.002,5.721H30.271l37.978,84.35l0.014,0.036c87.033-23.443,144.648,38.012,147.466,93.132
				c-24.386,17.724-45.222,40.119-61.068,65.136c0,0-0.135,0.233-0.373,0.634c-1.412,2.351-6.347,10.599-7.25,12.264l6.586,2.864
				c15.974-29.344,38.755-53.446,66.201-71.1c33.663-21.652,74.347-33.601,118.12-33.601c79.511,0,148.821,39.419,184.379,104.8
				l6.577-2.859c-1.047-1.945-2.163-3.846-3.279-5.752l-4.602-7.583c-15.803-24.844-36.569-47.05-60.808-64.689
				c1.945-58.7,45.088-102.912,101.769-102.912v-12.227c-11.287,0-26.672-5.93-44.312-15.256
				c36.155-4.453,65.755-6.572,81.618-2.646h45.873L606.95,497.761z"/>
			<polyline fill="#333333" points="393.244,107.774 337.945,84.075 282.645,107.774 			"/>
			<polygon fill="#1A1A1A" points="480.141,487.942 511.739,480.041 480.141,472.142 472.24,424.743 464.342,472.142 
				432.742,480.041 464.342,487.942 472.24,535.339 			"/>
			<path opacity="0.4" fill="#1A1A1A" d="M444.02,288.366l-6.636-2.884c-15.711,39.597-54.311,62.655-99.438,62.655
				c-45.119,0-83.729-23.058-99.439-62.659l-6.626,2.878c16.816,42.137,58.003,77.052,106.065,77.052
				C386.005,365.407,427.193,330.496,444.02,288.366z"/>
			<path fill="#B3B3B3" d="M433.572,283.823c-17.586,35.069-53.788,59.257-95.627,59.257c-41.831,0-78.041-24.188-95.627-59.257
				l-6.666,2.894c18.703,37.607,57.52,63.523,102.293,63.523c44.772,0,83.59-25.912,102.291-63.513L433.572,283.823z"/>
			<path fill="#999999" d="M567.304,508.224c-62.174,0.005-114.444-54.592-114.444-119.222h7.164
				c0,60.749,49.008,112.067,107.012,112.067c-0.056-0.006,22.92-1.926,37.898-9.416l3.204,6.41
				c-16.237,8.115-39.819,10.08-40.814,10.16C567.317,508.224,567.306,508.224,567.304,508.224z"/>
			<path fill="#999999" d="M108.853,508.239v-7.17c58.006,0,107.013-51.323,107.013-112.072h7.164
				C223.03,453.632,170.745,508.239,108.853,508.239z"/>
			<path fill="#1A1A1A" d="M393.244,194.671c0,72.992-55.298,138.401-55.298,138.401s-55.3-73.31-55.3-138.401
				c0-27.685,0-38.654,0-38.654l55.3-32.444l55.298,31.599C393.244,155.172,393.244,167.678,393.244,194.671z"/>
			<linearGradient id="SVGID_6_" gradientUnits="userSpaceOnUse" x1="337.9443" y1="107.7739" x2="337.9443" y2="273.667">
				<stop  offset="0" style="stop-color:#CCCCCC"/>
				<stop  offset="1" style="stop-color:#808080"/>
			</linearGradient>
			<path fill="url(#SVGID_6_)" d="M385.344,210.469c0,31.6-47.398,63.198-47.398,63.198s-47.4-31.599-47.4-63.198
				c0-15.798-7.9-55.297-7.9-55.297l55.3-47.398l55.298,47.398C393.244,155.172,385.344,194.671,385.344,210.469z"/>
			<polygon fill="#4D4D4D" points="385.344,163.072 345.845,163.072 353.745,147.272 377.445,147.272 			"/>
			<g>
				
					<rect x="358.378" y="151.904" transform="matrix(0.707 0.7072 -0.7072 0.707 220.3493 -212.2206)" fill="#FFFFFF" width="15.797" height="15.794"/>
				<path fill="#4D4D4D" d="M366.276,174.547l-14.743-14.749l14.743-14.744l14.743,14.744L366.276,174.547z M358.682,159.798
					l7.594,7.598l7.593-7.598l-7.593-7.594L358.682,159.798z"/>
			</g>
			<polygon fill="#4D4D4D" points="367.333,218.369 337.945,226.269 308.557,218.369 330.046,218.369 345.845,218.369 			"/>
			<g>
				<polygon fill="#4D4D4D" points="330.046,163.072 290.545,163.072 298.445,147.272 322.144,147.272 				"/>
				<g>
					<polygon fill="#FFFFFF" points="309.623,170.971 298.445,159.798 309.623,148.631 320.791,159.798 					"/>
					<path fill="#4D4D4D" d="M309.623,174.547l-14.755-14.749l14.755-14.744l14.743,14.744L309.623,174.547z M302.022,159.798
						l7.601,7.598l7.593-7.598l-7.593-7.594L302.022,159.798z"/>
				</g>
			</g>
			<path fill="#B3B3B3" d="M393.244,107.774c0,0-23.699-7.899-55.298-7.899c-31.6,0-55.3,7.899-55.3,7.899l-7.899-39.498
				l15.799,7.899l15.8-15.8l15.799,7.9l15.801-15.8l15.8,15.8l15.8-7.9l15.799,15.8l15.8-7.899L393.244,107.774z"/>
			<polygon fill="#4D4D4D" points="330.046,202.57 337.945,210.469 345.845,202.57 337.945,202.57 			"/>
			<path fill="#1A1A1A" d="M480.141,259.763"/>
			<polygon fill="#1A1A1A" points="345.845,487.942 377.445,480.041 345.845,472.142 337.945,424.743 330.046,472.142 
				298.447,480.041 330.046,487.942 337.945,535.339 			"/>
			<path fill="#B3B3B3" d="M517.614,320.399c-7.851,13.009-17.147,25.032-27.54,36.003l-18.859,0.098l0.092,17.458
				c-13.435,11.104-28.25,20.569-44.183,28.094l-15.987-7.995l-8.923,17.849c-16.678,5.388-34.244,8.761-52.448,9.776
				l-11.821-11.823l-11.824,11.823c-18.118-1.016-35.608-4.364-52.222-9.706l-10.242-17.919l-14.375,8.223
				c-16.605-7.782-32.023-17.656-45.917-29.319l-0.911-17.013l-16.236,0.868c-10.578-11.108-20.03-23.298-27.992-36.505
				l-6.606,2.869c37.879,63.453,107.208,106.057,186.326,106.057c79.086,0,148.387-42.56,186.274-105.959L517.614,320.399z"/>
			<polygon fill="#1A1A1A" points="409.043,487.942 440.642,480.041 409.043,472.142 401.144,424.743 393.244,472.142 
				361.646,480.041 393.244,487.942 401.144,535.339 			"/>
			<polygon fill="#1A1A1A" points="345.845,566.939 377.445,559.037 345.845,551.138 337.945,503.739 330.046,551.138 
				298.445,559.037 330.046,566.939 337.945,614.336 			"/>
			<polygon fill="#999999" points="326.773,559.037 315.604,581.379 337.945,570.21 360.282,581.379 349.114,559.037 
				360.282,536.697 337.945,547.865 315.6,536.691 			"/>
			<polygon fill="#1A1A1A" points="282.648,645.936 314.247,638.033 282.648,630.137 274.749,582.735 266.849,630.137 
				235.25,638.033 266.849,645.936 274.749,693.332 			"/>
			<polygon fill="#1A1A1A" points="345.845,645.936 377.445,638.033 345.845,630.137 337.945,582.735 330.046,630.137 
				298.445,638.033 330.046,645.936 337.945,693.332 			"/>
			<polygon fill="#1A1A1A" points="211.553,645.936 243.152,638.033 211.553,630.137 203.654,582.735 195.754,630.137 
				164.152,638.033 195.754,645.936 203.654,693.332 			"/>
			<polygon fill="#808080" points="274.744,626.861 252.402,615.694 263.568,638.04 252.402,660.373 274.741,649.208 
				297.084,660.373 285.917,638.033 297.087,615.694 			"/>
			<polygon fill="#B3B3B3" points="401.144,468.873 378.797,457.7 389.965,480.046 378.797,502.381 401.139,491.213 423.48,502.381 
				412.312,480.046 423.485,457.7 			"/>
			<path fill="#999999" d="M223.03,728.091h-7.164c0-60.747-49.007-112.065-107.013-112.065c0.057,0.004-22.918,1.925-37.896,9.416
				l-3.204-6.41c16.236-8.117,39.818-10.08,40.814-10.16c0.005,0,0.017,0,0.02,0C170.759,608.871,223.03,663.462,223.03,728.091z"/>
			<path fill="#999999" d="M460.023,728.091h-7.164c0-64.629,52.286-119.235,114.176-119.235v7.17
				C509.031,616.025,460.023,667.344,460.023,728.091z"/>
			<g>
				<path fill="#4D4D4D" d="M567.035,635.51v16.429h-15.798v15.799h15.798v15.801h15.801v-15.801h15.799v-15.799h-15.799V635.51
					c26.789-3.839,47.399-26.819,47.399-54.668c0-30.542-24.757-55.299-55.298-55.299c-30.544,0-55.299,24.752-55.299,55.299
					C519.639,608.69,540.247,631.671,567.035,635.51z"/>
			</g>
			<path fill="#4D4D4D" d="M108.855,481.582v-16.428h15.799v-15.799h-15.799v-15.799H93.056v15.799h-15.8v15.799h15.8v16.428
				c-26.785,3.841-47.398,26.819-47.398,54.669c0,30.544,24.76,55.298,55.298,55.298c30.552,0,55.298-24.75,55.298-55.298
				C156.254,508.401,135.645,485.423,108.855,481.582z"/>
			<polygon fill="#1A1A1A" points="282.651,566.939 314.249,559.037 282.651,551.138 274.751,503.739 266.852,551.138 
				235.25,559.037 266.852,566.939 274.751,614.336 			"/>
			<polygon fill="#1A1A1A" points="409.043,566.939 440.642,559.037 409.043,551.138 401.144,503.739 393.244,551.138 
				361.646,559.037 393.244,566.939 401.144,614.336 			"/>
		</g>
	</g>
</g>
</svg>
