<?xml version="1.0" encoding="utf-8"?>
<!-- Generator: Adobe Illustrator 16.0.0, SVG Export Plug-In . SVG Version: 6.00 Build 0)  -->
<!DOCTYPE svg PUBLIC "-//W3C//DTD SVG 1.1//EN" "http://www.w3.org/Graphics/SVG/1.1/DTD/svg11.dtd">
<svg version="1.1" id="Layer_1" xmlns="http://www.w3.org/2000/svg" xmlns:xlink="http://www.w3.org/1999/xlink" x="0px" y="0px"
	 width="952.793px" height="358.823px" viewBox="0 0 952.793 358.823" enable-background="new 0 0 952.793 358.823"
	 xml:space="preserve">
<g>
	<path fill="#E2CFA9" d="M506.952,78.911c3.035,1.487,1.693,6.915,4.467,8.726c25.808,16.862,39.786,47.099,32.636,76.782
		c-9.267,38.473-50.557,61.643-92.04,51.653c-10.38-2.502-19.802-6.845-27.953-12.556l-9.679,15.816
		c9.825,6.58,21.034,11.618,33.332,14.584c52.096,12.55,103.945-16.547,115.583-64.862c9.881-41.006-12.349-82.86-51.153-102.259
		C510.492,65.968,506.952,78.911,506.952,78.911z"/>
	<path fill="#E2CFA9" d="M456.229,59.63c-24.611,6.894-46.253,24.548-58.91,48.984c-1.071,2.072,11.45,6.5,11.45,6.5
		c1.487-3.036,6.913-1.693,8.726-4.467c7.814-11.96,18.505-21.382,30.681-27.334C448.947,82.935,456.229,59.63,456.229,59.63z"/>
	<path fill="#E2CFA9" d="M400.773,312.266l72.271-216.817l4.772-5.861l35.44,106.09c5.962-4.655,13.191-12.029,16.101-17.263
		L485.793,50.953l-9.971-8.12l-4.651,8.12l-5.47,3.952l-80.576,241.711L400.773,312.266z"/>
	<path fill="#E2CFA9" d="M568.127,296.169l-25.098-77.608c-4.073,4.85-10.355,10.455-16.683,13.869l25.956,79.563L568.127,296.169z"
		/>
	<polygon fill="#E2CFA9" points="476.401,332.032 493.41,315.025 476.401,298.02 476.401,298.02 476.401,298.02 476.4,298.02 
		476.4,298.02 459.394,315.025 476.4,332.032 476.4,332.032 	"/>
	
		<rect x="362.545" y="201.155" transform="matrix(-0.7071 0.7071 -0.7071 -0.7071 790.1752 99.0714)" fill="#E2CFA9" width="24.051" height="24.049"/>
	
		<rect x="566.197" y="201.148" transform="matrix(-0.7071 0.7071 -0.7071 -0.7071 1137.8234 -44.9562)" fill="#E2CFA9" width="24.051" height="24.05"/>
	<polygon fill="#E2CFA9" points="500.951,39.148 476.401,64.363 451.853,39.148 451.853,29.45 500.951,29.45 	"/>
</g>
</svg>
