<?xml version="1.0" encoding="utf-8"?>
<!-- Generator: Adobe Illustrator 16.0.0, SVG Export Plug-In . SVG Version: 6.00 Build 0)  -->
<!DOCTYPE svg PUBLIC "-//W3C//DTD SVG 1.1//EN" "http://www.w3.org/Graphics/SVG/1.1/DTD/svg11.dtd">
<svg version="1.1" id="Layer_1" xmlns="http://www.w3.org/2000/svg" xmlns:xlink="http://www.w3.org/1999/xlink" x="0px" y="0px"
	 width="900px" height="650px" viewBox="0 0 900 650" enable-background="new 0 0 900 650" xml:space="preserve">
<linearGradient id="SVGID_1_" gradientUnits="userSpaceOnUse" x1="0" y1="325" x2="900" y2="325">
	<stop  offset="0.2" style="stop-color:#1A1A1A"/>
	<stop  offset="1" style="stop-color:#3C3C3C"/>
</linearGradient>
<rect fill="url(#SVGID_1_)" width="900" height="650"/>
<rect x="0" y="0" transform="matrix(-0.7071 0.7071 -0.7071 -0.7071 998.0079 236.6121)" fill="#FFFAFF" width="900.001" height="650"/>
<g>
	<linearGradient id="SVGID_2_" gradientUnits="userSpaceOnUse" x1="430.8247" y1="513.9688" x2="430.8247" y2="224.7442">
		<stop  offset="0.0296" style="stop-color:#C6A941"/>
		<stop  offset="0.3" style="stop-color:#C6A941;stop-opacity:0.4"/>
		<stop  offset="0.6811" style="stop-color:#C6A941;stop-opacity:0.9152"/>
		<stop  offset="0.7438" style="stop-color:#C6A941"/>
		<stop  offset="0.9638" style="stop-color:#C6A941;stop-opacity:0.5707"/>
		<stop  offset="1" style="stop-color:#C6A941;stop-opacity:0.5"/>
	</linearGradient>
	<path fill="url(#SVGID_2_)" d="M273.153,216.335c0,0,17.045,0,17.045,17.045s0,72.443,0,72.443h51.137v72.444
		c0,0,0,59.659,59.659,59.659c38.353,0,38.353,38.353,38.353,38.353v68.182h149.148v-76.705c0,0,0-38.353-38.353-38.353
		c-63.921,0-63.921-63.92-63.921-63.92v-59.66h-46.875c0,0,0-55.398,0-72.443s-17.046-17.045-17.046-17.045H273.153z"/>
	<g opacity="0.5">
		
			<rect x="446.104" y="423.378" transform="matrix(-0.7071 0.7071 -0.7071 -0.7071 1075.4691 413.2977)" fill="#FFFFFF" width="12.053" height="12.053"/>
		
			<rect x="446.105" y="397.809" transform="matrix(-0.7071 0.7071 -0.7071 -0.7071 1057.3904 369.6854)" fill="#FFFFFF" width="12.053" height="12.053"/>
		
			<rect x="480.195" y="423.378" transform="matrix(-0.7071 0.7071 -0.7071 -0.7071 1133.6643 389.1905)" fill="#FFFFFF" width="12.053" height="12.053"/>
		
			<rect x="480.195" y="397.809" transform="matrix(-0.7071 0.7071 -0.7071 -0.7071 1115.5872 345.5796)" fill="#FFFFFF" width="12.053" height="12.053"/>
		
			<rect x="463.149" y="410.593" transform="matrix(-0.7071 0.7071 -0.7071 -0.7071 1095.5277 379.4568)" fill="#FFFFFF" width="12.054" height="12.053"/>
		
			<rect x="463.149" y="436.161" transform="matrix(-0.7071 0.7071 -0.7071 -0.7071 1113.6073 423.1047)" fill="#FFFFFF" width="12.054" height="12.053"/>
		
			<rect x="463.149" y="385.024" transform="matrix(-0.7071 0.7071 -0.7071 -0.7071 1077.4513 335.8437)" fill="#FFFFFF" width="12.053" height="12.054"/>
		
			<rect x="497.241" y="436.162" transform="matrix(-0.7071 0.7071 -0.7071 -0.7071 1171.8031 398.9599)" fill="#FFFFFF" width="12.053" height="12.053"/>
		
			<rect x="497.241" y="410.593" transform="matrix(-0.7071 0.7071 -0.7071 -0.7071 1153.7225 355.313)" fill="#FFFFFF" width="12.053" height="12.053"/>
		
			<rect x="531.332" y="436.162" transform="matrix(-0.7071 0.7071 -0.7071 -0.7071 1229.9984 374.8527)" fill="#FFFFFF" width="12.053" height="12.053"/>
		
			<rect x="565.423" y="436.162" transform="matrix(-0.7071 0.7071 -0.7071 -0.7071 1288.1937 350.7455)" fill="#FFFFFF" width="12.053" height="12.053"/>
		
			<rect x="514.286" y="423.377" transform="matrix(-0.7071 0.7071 -0.7071 -0.7071 1191.8633 365.1216)" fill="#FFFFFF" width="12.054" height="12.053"/>
		
			<rect x="548.376" y="423.377" transform="matrix(-0.7071 0.7071 -0.7071 -0.7071 1250.0601 341.0158)" fill="#FFFFFF" width="12.054" height="12.053"/>
		
			<rect x="514.286" y="448.946" transform="matrix(-0.7071 0.7071 -0.7071 -0.7071 1209.9429 408.7696)" fill="#FFFFFF" width="12.054" height="12.053"/>
		
			<rect x="531.332" y="461.73" transform="matrix(-0.7071 0.7071 -0.7071 -0.7071 1248.079 418.4996)" fill="#FFFFFF" width="12.053" height="12.053"/>
		
			<rect x="514.286" y="474.514" transform="matrix(-0.7071 0.7071 -0.7071 -0.7071 1228.0225 452.4175)" fill="#FFFFFF" width="12.054" height="12.053"/>
		
			<rect x="548.376" y="474.514" transform="matrix(-0.7071 0.7071 -0.7071 -0.7071 1286.2191 428.3116)" fill="#FFFFFF" width="12.054" height="12.053"/>
		
			<rect x="548.376" y="448.946" transform="matrix(-0.7071 0.7071 -0.7071 -0.7071 1268.1395 384.6637)" fill="#FFFFFF" width="12.054" height="12.053"/>
		
			<rect x="582.469" y="448.946" transform="matrix(-0.7071 0.7071 -0.7071 -0.7071 1326.3325 360.515)" fill="#FFFFFF" width="12.053" height="12.053"/>
		
			<rect x="531.332" y="487.298" transform="matrix(-0.7071 0.7071 -0.7071 -0.7071 1266.1597 462.1465)" fill="#FFFFFF" width="12.053" height="12.053"/>
		
			<rect x="565.423" y="487.298" transform="matrix(-0.7071 0.7071 -0.7071 -0.7071 1324.355 438.0392)" fill="#FFFFFF" width="12.053" height="12.053"/>
		
			<rect x="565.423" y="461.73" transform="matrix(-0.7071 0.7071 -0.7071 -0.7071 1306.2743 394.3924)" fill="#FFFFFF" width="12.053" height="12.053"/>
		
			<rect x="463.149" y="487.298" transform="matrix(-0.7071 0.7071 -0.7071 -0.7071 1149.7664 510.4006)" fill="#FFFFFF" width="12.054" height="12.053"/>
		
			<rect x="463.149" y="461.73" transform="matrix(-0.7071 0.7071 -0.7071 -0.7071 1131.6869 466.7527)" fill="#FFFFFF" width="12.054" height="12.053"/>
		
			<rect x="497.241" y="487.298" transform="matrix(-0.7071 0.7071 -0.7071 -0.7071 1207.9644 486.2537)" fill="#FFFFFF" width="12.053" height="12.053"/>
		
			<rect x="497.241" y="461.73" transform="matrix(-0.7071 0.7071 -0.7071 -0.7071 1189.8838 442.6068)" fill="#FFFFFF" width="12.053" height="12.053"/>
		
			<rect x="480.195" y="474.514" transform="matrix(-0.7071 0.7071 -0.7071 -0.7071 1169.8256 476.4842)" fill="#FFFFFF" width="12.053" height="12.053"/>
		
			<rect x="480.195" y="448.946" transform="matrix(-0.7071 0.7071 -0.7071 -0.7071 1151.7449 432.8373)" fill="#FFFFFF" width="12.053" height="12.053"/>
		
			<rect x="446.104" y="474.514" transform="matrix(-0.7071 0.7071 -0.7071 -0.7071 1111.6302 500.5915)" fill="#FFFFFF" width="12.053" height="12.053"/>
		
			<rect x="446.104" y="448.946" transform="matrix(-0.7071 0.7071 -0.7071 -0.7071 1093.5497 456.9446)" fill="#FFFFFF" width="12.053" height="12.053"/>
		
			<rect x="429.058" y="461.73" transform="matrix(-0.7071 0.7071 -0.7071 -0.7071 1073.4902 490.8585)" fill="#FFFFFF" width="12.054" height="12.053"/>
		
			<rect x="429.058" y="487.298" transform="matrix(-0.7071 0.7071 -0.7071 -0.7071 1091.5697 534.5065)" fill="#FFFFFF" width="12.054" height="12.053"/>
		
			<rect x="429.058" y="436.161" transform="matrix(-0.7071 0.7071 -0.7071 -0.7071 1055.4106 447.2106)" fill="#FFFFFF" width="12.054" height="12.053"/>
		
			<rect x="429.058" y="359.456" transform="matrix(-0.7071 0.7071 -0.7071 -0.7071 1001.1747 316.2992)" fill="#FFFFFF" width="12.053" height="12.054"/>
		
			<rect x="463.149" y="359.456" transform="matrix(-0.7071 0.7071 -0.7071 -0.7071 1059.3728 292.1948)" fill="#FFFFFF" width="12.053" height="12.054"/>
		
			<rect x="446.105" y="372.24" transform="matrix(-0.7071 0.7071 -0.7071 -0.7071 1039.3109 326.0375)" fill="#FFFFFF" width="12.053" height="12.053"/>
		
			<rect x="394.967" y="410.593" transform="matrix(-0.7071 0.7071 -0.7071 -0.7071 979.1344 427.6685)" fill="#FFFFFF" width="12.054" height="12.053"/>
		
			<rect x="394.967" y="385.024" transform="matrix(-0.7071 0.7071 -0.7071 -0.7071 961.0552 384.0526)" fill="#FFFFFF" width="12.053" height="12.054"/>
		
			<rect x="377.923" y="397.809" transform="matrix(-0.7071 0.7071 -0.7071 -0.7071 940.9971 417.8971)" fill="#FFFFFF" width="12.053" height="12.053"/>
		
			<rect x="429.058" y="410.593" transform="matrix(-0.7071 0.7071 -0.7071 -0.7071 1037.3311 403.5627)" fill="#FFFFFF" width="12.054" height="12.053"/>
		
			<rect x="429.058" y="385.024" transform="matrix(-0.7071 0.7071 -0.7071 -0.7071 1019.2533 359.9482)" fill="#FFFFFF" width="12.053" height="12.054"/>
		
			<rect x="412.014" y="397.809" transform="matrix(-0.7071 0.7071 -0.7071 -0.7071 999.1937 393.7913)" fill="#FFFFFF" width="12.053" height="12.053"/>
		
			<rect x="412.013" y="423.378" transform="matrix(-0.7071 0.7071 -0.7071 -0.7071 1017.2738 437.4049)" fill="#FFFFFF" width="12.053" height="12.053"/>
		
			<rect x="412.014" y="372.24" transform="matrix(-0.7071 0.7071 -0.7071 -0.7071 981.1142 350.1434)" fill="#FFFFFF" width="12.053" height="12.053"/>
		
			<rect x="394.967" y="359.456" transform="matrix(-0.7071 0.7071 -0.7071 -0.7071 942.9767 340.4037)" fill="#FFFFFF" width="12.053" height="12.054"/>
		
			<rect x="377.923" y="372.24" transform="matrix(-0.7071 0.7071 -0.7071 -0.7071 922.9175 374.2492)" fill="#FFFFFF" width="12.053" height="12.053"/>
		
			<rect x="480.195" y="372.24" transform="matrix(-0.7071 0.7071 -0.7071 -0.7071 1097.5076 301.9317)" fill="#FFFFFF" width="12.053" height="12.053"/>
		<polygon fill="#FFFFFF" points="486.222,361.222 486.222,344.176 477.699,352.699 		"/>
	</g>
	<g opacity="0.5">
		
			<rect x="343.831" y="321.104" transform="matrix(-0.7071 0.7071 -0.7071 -0.7071 828.5612 311.0877)" fill="#FFFFFF" width="12.053" height="12.054"/>
		
			<rect x="377.923" y="321.104" transform="matrix(-0.7071 0.7071 -0.7071 -0.7071 886.7586 286.9538)" fill="#FFFFFF" width="12.053" height="12.053"/>
		
			<rect x="360.877" y="308.32" transform="matrix(-0.7071 0.7071 -0.7071 -0.7071 848.6196 277.1831)" fill="#FFFFFF" width="12.053" height="12.053"/>
		
			<rect x="360.877" y="333.888" transform="matrix(-0.7071 0.7071 -0.7071 -0.7071 866.699 320.8306)" fill="#FFFFFF" width="12.053" height="12.053"/>
		
			<rect x="360.877" y="282.752" transform="matrix(-0.7071 0.7071 -0.7071 -0.7071 830.54 233.5352)" fill="#FFFFFF" width="12.053" height="12.053"/>
		
			<rect x="394.967" y="333.888" transform="matrix(-0.7071 0.7071 -0.7071 -0.7071 924.8981 296.7548)" fill="#FFFFFF" width="12.053" height="12.054"/>
		
			<rect x="394.967" y="308.32" transform="matrix(-0.7071 0.7071 -0.7071 -0.7071 906.8198 253.1062)" fill="#FFFFFF" width="12.053" height="12.054"/>
		
			<rect x="429.058" y="308.32" transform="matrix(-0.7071 0.7071 -0.7071 -0.7071 965.0178 229.0017)" fill="#FFFFFF" width="12.053" height="12.054"/>
		
			<rect x="429.058" y="333.888" transform="matrix(-0.7071 0.7071 -0.7071 -0.7071 983.0962 272.6503)" fill="#FFFFFF" width="12.053" height="12.054"/>
		
			<rect x="463.149" y="308.32" transform="matrix(-0.7071 0.7071 -0.7071 -0.7071 1023.2159 204.8973)" fill="#FFFFFF" width="12.053" height="12.054"/>
		
			<rect x="463.149" y="333.888" transform="matrix(-0.7071 0.7071 -0.7071 -0.7071 1041.2942 248.5458)" fill="#FFFFFF" width="12.053" height="12.054"/>
		
			<rect x="446.105" y="321.104" transform="matrix(-0.7071 0.7071 -0.7071 -0.7071 1003.1519 238.7421)" fill="#FFFFFF" width="12.053" height="12.053"/>
		<polygon fill="#FFFFFF" points="486.222,335.653 486.222,318.608 477.699,327.131 		"/>
		
			<rect x="412.014" y="321.104" transform="matrix(-0.7071 0.7071 -0.7071 -0.7071 944.9553 262.848)" fill="#FFFFFF" width="12.053" height="12.053"/>
		
			<rect x="412.014" y="346.672" transform="matrix(-0.7071 0.7071 -0.7071 -0.7071 963.0347 306.4955)" fill="#FFFFFF" width="12.053" height="12.053"/>
		
			<rect x="429.058" y="359.456" transform="matrix(-0.7071 0.7071 -0.7071 -0.7071 1001.1747 316.2992)" fill="#FFFFFF" width="12.053" height="12.054"/>
		
			<rect x="446.105" y="372.24" transform="matrix(-0.7071 0.7071 -0.7071 -0.7071 1039.3109 326.0375)" fill="#FFFFFF" width="12.053" height="12.053"/>
		
			<rect x="429.058" y="385.024" transform="matrix(-0.7071 0.7071 -0.7071 -0.7071 1019.2533 359.9482)" fill="#FFFFFF" width="12.053" height="12.054"/>
		
			<rect x="463.149" y="385.024" transform="matrix(-0.7071 0.7071 -0.7071 -0.7071 1077.4513 335.8437)" fill="#FFFFFF" width="12.053" height="12.054"/>
		
			<rect x="463.149" y="359.456" transform="matrix(-0.7071 0.7071 -0.7071 -0.7071 1059.3728 292.1948)" fill="#FFFFFF" width="12.053" height="12.054"/>
		<polygon fill="#FFFFFF" points="486.222,310.085 486.222,293.04 477.699,301.562 		"/>
		
			<rect x="446.105" y="346.672" transform="matrix(-0.7071 0.7071 -0.7071 -0.7071 1021.2313 282.3896)" fill="#FFFFFF" width="12.053" height="12.053"/>
		
			<rect x="360.877" y="385.025" transform="matrix(-0.7071 0.7071 -0.7071 -0.7071 902.8582 408.1265)" fill="#FFFFFF" width="12.053" height="12.053"/>
		
			<rect x="360.877" y="410.593" transform="matrix(-0.7071 0.7071 -0.7071 -0.7071 920.9397 451.7426)" fill="#FFFFFF" width="12.053" height="12.053"/>
		
			<rect x="360.877" y="359.456" transform="matrix(-0.7071 0.7071 -0.7071 -0.7071 884.7786 364.4785)" fill="#FFFFFF" width="12.053" height="12.053"/>
		
			<rect x="377.923" y="423.378" transform="matrix(-0.7071 0.7071 -0.7071 -0.7071 959.0785 461.5121)" fill="#FFFFFF" width="12.053" height="12.053"/>
		
			<rect x="343.831" y="397.808" transform="matrix(-0.7071 0.7071 -0.7071 -0.7071 882.7966 442.0342)" fill="#FFFFFF" width="12.053" height="12.054"/>
		
			<rect x="377.923" y="346.672" transform="matrix(-0.7071 0.7071 -0.7071 -0.7071 904.838 330.6013)" fill="#FFFFFF" width="12.053" height="12.053"/>
		
			<rect x="343.831" y="372.24" transform="matrix(-0.7071 0.7071 -0.7071 -0.7071 864.718 398.3853)" fill="#FFFFFF" width="12.053" height="12.054"/>
		
			<rect x="343.831" y="346.672" transform="matrix(-0.7071 0.7071 -0.7071 -0.7071 846.6395 354.7363)" fill="#FFFFFF" width="12.053" height="12.054"/>
		
			<rect x="326.786" y="359.456" transform="matrix(-0.7071 0.7071 -0.7071 -0.7071 826.5819 388.5844)" fill="#FFFFFF" width="12.053" height="12.053"/>
		
			<rect x="326.786" y="333.888" transform="matrix(-0.7071 0.7071 -0.7071 -0.7071 808.5023 344.9365)" fill="#FFFFFF" width="12.053" height="12.053"/>
		
			<rect x="326.786" y="257.184" transform="matrix(-0.7071 0.7071 -0.7071 -0.7071 754.2628 213.9819)" fill="#FFFFFF" width="12.053" height="12.053"/>
		
			<rect x="326.786" y="231.616" transform="matrix(-0.7071 0.7071 -0.7071 -0.7071 736.1827 170.3345)" fill="#FFFFFF" width="12.053" height="12.053"/>
		
			<rect x="360.877" y="257.184" transform="matrix(-0.7071 0.7071 -0.7071 -0.7071 812.4587 189.8753)" fill="#FFFFFF" width="12.053" height="12.053"/>
		
			<rect x="360.877" y="231.616" transform="matrix(-0.7071 0.7071 -0.7071 -0.7071 794.3787 146.2279)" fill="#FFFFFF" width="12.053" height="12.053"/>
		
			<rect x="343.831" y="244.399" transform="matrix(-0.7071 0.7071 -0.7071 -0.7071 774.324 180.1295)" fill="#FFFFFF" width="12.054" height="12.053"/>
		
			<rect x="343.831" y="269.967" transform="matrix(-0.7071 0.7071 -0.7071 -0.7071 792.4028 223.7776)" fill="#FFFFFF" width="12.054" height="12.054"/>
		
			<rect x="326.786" y="308.32" transform="matrix(-0.7071 0.7071 -0.7071 -0.7071 790.423 301.2889)" fill="#FFFFFF" width="12.053" height="12.053"/>
		
			<rect x="326.786" y="282.752" transform="matrix(-0.7071 0.7071 -0.7071 -0.7071 772.3434 257.6411)" fill="#FFFFFF" width="12.053" height="12.053"/>
		
			<rect x="309.74" y="269.968" transform="matrix(-0.7071 0.7071 -0.7071 -0.7071 734.2039 247.8588)" fill="#FFFFFF" width="12.053" height="12.053"/>
		
			<rect x="377.923" y="269.968" transform="matrix(-0.7071 0.7071 -0.7071 -0.7071 850.5975 199.645)" fill="#FFFFFF" width="12.053" height="12.053"/>
		
			<rect x="377.923" y="244.4" transform="matrix(-0.7071 0.7071 -0.7071 -0.7071 832.5176 155.998)" fill="#FFFFFF" width="12.053" height="12.053"/>
		
			<rect x="412.014" y="269.968" transform="matrix(-0.7071 0.7071 -0.7071 -0.7071 908.7935 175.5385)" fill="#FFFFFF" width="12.053" height="12.053"/>
		
			<rect x="412.014" y="244.4" transform="matrix(-0.7071 0.7071 -0.7071 -0.7071 890.7135 131.8915)" fill="#FFFFFF" width="12.053" height="12.053"/>
		
			<rect x="394.967" y="231.615" transform="matrix(-0.7071 0.7071 -0.7071 -0.7071 852.5813 122.1472)" fill="#FFFFFF" width="12.054" height="12.053"/>
		
			<rect x="394.967" y="257.184" transform="matrix(-0.7071 0.7071 -0.7071 -0.7071 870.6603 165.7957)" fill="#FFFFFF" width="12.054" height="12.053"/>
		
			<rect x="394.967" y="282.751" transform="matrix(-0.7071 0.7071 -0.7071 -0.7071 888.7413 209.4572)" fill="#FFFFFF" width="12.053" height="12.054"/>
		<polygon fill="#FFFFFF" points="418.04,310.085 422.301,305.824 413.778,305.824 		"/>
		<polygon fill="#FFFFFF" points="452.131,310.085 456.392,305.824 447.869,305.824 		"/>
		<polygon fill="#FFFFFF" points="383.949,310.085 388.21,305.824 379.688,305.824 		"/>
		<polygon fill="#FFFFFF" points="349.857,310.085 354.119,305.824 345.597,305.824 		"/>
	</g>
	<g opacity="0.2">
		
			<rect x="292.695" y="180.479" transform="matrix(-0.7071 0.7071 -0.7071 -0.7071 641.8289 107.1561)" fill="#FFFFFF" width="12.053" height="12.053"/>
		
			<rect x="292.695" y="206.047" transform="matrix(-0.7071 0.7071 -0.7071 -0.7071 659.9067 150.7936)" fill="#FFFFFF" width="12.053" height="12.053"/>
		
			<rect x="292.695" y="154.91" transform="matrix(-0.7071 0.7071 -0.7071 -0.7071 623.7493 63.5081)" fill="#FFFFFF" width="12.053" height="12.053"/>
		
			<rect x="275.65" y="167.694" transform="matrix(-0.7071 0.7071 -0.7071 -0.7071 603.6899 97.3854)" fill="#FFFFFF" width="12.053" height="12.053"/>
		
			<rect x="275.649" y="193.263" transform="matrix(-0.7071 0.7071 -0.7071 -0.7071 621.7678 141.0235)" fill="#FFFFFF" width="12.053" height="12.053"/>
		
			<rect x="343.831" y="193.263" transform="matrix(-0.7071 0.7071 -0.7071 -0.7071 738.1659 92.8327)" fill="#FFFFFF" width="12.054" height="12.053"/>
		
			<rect x="275.649" y="142.126" transform="matrix(-0.7071 0.7071 -0.7071 -0.7071 585.6078 53.7291)" fill="#FFFFFF" width="12.053" height="12.053"/>
		
			<rect x="258.603" y="154.91" transform="matrix(-0.7071 0.7071 -0.7071 -0.7071 565.5552 87.6319)" fill="#FFFFFF" width="12.053" height="12.054"/>
		
			<rect x="309.74" y="193.263" transform="matrix(-0.7071 0.7071 -0.7071 -0.7071 679.9637 116.917)" fill="#FFFFFF" width="12.053" height="12.053"/>
		
			<rect x="309.74" y="167.694" transform="matrix(-0.7071 0.7071 -0.7071 -0.7071 661.8866 73.2795)" fill="#FFFFFF" width="12.053" height="12.053"/>
		
			<rect x="343.831" y="167.694" transform="matrix(-0.7071 0.7071 -0.7071 -0.7071 720.0903 49.1948)" fill="#FFFFFF" width="12.053" height="12.054"/>
		
			<rect x="360.877" y="154.91" transform="matrix(-0.7071 0.7071 -0.7071 -0.7071 740.1426 15.2964)" fill="#FFFFFF" width="12.053" height="12.053"/>
		
			<rect x="360.877" y="180.479" transform="matrix(-0.7071 0.7071 -0.7071 -0.7071 758.2222 58.9444)" fill="#FFFFFF" width="12.053" height="12.053"/>
		
			<rect x="360.877" y="206.047" transform="matrix(-0.7071 0.7071 -0.7071 -0.7071 776.2986 102.5805)" fill="#FFFFFF" width="12.053" height="12.053"/>
		
			<rect x="412.014" y="218.831" transform="matrix(-0.7071 0.7071 -0.7071 -0.7071 872.6334 88.2441)" fill="#FFFFFF" width="12.053" height="12.053"/>
		
			<rect x="429.058" y="231.615" transform="matrix(-0.7071 0.7071 -0.7071 -0.7071 910.7787 98.0421)" fill="#FFFFFF" width="12.054" height="12.053"/>
		
			<rect x="446.104" y="244.4" transform="matrix(-0.7071 0.7071 -0.7071 -0.7071 948.9095 107.7849)" fill="#FFFFFF" width="12.053" height="12.053"/>
		
			<rect x="326.786" y="180.479" transform="matrix(-0.7071 0.7071 -0.7071 -0.7071 700.0255 83.0502)" fill="#FFFFFF" width="12.053" height="12.053"/>
		
			<rect x="326.786" y="206.047" transform="matrix(-0.7071 0.7071 -0.7071 -0.7071 718.1027 126.6871)" fill="#FFFFFF" width="12.053" height="12.053"/>
		
			<rect x="360.877" y="231.616" transform="matrix(-0.7071 0.7071 -0.7071 -0.7071 794.3787 146.2279)" fill="#FFFFFF" width="12.053" height="12.053"/>
		
			<rect x="343.831" y="244.399" transform="matrix(-0.7071 0.7071 -0.7071 -0.7071 774.324 180.1295)" fill="#FFFFFF" width="12.054" height="12.053"/>
		
			<rect x="309.74" y="244.4" transform="matrix(-0.7071 0.7071 -0.7071 -0.7071 716.1239 204.2118)" fill="#FFFFFF" width="12.053" height="12.053"/>
		
			<rect x="377.923" y="244.4" transform="matrix(-0.7071 0.7071 -0.7071 -0.7071 832.5176 155.998)" fill="#FFFFFF" width="12.053" height="12.053"/>
		
			<rect x="377.923" y="218.831" transform="matrix(-0.7071 0.7071 -0.7071 -0.7071 814.4375 112.3506)" fill="#FFFFFF" width="12.053" height="12.053"/>
		
			<rect x="326.786" y="154.91" transform="matrix(-0.7071 0.7071 -0.7071 -0.7071 681.9459 39.4023)" fill="#FFFFFF" width="12.053" height="12.053"/>
		
			<rect x="292.695" y="282.752" transform="matrix(-0.7071 0.7071 -0.7071 -0.7071 714.1467 281.7469)" fill="#FFFFFF" width="12.053" height="12.053"/>
		
			<rect x="275.649" y="218.831" transform="matrix(-0.7071 0.7071 -0.7071 -0.7071 639.8479 184.6709)" fill="#FFFFFF" width="12.053" height="12.053"/>
		
			<rect x="309.74" y="218.831" transform="matrix(-0.7071 0.7071 -0.7071 -0.7071 698.0438 160.5644)" fill="#FFFFFF" width="12.053" height="12.053"/>
		
			<rect x="343.831" y="218.831" transform="matrix(-0.7071 0.7071 -0.7071 -0.7071 756.2449 136.4811)" fill="#FFFFFF" width="12.054" height="12.053"/>
		
			<rect x="292.695" y="231.616" transform="matrix(-0.7071 0.7071 -0.7071 -0.7071 677.9868 194.441)" fill="#FFFFFF" width="12.053" height="12.053"/>
		
			<rect x="292.695" y="257.184" transform="matrix(-0.7071 0.7071 -0.7071 -0.7071 696.0668 238.0884)" fill="#FFFFFF" width="12.053" height="12.053"/>
		
			<rect x="258.603" y="129.342" transform="matrix(-0.7071 0.7071 -0.7071 -0.7071 547.4742 43.9752)" fill="#FFFFFF" width="12.054" height="12.054"/>
		
			<rect x="224.513" y="129.342" transform="matrix(-0.7071 0.7071 -0.7071 -0.7071 489.273 68.0656)" fill="#FFFFFF" width="12.053" height="12.053"/>
		
			<rect x="275.649" y="116.558" transform="matrix(-0.7071 0.7071 -0.7071 -0.7071 567.5277 10.0817)" fill="#FFFFFF" width="12.053" height="12.053"/>
		
			<rect x="292.695" y="103.774" transform="matrix(-0.7071 0.7071 -0.7071 -0.7071 587.5867 -23.7952)" fill="#FFFFFF" width="12.053" height="12.053"/>
		
			<rect x="241.559" y="167.694" transform="matrix(-0.7071 0.7071 -0.7071 -0.7071 545.4932 121.4912)" fill="#FFFFFF" width="12.053" height="12.053"/>
		
			<rect x="241.559" y="142.126" transform="matrix(-0.7071 0.7071 -0.7071 -0.7071 527.4119 77.8357)" fill="#FFFFFF" width="12.053" height="12.053"/>
		
			<rect x="207.468" y="142.126" transform="matrix(-0.7071 0.7071 -0.7071 -0.7071 469.2159 101.9422)" fill="#FFFFFF" width="12.053" height="12.053"/>
		
			<rect x="224.513" y="154.91" transform="matrix(-0.7071 0.7071 -0.7071 -0.7071 507.3543 111.7205)" fill="#FFFFFF" width="12.053" height="12.053"/>
		
			<rect x="292.695" y="129.342" transform="matrix(-0.7071 0.7071 -0.7071 -0.7071 605.6666 19.8518)" fill="#FFFFFF" width="12.053" height="12.053"/>
		
			<rect x="326.786" y="129.342" transform="matrix(-0.7071 0.7071 -0.7071 -0.7071 663.8625 -4.2547)" fill="#FFFFFF" width="12.053" height="12.053"/>
		
			<rect x="309.74" y="116.558" transform="matrix(-0.7071 0.7071 -0.7071 -0.7071 625.7238 -14.0248)" fill="#FFFFFF" width="12.053" height="12.053"/>
		
			<rect x="309.74" y="142.126" transform="matrix(-0.7071 0.7071 -0.7071 -0.7071 643.8038 29.6226)" fill="#FFFFFF" width="12.053" height="12.053"/>
		<polygon fill="#FFFFFF" points="320.028,305.824 324.289,301.562 315.767,293.04 307.244,301.562 311.506,305.824 		"/>
	</g>
	<linearGradient id="SVGID_3_" gradientUnits="userSpaceOnUse" x1="447.8696" y1="544.4609" x2="447.8696" y2="518.8926">
		<stop  offset="0.2" style="stop-color:#1A1A1A"/>
		<stop  offset="1" style="stop-color:#3C3C3C"/>
	</linearGradient>
	<polygon fill="url(#SVGID_3_)" points="588.495,518.893 307.244,518.893 294.46,523.154 294.46,540.199 307.244,544.461 
		588.495,544.461 601.279,540.199 601.279,531.677 601.279,523.154 	"/>
	<path fill="#C6A941" d="M579.972,552.983c-8.522,0-264.205,0-264.205,0s-8.522,0-8.522-8.522s0-25.568,0-25.568
		s0-8.522,8.522-8.522c7.391,0,255.683,0,264.205,0c8.523,0,8.523,8.522,8.523,8.522v25.568
		C588.495,544.461,588.495,552.983,579.972,552.983z"/>
	<g opacity="0.2">
		
			<rect x="565.423" y="542.696" transform="matrix(-0.7071 0.7071 -0.7071 -0.7071 1363.53 532.6517)" opacity="0.5" fill="#FFFFFF" width="12.053" height="12.053"/>
		<polygon fill="#FFFFFF" points="588.495,544.461 588.495,527.415 579.972,535.938 		"/>
		
			<rect x="548.377" y="504.343" transform="matrix(-0.7071 0.7071 -0.7071 -0.7071 1307.3136 479.277)" fill="#FFFFFF" width="12.053" height="12.053"/>
		
			<rect x="514.286" y="504.343" transform="matrix(-0.7071 0.7071 -0.7071 -0.7071 1249.1156 503.3815)" fill="#FFFFFF" width="12.053" height="12.053"/>
		<polygon fill="#FFFFFF" points="588.495,518.893 588.495,501.848 579.972,510.37 		"/>
		
			<rect x="565.423" y="517.127" transform="matrix(-0.7071 0.7071 -0.7071 -0.7071 1345.4504 489.0038)" fill="#FFFFFF" width="12.053" height="12.053"/>
		
			<rect x="514.286" y="529.911" transform="matrix(-0.7071 0.7071 -0.7071 -0.7071 1267.1937 547.0296)" fill="#FFFFFF" width="12.053" height="12.054"/>
		
			<rect x="548.377" y="529.911" transform="matrix(-0.7071 0.7071 -0.7071 -0.7071 1325.3918 522.9252)" fill="#FFFFFF" width="12.053" height="12.054"/>
		
			<rect x="531.332" y="542.696" transform="matrix(-0.7071 0.7071 -0.7071 -0.7071 1305.3333 556.7576)" opacity="0.5" fill="#FFFFFF" width="12.053" height="12.053"/>
		
			<rect x="497.241" y="542.696" transform="matrix(-0.7071 0.7071 -0.7071 -0.7071 1247.1367 580.8634)" opacity="0.5" fill="#FFFFFF" width="12.053" height="12.053"/>
		
			<rect x="531.332" y="517.127" transform="matrix(-0.7071 0.7071 -0.7071 -0.7071 1287.2538 513.1096)" fill="#FFFFFF" width="12.053" height="12.053"/>
		
			<rect x="497.241" y="517.127" transform="matrix(-0.7071 0.7071 -0.7071 -0.7071 1229.0571 537.2155)" fill="#FFFFFF" width="12.053" height="12.053"/>
		
			<rect x="360.877" y="542.696" transform="matrix(-0.7071 0.7071 -0.7071 -0.7071 1014.3483 677.2875)" opacity="0.5" fill="#FFFFFF" width="12.053" height="12.053"/>
		
			<rect x="394.967" y="542.695" transform="matrix(-0.7071 0.7071 -0.7071 -0.7071 1072.5389 653.2201)" opacity="0.5" fill="#FFFFFF" width="12.053" height="12.054"/>
		
			<rect x="377.923" y="529.911" transform="matrix(-0.7071 0.7071 -0.7071 -0.7071 1034.4077 643.4103)" fill="#FFFFFF" width="12.053" height="12.053"/>
		
			<rect x="463.149" y="542.695" transform="matrix(-0.7071 0.7071 -0.7071 -0.7071 1188.9351 605.0112)" opacity="0.5" fill="#FFFFFF" width="12.053" height="12.054"/>
		
			<rect x="429.058" y="542.695" transform="matrix(-0.7071 0.7071 -0.7071 -0.7071 1130.7371 629.1156)" opacity="0.5" fill="#FFFFFF" width="12.053" height="12.054"/>
		<polygon fill="#FFFFFF" points="349.857,518.893 358.381,510.37 341.335,510.37 		"/>
		<polygon fill="#FFFFFF" points="315.767,518.893 324.289,510.37 307.244,510.37 		"/>
		<polygon fill="#FFFFFF" points="383.949,518.893 392.472,510.37 375.426,510.37 		"/>
		
			<rect x="360.877" y="517.127" transform="matrix(-0.7071 0.7071 -0.7071 -0.7071 996.2687 633.6396)" fill="#FFFFFF" width="12.053" height="12.053"/>
		
			<rect x="309.74" y="529.911" transform="matrix(-0.7071 0.7071 -0.7071 -0.7071 918.0127 691.6227)" opacity="0.5" fill="#FFFFFF" width="12.053" height="12.053"/>
		
			<rect x="343.831" y="529.911" transform="matrix(-0.7071 0.7071 -0.7071 -0.7071 976.2018 667.5527)" fill="#FFFFFF" width="12.053" height="12.054"/>
		
			<rect x="326.786" y="542.696" transform="matrix(-0.7071 0.7071 -0.7071 -0.7071 956.1516 701.3934)" opacity="0.5" fill="#FFFFFF" width="12.053" height="12.053"/>
		
			<rect x="326.786" y="517.127" transform="matrix(-0.7071 0.7071 -0.7071 -0.7071 938.0721 657.7454)" opacity="0.5" fill="#FFFFFF" width="12.053" height="12.053"/>
		
			<rect x="394.967" y="517.127" transform="matrix(-0.7071 0.7071 -0.7071 -0.7071 1054.4604 609.5712)" fill="#FFFFFF" width="12.053" height="12.054"/>
		
			<rect x="429.058" y="517.127" transform="matrix(-0.7071 0.7071 -0.7071 -0.7071 1112.6584 585.4667)" fill="#FFFFFF" width="12.053" height="12.054"/>
		
			<rect x="463.149" y="517.127" transform="matrix(-0.7071 0.7071 -0.7071 -0.7071 1170.8566 561.3622)" fill="#FFFFFF" width="12.053" height="12.054"/>
		<polygon fill="#FFFFFF" points="418.04,518.893 426.562,510.37 409.518,510.37 		"/>
		
			<rect x="446.105" y="504.344" transform="matrix(-0.7071 0.7071 -0.7071 -0.7071 1132.7218 551.5515)" fill="#FFFFFF" width="12.053" height="12.053"/>
		
			<rect x="480.195" y="504.344" transform="matrix(-0.7071 0.7071 -0.7071 -0.7071 1190.9185 527.4457)" fill="#FFFFFF" width="12.053" height="12.053"/>
		
			<rect x="412.014" y="529.911" transform="matrix(-0.7071 0.7071 -0.7071 -0.7071 1092.6044 619.3044)" fill="#FFFFFF" width="12.053" height="12.053"/>
		
			<rect x="446.105" y="529.911" transform="matrix(-0.7071 0.7071 -0.7071 -0.7071 1150.801 595.1986)" fill="#FFFFFF" width="12.053" height="12.053"/>
		
			<rect x="480.195" y="529.911" transform="matrix(-0.7071 0.7071 -0.7071 -0.7071 1208.9977 571.0928)" fill="#FFFFFF" width="12.053" height="12.053"/>
	</g>
	<linearGradient id="SVGID_4_" gradientUnits="userSpaceOnUse" x1="464.7969" y1="578.4336" x2="558.3102" y2="484.9203">
		<stop  offset="0.2" style="stop-color:#FFFFFF"/>
		<stop  offset="1" style="stop-color:#C6A941"/>
	</linearGradient>
	<path opacity="0.3" fill="url(#SVGID_4_)" d="M439.347,510.37h140.625c0,0,8.523,0,8.523,8.522s0,17.046,0,25.568
		s-8.523,8.522-8.523,8.522H439.347V510.37z"/>
	<path fill="#1A1A1A" d="M575.711,97.016v25.568v51.137v25.568h-8.523l-4.261-4.261v-17.045c0,0-16.191-12.641-16.191-29.83
		c0-17.189,16.191-29.83,16.191-29.83v-17.045l4.261-4.262H575.711z"/>
	<linearGradient id="SVGID_5_" gradientUnits="userSpaceOnUse" x1="561.2227" y1="97.0161" x2="561.2227" y2="170.312">
		<stop  offset="0.2" style="stop-color:#3C3C3C"/>
		<stop  offset="1" style="stop-color:#1A1A1A"/>
	</linearGradient>
	<path fill="url(#SVGID_5_)" d="M575.711,135.369V109.8V97.016h-8.523l-4.261,4.262v17.045c0,0-16.191,13.493-16.191,30.682
		c0,17.189,16.191,21.307,16.191,21.307V139.63l4.261-4.261H575.711z"/>
	<linearGradient id="SVGID_6_" gradientUnits="userSpaceOnUse" x1="306.959" y1="195.0278" x2="588.4951" y2="195.0278">
		<stop  offset="0.2" style="stop-color:#1A1A1A"/>
		<stop  offset="1" style="stop-color:#3C3C3C"/>
	</linearGradient>
	<path fill="url(#SVGID_6_)" d="M314.487,92.755v115.768h16.335l1.704-1.563l3.126-3.409c0,0-1.562-27.415,6.96-37.357
		c8.523-9.944,17.472-11.649,23.013-12.643c0,0,70.737,3.977,92.613,10.512c21.876,6.534,28.128,20.881,30.542,26.277
		c2.413,5.397,5.253,15.058,2.413,28.551c-2.839,13.493-7.668,21.024-18.891,27.273c-11.224,6.249-44.733,8.523-53.977,8.523
		c-8.809,0-107.248,0-107.248,0l-4.119,8.522l8.522,33.585c0,0,264.49,1.139,264.49,0c0-1.135,8.523-33.585,8.523-33.585
		l-4.689-8.522h-8.095c0,0-25.502-19.063-33.522-47.302c-6.535-23.011-2.271-38.921-1.561-42.188
		c0.709-3.266,2.13-10.08,2.13-17.045c0-12.784-2.843-22.442-11.224-28.125c-5.587-3.787-11.35-7.812-31.815-7.812
		c-22.02,0-38.496,2.983-56.109,6.25c-17.612,3.266-37.642,4.118-47.868,4.118c-10.228,0-22.872-0.143-28.838-0.996
		c-5.966-0.852-14.204-3.123-20.312-8.236c-6.108-5.113-8.381-9.092-9.091-10.939c-0.71-1.845-0.427-5.397-0.427-5.397l-4.261-4.261
		H314.487z"/>
	<polygon fill="#FFFFFF" points="319.742,210.369 324.004,210.369 319.742,241.903 	"/>
	<linearGradient id="SVGID_7_" gradientUnits="userSpaceOnUse" x1="588.4951" y1="258.9487" x2="516.0518" y2="258.9487">
		<stop  offset="0.2" style="stop-color:#666666"/>
		<stop  offset="1" style="stop-color:#333333"/>
	</linearGradient>
	<path opacity="0.4" fill="url(#SVGID_7_)" d="M588.495,263.21h-72.443c0,0,0-8.522,12.784-8.522c8.522,0,54.97,0,54.97,0
		L588.495,263.21z"/>
	<linearGradient id="SVGID_8_" gradientUnits="userSpaceOnUse" x1="588.4951" y1="280.0024" x2="306.9595" y2="280.0025">
		<stop  offset="0.2" style="stop-color:#1A1A1A"/>
		<stop  offset="1" style="stop-color:#333333"/>
	</linearGradient>
	<polygon fill="url(#SVGID_8_)" points="579.972,296.795 315.481,296.795 306.959,263.21 588.495,263.21 	"/>
	<g>
		<linearGradient id="SVGID_9_" gradientUnits="userSpaceOnUse" x1="560.7959" y1="480.54" x2="560.7959" y2="429.4033">
			<stop  offset="0.2" style="stop-color:#621607"/>
			<stop  offset="1" style="stop-color:#9E2F1F"/>
		</linearGradient>
		<path fill="url(#SVGID_9_)" d="M537.358,437.927c0,0,4.261,0,12.784,0c20.109,0,29.829,12.784,29.744,34.091
			c0,0,0.085,4.262-4.176,4.262c0,4.261,0,4.261,0,4.261h12.784l-0.063-8.522c0.063-29.83-17.712-42.614-38.289-42.614
			c-8.523,0-17.046,0-17.046,0v8.523H537.358z"/>
		<g>
			<linearGradient id="SVGID_10_" gradientUnits="userSpaceOnUse" x1="200.7095" y1="480.54" x2="200.7095" y2="327.1309">
				<stop  offset="0.2" style="stop-color:#621607"/>
				<stop  offset="1" style="stop-color:#9E2F1F"/>
			</linearGradient>
			<path fill="url(#SVGID_10_)" d="M217.755,472.018c-12.784,0-25.568,0-25.568,0v-17.046c0,0,0-115.059,0-119.318
				c0-4.262,4.262-4.262,4.262-4.262v-4.261h-34.091v4.261c0,0,4.261,0,4.261,4.262s0,132.554,0,136.364
				c0,4.262-4.261,4.262-4.261,4.262v4.261h72.443h4.261v-29.829v-4.262c0,0,0,0-4.261,0
				C234.801,463.495,230.539,472.018,217.755,472.018z"/>
			<linearGradient id="SVGID_11_" gradientUnits="userSpaceOnUse" x1="268.8916" y1="480.54" x2="268.8916" y2="327.1309">
				<stop  offset="0.2" style="stop-color:#621607"/>
				<stop  offset="1" style="stop-color:#9E2F1F"/>
			</linearGradient>
			<path fill="url(#SVGID_11_)" d="M285.938,480.54h-34.092v-4.261c0,0,4.262,0,4.262-4.262c0-3.811,0-132.103,0-136.364
				s-4.262-4.262-4.262-4.262v-4.261h34.092v4.261c0,0-4.262,0-4.262,4.262s0,132.554,0,136.364c0,4.262,4.262,4.262,4.262,4.262
				V480.54z"/>
			<linearGradient id="SVGID_12_" gradientUnits="userSpaceOnUse" x1="622.5859" y1="480.54" x2="622.5859" y2="327.1309">
				<stop  offset="0.2" style="stop-color:#621607"/>
				<stop  offset="1" style="stop-color:#9E2F1F"/>
			</linearGradient>
			<path fill="url(#SVGID_12_)" d="M639.631,480.54H605.54v-4.261c0,0,4.262,0,4.262-4.262c0-9.335,0-126.836,0-136.364
				c0-4.262-4.262-4.262-4.262-4.262v-4.261h34.091v4.261c0,0-4.261,0-4.261,4.262c0,9.528,0,127.029,0,136.364
				c0,4.262,4.261,4.262,4.261,4.262V480.54z"/>
			<linearGradient id="SVGID_13_" gradientUnits="userSpaceOnUse" x1="347.7271" y1="480.54" x2="347.7271" y2="327.1309">
				<stop  offset="0.2" style="stop-color:#621607"/>
				<stop  offset="1" style="stop-color:#9E2F1F"/>
			</linearGradient>
			<path fill="url(#SVGID_13_)" d="M349.857,437.927v8.522c0,0,12.784,0,12.784,4.262c0,4.261,0,17.045,0,17.045
				s0,4.262-4.261,4.262c-4.262,0-17.046,0-21.308,0c-4.261,0-4.261-4.262-4.261-4.262V339.915c0,0,0-4.262,4.261-4.262
				c4.262,0,29.83,0,34.092,0c4.261,0,4.261,4.262,4.261,4.262s0,8.522,0,12.784c0,4.261-4.261,4.261-4.261,4.261v4.262h12.784
				c0,0,0-4.262,0-8.522c0-4.262,0-12.784,0-12.784s0-12.784-12.784-12.784s-38.353,0-51.137,0s-12.784,12.784-12.784,12.784
				v127.841c0,0,0,12.784,12.784,12.784s55.397,0,55.397,0s0-12.784,12.784-12.784v-4.261c0,0,0-9.731,0-12.784
				c0-4.262,0-4.262,0-4.262v-8.522H349.857z"/>
			<linearGradient id="SVGID_14_" gradientUnits="userSpaceOnUse" x1="445.7388" y1="480.54" x2="445.7388" y2="327.1309">
				<stop  offset="0.2" style="stop-color:#621607"/>
				<stop  offset="1" style="stop-color:#9E2F1F"/>
			</linearGradient>
			<path fill="url(#SVGID_14_)" d="M473.438,331.392c0,0,4.262,0,4.262,4.262s0,128.299,0,132.103c0,4.262-4.262,4.262-4.262,4.262
				h-34.091c0,0-4.262,0-4.262-4.262c0-3.804,0-127.841,0-132.103s4.262-4.262,4.262-4.262v-4.261h-34.091v4.261
				c0,0,4.262-0.001,4.262,4.262c0,4.262,0,132.103,0,132.103s0,12.784,12.783,12.784c12.784,0,38.353,0,51.137,0
				s12.784-12.784,12.784-12.784s0-127.843,0-132.103c0-4.262,0-4.262,0-4.262v-4.261h-12.784V331.392z"/>
			<linearGradient id="SVGID_15_" gradientUnits="userSpaceOnUse" x1="548.0117" y1="480.54" x2="548.0117" y2="327.1309">
				<stop  offset="0.2" style="stop-color:#621607"/>
				<stop  offset="1" style="stop-color:#9E2F1F"/>
			</linearGradient>
			<path fill="url(#SVGID_15_)" d="M588.495,382.528c0-42.613-17.046-55.397-38.353-55.397c-8.523,0-42.614,0-42.614,0v4.261
				c0,0,4.262-0.001,4.262,4.262c0,3.811,0,132.103,0,136.364s-4.262,4.262-4.262,4.262v4.261h34.091v-4.261
				c0,0-4.261,0-4.261-4.262c0-3.256,0-25.568,0-29.83c0-4.261,4.261-4.261,4.261-4.261s0,0,8.523,0
				C567.188,437.927,588.495,425.143,588.495,382.528z M550.143,429.403c-8.523,0-8.523,0-8.523,0s-4.261,0-4.261-4.261
				c0-4.262,0-68.183,0-68.183v-21.307c0,0,4.261,0,12.784,0c21.307,0,29.829,21.307,29.829,46.875S571.449,429.403,550.143,429.403
				z"/>
			<linearGradient id="SVGID_16_" gradientUnits="userSpaceOnUse" x1="697.1602" y1="480.54" x2="697.1602" y2="327.1309">
				<stop  offset="0.2" style="stop-color:#621607"/>
				<stop  offset="1" style="stop-color:#9E2F1F"/>
			</linearGradient>
			<path fill="url(#SVGID_16_)" d="M716.336,327.131c-21.307,0-59.659,0-59.659,0v4.261c0,0,4.262,0,4.262,4.262
				c0,9.335,0,126.836,0,136.364c0,4.262-4.262,4.262-4.262,4.262v4.261h34.091v-4.261c0,0-4.261,0-4.261-4.262s0-29.83,0-29.83
				s0-4.261,4.261-4.261c4.262,0,21.308,0,29.83,0c4.261,0,4.261,4.261,4.261,4.261s0,25.568,0,29.83s-4.261,4.262-4.261,4.262
				v4.261h17.045v-4.261c0,0-4.261,0-4.261-4.262c0-9.528,0-8.217,0-127.842C733.382,344.176,733.382,327.131,716.336,327.131z
				 M724.858,425.143c0,0,0,4.261-4.261,4.261c-4.262,0-25.568,0-29.83,0c-4.261,0-4.261-4.261-4.261-4.261v-76.705v-12.784
				c0,0,21.307,0,29.829,0s8.522,8.522,8.522,8.522V425.143z"/>
		</g>
	</g>
</g>
</svg>
