<?xml version="1.0" encoding="utf-8"?>
<!-- Generator: Adobe Illustrator 16.0.0, SVG Export Plug-In . SVG Version: 6.00 Build 0)  -->
<!DOCTYPE svg PUBLIC "-//W3C//DTD SVG 1.1//EN" "http://www.w3.org/Graphics/SVG/1.1/DTD/svg11.dtd">
<svg version="1.1" id="Layer_1" xmlns="http://www.w3.org/2000/svg" xmlns:xlink="http://www.w3.org/1999/xlink" x="0px" y="0px"
	 width="900px" height="650px" viewBox="0 0 900 650" enable-background="new 0 0 900 650" xml:space="preserve">
<g>
	<polygon fill="#A01F10" points="2.611,540.999 -38.679,561.645 2.611,602.937 -38.679,602.937 2.611,644.227 43.902,602.937 
		2.611,561.645 23.256,561.645 	"/>
	<polygon fill="#EB5A00" points="43.902,561.645 2.611,520.354 -38.679,561.645 2.611,602.937 2.611,561.645 	"/>
</g>
<g>
	<polygon fill="#264A0B" points="85.191,540.999 43.902,561.645 85.191,602.937 43.902,602.937 85.191,644.227 126.482,602.937 
		85.191,561.645 105.837,561.645 	"/>
	<polygon fill="#75971A" points="126.482,561.645 85.191,520.354 43.902,561.645 85.191,602.937 85.191,561.645 	"/>
</g>
<g>
	<polygon fill="#00386D" points="167.772,540.999 126.482,561.645 167.772,602.937 126.482,602.937 167.772,644.227 
		209.063,602.937 167.772,561.645 188.417,561.645 	"/>
	<polygon fill="#0078BD" points="209.063,561.645 167.772,520.354 126.482,561.645 167.772,602.937 167.772,561.645 	"/>
</g>
<g>
	<polygon fill="#A01F10" points="250.353,540.999 209.063,561.645 250.353,602.937 209.063,602.937 250.353,644.227 
		291.643,602.937 250.353,561.645 270.998,561.645 	"/>
	<polygon fill="#EB5A00" points="291.643,561.645 250.353,520.354 209.063,561.645 250.353,602.937 250.353,561.645 	"/>
</g>
<g>
	<polygon fill="#264A0B" points="332.933,540.999 291.643,561.645 332.933,602.937 291.643,602.937 332.933,644.227 
		374.224,602.937 332.933,561.645 353.578,561.645 	"/>
	<polygon fill="#75971A" points="374.224,561.645 332.933,520.354 291.643,561.645 332.933,602.937 332.933,561.645 	"/>
</g>
<g>
	<polygon fill="#00386D" points="415.515,540.999 374.224,561.645 415.515,602.937 374.224,602.937 415.515,644.227 
		456.807,602.937 415.515,561.645 436.161,561.645 	"/>
	<polygon fill="#0078BD" points="456.807,561.645 415.515,520.354 374.224,561.645 415.515,602.937 415.515,561.645 	"/>
</g>
<g>
	<polygon fill="#A01F10" points="43.902,644.227 2.611,664.872 43.902,706.163 2.611,706.163 43.902,747.453 85.191,706.163 
		43.902,664.872 64.546,664.872 	"/>
	<polygon fill="#EB5A00" points="85.191,664.872 43.902,623.582 2.611,664.872 43.902,706.163 43.902,664.872 	"/>
</g>
<g>
	<polygon fill="#264A0B" points="126.482,644.227 85.191,664.872 126.482,706.163 85.191,706.163 126.482,747.453 167.772,706.163 
		126.482,664.872 147.127,664.872 	"/>
	<polygon fill="#75971A" points="167.772,664.872 126.482,623.582 85.191,664.872 126.482,706.163 126.482,664.872 	"/>
</g>
<g>
	<polygon fill="#00386D" points="209.063,644.227 167.772,664.872 209.063,706.163 167.772,706.163 209.063,747.453 
		250.353,706.163 209.063,664.872 229.708,664.872 	"/>
	<polygon fill="#0078BD" points="250.353,664.872 209.063,623.582 167.772,664.872 209.063,706.163 209.063,664.872 	"/>
</g>
<g>
	<polygon fill="#A01F10" points="291.643,644.227 250.353,664.872 291.643,706.163 250.353,706.163 291.643,747.453 
		332.933,706.163 291.643,664.872 312.288,664.872 	"/>
	<polygon fill="#EB5A00" points="332.933,664.872 291.643,623.582 250.353,664.872 291.643,706.163 291.643,664.872 	"/>
</g>
<g>
	<polygon fill="#264A0B" points="374.224,644.227 332.933,664.872 374.224,706.163 332.933,706.163 374.224,747.453 
		415.515,706.163 374.224,664.872 394.869,664.872 	"/>
	<polygon fill="#75971A" points="415.515,664.872 374.224,623.582 332.933,664.872 374.224,706.163 374.224,664.872 	"/>
</g>
<g>
	<polygon fill="#00386D" points="456.807,644.227 415.515,664.872 456.807,706.163 415.515,706.163 456.807,747.453 
		498.097,706.163 456.807,664.872 477.451,664.872 	"/>
	<polygon fill="#0078BD" points="498.097,664.872 456.807,623.582 415.515,664.872 456.807,706.163 456.807,664.872 	"/>
</g>
<g>
	<polygon fill="#A01F10" points="498.097,540.999 456.807,561.645 498.097,602.937 456.807,602.937 498.097,644.227 
		539.387,602.937 498.097,561.645 518.742,561.645 	"/>
	<polygon fill="#EB5A00" points="539.387,561.645 498.097,520.354 456.807,561.645 498.097,602.937 498.097,561.645 	"/>
</g>
<g>
	<polygon fill="#264A0B" points="580.677,540.999 539.387,561.645 580.677,602.937 539.387,602.937 580.677,644.227 
		621.968,602.937 580.677,561.645 601.322,561.645 	"/>
	<polygon fill="#75971A" points="621.968,561.645 580.677,520.354 539.387,561.645 580.677,602.937 580.677,561.645 	"/>
</g>
<g>
	<polygon fill="#00386D" points="663.258,540.999 621.968,561.645 663.258,602.937 621.968,602.937 663.258,644.227 
		704.547,602.937 663.258,561.645 683.902,561.645 	"/>
	<polygon fill="#0078BD" points="704.547,561.645 663.258,520.354 621.968,561.645 663.258,602.937 663.258,561.645 	"/>
</g>
<g>
	<polygon fill="#A01F10" points="745.838,540.999 704.547,561.645 745.838,602.937 704.547,602.937 745.838,644.227 
		787.128,602.937 745.838,561.645 766.483,561.645 	"/>
	<polygon fill="#EB5A00" points="787.128,561.645 745.838,520.354 704.547,561.645 745.838,602.937 745.838,561.645 	"/>
</g>
<g>
	<polygon fill="#264A0B" points="828.419,540.999 787.128,561.645 828.419,602.937 787.128,602.937 828.419,644.227 
		869.709,602.937 828.419,561.645 849.063,561.645 	"/>
	<polygon fill="#75971A" points="869.709,561.645 828.419,520.354 787.128,561.645 828.419,602.937 828.419,561.645 	"/>
</g>
<g>
	<polygon fill="#00386D" points="911,540.999 869.709,561.645 911,602.937 869.709,602.937 911,644.227 952.29,602.937 911,561.645 
		931.646,561.645 	"/>
	<polygon fill="#0078BD" points="952.29,561.645 911,520.354 869.709,561.645 911,602.937 911,561.645 	"/>
</g>
<g>
	<polygon fill="#A01F10" points="539.387,644.227 498.097,664.872 539.387,706.163 498.097,706.163 539.387,747.453 
		580.677,706.163 539.387,664.872 560.032,664.872 	"/>
	<polygon fill="#EB5A00" points="580.677,664.872 539.387,623.582 498.097,664.872 539.387,706.163 539.387,664.872 	"/>
</g>
<g>
	<polygon fill="#264A0B" points="621.968,644.227 580.677,664.872 621.968,706.163 580.677,706.163 621.968,747.453 
		663.258,706.163 621.968,664.872 642.612,664.872 	"/>
	<polygon fill="#75971A" points="663.258,664.872 621.968,623.582 580.677,664.872 621.968,706.163 621.968,664.872 	"/>
</g>
<g>
	<polygon fill="#00386D" points="704.547,644.227 663.258,664.872 704.547,706.163 663.258,706.163 704.547,747.453 
		745.838,706.163 704.547,664.872 725.192,664.872 	"/>
	<polygon fill="#0078BD" points="745.838,664.872 704.547,623.582 663.258,664.872 704.547,706.163 704.547,664.872 	"/>
</g>
<g>
	<polygon fill="#A01F10" points="787.128,644.227 745.838,664.872 787.128,706.163 745.838,706.163 787.128,747.453 
		828.419,706.163 787.128,664.872 807.773,664.872 	"/>
	<polygon fill="#EB5A00" points="828.419,664.872 787.128,623.582 745.838,664.872 787.128,706.163 787.128,664.872 	"/>
</g>
<g>
	<polygon fill="#264A0B" points="869.709,644.227 828.419,664.872 869.709,706.163 828.419,706.163 869.709,747.453 911,706.163 
		869.709,664.872 890.355,664.872 	"/>
	<polygon fill="#75971A" points="911,664.872 869.709,623.582 828.419,664.872 869.709,706.163 869.709,664.872 	"/>
</g>
<g>
	<polygon fill="#00386D" points="43.902,233.387 2.611,254.032 43.902,295.323 2.611,295.323 43.902,336.613 85.191,295.323 
		43.902,254.032 64.546,254.032 	"/>
	<polygon fill="#0078BD" points="85.191,254.032 43.902,212.742 2.611,254.032 43.902,295.323 43.902,254.032 	"/>
</g>
<g>
	<polygon fill="#A01F10" points="126.482,231.322 85.191,251.967 126.482,293.258 85.191,293.258 126.482,334.548 167.772,293.258 
		126.482,251.967 147.127,251.967 	"/>
	<polygon fill="#EB5A00" points="167.772,251.967 126.482,210.677 85.191,251.967 126.482,293.258 126.482,251.967 	"/>
</g>
<g>
	<polygon fill="#264A0B" points="209.063,231.322 167.772,251.967 209.063,293.258 167.772,293.258 209.063,334.548 
		250.353,293.258 209.063,251.967 229.708,251.967 	"/>
	<polygon fill="#75971A" points="250.353,251.967 209.063,210.677 167.772,251.967 209.063,293.258 209.063,251.967 	"/>
</g>
<g>
	<polygon fill="#00386D" points="291.643,231.322 250.353,251.967 291.643,293.258 250.353,293.258 291.643,334.548 
		332.933,293.258 291.643,251.967 312.288,251.967 	"/>
	<polygon fill="#0078BD" points="332.933,251.967 291.643,210.677 250.353,251.967 291.643,293.258 291.643,251.967 	"/>
</g>
<g>
	<polygon fill="#264A0B" points="2.611,336.613 -38.679,357.258 2.611,398.547 -38.679,398.547 2.611,439.838 43.902,398.547 
		2.611,357.258 23.256,357.258 	"/>
	<polygon fill="#75971A" points="43.902,357.258 2.611,315.968 -38.679,357.258 2.611,398.547 2.611,357.258 	"/>
</g>
<g>
	<polygon fill="#00386D" points="85.191,334.548 43.902,355.192 85.191,396.484 43.902,396.484 85.191,437.773 126.482,396.484 
		85.191,355.192 105.837,355.192 	"/>
	<polygon fill="#0078BD" points="126.482,355.192 85.191,313.903 43.902,355.192 85.191,396.484 85.191,355.192 	"/>
</g>
<g>
	<polygon fill="#A01F10" points="167.772,334.548 126.482,355.192 167.772,396.484 126.482,396.484 167.772,437.773 
		209.063,396.484 167.772,355.192 188.417,355.192 	"/>
	<polygon fill="#EB5A00" points="209.063,355.192 167.772,313.903 126.482,355.192 167.772,396.484 167.772,355.192 	"/>
</g>
<g>
	<polygon fill="#264A0B" points="250.353,334.548 209.063,355.192 250.353,396.484 209.063,396.484 250.353,437.773 
		291.643,396.484 250.353,355.192 270.998,355.192 	"/>
	<polygon fill="#75971A" points="291.643,355.192 250.353,313.903 209.063,355.192 250.353,396.484 250.353,355.192 	"/>
</g>
<g>
	<polygon fill="#00386D" points="332.933,334.548 291.643,355.192 332.933,396.484 291.643,396.484 332.933,437.773 
		374.224,396.484 332.933,355.192 353.578,355.192 	"/>
	<polygon fill="#0078BD" points="374.224,355.192 332.933,313.903 291.643,355.192 332.933,396.484 332.933,355.192 	"/>
</g>
<g>
	<polygon fill="#264A0B" points="43.902,437.773 2.611,458.42 43.902,499.709 2.611,499.709 43.902,540.999 85.191,499.709 
		43.902,458.42 64.546,458.42 	"/>
	<polygon fill="#75971A" points="85.191,458.42 43.902,417.129 2.611,458.42 43.902,499.709 43.902,458.42 	"/>
</g>
<g>
	<polygon fill="#00386D" points="126.482,437.773 85.191,458.42 126.482,499.709 85.191,499.709 126.482,540.999 167.772,499.709 
		126.482,458.42 147.127,458.42 	"/>
	<polygon fill="#0078BD" points="167.772,458.42 126.482,417.129 85.191,458.42 126.482,499.709 126.482,458.42 	"/>
</g>
<g>
	<polygon fill="#A01F10" points="209.063,437.773 167.772,458.42 209.063,499.709 167.772,499.709 209.063,540.999 250.353,499.709 
		209.063,458.42 229.708,458.42 	"/>
	<polygon fill="#EB5A00" points="250.353,458.42 209.063,417.129 167.772,458.42 209.063,499.709 209.063,458.42 	"/>
</g>
<g>
	<polygon fill="#264A0B" points="291.643,437.773 250.353,458.42 291.643,499.709 250.353,499.709 291.643,540.999 332.933,499.709 
		291.643,458.42 312.288,458.42 	"/>
	<polygon fill="#75971A" points="332.933,458.42 291.643,417.129 250.353,458.42 291.643,499.709 291.643,458.42 	"/>
</g>
<g>
	<polygon fill="#00386D" points="374.224,437.773 332.933,458.42 374.224,499.709 332.933,499.709 374.224,540.999 415.515,499.709 
		374.224,458.42 394.869,458.42 	"/>
	<polygon fill="#0078BD" points="415.515,458.42 374.224,417.129 332.933,458.42 374.224,499.709 374.224,458.42 	"/>
</g>
<g>
	<polygon fill="#A01F10" points="374.224,231.322 332.933,251.967 374.224,293.258 332.933,293.258 374.224,334.548 
		415.515,293.258 374.224,251.967 394.869,251.967 	"/>
	<polygon fill="#EB5A00" points="415.515,251.967 374.224,210.677 332.933,251.967 374.224,293.258 374.224,251.967 	"/>
</g>
<g>
	<polygon fill="#264A0B" points="456.807,231.322 415.515,251.967 456.807,293.258 415.515,293.258 456.807,334.548 
		498.097,293.258 456.807,251.967 477.451,251.967 	"/>
	<polygon fill="#75971A" points="498.097,251.967 456.807,210.677 415.515,251.967 456.807,293.258 456.807,251.967 	"/>
</g>
<g>
	<polygon fill="#00386D" points="539.387,231.322 498.097,251.967 539.387,293.258 498.097,293.258 539.387,334.548 
		580.677,293.258 539.387,251.967 560.032,251.967 	"/>
	<polygon fill="#0078BD" points="580.677,251.967 539.387,210.677 498.097,251.967 539.387,293.258 539.387,251.967 	"/>
</g>
<g>
	<polygon fill="#A01F10" points="621.968,231.322 580.677,251.967 621.968,293.258 580.677,293.258 621.968,334.548 
		663.258,293.258 621.968,251.967 642.612,251.967 	"/>
	<polygon fill="#EB5A00" points="663.258,251.967 621.968,210.677 580.677,251.967 621.968,293.258 621.968,251.967 	"/>
</g>
<g>
	<polygon fill="#264A0B" points="704.547,231.322 663.258,251.967 704.547,293.258 663.258,293.258 704.547,334.548 
		745.838,293.258 704.547,251.967 725.192,251.967 	"/>
	<polygon fill="#75971A" points="745.838,251.967 704.547,210.677 663.258,251.967 704.547,293.258 704.547,251.967 	"/>
</g>
<g>
	<polygon fill="#00386D" points="787.128,231.322 745.838,251.967 787.128,293.258 745.838,293.258 787.128,334.548 
		828.419,293.258 787.128,251.967 807.773,251.967 	"/>
	<polygon fill="#0078BD" points="828.419,251.967 787.128,210.677 745.838,251.967 787.128,293.258 787.128,251.967 	"/>
</g>
<g>
	<polygon fill="#A01F10" points="415.515,334.548 374.224,355.192 415.515,396.484 374.224,396.484 415.515,437.773 
		456.807,396.484 415.515,355.192 436.161,355.192 	"/>
	<polygon fill="#EB5A00" points="456.807,355.192 415.515,313.903 374.224,355.192 415.515,396.484 415.515,355.192 	"/>
</g>
<g>
	<polygon fill="#264A0B" points="498.097,334.548 456.807,355.192 498.097,396.484 456.807,396.484 498.097,437.773 
		539.387,396.484 498.097,355.192 518.742,355.192 	"/>
	<polygon fill="#75971A" points="539.387,355.192 498.097,313.903 456.807,355.192 498.097,396.484 498.097,355.192 	"/>
</g>
<g>
	<polygon fill="#00386D" points="580.677,334.548 539.387,355.192 580.677,396.484 539.387,396.484 580.677,437.773 
		621.968,396.484 580.677,355.192 601.322,355.192 	"/>
	<polygon fill="#0078BD" points="621.968,355.192 580.677,313.903 539.387,355.192 580.677,396.484 580.677,355.192 	"/>
</g>
<g>
	<polygon fill="#A01F10" points="663.258,334.548 621.968,355.192 663.258,396.484 621.968,396.484 663.258,437.773 
		704.547,396.484 663.258,355.192 683.902,355.192 	"/>
	<polygon fill="#EB5A00" points="704.547,355.192 663.258,313.903 621.968,355.192 663.258,396.484 663.258,355.192 	"/>
</g>
<g>
	<polygon fill="#264A0B" points="745.838,334.548 704.547,355.192 745.838,396.484 704.547,396.484 745.838,437.773 
		787.128,396.484 745.838,355.192 766.483,355.192 	"/>
	<polygon fill="#75971A" points="787.128,355.192 745.838,313.903 704.547,355.192 745.838,396.484 745.838,355.192 	"/>
</g>
<g>
	<polygon fill="#00386D" points="828.419,334.548 787.128,355.192 828.419,396.484 787.128,396.484 828.419,437.773 
		869.709,396.484 828.419,355.192 849.063,355.192 	"/>
	<polygon fill="#0078BD" points="869.709,355.192 828.419,313.903 787.128,355.192 828.419,396.484 828.419,355.192 	"/>
</g>
<g>
	<polygon fill="#A01F10" points="456.807,437.773 415.515,458.42 456.807,499.709 415.515,499.709 456.807,540.999 498.097,499.709 
		456.807,458.42 477.451,458.42 	"/>
	<polygon fill="#EB5A00" points="498.097,458.42 456.807,417.129 415.515,458.42 456.807,499.709 456.807,458.42 	"/>
</g>
<g>
	<polygon fill="#264A0B" points="539.387,437.773 498.097,458.42 539.387,499.709 498.097,499.709 539.387,540.999 580.677,499.709 
		539.387,458.42 560.032,458.42 	"/>
	<polygon fill="#75971A" points="580.677,458.42 539.387,417.129 498.097,458.42 539.387,499.709 539.387,458.42 	"/>
</g>
<g>
	<polygon fill="#00386D" points="621.968,437.773 580.677,458.42 621.968,499.709 580.677,499.709 621.968,540.999 663.258,499.709 
		621.968,458.42 642.612,458.42 	"/>
	<polygon fill="#0078BD" points="663.258,458.42 621.968,417.129 580.677,458.42 621.968,499.709 621.968,458.42 	"/>
</g>
<g>
	<polygon fill="#A01F10" points="704.547,439.838 663.258,460.482 704.547,501.773 663.258,501.773 704.547,543.064 
		745.838,501.773 704.547,460.482 725.192,460.482 	"/>
	<polygon fill="#EB5A00" points="745.838,460.482 704.547,419.192 663.258,460.482 704.547,501.773 704.547,460.482 	"/>
</g>
<g>
	<polygon fill="#264A0B" points="787.128,439.838 745.838,460.482 787.128,501.773 745.838,501.773 787.128,543.064 
		828.419,501.773 787.128,460.482 807.773,460.482 	"/>
	<polygon fill="#75971A" points="828.419,460.482 787.128,419.192 745.838,460.482 787.128,501.773 787.128,460.482 	"/>
</g>
<g>
	<polygon fill="#00386D" points="869.709,437.773 828.419,458.42 869.709,499.709 828.419,499.709 869.709,540.999 911,499.709 
		869.709,458.42 890.355,458.42 	"/>
	<polygon fill="#0078BD" points="911,458.42 869.709,417.129 828.419,458.42 869.709,499.709 869.709,458.42 	"/>
</g>
<g>
	<polygon fill="#A01F10" points="2.611,-78.355 -38.679,-57.71 2.611,-16.419 -38.679,-16.419 2.611,24.871 43.902,-16.419 
		2.611,-57.71 23.256,-57.71 	"/>
</g>
<g>
	<polygon fill="#264A0B" points="85.191,-78.355 43.902,-57.71 85.191,-16.419 43.902,-16.419 85.191,24.871 126.482,-16.419 
		85.191,-57.71 105.837,-57.71 	"/>
</g>
<g>
	<polygon fill="#00386D" points="167.772,-78.355 126.482,-57.71 167.772,-16.419 126.482,-16.419 167.772,24.871 209.063,-16.419 
		167.772,-57.71 188.417,-57.71 	"/>
</g>
<g>
	<polygon fill="#A01F10" points="43.902,24.871 2.611,45.516 43.902,86.806 2.611,86.806 43.902,128.096 85.191,86.806 
		43.902,45.516 64.546,45.516 	"/>
	<polygon fill="#EB5A00" points="85.191,45.516 43.902,4.226 2.611,45.516 43.902,86.806 43.902,45.516 	"/>
</g>
<g>
	<polygon fill="#264A0B" points="126.482,24.871 85.191,45.516 126.482,86.806 85.191,86.806 126.482,128.096 167.772,86.806 
		126.482,45.516 147.127,45.516 	"/>
	<polygon fill="#75971A" points="167.772,45.516 126.482,4.226 85.191,45.516 126.482,86.806 126.482,45.516 	"/>
</g>
<g>
	<polygon fill="#00386D" points="209.063,24.871 167.772,45.516 209.063,86.806 167.772,86.806 209.063,128.096 250.353,86.806 
		209.063,45.516 229.708,45.516 	"/>
	<polygon fill="#0078BD" points="250.353,45.516 209.063,4.226 167.772,45.516 209.063,86.806 209.063,45.516 	"/>
</g>
<g>
	<polygon fill="#00386D" points="2.611,128.096 -38.679,148.742 2.611,190.032 -38.679,190.032 2.611,231.322 43.902,190.032 
		2.611,148.742 23.256,148.742 	"/>
	<polygon fill="#0078BD" points="43.902,148.742 2.611,107.451 -38.679,148.742 2.611,190.032 2.611,148.742 	"/>
</g>
<g>
	<polygon fill="#A01F10" points="85.191,128.096 43.902,148.742 85.191,190.032 43.902,190.032 85.191,231.322 126.482,190.032 
		85.191,148.742 105.837,148.742 	"/>
	<polygon fill="#EB5A00" points="126.482,148.742 85.191,107.451 43.902,148.742 85.191,190.032 85.191,148.742 	"/>
</g>
<g>
	<polygon fill="#264A0B" points="167.772,128.096 126.482,148.742 167.772,190.032 126.482,190.032 167.772,231.322 
		209.063,190.032 167.772,148.742 188.417,148.742 	"/>
	<polygon fill="#75971A" points="209.063,148.742 167.772,107.451 126.482,148.742 167.772,190.032 167.772,148.742 	"/>
</g>
<g>
	<polygon fill="#00386D" points="250.353,128.096 209.063,148.742 250.353,190.032 209.063,190.032 250.353,231.322 
		291.643,190.032 250.353,148.742 270.998,148.742 	"/>
	<polygon fill="#0078BD" points="291.643,148.742 250.353,107.451 209.063,148.742 250.353,190.032 250.353,148.742 	"/>
</g>
<g>
	<polygon fill="#A01F10" points="250.353,-78.355 209.063,-57.71 250.353,-16.419 209.063,-16.419 250.353,24.871 291.643,-16.419 
		250.353,-57.71 270.998,-57.71 	"/>
</g>
<g>
	<polygon fill="#264A0B" points="332.933,-78.355 291.643,-57.71 332.933,-16.419 291.643,-16.419 332.933,24.871 374.224,-16.419 
		332.933,-57.71 353.578,-57.71 	"/>
</g>
<g>
	<polygon fill="#00386D" points="415.515,-78.355 374.224,-57.71 415.515,-16.419 374.224,-16.419 415.515,24.871 456.807,-16.419 
		415.515,-57.71 436.161,-57.71 	"/>
</g>
<g>
	<polygon fill="#A01F10" points="498.097,-78.355 456.807,-57.71 498.097,-16.419 456.807,-16.419 498.097,24.871 539.387,-16.419 
		498.097,-57.71 518.742,-57.71 	"/>
</g>
<g>
	<polygon fill="#264A0B" points="580.677,-78.355 539.387,-57.71 580.677,-16.419 539.387,-16.419 580.677,24.871 621.968,-16.419 
		580.677,-57.71 601.322,-57.71 	"/>
</g>
<g>
	<polygon fill="#00386D" points="663.258,-78.355 621.968,-57.71 663.258,-16.419 621.968,-16.419 663.258,24.871 704.547,-16.419 
		663.258,-57.71 683.902,-57.71 	"/>
</g>
<g>
	<polygon fill="#A01F10" points="291.643,24.871 250.353,45.516 291.643,86.806 250.353,86.806 291.643,128.096 332.933,86.806 
		291.643,45.516 312.288,45.516 	"/>
	<polygon fill="#EB5A00" points="332.933,45.516 291.643,4.226 250.353,45.516 291.643,86.806 291.643,45.516 	"/>
</g>
<g>
	<polygon fill="#264A0B" points="374.224,24.871 332.933,45.516 374.224,86.806 332.933,86.806 374.224,128.096 415.515,86.806 
		374.224,45.516 394.869,45.516 	"/>
	<polygon fill="#75971A" points="415.515,45.516 374.224,4.226 332.933,45.516 374.224,86.806 374.224,45.516 	"/>
</g>
<g>
	<polygon fill="#00386D" points="456.807,24.871 415.515,45.516 456.807,86.806 415.515,86.806 456.807,128.096 498.097,86.806 
		456.807,45.516 477.451,45.516 	"/>
	<polygon fill="#0078BD" points="498.097,45.516 456.807,4.226 415.515,45.516 456.807,86.806 456.807,45.516 	"/>
</g>
<g>
	<polygon fill="#A01F10" points="539.387,24.871 498.097,45.516 539.387,86.806 498.097,86.806 539.387,128.096 580.677,86.806 
		539.387,45.516 560.032,45.516 	"/>
	<polygon fill="#EB5A00" points="580.677,45.516 539.387,4.226 498.097,45.516 539.387,86.806 539.387,45.516 	"/>
</g>
<g>
	<polygon fill="#264A0B" points="621.968,24.871 580.677,45.516 621.968,86.806 580.677,86.806 621.968,128.096 663.258,86.806 
		621.968,45.516 642.612,45.516 	"/>
	<polygon fill="#75971A" points="663.258,45.516 621.968,4.226 580.677,45.516 621.968,86.806 621.968,45.516 	"/>
</g>
<g>
	<polygon fill="#00386D" points="704.547,24.871 663.258,45.516 704.547,86.806 663.258,86.806 704.547,128.096 745.838,86.806 
		704.547,45.516 725.192,45.516 	"/>
	<polygon fill="#0078BD" points="745.838,45.516 704.547,4.226 663.258,45.516 704.547,86.806 704.547,45.516 	"/>
</g>
<g>
	<polygon fill="#A01F10" points="332.933,128.096 291.643,148.742 332.933,190.032 291.643,190.032 332.933,231.322 
		374.224,190.032 332.933,148.742 353.578,148.742 	"/>
	<polygon fill="#EB5A00" points="374.224,148.742 332.933,107.451 291.643,148.742 332.933,190.032 332.933,148.742 	"/>
</g>
<g>
	<polygon fill="#264A0B" points="415.515,128.096 374.224,148.742 415.515,190.032 374.224,190.032 415.515,231.322 
		456.807,190.032 415.515,148.742 436.161,148.742 	"/>
	<polygon fill="#75971A" points="456.807,148.742 415.515,107.451 374.224,148.742 415.515,190.032 415.515,148.742 	"/>
</g>
<g>
	<polygon fill="#00386D" points="498.097,128.096 456.807,148.742 498.097,190.032 456.807,190.032 498.097,231.322 
		539.387,190.032 498.097,148.742 518.742,148.742 	"/>
	<polygon fill="#0078BD" points="539.387,148.742 498.097,107.451 456.807,148.742 498.097,190.032 498.097,148.742 	"/>
</g>
<g>
	<polygon fill="#A01F10" points="580.677,128.096 539.387,148.742 580.677,190.032 539.387,190.032 580.677,231.322 
		621.968,190.032 580.677,148.742 601.322,148.742 	"/>
	<polygon fill="#EB5A00" points="621.968,148.742 580.677,107.451 539.387,148.742 580.677,190.032 580.677,148.742 	"/>
</g>
<g>
	<polygon fill="#264A0B" points="663.258,128.096 621.968,148.742 663.258,190.032 621.968,190.032 663.258,231.322 
		704.547,190.032 663.258,148.742 683.902,148.742 	"/>
	<polygon fill="#75971A" points="704.547,148.742 663.258,107.451 621.968,148.742 663.258,190.032 663.258,148.742 	"/>
</g>
<g>
	<polygon fill="#00386D" points="745.838,128.096 704.547,148.742 745.838,190.032 704.547,190.032 745.838,231.322 
		787.128,190.032 745.838,148.742 766.483,148.742 	"/>
	<polygon fill="#0078BD" points="787.128,148.742 745.838,107.451 704.547,148.742 745.838,190.032 745.838,148.742 	"/>
</g>
<g>
	<polygon fill="#A01F10" points="745.838,-78.355 704.547,-57.71 745.838,-16.419 704.547,-16.419 745.838,24.871 787.128,-16.419 
		745.838,-57.71 766.483,-57.71 	"/>
</g>
<g>
	<polygon fill="#264A0B" points="828.419,-78.355 787.128,-57.71 828.419,-16.419 787.128,-16.419 828.419,24.871 869.709,-16.419 
		828.419,-57.71 849.063,-57.71 	"/>
</g>
<g>
	<polygon fill="#00386D" points="911,-78.355 869.709,-57.71 911,-16.419 869.709,-16.419 911,24.871 952.29,-16.419 911,-57.71 
		931.646,-57.71 	"/>
</g>
<g>
	<polygon fill="#A01F10" points="787.128,24.871 745.838,45.516 787.128,86.806 745.838,86.806 787.128,128.096 828.419,86.806 
		787.128,45.516 807.773,45.516 	"/>
	<polygon fill="#EB5A00" points="828.419,45.516 787.128,4.226 745.838,45.516 787.128,86.806 787.128,45.516 	"/>
</g>
<g>
	<polygon fill="#264A0B" points="869.709,24.871 828.419,45.516 869.709,86.806 828.419,86.806 869.709,128.096 911,86.806 
		869.709,45.516 890.355,45.516 	"/>
	<polygon fill="#75971A" points="911,45.516 869.709,4.226 828.419,45.516 869.709,86.806 869.709,45.516 	"/>
</g>
<g>
	<polygon fill="#A01F10" points="828.419,128.096 787.128,148.742 828.419,190.032 787.128,190.032 828.419,231.322 
		869.709,190.032 828.419,148.742 849.063,148.742 	"/>
	<polygon fill="#EB5A00" points="869.709,148.742 828.419,107.451 787.128,148.742 828.419,190.032 828.419,148.742 	"/>
</g>
<g>
	<polygon fill="#264A0B" points="911,128.096 869.709,148.742 911,190.032 869.709,190.032 911,231.322 952.29,190.032 911,148.742 
		931.646,148.742 	"/>
	<polygon fill="#75971A" points="952.29,148.742 911,107.451 869.709,148.742 911,190.032 911,148.742 	"/>
</g>
<g>
	<polygon fill="#A01F10" points="869.709,231.322 828.419,251.967 869.709,293.258 828.419,293.258 869.709,334.548 911,293.258 
		869.709,251.967 890.355,251.967 	"/>
	<polygon fill="#EB5A00" points="911,251.967 869.709,210.677 828.419,251.967 869.709,293.258 869.709,251.967 	"/>
</g>
<g>
	<polygon fill="#A01F10" points="911,334.548 869.709,355.192 911,396.484 869.709,396.484 911,437.773 952.29,396.484 911,355.192 
		931.646,355.192 	"/>
	<polygon fill="#EB5A00" points="952.29,355.192 911,313.903 869.709,355.192 911,396.484 911,355.192 	"/>
</g>
</svg>
