<?xml version="1.0" encoding="utf-8"?>
<!-- Generator: Adobe Illustrator 16.0.0, SVG Export Plug-In . SVG Version: 6.00 Build 0)  -->
<!DOCTYPE svg PUBLIC "-//W3C//DTD SVG 1.1//EN" "http://www.w3.org/Graphics/SVG/1.1/DTD/svg11.dtd">
<svg version="1.1" id="Layer_1" xmlns="http://www.w3.org/2000/svg" xmlns:xlink="http://www.w3.org/1999/xlink" x="0px" y="0px"
	 width="1140px" height="500px" viewBox="0 0 1140 500" enable-background="new 0 0 1140 500" xml:space="preserve">
<g>
	<polygon fill="#00386D" points="408.929,240.031 408.929,292.555 426.437,310.063 443.945,310.063 426.437,240.031 	"/>
	<polygon fill="#264A0B" points="513.975,240.031 513.975,292.555 496.467,310.063 478.958,310.063 496.467,240.031 	"/>
	
		<rect x="412.43" y="213.769" transform="matrix(-0.7071 0.7071 -0.7071 -0.7071 876.3594 82.0759)" fill="#0078BD" width="17.505" height="17.508"/>
	
		<rect x="452.573" y="173.624" transform="matrix(-0.7071 0.7071 -0.7071 -0.7071 916.494 -14.8674)" fill="#EB5A00" width="17.506" height="17.508"/>
	
		<rect x="492.717" y="213.77" transform="matrix(-0.7071 0.7071 -0.7071 -0.7071 1013.4102 25.2786)" fill="#75971A" width="17.506" height="17.508"/>
	<polygon fill="#A01F10" points="470.205,310.063 487.713,205.016 435.189,205.016 452.697,310.063 	"/>
	<polygon fill="#0078BD" points="408.927,240.031 408.927,283.801 426.435,257.539 461.451,266.293 426.435,240.031 	"/>
	<polygon fill="#75971A" points="513.975,283.801 513.975,240.031 496.467,266.293 461.451,257.539 496.467,283.801 	"/>
	<polygon fill="#EB5A00" points="435.189,205.016 461.451,205.016 487.713,205.016 461.451,222.523 461.451,248.785 	"/>
	<g>
		<path fill="#2A292D" d="M569.117,236.81c0,1.891-0.18,3.593-0.538,5.105c-0.358,1.513-0.948,2.816-1.771,3.909
			c-0.821,1.092-1.886,1.932-3.192,2.52c-1.307,0.588-2.931,0.882-4.868,0.882c-1.771,0-3.309-0.251-4.615-0.756
			c-1.308-0.504-2.382-1.207-3.225-2.111c-0.843-0.903-1.465-1.964-1.865-3.184c-0.401-1.217-0.601-2.542-0.601-3.97l4.979-1.009
			c0,0.841,0.084,1.629,0.251,2.364c0.167,0.736,0.451,1.398,0.852,1.986c0.398,0.588,0.945,1.05,1.638,1.387
			c0.694,0.337,1.545,0.504,2.553,0.504c1.261,0,2.259-0.2,2.995-0.599c0.734-0.399,1.282-0.946,1.639-1.639
			c0.355-0.693,0.577-1.502,0.661-2.426c0.084-0.924,0.127-1.891,0.127-2.899c0-1.302-0.063-2.364-0.19-3.183
			s-0.4-1.533-0.819-2.143c-0.421-0.609-1.019-1.145-1.797-1.607c-0.778-0.462-1.817-0.966-3.12-1.513
			c-2.06-0.883-3.709-1.775-4.948-2.679c-1.24-0.903-2.196-1.849-2.868-2.836c-0.672-0.987-1.113-2.038-1.324-3.151
			c-0.21-1.113-0.314-2.342-0.314-3.688c0-1.68,0.21-3.224,0.632-4.632c0.421-1.407,1.064-2.625,1.929-3.655
			c0.863-1.029,1.948-1.828,3.256-2.395c1.306-0.568,2.823-0.851,4.552-0.851c1.897,0,3.487,0.294,4.774,0.882
			c1.285,0.589,2.317,1.355,3.097,2.3c0.779,0.945,1.328,1.985,1.643,3.12c0.316,1.135,0.475,2.249,0.475,3.341l-4.979,1.26
			c0-1.975-0.4-3.498-1.199-4.57c-0.798-1.071-2.165-1.607-4.097-1.607c-1.092,0-1.964,0.21-2.616,0.63
			c-0.651,0.42-1.166,0.956-1.544,1.607c-0.378,0.652-0.63,1.377-0.756,2.175c-0.126,0.799-0.189,1.575-0.189,2.332
			c0,0.924,0.052,1.733,0.157,2.426c0.106,0.693,0.39,1.345,0.854,1.954c0.464,0.609,1.15,1.208,2.057,1.796
			c0.907,0.588,2.183,1.197,3.83,1.828c1.899,0.756,3.406,1.544,4.526,2.363c1.117,0.819,1.971,1.733,2.562,2.742
			c0.591,1.008,0.97,2.143,1.14,3.403C569.032,233.785,569.117,235.214,569.117,236.81z"/>
		<path fill="#2A292D" d="M596.282,237c0,2.899-0.4,5.273-1.196,7.122l3.528,2.836l-2.458,3.026l-3.403-2.711
			c-1.64,1.303-3.824,1.954-6.555,1.954c-3.614,0-6.199-0.987-7.754-2.961c-1.554-1.975-2.332-4.581-2.332-7.816v-21.619
			c0-1.554,0.137-3.067,0.41-4.538c0.273-1.471,0.778-2.783,1.514-3.939c0.735-1.155,1.754-2.08,3.057-2.773
			c1.301-0.693,3.004-1.04,5.105-1.04c2.184,0,3.939,0.305,5.263,0.914c1.323,0.61,2.342,1.461,3.057,2.553
			c0.713,1.093,1.187,2.375,1.418,3.845c0.23,1.472,0.347,3.088,0.347,4.854V237z M591.304,215.934c0-0.754-0.054-1.529-0.157-2.327
			c-0.106-0.797-0.327-1.521-0.664-2.171c-0.336-0.65-0.85-1.194-1.544-1.635c-0.692-0.44-1.606-0.661-2.74-0.661
			c-1.262,0-2.228,0.304-2.899,0.911c-0.672,0.607-1.177,1.33-1.514,2.167c-0.337,0.837-0.535,1.728-0.599,2.669
			c-0.062,0.943-0.094,1.728-0.094,2.356v21.228c0,0.628,0.063,1.299,0.188,2.01c0.126,0.712,0.379,1.382,0.757,2.01
			s0.893,1.141,1.544,1.538c0.651,0.398,1.501,0.597,2.553,0.597c1.093,0,1.975-0.188,2.646-0.567l-3.719-3.088l2.459-2.962
			l3.404,2.773c0.251-0.922,0.378-1.971,0.378-3.146V215.934z"/>
		<path fill="#2A292D" d="M624.134,204.981V237c0,3.908-0.757,6.923-2.269,9.045c-1.513,2.122-4.119,3.182-7.815,3.182
			c-3.614,0-6.199-0.987-7.754-2.961c-1.554-1.975-2.332-4.581-2.332-7.816v-33.468h4.98v33.478c0,0.629,0.062,1.301,0.188,2.014
			c0.127,0.712,0.378,1.384,0.758,2.014c0.377,0.629,0.891,1.144,1.543,1.541c0.65,0.399,1.502,0.598,2.553,0.598
			c1.05,0,1.912-0.209,2.584-0.629c0.672-0.418,1.198-0.954,1.576-1.604s0.64-1.396,0.788-2.235c0.146-0.839,0.221-1.699,0.221-2.58
			v-32.597H624.134z"/>
		<path fill="#2A292D" d="M648.967,248.785l-2.018-9.769h-9.768l-1.955,9.769h-4.79l9.328-43.867h4.664l9.455,43.867H648.967z
			 M641.907,213.931l-1.828,10.21L638,234.416h8.066l-2.142-10.4l-1.765-10.084H641.907z"/>
		<path fill="#2A292D" d="M670.572,204.918c2.596,0,4.647,0.452,6.157,1.355c1.508,0.904,2.555,2.426,3.141,4.569
			c0.462,1.765,0.692,3.951,0.692,6.556c0,2.605,0,5.735,0,9.391c0,3.614,0,6.671,0,9.17c0,2.5-0.273,4.612-0.817,6.334
			c-0.796,2.481-2.063,4.182-3.802,5.105c-1.737,0.925-3.718,1.386-5.937,1.386h-9.614v-43.867H670.572z M675.582,215.873
			c0-1.971-0.42-3.522-1.26-4.655c-0.842-1.132-2.332-1.699-4.475-1.699h-4.477v34.666h4.477c2.059,0,3.529-0.566,4.411-1.699
			s1.323-2.747,1.323-4.844V215.873z"/>
	</g>
	<g>
		<path fill="#2A292D" d="M549.019,310.063v-43.867h4.979v43.867H549.019z"/>
		<path fill="#2A292D" d="M566.898,280.062v30.001h-4.979v-43.867h4.727l9.076,22.249l3.026,8.005l0.251-0.063v-30.191h4.979v43.867
			h-4.664l-9.076-22.06l-3.151-7.941H566.898z"/>
		<path fill="#2A292D" d="M615.997,270.797v39.266h-4.979v-39.266h-7.438v-4.601h19.854v4.601H615.997z"/>
		<path fill="#2A292D" d="M649.225,298.277c0,3.907-0.766,6.923-2.3,9.045c-1.535,2.122-4.151,3.182-7.848,3.182
			c-3.614,0-6.188-0.986-7.721-2.961c-1.534-1.975-2.3-4.58-2.3-7.816v-21.619c0-1.554,0.135-3.066,0.408-4.538
			c0.273-1.47,0.778-2.783,1.514-3.939c0.734-1.156,1.754-2.08,3.057-2.773c1.301-0.693,3.004-1.04,5.105-1.04
			c2.186,0,3.939,0.304,5.263,0.913c1.323,0.61,2.343,1.461,3.057,2.553c0.715,1.093,1.187,2.375,1.418,3.845
			c0.23,1.471,0.347,3.088,0.347,4.853V298.277z M644.246,277.201c0-0.752-0.053-1.528-0.157-2.323
			c-0.106-0.796-0.327-1.519-0.662-2.167c-0.337-0.649-0.852-1.194-1.544-1.633c-0.694-0.439-1.607-0.66-2.742-0.66
			c-1.26,0-2.228,0.304-2.899,0.91c-0.672,0.607-1.177,1.33-1.514,2.167c-0.335,0.837-0.535,1.727-0.599,2.668
			c-0.062,0.942-0.094,1.727-0.094,2.355v21.228c0,0.629,0.063,1.299,0.189,2.01c0.125,0.711,0.378,1.382,0.756,2.01
			c0.378,0.628,0.893,1.14,1.544,1.538c0.651,0.398,1.503,0.597,2.553,0.597s1.911-0.208,2.585-0.627
			c0.671-0.418,1.197-0.952,1.575-1.6c0.378-0.65,0.641-1.394,0.788-2.229c0.146-0.838,0.221-1.696,0.221-2.577V277.201z"/>
		<path fill="#2A292D" d="M676.932,266.259v32.019c0,3.907-0.756,6.923-2.27,9.045c-1.513,2.122-4.118,3.182-7.815,3.182
			c-3.614,0-6.199-0.986-7.752-2.961c-1.556-1.975-2.332-4.58-2.332-7.816v-33.468h4.979v33.477c0,0.63,0.062,1.301,0.188,2.014
			c0.127,0.713,0.38,1.385,0.758,2.014c0.378,0.629,0.893,1.144,1.544,1.541c0.651,0.399,1.501,0.598,2.553,0.598
			c1.05,0,1.911-0.209,2.583-0.629c0.672-0.419,1.198-0.954,1.576-1.604c0.378-0.649,0.64-1.395,0.788-2.234
			c0.147-0.84,0.221-1.7,0.221-2.58v-32.597H676.932z"/>
		<path fill="#2A292D" d="M694.321,265.818c3.402,0,5.871,0.924,7.404,2.773c1.534,1.849,2.302,4.265,2.302,7.248l-4.98,0.882
			c0.043-1.932-0.305-3.465-1.039-4.601c-0.735-1.135-1.985-1.701-3.75-1.701c-1.009,0-1.828,0.23-2.459,0.692
			c-0.631,0.463-1.125,1.041-1.48,1.733c-0.357,0.693-0.599,1.46-0.725,2.301c-0.127,0.841-0.189,1.639-0.189,2.395v22.124
			c0,0.629,0.062,1.313,0.189,2.048c0.126,0.735,0.367,1.408,0.725,2.017c0.355,0.609,0.84,1.124,1.45,1.544
			c0.608,0.42,1.417,0.63,2.426,0.63c1.638,0,2.847-0.504,3.625-1.512c0.776-1.008,1.187-2.605,1.228-4.79l5.105,0.882
			c-0.084,3.151-0.936,5.61-2.553,7.375c-1.617,1.764-4.044,2.646-7.278,2.646c-3.32,0-5.8-0.923-7.438-2.773
			c-1.64-1.848-2.459-4.453-2.459-7.815v-21.682c0-1.554,0.136-3.077,0.41-4.57c0.272-1.491,0.767-2.814,1.481-3.97
			s1.722-2.09,3.024-2.805C690.644,266.175,692.304,265.818,694.321,265.818z"/>
		<path fill="#2A292D" d="M726.218,310.063v-20.231h-10.21v20.231h-4.979v-43.867h4.979v19.286h10.21v-19.286h4.979v43.867H726.218z
			"/>
	</g>
</g>
</svg>
