<?xml version="1.0" encoding="utf-8"?>
<!-- Generator: Adobe Illustrator 16.0.0, SVG Export Plug-In . SVG Version: 6.00 Build 0)  -->
<!DOCTYPE svg PUBLIC "-//W3C//DTD SVG 1.1//EN" "http://www.w3.org/Graphics/SVG/1.1/DTD/svg11.dtd">
<svg version="1.1" id="Layer_1" xmlns="http://www.w3.org/2000/svg" xmlns:xlink="http://www.w3.org/1999/xlink" x="0px" y="0px"
	 width="1140px" height="370px" viewBox="0 0 1140 370" enable-background="new 0 0 1140 370" xml:space="preserve">
<rect fill="#FFFFFF" width="1140" height="370"/>
<g>
	<g>
		<defs>
			<rect id="SVGID_1_" x="310.325" y="126" width="519.35" height="118"/>
		</defs>
		<clipPath id="SVGID_2_">
			<use xlink:href="#SVGID_1_"  overflow="visible"/>
		</clipPath>
		<g clip-path="url(#SVGID_2_)">
			<defs>
				<rect id="SVGID_3_" x="247.044" y="62.719" width="661.754" height="244.561"/>
			</defs>
			<clipPath id="SVGID_4_">
				<use xlink:href="#SVGID_3_"  overflow="visible"/>
			</clipPath>
			<path clip-path="url(#SVGID_4_)" fill="#FFBE00" d="M425.243,179.885c-2.69-2.691-7.336-7.336-12.761-12.761v-18.088
				c0-4.459-2.877-7.193-7.235-7.193h-18.046c-6.769-6.769-11.91-11.91-12.791-12.79c-3.051-3.052-7.12-3.052-10.172,0
				c-2.694,2.694-7.352,7.352-12.79,12.79H333.36c-4.316,0-7.193,2.878-7.193,7.193v18.088c-6.77,6.77-11.911,11.911-12.79,12.791
				c-3.052,3.052-3.052,7.12-0.03,10.143c2.704,2.704,7.372,7.372,12.82,12.82v18.088c0,4.316,2.877,7.193,7.15,7.193h18.131
				c6.714,6.713,11.822,11.823,12.761,12.761c2.361,2.361,7.15,3.081,10.201,0.03c0.811-0.812,6.005-6.006,12.791-12.791h18.046
				c3.341,0,7.235-2.877,7.235-7.193v-18.088c6.786-6.786,11.98-11.981,12.79-12.79
				C428.426,186.933,428.325,182.966,425.243,179.885 M398.097,206.579c0,4.315-2.877,7.193-7.235,7.193h-43.157
				c-4.274,0-7.151-2.878-7.151-7.193v-43.158c0-4.316,2.877-7.193,7.151-7.193c3.408,0,28.771,0,43.157,0
				c4.358,0,7.235,2.877,7.235,7.193V206.579z"/>
			<rect x="365.729" y="167.018" clip-path="url(#SVGID_4_)" fill="#FFBE00" width="7.193" height="14.386"/>
			<rect x="351.342" y="192.193" clip-path="url(#SVGID_4_)" fill="#FFBE00" width="10.789" height="7.192"/>
			<rect x="376.518" y="192.193" clip-path="url(#SVGID_4_)" fill="#FFBE00" width="10.789" height="7.192"/>
			<path clip-path="url(#SVGID_4_)" fill="#191919" d="M462.951,213.266v-9.877c4.49,1.887,9.473,3.929,16.194,3.929
				c4.884,0,10.008-1.985,10.008-7.665c0-1.607-0.464-3.06-1.392-4.356c-0.928-1.271-3.196-2.919-6.805-4.941l-3.883-2.143
				c-5.545-3.087-9.298-5.938-11.259-8.558c-1.988-2.62-2.982-5.653-2.982-9.104c0-4.33,1.656-8.038,4.968-11.125
				c3.312-3.085,9.419-4.63,17.235-4.63c4.634,0,9.858,0.661,15.669,1.983v9.216c-5.948-2.204-11.401-3.869-16.437-3.341
				c-2.021,0.212-6.617,1.486-6.617,6.455c0,1.349,0.463,2.607,1.389,3.774c0.898,1.167,3.151,2.763,6.761,4.785l4.158,2.296
				c6.356,3.555,14.752,7.627,14.752,18.152c0,4.715-1.8,8.741-5.396,12.084c-3.596,3.34-12.278,5.012-20.124,5.012
				C474.536,215.211,469.122,214.561,462.951,213.266"/>
			<path clip-path="url(#SVGID_4_)" fill="#191919" d="M515.352,156.234h14.936v35.288c0,6.381,1.081,10.608,3.246,12.683
				c2.164,2.075,4.971,3.112,8.417,3.112c3.395,0,6.097-1.022,8.105-3.072c2.009-2.049,3.013-6.005,3.013-11.868v-36.143h13.381
				v35.338c0,6.663-0.838,11.438-2.509,14.326c-1.671,2.892-4.089,5.166-7.251,6.823c-3.162,1.658-10.126,2.488-14.973,2.488
				c-4.77,0-11.824-0.771-15.246-2.312c-3.421-1.543-6.129-3.835-8.124-6.882c-1.997-3.046-2.995-7.898-2.995-14.558V156.234z"/>
			<polygon clip-path="url(#SVGID_4_)" fill="#191919" points="579.938,213.772 579.938,156.234 596.414,156.234 623.023,195.537 
				623.023,156.234 635.588,156.234 635.588,213.772 619.5,213.772 592.501,173.893 592.501,213.772 			"/>
			<path clip-path="url(#SVGID_4_)" fill="#191919" d="M655.804,213.772h-4.14v-57.5h19.668c10.035,0,15.927,6.768,15.927,16.722
				c0,9.875-5.892,16.642-15.927,16.642h-15.528V213.772z M671.174,185.895c7.483,0,11.705-4.938,11.705-12.821
				c0-8.202-4.222-13.139-11.705-13.139h-15.37v25.96H671.174z"/>
			<polygon clip-path="url(#SVGID_4_)" fill="#191919" points="701.17,156.234 705.311,156.234 705.311,210.029 731.029,210.029 
				731.029,213.772 701.17,213.772 			"/>
			<path clip-path="url(#SVGID_4_)" fill="#191919" d="M778.293,195.616c0,12.184-7.565,18.953-18.871,18.953
				c-11.309,0-18.793-6.929-18.793-18.953v-39.375h4.22v39.932c0,9.397,5.416,14.812,14.731,14.812
				c9.237,0,14.651-5.414,14.651-14.812v-39.938h4.062V195.616z"/>
			<path clip-path="url(#SVGID_4_)" fill="#191919" d="M814.226,155.643c9.157,0,14.573,2.627,14.573,2.627l-1.785,2.961
				c0,0-5.222-1.927-12.23-1.927c-10.59,0-18.632,5.893-18.632,25.88c0,19.987,7.963,25.642,18.632,25.642
				c4.858,0,8.92-0.876,10.83-1.274l-0.014-24.546h4.075v26.935c0,0-5.894,2.629-15.449,2.629c-14.335,0-22.455-9.637-22.455-29.464
				C791.771,165.596,799.812,155.643,814.226,155.643"/>
		</g>
	</g>
</g>
<g display="none">
	<g display="inline">
		<defs>
			<rect id="SVGID_5_" x="82" y="16.084" width="985" height="335.937"/>
		</defs>
		<clipPath id="SVGID_6_">
			<use xlink:href="#SVGID_5_"  overflow="visible"/>
		</clipPath>
		<g clip-path="url(#SVGID_6_)">
			<defs>
				<rect id="SVGID_7_" x="66.044" y="-16.614" width="1033.767" height="382.045"/>
			</defs>
			<clipPath id="SVGID_8_">
				<use xlink:href="#SVGID_7_"  overflow="visible"/>
			</clipPath>
			<g clip-path="url(#SVGID_8_)">
				<defs>
					<rect id="SVGID_9_" x="66.044" y="-16.614" width="1033.767" height="382.045"/>
				</defs>
				<clipPath id="SVGID_10_">
					<use xlink:href="#SVGID_9_"  overflow="visible"/>
				</clipPath>
				<g opacity="0.1" clip-path="url(#SVGID_10_)">
					<g>
						<defs>
							<rect id="SVGID_11_" x="586.079" y="17.096" width="86.932" height="89.884"/>
						</defs>
						<clipPath id="SVGID_12_">
							<use xlink:href="#SVGID_11_"  overflow="visible"/>
						</clipPath>
						<polygon clip-path="url(#SVGID_12_)" fill="#ED1C24" points="586.078,106.979 586.078,17.096 611.818,17.096 653.385,78.494 
							653.385,17.096 673.012,17.096 673.012,106.979 647.883,106.979 605.702,44.681 605.702,106.979 						"/>
					</g>
				</g>
				<g opacity="0.1" clip-path="url(#SVGID_10_)">
					<g>
						<defs>
							<rect id="SVGID_13_" x="586.079" y="241.838" width="86.932" height="89.882"/>
						</defs>
						<clipPath id="SVGID_14_">
							<use xlink:href="#SVGID_13_"  overflow="visible"/>
						</clipPath>
						<polygon clip-path="url(#SVGID_14_)" fill="#ED1C24" points="586.078,331.72 586.078,241.838 611.818,241.838 
							653.385,303.236 653.385,241.838 673.012,241.838 673.012,331.72 647.883,331.72 605.702,269.423 605.702,331.72 						"/>
					</g>
				</g>
				<g opacity="0.1" clip-path="url(#SVGID_10_)">
					<g>
						<defs>
							<rect id="SVGID_15_" x="976.208" y="129.461" width="89.884" height="86.934"/>
						</defs>
						<clipPath id="SVGID_16_">
							<use xlink:href="#SVGID_15_"  overflow="visible"/>
						</clipPath>
						<polygon clip-path="url(#SVGID_16_)" fill="#ED1C24" points="976.208,129.461 1066.092,129.461 1066.092,155.201 
							1004.693,196.77 1066.092,196.77 1066.092,216.396 976.208,216.396 976.208,191.267 1038.506,149.087 976.208,149.087 						
							"/>
					</g>
				</g>
				<g opacity="0.4" clip-path="url(#SVGID_10_)">
					<g>
						<defs>
							<rect id="SVGID_17_" x="165.761" y="83.531" width="810.559" height="181.767"/>
						</defs>
						<clipPath id="SVGID_18_">
							<use xlink:href="#SVGID_17_"  overflow="visible"/>
						</clipPath>
						<path clip-path="url(#SVGID_18_)" fill="#808080" d="M344.251,166.416c-4.203-4.202-11.563-11.459-20.103-19.934v-28.257
							c0-6.967-4.158-10.9-10.965-10.9h-28.191c-10.574-10.787-18.605-18.774-19.98-20.149c-4.768-4.767-11.124-4.683-15.892,0.084
							c-4.209,4.209-11.484,11.525-19.98,20.065h-28.257c-6.742,0-11.574,4.158-11.574,10.9v28.256
							c-10.562,10.575-18.438,18.606-19.812,19.981c-4.768,4.768-4.852,11.124-0.13,15.845c4.224,4.224,11.627,11.516,19.942,20.026
							v28.257c0,6.742,4.832,11.573,11.508,11.573h28.323c10.488,10.339,18.469,18.302,19.934,19.767
							c3.69,3.688,11.17,4.897,15.938,0.13c1.265-1.264,9.379-9.333,19.98-19.896h28.191c5.218,0,10.965-4.832,10.965-11.573
							v-28.257c10.787-10.601,18.8-18.716,20.065-19.98C349.139,177.428,349.065,171.23,344.251,166.416 M301.675,208.117
							c0,6.743-4.157,11.574-10.965,11.574h-67.419c-6.676,0-11.508-4.831-11.508-11.574v-67.419c0-6.741,4.664-11.236,11.34-11.236
							c5.325,0,44.862,0,67.335,0c6.807,0,11.217,4.495,11.217,11.236V208.117z"/>
						<path clip-path="url(#SVGID_18_)" d="M257.325,265.298c-3.157,0-6.271-1.228-8.331-3.288
							c-2.248-2.25-10.202-10.173-19.9-19.733h-28.276c-6.733,0-11.621-4.914-11.621-11.686V202.38
							c-6.368-6.518-12.208-12.327-16.474-16.571c-1.298-1.291-2.453-2.439-3.436-3.423c-2.335-2.334-3.554-5.095-3.526-7.985
							c0.028-2.881,1.292-5.654,3.656-8.018c0.378-0.377,1.246-1.257,2.526-2.554c3.359-3.405,9.607-9.738,17.253-17.394v-28.21
							c0-6.587,4.697-11.013,11.686-11.013h28.21l2.274-2.286c7.432-7.47,13.851-13.922,17.673-17.745
							c2.389-2.389,5.188-3.651,8.099-3.651c2.869,0,5.618,1.233,7.951,3.567l0.622,0.621c2.436,2.431,9.844,9.822,19.326,19.495
							h28.144c6.937,0,11.078,4.117,11.078,11.013v28.21c3.492,3.465,6.786,6.726,9.747,9.657
							c4.209,4.167,7.845,7.766,10.323,10.245c4.877,4.877,4.863,11.195-0.038,16.097c-0.197,0.197-0.557,0.559-1.065,1.07
							c-2.702,2.72-9.874,9.94-18.967,18.878v28.209c0,6.887-5.838,11.686-11.078,11.686h-28.145
							c-6.153,6.131-11.466,11.419-15.084,15.022c-2.606,2.594-4.334,4.312-4.863,4.841
							C262.48,264.752,259.427,265.298,257.325,265.298z M200.883,107.438c-6.855,0-11.461,4.335-11.461,10.788v28.303l-0.032,0.033
							c-7.661,7.669-13.922,14.016-17.286,17.425c-1.28,1.297-2.149,2.178-2.527,2.556c-2.321,2.321-3.563,5.04-3.59,7.861
							c-0.027,2.827,1.169,5.533,3.459,7.823c0.982,0.983,2.137,2.131,3.435,3.423c4.274,4.251,10.127,10.075,16.509,16.605
							l0.032,0.033v28.303c0,6.641,4.793,11.461,11.396,11.461h28.369l0.033,0.033c9.713,9.574,17.683,17.514,19.934,19.766
							c2.019,2.019,5.073,3.224,8.172,3.224c2.059,0,5.051-0.536,7.606-3.092c0.53-0.53,2.257-2.249,4.864-4.844
							c3.624-3.608,8.95-8.909,15.116-15.054l0.034-0.033h28.237c5.133,0,10.853-4.707,10.853-11.461v-28.304l0.034-0.033
							c9.108-8.951,16.293-16.186,18.999-18.908c0.508-0.512,0.869-0.875,1.066-1.072c2.385-2.385,3.643-5.127,3.638-7.931
							c-0.004-2.783-1.249-5.497-3.601-7.847c-2.478-2.479-6.113-6.077-10.321-10.244c-2.971-2.94-6.277-6.213-9.781-9.69
							l-0.033-0.033v-28.304c0-3.364-1.002-6.124-2.896-7.982c-1.871-1.834-4.622-2.805-7.957-2.805h-28.238l-0.034-0.033
							c-9.497-9.689-16.919-17.095-19.358-19.528l-0.622-0.621c-2.29-2.29-4.984-3.501-7.792-3.501c-2.849,0-5.594,1.24-7.939,3.585
							c-3.823,3.823-10.242,10.275-17.674,17.746l-2.339,2.352H200.883z M290.71,219.804h-67.419c-6.733,0-11.62-4.915-11.62-11.687
							v-67.419c0-3.324,1.106-6.168,3.199-8.226c2.078-2.043,4.932-3.123,8.252-3.123h67.335c3.362,0,6.211,1.08,8.241,3.123
							c2.021,2.034,3.089,4.878,3.089,8.226v67.419C301.788,215.107,297.336,219.804,290.71,219.804z M223.122,129.574
							c-6.715,0-11.228,4.47-11.228,11.124v67.419c0,6.643,4.793,11.461,11.396,11.461h67.419c3.259,0,6.01-1.113,7.953-3.221
							c1.897-2.059,2.899-4.908,2.899-8.24v-67.419c0-3.286-1.045-6.076-3.023-8.067c-1.987-2-4.781-3.057-8.082-3.056h-26.262
							H223.122z"/>
						<rect x="251.11" y="146.653" clip-path="url(#SVGID_18_)" fill="#808080" width="11.237" height="22.474"/>
						<path clip-path="url(#SVGID_18_)" d="M262.46,169.239h-11.462v-22.698h11.462V169.239z M251.223,169.015h11.012v-22.249
							h-11.012V169.015z"/>
						<rect x="228.638" y="185.981" clip-path="url(#SVGID_18_)" fill="#808080" width="16.854" height="11.236"/>
						<path clip-path="url(#SVGID_18_)" d="M245.604,197.33h-17.079v-11.461h17.079V197.33z M228.75,197.106h16.63v-11.013h-16.63
							V197.106z"/>
						<rect x="267.965" y="185.981" clip-path="url(#SVGID_18_)" fill="#808080" width="16.855" height="11.236"/>
						<path clip-path="url(#SVGID_18_)" d="M284.933,197.33h-17.08v-11.461h17.08V197.33z M268.078,197.106h16.63v-11.013h-16.63
							V197.106z"/>
						<path clip-path="url(#SVGID_18_)" fill="#808080" d="M403.325,218.564v-15.43c7.015,2.946,14.798,6.138,25.298,6.138
							c7.628,0,15.634-3.103,15.634-11.975c0-2.512-0.724-4.78-2.174-6.806c-1.448-1.986-4.993-4.561-10.63-7.721l-6.065-3.345
							c-8.662-4.822-14.524-9.278-17.588-13.37c-3.105-4.092-4.658-8.831-4.658-14.222c0-6.764,2.587-12.557,7.76-17.378
							c5.174-4.819,14.713-7.232,26.924-7.232c7.239,0,15.4,1.033,24.479,3.099v14.397c-9.293-3.443-17.812-6.044-25.678-5.22
							c-3.157,0.331-10.336,2.323-10.336,10.084c0,2.106,0.723,4.072,2.168,5.895c1.404,1.824,4.924,4.316,10.562,7.475l6.496,3.586
							c9.929,5.553,23.044,11.915,23.044,28.358c0,7.362-2.81,13.653-8.428,18.875c-5.618,5.219-19.181,7.829-31.438,7.829
							C421.423,221.602,412.965,220.588,403.325,218.564"/>
						<path clip-path="url(#SVGID_18_)" d="M428.695,221.714c-7.24,0-15.785-1.022-25.394-3.04l-0.089-0.019v-15.689l0.156,0.065
							c6.501,2.729,14.592,6.129,25.255,6.129c4.175,0,7.946-0.938,10.617-2.643c3.255-2.075,4.905-5.177,4.905-9.22
							c0-2.476-0.724-4.745-2.153-6.741c-1.434-1.964-4.998-4.551-10.593-7.687l-6.065-3.345
							c-8.635-4.807-14.565-9.316-17.624-13.401c-3.105-4.092-4.68-8.9-4.68-14.289c0-6.765,2.623-12.64,7.796-17.46
							c5.1-4.751,14.437-7.263,27-7.263c7.217,0,15.461,1.044,24.503,3.102l0.087,0.02v14.648l-0.152-0.057
							c-8.692-3.221-15.866-5.367-22.625-5.367c-1.022,0-2.032,0.052-3,0.153c-1.083,0.114-3.867,0.559-6.3,2.236
							c-2.612,1.801-3.936,4.403-3.936,7.736c0,2.07,0.722,4.03,2.145,5.824c1.389,1.806,4.931,4.311,10.528,7.447l6.496,3.585
							c0.521,0.292,1.049,0.584,1.584,0.881c9.587,5.314,21.518,11.927,21.518,27.576c0,7.358-2.848,13.736-8.463,18.957
							c-2.645,2.457-7.238,4.498-13.281,5.898C441.479,221.019,435.004,221.714,428.695,221.714z M403.438,218.474
							c9.558,2.001,18.056,3.016,25.258,3.016c11.431,0,25.562-2.412,31.362-7.799c5.568-5.177,8.392-11.499,8.392-18.793
							c0-15.517-11.867-22.094-21.402-27.379c-0.535-0.297-1.064-0.59-1.585-0.881l-6.496-3.586
							c-5.625-3.151-9.189-5.676-10.596-7.504c-1.454-1.835-2.192-3.842-2.192-5.963c0-3.411,1.357-6.076,4.033-7.921
							c2.476-1.707,5.303-2.16,6.404-2.275c0.976-0.103,1.993-0.154,3.023-0.154c6.753,0,13.905,2.126,22.553,5.325v-14.146
							c-8.991-2.041-17.188-3.076-24.366-3.076c-12.505,0-21.789,2.49-26.847,7.202c-5.126,4.776-7.725,10.595-7.725,17.296
							c0,5.339,1.56,10.101,4.635,14.153c3.041,4.061,8.947,8.548,17.553,13.34l6.065,3.345c5.625,3.153,9.213,5.76,10.666,7.752
							c1.458,2.036,2.196,4.349,2.196,6.873c0,4.124-1.685,7.29-5.008,9.408c-2.708,1.728-6.521,2.679-10.738,2.679
							c-10.623,0-18.693-3.354-25.186-6.081V218.474z"/>
						<path clip-path="url(#SVGID_18_)" fill="#808080" d="M485.184,129.471h23.332v55.125c0,9.968,1.69,16.573,5.071,19.813
							c3.381,3.242,7.765,4.863,13.149,4.863c5.302,0,9.524-1.6,12.662-4.801c3.137-3.201,4.706-9.381,4.706-18.538v-56.462h20.903
							v55.205c0,10.407-1.308,17.865-3.918,22.379c-2.611,4.518-6.388,8.069-11.327,10.66c-4.94,2.589-15.82,3.887-23.392,3.887
							c-7.45,0-18.471-1.205-23.816-3.613c-5.342-2.41-9.575-5.991-12.692-10.75c-3.118-4.758-4.678-12.339-4.678-22.742V129.471z"
							/>
						<path clip-path="url(#SVGID_18_)" d="M526.37,221.714c-7.668,0-18.637-1.27-23.862-3.623c-5.342-2.41-9.628-6.04-12.74-10.791
							c-3.116-4.755-4.696-12.425-4.696-22.804v-55.137h23.556v55.237c0,9.892,1.695,16.53,5.037,19.733
							c3.343,3.205,7.741,4.831,13.071,4.831c5.249,0,9.482-1.604,12.581-4.768c3.103-3.165,4.675-9.375,4.675-18.459v-56.575
							h21.127v55.317c0,10.375-1.323,17.923-3.934,22.435c-2.606,4.512-6.432,8.113-11.371,10.704
							C544.982,220.348,534.128,221.714,526.37,221.714z M485.296,129.584v54.912c0,10.333,1.567,17.964,4.66,22.68
							c3.087,4.716,7.341,8.318,12.644,10.709c5.196,2.342,16.125,3.604,23.77,3.604c7.732,0,18.539-1.357,23.34-3.874
							c4.9-2.57,8.696-6.143,11.281-10.616c2.59-4.478,3.904-11.988,3.904-22.323v-55.092h-20.678v56.35
							c0,9.145-1.595,15.408-4.739,18.616c-3.144,3.208-7.431,4.835-12.742,4.835c-5.391,0-9.841-1.646-13.227-4.894
							c-3.388-3.247-5.105-9.939-5.105-19.896v-55.012H485.296z"/>
						<polygon clip-path="url(#SVGID_18_)" fill="#808080" points="586.078,219.354 586.078,129.471 611.818,129.471 
							653.385,190.87 653.385,129.471 673.012,129.471 673.012,219.354 647.883,219.354 605.702,157.057 605.702,219.354 						"/>
						<path clip-path="url(#SVGID_18_)" d="M673.124,219.466h-25.302l-0.033-0.049l-41.974-61.994v62.042h-19.85v-90.107h25.911
							l0.033,0.049l41.362,61.096v-61.145h19.852V219.466z M647.942,219.241h24.957v-89.657h-19.402v61.652l-0.204-0.303
							l-41.535-61.35H586.19v89.657h19.399V156.69L647.942,219.241z"/>
						<path clip-path="url(#SVGID_18_)" fill="#808080" d="M704.594,219.354h-6.468V129.53h30.725
							c15.675,0,24.881,10.573,24.881,26.122c0,15.426-9.206,25.997-24.881,25.997h-24.257V219.354z M728.604,175.806
							c11.69,0,18.286-7.714,18.286-20.03c0-12.812-6.596-20.525-18.286-20.525h-24.01v40.556H728.604z"/>
						<path clip-path="url(#SVGID_18_)" d="M704.705,219.467h-6.691v-90.049h30.837c7.623,0,13.985,2.513,18.4,7.266
							c4.314,4.643,6.593,11.202,6.593,18.968c0,7.711-2.278,14.233-6.593,18.859c-4.42,4.743-10.783,7.25-18.4,7.25h-24.146
							V219.467z M698.239,219.241h6.242v-37.705h24.369c7.554,0,13.859-2.482,18.237-7.177c4.273-4.585,6.531-11.053,6.531-18.707
							c0-7.709-2.259-14.215-6.531-18.816c-4.372-4.706-10.679-7.193-18.237-7.193h-30.611V219.241z M728.604,175.918h-24.122
							v-40.78h24.122c5.737,0,10.442,1.901,13.611,5.497c3.132,3.554,4.787,8.79,4.787,15.141
							C747.002,168.388,740.123,175.918,728.604,175.918z M704.705,175.693h23.898c11.38,0,18.174-7.445,18.174-19.917
							c0-6.295-1.637-11.48-4.731-14.993c-3.123-3.546-7.773-5.42-13.442-5.42h-23.898V175.693z"/>
						<polygon clip-path="url(#SVGID_18_)" fill="#808080" points="775.462,129.471 781.93,129.471 781.93,213.508 822.107,213.508 
							822.107,219.354 775.462,219.354 						"/>
						<path clip-path="url(#SVGID_18_)" d="M822.22,219.466h-46.87v-90.107h6.692v84.037h40.178V219.466z M775.574,219.241h46.42
							v-5.621h-40.177v-84.036h-6.243V219.241z"/>
						<path clip-path="url(#SVGID_18_)" fill="#808080" d="M895.941,190.993c0,19.031-11.818,29.605-29.481,29.605
							s-29.357-10.821-29.357-29.605v-61.512h6.593v62.381c0,14.68,8.461,23.138,23.014,23.138c14.43,0,22.888-8.458,22.888-23.138
							v-62.391h6.345V190.993z"/>
						<path clip-path="url(#SVGID_18_)" d="M866.46,220.711c-18.178,0-29.47-11.387-29.47-29.718v-61.624h6.817v62.493
							c0,14.632,8.348,23.025,22.901,23.025c7.061,0,12.861-2.085,16.774-6.031c3.926-3.957,6.001-9.833,6.001-16.994v-62.503h6.569
							v61.634c0,9.217-2.818,16.832-8.15,22.021C882.727,218.05,875.312,220.711,866.46,220.711z M837.215,129.594v61.399
							c0,9.071,2.774,16.599,8.021,21.766c5.134,5.056,12.473,7.728,21.224,7.728c8.792,0,16.153-2.639,21.286-7.635
							c5.289-5.144,8.083-12.702,8.083-21.858v-61.409h-6.119v62.278c0,7.222-2.099,13.153-6.066,17.153
							c-3.957,3.988-9.813,6.097-16.935,6.097c-7.177,0-13.071-2.108-17.044-6.097c-3.978-3.995-6.083-9.927-6.083-17.153v-62.268
							H837.215z"/>
						<path clip-path="url(#SVGID_18_)" fill="#808080" d="M952.074,128.547c14.307,0,22.765,4.104,22.765,4.104l-2.787,4.627
							c0,0-8.158-3.01-19.107-3.01c-16.542,0-29.105,9.205-29.105,40.428c0,31.224,12.44,40.057,29.105,40.057
							c7.59,0,13.935-1.37,16.919-1.992l-0.022-38.343h6.367v42.076c0,0-9.206,4.104-24.134,4.104
							c-22.393,0-35.08-15.053-35.08-46.026C916.994,144.096,929.559,128.547,952.074,128.547"/>
						<path clip-path="url(#SVGID_18_)" d="M952.074,220.711c-11.332,0-20.089-3.85-26.026-11.441
							c-6.082-7.777-9.166-19.451-9.166-34.697c0-15.079,3.067-26.689,9.121-34.51c5.968-7.715,14.741-11.628,26.071-11.628
							c7.402,0,13.208,1.118,16.775,2.056c3.868,1.017,6.018,2.049,6.038,2.06l0.111,0.054l-2.899,4.812l-0.087-0.032
							c-0.081-0.03-8.266-3.003-19.068-3.003c-9.127,0-15.887,2.769-20.669,8.465c-5.522,6.579-8.324,17.295-8.324,31.851
							c0,14.753,2.707,25.11,8.277,31.664c4.734,5.571,11.511,8.28,20.716,8.28c7.377,0,13.641-1.309,16.651-1.938l0.155-0.032
							l-0.022-38.365h6.592v42.262l-0.066,0.028c-0.023,0.011-2.359,1.043-6.488,2.06
							C965.958,219.593,959.797,220.711,952.074,220.711z M952.074,128.66c-11.258,0-19.969,3.882-25.894,11.54
							c-6.021,7.781-9.074,19.345-9.074,34.373c0,15.195,3.067,26.821,9.12,34.558c5.892,7.536,14.588,11.355,25.848,11.355
							c7.699,0,13.841-1.114,17.638-2.05c3.726-0.916,5.977-1.844,6.384-2.017v-41.89h-6.143l0.022,38.322l-0.334,0.07
							c-3.019,0.63-9.298,1.942-16.697,1.942c-9.274,0-16.107-2.735-20.888-8.359c-5.604-6.596-8.33-17.001-8.33-31.81
							c0-7.55,0.75-14.117,2.226-19.519c1.386-5.067,3.455-9.265,6.15-12.476c4.827-5.75,11.646-8.546,20.842-8.546
							c10.243,0,18.145,2.666,19.059,2.986l2.675-4.441c-0.484-0.221-2.537-1.113-5.893-1.995
							C965.232,129.772,959.448,128.66,952.074,128.66z"/>
					</g>
				</g>
			</g>
			<rect x="82.898" y="106.764" clip-path="url(#SVGID_8_)" fill="#ED1C24" width="983.202" height="0.899"/>
			<rect x="82.898" y="241.377" clip-path="url(#SVGID_8_)" fill="#ED1C24" width="983.202" height="0.899"/>
			<rect x="82.898" y="331.271" clip-path="url(#SVGID_8_)" fill="#ED1C24" width="983.202" height="0.899"/>
			<rect x="82.898" y="16.646" clip-path="url(#SVGID_8_)" fill="#ED1C24" width="983.202" height="0.899"/>
			<rect x="975.534" y="17.096" clip-path="url(#SVGID_8_)" fill="#ED1C24" width="0.898" height="331.479"/>
			<rect x="1065.651" y="17.096" clip-path="url(#SVGID_8_)" fill="#ED1C24" width="0.899" height="331.479"/>
			<rect x="323.812" y="17.096" clip-path="url(#SVGID_8_)" fill="#ED1C24" width="0.899" height="331.479"/>
			<rect x="402.692" y="17.096" clip-path="url(#SVGID_8_)" fill="#ED1C24" width="0.899" height="331.479"/>
			<rect x="188.972" y="17.096" clip-path="url(#SVGID_8_)" fill="#ED1C24" width="0.899" height="331.479"/>
			<rect x="228.525" y="17.096" clip-path="url(#SVGID_8_)" fill="#ED1C24" width="0.899" height="331.479"/>
			<rect x="211.67" y="17.096" clip-path="url(#SVGID_8_)" fill="#ED1C24" width="0.899" height="331.479"/>
			<rect x="245.38" y="17.096" clip-path="url(#SVGID_8_)" fill="#ED1C24" width="0.899" height="331.479"/>
			<rect x="250.998" y="17.096" clip-path="url(#SVGID_8_)" fill="#ED1C24" width="0.899" height="331.479"/>
			<rect x="99.304" y="17.096" clip-path="url(#SVGID_8_)" fill="#ED1C24" width="1.124" height="331.479"/>
			<rect x="82.898" y="129.124" clip-path="url(#SVGID_8_)" fill="#ED1C24" width="983.202" height="0.899"/>
			<rect x="82.898" y="219.017" clip-path="url(#SVGID_8_)" fill="#ED1C24" width="983.202" height="0.899"/>
			<rect x="82.898" y="196.432" clip-path="url(#SVGID_8_)" fill="#ED1C24" width="241.362" height="0.898"/>
			<rect x="82.898" y="185.195" clip-path="url(#SVGID_8_)" fill="#ED1C24" width="241.362" height="0.898"/>
			<rect x="82.898" y="145.867" clip-path="url(#SVGID_8_)" fill="#ED1C24" width="241.362" height="0.899"/>
			<rect x="82.898" y="168.34" clip-path="url(#SVGID_8_)" fill="#ED1C24" width="241.362" height="0.899"/>
			<g clip-path="url(#SVGID_8_)">
				<text transform="matrix(1 0 0 1 88.5176 193.9609)"><tspan x="0" y="0" fill="#ED1C24" font-family="'GloberBold'" font-size="6.742">2</tspan><tspan x="3.708" y="0" fill="#ED1C24" font-family="'GloberBold'" font-size="6.742">x</tspan></text>
			</g>
			<g clip-path="url(#SVGID_8_)">
				<text transform="matrix(1 0 0 1 88.5176 180.0254)"><tspan x="0" y="0" fill="#ED1C24" font-family="'GloberBold'" font-size="6.742">3</tspan><tspan x="3.593" y="0" fill="#ED1C24" font-family="'GloberBold'" font-size="6.742">x</tspan></text>
			</g>
			<g clip-path="url(#SVGID_8_)">
				<text transform="matrix(1 0 0 1 88.5176 163.1704)"><tspan x="0" y="0" fill="#ED1C24" font-family="'GloberBold'" font-size="6.742">4</tspan><tspan x="3.836" y="0" fill="#ED1C24" font-family="'GloberBold'" font-size="6.742">x</tspan></text>
			</g>
			<g clip-path="url(#SVGID_8_)">
				<text transform="matrix(1 0 0 1 88.5176 213.7354)"><tspan x="0" y="0" fill="#ED1C24" font-family="'GloberBold'" font-size="6.742">4</tspan><tspan x="3.836" y="0" fill="#ED1C24" font-family="'GloberBold'" font-size="6.742">x</tspan></text>
			</g>
			<g clip-path="url(#SVGID_8_)">
				<text transform="matrix(1 0 0 1 88.5176 236.2051)"><tspan x="0" y="0" fill="#ED1C24" font-family="'GloberBold'" font-size="6.742">4</tspan><tspan x="3.836" y="0" fill="#ED1C24" font-family="'GloberBold'" font-size="6.742">x</tspan></text>
			</g>
			<g clip-path="url(#SVGID_8_)">
				<text transform="matrix(1 0 0 1 88.5176 326.0957)"><tspan x="0" y="0" fill="#ED1C24" font-family="'GloberBold'" font-size="6.742">16</tspan><tspan x="6.52" y="0" fill="#ED1C24" font-family="'GloberBold'" font-size="6.742">x</tspan></text>
			</g>
			<g clip-path="url(#SVGID_8_)">
				<text transform="matrix(1 0 0 1 195.2632 348.5684)"><tspan x="0" y="0" fill="#ED1C24" font-family="'GloberBold'" font-size="6.742">4</tspan><tspan x="3.836" y="0" fill="#ED1C24" font-family="'GloberBold'" font-size="6.742">x</tspan></text>
			</g>
			<g clip-path="url(#SVGID_8_)">
				<text transform="matrix(1 0 0 1 105.3726 348.5684)"><tspan x="0" y="0" fill="#ED1C24" font-family="'GloberBold'" font-size="6.742">1</tspan><tspan x="2.832" y="0" fill="#ED1C24" font-family="'GloberBold'" font-size="6.742">6</tspan><tspan x="6.526" y="0" fill="#ED1C24" font-family="'GloberBold'" font-size="6.742">x</tspan></text>
			</g>
			<g clip-path="url(#SVGID_8_)">
				<text transform="matrix(1 0 0 1 330.1025 348.5684)"><tspan x="0" y="0" fill="#ED1C24" font-family="'GloberBold'" font-size="6.742">1</tspan><tspan x="2.845" y="0" fill="#ED1C24" font-family="'GloberBold'" font-size="6.742">4</tspan><tspan x="6.674" y="0" fill="#ED1C24" font-family="'GloberBold'" font-size="6.742">x</tspan></text>
			</g>
			<g clip-path="url(#SVGID_8_)">
				<text transform="matrix(1 0 0 1 408.7612 348.5684)"><tspan x="0" y="0" fill="#ED1C24" font-family="'GloberBold'" font-size="6.742">1</tspan><tspan x="2.858" y="0" fill="#ED1C24" font-family="'GloberBold'" font-size="6.742">0</tspan><tspan x="6.964" y="0" fill="#ED1C24" font-family="'GloberBold'" font-size="6.742">2</tspan><tspan x="10.672" y="0" fill="#ED1C24" font-family="'GloberBold'" font-size="6.742">x</tspan></text>
			</g>
			<g clip-path="url(#SVGID_8_)">
				<text transform="matrix(1 0 0 1 215.4888 348.5684)"><tspan x="0" y="0" fill="#ED1C24" font-family="'GloberBold'" font-size="6.742">3</tspan><tspan x="3.593" y="0" fill="#ED1C24" font-family="'GloberBold'" font-size="6.742">x</tspan></text>
			</g>
			<g clip-path="url(#SVGID_8_)">
				<text transform="matrix(1 0 0 1 232.3442 348.5684)"><tspan x="0" y="0" fill="#ED1C24" font-family="'GloberBold'" font-size="6.742">3</tspan><tspan x="3.593" y="0" fill="#ED1C24" font-family="'GloberBold'" font-size="6.742">x</tspan></text>
			</g>
			<g clip-path="url(#SVGID_8_)">
				<text transform="matrix(1 0 0 1 246.9531 348.5684)" fill="#ED1C24" font-family="'GloberBold'" font-size="6.742">x</text>
			</g>
			<g clip-path="url(#SVGID_8_)">
				<text transform="matrix(1 0 0 1 88.5176 140.6924)"><tspan x="0" y="0" fill="#ED1C24" font-family="'GloberBold'" font-size="6.742">3</tspan><tspan x="3.593" y="0" fill="#ED1C24" font-family="'GloberBold'" font-size="6.742">x</tspan></text>
			</g>
			<g clip-path="url(#SVGID_8_)">
				<text transform="matrix(1 0 0 1 88.5176 123.8374)"><tspan x="0" y="0" fill="#ED1C24" font-family="'GloberBold'" font-size="6.742">4</tspan><tspan x="3.836" y="0" fill="#ED1C24" font-family="'GloberBold'" font-size="6.742">x</tspan></text>
			</g>
			<g clip-path="url(#SVGID_8_)">
				<text transform="matrix(1 0 0 1 88.5176 101.3672)"><tspan x="0" y="0" fill="#ED1C24" font-family="'GloberBold'" font-size="6.742">16</tspan><tspan x="6.52" y="0" fill="#ED1C24" font-family="'GloberBold'" font-size="6.742">x</tspan></text>
			</g>
			<g clip-path="url(#SVGID_8_)">
				<text transform="matrix(1 0 0 1 290.7759 86.312)"><tspan x="0" y="0" fill="#0000FF" font-family="'GloberBold'" font-size="6.742">4</tspan><tspan x="3.883" y="0" fill="#0000FF" font-family="'GloberBold'" font-size="6.742">5</tspan></text>
			</g>
			<g clip-path="url(#SVGID_8_)">
				<text transform="matrix(1 0 0 1 298.2598 86.312)" fill="#0000FF" font-family="'GloberBold'" font-size="6.742">°</text>
			</g>
			<g clip-path="url(#SVGID_8_)">
				<defs>
					<rect id="SVGID_19_" x="66.044" y="-16.614" width="1033.767" height="382.045"/>
				</defs>
				<clipPath id="SVGID_20_">
					<use xlink:href="#SVGID_19_"  overflow="visible"/>
				</clipPath>
				<path clip-path="url(#SVGID_20_)" fill="#0000FF" d="M257.241,265.42c-0.569,0-1.146-0.038-1.716-0.117l0.122-0.89
					c0.86,0.117,1.736,0.139,2.578,0.066l0.078,0.896C257.953,265.404,257.596,265.42,257.241,265.42z M261.029,264.807
					l-0.289-0.852c0.814-0.275,1.59-0.653,2.305-1.121l0.493,0.752C262.759,264.096,261.915,264.506,261.029,264.807z
					 M252.831,264.631c-0.89-0.329-1.726-0.752-2.484-1.257l0.499-0.747c0.7,0.465,1.472,0.854,2.297,1.16L252.831,264.631z
					 M248.756,262.079l-1.912-1.911l0.636-0.635l1.911,1.911L248.756,262.079z M265.655,261.799l-0.636-0.636l1.915-1.914
					l0.636,0.636L265.655,261.799z M244.938,258.261l-1.906-1.905l0.636-0.636l1.905,1.905L244.938,258.261z M269.479,257.977
					l-0.635-0.637l1.907-1.905l0.635,0.635L269.479,257.977z M241.128,254.451l-1.904-1.903l0.636-0.636l1.903,1.903
					L241.128,254.451z M273.291,254.165l-0.636-0.636l1.904-1.903l0.635,0.635L273.291,254.165z M237.323,250.646l-1.902-1.902
					l0.636-0.636l1.902,1.901L237.323,250.646z M277.097,250.358l-0.635-0.637l1.902-1.901l0.636,0.636L277.097,250.358z
					 M233.52,246.843l-1.902-1.901l0.636-0.636l1.901,1.901L233.52,246.843z M280.902,246.554l-0.636-0.636l1.902-1.902l0.636,0.637
					L280.902,246.554z M229.716,243.04l-1.9-1.901l0.635-0.635l1.901,1.901L229.716,243.04z M284.706,242.749l-0.635-0.635
					l1.901-1.902l0.635,0.636L284.706,242.749z M225.916,239.238l-1.901-1.901l0.636-0.635l1.901,1.899L225.916,239.238z
					 M288.509,238.946l-0.636-0.636l1.901-1.901l0.635,0.637L288.509,238.946z M222.114,235.437l-1.9-1.899l0.635-0.637l1.9,1.901
					L222.114,235.437z M292.311,235.145l-0.636-0.636l1.901-1.901l0.636,0.636L292.311,235.145z M218.312,231.636l-1.9-1.9
					l0.635-0.635l1.901,1.9L218.312,231.636z M296.113,231.343l-0.636-0.636l1.901-1.901l0.636,0.636L296.113,231.343z
					 M214.512,227.836l-1.901-1.901l0.636-0.635l1.9,1.9L214.512,227.836z M299.914,227.54l-0.636-0.636l1.901-1.9l0.636,0.636
					L299.914,227.54z M210.716,224.039l-1.899-1.899l0.635-0.636l1.9,1.899L210.716,224.039z M303.716,223.739l-0.636-0.636
					l1.901-1.9l0.635,0.635L303.716,223.739z M206.912,220.235l-1.9-1.9l0.635-0.635l1.9,1.9L206.912,220.235z M307.521,219.935
					l-0.636-0.636l1.898-1.897l0.636,0.635L307.521,219.935z M203.112,216.436l-1.901-1.9l0.636-0.636l1.9,1.9L203.112,216.436z
					 M311.32,216.135l-0.635-0.635l1.901-1.902l0.636,0.637L311.32,216.135z M199.311,212.635l-1.9-1.902l0.635-0.635l1.9,1.9
					L199.311,212.635z M315.122,212.333l-0.636-0.635l1.901-1.901l0.635,0.635L315.122,212.333z M195.51,208.833l-1.9-1.9
					l0.635-0.636l1.895,1.895L195.51,208.833z M318.924,208.532l-0.636-0.637l1.901-1.9l0.636,0.636L318.924,208.532z
					 M191.709,205.033l-1.9-1.901l0.636-0.635l1.9,1.899L191.709,205.033z M322.726,204.729l-0.636-0.636l1.901-1.901l0.636,0.635
					L322.726,204.729z M187.908,201.231l-1.901-1.901l0.636-0.635l1.9,1.9L187.908,201.231z M326.529,200.927l-0.635-0.637
					l1.901-1.901l0.636,0.635L326.529,200.927z M184.106,197.43l-1.901-1.902l0.635-0.635l1.901,1.901L184.106,197.43z
					 M330.333,197.122l-0.636-0.636l1.902-1.902l0.635,0.636L330.333,197.122z M180.303,193.626l-1.901-1.9l0.636-0.637l1.902,1.902
					L180.303,193.626z M334.139,193.316l-0.636-0.635l1.903-1.903l0.635,0.635L334.139,193.316z M176.5,189.823l-1.902-1.903
					l0.636-0.635l1.902,1.902L176.5,189.823z M337.946,189.509l-0.636-0.636l1.906-1.905l0.635,0.636L337.946,189.509z
					 M172.694,186.018l-1.904-1.904l0.636-0.635l1.904,1.902L172.694,186.018z M341.759,185.695l-0.636-0.635l1.912-1.912
					l0.636,0.636L341.759,185.695z M168.887,182.193c-0.646-0.7-1.207-1.445-1.667-2.214l0.771-0.462
					c0.429,0.717,0.952,1.412,1.556,2.065L168.887,182.193z M345.578,181.818l-0.681-0.587c0.586-0.679,1.087-1.391,1.489-2.116
					l0.786,0.437C346.739,180.33,346.203,181.093,345.578,181.818z M166.085,177.434c-0.274-0.904-0.425-1.833-0.447-2.761
					l0.898-0.023c0.021,0.847,0.159,1.696,0.41,2.523L166.085,177.434z M348.217,176.966l-0.87-0.228
					c0.199-0.76,0.299-1.537,0.299-2.308c0-0.074-0.001-0.149-0.003-0.222l0.898-0.023c0.002,0.082,0.003,0.164,0.003,0.246
					C348.545,175.278,348.435,176.132,348.217,176.966z M166.823,172.113l-0.872-0.219c0.223-0.885,0.565-1.759,1.017-2.596
					l0.791,0.427C167.343,170.497,167.028,171.301,166.823,172.113z M347.226,171.69c-0.246-0.794-0.602-1.582-1.058-2.342
					l0.771-0.462c0.493,0.821,0.878,1.675,1.145,2.539L347.226,171.69z M169.227,167.598l-0.685-0.583
					c0.252-0.296,0.523-0.588,0.805-0.871l1.096-1.096l0.635,0.636l-1.096,1.095C169.718,167.045,169.463,167.321,169.227,167.598z
					 M344.616,167.273c-0.164-0.181-0.337-0.362-0.514-0.54l-1.355-1.355l0.636-0.636l1.355,1.355
					c0.188,0.188,0.371,0.38,0.544,0.571L344.616,167.273z M172.988,163.775l-0.636-0.636l1.906-1.906l0.636,0.635L172.988,163.775z
					 M340.849,163.48l-1.898-1.898l0.636-0.635l1.898,1.898L340.849,163.48z M176.799,159.964l-0.635-0.636l1.903-1.903l0.635,0.635
					L176.799,159.964z M337.053,159.685l-1.898-1.898l0.636-0.636l1.898,1.898L337.053,159.685z M180.605,156.159l-0.636-0.636
					l1.902-1.902l0.635,0.636L180.605,156.159z M333.257,155.889l-1.898-1.897l0.636-0.635l1.897,1.897L333.257,155.889z
					 M184.409,152.355l-0.636-0.635l1.902-1.902l0.635,0.636L184.409,152.355z M329.462,152.093l-1.898-1.897l0.635-0.636
					l1.898,1.897L329.462,152.093z M188.211,148.552l-0.635-0.635l1.901-1.901l0.636,0.636L188.211,148.552z M325.666,148.298
					l-1.898-1.898l0.636-0.635l1.897,1.897L325.666,148.298z M192.013,144.75l-0.635-0.636l1.9-1.9l0.636,0.635L192.013,144.75z
					 M321.87,144.502l-1.897-1.897l0.635-0.636l1.898,1.897L321.87,144.502z M195.815,140.949l-0.636-0.636l1.901-1.9l0.635,0.636
					L195.815,140.949z M318.075,140.707l-1.898-1.898l0.636-0.635l1.898,1.898L318.075,140.707z M199.616,137.147l-0.636-0.635
					l1.9-1.901l0.636,0.636L199.616,137.147z M314.279,136.911l-1.897-1.897l0.635-0.636l1.898,1.897L314.279,136.911z
					 M203.417,133.347l-0.635-0.636l1.9-1.9l0.636,0.635L203.417,133.347z M310.483,133.114l-1.898-1.897l0.636-0.635l1.897,1.897
					L310.483,133.114z M207.217,129.546l-0.636-0.636l1.898-1.897l0.635,0.636L207.217,129.546z M306.688,129.319l-1.897-1.898
					l0.635-0.636l1.898,1.898L306.688,129.319z M211.018,125.746l-0.636-0.635l1.907-1.907l0.636,0.636L211.018,125.746z
					 M302.892,125.523l-1.898-1.898l0.636-0.635l1.898,1.897L302.892,125.523z M214.825,121.938l-0.636-0.635l1.9-1.9l0.636,0.636
					L214.825,121.938z M299.096,121.728l-1.898-1.897l0.635-0.636l1.898,1.897L299.096,121.728z M218.625,118.139l-0.635-0.636
					l1.9-1.9l0.636,0.635L218.625,118.139z M295.3,117.932l-1.898-1.898l0.636-0.636l1.897,1.898L295.3,117.932z M222.426,114.337
					l-0.636-0.636l1.901-1.9l0.635,0.636L222.426,114.337z M291.504,114.136l-1.897-1.897l0.635-0.636l1.897,1.897L291.504,114.136z
					 M226.228,110.537l-0.636-0.635l1.901-1.901l0.635,0.636L226.228,110.537z M287.709,110.341l-1.898-1.898l0.636-0.636
					l1.898,1.898L287.709,110.341z M230.028,106.735l-0.635-0.636l1.901-1.901l0.636,0.636L230.028,106.735z M283.913,106.545
					l-1.897-1.897l0.635-0.636l1.897,1.897L283.913,106.545z M233.83,102.934l-0.635-0.636l1.901-1.901l0.635,0.636L233.83,102.934z
					 M280.117,102.749l-1.898-1.898l0.636-0.636l1.897,1.898L280.117,102.749z M237.632,99.131l-0.636-0.635l1.902-1.902
					l0.635,0.636L237.632,99.131z M276.322,98.954l-1.898-1.898l0.636-0.636l1.897,1.898L276.322,98.954z M241.436,95.328
					l-0.636-0.635l1.903-1.903l0.635,0.636L241.436,95.328z M272.526,95.158l-1.898-1.898l0.636-0.636l1.898,1.898L272.526,95.158z
					 M245.241,91.522l-0.636-0.635l1.904-1.904l0.636,0.636L245.241,91.522z M268.73,91.362l-1.898-1.898l0.635-0.635l1.898,1.897
					L268.73,91.362z M249.046,87.717l-0.635-0.636l0.392-0.392c0.53-0.53,1.089-1.012,1.664-1.434l0.532,0.725
					c-0.537,0.395-1.062,0.847-1.56,1.344L249.046,87.717z M264.935,87.566l-0.241-0.241c-0.549-0.548-1.129-1.042-1.727-1.465
					l0.52-0.733c0.638,0.452,1.258,0.978,1.842,1.562l0.241,0.242L264.935,87.566z M253.229,84.692l-0.356-0.826
					c0.872-0.376,1.774-0.636,2.683-0.771l0.133,0.889C254.857,84.108,254.03,84.346,253.229,84.692z M260.714,84.613
					c-0.806-0.33-1.638-0.55-2.473-0.657l0.113-0.892c0.913,0.116,1.821,0.357,2.7,0.716L260.714,84.613z"/>
				<path clip-path="url(#SVGID_20_)" fill="#0000FF" d="M313.183,242.276h-2.684v-0.899h2.684V242.276z M307.815,242.276h-2.684
					v-0.899h2.684V242.276z M302.448,242.276h-2.685v-0.899h2.685V242.276z M297.079,242.276h-2.684v-0.899h2.684V242.276z
					 M291.711,242.276h-2.684v-0.899h2.684V242.276z M286.343,242.276h-2.684v-0.899h2.684V242.276z M280.975,242.276h-2.684v-0.899
					h2.684V242.276z M275.607,242.276h-2.684v-0.899h2.684V242.276z M270.239,242.276h-2.684v-0.899h2.684V242.276z
					 M264.872,242.276h-2.684v-0.899h2.684V242.276z M259.503,242.276h-2.684v-0.899h2.684V242.276z M254.136,242.276h-2.684v-0.899
					h2.684V242.276z M248.768,242.276h-2.684v-0.899h2.684V242.276z M243.399,242.276h-2.684v-0.899h2.684V242.276z
					 M238.032,242.276h-2.684v-0.899h2.684V242.276z M232.664,242.276h-2.684v-0.899h2.684V242.276z M227.296,242.276h-2.685v-0.899
					h2.685V242.276z M221.928,242.276h-2.685v-0.899h2.685V242.276z M216.56,242.276h-2.684v-0.899h2.684V242.276z M211.192,242.276
					h-2.684v-0.899h2.684V242.276z M205.824,242.276h-2.684v-0.899h2.684V242.276z M200.445,242.272
					c-0.951-0.023-1.875-0.138-2.749-0.341l0.203-0.876c0.813,0.189,1.677,0.297,2.567,0.317L200.445,242.272z M315.472,242.016
					l-0.198-0.877c0.822-0.186,1.64-0.473,2.429-0.855l0.392,0.808C317.244,241.505,316.361,241.815,315.472,242.016z
					 M195.078,240.987c-0.844-0.429-1.619-0.961-2.304-1.584l0.605-0.665c0.625,0.569,1.333,1.055,2.105,1.447L195.078,240.987z
					 M320.448,239.616l-0.558-0.706c0.683-0.539,1.3-1.15,1.833-1.812l0.701,0.562C321.849,238.377,321.184,239.034,320.448,239.616
					z M190.982,237.257c-0.486-0.774-0.879-1.625-1.169-2.53l0.856-0.275c0.267,0.835,0.628,1.617,1.074,2.328L190.982,237.257z
					 M323.9,235.298l-0.815-0.38c0.363-0.779,0.625-1.6,0.78-2.439l0.884,0.162C324.58,233.557,324.294,234.45,323.9,235.298z
					 M189.264,232.006c-0.044-0.46-0.067-0.937-0.067-1.415v-1.323h0.899v1.323c0,0.449,0.021,0.897,0.062,1.33L189.264,232.006z
					 M324.935,229.886h-0.899v-2.707h0.899V229.886z M190.095,226.568h-0.899v-2.696h0.899V226.568z M324.935,224.479h-0.899v-2.695
					h0.899V224.479z M190.095,221.179h-0.899v-2.692h0.899V221.179z M324.935,219.09h-0.899v-2.692h0.899V219.09z M190.095,215.796
					h-0.899v-2.69h0.899V215.796z M324.935,213.705h-0.899v-2.689h0.899V213.705z M190.095,210.416h-0.899v-2.689h0.899V210.416z
					 M324.935,208.325h-0.899v-2.689h0.899V208.325z M190.095,205.039h-0.899v-2.689h0.899V205.039z M324.935,202.947h-0.899v-2.689
					h0.899V202.947z M190.095,199.662h-0.899v-2.688h0.899V199.662z M324.935,197.568h-0.899v-2.688h0.899V197.568z
					 M190.095,194.285h-0.899v-2.688h0.899V194.285z M324.935,192.191h-0.899v-2.688h0.899V192.191z M190.095,188.91h-0.899v-2.688
					h0.899V188.91z M324.935,186.814h-0.899v-2.688h0.899V186.814z M190.095,183.535h-0.899v-2.688h0.899V183.535z M324.935,181.438
					h-0.899v-2.688h0.899V181.438z M190.095,178.16h-0.899v-2.684h0.899V178.16z M324.935,176.062h-0.899v-2.688h0.899V176.062z
					 M190.095,172.786h-0.899v-2.695h0.899V172.786z M324.935,170.682h-0.899v-2.685h0.899V170.682z M190.095,167.403h-0.899v-2.688
					h0.899V167.403z M324.935,165.31h-0.899v-2.688h0.899V165.31z M190.095,162.028h-0.899v-2.688h0.899V162.028z M324.935,159.933
					h-0.899v-2.688h0.899V159.933z M190.095,156.653h-0.899v-2.688h0.899V156.653z M324.935,154.556h-0.899v-2.688h0.899V154.556z
					 M190.095,151.278h-0.899v-2.688h0.899V151.278z M324.935,149.179h-0.899v-2.689h0.899V149.179z M190.095,145.902h-0.899v-2.689
					h0.899V145.902z M324.935,143.8h-0.899v-2.689h0.899V143.8z M190.095,140.525h-0.899v-2.688h0.899V140.525z M324.935,138.421
					h-0.899v-2.691h0.899V138.421z M190.095,135.147h-0.899v-2.688h0.899V135.147z M324.935,133.04h-0.899v-2.693h0.899V133.04z
					 M190.095,129.769h-0.899v-2.69h0.899V129.769z M324.935,127.654h-0.899v-2.695h0.899V127.654z M190.095,124.387h-0.899v-2.692
					h0.899V124.387z M324.935,122.26h-0.899v-2.705h0.899V122.26z M190.095,119.006h-0.899v-0.781c0-0.667,0.043-1.325,0.129-1.958
					l0.891,0.121c-0.081,0.592-0.122,1.21-0.122,1.836V119.006z M323.978,116.895c-0.081-0.891-0.246-1.744-0.49-2.537l0.859-0.266
					c0.263,0.852,0.44,1.768,0.526,2.722L323.978,116.895z M190.835,113.886l-0.842-0.314c0.332-0.89,0.769-1.722,1.297-2.471
					l0.734,0.519C191.541,112.306,191.141,113.068,190.835,113.886z M322.436,112.023c-0.453-0.731-1-1.39-1.629-1.959l0.604-0.667
					c0.691,0.626,1.293,1.35,1.79,2.152L322.436,112.023z M193.765,109.755l-0.567-0.697c0.715-0.582,1.517-1.072,2.383-1.458
					l0.365,0.821C195.152,108.775,194.418,109.224,193.765,109.755z M318.696,108.631c-0.744-0.371-1.56-0.66-2.423-0.858
					l0.201-0.876c0.933,0.215,1.815,0.528,2.622,0.93L318.696,108.631z M198.405,107.663l-0.167-0.883
					c0.844-0.16,1.734-0.24,2.646-0.24h0.106v0.898h-0.106C200.026,107.438,199.193,107.514,198.405,107.663z M313.702,107.447
					c-0.171-0.006-0.345-0.009-0.519-0.009h-2.15v-0.898h2.15c0.185,0,0.367,0.003,0.548,0.009L313.702,107.447z M308.349,107.438
					h-2.684v-0.898h2.684V107.438z M302.981,107.438h-2.684v-0.898h2.684V107.438z M297.612,107.438h-2.684v-0.898h2.684V107.438z
					 M292.244,107.438h-2.684v-0.898h2.684V107.438z M286.876,107.438h-2.684v-0.898h2.684V107.438z M281.509,107.438h-2.684v-0.898
					h2.684V107.438z M276.141,107.438h-2.684v-0.898h2.684V107.438z M270.773,107.438h-2.684v-0.898h2.684V107.438z
					 M265.405,107.438h-2.684v-0.898h2.684V107.438z M260.037,107.438h-2.684v-0.898h2.684V107.438z M254.669,107.438h-2.685v-0.898
					h2.685V107.438z M249.301,107.438h-2.684v-0.898h2.684V107.438z M243.933,107.438h-2.684v-0.898h2.684V107.438z
					 M238.565,107.438h-2.684v-0.898h2.684V107.438z M233.198,107.438h-2.684v-0.898h2.684V107.438z M227.829,107.438h-2.684v-0.898
					h2.684V107.438z M222.461,107.438h-2.684v-0.898h2.684V107.438z M217.094,107.438h-2.684v-0.898h2.684V107.438z
					 M211.726,107.438h-2.684v-0.898h2.684V107.438z M206.357,107.438h-2.684v-0.898h2.684V107.438z"/>
				<path clip-path="url(#SVGID_20_)" fill="#0000FF" d="M299.196,100.598l-0.89-0.131c0.523-3.558-0.177-8.318-6.487-10.797
					c-6.281-2.469-10.203,0.254-12.388,2.972l-0.7-0.562c1.942-2.418,6.268-6.056,13.417-3.246
					C299.367,91.67,299.662,97.421,299.196,100.598z"/>
				<polygon clip-path="url(#SVGID_20_)" fill="#0000FF" points="281.373,93.067 277.377,95.099 277.615,90.624 				"/>
				<polygon clip-path="url(#SVGID_20_)" fill="#0000FF" points="296.674,99.343 297.918,103.648 301.025,100.419 				"/>
			</g>
			<g clip-path="url(#SVGID_8_)">
				<text transform="matrix(1 0 0 1 684.0576 286.7754)"><tspan x="0" y="0" fill="#ED1C24" font-family="'GloberBold'" font-size="6.742">L</tspan><tspan x="3.573" y="0" fill="#ED1C24" font-family="'GloberBold'" font-size="6.742">o</tspan><tspan x="7.281" y="0" fill="#ED1C24" font-family="'GloberBold'" font-size="6.742">g</tspan><tspan x="10.868" y="0" fill="#ED1C24" font-family="'GloberBold'" font-size="6.742">o </tspan><tspan x="16.146" y="0" fill="#ED1C24" font-family="'GloberBold'" font-size="6.742">p</tspan><tspan x="19.949" y="0" fill="#ED1C24" font-family="'GloberBold'" font-size="6.742">ad</tspan><tspan x="27.251" y="0" fill="#ED1C24" font-family="'GloberBold'" font-size="6.742">di</tspan><tspan x="32.779" y="0" fill="#ED1C24" font-family="'GloberBold'" font-size="6.742">n</tspan><tspan x="36.46" y="0" fill="#ED1C24" font-family="'GloberBold'" font-size="6.742">g = N</tspan><tspan x="51.521" y="0" fill="#ED1C24" font-family="'GloberBold'" font-size="6.742"> </tspan><tspan x="53.031" y="0" fill="#ED1C24" font-family="'GloberBold'" font-size="6.742">h</tspan><tspan x="56.739" y="0" fill="#ED1C24" font-family="'GloberBold'" font-size="6.742">e</tspan><tspan x="60.252" y="0" fill="#ED1C24" font-family="'GloberBold'" font-size="6.742">i</tspan><tspan x="61.984" y="0" fill="#ED1C24" font-family="'GloberBold'" font-size="6.742">g</tspan><tspan x="65.625" y="0" fill="#ED1C24" font-family="'GloberBold'" font-size="6.742">h</tspan><tspan x="69.333" y="0" fill="#ED1C24" font-family="'GloberBold'" font-size="6.742">t =</tspan><tspan x="77.093" y="0" fill="#ED1C24" font-family="'GloberBold'" font-size="6.742"> </tspan><tspan x="78.604" y="0" fill="#ED1C24" font-family="'GloberBold'" font-size="6.742">1</tspan><tspan x="81.435" y="0" fill="#ED1C24" font-family="'GloberBold'" font-size="6.742">6</tspan><tspan x="85.129" y="0" fill="#ED1C24" font-family="'GloberBold'" font-size="6.742">x</tspan></text>
			</g>
			<g clip-path="url(#SVGID_8_)">
				<defs>
					<rect id="SVGID_21_" x="66.044" y="-16.614" width="1033.767" height="382.045"/>
				</defs>
				<clipPath id="SVGID_22_">
					<use xlink:href="#SVGID_21_"  overflow="visible"/>
				</clipPath>
				<polygon clip-path="url(#SVGID_22_)" fill="#ED1C24" points="675.419,301.891 674.783,301.254 683.87,292.167 773.949,292.167 
					773.949,293.065 684.243,293.065 				"/>
				<polygon clip-path="url(#SVGID_22_)" fill="#ED1C24" points="677.148,302.694 672.82,303.854 673.979,299.525 				"/>
			</g>
		</g>
	</g>
</g>
</svg>
