<?xml version="1.0" encoding="utf-8"?>
<!-- Generator: Adobe Illustrator 19.0.0, SVG Export Plug-In . SVG Version: 6.00 Build 0)  -->
<svg version="1.1" id="Layer_1" xmlns="http://www.w3.org/2000/svg" xmlns:xlink="http://www.w3.org/1999/xlink" x="0px" y="0px"
	 width="864px" height="218.5px" viewBox="-135.5 247 864 218.5" style="enable-background:new -135.5 247 864 218.5;"
	 xml:space="preserve">
<style type="text/css">
	.st0{fill:none;stroke:#D24137;stroke-width:3;stroke-linecap:round;stroke-linejoin:round;stroke-miterlimit:10;}
	.st1{fill:none;stroke:#D24137;stroke-width:3;stroke-linecap:round;stroke-linejoin:round;}
	.st2{fill:#D24137;}
	.st3{fill:none;stroke:#3296DC;stroke-width:3;stroke-linecap:round;stroke-linejoin:round;stroke-miterlimit:10;}
	.st4{fill:none;stroke:#46960F;stroke-width:3;stroke-linecap:round;stroke-linejoin:round;stroke-miterlimit:10;}
	.st5{fill:none;stroke:#46960F;stroke-width:3;stroke-linecap:round;stroke-miterlimit:10;}
	.st6{fill:#FA5F00;}
	.st7{fill:none;stroke:#FA5F00;stroke-width:3;stroke-miterlimit:10;}
	.st8{fill:none;stroke:#FA5F00;stroke-width:3;stroke-linecap:round;stroke-miterlimit:10;}
	.st9{fill:none;stroke:#FFC800;stroke-width:3;stroke-linecap:round;stroke-linejoin:round;stroke-miterlimit:10;}
	.st10{fill:none;stroke:#FFC800;stroke-width:3;stroke-linecap:round;stroke-linejoin:round;}
	.st11{fill:#FFC800;stroke:#FFC800;stroke-miterlimit:10;}
</style>
<g id="Layer_1_1_">
	<path id="XMLID_29_" class="st0" d="M27.7,391.2c-11.3,16.1-29.8,26.5-50.9,26.5c-34.3,0-62.1-27.8-62.1-62.1s27.8-62.1,62.1-62.1
		c28.8,0,53.1,19.7,60,46.3"/>
	<line id="XMLID_28_" class="st0" x1="-78.2" y1="384.4" x2="57.5" y2="384.4"/>
	<g id="XMLID_3_">
		<polygon id="XMLID_27_" class="st0" points="50.8,366.2 50.8,384.4 15.3,384.4 15.3,366.2 33.5,349.4 		"/>
		<polygon id="XMLID_26_" class="st0" points="-23.1,384.1 -31.4,347.2 -56.9,347.2 		"/>
		<polygon id="XMLID_25_" class="st0" points="-65.2,384.1 -31.4,347.2 -56.6,347.2 		"/>
		<rect id="XMLID_24_" x="-56.5" y="317.9" class="st0" width="24.8" height="29.3"/>
		<polyline id="XMLID_23_" class="st0" points="-22.4,342.1 -31.8,333 -56.9,333 -66.3,341.8 		"/>
		<polyline id="XMLID_22_" class="st0" points="-22.4,327.4 -31.8,317.9 -56.9,317.9 -66.3,326.9 		"/>
		<g id="XMLID_17_">
			<g id="XMLID_18_">
				<path id="XMLID_21_" class="st1" d="M-17,331.2c0,0-2.7,0,15,0c10.7,0,16.9,7.5,20.1,13.4"/>
				<g id="XMLID_19_">
					<polygon id="XMLID_20_" class="st2" points="12.5,344.9 21,351.2 22.3,340.6 					"/>
				</g>
			</g>
		</g>
	</g>
</g>
<g id="XMLID_2_">
	<g id="XMLID_33_">
		<polygon id="XMLID_38_" class="st3" points="640.7,395.1 631.1,352.5 601.7,352.5 		"/>
		<polygon id="XMLID_37_" class="st3" points="592.2,395.1 631.1,352.5 602.1,352.5 		"/>
		<rect id="XMLID_36_" x="602.2" y="318.7" class="st3" width="28.6" height="33.8"/>
		<polyline id="XMLID_35_" class="st3" points="641.5,346.6 630.8,336.1 601.7,336.1 591,346.4 		"/>
		<polyline id="XMLID_34_" class="st3" points="641.5,329.6 630.8,318.7 601.7,318.7 591,329.2 		"/>
	</g>
	<circle id="XMLID_32_" class="st3" cx="616.2" cy="356.9" r="62.1"/>
</g>
<g id="XMLID_41_">
	<circle id="XMLID_50_" class="st4" cx="137.3" cy="355.6" r="62.1"/>
	<polyline id="XMLID_49_" class="st4" points="164.8,352 164.8,381.3 112.5,381.3 112.5,352 	"/>
	<line id="XMLID_40_" class="st5" x1="120.4" y1="349.8" x2="130.2" y2="349.8"/>
	<line id="XMLID_39_" class="st5" x1="120.4" y1="357.8" x2="138.2" y2="357.8"/>
	<line id="XMLID_31_" class="st5" x1="120.4" y1="364.9" x2="145.3" y2="364.9"/>
	<line id="XMLID_30_" class="st5" x1="120.4" y1="372" x2="152.4" y2="372"/>
	<polyline id="XMLID_44_" class="st5" points="107.3,349.8 138.3,318.9 169.2,349.8 	"/>
</g>
<g id="XMLID_48_">
	<g id="XMLID_63_">
		<path id="XMLID_104_" class="st6" d="M296.9,297.5c32.7,0,59.4,26.7,59.4,59.4s-26.7,59.4-59.4,59.4s-59.4-26.7-59.4-59.4
			S264.2,297.5,296.9,297.5 M296.9,294.8c-34.3,0-62.1,27.8-62.1,62.1s27.8,62.1,62.1,62.1s62.1-27.8,62.1-62.1
			S331.3,294.8,296.9,294.8L296.9,294.8z"/>
	</g>
	<g id="XMLID_54_">
		<path id="XMLID_47_" class="st7" d="M324,372.4c0,2-1.6,3.5-3.5,3.5h-55.9c-2,0-3.5-1.6-3.5-3.5v-31c0-2,1.6-3.5,3.5-3.5h55.9
			c2,0,3.5,1.6,3.5,3.5V372.4z"/>
		<path id="XMLID_46_" class="st7" d="M324,348.5h7.8c0.8,0,1.1,0.3,1.1,1.2v13.7c0,0.9-0.2,2-1.1,2H324V348.5z"/>
		<line id="XMLID_45_" class="st8" x1="307.1" y1="368.4" x2="307.1" y2="345.4"/>
		<line id="XMLID_43_" class="st8" x1="293" y1="368.4" x2="293" y2="345.4"/>
		<line id="XMLID_42_" class="st8" x1="278.8" y1="368.4" x2="278.8" y2="345.4"/>
	</g>
</g>
<g id="XMLID_1_">
	<g id="Layer_1_2_">
		<polygon id="XMLID_16_" class="st9" points="413.6,367.6 413.6,385.3 449.1,385.3 449.1,367.6 430.9,350.7 		"/>
		<path id="XMLID_15_" class="st9" d="M505.7,394.9c-1.5,2-3.1,3.7-4.8,5.5c-11.3,11.5-27,18.6-44.3,18.6
			c-34.3,0-62.1-27.8-62.1-62.1s27.8-62.1,62.1-62.1c14.7,0,28.2,5.1,38.8,13.7"/>
		<line id="XMLID_14_" class="st9" x1="401.6" y1="385.3" x2="537.3" y2="385.3"/>
		<polygon id="XMLID_13_" class="st9" points="487.5,385 495.7,348 521.2,348 		"/>
		<polygon id="XMLID_12_" class="st9" points="529.5,385 495.7,348 520.9,348 		"/>
		<rect id="XMLID_11_" x="496.1" y="318.8" class="st9" width="24.8" height="29.3"/>
		<polyline id="XMLID_10_" class="st9" points="486.7,343.3 496.1,333.9 521.2,333.9 530.6,342.8 		"/>
		<polyline id="XMLID_9_" class="st9" points="486.7,328.5 496.1,318.8 521.2,318.8 530.6,327.9 		"/>
		<g id="XMLID_4_">
			<g id="XMLID_5_">
				<path id="XMLID_8_" class="st10" d="M473.4,332.1c0,0-4.1,0-7.1,0c-17.7,0-17.9,17.7-17.9,17.7"/>
				<g id="XMLID_6_">
					<polygon id="XMLID_7_" class="st11" points="472.6,326.8 481.8,332.1 472.6,337.4 					"/>
				</g>
			</g>
		</g>
	</g>
	<g id="Layer_2_1_">
	</g>
</g>
</svg>
