<?xml version="1.0" encoding="utf-8"?>
<!-- Generator: Adobe Illustrator 19.0.0, SVG Export Plug-In . SVG Version: 6.00 Build 0)  -->
<svg version="1.1" id="Layer_1" xmlns="http://www.w3.org/2000/svg" xmlns:xlink="http://www.w3.org/1999/xlink" x="0px" y="0px"
	 width="218px" height="70px" viewBox="0 0 218 70" style="enable-background:new 0 0 218 70;" xml:space="preserve">
<style type="text/css">
	.st0{clip-path:url(#SVGID_2_);}
	.st1{clip-path:url(#SVGID_4_);fill:url(#SVGID_5_);}
	.st2{clip-path:url(#SVGID_7_);fill:url(#SVGID_8_);}
	.st3{clip-path:url(#SVGID_10_);fill:url(#SVGID_11_);}
	.st4{clip-path:url(#SVGID_13_);fill:url(#SVGID_14_);}
</style>
<g>
	<g>
		<defs>
			<rect id="SVGID_1_" width="218" height="70"/>
		</defs>
		<clipPath id="SVGID_2_">
			<use xlink:href="#SVGID_1_"  style="overflow:visible;"/>
		</clipPath>
		<path class="st0" d="M90.6,17.9c6,0,9.2,2.1,11.5,6.7c0.3,0.6,0.1,0.9-0.5,1.1l-1.4,0.6c-0.6,0.3-0.8,0.2-1.1-0.4
			c-1.7-3.4-4.1-5.1-8.5-5.1c-5.2,0-8.1,2.1-8.1,5.8c0,4.5,4.4,5.2,9.1,5.7c5.3,0.6,11,1.6,11,8.6c0,5.7-4.1,9.2-11.9,9.2
			c-6.3,0-9.9-2.5-11.9-7.5c-0.2-0.7-0.1-0.9,0.6-1.2l1.3-0.5c0.6-0.2,0.9-0.1,1.1,0.5c1.6,3.8,4.5,5.7,8.8,5.7c5.7,0,8.7-2,8.7-6.1
			c0-4.5-4.1-5.1-8.5-5.6c-5.4-0.6-11.6-1.5-11.6-8.6C79.2,21.5,83.3,17.9,90.6,17.9"/>
		<path class="st0" d="M123.9,27.9v18.5c0,1.4-0.4,1.8-1.7,2.4c-1.7,0.7-4.2,1.4-8.2,1.4c-6,0-8.7-3.2-8.7-8.5V27.9
			c0-0.6,0.2-0.8,0.8-0.8h1.4c0.6,0,0.8,0.2,0.8,0.8v13.7c0,3.9,1.9,6,6.1,6c2.5,0,4.4-0.4,5.7-1c0.7-0.3,0.8-0.7,0.8-1.2V27.9
			c0-0.6,0.2-0.8,0.8-0.8h1.4C123.7,27.1,123.9,27.3,123.9,27.9"/>
		<path class="st0" d="M137.3,26.5c6,0,8.7,3.2,8.7,8.6v13.8c0,0.6-0.2,0.8-0.8,0.8h-1.4c-0.6,0-0.8-0.2-0.8-0.8V35.2
			c0-3.9-1.9-6-6.2-6c-2.5,0-4.5,0.5-5.8,1c-0.6,0.3-0.7,0.6-0.7,1.1v17.6c0,0.6-0.2,0.8-0.8,0.8h-1.4c-0.6,0-0.8-0.2-0.8-0.8V30.4
			c0-1.4,0.4-1.8,1.7-2.4C130.9,27.3,133.4,26.5,137.3,26.5"/>
		<path class="st0" d="M159,26.5c6.2,0,9.1,3.2,9.1,8.8v6.3c0,5.6-2.8,8.7-9,8.7c-3,0-5.4-1.1-6.6-1.5v9.7c0,0.6-0.2,0.8-0.8,0.8
			h-1.4c-0.6,0-0.8-0.2-0.8-0.8V30.2c0-1.4,0.4-1.9,1.8-2.5C153,27.1,155.4,26.5,159,26.5 M158.6,29.2c-2.2,0-4,0.4-5.3,0.8
			c-0.8,0.3-0.9,0.5-0.9,1.2V46c1.1,0.5,3.5,1.5,6.4,1.5c4.3,0,6.2-2.1,6.2-6.1v-6.1C165.2,31.3,163,29.2,158.6,29.2"/>
		<path class="st0" d="M173.5,49.6h-1.4c-0.6,0-0.8-0.2-0.8-0.8V18c0-0.6,0.2-0.8,0.8-0.8h1.4c0.6,0,0.8,0.2,0.8,0.8v30.8
			C174.3,49.5,174.1,49.6,173.5,49.6"/>
		<path class="st0" d="M196.4,27.9v18.5c0,1.4-0.4,1.8-1.7,2.4c-1.7,0.7-4.2,1.4-8.2,1.4c-6,0-8.7-3.2-8.7-8.5V27.9
			c0-0.6,0.2-0.8,0.8-0.8h1.4c0.6,0,0.8,0.2,0.8,0.8v13.7c0,3.9,1.9,6,6.1,6c2.5,0,4.4-0.4,5.7-1c0.7-0.3,0.8-0.7,0.8-1.2V27.9
			c0-0.6,0.2-0.8,0.8-0.8h1.4C196.2,27.1,196.4,27.3,196.4,27.9"/>
		<path class="st0" d="M208.9,26.5c3.3,0,5.9,0.7,7.4,1.3c1.4,0.6,1.7,1,1.7,2.4V51c0,5.7-2.6,9.5-9.2,9.5c-4.7,0-7.2-1.9-8.7-4.7
			c-0.4-0.6-0.3-1,0.4-1.3l1-0.5c0.6-0.4,0.9-0.2,1.3,0.3c1.1,2.1,2.8,3.5,6,3.5c4.5,0,6.4-2.5,6.4-6.7v-2.8
			c-1.2,0.4-3.7,1.3-6.9,1.3c-6,0-8.6-3.2-8.6-8.5v-5.7C199.4,29.7,202.5,26.5,208.9,26.5 M209.1,29.2c-4.6,0-6.7,2.1-6.7,6.3v5.6
			c0,3.7,2,5.8,6.1,5.8c3.1,0,5.5-0.9,6.5-1.3V31.2c0-0.7-0.1-0.8-0.8-1.1C213,29.6,211.3,29.2,209.1,29.2"/>
	</g>
	<g>
		<defs>
			<path id="SVGID_3_" d="M32.9,24.3c0,0-0.1,0.1-0.1,0.1v7.8l0.1,0.1h3.7l0.1-0.1v-7.8c0,0-0.1-0.1-0.1-0.1H32.9z"/>
		</defs>
		<clipPath id="SVGID_4_">
			<use xlink:href="#SVGID_3_"  style="overflow:visible;"/>
		</clipPath>
		
			<radialGradient id="SVGID_5_" cx="-499.7546" cy="457.8019" r="0.4696" gradientTransform="matrix(131.3198 126.6158 126.6158 -131.3198 7660.6738 123395.5859)" gradientUnits="userSpaceOnUse">
			<stop  offset="0" style="stop-color:#FFF26E"/>
			<stop  offset="1" style="stop-color:#FFC800"/>
		</radialGradient>
		<polygon class="st1" points="34.7,22.3 40.8,28.1 34.9,34.3 28.8,28.4 		"/>
	</g>
	<g>
		<defs>
			<path id="SVGID_6_" d="M31.1,1.6l-7,7h-11c-2.4,0-4.4,2-4.4,4.4v11l-7,7c-2.2,2.2-2.2,5.6,0,7.8l7,7v11c0,2.4,2,4.4,4.4,4.4h11
				l7,7c1.1,1.1,2.5,1.6,3.9,1.6h0c0.1,0,0.2,0,0.3,0c-2.1-4.3-2.5-9.3-2.6-11.2h-1.6c-0.1,0-0.1-0.1-0.1-0.1v-3.8h-6
				c-1.4,0-2.7-0.3-4-0.8c-1.3-0.6-2.7-1.5-3.9-3c-1.5-1.9-2.2-4.3-2-6.7c0.3-4.2,1.2-14.9,3.2-20.3c0,0,2.5-8.3,10.9-8.6h5.8h5.8
				c8.4,0.3,10.9,8.6,10.9,8.6c1.9,5.4,2.9,16.1,3.2,20.3c0.2,2.4-0.5,4.8-2,6.7c-1.2,1.5-2.7,2.4-3.9,3c-1.2,0.6-2.6,0.8-4,0.8h-6
				v3.8c-0.1,0-0.1,0.1-0.1,0.1h-1.5c0.1,1.7,0.4,5.9,2.1,9.2l6.7-6.7h11c2.4,0,4.4-2,4.4-4.4v-11l7-7c2.2-2.2,2.2-5.7,0-7.8l-7-7
				v-11c0-2.4-2-4.4-4.4-4.4h-11l-7-7C37.8,0.5,36.4,0,35,0C33.6,0,32.2,0.5,31.1,1.6"/>
		</defs>
		<clipPath id="SVGID_7_">
			<use xlink:href="#SVGID_6_"  style="overflow:visible;"/>
		</clipPath>
		
			<radialGradient id="SVGID_8_" cx="-499.7546" cy="457.8019" r="0.4696" gradientTransform="matrix(131.3198 126.6158 126.6158 -131.3198 7660.6738 123395.5859)" gradientUnits="userSpaceOnUse">
			<stop  offset="0" style="stop-color:#FFF26E"/>
			<stop  offset="1" style="stop-color:#FFC800"/>
		</radialGradient>
		<polygon class="st2" points="33.7,-35.5 105.5,33.7 36.3,105.5 -35.5,36.3 		"/>
	</g>
	<g>
		<defs>
			<polygon id="SVGID_9_" points="39.7,40.9 39.5,41 39.5,44.8 39.7,44.9 45.8,44.9 46,44.8 46,41 45.8,40.9 			"/>
		</defs>
		<clipPath id="SVGID_10_">
			<use xlink:href="#SVGID_9_"  style="overflow:visible;"/>
		</clipPath>
		
			<radialGradient id="SVGID_11_" cx="-499.7546" cy="457.8019" r="0.4696" gradientTransform="matrix(131.3198 126.6158 126.6158 -131.3198 7660.6738 123395.5859)" gradientUnits="userSpaceOnUse">
			<stop  offset="0" style="stop-color:#FFF26E"/>
			<stop  offset="1" style="stop-color:#FFC800"/>
		</radialGradient>
		<polygon class="st3" points="42.6,37.7 47.9,42.8 42.9,48.1 37.6,43 		"/>
	</g>
	<g>
		<defs>
			<path id="SVGID_12_" d="M24,40.9c0,0-0.1,0.1-0.1,0.1v3.7c0,0,0.1,0.1,0.1,0.1h6.2c0,0,0.1-0.1,0.1-0.1V41c0,0-0.1-0.1-0.1-0.1
				H24z"/>
		</defs>
		<clipPath id="SVGID_13_">
			<use xlink:href="#SVGID_12_"  style="overflow:visible;"/>
		</clipPath>
		
			<radialGradient id="SVGID_14_" cx="-499.7546" cy="457.8019" r="0.4696" gradientTransform="matrix(131.3198 126.6158 126.6158 -131.3198 7660.6738 123395.5859)" gradientUnits="userSpaceOnUse">
			<stop  offset="0" style="stop-color:#FFF26E"/>
			<stop  offset="1" style="stop-color:#FFC800"/>
		</radialGradient>
		<polygon class="st4" points="27,37.7 32.3,42.8 27.2,48.1 21.9,43 		"/>
	</g>
</g>
</svg>
