<?xml version="1.0" encoding="utf-8"?>
<!-- Generator: Adobe Illustrator 19.0.0, SVG Export Plug-In . SVG Version: 6.00 Build 0)  -->
<svg version="1.1" id="Layer_1" xmlns="http://www.w3.org/2000/svg" xmlns:xlink="http://www.w3.org/1999/xlink" x="0px" y="0px"
	 width="616.2px" height="67.9px" viewBox="-171 247.1 616.2 67.9" style="enable-background:new -171 247.1 616.2 67.9;"
	 xml:space="preserve">
<style type="text/css">
	.st0{fill:#333333;}
</style>
<g id="XMLID_27_">
	<path id="XMLID_30_" class="st0" d="M-121.8,248.1v42.7c0,7.6-2.2,13.5-6.6,17.8c-4.4,4.3-10.5,6.4-18.4,6.4
		c-7.6,0-13.6-2.1-17.9-6.4c-4.2-4.4-6.3-10.3-6.3-18v-42.5h4.6v42.7c0,6.3,1.8,11.3,5.3,14.8s8.5,5.3,14.9,5.3
		c6.3,0,11.2-1.7,14.6-5.2c3.5-3.5,5.2-8.3,5.2-14.5v-43.1H-121.8z"/>
	<path id="XMLID_28_" class="st0" d="M-99.2,314.1v-66h4.6v66H-99.2z"/>
	<path id="XMLID_52_" class="st0" d="M-50.3,248.1l-24.5,66h-4.7l24.5-66H-50.3z"/>
	<path id="XMLID_54_" class="st0" d="M13.2,248.1v42.7c0,7.6-2.2,13.5-6.6,17.8c-4.4,4.3-10.5,6.4-18.4,6.4
		c-7.6,0-13.6-2.1-17.9-6.4c-4.3-4.3-6.4-10.3-6.4-17.9v-42.6h4.6v42.7c0,6.3,1.8,11.3,5.3,14.8s8.5,5.3,14.9,5.3
		c6.3,0,11.2-1.7,14.6-5.2c3.5-3.5,5.2-8.3,5.2-14.5v-43.1H13.2z"/>
	<path id="XMLID_56_" class="st0" d="M76.2,314.1h-5.3l-19.5-30.8l-19.8,30.8h-5.1l22.2-34.4l-20.2-31.6h5.2l17.8,28.2l18.1-28.2
		h4.9l-20.4,31.5L76.2,314.1z"/>
	<path id="XMLID_58_" class="st0" d="M168.8,280.5c0,11.1-2.9,19.4-8.7,25.1c-5.8,5.7-14.3,8.5-25.6,8.5h-15.8v-66h17.8
		c10.5,0,18.5,2.8,24,8.3C166,261.9,168.8,269.9,168.8,280.5z M163.8,280.6c0-9.4-2.4-16.5-7.2-21.3c-4.8-4.8-11.8-7.1-21.1-7.1
		h-12.1V310h10.9C153.9,310,163.8,300.2,163.8,280.6z"/>
	<path id="XMLID_61_" class="st0" d="M222.6,314.1h-36v-66h36v4.2h-31.4v24.9h29.7v4.2h-29.7v28.3h31.4V314.1z"/>
	<path id="XMLID_63_" class="st0" d="M280.5,297.1c0,5.5-2,9.9-6.1,13.1c-4,3.2-9.4,4.8-16.1,4.8c-8.1,0-14.2-0.9-18.5-2.7v-4.6
		c4.7,2,10.8,3,18.2,3c5.4,0,9.7-1.2,12.9-3.7c3.2-2.5,4.8-5.7,4.8-9.8c0-2.5-0.5-4.6-1.6-6.2c-1.1-1.6-2.8-3.1-5.1-4.5
		c-2.4-1.4-5.9-2.8-10.5-4.4c-6.7-2.3-11.4-4.8-14-7.5c-2.6-2.7-3.9-6.3-3.9-10.8c0-4.9,1.9-9,5.8-12.1s8.8-4.7,14.9-4.7
		c6.2,0,12,1.2,17.4,3.5l-1.7,4c-5.5-2.3-10.7-3.4-15.7-3.4c-4.9,0-8.7,1.1-11.6,3.4s-4.3,5.3-4.3,9.2c0,2.4,0.4,4.4,1.3,6
		s2.3,3,4.4,4.2c2,1.2,5.5,2.7,10.4,4.5c5.1,1.8,9,3.5,11.6,5.2c2.6,1.7,4.5,3.6,5.7,5.7S280.5,294.1,280.5,297.1z"/>
	<path id="XMLID_65_" class="st0" d="M299,314.1v-66h4.6v66H299z"/>
	<path id="XMLID_67_" class="st0" d="M358.3,280.8h17.8v30.1c-6.4,2.7-13.5,4.1-21.5,4.1c-10.4,0-18.4-2.9-23.9-8.8
		s-8.3-14.2-8.3-25c0-6.7,1.4-12.6,4.1-17.8c2.8-5.2,6.7-9.2,11.8-12s11-4.2,17.7-4.2c7.2,0,13.6,1.3,19.3,4l-1.8,4.1
		c-5.7-2.6-11.6-4-17.8-4c-8.7,0-15.6,2.7-20.7,8c-5.1,5.3-7.6,12.6-7.6,21.7c0,9.9,2.4,17.4,7.3,22.4c4.8,5,11.9,7.5,21.3,7.5
		c6.1,0,11.2-0.9,15.5-2.6v-23.1h-12.9L358.3,280.8z"/>
	<path id="XMLID_69_" class="st0" d="M445.2,314.1h-4.6l-39-58.5h-0.4c0.4,7,0.5,12.2,0.5,15.8v42.7h-4.4v-66h4.6l39,58.4h0.3
		c-0.3-5.4-0.4-10.6-0.4-15.4v-43h4.5L445.2,314.1L445.2,314.1z"/>
</g>
</svg>
