<?xml version="1.0" encoding="utf-8"?>
<!-- Generator: Adobe Illustrator 19.0.0, SVG Export Plug-In . SVG Version: 6.00 Build 0)  -->
<svg version="1.1" id="Layer_1" xmlns="http://www.w3.org/2000/svg" xmlns:xlink="http://www.w3.org/1999/xlink" x="0px" y="0px"
	 width="73.8px" height="94px" viewBox="-442 234 73.8 94" style="enable-background:new -442 234 73.8 94;" xml:space="preserve">
<style type="text/css">
	.st0{fill:url(#SVGID_1_);}
	.st1{fill:url(#SVGID_2_);}
	.st2{fill:#C19554;}
	.st3{fill:url(#SVGID_3_);}
</style>
<g>
	<linearGradient id="SVGID_1_" gradientUnits="userSpaceOnUse" x1="-405.3802" y1="234" x2="-405.3802" y2="321.9">
		<stop  offset="0" style="stop-color:#D0AC54"/>
		<stop  offset="1" style="stop-color:#C19554"/>
	</linearGradient>
	<path class="st0" d="M-378.1,277.3c3.1-12.7-3.8-25.7-15.9-31.7c-0.5-0.3-1.6,3.8-1.6,3.8c0.9,0.5,0.5,2.1,1.4,2.7
		c8,5.2,12.4,14.6,10.1,23.9c-2.9,12-15.7,19.1-28.6,16c-1.9-0.5-3.6-1.1-5.3-1.9l11.9-35.6l1.5-1.8l11,33c1.9-1.4,4.1-3.7,5-5.4
		l-13.3-38.8l4.4-4.5v-3h-15.2v3l4.6,4.7l-0.3,0.2l-25,75.1l4.8,4.9l8.8-26.4c1.8,0.8,3.7,1.5,5.8,2
		C-397.8,301.4-381.7,292.4-378.1,277.3z"/>
	<linearGradient id="SVGID_2_" gradientUnits="userSpaceOnUse" x1="-420.4582" y1="243.4" x2="-420.4582" y2="260.6">
		<stop  offset="0" style="stop-color:#E9D25C"/>
		<stop  offset="1" style="stop-color:#C19554"/>
	</linearGradient>
	<path class="st1" d="M-426,260.6c0.5-0.9,2.1-0.5,2.7-1.4c2.4-3.7,5.7-6.6,9.5-8.5c0.2-0.1,2.5-7.3,2.5-7.3
		c-7.7,2.1-14.4,7.6-18.3,15.2C-429.9,259.2-426,260.6-426,260.6z"/>
	<path class="st2" d="M-389.6,297.1l8.1,24.7l4.9-4.9l-7.8-24.1C-385.7,294.3-387.6,296-389.6,297.1z"/>
	<linearGradient id="SVGID_3_" gradientUnits="userSpaceOnUse" x1="-405.1" y1="317.4" x2="-405.1" y2="328">
		<stop  offset="0" style="stop-color:#C19554"/>
		<stop  offset="1" style="stop-color:#C19554"/>
	</linearGradient>
	<polygon class="st3" points="-410.4,322.7 -405.1,328 -399.8,322.7 -405.1,317.4 	"/>
	
		<rect x="-440.5" y="287.3" transform="matrix(0.7071 -0.7071 0.7071 0.7071 -333.7498 -223.5819)" class="st2" width="7.5" height="7.5"/>
	
		<rect x="-377.2" y="287.3" transform="matrix(0.7071 -0.7071 0.7071 0.7071 -315.2008 -178.8342)" class="st2" width="7.5" height="7.5"/>
</g>
</svg>
