<?xml version="1.0" encoding="utf-8"?>
<!-- Generator: Adobe Illustrator 19.0.0, SVG Export Plug-In . SVG Version: 6.00 Build 0)  -->
<svg version="1.1" id="Layer_1" xmlns="http://www.w3.org/2000/svg" xmlns:xlink="http://www.w3.org/1999/xlink" x="0px" y="0px"
	 width="40px" height="40px" viewBox="-459 261 40 40" style="enable-background:new -459 261 40 40;" xml:space="preserve">
<style type="text/css">
	.st0{fill:url(#XMLID_2_);}
	.st1{fill:#FFFFFF;}
</style>
<g id="XMLID_41_">
	<linearGradient id="XMLID_2_" gradientUnits="userSpaceOnUse" x1="-453.1422" y1="295.1422" x2="-424.8578" y2="266.8578">
		<stop  offset="0" style="stop-color:#DB3136"/>
		<stop  offset="1" style="stop-color:#CE0000"/>
	</linearGradient>
	<circle id="XMLID_29_" class="st0" cx="-439" cy="281" r="20"/>
	<g id="XMLID_40_">
		<path id="XMLID_38_" class="st1" d="M-440.9,269.4c-2.4,0.7-4.4,2.4-5.7,4.7c-0.1,0.2,1.1,0.6,1.1,0.6c0.1-0.3,0.7-0.2,0.8-0.4
			c0.8-1.2,1.8-2.1,3-2.6C-441.6,271.6-440.9,269.4-440.9,269.4z"/>
		<path id="XMLID_36_" class="st1" d="M-430.2,292.1l-2.4-7.5c-0.4,0.5-1,1-1.6,1.3l2.5,7.7L-430.2,292.1z"/>
		<polygon id="XMLID_35_" class="st1" points="-439,295.5 -437.4,293.9 -439,292.3 -439,292.3 -439,292.3 -439,292.3 -439,292.3 
			-440.6,293.9 -439,295.5 -439,295.5 -439,295.5 		"/>
		
			<rect id="XMLID_34_" x="-449.9" y="283" transform="matrix(-0.7071 0.7071 -0.7071 -0.7071 -565.1544 802.318)" class="st1" width="2.3" height="2.3"/>
		
			<rect id="XMLID_33_" x="-430.4" y="283" transform="matrix(-0.7071 0.7071 -0.7071 -0.7071 -531.7787 788.6162)" class="st1" width="2.3" height="2.3"/>
		<path id="XMLID_28_" class="st1" d="M-435.6,270c-0.2-0.1-0.5,1.2-0.5,1.2c0.3,0.1,0.2,0.7,0.4,0.8c2.5,1.6,3.8,4.5,3.1,7.4
			c-0.9,3.7-4.9,5.9-8.9,5c-0.6-0.1-1.1-0.3-1.6-0.6l3.7-11l0.5-0.6l3.4,10.2c0.6-0.4,1.3-1.2,1.5-1.7l-4-11.9l1.3-1.4v-0.8h-5v0.8
			l1.5,1.4v0.1l-7.7,23.2l1.5,1.5l2.7-8.2c0.6,0.3,1.2,0.5,1.8,0.6c5,1.2,10-1.6,11.1-6.2C-429.7,275.9-431.8,271.9-435.6,270z"/>
	</g>
</g>
</svg>
