<?xml version="1.0" encoding="utf-8"?>
<!-- Generator: Adobe Illustrator 19.0.0, SVG Export Plug-In . SVG Version: 6.00 Build 0)  -->
<svg version="1.1" id="Layer_1" xmlns="http://www.w3.org/2000/svg" xmlns:xlink="http://www.w3.org/1999/xlink" x="0px" y="0px"
	 width="73.8px" height="94px" viewBox="0 0 73.8 94" style="enable-background:new 0 0 73.8 94;" xml:space="preserve">
<style type="text/css">
	.st0{fill:#FFFFFF;}
</style>
<path id="XMLID_8_" class="st0" d="M46.4,15.4c0.9,0.5,0.5,2.1,1.4,2.7c8,5.2,12.4,14.6,10.1,23.9c-2.9,12-15.7,19.1-28.6,16
	c-3.2-0.8-6.2-2.1-8.7-3.9l-3,4.9c3.1,2,6.5,3.6,10.4,4.5c16.2,3.9,32.3-5.1,35.9-20.2C67,30.6,60.1,17.6,48,11.6
	C47.5,11.3,46.4,15.4,46.4,15.4z"/>
<path id="XMLID_7_" class="st0" d="M30.7,9.4C23,11.5,16.3,17,12.4,24.6c-0.3,0.6,3.6,2,3.6,2c0.5-0.9,2.1-0.5,2.7-1.4
	c2.4-3.7,5.7-6.6,9.5-8.5C28.4,16.6,30.7,9.4,30.7,9.4z"/>
<path id="XMLID_6_" class="st0" d="M13.4,87.9l22.5-67.4l1.5-1.8l11,33c1.9-1.4,4.1-3.7,5-5.4L39.8,6.7l-3.1-2.5l-1.4,2.5l-1.7,1.2
	L8.6,83L13.4,87.9z"/>
<path id="XMLID_5_" class="st0" d="M65.4,82.9l-7.8-24.1c-1.3,1.5-3.2,3.2-5.2,4.3l8.1,24.7L65.4,82.9z"/>
<polygon id="XMLID_4_" class="st0" points="36.9,94 42.2,88.7 36.9,83.4 36.9,83.4 36.9,83.4 36.9,83.4 36.9,83.4 31.6,88.7 
	36.9,94 36.9,94 36.9,94 36.9,94 "/>
<rect id="XMLID_3_" x="1.5" y="53.3" transform="matrix(0.7071 -0.7071 0.7071 0.7071 -38.8167 20.4561)" class="st0" width="7.5" height="7.5"/>
<rect id="XMLID_2_" x="64.8" y="53.3" transform="matrix(0.7071 -0.7071 0.7071 0.7071 -20.2842 65.1956)" class="st0" width="7.5" height="7.5"/>
<polygon id="XMLID_1_" class="st0" points="44.5,3 36.9,10.8 29.3,3 29.3,0 44.5,0 "/>
</svg>
