<?xml version="1.0" encoding="utf-8"?>
<!-- Generator: Adobe Illustrator 19.0.0, SVG Export Plug-In . SVG Version: 6.00 Build 0)  -->
<svg version="1.1" id="Layer_1" xmlns="http://www.w3.org/2000/svg" xmlns:xlink="http://www.w3.org/1999/xlink" x="0px" y="0px"
	 width="380px" height="790px" viewBox="0 0 380 790" style="enable-background:new 0 0 380 790;" xml:space="preserve">
<style type="text/css">
	.st0{fill:#F5F5F5;}
	.st1{fill:#D2D2D2;}
	.st2{fill:#333333;}
</style>
<g id="XMLID_2_">
	<path id="XMLID_29_" class="st0" d="M40,789.5c-21.8,0-39.5-17.7-39.5-39.5V40C0.5,18.2,18.2,0.5,40,0.5h300
		c21.8,0,39.5,17.7,39.5,39.5v710c0,21.8-17.7,39.5-39.5,39.5H40z"/>
	<g id="XMLID_25_">
		<path id="XMLID_26_" class="st1" d="M340,1c21.5,0,39,17.5,39,39v710c0,21.5-17.5,39-39,39H40c-21.5,0-39-17.5-39-39V40
			C1,18.5,18.5,1,40,1H340 M340,0H40C17.9,0,0,17.9,0,40v710c0,22.1,17.9,40,40,40h300c22.1,0,40-17.9,40-40V40
			C380,17.9,362.1,0,340,0L340,0z"/>
	</g>
</g>
<rect id="XMLID_86_" x="26" y="106" class="st2" width="328" height="578"/>
<g id="XMLID_7_">
	<path id="XMLID_47_" class="st1" d="M190,705.3c17.4,0,31.5,14.1,31.5,31.5s-14.1,31.5-31.5,31.5s-31.5-14.1-31.5-31.5
		S172.6,705.3,190,705.3 M190,704.3c-17.9,0-32.5,14.6-32.5,32.5s14.6,32.5,32.5,32.5s32.5-14.6,32.5-32.5S207.9,704.3,190,704.3
		L190,704.3z"/>
</g>
</svg>
