<?xml version="1.0" encoding="utf-8"?>
<!-- Generator: Adobe Illustrator 19.0.0, SVG Export Plug-In . SVG Version: 6.00 Build 0)  -->
<svg version="1.1" id="Layer_1" xmlns="http://www.w3.org/2000/svg" xmlns:xlink="http://www.w3.org/1999/xlink" x="0px" y="0px"
	 width="280px" height="234px" viewBox="-339 164 280 234" style="enable-background:new -339 164 280 234;" xml:space="preserve">
<style type="text/css">
	.st0{fill:#FFFFFF;stroke:#C19654;stroke-width:4;stroke-linejoin:round;stroke-miterlimit:10;}
	
		.st1{opacity:0.5;fill:#FFFFFF;stroke:#C19654;stroke-width:4;stroke-linejoin:round;stroke-miterlimit:10;enable-background:new    ;}
	.st2{fill:#FFFFFF;stroke:#C19654;stroke-width:4;stroke-miterlimit:10;}
	.st3{fill:#FFFFFF;stroke:#C19654;stroke-width:4;stroke-linecap:round;stroke-miterlimit:10;}
	
		.st4{opacity:0.5;fill:#FFFFFF;stroke:#C19654;stroke-width:4;stroke-linecap:round;stroke-miterlimit:10;enable-background:new    ;}
	
		.st5{opacity:0.5;fill:#FFFFFF;stroke:#C19654;stroke-width:4;stroke-linecap:round;stroke-linejoin:round;stroke-miterlimit:10;enable-background:new    ;}
	.st6{fill:#FFFFFF;stroke:#C19654;stroke-width:4;stroke-linecap:round;stroke-linejoin:round;stroke-miterlimit:10;}
	.st7{fill:#FFFFFF;stroke:url(#SVGID_1_);stroke-width:4;stroke-miterlimit:10;}
	.st8{fill:#FFFFFF;stroke:#323232;stroke-width:4;stroke-linejoin:round;stroke-miterlimit:10;}
	.st9{fill:none;stroke:#C19654;stroke-width:4;stroke-linecap:round;stroke-miterlimit:10;}
</style>
<rect x="-139" y="246" class="st0" width="60" height="60"/>
<rect x="-319" y="246" class="st1" width="60" height="60"/>
<rect x="-309" y="196" class="st0" width="60" height="70"/>
<rect x="-149" y="196" class="st0" width="60" height="70"/>
<circle class="st2" cx="-264" cy="211" r="5"/>
<line class="st3" x1="-139" y1="206" x2="-99" y2="206"/>
<line class="st3" x1="-139" y1="216" x2="-99" y2="216"/>
<line class="st3" x1="-139" y1="226" x2="-99" y2="226"/>
<line class="st3" x1="-139" y1="236" x2="-99" y2="236"/>
<line class="st4" x1="-129" y1="296" x2="-89" y2="296"/>
<line class="st4" x1="-129" y1="286" x2="-89" y2="286"/>
<line class="st4" x1="-129" y1="276" x2="-89" y2="276"/>
<line class="st3" x1="-139" y1="246" x2="-109" y2="246"/>
<line class="st3" x1="-89" y1="266" x2="-79" y2="246"/>
<polygon class="st1" points="-299,256 -269,256 -269,246 -299,236 -299,246 "/>
<line class="st5" x1="-199" y1="166" x2="-199" y2="196"/>
<path class="st5" d="M-249,296c0-27.6,22.4-50,50-50s50,22.4,50,50s-22.4,50-50,50"/>
<path class="st5" d="M-109,296c0,49.7-40.3,90-90,90s-90-40.3-90-90s40.3-90,90-90"/>
<path class="st5" d="M-179.9,323.9c0,0-10.5-3.7-17.7,3.5s-3.5,17.7-3.5,17.7"/>
<path class="st6" d="M-201.1,345.1c0,0,10.5,3.7,17.7-3.5s3.5-17.7,3.5-17.7"/>
<path class="st5" d="M-139.3,341.3c0,0-3.3-10.6-13.4-12.1c-10.1-1.5-16.3,7.7-16.3,7.7"/>
<path class="st6" d="M-169,336.9c0,0,3.3,10.6,13.4,12.1c10.1,1.5,16.3-7.7,16.3-7.7"/>
<g>
	
		<linearGradient id="SVGID_1_" gradientUnits="userSpaceOnUse" x1="-241.4642" y1="267.4358" x2="-156.5358" y2="352.3642" gradientTransform="matrix(1 0 0 -1 0 564)">
		<stop  offset="0" style="stop-color:#C19654"/>
		<stop  offset="1" style="stop-color:#D5B88B"/>
	</linearGradient>
	<path class="st7" d="M-174,309.1h-50c-2.8,0-5-2.2-5-5v-100c0-2.8,2.2-5,5-5h50c2.8,0,5,2.2,5,5v100
		C-169,306.9-171.2,309.1-174,309.1z"/>
	<circle class="st2" cx="-199" cy="294.1" r="5"/>
</g>
<polygon class="st0" points="-279,256 -259,256 -259,246 -269,236 -279,246 "/>
<g>
	<path class="st5" d="M-221.1,176.9c0,0-3.7,10.5,3.5,17.7c7.2,7.2,17.7,3.5,17.7,3.5"/>
	<path class="st6" d="M-199.9,198.1c0,0,3.7-10.5-3.5-17.7c-7.2-7.2-17.7-3.5-17.7-3.5"/>
</g>
<path class="st8" d="M-274,356h60c2.8,0,5,2.2,5,5v30c0,2.8-2.2,5-5,5h-60c-2.8,0-5-2.2-5-5v-30C-279,358.2-276.8,356-274,356z"/>
<path class="st0" d="M-274,356h60c2.8,0,5,2.2,5,5v30c0,2.8-2.2,5-5,5h-60c-2.8,0-5-2.2-5-5v-30C-279,358.2-276.8,356-274,356z"/>
<line class="st9" x1="-239" y1="386" x2="-249" y2="386"/>
<line class="st9" x1="-259" y1="386" x2="-269" y2="386"/>
<line class="st9" x1="-219" y1="386" x2="-229" y2="386"/>
<line class="st3" x1="-239" y1="376" x2="-249" y2="376"/>
<line class="st3" x1="-219" y1="376" x2="-229" y2="376"/>
<line class="st3" x1="-219" y1="366" x2="-229" y2="366"/>
<path class="st0" d="M-294,326h40c2.8,0,5,2.2,5,5v30c0,2.8-2.2,5-5,5h-40c-2.8,0-5-2.2-5-5v-30C-299,328.2-296.8,326-294,326z"/>
<line class="st3" x1="-259" y1="356" x2="-289" y2="356"/>
<line class="st3" x1="-259" y1="336" x2="-279" y2="336"/>
<line class="st3" x1="-259" y1="346" x2="-289" y2="346"/>
<polyline class="st6" points="-249,336 -229,336 -229,356 "/>
</svg>
