<?xml version="1.0" encoding="utf-8"?>
<!-- Generator: Adobe Illustrator 19.0.0, SVG Export Plug-In . SVG Version: 6.00 Build 0)  -->
<svg version="1.1" id="Layer_1" xmlns="http://www.w3.org/2000/svg" xmlns:xlink="http://www.w3.org/1999/xlink" x="0px" y="0px"
	 width="280px" height="234px" viewBox="-339 164 280 234" style="enable-background:new -339 164 280 234;" xml:space="preserve">
<style type="text/css">
	
		.st0{opacity:0.5;fill:#FFFFFF;stroke:#C19654;stroke-width:4;stroke-linejoin:round;stroke-miterlimit:10;enable-background:new    ;}
	.st1{fill:none;stroke:url(#XMLID_2_);stroke-width:4;stroke-linejoin:round;stroke-miterlimit:10;}
	
		.st2{opacity:0.5;fill:#FFFFFF;stroke:#C19654;stroke-width:4;stroke-linecap:round;stroke-linejoin:round;stroke-miterlimit:10;enable-background:new    ;}
	.st3{fill:#FFFFFF;stroke:#C19654;stroke-width:4;stroke-linecap:round;stroke-linejoin:round;stroke-miterlimit:10;}
	.st4{opacity:0.5;fill:#FFFFFF;stroke:#323232;stroke-width:4;stroke-miterlimit:10;enable-background:new    ;}
	.st5{fill:none;stroke:url(#XMLID_3_);stroke-width:4;stroke-miterlimit:10;}
	.st6{fill:none;stroke:#C19654;stroke-width:4;stroke-linecap:round;stroke-miterlimit:10;}
	.st7{fill:#FFFFFF;stroke:#C19654;stroke-width:4;stroke-linejoin:round;stroke-miterlimit:10;}
	.st8{fill:none;stroke:#C19654;stroke-width:4;stroke-linecap:round;stroke-linejoin:round;stroke-miterlimit:10;}
	
		.st9{opacity:0.5;fill:none;stroke:#C19654;stroke-width:4;stroke-linecap:round;stroke-linejoin:round;stroke-miterlimit:10;enable-background:new    ;}
</style>
<rect id="XMLID_152_" x="-176.1" y="168.1" transform="matrix(-0.7071 -0.7071 0.7071 -0.7071 -414.4887 174.455)" class="st0" width="10" height="10"/>
<linearGradient id="XMLID_2_" gradientUnits="userSpaceOnUse" x1="-192.8087" y1="678.0591" x2="-174.6665" y2="678.0591" gradientTransform="matrix(0.7071 0.7071 0.7071 -0.7071 -548.5576 782.467)">
	<stop  offset="0" style="stop-color:#C19654"/>
	<stop  offset="1" style="stop-color:#D5B88B"/>
</linearGradient>
<rect id="XMLID_151_" x="-204" y="168.1" transform="matrix(-0.7071 -0.7071 0.7071 -0.7071 -462.1458 154.7562)" class="st1" width="10" height="10"/>
<rect id="XMLID_150_" x="-231.9" y="168.1" transform="matrix(-0.7071 -0.7071 0.7071 -0.7071 -509.8027 135.0572)" class="st0" width="10" height="10"/>
<path id="XMLID_149_" class="st2" d="M-154,296c0,27.6-22.4,50-50,50s-50-22.4-50-50s22.4-50,50-50"/>
<path id="XMLID_148_" class="st2" d="M-144,296c0,49.7-40.3,90-90,90s-90-40.3-90-90s40.3-90,90-90"/>
<path id="XMLID_147_" class="st2" d="M-223.1,268.1c0,0,10.5,3.7,17.7-3.5c7.2-7.2,3.5-17.7,3.5-17.7"/>
<path id="XMLID_146_" class="st3" d="M-201.9,246.9c0,0-10.5-3.7-17.7,3.5c-7.2,7.2-3.5,17.7-3.5,17.7"/>
<path id="XMLID_145_" class="st2" d="M-263.7,250.7c0,0,3.3,10.6,13.4,12.1c10.1,1.5,16.3-7.7,16.3-7.7"/>
<path id="XMLID_144_" class="st3" d="M-234,255.1c0,0-3.3-10.6-13.4-12.1c-10.1-1.5-16.3,7.7-16.3,7.7"/>
<path id="XMLID_143_" class="st4" d="M-119,306h-160c-2.8,0-5-2.2-5-5V201c0-2.8,2.2-5,5-5h160c2.8,0,5,2.2,5,5v100
	C-114,303.8-116.2,306-119,306z"/>
<linearGradient id="XMLID_3_" gradientUnits="userSpaceOnUse" x1="-268.9642" y1="243.0358" x2="-129.0358" y2="382.9642" gradientTransform="matrix(1 0 0 -1 0 564)">
	<stop  offset="0" style="stop-color:#C19654"/>
	<stop  offset="1" style="stop-color:#D5B88B"/>
</linearGradient>
<path id="XMLID_142_" class="st5" d="M-119,306h-160c-2.8,0-5-2.2-5-5V201c0-2.8,2.2-5,5-5h160c2.8,0,5,2.2,5,5v100
	C-114,303.8-116.2,306-119,306z"/>
<line id="XMLID_141_" class="st6" x1="-274" y1="206" x2="-254" y2="206"/>
<line id="XMLID_140_" class="st6" x1="-134" y1="206" x2="-124" y2="206"/>
<line id="XMLID_139_" class="st6" x1="-154" y1="206" x2="-144" y2="206"/>
<line id="XMLID_138_" class="st6" x1="-174" y1="206" x2="-164" y2="206"/>
<line id="XMLID_137_" class="st6" x1="-244" y1="236" x2="-154" y2="236"/>
<line id="XMLID_136_" class="st6" x1="-234" y1="246" x2="-164" y2="246"/>
<path id="XMLID_135_" class="st7" d="M-169,326h-30c-2.8,0-5-2.2-5-5v-40c0-2.8,2.2-5,5-5h30c2.8,0,5,2.2,5,5v40
	C-164,323.8-166.2,326-169,326z"/>
<rect id="XMLID_134_" x="-154" y="276" class="st7" width="50" height="50"/>
<line id="XMLID_133_" class="st6" x1="-194" y1="286" x2="-174" y2="286"/>
<line id="XMLID_132_" class="st6" x1="-194" y1="306" x2="-174" y2="306"/>
<line id="XMLID_131_" class="st6" x1="-194" y1="296" x2="-174" y2="296"/>
<line id="XMLID_130_" class="st6" x1="-154" y1="306" x2="-104" y2="306"/>
<line id="XMLID_129_" class="st6" x1="-264" y1="286" x2="-224" y2="286"/>
<line id="XMLID_128_" class="st6" x1="-264" y1="306" x2="-234" y2="306"/>
<line id="XMLID_127_" class="st6" x1="-264" y1="296" x2="-224" y2="296"/>
<path id="XMLID_126_" class="st7" d="M-219,326h-50c-2.8,0-5-2.2-5-5v-40c0-2.8,2.2-5,5-5h50c2.8,0,5,2.2,5,5v40
	C-214,323.8-216.2,326-219,326z"/>
<rect id="XMLID_125_" x="-282" y="346" class="st8" width="170" height="40"/>
<path id="XMLID_124_" class="st8" d="M-282,356"/>
<line id="XMLID_123_" class="st8" x1="-112" y1="396" x2="-282" y2="396"/>
<line id="XMLID_122_" class="st9" x1="-222" y1="396" x2="-222" y2="346"/>
<line id="XMLID_121_" class="st8" x1="-212" y1="346" x2="-212" y2="386"/>
<line id="XMLID_120_" class="st9" x1="-172" y1="346" x2="-172" y2="386"/>
<line id="XMLID_119_" class="st8" x1="-162" y1="346" x2="-162" y2="386"/>
</svg>
