<?xml version="1.0" encoding="utf-8"?>
<!-- Generator: Adobe Illustrator 19.0.0, SVG Export Plug-In . SVG Version: 6.00 Build 0)  -->
<svg version="1.1" id="Layer_1" xmlns="http://www.w3.org/2000/svg" xmlns:xlink="http://www.w3.org/1999/xlink" x="0px" y="0px"
	 width="280px" height="234px" viewBox="-339 164 280 234" style="enable-background:new -339 164 280 234;" xml:space="preserve">
<style type="text/css">
	
		.st0{opacity:0.5;fill:none;stroke:#C19654;stroke-width:4;stroke-linecap:round;stroke-linejoin:round;stroke-miterlimit:10;enable-background:new    ;}
	
		.st1{opacity:0.5;fill:#FFFFFF;stroke:#C19654;stroke-width:4;stroke-linecap:round;stroke-linejoin:round;stroke-miterlimit:10;enable-background:new    ;}
	.st2{fill:#FFFFFF;stroke:#C19654;stroke-width:4;stroke-linecap:round;stroke-linejoin:round;stroke-miterlimit:10;}
	.st3{fill:none;stroke:url(#XMLID_2_);stroke-width:4;stroke-linecap:round;stroke-linejoin:round;stroke-miterlimit:10;}
	.st4{fill:none;stroke:#C19654;stroke-width:4;stroke-linecap:round;stroke-linejoin:round;stroke-miterlimit:10;}
	.st5{fill:none;stroke:url(#XMLID_3_);stroke-width:4;stroke-linecap:round;stroke-linejoin:round;stroke-miterlimit:10;}
	.st6{fill:none;stroke:url(#XMLID_4_);stroke-width:4;stroke-linecap:round;stroke-linejoin:round;stroke-miterlimit:10;}
	.st7{fill:none;stroke:url(#XMLID_5_);stroke-width:4;stroke-linecap:round;stroke-linejoin:round;stroke-miterlimit:10;}
	.st8{fill:none;stroke:url(#XMLID_6_);stroke-width:4;stroke-linecap:round;stroke-linejoin:round;stroke-miterlimit:10;}
	.st9{fill:none;stroke:url(#XMLID_7_);stroke-width:4;stroke-linecap:round;stroke-linejoin:round;stroke-miterlimit:10;}
</style>
<rect id="XMLID_149_" x="-283" y="345" class="st0" width="70" height="40"/>
<g id="XMLID_144_">
	<path id="XMLID_148_" class="st1" d="M-279.9,185c27.6,0,50,22.4,50,50s-22.4,50-50,50s-50-22.4-50-50"/>
	<path id="XMLID_147_" class="st2" d="M-329,232.9c0,0-3.7,10.5,3.5,17.7c7.2,7.2,17.7,3.5,17.7,3.5"/>
	<path id="XMLID_146_" class="st1" d="M-325.2,294.7c0,0,10.6-3.3,12.1-13.4c1.5-10.1-7.6-16.3-7.6-16.3"/>
	<path id="XMLID_145_" class="st2" d="M-320.7,265c0,0-10.6,3.3-12.1,13.4s7.7,16.3,7.7,16.3"/>
</g>
<path id="XMLID_143_" class="st1" d="M-103,295c0,49.7-40.3,90-90,90s-90-40.3-90-90s40.3-90,90-90"/>
<rect id="XMLID_142_" x="-283" y="185" class="st0" width="100" height="130"/>
<linearGradient id="XMLID_2_" gradientUnits="userSpaceOnUse" x1="-274.4142" y1="337.5858" x2="-206.5858" y2="405.4142" gradientTransform="matrix(1 0 0 -1 0 564)">
	<stop  offset="0" style="stop-color:#C19654"/>
	<stop  offset="1" style="stop-color:#D5B88B"/>
</linearGradient>
<polyline id="XMLID_140_" class="st3" points="-183,185 -283,185 -293,195 -293,205 "/>
<polyline id="XMLID_139_" class="st4" points="-293,315 -293,325 -283,315 -183,315 -183,265 -173,275 -163,265 -153,275 -143,265 
	-133,275 -123,265 -113,275 -103,265 "/>
<linearGradient id="XMLID_3_" gradientUnits="userSpaceOnUse" x1="-302.6392" y1="245.8108" x2="-186.2608" y2="362.1892" gradientTransform="matrix(1 0 0 -1 0 564)">
	<stop  offset="0" style="stop-color:#C19654"/>
	<stop  offset="1" style="stop-color:#D5B88B"/>
</linearGradient>
<path id="XMLID_138_" class="st5" d="M-198,325h-95V195h95c2.8,0,5,2.2,5,5v120C-193,322.8-195.2,325-198,325z"/>
<line id="XMLID_137_" class="st0" x1="-173" y1="255" x2="-103" y2="255"/>
<line id="XMLID_136_" class="st0" x1="-173" y1="235" x2="-103" y2="235"/>
<line id="XMLID_135_" class="st0" x1="-113" y1="255" x2="-113" y2="185"/>
<line id="XMLID_134_" class="st0" x1="-163" y1="255" x2="-163" y2="185"/>
<line id="XMLID_133_" class="st0" x1="-173" y1="255" x2="-173" y2="185"/>
<line id="XMLID_132_" class="st0" x1="-103" y1="255" x2="-103" y2="185"/>
<linearGradient id="XMLID_4_" gradientUnits="userSpaceOnUse" x1="-145" y1="389" x2="-131" y2="389" gradientTransform="matrix(1 0 0 -1 0 564)">
	<stop  offset="0" style="stop-color:#C19654"/>
	<stop  offset="1" style="stop-color:#D5B88B"/>
</linearGradient>
<line id="XMLID_131_" class="st6" x1="-143" y1="175" x2="-133" y2="175"/>
<linearGradient id="XMLID_5_" gradientUnits="userSpaceOnUse" x1="-297" y1="168" x2="-123" y2="168" gradientTransform="matrix(1 0 0 -1 0 564)">
	<stop  offset="0" style="stop-color:#C19654"/>
	<stop  offset="1" style="stop-color:#D5B88B"/>
</linearGradient>
<line id="XMLID_141_" class="st7" x1="-295" y1="396" x2="-125" y2="396"/>
<line id="XMLID_130_" class="st0" x1="-173" y1="185" x2="-103" y2="185"/>
<line id="XMLID_129_" class="st0" x1="-138" y1="185" x2="-163" y2="255"/>
<linearGradient id="XMLID_6_" gradientUnits="userSpaceOnUse" x1="-140" y1="344" x2="-111" y2="344" gradientTransform="matrix(1 0 0 -1 0 564)">
	<stop  offset="0" style="stop-color:#C19654"/>
	<stop  offset="1" style="stop-color:#D5B88B"/>
</linearGradient>
<line id="XMLID_128_" class="st8" x1="-138" y1="185" x2="-113" y2="255"/>
<line id="XMLID_127_" class="st0" x1="-273" y1="195" x2="-273" y2="325"/>
<rect id="XMLID_126_" x="-173" y="285" class="st0" width="70" height="100"/>
<linearGradient id="XMLID_7_" gradientUnits="userSpaceOnUse" x1="-165" y1="354" x2="-111" y2="354" gradientTransform="matrix(1 0 0 -1 0 564)">
	<stop  offset="0" style="stop-color:#C19654"/>
	<stop  offset="1" style="stop-color:#D5B88B"/>
</linearGradient>
<path id="XMLID_125_" class="st9" d="M-138,185c13.8,0,25,11.2,25,25s-11.2,25-25,25c-5.4,0-10.4-1.7-14.5-4.6
	c-6.4-4.5-10.5-12-10.5-20.4"/>
<rect id="XMLID_124_" x="-293" y="335" class="st2" width="70" height="40"/>
<line id="XMLID_123_" class="st4" x1="-282.4" y1="365" x2="-263" y2="365"/>
<line id="XMLID_122_" class="st4" x1="-282.4" y1="355" x2="-253.6" y2="355"/>
<line id="XMLID_121_" class="st4" x1="-163" y1="325" x2="-123" y2="325"/>
<line id="XMLID_120_" class="st4" x1="-163" y1="335" x2="-133" y2="335"/>
<circle id="XMLID_119_" class="st4" cx="-153" cy="305" r="10"/>
</svg>
